<?xml version="1.0" encoding="utf-8"?>
<!-- Generator: Adobe Illustrator 24.0.1, SVG Export Plug-In . SVG Version: 6.00 Build 0)  -->
<svg version="1.1" id="Layer_1" xmlns="http://www.w3.org/2000/svg" xmlns:xlink="http://www.w3.org/1999/xlink" x="0px" y="0px"
	 viewBox="0 0 71.56 80" style="enable-background:new 0 0 71.56 80;" xml:space="preserve">
<style type="text/css">
	.st0{fill:#FFFFFF;}
</style>
<g>
	<path class="st0" d="M54.67,0C41.41-0.11,33.9,6.4,33.04,18.8l-0.07,1.01h1.05c0.05,0,0.05,0,0.12,0c0.18,0,0.18,0,0.43,0
		c0.45,0,0.89-0.01,1.31-0.01c0.54-0.01,0.99-0.02,1.33-0.03c0.27-0.01,0.36-0.02,0.48-0.03c0.1-0.01,0.1-0.01,0.22-0.03
		c0.16,0.09,0.16,0.09,0.79-1.07c0.74-8.9,5.75-13.07,15.93-12.98c1.56,0.01,2.84-1.24,2.85-2.8C57.48,1.29,56.23,0.01,54.67,0z"/>
	<path class="st0" d="M52.56,16.29c-5.33-0.84-11.51-0.65-14.8,2.47c-0.96,0.91-1.79,1.25-3.78,0.1c-4.36-2.52-9.58-3.43-14.98-2.57
		C6.05,18.34-1.86,29.25,0.38,43.41c2.72,17.17,17.17,38.3,28.69,36.48c2.47-0.39,4.71-1.7,6.71-3.78c2,2.08,4.24,3.39,6.71,3.78
		c11.52,1.82,25.97-19.3,28.69-36.48C73.42,29.25,65.5,18.34,52.56,16.29z"/>
</g>
</svg>
