<?xml version="1.0" encoding="utf-8"?>
<!-- Generator: Adobe Illustrator 24.0.1, SVG Export Plug-In . SVG Version: 6.00 Build 0)  -->
<svg version="1.1" id="Layer_1" xmlns="http://www.w3.org/2000/svg" xmlns:xlink="http://www.w3.org/1999/xlink" x="0px" y="0px"
	 viewBox="0 0 238.42 238.85" style="enable-background:new 0 0 238.42 238.85;" xml:space="preserve">
<style type="text/css">
	.st0{fill:#FFFFFF;}
	.st1{fill:#BCF3AF;}
	.st2{fill:#CBCBCB;}
	.st3{fill:#D8D8D8;}
	.st4{fill:#E5E5E5;}
	.st5{fill:#B2B2B2;}
</style>
<g>
	<circle class="st0" cx="119.3" cy="119.31" r="117.76"/>
	<g>
		<g>
			<g>
				<g>
					<path class="st1" d="M236.06,119.31c0.13,0.39,0.43,0.17,0.34-0.9l-0.52-0.75L236.06,119.31z"/>
					<path class="st1" d="M236.74,112.1c-0.34-1.25-0.87-2.65-1.26-1.81c0.57,1.2,0.39,1.51,1.06,2.82c0.1,1.07-0.11,1.87-0.29,1.7
						c0.14,0.37-0.07,1.66,0.26,2.23c0.17-0.7,0.25-1.49,0.25-2.34c0-0.85-0.11-1.75-0.35-2.66
						C236.48,111.64,236.64,112.01,236.74,112.1z"/>
					<path class="st1" d="M187.96,22.81l0.52,0.44C188.35,23.12,188.17,22.97,187.96,22.81z"/>
					<path class="st1" d="M127.17,0.87c0.5,0.03,0.71-0.01,0.74-0.05C127.45,0.82,127.07,0.82,127.17,0.87z"/>
					<path class="st1" d="M115.98,0.12c0.24,0.01,0.44,0.01,0.66,0.02C116.39,0.1,116.13,0.08,115.98,0.12z"/>
					<path class="st1" d="M187.96,22.81l-1.34-1.14C186.43,21.74,187.29,22.29,187.96,22.81z"/>
					<path class="st1" d="M233.8,97.97c0.09,0.35,0.19,0.64,0.29,0.9c-0.07-0.29-0.14-0.57-0.21-0.85
						C233.86,98,233.83,98,233.8,97.97z"/>
					<path class="st1" d="M209.49,41.95l0.35,0.4c0.15,0.08,0.29,0.15,0.44,0.2L209.49,41.95z"/>
					<path class="st1" d="M222.37,59.99c-0.23-0.45-0.69-0.38-0.94-0.46c0.29,0.16,0.55,0.44,0.79,0.8
						C222.3,60.31,222.35,60.2,222.37,59.99z"/>
					<path class="st1" d="M234.47,92.82l0.2,0.59C234.62,93.26,234.53,93,234.47,92.82z"/>
					<path class="st1" d="M198.44,30.54c0.01-0.07-0.01-0.16-0.05-0.24C198.36,30.33,198.38,30.42,198.44,30.54z"/>
					<path class="st1" d="M232.37,144.18c0.03,0.02,0.05,0,0.07,0.01C232.43,144.06,232.41,144.02,232.37,144.18z"/>
					<path class="st1" d="M237.17,119.31l0.01,0.35c0.08,0.04,0.16,0.08,0.23,0.08L237.17,119.31z"/>
					<path class="st1" d="M95.45,1.88c0.04,0,0.05,0,0.09-0.01C96.07,1.73,95.77,1.79,95.45,1.88z"/>
					<path class="st1" d="M2.51,144.59c-0.11-2.16,1.25,3.28,0.94,0.06C3.36,144.99,2.15,141.94,2.51,144.59z"/>
					<path class="st1" d="M233.75,97.41c-0.05-0.29-0.11-0.58-0.16-0.88C233.65,96.93,233.7,97.2,233.75,97.41z"/>
					<path class="st1" d="M3.45,144.66L3.45,144.66l-0.03-0.33C3.43,144.46,3.44,144.54,3.45,144.66z"/>
					<path class="st1" d="M52.01,20.49c0.12,0.01,0.31-0.06,0.5-0.13C52.47,20.33,52.35,20.35,52.01,20.49z"/>
					<path class="st1" d="M83.94,5.7L83.1,5.92C83.44,5.85,83.71,5.77,83.94,5.7z"/>
					<path class="st1" d="M38.09,32.41c-0.37,0.3-0.52,0.37-0.95,0.86c0.06-0.03,0.11-0.06,0.18-0.1
						C37.45,32.97,37.66,32.74,38.09,32.41z"/>
					<path class="st1" d="M25.29,46.47c0.09-0.06,0.19-0.15,0.28-0.22c0.11-0.15,0.24-0.33,0.35-0.49L25.29,46.47z"/>
					<path class="st1" d="M207.78,194.26c0.36-0.23,0.62-0.34,0.85-0.4C208.21,193.87,209.92,191.75,207.78,194.26z"/>
					<path class="st1" d="M234.03,97.92c-0.12-0.09-0.2-0.24-0.28-0.51c0.05,0.21,0.09,0.41,0.13,0.61
						C233.96,98.06,234.02,98.06,234.03,97.92z"/>
					<path class="st1" d="M39.82,35.36l-2.17,1.98C38.27,36.81,39.06,36.09,39.82,35.36z"/>
					<path class="st1" d="M87.23,230.82l0.67,0.14C87.65,230.88,87.41,230.82,87.23,230.82z"/>
					<path class="st1" d="M31.77,43.8c-0.46,0.3-0.89,0.67-1.31,1.06c-0.05,0.11-0.13,0.24-0.14,0.33L31.77,43.8z"/>
					<path class="st1" d="M208.64,193.85C208.63,193.85,208.63,193.85,208.64,193.85C208.63,193.85,208.63,193.85,208.64,193.85z"/>
					<path class="st1" d="M218.95,177.41c-1.4,2.42-0.19,1.42-0.21,2.1c-1.67,2.92-1.18,1.09-2.04,1.9
						c-0.5,0.92-0.86,1.78-1.21,2.59c-0.37,0.79-0.74,1.5-1.2,2.13c-0.14,0.04-0.35,0.27-0.23-0.09c-0.48,1.01-1.36,2.41-2.42,3.73
						c-1.04,1.34-2.06,2.74-2.68,3.91c-0.16,0.11-0.26,0.16-0.33,0.17c0.49-0.14,0.75-0.01,0.85,0.19
						c-0.82,0.97-1.28,2.01-1.87,2.14c0.52-0.58,0.45-0.73,0.6-1.08l-0.75,1.11c-1.18,0.56,1.05-1.49,0.76-1.74
						c-0.78,1.03-1.59,2.19-2.37,3.27c-0.82,1.04-1.65,1.99-2.38,2.66c-0.65-0.05,3.08-3.47,0.92-1.87c0.76-0.68,1.49-1.4,2.2-2.14
						c-2.13,1.23,1.26-1.37-0.79-0.31c-0.67,0.74-1.2,1.31-1.66,1.8c-0.45,0.5-0.81,0.92-1.18,1.35c-0.74,0.84-1.42,1.75-2.94,3.05
						c-0.46,0.83,0.51,0.09,0.05,0.92c-0.95,1.08-1.68,1.76-2.29,2.21c-0.62,0.45-1.12,0.66-1.57,0.85c-0.9,0.39-1.64,0.66-3,2.29
						c-0.62,0.95-0.56,1.7-3.12,3.29l0.45-1.09c-3.08,2.36-1.27,2.02-4.81,4.1c0.46-0.61,2.39-1.93,1.87-1.64
						c-2.42,1.16-1.33,1.35-2.99,2.53l-0.63-0.19c-3.42,2.32-7.11,5.06-11.18,7.23c0.16-0.25,0.78-0.75-0.24-0.4
						c-2.49,1.49-5.33,2.71-8.16,3.89c-1.44,0.51-2.88,1.01-4.29,1.51c-1.4,0.51-2.83,0.83-4.16,1.23l-1.88,1.1
						c-0.47,0.15-0.94,0.07-0.45-0.16c-2.14,0.43-0.03,0.3-0.98,0.75c-1.18,0.37-1.64,0.2-0.93-0.14
						c-3.53,1.56-10.46,3.4-14.53,3.59l0.76-0.27c-3.13,0.31-3.41,1.37-6.37,1.35l0.55-0.15c-6.82,0.58-14.44,1.01-19.62,0.05
						c-0.51,0.28-2.2,0.08-3.82-0.08c-1.62-0.13-3.15-0.41-3.43,0.03c-1.92-0.46-2.59-0.7-3.46-0.94c-0.86-0.27-1.92-0.59-4.59-1.21
						c-1.44-0.27-2.25,0.1-4.05-0.21l0.06-0.46l-2.52-0.08c-0.38-0.27-0.76-0.57-1.13-0.87l-1.67-0.35c0.64,0.21,1.33,0.59,1.2,0.69
						c-1.31-0.26-2.85-0.78-4.06-1.27c-1.2-0.52-2.05-1.03-2.05-1.15l-3.04-0.82c-1.02-0.27-2-0.63-3-0.95
						c0.2-0.12,1.2,0.2,2.01,0.4c-3.29-0.79-0.39-0.68-3.4-1.4c0.34,0.25-0.31,0.17-0.41,0.23c-0.67-0.39-1.78-0.97-3.04-1.57
						c-1.25-0.61-2.66-1.15-3.83-1.7l0.58-0.06c-1.03-0.55-2.09-1.09-3.18-1.64c-0.54-0.27-1.09-0.55-1.65-0.83
						c-0.54-0.3-1.09-0.6-1.64-0.91c-1.1-0.61-2.23-1.21-3.35-1.86c-1.09-0.69-2.19-1.38-3.3-2.08c1.5,1.13,0.84,1.37-0.49,0.58
						l-0.25-0.74c-1-0.29,1.25,1.02-0.67,0.23c-1.58-1.17-0.76-1.21,0.24-0.7l-2.03-1.24c-0.03-0.2,0.47,0.06,0.69-0.01
						c-0.96-0.33-3.07-2.73-4.45-3.22l-0.02-0.2c-1.03-0.8-1.92-1.49-2.73-2.11c-0.8-0.63-1.49-1.23-2.18-1.79
						c-0.69-0.56-1.35-1.11-2.04-1.68c-0.69-0.58-1.37-1.24-2.14-1.96c-0.35,0.25-1.49-0.97-2.65-1.61
						c-1.02-1.2-2.09-2.46-3.22-3.78c-1.11-1.33-2.21-2.78-3.47-4.19c-1.86-1.91-0.77-0.37-1.72-1.14c0.18-0.4-2.18-3.34-0.76-1.97
						c-1.45-1.74-2.28-2.92-3.25-4.2c-0.49-0.63-1-1.3-1.61-2.08c-0.58-0.81-1.25-1.75-2.09-2.92c0.2,0.61,0.53,1.24,0.22,1
						c-0.62-0.85-1.15-2.09-0.91-2.06l0.18,0.21c-1.93-2.6-3.55-5.98-4.89-9.27c-0.73-1.62-1.29-3.26-1.93-4.74
						c-0.31-0.74-0.63-1.44-0.96-2.1c-0.3-0.67-0.61-1.29-0.93-1.84l0.14,0.25c-0.75-1.6-1.61-3.17-2.27-4.82
						c-0.72-2.34,0.74,1.29,0.39-0.5c-0.61-1.3-1.09-2.49-1.5-3.61c-0.35-1.14-0.64-2.2-0.9-3.24c-0.58-2.06-0.92-4.04-1.66-6.29
						c0.04-0.48,0.02-1.03-0.05-1.64c-0.04-0.62-0.1-1.3-0.21-2.02c-0.18-1.45-0.56-3.06-0.8-4.74c-0.24-1.68-0.53-3.39-0.7-5
						c-0.12-1.62-0.17-3.12-0.08-4.35l-0.24,0.3c-0.36-1.25,0.02-1.54,0.07-2.48c-0.2,0.14-0.21,1.39-0.37,0.61
						c-0.12-2.69-0.31-5.44-0.15-8.2c0.06-1.38,0.07-2.77,0.21-4.16c0.14-1.39,0.28-2.78,0.43-4.17c0.12-1.39,0.41-2.77,0.61-4.15
						c0.22-1.38,0.43-2.76,0.75-4.13c0.29-1.36,0.58-2.73,0.87-4.08c0.35-1.34,0.69-2.68,1.04-4.01c0.47-1.96,0.34-2.58,0.25-3.33
						C7.42,88,7.45,87.13,8.46,84.77l0.08,1.53c1.74-8,5.6-15.68,9.04-22.88c-0.13,0.47-0.03,0.54-0.38,1.24
						c1.1-1.31,3.1-5.4,2.86-5.58c0.7-1.03,0.38-0.1,0.92-0.67c1.1-1.3,1.88-3.84,2.71-4.36c0.14-0.09-0.18,0.45-0.33,0.72
						c0.48-1,3-4.15,2.05-3.54c0.93-1.18,1.79-2.32,2.6-3.41c0.82-1.08,1.54-2.15,2.44-2.96c0.68-1.47,3.5-3.75,3.4-4.52
						c0.36,0.62,3.98-3.46,5.2-4.94c-0.32,0.59,1.34-0.98,1-0.26c1.53-1.52,2.98-2.87,2.45-2.9c1.78-1,3.15-2.46,4.5-3.64
						c1.33-1.19,2.47-2.3,3.71-2.51c4.93-4.14,9.96-7.4,15.02-10.24c0.07,0.37-1.38,1.05-2.69,1.86c-1.33,0.79-2.6,1.55-2.31,1.79
						c1.15-0.74,2.17-1.43,3.13-2.08c0.98-0.61,1.9-1.18,2.82-1.75c1.83-1.17,3.77-2.13,6.29-3.18c1.32-0.5-0.61,0.6-1,0.9
						c2.42-1.31,4.94-2.17,7.32-3.14c1.22-0.42,2.42-0.84,3.6-1.25c0.59-0.22,1.17-0.44,1.75-0.65c0.58-0.2,1.16-0.41,1.74-0.61
						c0,0.06-0.48,0.27-0.95,0.46c0.92-0.28,2.18-0.52,1.99-0.78l-0.88,0.34c-1.61,0,3.44-1.95,3.56-2.22
						c-1.38,1.22,4.79-0.88,2.5,0.79c0.6-0.2,1.35-0.52,1.16-0.69c0.93-0.15,1.25-0.1,0.37,0.34c1.66-0.48,2.18-0.7,2.67-0.88
						c0.49-0.19,0.94-0.35,2.49-0.63c0.01,0.15-0.6,0.32-0.88,0.55c1.5-0.56,3.03-1.17,5.68-1.34c-0.15,0.11,0.17,0.19-0.61,0.28
						c2.25-0.31,4.15-0.77,6.13-1.04c0.99-0.15,2-0.29,3.07-0.41c1.07-0.12,2.22-0.09,3.47-0.07c-1.46,0.68,1.71,0.17,1.98,0.72
						c0.89-0.1,1.78-0.13,2.68-0.16l-1.07-0.3c2.35,0.09,4.45-0.33,6.46-0.01c-0.59,0.02-1.17,0.07-1.76,0.14
						c1.47-0.01,2.93,0.13,4.4,0.18l-2.48-0.4c2.4-0.11-0.21-0.73,2.92-0.33c-0.65,0.02,2.37,0.15,3.55,0.69l-0.01,0
						c1.18-0.03,2.4-0.06,4.12,0.29c0.42,0.23-0.45,0.57-0.18,0.72c1.2-0.27,5.46,0.79,6.98,0.64c-0.5,0.01-0.58,0.29-0.44,0.38
						l1.02-0.15c1.04,0.36,1.18,0.46,0.96,0.65c3.18,0.81-0.86-0.93,2.88,0.25c-0.31-0.04-0.18,0.05-0.81-0.04
						c3.76,1.1,7.38,1.76,10.72,3.14c0.82,0.87-3.02-0.88-2.02-0.04c4.95,1.46,10.28,3.15,14.76,5.45L170,13.79
						c0.97-0.39,3.17,2.03,5.57,2.9c-0.57-0.26-0.92-0.01-0.73-0.01c1.46,0.91,3,1.74,4.76,2.64c1.72,0.98,3.67,2.01,5.89,3.38
						l-0.64-0.21c1.53,1.34,4.33,3.12,5.95,4.6c0.63,0.24,1.6,1.04,1.19,0.34c0.57,0.64,1.17,1.22,1.77,1.79
						c0.58,0.59,1.18,1.15,1.79,1.68c1.21,1.07,2.48,2.02,3.65,3.06c1.18,1.02,2.4,1.98,3.46,3.08c1.06,1.09,2.05,2.24,2.91,3.48
						c-0.5-0.52-1.31-1.11-0.92-0.7c1.25,1.16,2.35,2.45,3.53,3.68c0-0.53-0.28-0.64-0.78-1.63c0.58,0.35,1.65,1.35,2.48,2.31
						c-1.7-1.59-0.39,0.35,0.06,1.26c-0.02-0.2,0.28,0,0.31-0.14c1.17,2.49,0.82-0.08,2.76,3.05l-0.26-0.04
						c0.94,1,1.81,1.93,2.64,3.15c0.03,0.73-1-1.08-1.32-0.96c1.2,1.67,3.03,2.87,3.67,4.7c-0.57-0.68-1.24-1.75-1.86-2.39
						c0.8,1.92,0.96,2.09,1.73,3.39l-0.07-0.13c0.56,1.02,1.15,2.02,1.69,3.06c-0.11-0.28-0.23-0.55-0.36-0.82
						c1.13,0.82,1.8,1.96,2.53,3.19c0.36,0.62,0.72,1.27,1.13,1.93c0.39,0.68,0.83,1.38,1.38,2.08c-2.12-2.72-0.59-0.32-1.11-0.35
						c0.29,0.85,0.78,2.11,0.49,1.83c0.53,0.65,0.79,1.28,1.08,2c0.27,0.72,0.59,1.51,1.31,2.45c-0.09,0.15,0.71,1.6,0.22,1.41
						c0.98,1.89,0.03-0.56,0.27-0.47c1.82,2.82,2.37,7.35,4.48,11.62c0.75,1.9,1.22,3.03,1.74,4.1c0.25,0.54,0.5,1.08,0.77,1.7
						c0.24,0.63,0.48,1.36,0.76,2.27c0.06,1.31-0.75-0.9-0.75-0.9c0.23,2.07,0.69,3.56,1.2,5.45c-0.19-0.36-0.23,0.06-0.29,0.67
						c0.31,1.53,0.71,0.93,0.86,3c-0.22-0.32-0.56-0.73-0.85-1.44c0.23,0.89,0.49,1.77,0.75,2.66c0.22,0.9,0.43,1.81,0.62,2.75
						c-0.19,0.53-0.53-1.09-0.78-1.73c0.38,2.1,0.95,5.46,1.35,6.09l0.04-1.39c0.08,0.78-0.3,0.43-0.44-0.13
						c-0.55-1.78-0.19-2.64-0.06-2.76l0.26,1.34c0.34-0.74,0.13-2.1-0.2-3.61c-0.34-1.51-0.92-3.13-1.12-4.49l0.82,1.01l-1-2.68
						c0.04-0.62,0.31-1.1,0.65,0.22c-0.08-2-0.59-1.66-0.62-3.39c0.01-0.19,0.06-0.12,0.12,0.05l-0.62-1.84
						c0.21,0.34,0.36-0.42,0.54,0.76c-0.11-0.87-0.26-1.64-0.46-2.32c-0.21-0.68-0.44-1.27-0.64-1.8c-0.41-1.06-0.73-1.86-0.68-2.55
						l0.12,0.27c-0.37-1.15-0.63-1.73-0.79-2.02c-0.16-0.29-0.23-0.29-0.3-0.25c-0.14,0.08-0.27,0.31-1.1-1.3l0.29-2.67l-0.58-0.29
						c-0.16-0.47-0.49-1.39-0.25-1.29c-0.97-1.61-0.07,0.36-0.74-0.53c-0.25-1.18-0.87-2.71-1.44-4c-0.59-1.28-1.05-2.37-0.83-2.77
						c-0.67-0.64,0.7,2.19-0.57-0.03c0.21-0.49-0.13-1.15-0.58-1.95c-0.48-0.79-1.12-1.7-1.45-2.75c0.67,0.41,1.42,2.36,0.74,0.24
						c-0.61-0.43-1.06-1.39-1.48-2.45c-0.43-1.05-0.9-2.16-1.41-2.94c-0.26,0.1-0.81-0.74-1.5-1.93c-0.71-1.18-1.66-2.66-2.56-3.91
						c0.31,0.04-3-5-4.64-7.39l0.13,0.01c-0.39-0.05-1.03-0.68-1.74-1.49c-0.71-0.82-1.5-1.83-2.27-2.59
						c0.3-0.15,0.67,0.05,1.54,0.86c-0.43-0.53-0.89-1.03-1.33-1.55c-0.45-0.25-0.94-0.67-1.85-1.63l0.64,0.12
						c-0.45-0.51-0.92-1.01-1.41-1.5c-0.51-0.47-1.03-0.95-1.57-1.45c-1.09-0.98-2.14-2.14-3.33-3.41c-0.4,0.14,1.24,2.66-1.58,0.32
						c0.05-0.24,0.19-0.59,0.95,0.01c-0.25-0.2-0.93-0.65-1.33-1.15l1.3,0.76c-1.04-1.2-0.8-0.36-1.69-1.26
						c0.22-0.2-0.53-0.8-0.24-0.85c0.25,0.2,0.72,0.85,1.15,1.1c-0.99-1.03-2.13-2.35-2.44-2.87c-0.02,0.21-0.27,0.3-1.08-0.36
						c-2.06-1.76-0.47-0.88-1.57-2.03c-0.61-0.29-1.84-1.53-2.16-1.21c-0.62-0.49-0.61-0.74-0.78-1.03
						c-0.62-0.35-1.9-1.38-2.95-2.08c-1.06-0.7-1.84-1.14-1.33-0.5l0.27,0.23c-0.06-0.03-0.13-0.07-0.2-0.12
						c0.01,0.01,0,0,0.01,0.01l-0.01-0.01c-1-0.58-1.97-1.22-2.93-1.9c-0.97-0.67-1.95-1.34-2.94-2.01
						c-1.92-1.4-3.95-2.66-5.97-3.72l0.08-0.13c-1.21-0.63-2.59-1.26-3.86-1.87c-1.28-0.6-2.47-1.17-3.43-1.4
						c-0.73-0.33-1.61-1.03-1.23-1.05c-1.95-0.73-2.19-0.76-4.9-2.07c2.05,0.53-0.59-0.48,2.07,0.61c-2.47-1.1-2.96-1.58-5.82-2.23
						c1.07-0.04-1.78-1.11-3.04-1.41l1.71,0.87c-1.39-0.41-2.58-0.85-3.79-1.29l0.81-0.25c-1.27-0.59-2.56-0.92-3.79-1.23
						c-1.24-0.29-2.43-0.55-3.6-0.68c-2.34-0.3-4.46-0.72-6.46-1.55c-1.51,0.08,2.92,0.77,1.55,0.94c-2.49-0.51-4.99-1.7-5.79-1.82
						c-3.45-0.69-3.34,0.26-6.95-0.28c0.45,0.21,0.84,0.72-1.88,0.68c-2.52-0.26-3.07-0.98-1.46-1c0.61,0.03,0.9,0.11,0.87,0.17
						c0.83,0,1.92,0,0.92-0.27l-0.34,0.15c-0.63-0.14-1.82-0.27-2.75-0.4c-0.93-0.11-1.6-0.17-1.18-0.31
						c-1.94,0.12-0.84,0.27,0.59,0.4c-3.27-0.31-5.12-0.23-8.5-0.26c0.54,0.08,1.04,0.28,0.5,0.29c-2.48-0.05-3.02,0.05-3.36,0.18
						c-0.34,0.13-0.48,0.28-2.14,0.45c-1.91-0.13,0.64-0.7-2.71-0.22c-2.07-0.03-0.48-0.44,0.33-0.64
						c-0.76,0.15-1.51,0.23-2.22,0.28c-0.71,0.08-1.39,0.13-2.03,0.16c-1.28,0.05-2.41,0.04-3.29,0.12l1.6-0.35
						c-0.96,0.21-1.75,0.29-2.56,0.42c0.32,0.06,0.65,0.15,0.97,0.22c-0.96,0.04-1.75,0.23-1.76,0.07c-0.93,0.4,0.83,0.45-1.03,1.11
						c-1.28,0.06-3.77,0.84-4.28,0.51c3.95-0.61-0.54-0.4,2.79-1.09c-0.63,0.17-1.42,0.3-2.38,0.42c-0.15-0.02,0.11-0.13,0.37-0.2
						c-3.84,0.42-1.61,0.91-5.48,1.79c0.43-0.38-1.02-0.28-1.63-0.03c1.55-0.43,0.85,0.22-0.51,0.82c-2.5,0.49-2.61,0.9-3.9,1.24
						l1.49-0.32c-0.42,0.39-1.65,0.7-3.28,1.36c-0.21-0.15,1.47-0.65,0.85-0.53c-1.69,1.1-4.38,0.89-6.81,2.25
						c-1.25,0.3-0.3-0.42-1.38-0.12c-2.74,1.42-3.22,0.97-6.07,2.54c1-0.06,1.11-0.2-0.81,1.05l4.74-2.42l-2.89,1.88
						c1.46-0.64,2.97-1.63,3.89-1.9c-1.39,0.87-1.25,0.77-0.45,0.71c-2.2,0.43-3.83,2.02-6.23,2.82l-0.32-0.83
						c-1.78,0.71-3.27,1.54-4.8,2.55c-1.52,1.06-3.19,2.1-5.33,3.34c0.48-0.24,0.94-0.5,1.43-0.71c-0.39,0.63-2.55,1.68-3.82,2.65
						c-0.04-0.33-0.94,0.12-1.62,0.34c0.19,0.13-2.97,2.09-2.99,2.83c-0.67,0.33-1.36,0.62-2.01,0.99
						c-3.24,2.36-3.09,3.43-6.02,5.87c0.66-1-0.8-0.01,1-1.87c-0.97,0.84-1.88,1.55-1.76,1.72c-0.34,0.18-0.96,0.82-1.59,1.52
						c-0.62,0.71-1.29,1.45-1.81,1.76c-0.3,0.47-0.21,0.81-1.27,1.78c-0.16,0.07-0.1-0.11-0.1-0.11c0.08,0.09-1.44,1.73-0.34,1.06
						c-3.42,2.16-7.44,8.05-10.05,10.33c-0.41,0.56-0.85,1.15-1.29,1.76c-0.44,0.61-0.84,1.25-1.27,1.87
						c-0.83,1.26-1.69,2.45-2.37,3.52c0.01-0.19-0.12-0.09,0.17-0.47c-2.11,2.8-0.46,2.26-2.82,5.45c-0.71,0.75-0.5,0.27-0.22-0.29
						c0.29-0.55,0.7-1.14,0.28-0.66c-0.58-0.03-1.14,1.04-1.8,2.35c-0.65,1.32-1.44,2.86-2.27,3.94l0.25-0.61
						c-1.22,1.68-2.02,4.59-3.39,7.63c0,0-0.01-0.18-0.13-0.08c-0.25,1.14-0.79,2.71-1.3,4.41c-0.52,1.69-1.2,3.44-1.61,5
						c-0.04-1.07,0.28-1.45-0.28-1c-0.41,1.38,0.72-0.19-0.09,2.56c-0.49,0.82-1.35,2.71-1.79,2.87c0.23-0.88,0.55-1.72,0.82-2.59
						c-0.47,0.58-0.77,1.41-0.97,2.27c-0.18,0.87-0.32,1.76-0.56,2.43l-0.17-0.24c-1.1,4.03-0.45,4.25-1.51,8.58l0.28-0.41
						c0.05,2.49-0.71,1.94-0.73,4.41l-0.71,0.62c-0.03,0.4-0.08,0.96-0.13,1.61c-0.02,0.65-0.05,1.4-0.08,2.19
						c-0.04,1.58-0.19,3.29-0.22,4.73c-0.31-1.66-0.07-5.04-0.05-7.16c-0.23,1.59-0.65,5.41-0.47,6.26
						c0.02-0.64-0.02-1.47,0.15-2.09c0.16,2,0.26,4.58-0.01,7.73c-1.17-0.62-0.56,8.26-1.26,10.59c0.07,0.71,0.12,1.41,0.17,2.11
						c0.08,0.7,0.14,1.41,0.2,2.11c0.12,1.41,0.16,2.85,0.28,4.3c0.14,1.46,0.28,2.94,0.43,4.47c0.12,1.54,0.45,3.09,0.74,4.72
						c0.47-2.46,0.36,1.89,1.19,1.32c0.33,1.49,0.5,2.05,0.45,2.2l0.52,4.64c0.02,0.56-0.13,0.23-0.3-0.23
						c-0.15-0.46-0.32-1.04-0.41-0.95c0.75,3.29-0.02,1.46,0.33,3.69c0.19-0.53,0.77,1,1.18,2.89l-0.33-2.72
						c0.87,2.2,0.97,3.22,1.13,4.24c0.14,1.03,0.29,2.07,1.28,4.24l-0.75-1.33c0.9,2.27,3.24,8.42,4.96,10.25
						c0.08,0.44,0.09,1.06-0.41,0.11c2.35,5.36,6.58,11.15,8.75,15.1l-0.43-0.25c0.65,0.87,1.34,1.38,1.96,2.6
						c-0.12,0-0.44-0.23-0.16,0.19c0.4,0.43,1.99,2.12,2.72,3.37l-0.92-0.85c0.74,1.21,1.54,2.19,2.29,3.07
						c0.75,0.88,1.48,1.66,2.2,2.4c1.5,1.43,2.96,2.73,4.59,4.44c-0.25,0.22,0.36,1.17,1.21,2.28c0.85,1.11,1.94,2.39,2.73,3.18
						l-0.12,0.01c1.19,1.15,2.3,2.21,3.41,3.16c1.14,0.92,2.24,1.77,3.34,2.6c1.08,0.85,2.23,1.58,3.38,2.38
						c1.16,0.78,2.31,1.63,3.61,2.44c0.67,0.69,1.64,1.52,2.81,2.43c1.17,0.9,2.6,1.8,4.06,2.77c1.44,1,3.06,1.85,4.57,2.77
						c1.5,0.94,3.02,1.73,4.33,2.52c-0.78-0.53,0.37-0.39,1.36,0.04c1.2,0.81,3.77,1.26,3.3,1.73l-0.46-0.22
						c0.74,0.97,3.47,2.11,5.63,2.92l0.65-0.6c1.29,0.81,2.85,1.59,4.57,2.17c1.71,0.59,3.49,1.21,5.25,1.6
						c1.74,0.44,3.4,0.86,4.82,1.22c1.42,0.34,2.59,0.71,3.34,1.15c1.45,0.17,3.22,0.47,4.67,0.53l-0.15,0.4
						c1.97,0.41,3.45,0.73,5.07,0.92c0.81,0.1,1.64,0.21,2.59,0.33c0.47,0.05,0.97,0.11,1.51,0.17c0.54,0.03,1.11,0.07,1.73,0.1
						l-1.04,0.23c2.81,0.22,3.63-0.91,6.19-0.82l0.75,0.65c2.44,0.06,4.89,0.29,7.35,0.24c1.23,0,2.45,0,3.67-0.09
						c1.22-0.12,2.42-0.29,3.61-0.52c-0.07,0.1-0.2,0.29-0.99,0.38c2.3-0.05,8.92-0.55,7.96-1.3c0.15,0.62,4.99-0.75,7.51-1.51
						l-0.31,0.5c2.06-1.02,2.09-1.18,5.07-2.02c0.73-0.12,0.71,0.18-0.27,0.3c2.43-0.39,1.73-0.88,4.64-1.46l-0.99,0.56
						c2.43-0.67,2.21-0.71,3.42-1.46c1.44-0.67,4.54-1.41,5.02-1.2c0.24-0.34,1.41-1.13,2.82-1.57c0.24,0.06-0.23,0.34-0.47,0.48
						c1-0.32,1.86-0.65,2.62-0.98c0.75-0.35,1.4-0.72,2.02-1.05c1.23-0.68,2.32-1.24,3.71-1.69c0.11,0.1,0.31,0.07,0.54,0
						c-3.02,1.44-5.51,2.48-5.28,2.36c0.15,0.36,2.65-0.7,0.9,0.68c0.94-0.58,2.19-1.4,3.51-2.19c1.3-0.83,2.65-1.67,3.87-2.18
						c0.13-0.03,0.26-0.05,0.37-0.04l-0.22,0.16c0.56-0.25,1.03-0.52,1.45-0.82c0.76-0.36,1.25-0.59,1.95-0.99
						c0.42,0.1,2.81-1.36,3.94-2.1c-0.31-0.3,1.21-1.19-0.37-0.6c0.19-0.09-0.18,0.19-0.94,0.67c-0.17,0.11-0.37,0.24-0.48,0.32
						c0.02-0.02,0.04-0.05,0.06-0.08c-0.76,0.45-1.76,1.03-2.89,1.69c0.82-0.72,1.69-1.42,3.1-1.96c0.46-0.58,0.94-1.24,1.23-1.58
						c0.93-0.24,2.18-0.78,3.28-1.25c1.11-0.46,2.01-0.95,2.32-0.93c1.62-1.29,3.58-2.71,5.25-4.22c0.84-0.73,1.64-1.45,2.32-2.12
						c0.65-0.7,1.19-1.36,1.54-1.93c0.81-0.84,1.16-0.71,1.57-0.9c-0.46,0.5-1.07,1.02-1.27,1.34c0.8-0.86,2.15-1.95,3.17-3.06
						c1.05-1.09,1.9-2.05,1.91-2.44c2.29-1.86-0.81,1.53,1.99-1.38l-0.26,0.51c1.53-1.29,2.81-2.58,3.93-3.89
						c1.08-1.36,2.03-2.71,3-4.08c0.94-1.39,1.84-2.83,2.95-4.29c1.1-1.46,2.23-3.05,3.76-4.67c-0.41,0.46-0.61,0.69-0.76,0.74
						c0.39-0.49,0.78-0.99,1.15-1.5l1.07-1.57c0.7-1.06,1.41-2.13,2.08-3.22c0.63-1.12,1.26-2.24,1.89-3.36
						c0.31-0.57,0.63-1.12,0.93-1.69l0.85-1.73c2.38-4.58,4.26-9.34,6.42-13.83c1.06-2.62,0.82-3.03,1.11-4.73l0.63-0.44
						c0.13-0.99,0.21-1.99,0.32-2.97c0.19-1.03,0.48-1.95,0.81-2.85c0.31-0.9,0.63-1.79,0.97-2.7c0.33-0.92,0.66-1.88,0.94-2.94
						c0.24-1.07,0.4-2.24,0.45-3.57l-0.42,0.62c0.18-0.93,0.44-2.4,0.6-3.61c0.15-1.21,0.29-2.15,0.45-1.97
						c-0.03-0.2-0.24-0.66,0.01-1.37l0.24-0.03c0.03-0.78,0.07-1.55,0.08-2.33l-0.03-2.33c0.22-1.79,0.45-1.63,0.67-1.68
						c0.2-0.05,0.51-0.31,0.61-2.95c-0.04-1.98-0.55-5.6-0.73-4.86c-0.03,0.79-0.2,2.01-0.44,2.06l-0.08-1.78
						c-0.69-0.33-1.37-1.66-1.97,2.63l0.35,3.01l-0.41,0.94c0.07-0.84,0.08-1.68,0.09-2.52c-0.33,1.42-0.13,2.33-0.02,3.36
						c-0.2,0.23-0.36,0.64-0.47,1.22l0.44,2.99c-0.31,0.32-0.4-1.36-0.77,0.58c0.13,1.4,0.78-1.25,0.69,1.04
						c-0.5,1.39-0.7,0.94-0.64,2.64c-0.21,0.21-0.28-0.16-0.27-0.83c0,0.75-0.07,1.74-0.18,2.64c-0.12,0.89-0.2,1.7-0.08,2.11
						c-0.32,0.7-0.52,1.95-0.72,2.99c-0.22,1.04-0.47,1.86-0.77,1.71c0.05,0.49-0.09,2.68-0.37,4.04c-0.11-1.32-0.37-0.06-0.83,1.38
						c-0.43,1.45-0.93,3.13-1.25,2.69c0.12,1-0.34,2.61-0.91,4.38c-0.28,0.88-0.58,1.81-0.87,2.71c-0.32,0.89-0.61,1.76-0.82,2.57
						c0.02-0.19,0.04-0.57,0.18-0.83c-0.74,1.7-1.13,2.12-1.69,3.17c0.45,0.44-0.62,3.13-0.94,4.71c-1.45,1.83-0.05-1.55-0.84-1.13
						c0.24,0.05-0.05,1-0.34,1.86c-0.31,0.85-0.6,1.63-0.25,1.37c-1.11,1.39-0.84,1.26-1.68,1.83c0.5,0.61-0.6,1.51-0.94,2.96
						c-1.57,2-0.92,0.22-2.1,2.72C217.96,179.66,218.95,177.41,218.95,177.41z M172.85,222.91L172.85,222.91
						c0.5-0.28,0.92-0.5,1.2-0.65C173.8,222.4,173.45,222.58,172.85,222.91z M167.87,225.35c0.62-0.27,1.39-0.6,2.19-0.99
						c0.23,0.04,0.12,0.29-0.39,0.51C169.9,224.66,168.67,225.12,167.87,225.35z M179.75,222.45c-0.75,0.5-1.05,0.58-1.2,0.57
						c0.36-0.22,0.78-0.48,1.34-0.83c0.01-0.03,0.05-0.07,0.07-0.1C179.91,222.2,179.87,222.32,179.75,222.45z"/>
					<path class="st1" d="M180.86,221.17c0.1-0.08,0.16-0.12,0.3-0.22c-0.17,0.07-0.34,0.13-0.51,0.19
						c-0.07,0.09-0.14,0.19-0.21,0.27C180.59,221.33,180.73,221.25,180.86,221.17z"/>
					<path class="st1" d="M188.57,23.33l-0.09-0.08c0.07,0.07,0.13,0.14,0.17,0.19C188.6,23.39,188.6,23.38,188.57,23.33z"/>
					<polygon class="st1" points="93.22,232.15 93.21,232.26 93.7,232.28 					"/>
					<path class="st1" d="M209.95,45.45c0.01,0.07,0.05,0.18,0.16,0.38C210.12,45.8,210.04,45.64,209.95,45.45z"/>
					<path class="st1" d="M217.62,56.21l0.88,1.65C218.14,57.14,217.85,56.62,217.62,56.21z"/>
					<path class="st1" d="M222.56,65.08c0.12,0.08,0.19,0.09,0.25,0.09l-0.01-0.02L222.56,65.08z"/>
					<path class="st1" d="M85.45,8.2c-0.13,0.04-0.26,0.08-0.37,0.12C84.23,8.67,84.81,8.45,85.45,8.2z"/>
					<path class="st1" d="M132.83,2.99c-0.52,0.01-1.02,0.02-1.56,0C132.12,3.13,132.78,3.22,132.83,2.99z"/>
					<path class="st1" d="M40.06,35.15C40.06,35.14,40.06,35.14,40.06,35.15c-0.08,0.07-0.16,0.14-0.24,0.22L40.06,35.15z"/>
					<path class="st1" d="M129.05,2.81c0.85,0.15,1.56,0.18,2.23,0.18C130.58,2.91,129.76,2.8,129.05,2.81z"/>
					<path class="st1" d="M235.08,106.91l0.04,0.49c0.03-0.01,0.05,0.02,0.07,0.05L235.08,106.91z"/>
					<path class="st1" d="M235.2,107.45l0.09,0.54C235.27,107.74,235.25,107.52,235.2,107.45z"/>
					<path class="st1" d="M235.48,109.11l-0.19-1.13C235.32,108.38,235.34,108.87,235.48,109.11z"/>
					<path class="st1" d="M233.07,93.65l-0.18-0.12C232.94,93.61,233,93.65,233.07,93.65z"/>
					<path class="st1" d="M232.09,89.69c0.23,0.95,0.24,2.45,0.65,3.75l0.15,0.1C232.51,92.97,232.59,90.52,232.09,89.69z"/>
					<path class="st1" d="M228.32,72.85c0.42,1.08,0.78,2.18,1.18,3.27c-0.07-0.62-0.16-1.45,0.46,0.01
						C228.79,71.87,229.96,77.1,228.32,72.85z"/>
					<path class="st1" d="M223.86,63.04c0.92,1.63,0.2-0.13,0.32-0.09C223.49,61.98,223.31,61.75,223.86,63.04z"/>
					<path class="st1" d="M167.72,10.91l0.33-0.27C166.7,10.1,167.97,10.77,167.72,10.91z"/>
					<path class="st1" d="M153.19,7.58c0.42,0.2,0.84,0.4,1.25,0.63l0.73-0.12C154.51,7.9,153.86,7.72,153.19,7.58z"/>
					<polygon class="st1" points="145.4,2.73 146.03,2.82 143.65,2.41 					"/>
					<path class="st1" d="M27.09,43.57l0.64-0.04C28.31,42.74,28.03,42.24,27.09,43.57z"/>
					<path class="st1" d="M3.09,94.38c-0.4,0.54-0.82,2.09-0.76,3.1C2.58,96.24,2.98,95.02,3.09,94.38z"/>
					<path class="st1" d="M77.89,231.56l-1.12-0.27c0.69,0.22,1.37,0.46,2.07,0.64C78.52,231.8,78.2,231.7,77.89,231.56z"/>
				</g>
			</g>
		</g>
	</g>
</g>
<g>
	<g>
		<circle class="st2" cx="122.42" cy="119.31" r="49.46"/>
		
			<ellipse transform="matrix(0.0536 -0.9986 0.9986 0.0536 -3.2804 235.1531)" class="st3" cx="122.42" cy="119.31" rx="34.47" ry="34.47"/>
		
			<ellipse transform="matrix(0.0533 -0.9986 0.9986 0.0533 -3.2369 235.2001)" class="st4" cx="122.42" cy="119.31" rx="31.47" ry="31.47"/>
	</g>
	<g>
		<path class="st3" d="M193.91,69.85c0,0-9.52,0.01-9.88,55.17c-0.01,0.07-0.01,0.15-0.01,0.22c0,0.05,0.01,0.11,0.01,0.16
			c0.08,1.56,1.38,2.81,2.96,2.81h0.99C187.98,74.8,193.91,69.85,193.91,69.85z"/>
		<path class="st5" d="M193.91,69.85c0,0-5.93,4.95-5.93,58.36h5.93V69.85z"/>
		<path class="st5" d="M186.99,128.21L186,166.78c0,1.09,0.89,1.98,1.98,1.98h4.95c1.09,0,1.98-0.89,1.98-1.98l-0.99-38.57H186.99z"
			/>
	</g>
	<path class="st5" d="M62.5,99.53c0-2.97-0.99-28.68-0.99-28.68c0-0.55-0.44-0.99-0.99-0.99c-0.55,0-0.99,0.44-0.99,0.99V92.6
		c0,0.55-0.44,0.99-0.99,0.99h-0.99c-0.54,0-0.99-0.44-0.99-0.99V70.84c0-0.55-0.44-0.99-0.99-0.99l0,0c-0.54,0-0.99,0.44-0.99,0.99
		V92.6c0,0.55-0.44,0.99-0.99,0.99h-0.99c-0.55,0-0.99-0.44-0.99-0.99V70.84c0-0.55-0.44-0.99-0.99-0.99l0,0
		c-0.55,0-0.99,0.44-0.99,0.99V92.6c0,0.55-0.44,0.99-0.99,0.99h-0.99c-0.55,0-0.99-0.44-0.99-0.99V70.84
		c0-0.55-0.44-0.99-0.99-0.99s-0.99,0.44-0.99,0.99c0,0-0.99,26.71-0.99,28.68c0,4.94,4.3,9.59,5.93,12.86
		c0.99,1.98-0.99,54.4-0.99,54.4c0,1.09,0.88,1.98,1.98,1.98h4.94c1.1,0,1.98-0.89,1.98-1.98c0,0-1.98-52.42-0.99-54.4
		C58.2,109.12,62.5,104.47,62.5,99.53z"/>
</g>
</svg>
