<?xml version="1.0" encoding="utf-8"?>
<!-- Generator: Adobe Illustrator 24.2.3, SVG Export Plug-In . SVG Version: 6.00 Build 0)  -->
<svg version="1.1" id="Layer_1" xmlns="http://www.w3.org/2000/svg" xmlns:xlink="http://www.w3.org/1999/xlink" x="0px" y="0px"
	 viewBox="0 0 70 94.8" style="enable-background:new 0 0 70 94.8;" xml:space="preserve">
<style type="text/css">
	.st0{display:none;}
	.st1{display:inline;fill:#B3F2A4;}
	.st2{fill:#DDDDDD;}
	.st3{fill:#B3F2A4;}
</style>
<g id="row2">
	<g id="tree:4_1_" class="st0">
		<path id="Path_17_" class="st1" d="M43,55.8c3.2,11.4,6.1,23.1,6,23.6h-9.1c0-0.1,1.9-5.6,2.2-12.5c-2.2-1.3-9.1-5-16.4-7.8
			C15.9,55.3,8.6,49.3,8.3,49l1.4-1.4c0.1,0,7.3,6.1,16.8,9.7c6.6,2.6,12.7,5.8,15.7,7.4c0-2.9-0.3-5.9-1.2-8.9l0.2,0H41v0l0,0
			c-1.3-4.7-4.2-9.6-7-13.8l0.2,0.2c0-0.1-0.2-0.3-0.3-0.4c0,0,0,0.1,0.1,0.2l-0.2-0.3c-3.2-3.9-15.5-8-20.1-9.4l0.6-1.8
			c0.6,0.2,9.6,2.7,15.9,6.2c-2.2-2.8-3.9-4.7-3.9-4.7l1.5-1.2c0.4,0.4,7,7.7,11.7,16.1c-0.5-6.2,0-14.4,4.7-20.6l1.6,1.1
			c-2.3,3.1-3.6,6.8-4.1,10.5c5-7.3,16-12.7,16.6-13l0.9,1.6c-0.2,0.1-16.6,8.2-17.9,17.1c0,3.4,0.5,6.6,0.9,8.7
			c3.9-7,14.5-11.7,15-11.9l0.8,1.7C58,42.3,44.9,48,43,55.8z"/>
		<path id="Path_16_" class="st1" d="M43.8,20.4c0.7,3-0.9,5.9-0.9,5.9s-2.8-2-3.6-5c-0.7-3,0.9-5.9,0.9-5.9S43.1,17.4,43.8,20.4z
			 M24.2,20c0,0-1.7,2.9-0.9,5.9c0.7,3,3.6,5,3.6,5s1.7-2.9,0.9-5.9C27.1,22,24.2,20,24.2,20z M21.7,28.3c0,0-0.4,1.9,0.6,3.4
			s3,2.1,3,2.1s0.4-1.9-0.6-3.4C23.7,28.9,21.7,28.3,21.7,28.3z M17.7,26.4c0,0-0.4,1.9,0.6,3.4s3,2.1,3,2.1s0.4-1.9-0.6-3.4
			C19.6,27.1,17.7,26.4,17.7,26.4z M13.7,25.5c0,0-0.4,1.9,0.6,3.4s3,2.1,3,2.1s0.4-1.9-0.6-3.4C15.6,26.1,13.7,25.5,13.7,25.5z
			 M5.5,28.5c0,0,1.1,2.1,3.2,3s4.6,0.2,4.6,0.2s-1.1-2.1-3.2-3C7.9,27.9,5.5,28.5,5.5,28.5z M52.4,18.4c0,0-3.5,0.5-5.6,3
			s-2,5.7-2,5.7s3.5-0.5,5.6-3C52.5,21.7,52.4,18.4,52.4,18.4z M68.3,18.2c0,0-3.6,0-6.1,2s-3.1,5.2-3.1,5.2s3.5,0,6.1-2
			C67.8,21.4,68.3,18.2,68.3,18.2z M59.7,15.6c0,0-3.1,1.6-4.3,4.5c-1.2,2.9,0.1,6,0.1,6s3.1-1.6,4.3-4.5S59.7,15.6,59.7,15.6z
			 M35.5,23.1c0,0,0.2,2.5,1.9,4.1s4.4,1.9,4.4,1.9s-0.2-2.5-1.9-4.1C38.2,23.4,35.5,23.1,35.5,23.1z M33.5,27.8
			c0,0,0.2,2.5,1.9,4.1c1.7,1.6,4.4,1.9,4.4,1.9s-0.2-2.5-1.9-4.1S33.5,27.8,33.5,27.8z M32.5,33.3c0,0,0.2,2.5,1.9,4.1
			s4.4,1.9,4.4,1.9s-0.2-2.5-1.9-4.1C35.2,33.6,32.5,33.3,32.5,33.3z M67.2,34c0,0-3.5,0-6.1,2c-2.5,2-3.1,5.2-3.1,5.2s3.5,0,6.1-2
			C66.8,37.2,67.2,34,67.2,34z M15,34c0,0-3.6,0-6.1,2c-2.5,2-3.1,5.2-3.1,5.2s3.5,0,6.1-2C14.5,37.2,15,34,15,34z M35.5,45.3
			c0,0-3-1.9-6.3-1.5c-3.3,0.4-5.7,2.8-5.7,2.8s3,1.9,6.3,1.5S35.5,45.3,35.5,45.3z M38.7,51.2c0,0-1.6-1.8-3.9-2.1
			c-2.3-0.3-4.4,0.9-4.4,0.9s1.6,1.8,3.9,2.1S38.7,51.2,38.7,51.2z M39,61.1c0,0,0.2-2.3-1.2-4C36.5,55.4,34,55,34,55
			s-0.2,2.3,1.2,4C36.6,60.6,39,61.1,39,61.1z M33,58.3c0,0,0.2-2.3-1.2-4c-1.4-1.7-3.8-2.2-3.8-2.2s-0.2,2.3,1.2,4S33,58.3,33,58.3
			z M27,56.5c0,0,0.2-2.3-1.2-4c-1.4-1.7-3.8-2.2-3.8-2.2s-0.2,2.3,1.2,4C24.5,56,27,56.5,27,56.5z M21.2,54.1c0,0,0.7-2.2-0.3-4.2
			s-3.2-2.9-3.2-2.9S17,49.3,18,51.2C19,53.2,21.2,54.1,21.2,54.1z M16.2,51.3c0,0,0.7-2.2-0.3-4.2c-1-1.9-3.2-2.9-3.2-2.9
			S12,46.5,13,48.4C13.9,50.4,16.2,51.3,16.2,51.3z M8.7,48.2c0,0-0.6-3-2.9-4.8c-2.4-1.8-5.6-1.6-5.6-1.6s0.6,3,3,4.8
			C5.5,48.3,8.7,48.2,8.7,48.2z M10.8,51.3c0,0-2.9-1.4-5.8-0.8s-4.9,3.1-4.9,3.1S3,55,5.9,54.4S10.8,51.3,10.8,51.3z M15.9,55.1
			c0,0-2.9-1.4-5.8-0.8c-3,0.6-4.9,3.1-4.9,3.1s2.9,1.4,5.9,0.8S15.9,55.1,15.9,55.1z M21.9,57.8c0,0-2.9-1.4-5.9-0.8
			s-4.9,3.1-4.9,3.1s2.9,1.4,5.9,0.8S21.9,57.8,21.9,57.8z M27.9,60.6c0,0-2.9-1.4-5.9-0.8c-3,0.6-4.9,3.1-4.9,3.1s2.9,1.4,5.9,0.8
			S27.9,60.6,27.9,60.6z M34.9,63.4c0,0-2.9-1.4-5.9-0.8s-4.9,3.1-4.9,3.1s2.9,1.4,5.9,0.8S34.9,63.4,34.9,63.4z M20.2,35.4
			c0,0-2.5,0-4.2,1.4s-2.1,3.6-2.1,3.6s2.5,0,4.2-1.4C19.9,37.7,20.2,35.4,20.2,35.4z M25.8,38c0,0-2.4-0.5-4.4,0.5
			c-2,1-2.9,3.1-2.9,3.1s2.4,0.5,4.4-0.5C24.9,40.1,25.8,38,25.8,38z M29.7,39.8c0,0-2.4-0.5-4.4,0.5c-2,1-2.9,3.1-2.9,3.1
			s2.4,0.5,4.4-0.5C28.9,41.9,29.7,39.8,29.7,39.8z M68.3,45.2c0,0-1.6-2.1-4.2-2.7S59,43,59,43s1.6,2.1,4.2,2.7
			C65.8,46.4,68.3,45.2,68.3,45.2z M64,49.7c0,0-1.2-2.4-3.6-3.4c-2.4-1-5.1-0.3-5.1-0.3s1.2,2.4,3.6,3.4C61.3,50.4,64,49.7,64,49.7
			z M59.2,52c0,0-1.5-2.2-4-3c-2.5-0.8-5.1,0.3-5.1,0.3s1.5,2.2,4,3C56.6,53,59.2,52,59.2,52z M54.4,55c0,0-1.9-2-4.5-2.3
			c-2.6-0.3-5.1,1-5.1,1s1.9,2,4.5,2.3C51.9,56.4,54.4,55,54.4,55z M70,27.5c0,0-2.3-2-5.2-2c-3,0-5.4,1.8-5.4,1.8s2.3,2,5.2,2
			C67.5,29.4,70,27.5,70,27.5z M62.9,33.5c0,0-0.5-2.1-2.3-3.3s-4.2-0.9-4.2-0.9s0.5,2.1,2.3,3.3C60.6,33.7,62.9,33.5,62.9,33.5z
			 M59.2,36.2c0,0-0.9-2.3-3.1-3.4s-4.8-0.5-4.8-0.5s0.9,2.3,3.1,3.4C56.7,36.7,59.2,36.2,59.2,36.2z M55.7,39.2
			c0,0-1.2-2.2-3.4-3.1c-2.3-0.9-4.8-0.1-4.8-0.1s1.2,2.2,3.4,3.1C53.1,40,55.7,39.2,55.7,39.2z M52,42c0,0-1.6-1.9-4.1-2.3
			s-4.8,0.8-4.8,0.8s1.6,1.9,4.1,2.3C49.7,43.2,52,42,52,42z"/>
	</g>
	<g id="tree:3_1_" class="st0">
		<path id="Part2" class="st1" d="M27.8,60.4v18h-7.7v-18c1.3,0.2,2.6,0.3,3.9,0.3C25.3,60.8,26.6,60.6,27.8,60.4z M52.1,62
			c-1,0-2.1-0.1-3.1-0.2v15.4h6.1V61.7C54.2,61.8,53.2,62,52.1,62z"/>
		<path id="Part1" class="st1" d="M30.4,45.4c0,4.8,1.9,9.2,4.9,12.7c-2.3,1.2-4.8,1.9-7.4,2.3c-1.3,0.2-2.6,0.3-3.9,0.3
			c-1.3,0-2.6-0.1-3.9-0.3C8.7,58.7,0,49.6,0,38.5c0-12.2,10.7-22.1,24-22.1c8.5,0,16,4.1,20.2,10.2C36.1,29.6,30.4,36.8,30.4,45.4z
			 M52.1,28.9c-2.3,0-4.5,0.4-6.5,1.1c-6.7,2.4-11.4,8.4-11.4,15.4c0,3.9,1.5,7.6,4,10.4c2.7,3,6.5,5.1,10.8,5.8
			c1,0.2,2,0.2,3.1,0.2s2.1-0.1,3.1-0.2C63.6,60.4,70,53.6,70,45.4C70,36.2,62,28.9,52.1,28.9z"/>
	</g>
	<g id="tree:2" class="st0">
		<path id="Path_9_" class="st1" d="M52.3,32.4c-0.9-0.4-1.6-1-1.8-1.6C36.5,37.3,32,56.4,32,56.4v-3.3l0,0c0.2-4.7,1-13.8,2.8-17.2
			c0.8-1.4,3.9-2.7,6-3.2c-1.5-0.3-2.5-0.9-2.5-1.6c-0.7,0.3-1.3,0.5-1.8,0.7c0.5-0.9,2.1-2.4,2.5-2.6l0,0c-0.9,0-1.8,0-2.7,0
			c-0.2,0-0.4,0-0.7,0c-2,2.6-4.7,7.2-5,11.5c-0.8-2.7-2-5.5-3.9-7.7c-0.5,0.5-1.3,0.9-2.2,1.3c1.8,1.8,2.8,4.3,3.5,6.7
			c-1-0.4-2.1-0.9-3.1-1.3c-0.3,0.5-1,1-2,1.4c1.1,0.6,4.3,2.2,5.8,2.9c-0.1,4.2,0,10.7,0,12.5c0-0.9-9.6-13.3-15.4-17.4
			c-0.6,0.5-1.6,0.9-2.9,1.2v0c1.5,0.5,4.9,3.4,6.5,5.2c-0.7-0.3-2.1-1-3.2-1.6c0.1,0.2,0.2,0.4,0.2,0.6c0,0.5-0.4,1.1-1.1,1.5
			c6.5,2,10.6,8.8,10.7,8.8c3.9,5.5,0.6,16.3,0.6,16.3h10.5c-0.7-4.2-0.8-16.6,10.4-24c-0.8-0.5-1.2-1.1-1.2-1.7
			c0-0.4,0.2-0.9,0.6-1.2c-2.5,1.2-4.7,3.1-6.6,5c1.3-3.4,5.4-10,11.6-11.2c-0.1-0.2-0.2-0.4-0.2-0.6c0-0.7,0.5-1.3,1.3-1.8
			c-1.4,0.3-4.5,1-5.4,1.4C47.2,35.2,50.5,33.3,52.3,32.4z"/>
		<path id="Path_6_" class="st1" d="M13.8,44.9c0,0.5-0.4,1.1-1.1,1.5c-1.2,0.8-3.4,1.3-5.8,1.3c-3.8,0-6.9-1.3-6.9-2.8
			s3.1-2.8,6.9-2.8c3.3,0,6.1,0.9,6.8,2.2C13.8,44.5,13.8,44.7,13.8,44.9z M7.8,36.4c-3.3,0-6.1,1-6.1,2.2s2.7,2.2,6.1,2.2
			c0.9,0,1.9,0,2.6-0.2c1.3-0.2,2.3-0.7,2.9-1.2c0.3-0.3,0.5-0.5,0.5-0.9C13.8,37.3,11.1,36.4,7.8,36.4z M20.6,37.3
			c-2.5,0-4.5,1-4.5,2.2c0,1.3,2,2.2,4.5,2.2c0.9,0,1.6-0.1,2.4-0.3c1-0.3,1.8-0.8,2-1.4c0.1-0.2,0.2-0.4,0.2-0.5
			C25.1,38.3,23.1,37.3,20.6,37.3z M17.7,28.1c-5.4,0-9.7,1.7-9.7,3.8s4.3,3.8,9.7,3.8c2.7,0,5-0.4,6.8-1.1c0.9-0.4,1.7-0.8,2.2-1.3
			c0.4-0.4,0.7-0.9,0.7-1.4C27.3,29.8,23,28.1,17.7,28.1z M36.2,23.4c-6.8,0-12.2,1.4-12.2,3.1c0,1.6,5.1,3,11.5,3.1
			c0.2,0,0.4,0,0.7,0c0.9,0,1.9,0,2.7,0c5.5-0.3,9.5-1.5,9.5-3C48.4,24.7,43,23.4,36.2,23.4z M42.9,29.4c-2.6,0-4.7,0.8-4.7,1.8
			c0,0.7,1,1.3,2.5,1.6c0.7,0.2,1.4,0.2,2.2,0.2c2.6,0,4.6-0.8,4.6-1.8C47.5,30.2,45.4,29.4,42.9,29.4z M70,28.3
			c-0.3-2.1-4.9-3.3-10.2-2.7c-5.4,0.6-9.5,2.8-9.2,4.9c0,0,0,0.2,0,0.2c0.2,0.7,0.8,1.2,1.8,1.6l0,0c1.9,0.9,5,1.2,8.4,0.8
			C66.1,32.6,70.3,30.5,70,28.3z M56.3,34.7c-2.3,0-4.4,0.5-5.7,1.3c-0.8,0.5-1.3,1.1-1.3,1.8c0,0.2,0,0.4,0.2,0.6
			c0.7,1.4,3.4,2.4,6.8,2.4c3.8,0,6.9-1.4,6.9-3.1S60.1,34.7,56.3,34.7z M52.2,42.4c-3.5,0-6.6,0.9-7.9,2.1
			c-0.4,0.4-0.6,0.8-0.6,1.2c0,0.6,0.4,1.2,1.2,1.7c1.5,1,4.2,1.6,7.3,1.6c4.7,0,8.5-1.5,8.5-3.3C60.7,43.9,56.9,42.4,52.2,42.4z"/>
	</g>
	<g id="tree:1_1_">
		<path id="Path_11_" class="st2" d="M41,77.6v17.2H29V77.6c1.9,0.2,4,0.2,6,0.2C37.1,77.8,39.1,77.8,41,77.6z"/>
		<path id="Path_10_" class="st3" d="M66.1,53.9c0,17.2-10.8,22.6-25.1,23.6c-1.9,0.2-4,0.2-6,0.2c-2.1,0-4.1-0.1-6-0.2
			c-14.4-1-25.3-6.4-25.1-23.6C4.2,29.9,35,0,35,0S66.1,29.9,66.1,53.9z"/>
	</g>
</g>
</svg>
