<?xml version="1.0" encoding="utf-8"?>
<!-- Generator: Adobe Illustrator 24.0.1, SVG Export Plug-In . SVG Version: 6.00 Build 0)  -->
<svg version="1.1" id="Layer_1" xmlns="http://www.w3.org/2000/svg" xmlns:xlink="http://www.w3.org/1999/xlink" x="0px" y="0px"
	 viewBox="0 0 45.2 30.2" style="enable-background:new 0 0 45.2 30.2;" xml:space="preserve">
<style type="text/css">
	.st0{fill:#FFFFFF;}
	.st1{fill:#007168;}
	.st2{fill:#FBE000;}
	.st3{fill:#D11034;}
	.st4{fill:#FFFFFF;stroke:#000000;stroke-width:0.5072;stroke-linecap:round;stroke-linejoin:round;}
	.st5{fill:none;stroke:#000000;stroke-width:0.5072;stroke-linecap:round;stroke-linejoin:round;}
	.st6{stroke:#000000;stroke-width:0.5072;stroke-linecap:round;stroke-linejoin:round;}
</style>
<g>
	<g>
		<rect x="-0.25" y="-0.13" width="45.69" height="30.46"/>
		<rect x="-0.25" y="-0.13" class="st0" width="45.69" height="10.47"/>
		<rect x="-0.25" y="-0.13" class="st1" width="45.69" height="9.52"/>
		<rect x="-0.25" y="19.85" class="st0" width="45.69" height="10.48"/>
		<rect x="-0.25" y="20.81" class="st2" width="45.69" height="9.52"/>
		<path class="st3" d="M-0.25-0.13v30.46L19.74,15.1L-0.25-0.13z"/>
		<path class="st2" d="M10.13,20.81l-3.71-2.72l-3.71,2.72l1.44-4.37l-3.73-2.69l4.6,0.02l1.4-4.38l1.41,4.38l4.6-0.02l-3.73,2.69
			L10.13,20.81z"/>
		<path class="st4" d="M3.19,17.76h2.68c0.22,0.24,0.7,0.34,1.15,0c0.84-0.46,2.46,0,2.46,0l0.32-0.34l-0.78-2.56l-0.28-0.3
			c0,0-0.6-0.36-1.74-0.24c-1.14,0.12-1.54-0.04-1.54-0.04s-1,0.12-1.28,0.26c-0.03,0.02-0.32,0.32-0.32,0.32L3.19,17.76z"/>
		<path class="st5" d="M3.73,17.1c0,0,2.56-0.32,3.29,0.66c-0.42,0.29-0.78,0.31-1.18,0.02c0.06-0.1,0.92-1,3.09-0.7"/>
		<path class="st6" d="M6.47,14.55l-0.02,2.82 M8.74,14.59l0.48,2.24 M4.22,14.55l-0.27,1.15"/>
		<path class="st6" d="M1.46,18.07l0.63,0.74c0.07,0.04,0.14,0.04,0.21,0l0.93-1.12l0.39-0.48c0.06-0.07,0.08-0.15,0.07-0.22
			l0.75-0.67c0.06,0,0.1,0.01,0.16,0.02c-0.07-0.02-0.13-0.05-0.07-0.13l0.17-0.13l0.13,0.17c0,0-0.19,0.24-0.21,0.24
			c-0.02,0-0.21,0-0.21,0l-0.39,0.35l0.17,0.15l0.26,0.71l0.32-0.22l-0.21-0.73l0.45-0.48l-0.17-0.26l0.11-0.15
			c0,0,1.55,0.98,2.15,0.71c0.02,0.01,0.04-0.7,0.04-0.7s-1.6-0.17-1.64-0.48c-0.04-0.32,0.35-0.35,0.35-0.35l-0.17-0.24l0.04-0.13
			L6,15l0.63-0.54l3.73,4.25c0.2-0.08,0.25-0.13,0.26-0.34c-0.01-0.01-3.66-4.2-3.66-4.2l0.28-0.3c0.06-0.06,0.07-0.09,0.07-0.19
			l0.43-0.37c0.13,0.04,0.21,0.12,0.28,0.22l1.18-1c0.03,0.03,0.13,0.06,0.19,0.03l1.95-1.87l-2.12,1.5l-0.07-0.06
			c0-0.06,0.08-0.08,0-0.19c-0.08-0.1-0.21,0.09-0.22,0.09c-0.02,0-0.31-0.1-0.37-0.23l-0.02,0.34L8,12.67l-0.41-0.02l-0.6,0.58
			l-0.07,0.22l0.09,0.19c0,0-0.32,0.28-0.32,0.26c0-0.02-0.06-0.08-0.07-0.09l0.27-0.25l0.04-0.17l-0.09-0.14
			c-0.03,0.02-0.38,0.38-0.39,0.35c-0.03-0.03-1.01-1.14-1.01-1.14l0.06-0.21l-0.63-0.69c-0.23-0.08-0.6-0.09-0.67,0.41
			C4.13,12.1,3.65,12,3.65,12l-0.26,0.06l-1.47,2.09l0.82,0.99l1.68-2.13l0.05-0.6l0.35,0.39c0.12,0.02,0.23,0.02,0.34-0.04
			l0.99,1.11l-0.17,0.16c0.06,0.06,0.09,0.1,0.15,0.16c0.06-0.04,0.11-0.08,0.17-0.12c0.02,0.02,0.05,0.07,0.07,0.1
			c-0.08,0.05-0.14,0.11-0.23,0.15c-0.13-0.09-0.26-0.2-0.25-0.37l-0.56,0.47l-0.02,0.09L3.65,15.9L3.5,15.92l-0.04,0.43l1.08-0.9
			v-0.13l0.11,0.09l0.84-0.67c0,0,0.06,0.07,0.04,0.07c-0.02,0-0.75,0.67-0.75,0.67l-0.02,0.07l-0.13,0.11l-0.07-0.06l-1.01,0.9
			H3.41l-0.56,0.56c-0.14,0.01-0.27,0.03-0.39,0.11L1.46,18.07z"/>
	</g>
</g>
</svg>
