<?xml version="1.0" encoding="utf-8"?>
<!-- Generator: Adobe Illustrator 24.0.1, SVG Export Plug-In . SVG Version: 6.00 Build 0)  -->
<svg version="1.1" id="Layer_1" xmlns="http://www.w3.org/2000/svg" xmlns:xlink="http://www.w3.org/1999/xlink" x="0px" y="0px"
	 viewBox="0 0 45.2 30.2" style="enable-background:new 0 0 45.2 30.2;" xml:space="preserve">
<style type="text/css">
	.st0{fill:#198A00;}
	.st1{fill:#EF7D00;}
	.st2{fill:#DE2010;}
	.st3{fill:#EF7D00;stroke:#000000;stroke-width:0.0507;stroke-linecap:round;stroke-linejoin:round;}
</style>
<g>
	<rect x="-1.08" y="-0.69" class="st0" width="47.36" height="31.57"/>
	<rect x="40.64" y="10.59" class="st1" width="5.64" height="20.3"/>
	<rect x="35" y="10.59" width="5.64" height="20.3"/>
	<rect x="29.37" y="10.59" class="st2" width="5.64" height="20.3"/>
	<g>
		<path class="st3" d="M42.14,3.11c0,0,1.94-0.76,2.13-0.92c0.09,0.09-0.78,1.05-2.45,1.4c1.52-0.33,2.82-1.36,3.08-1.33
			c0.08,0.02,0.06,1.01-3.43,1.87c2.41-0.58,3.81-1.65,3.79-1.53c0.02,0.02-0.24,0.84-2.35,1.47c0.59-0.13,2.19-1.02,2.17-0.85
			c0.05,0.07-1.55,1.95-4.43,1.34c2.31,0.55,3.8-0.78,4.02-0.75c0.04,0.01-0.43,1.16-3.33,1.23c1.39-0.13,0.99-0.01,0.99-0.01
			s-0.82,0.59-1.81,0.19c0.78,0.2,0.86,0.2,0.88,0.27c-0.05,0.08-0.69,0.2-1.31-0.11c0.5,0.19,0.94,0.22,0.95,0.29
			c-0.01,0.02-0.32,0.19-0.61,0.07c-0.28-0.12-2.88-1.58-2.88-1.58l4.43-1.11L42.14,3.11z"/>
		<path class="st3" d="M36.94,7.07c-0.39,0-0.4,0.32-0.4,0.32s-0.03,0.02-0.01,0.18c0.06-0.1,0.1-0.14,0.1-0.14
			c0.04,0.01,0.22,0.06,0.5-0.15c-0.26,0.25-0.1,0.34-0.1,0.34s-0.06,0.19,0.14,0.23c-0.06-0.08-0.02-0.15-0.02-0.15
			s0.27-0.03,0.26-0.33c0.01,0.28,0.17,0.35,0.17,0.35s0,0.15,0.18,0.17c-0.1-0.08-0.07-0.2-0.07-0.2s0.23-0.15,0.04-0.42
			c0.12-0.06,0.21-0.24,0.21-0.24s-0.16-0.06-0.24-0.11c-0.04-0.07,0-0.45,0-0.45l-0.1-0.49l-0.27,0.76
			C37.32,6.64,37.33,7.07,36.94,7.07z"/>
		<path class="st3" d="M38.86,5.98c0.01,0.01,0.29,0.3,0.56,0.28c0.1-0.08-0.21-0.25-0.21-0.29c0.11,0.09,0.58,0.46,0.88,0.33
			c0.12-0.16-0.21-0.13-0.58-0.56c0.26,0.16,0.9,0.5,1.2,0.37c0.13-0.13-0.67-0.52-0.93-0.82l-0.68-0.32l-0.93,0.7L38.86,5.98z"/>
		<path class="st3" d="M37.81,3.6c0,0,0.32-0.17,1.58-0.09c0.14,0.02,0.86-0.23,1.09-0.3c0.37-0.06,1.54-0.3,1.85-0.52
			c0.22-0.02-0.06,0.38-0.34,0.47c-0.3,0.13-1.38,0.47-1.77,0.42c0.46,0.01,0.21,0.35-0.56,0.19C40.03,3.96,39.89,4,39.89,4
			s-0.65,0.03-0.82-0.1c0.44,0.15,0.26,0.2,0.26,0.2s-0.44,0.04-0.65-0.05c0.32,0.09,0.15,0.14,0.15,0.14s-0.26,0.04-0.47-0.03
			C38.15,4.09,37.82,3.6,37.81,3.6z"/>
		<path class="st3" d="M38.31,6.14l0.05,0.77c0,0-0.03,0.04-0.05,0.06c-0.02,0.02-0.59-0.08-0.51,0.32c0,0.16,0,0.21,0.12,0.3
			C37.89,7.48,37.9,7.4,37.9,7.4s0.16,0.09,0.32-0.15c-0.11,0.24-0.03,0.32-0.01,0.33c0.03,0.04-0.04,0.24,0.17,0.23
			c-0.08-0.07-0.04-0.18-0.04-0.18s0.22-0.03,0.15-0.41c0.08-0.08,0.11,0,0.11,0s0.02,0.22,0.22,0.18c0.09,0.05-0.01,0.17-0.01,0.17
			s0.14,0,0.19-0.11c0.04-0.11,0.09-0.31-0.14-0.39c-0.03-0.08,0.09-0.09,0.09-0.09s0.15,0.05,0.19,0.11
			c0.04,0.07,0.03-0.18-0.16-0.21c-0.23-0.01-0.24-0.05-0.24-0.06c0-0.01-0.04-0.56-0.06-0.71L38.31,6.14z"/>
		<path class="st3" d="M39.11,6.79c0-0.04-0.39-0.52-0.29-0.58c0.1,0.02,0.26,0.24,0.4,0.17c-0.04-0.09-0.16-0.04-0.29-0.26
			c-0.13-0.25-0.15-0.62-0.62-1.03c0.3,0.43,0.99,0.68,1.02,0.56c0.03-0.13-0.61-0.6-0.58-0.72c0.13,0.24,0.77,0.76,1.24,0.72
			c0.03-0.1-0.39-0.3-0.49-0.49c-0.3-0.19-1.11-0.82-1.12-0.97c-0.29-0.39-0.48-0.51-0.56-0.56c-0.03-0.04-0.04-0.07-0.05-0.09
			c-0.18-0.39,0.06-0.52,0.2-0.54c0.12-0.01,0.15,0,0.23-0.03c-0.1-0.04-0.2-0.07-0.3-0.1c0.13,0.09,0.46,0.01,0.39,0.26
			c0.14-0.05,0.45-0.39-0.35-0.46c-0.26-0.27-1.33-0.43-1.6,0.76c0.02,0.02,0.03,0.03,0.1,0.08c-0.34-0.15-1.25-0.27-1.58-0.31
			c-0.89-0.23-1.81-0.8-1.9-0.73c-0.12,0.05,0.54,0.61,0.5,0.62c-0.57-0.3-1.09-0.52-1.57-0.71c-0.34-0.12-0.68-0.39-0.72-0.34
			c-0.12,0.24,0.54,0.83,0.67,0.9c0.12,0.07,1.1,0.48,1.09,0.49c-1.47-0.61-1.72-0.73-1.8-0.8c-0.13-0.03-0.45-0.42-0.53-0.39
			c-0.05,0.04,0.05,0.66,0.75,0.94c0.11,0.08,1.51,0.54,1.5,0.57c0,0.01-1.6-0.6-1.66-0.62c-0.31-0.11-0.68-0.5-0.75-0.45
			c-0.07,0.04,0.17,0.46,0.48,0.59c0.16,0.07,0.79,0.35,1.35,0.53c0.04,0.01-1.01-0.36-1.51-0.56c-0.23-0.12-0.34-0.26-0.37-0.23
			c-0.05,0.03,0.08,0.65,1.7,1c0.04,0.02,0.57-0.11,0.54-0.1C32.62,3.9,32.11,4,32.06,4c-0.04-0.01-0.33,0.03-0.33,0.04
			c-0.02,0.04,0.1,0.26,0.94,0.22c0.11-0.01,0.69-0.19,0.64-0.15c-0.02,0.02-0.79,0.25-0.85,0.25c-0.05,0.01-0.32,0.03-0.33,0.06
			c-0.01,0.04,0.2,0.19,0.65,0.22c0.4,0.02,1.15-0.22,1.14-0.21c-0.02,0.02-0.73,0.24-0.75,0.25c-0.03,0.01-0.29,0.03-0.3,0.04
			c-0.02,0.05,0.38,0.39,1.55,0.02C34.3,4.9,33.73,5,33.73,5.03c0,0.02,0.13,0.13,0.32,0.17c0.1,0.02,0.24,0.02,0.36,0
			c0.22-0.04,0.46-0.12,0.76-0.38c0.04,0.08-0.75,0.44-0.71,0.48c0.17,0.14,0.73-0.02,0.77-0.04c0.04-0.02,1.09-0.56,1.08-0.63
			c0.02,0.08-1.35,0.76-1.34,0.79c0.09,0.13,0.56-0.01,0.58-0.02c0.02-0.01,0.6-0.3,0.61-0.31c0.02-0.01-0.68,0.37-0.61,0.43
			c-0.03,0.25,1.08-0.17,1.17-0.22c0.04-0.03-0.53,0.23-0.53,0.36c0.19,0.29,0.78,0.2,0.87,0.13C37.1,5.77,37,6.01,37.04,5.99
			c0.01,0,0.13-0.13,0.17-0.23c-0.01,0.08-0.08,0.21-0.12,0.35c-0.04,0.15-0.05,0.31-0.1,0.48c-0.01,0.08,0.37-0.15,0.31-0.69
			c0.03,0.28-0.12,0.81-0.08,0.83c0.08,0.05,0.3-0.26,0.32-0.48c0.07,0.11,0.2,0.33,0.32,0.39c-0.01-0.16,0-0.16-0.05-0.32
			c0.03-0.21,0.03-0.51,0.04-0.84c0.32,0.56,0.45,0.8,0.36,1.23c0.1,0.04,0.25-0.3,0.24-0.47C38.57,6.74,39.1,6.81,39.11,6.79z"/>
		<path class="st3" d="M33.78,3.22c0,0-0.22,0.15-0.49,0.14c0.07,0.25,0.63,0.06,0.63,0.06s-0.27,0.28-0.46,0.32
			c0.12,0.09,0.61,0.06,0.69,0.01c0.08-0.04,0.23-0.22,0.23-0.22s-0.5,0.53-0.58,0.53c-0.01,0.06,0.53,0.04,0.64-0.05
			c0.11-0.09,0.39-0.23,0.39-0.23s-0.74,0.47-0.77,0.47c0.28,0.07,0.83-0.08,1.18-0.28c-0.52,0.32-0.57,0.38-0.84,0.48
			c0.24,0.05,0.36,0.2,1.16-0.12c0.46-0.2,0.72-0.56,0.72-0.56c-0.29,0.35-0.74,0.65-1.23,0.94c-0.03,0.05,0.53,0.27,1.25-0.41"/>
		<path class="st3" d="M37.67,4.71c0,0,0.05,0.21,0.24,0.37c0.19,0.16,0.21,0.32,0.21,0.32"/>
		<path class="st3" d="M37.57,3.35c0,0,0.07,0.19,0.27,0.31c0.2,0.12,0.51,0.5,0.53,0.56c0.02,0.08,0.14,0.66,0.13,0.72"/>
		<path class="st3" d="M36.34,3.64c0.01,0.07-0.29,0.43,0.13,0.85c-0.37,0.42-0.37,0.47-0.37,0.47s0.21,0.11,0.58-0.19
			c0.62,0.69,0.41,1.01,0.41,1.01"/>
		<path class="st3" d="M37.03,5.29c0,0-0.06-0.07,0.04-0.35c0.09,0.1,0.19,0.12,0.24,0.16c0.04,0.04,0.51,0.1,0.54,0.39"/>
		<path class="st3" d="M37.58,2.68c0-0.02-0.09-0.2-0.44,0.03C37.32,2.72,37.51,2.82,37.58,2.68z"/>
		<path class="st3" d="M40.91,3.53c0.02,0.01,1.04,0.21,1.38,0.11c-0.44,0.53-1.31,0.17-1.31,0.17c0.43,0.12,0.44,0.11,0.58,0.22
			c0.04,0.1-0.79,0.05-1.06-0.09c0.76,0.22,0.78,0.2,0.8,0.29c0.03,0.12-1.25-0.03-1.36-0.19c0.34,0.24,0.53,0.29,0.72,0.4
			c-0.23,0.09-0.66,0.19-1.44-0.32c1.03,0.86,1.97,0.81,2.11,0.96c-0.36,0.49-1.75-0.29-2.39-0.68c-0.64-0.39,1.4,0.95,1.59,0.92
			c-0.09,0.13-0.77,0.02-0.81-0.05"/>
		<path class="st3" d="M41.17,4.43c-0.12,0.02-0.48,0.02-0.53,0.01"/>
		<path class="st3" d="M33.48,3.08c0,0,0.78,0.38,1.11,0.35c-0.09,0.08-0.22,0.11-0.22,0.11c0.08,0.03,0.31,0.14,0.65,0.07
			c-0.08,0.08-0.19,0.16-0.19,0.16s0.3,0.1,0.63-0.06c-0.1,0.12-0.16,0.2-0.16,0.2l0.23,0.01"/>
	</g>
</g>
</svg>
