<?xml version="1.0" encoding="utf-8"?>
<!-- Generator: Adobe Illustrator 24.2.3, SVG Export Plug-In . SVG Version: 6.00 Build 0)  -->
<svg version="1.1" id="Layer_1" xmlns="http://www.w3.org/2000/svg" xmlns:xlink="http://www.w3.org/1999/xlink" x="0px" y="0px"
	 viewBox="0 0 249.4 212.8" style="enable-background:new 0 0 249.4 212.8;" xml:space="preserve">
<style type="text/css">
	.st0{fill:#FFFFFF;}
	.st1{fill:#E5E5E5;}
	.st2{fill:none;stroke:#CBCBCB;stroke-width:0.9399;stroke-linecap:round;stroke-linejoin:round;}
	.st3{fill:#CBCBCB;stroke:#989898;stroke-miterlimit:10;}
	.st4{fill:#FFFFFF;stroke:#FFFFFF;stroke-miterlimit:10;}
	.st5{fill:none;stroke:#E5E5E5;stroke-miterlimit:10;}
</style>
<g>
	<path class="st0" d="M107.9,123.1c-0.5,2.5-0.9,4.8-3.8,5.3c-2.2,0.4-4.6-0.1-6.8-0.2c-3.2-0.1-6.9-0.7-9.9,0.4
		c-0.5-4-2.6-7.8-5.6-10.5c-1.5-1.4-3.2-2.3-5.1-2.9c0.8-2.8,0.6-5.8-0.5-8.5c-1.6-3.7-5.2-6.2-2.3-10.5c1.4-2-1.9-3.9-3.3-1.9
		c-1.9,2.8-2.3,6.5-0.6,9.5c1,1.9,2.6,3.3,3.2,5.5c0.5,1.8,0.4,3.6-0.2,5.3c-0.3,0-0.7,0-1.1,0c-8.5,0.7-15.6,3.7-21.6,9.2
		c-2.8,2.6-5.2,5.8-7,9.2c-1.2-2.6-2.9-5.2-5.5-6.5c-2-1-4.3-0.5-6-2.2c-1.9-1.9-2.1-4.8-1.7-7.3c0.4-2.4-3.2-3.4-3.7-1
		c-0.7,4.2-0.1,8.8,3.4,11.7c0.7,0.6,1.5,1,2.4,1.4c1.3,0.5,2.8,0.3,4,0.9c2.4,1.2,3.8,4.9,4.7,7.2c0.1,0.2,0.2,0.4,0.4,0.6
		c-0.5,1.4-0.8,2.9-1,4.3c-0.7,4.5-0.7,8.2-0.2,12.2c0.3,2.1-3.2,2.9-6.9,3.4c-0.3,0.1-0.6,0.1-0.9,0.1c-3.8,0.6-7.6,4.1-9.4,7.1
		c-0.3,0.4-0.5,0.9-0.7,1.4c-0.2-0.1-0.5-0.1-0.8,0c-1.6,0.3-2.7,0.3-3.6-1.2c-0.4-0.7-0.7-1.4-1.1-2.1c-0.9-1.3-2.1-2.4-3.4-3.3
		c-3.4-2.1-7.5-2.4-11.3-2.4c-2.4,0-2.5,3.8,0,3.8c4.9-0.1,9.8,0.5,12.2,5.2c1.7,3.2,3.7,4.3,6.9,3.9c-0.4,2.3-0.3,4.7,0.4,6.7
		c2.3,7,8,11.1,15.3,11.1c1.1,0,2.3-0.1,3.5-0.3c1.1-0.2,2.2-0.4,3.3-0.7c0.5,4.1,4.5,7.5,3.1,12c-0.8,2.6-3.6,3.9-5.2,5.9
		c-1.5,1.9-2.1,3.9-1.7,6.2c0.5,2.4,4.1,1.4,3.7-1c-0.5-2.7,2.9-4.5,4.5-6.2c1.4-1.5,2.4-3.3,2.7-5.4c0.3-2.1-0.1-4.2-0.7-6.1
		c-0.7-1.9-2.8-4.4-2.6-6.5c4.5-1.4,8.8-3.3,12.4-5.7c4.8-3.2,7.9-6.7,9.8-11.2c0.9-2.2,1.5-4.7,1.8-7.4c0.6-0.4,1-0.9,1.6-1.4
		c1.3-1.1,2.7-1.2,4.4-0.8c2.8,0.6,5.4,1.8,8.1,2.6c4.2,1.3,9.4,1.5,11.7-3c1.1-2.2-2.2-4.1-3.3-1.9c-2.5,4.8-11-0.2-14.7-1.2
		c-1.9-0.5-4-0.8-6-0.2c-0.8,0.2-1.3,0.6-1.9,1c0-0.4,0-0.7-0.1-1.1c0-0.2-0.1-0.6-0.1-1.1c-0.2-1.5-0.6-4.6-0.7-6.3
		c0.1-0.3,0.2-0.8,0.3-1.2c0.1-0.1,0.1-0.2,0.2-0.3l0.2-0.2c0.1-0.2,0.3-0.3,0.4-0.4c0.2-0.1,0.7-0.5,1-0.7c0.2-0.1,0.5-0.1,0.8-0.2
		c6.4-0.9,13-5.5,14.1-12.6c2.2-1.5,4.9-1.1,7.5-1c2.9,0.1,5.9,0.4,8.9,0.3c4.9-0.3,7-3.6,7.9-8.1
		C112,121.7,108.4,120.7,107.9,123.1z"/>
	<g id="XMLID_1_">
		<g>
			<path class="st1" d="M83.7,130.2c0.3,6.5-5.5,10.8-11.2,11.5l-0.2,0l-0.3,0.1c-0.3,0.1-0.6,0.2-0.9,0.3l-0.2,0.1l-0.2,0.1
				c-0.1,0.1-1.5,0.9-1.9,1.3c-0.2,0.1-0.3,0.4-0.6,0.7l-0.2,0.3l-0.2,0.3c-0.2,0.3-0.3,0.5-0.4,0.8l-0.1,0.2l-0.1,0.2
				c-0.1,0.4-0.3,1.1-0.4,1.4c0,0.1-0.1,0.2-0.1,0.2l-0.1,0.2v0.2c0,1.9,0.5,5.2,0.7,7c0.1,0.5,0.1,0.8,0.1,1
				c0.4,4.3-0.1,8.2-1.5,11.4c-1.6,3.8-4.2,6.8-8.4,9.5c-5,3.3-11.4,5.7-18,6.8c-7.1,1.2-12.5-1.9-14.6-8.2
				c-0.8-2.6-0.3-6.3,1.2-8.9c1.3-2.2,4.3-4.9,6.8-5.3c0.2,0,0.5-0.1,0.8-0.1c3.3-0.5,10.9-1.6,10.1-7.7c-0.5-3.6-0.4-7.1,0.2-11.2
				c0.8-5.7,4.2-11.9,8.8-16c5.4-4.9,11.8-7.6,19.4-8.2c0.2,0,0.5,0,0.7,0c2.9,0,5,1.3,6.4,2.5C81.8,123.2,83.5,126.8,83.7,130.2z"
				/>
		</g>
		<g>
			<path class="st2" d="M72.5,141.7l-0.2,0l-0.3,0.1c-0.3,0.1-0.6,0.2-0.9,0.3l-0.2,0.1l-0.2,0.1c-0.1,0.1-1.5,0.9-1.9,1.3
				c-0.2,0.1-0.3,0.4-0.6,0.7l-0.2,0.3l-0.2,0.3c-0.2,0.3-0.3,0.5-0.4,0.8l-0.1,0.2l-0.1,0.2c-0.1,0.4-0.3,1.1-0.4,1.4
				c0,0.1-0.1,0.2-0.1,0.2l-0.1,0.2v0.2c0,1.9,0.5,5.2,0.7,7c0.1,0.5,0.1,0.8,0.1,1c0.4,4.3-0.1,8.2-1.5,11.4
				c-1.6,3.8-4.2,6.8-8.4,9.5c-5,3.3-11.4,5.7-18,6.8c-7.1,1.2-12.5-1.9-14.6-8.2c-0.8-2.6-0.3-6.3,1.2-8.9c1.3-2.2,4.3-4.9,6.8-5.3
				c0.2,0,0.5-0.1,0.8-0.1c3.3-0.5,10.9-1.6,10.1-7.7c-0.5-3.6-0.4-7.1,0.2-11.2c0.8-5.7,4.2-11.9,8.8-16c5.4-4.9,11.8-7.6,19.4-8.2
				c0.2,0,0.5,0,0.7,0c2.9,0,5,1.3,6.4,2.5c2.6,2.3,4.3,5.8,4.4,9.2C84,136.8,78.1,141,72.5,141.7z"/>
		</g>
	</g>
	<circle class="st3" cx="41.3" cy="170.6" r="5.6"/>
	<path class="st4" d="M41.3,172.4c-1,0-1.8-0.8-1.8-1.8c0-1,0.8-1.8,1.8-1.8c1,0,1.8,0.8,1.8,1.8C43.2,171.6,42.4,172.4,41.3,172.4z
		"/>
	<path class="st3" d="M59.4,146.4c0-2.9-2.4-5.3-5.3-5.3c-2.9,0-5.3,2.4-5.3,5.3s2.4,5.3,5.3,5.3S59.4,149.3,59.4,146.4z"/>
	<circle class="st4" cx="54.1" cy="146.4" r="1.5"/>
	<path class="st3" d="M57.5,154.1c-2.4,0-4.4,2-4.4,4.4c0,2.4,2,4.4,4.4,4.4s4.4-2,4.4-4.4C61.9,156.1,59.9,154.1,57.5,154.1z"/>
	<path class="st4" d="M57.5,159.2c-0.3,0-0.6-0.3-0.6-0.6s0.3-0.6,0.6-0.6s0.6,0.3,0.6,0.6C58.1,158.9,57.8,159.2,57.5,159.2z"/>
	<path class="st3" d="M65.1,123.6c-3.2,0-5.8,2.6-5.8,5.8c0,3.2,2.6,5.8,5.8,5.8c3.2,0,5.8-2.6,5.8-5.8
		C70.9,126.2,68.3,123.6,65.1,123.6z"/>
	<path class="st4" d="M65.1,131.4c-1.1,0-2-0.9-2-2s0.9-2,2-2c1.1,0,2,0.9,2,2C67.1,130.5,66.2,131.4,65.1,131.4z"/>
</g>
<g>
	<g>
		<path class="st0" d="M144.6,56.5c-1.4,1.4-2.2,3.3-2.2,5.3s0.8,3.9,2.2,5.3c1.5,1.5,3.4,2.2,5.3,2.2c1.9,0,3.9-0.7,5.3-2.2
			c2.9-2.9,2.9-7.7,0-10.6C152.2,53.5,147.5,53.5,144.6,56.5z M152,63.9c-1.2,1.2-3.1,1.2-4.3,0c-0.6-0.6-0.9-1.3-0.9-2.2
			s0.3-1.6,0.9-2.2c0.6-0.6,1.4-0.9,2.1-0.9s1.6,0.3,2.1,0.9C153.2,60.8,153.2,62.8,152,63.9z"/>
		<path class="st0" d="M148.2,31.7c-2.9,2.9-2.9,7.7,0,10.6c1.4,1.4,3.3,2.2,5.3,2.2c2,0,3.9-0.8,5.3-2.2c2.9-2.9,2.9-7.7,0-10.6
			C155.9,28.7,151.1,28.7,148.2,31.7z M155.6,39.1c-0.6,0.6-1.3,0.9-2.1,0.9s-1.6-0.3-2.1-0.9c-1.2-1.2-1.2-3.1,0-4.3
			c0.6-0.6,1.4-0.9,2.1-0.9s1.6,0.3,2.1,0.9C156.8,36,156.8,37.9,155.6,39.1z"/>
		<path class="st0" d="M174.4,68.3c-4.3,4.3-4.3,11.4,0,15.7c2.2,2.2,5,3.2,7.9,3.2s5.7-1.1,7.9-3.2c4.3-4.3,4.3-11.4,0-15.7
			C185.8,64,178.8,64,174.4,68.3z M187,80.8c-2.6,2.6-6.8,2.6-9.4,0c-2.6-2.6-2.6-6.8,0-9.4c1.3-1.3,3-1.9,4.7-1.9s3.4,0.7,4.7,1.9
			C189.6,74,189.6,78.2,187,80.8z"/>
		<path class="st0" d="M245.2,116.6c2.2-2.3,3.7-4.9,4.1-8.1c0.9-6.9-3.8-13.6-10.6-15c-6.7-1.3-11,2.4-15.4,6.8
			c-3.1,3.1-7.6,4.1-11.5,1.7c-1.5-0.9-2.8-2.3-4.1-3.7c5-5.7,7.7-13,7.7-20.7c0-8.4-3.3-16.3-9.2-22.2l-29.3-29.2
			c-5.9-6-13.8-9.2-22.2-9.2s-16.3,3.3-22.2,9.2c-12.3,12.3-12.3,32.2,0,44.5l29.2,29.2c6.1,6.1,14.2,9.2,22.2,9.2
			c7.4,0,14.7-2.6,20.6-7.7c3.4,3.3,6.8,6.3,11.9,6.3c6.5,0,9.3-4.5,13.8-8.1c7.5-6.1,18.3,2.8,13.7,11.4c-1.1,2.1-3.2,3.7-4.9,5.4
			c-2.2,2.4-3.7,5.2-4.1,8.4c-0.7,6.7,3.8,10.8,8.1,15.1c2,2,5.2-1.1,3.2-3.2c-4-4-9-8.3-6-14.6
			C241.3,120.1,243.5,118.4,245.2,116.6z"/>
		<g id="XMLID_3_">
			<g>
				<path class="st0" d="M203,58.6c10.5,10.5,10.5,27.6,0,38.2c-10.5,10.5-27.7,10.5-38.2,0l-29.2-29.2C125,57,125,39.9,135.5,29.4
					c5.2-5.3,12.2-7.9,19.1-7.9s13.8,2.6,19.1,7.9L203,58.6z"/>
			</g>
			<g>
				<path class="st5" d="M203,96.8c-10.5,10.5-27.7,10.5-38.2,0l-29.2-29.2C125,57,125,39.9,135.5,29.4c5.2-5.3,12.2-7.9,19.1-7.9
					s13.8,2.6,19.1,7.9L203,58.6C213.5,69.2,213.5,86.3,203,96.8z"/>
			</g>
		</g>
	</g>
	<circle class="st3" cx="154.8" cy="61.6" r="7.6"/>
	<circle class="st3" cx="186.4" cy="82.9" r="10.9"/>
	<circle class="st3" cx="151.6" cy="36.6" r="7.6"/>
	<circle class="st0" cx="186.4" cy="82.9" r="3.7"/>
	<circle class="st0" cx="154.8" cy="61.6" r="3.7"/>
	<circle class="st0" cx="151.6" cy="36.6" r="5.4"/>
</g>
</svg>
