<?xml version="1.0" encoding="utf-8"?>
<!-- Generator: Adobe Illustrator 24.2.3, SVG Export Plug-In . SVG Version: 6.00 Build 0)  -->
<svg version="1.1" id="Layer_1" xmlns="http://www.w3.org/2000/svg" xmlns:xlink="http://www.w3.org/1999/xlink" x="0px" y="0px"
	 viewBox="0 0 190 315" style="enable-background:new 0 0 190 315;" xml:space="preserve">
<style type="text/css">
	.st0{fill:#FFE0A6;}
	.st1{fill:#F7D594;}
	.st2{fill:#E6BE73;}
	.st3{fill:#E0B769;}
	.st4{fill:#432918;}
	.st5{fill:#F6F6F6;}
	.st6{fill:#FEDA56;}
	.st7{enable-background:new    ;}
	.st8{fill:#FFFFFF;}
</style>
<g>
	<path class="st0" d="M172.8,138.6c-3.9,47.1-23.5,101.2-77.2,101.4s-72.8-54.3-77.2-101.4C15.1,103.3,25.6,77,25.6,77h141.2
		C166.8,77.1,175.8,102.1,172.8,138.6z"/>
	<path class="st1" d="M166.8,77.1H95.6v73.6c0,0,11.3,32.4,10.6,36s-10.6,1.8-10.6,1.8V240c53.7-0.2,73.4-54.3,77.2-101.4
		C175.8,102.1,166.8,77.1,166.8,77.1z"/>
	<g>
		<path class="st0" d="M17.6,114.7c-7-5.2-22.7,12.5-9.6,34s16.1,1.8,16.1,1.8L17.6,114.7z"/>
		<path class="st2" d="M14.5,122.9c-4.1-4.9-15.2,11.8,3.2,30.1C7.9,142,7.4,125.1,14.5,122.9z"/>
	</g>
	<g>
		<path class="st1" d="M173.3,114.7c7-5.2,22.7,12.5,9.6,34s-16.1,1.8-16.1,1.8L173.3,114.7z"/>
		<path class="st3" d="M177.1,122.9c4.1-4.9,15.2,11.8-3.2,30.1C183.7,142,184.2,125.1,177.1,122.9z"/>
	</g>
	<path class="st4" d="M19.4,148.3c4.1-23.9,0.9-56.7,32.7-56.7c14.7,0,28.8,7.2,43.4,7.2c16,0,29-7.6,43.5-7.2
		c25.7,0.7,31.5,27.8,32.8,56.7c6-14.8,10.7-67.6-1.4-87.8c-7.1-11.9-23-23.1-59.8-28.7C68.7,25.5,87.4,5.5,87.4,5.5
		s-14.8,4.8-13.6,16.9C64.8,13.3,66.4,7,68.6,0c0,0-10.5,10.5-9,21.5C52.2,23,45.1,15.9,45.5,8c-5,14.6,9,16.6-13.7,36.5
		C1,71.4,13.8,120.3,19.4,148.3z"/>
	<path class="st3" d="M95.6,150.7c0,0,13.7,31.9,12.3,36.5s-12.3,1.3-12.3,1.3s6.6,0.1,8.4-2.3C105.8,183.7,95.6,150.7,95.6,150.7z"
		/>
	<circle class="st5" cx="60.1" cy="140.8" r="15.1"/>
	<ellipse class="st0" cx="60.1" cy="123.9" rx="15.1" ry="6"/>
	<path d="M68.2,139.4c0,4.3-3.5,7.9-7.8,7.9s-7.8-3.5-7.8-7.9c0-4.3,3.5-7.9,7.8-7.9S68.2,135.1,68.2,139.4z"/>
	<circle class="st5" cx="131" cy="140.8" r="15.1"/>
	<ellipse class="st1" cx="131" cy="123.9" rx="15.1" ry="6"/>
	<path d="M139.4,139.4c0,4.3-3.5,7.9-7.9,7.9c-4.3,0-7.8-3.5-7.8-7.9c0-4.3,3.5-7.9,7.8-7.9C135.9,131.6,139.4,135.1,139.4,139.4z"
		/>
	<path class="st5" d="M58.5,134.6c0,1.7-1.3,3-3,3s-3-1.4-3-3s1.3-3,3-3S58.5,132.9,58.5,134.6z"/>
	<path class="st5" d="M129.8,134.6c0,1.7-1.4,3-3,3c-1.7,0-3-1.4-3-3s1.3-3,3-3C128.4,131.6,129.8,132.9,129.8,134.6z"/>
	<path class="st4" d="M78.9,122.8C64.6,114.6,46,120,37.1,129c3.5-6.8,12.2-12.6,20.9-14.2C68.6,112.7,80.9,115.6,78.9,122.8z"/>
	<path class="st4" d="M112.2,122.8c14.3-8.2,32.9-2.8,41.8,6.1c-3.5-6.8-12.2-12.6-20.9-14.2C122.5,112.7,110.2,115.6,112.2,122.8z"
		/>
	<path class="st3" d="M81.1,208.7c0,0,6.9-0.1,14.5,0s14.5,0,14.5,0s-4.7,4.8-14.5,4.8C85.7,213.5,81.1,208.7,81.1,208.7z"/>
</g>
<g>
	<path class="st6" d="M16,315h158c8.9,0,16-7.2,16-16v-13c0-8.9-7.2-16-16-16H16c-8.9,0-16,7.2-16,16v13C0,307.8,7.2,315,16,315z"/>
	<g class="st7">
		<path class="st8" d="M49.1,286.2h-8.9v4.2h7v2.8h-7v6.8h-3.5v-16.5h12.4V286.2z"/>
		<path class="st8" d="M51,299.9v-12.5h3l0.2,2.4c0.3-0.9,0.8-1.5,1.5-2s1.4-0.7,2.4-0.7c0.3,0,0.5,0,0.8,0.1
			c0.2,0.1,0.4,0.1,0.6,0.2l-0.4,2.9c-0.2-0.1-0.4-0.1-0.6-0.2s-0.6-0.1-0.9-0.1c-0.5,0-1,0.1-1.4,0.4c-0.5,0.2-0.9,0.6-1.2,1.1
			c-0.3,0.5-0.4,1.1-0.4,1.9v6.5H51z"/>
		<path class="st8" d="M68.5,292c0-0.7-0.2-1.3-0.6-1.7c-0.4-0.4-0.9-0.6-1.6-0.6c-0.6,0-1.2,0.2-1.6,0.5c-0.5,0.3-0.8,0.8-1,1.6
			l-2.9-0.9c0.3-1.1,0.9-2,1.9-2.7s2.2-1,3.9-1c1.1,0,2.1,0.2,2.9,0.5c0.8,0.3,1.5,0.9,1.9,1.5c0.5,0.7,0.7,1.5,0.7,2.6v5.1
			c0,0.6,0.3,1,0.9,1c0.3,0,0.5,0,0.8-0.1l-0.2,2.1c-0.4,0.2-1,0.3-1.6,0.3c-0.6,0-1.1-0.1-1.6-0.3c-0.5-0.2-0.8-0.5-1.1-0.9
			s-0.4-0.9-0.4-1.5v-0.1l0.6-0.1c-0.1,0.6-0.4,1.2-0.8,1.6c-0.4,0.4-1,0.8-1.6,1c-0.6,0.2-1.3,0.3-2,0.3c-0.9,0-1.6-0.1-2.2-0.4
			c-0.6-0.3-1.1-0.6-1.4-1.1s-0.5-1.1-0.5-1.8c0-0.9,0.3-1.7,0.9-2.3c0.6-0.6,1.5-1,2.6-1.2l4.7-1l0,2.1l-3,0.6
			c-0.6,0.1-1,0.3-1.3,0.5c-0.3,0.2-0.4,0.5-0.4,0.9c0,0.4,0.2,0.7,0.5,1c0.3,0.2,0.7,0.3,1.1,0.3c0.4,0,0.7,0,1-0.1
			c0.3-0.1,0.6-0.2,0.9-0.4c0.3-0.2,0.5-0.4,0.6-0.8c0.1-0.3,0.2-0.7,0.2-1.1V292z"/>
		<path class="st8" d="M83.2,297.6c1.4,0,2.4,0.3,3.1,0.9c0.7,0.6,1.1,1.4,1.1,2.4c0,0.9-0.3,1.8-0.8,2.4s-1.3,1.2-2.3,1.5
			c-1,0.3-2.1,0.5-3.4,0.5c-2.1,0-3.7-0.3-4.7-0.9c-1-0.6-1.5-1.4-1.5-2.3c0-0.7,0.3-1.3,0.8-1.7c0.5-0.5,1.4-0.7,2.6-0.8l-0.1,0.4
			c-0.9-0.2-1.5-0.4-2-0.9s-0.7-1-0.7-1.8c0-0.8,0.3-1.4,0.9-1.9c0.6-0.5,1.4-0.8,2.4-0.9l1.5,0.7h-0.4c-0.7,0.1-1.2,0.2-1.5,0.4
			s-0.4,0.5-0.4,0.8c0,0.3,0.1,0.6,0.4,0.8c0.3,0.2,0.7,0.3,1.2,0.3H83.2z M80.9,287.2c1.2,0,2.2,0.2,3,0.5s1.5,0.8,2,1.5
			c0.5,0.6,0.7,1.4,0.7,2.3c0,0.9-0.2,1.6-0.7,2.2c-0.5,0.6-1.1,1.1-2,1.5s-1.9,0.5-3,0.5c-1.8,0-3.3-0.4-4.2-1.1
			c-1-0.8-1.5-1.8-1.5-3.1c0-0.9,0.2-1.6,0.7-2.3c0.5-0.6,1.1-1.1,2-1.5S79.7,287.2,80.9,287.2z M80.9,303c0.9,0,1.6-0.1,2.1-0.2
			c0.6-0.1,1-0.3,1.2-0.6c0.3-0.2,0.4-0.5,0.4-0.8c0-0.3-0.1-0.6-0.4-0.8s-0.7-0.3-1.4-0.3h-4.2c-0.4,0-0.7,0.1-1,0.3
			c-0.3,0.2-0.4,0.5-0.4,0.8c0,0.5,0.3,0.8,0.9,1.1C78.9,302.8,79.8,303,80.9,303z M80.9,289.3c-0.7,0-1.2,0.2-1.6,0.5
			c-0.4,0.4-0.6,0.9-0.6,1.5s0.2,1.2,0.6,1.5c0.4,0.4,1,0.6,1.6,0.6s1.2-0.2,1.6-0.6s0.6-0.9,0.6-1.5s-0.2-1.2-0.6-1.5
			C82.1,289.5,81.6,289.3,80.9,289.3z M87.3,284.5l0.4,2.4c-0.1,0-0.1,0-0.2,0c-0.1,0-0.2,0-0.2,0c-0.8,0-1.3,0.2-1.7,0.5
			s-0.6,0.8-0.6,1.4l-1.4-0.6c0-0.7,0.1-1.3,0.4-1.9c0.3-0.6,0.7-1,1.2-1.4c0.5-0.3,1.2-0.5,1.9-0.5c0,0,0.1,0,0.1,0
			C87.2,284.5,87.3,284.5,87.3,284.5z"/>
		<path class="st8" d="M91.2,285.6c-0.7,0-1.2-0.2-1.6-0.5c-0.3-0.3-0.5-0.8-0.5-1.4c0-0.6,0.2-1.1,0.5-1.4c0.4-0.3,0.9-0.5,1.6-0.5
			c0.7,0,1.2,0.2,1.6,0.5c0.4,0.3,0.5,0.8,0.5,1.4c0,0.6-0.2,1.1-0.5,1.4C92.5,285.5,92,285.6,91.2,285.6z M92.9,287.4v12.5h-3.4
			v-12.5H92.9z"/>
		<path class="st8" d="M99.9,282v14.1c0,0.6,0.1,1,0.3,1.2c0.2,0.2,0.5,0.3,1,0.3c0.3,0,0.5,0,0.7-0.1s0.4-0.1,0.7-0.2l-0.3,2.2
			c-0.3,0.2-0.6,0.3-1.1,0.4s-0.8,0.1-1.3,0.1c-1.2,0-2.1-0.3-2.7-0.9c-0.6-0.6-0.8-1.5-0.8-2.8V282H99.9z"/>
		<path class="st8" d="M106.3,285.6c-0.7,0-1.2-0.2-1.6-0.5c-0.3-0.3-0.5-0.8-0.5-1.4c0-0.6,0.2-1.1,0.5-1.4
			c0.4-0.3,0.9-0.5,1.6-0.5c0.7,0,1.2,0.2,1.6,0.5c0.4,0.3,0.5,0.8,0.5,1.4c0,0.6-0.2,1.1-0.5,1.4
			C107.5,285.5,107,285.6,106.3,285.6z M108,287.4v12.5h-3.4v-12.5H108z"/>
		<path class="st8" d="M116.3,300.2c-1,0-2-0.3-2.8-0.8c-0.8-0.5-1.4-1.3-1.9-2.2c-0.5-1-0.7-2.1-0.7-3.5c0-1.4,0.2-2.6,0.7-3.5
			c0.5-1,1.1-1.7,2-2.2c0.8-0.5,1.8-0.8,2.8-0.8c1.1,0,2,0.3,2.7,0.9c0.7,0.6,1.2,1.5,1.4,2.5l-0.3,0.4v-9h3.4v18h-3.1l-0.2-3.8
			l0.4,0.2c-0.1,0.8-0.4,1.5-0.8,2c-0.4,0.6-0.9,1-1.6,1.3S117.1,300.2,116.3,300.2z M117.3,297.6c0.6,0,1.1-0.2,1.5-0.5
			s0.8-0.8,1-1.4c0.2-0.6,0.4-1.3,0.4-2.1c0-0.8-0.1-1.5-0.3-2c-0.2-0.6-0.6-1-1-1.3c-0.4-0.3-0.9-0.4-1.5-0.4c-0.9,0-1.7,0.3-2.2,1
			c-0.5,0.7-0.8,1.6-0.8,2.9c0,1.3,0.3,2.2,0.8,2.9S116.4,297.6,117.3,297.6z"/>
		<path class="st8" d="M134.4,292c0-0.7-0.2-1.3-0.6-1.7c-0.4-0.4-0.9-0.6-1.6-0.6c-0.6,0-1.2,0.2-1.6,0.5c-0.5,0.3-0.8,0.8-1,1.6
			l-2.9-0.9c0.3-1.1,0.9-2,1.9-2.7c1-0.7,2.2-1,3.9-1c1.1,0,2.1,0.2,2.9,0.5s1.5,0.9,1.9,1.5c0.5,0.7,0.7,1.5,0.7,2.6v5.1
			c0,0.6,0.3,1,0.9,1c0.3,0,0.5,0,0.8-0.1l-0.2,2.1c-0.4,0.2-1,0.3-1.6,0.3c-0.6,0-1.1-0.1-1.6-0.3c-0.5-0.2-0.8-0.5-1.1-0.9
			s-0.4-0.9-0.4-1.5v-0.1l0.6-0.1c-0.1,0.6-0.4,1.2-0.8,1.6c-0.4,0.4-1,0.8-1.6,1c-0.6,0.2-1.3,0.3-2,0.3c-0.8,0-1.6-0.1-2.2-0.4
			c-0.6-0.3-1.1-0.6-1.4-1.1c-0.3-0.5-0.5-1.1-0.5-1.8c0-0.9,0.3-1.7,0.9-2.3s1.5-1,2.6-1.2l4.7-1l0,2.1l-3,0.6
			c-0.6,0.1-1,0.3-1.3,0.5c-0.3,0.2-0.4,0.5-0.4,0.9c0,0.4,0.2,0.7,0.5,1s0.7,0.3,1.1,0.3c0.4,0,0.7,0,1-0.1
			c0.3-0.1,0.6-0.2,0.9-0.4c0.3-0.2,0.5-0.4,0.6-0.8c0.1-0.3,0.2-0.7,0.2-1.1V292z"/>
		<path class="st8" d="M146.3,300.2c-1,0-2-0.3-2.8-0.8c-0.8-0.5-1.4-1.3-1.9-2.2c-0.5-1-0.7-2.1-0.7-3.5c0-1.4,0.2-2.6,0.7-3.5
			c0.5-1,1.1-1.7,2-2.2c0.8-0.5,1.8-0.8,2.8-0.8c1.1,0,2,0.3,2.7,0.9c0.7,0.6,1.2,1.5,1.4,2.5l-0.3,0.4v-9h3.4v18h-3.1l-0.2-3.8
			l0.4,0.2c-0.1,0.8-0.4,1.5-0.8,2c-0.4,0.6-0.9,1-1.6,1.3C147.8,300,147.1,300.2,146.3,300.2z M147.3,297.6c0.6,0,1.1-0.2,1.6-0.5
			c0.4-0.3,0.8-0.8,1-1.4c0.2-0.6,0.4-1.3,0.4-2.1c0-0.8-0.1-1.5-0.4-2c-0.2-0.6-0.6-1-1-1.3c-0.4-0.3-0.9-0.4-1.5-0.4
			c-0.9,0-1.7,0.3-2.2,1c-0.5,0.7-0.8,1.6-0.8,2.9c0,1.3,0.3,2.2,0.8,2.9S146.4,297.6,147.3,297.6z"/>
	</g>
</g>
</svg>
