<?xml version="1.0" encoding="utf-8"?>
<!-- Generator: Adobe Illustrator 24.2.3, SVG Export Plug-In . SVG Version: 6.00 Build 0)  -->
<svg version="1.1" id="Layer_1" xmlns="http://www.w3.org/2000/svg" xmlns:xlink="http://www.w3.org/1999/xlink" x="0px" y="0px"
	 viewBox="0 0 190 315" style="enable-background:new 0 0 190 315;" xml:space="preserve">
<style type="text/css">
	.st0{fill:#FFE0A6;}
	.st1{fill:#F7D594;}
	.st2{fill:#E6BE73;}
	.st3{fill:#E0B769;}
	.st4{fill:#432918;}
	.st5{fill:#F6F6F6;}
	.st6{fill:#4D0005;}
	.st7{fill:#8C000A;}
	.st8{fill:#FB8A4A;}
	.st9{enable-background:new    ;}
	.st10{fill:#FFFFFF;}
</style>
<g>
	<path class="st0" d="M172.3,138.6C168.4,185.7,148.8,239.8,95,240c-53.7,0.2-72.8-54.3-77.3-101.4C14.5,103.3,25.1,77,25.1,77
		h141.2C166.3,77,175.3,102.1,172.3,138.6z"/>
	<path class="st1" d="M166.3,77H95.1v73.6c0,0,11.3,32.4,10.6,36c-0.7,3.6-10.6,1.8-10.6,1.8V240c53.7-0.2,73.4-54.3,77.3-101.4
		C175.3,102.1,166.3,77,166.3,77z"/>
	<g>
		<path class="st0" d="M17.2,114.7c-7-5.2-22.7,12.5-9.6,34s16.1,1.8,16.1,1.8L17.2,114.7z"/>
		<path class="st2" d="M14,123c-4.1-4.9-15.2,11.8,3.2,30.1C7.5,142,6.9,125.1,14,123z"/>
	</g>
	<g>
		<path class="st1" d="M172.8,114.7c7-5.2,22.7,12.5,9.6,34c-13.1,21.5-16.1,1.8-16.1,1.8L172.8,114.7z"/>
		<path class="st3" d="M176.7,123c4.1-4.9,15.2,11.8-3.2,30.1C183.2,142,183.7,125.1,176.7,123z"/>
	</g>
	<path class="st4" d="M18.9,148.3c4.1-23.9,0.9-56.7,32.7-56.7c14.7,0,28.8,7.2,43.4,7.2c16,0,29-7.6,43.5-7.2
		c25.7,0.7,31.5,27.7,32.8,56.7c6-14.8,10.7-67.6-1.4-87.8c-7.1-11.9-23-23.1-59.7-28.7c-42-6.4-23.3-26.3-23.3-26.3
		s-14.8,4.8-13.6,16.9C64.3,13.3,65.9,7,68.1,0c0,0-10.5,10.5-9.1,21.5C51.8,23,44.6,15.9,45,7.9c-5,14.6,9,16.6-13.7,36.6
		C0.6,71.4,13.3,120.3,18.9,148.3z"/>
	<path class="st3" d="M95.1,150.7c0,0,13.7,31.8,12.3,36.5c-1.4,4.6-12.3,1.3-12.3,1.3s6.6,0.1,8.4-2.3
		C105.3,183.7,95.1,150.7,95.1,150.7z"/>
	<ellipse transform="matrix(0.9903 -0.1392 0.1392 0.9903 -18.8838 9.9941)" class="st5" cx="62" cy="140" rx="16.3" ry="11.1"/>
	<path d="M70.2,140.3c-0.6-4.3-4.6-7.3-8.9-6.7s-7.3,4.6-6.7,8.9c0.6,4.3,4.6,7.3,8.9,6.7C67.8,148.5,70.8,144.5,70.2,140.3z"/>
	<path class="st5" d="M60.4,134.9c-0.7-1.5-2.4-2.2-4-1.6c-1.5,0.7-2.2,2.4-1.6,4c0.7,1.5,2.4,2.2,4,1.6
		C60.3,138.2,61,136.4,60.4,134.9z"/>
	<path class="st0" d="M85.3,156.2c-0.9-6.6-11-10.6-22.6-9s-20.2,8.3-19.2,14.9c0.9,6.6,11,10.6,22.6,9
		C77.6,169.5,86.2,162.8,85.3,156.2z"/>
	<path class="st5" d="M144.3,142.3c0.9-6.1-5.7-12-14.6-13.2c-8.9-1.3-16.8,2.6-17.7,8.7c-0.9,6.1,5.7,12,14.6,13.2
		S143.4,148.3,144.3,142.3z"/>
	<path d="M136.3,142.6c0.6-4.3-2.4-8.3-6.7-8.9c-4.3-0.6-8.3,2.4-8.9,6.7s2.4,8.3,6.7,8.9S135.7,146.9,136.3,142.6z"/>
	<path class="st5" d="M127.4,136.5c0.2-1.7-0.9-3.2-2.6-3.4s-3.2,0.9-3.4,2.6c-0.2,1.7,0.9,3.2,2.6,3.4S127.2,138.1,127.4,136.5z"/>
	
		<ellipse transform="matrix(0.1392 -0.9903 0.9903 0.1392 -49.5824 261.1635)" class="st1" cx="125.4" cy="159.1" rx="12.1" ry="21.1"/>
	<path class="st4" d="M108.3,113.7c12.4,10.9,28.6-0.5,45.5,18.2c-10.4-7.5-20.1-7.3-28.8-7.3C114.5,124.6,103.5,121.1,108.3,113.7z
		"/>
	<path class="st4" d="M81.9,113.7c-12.4,10.9-28.6-0.5-45.5,18.2c10.4-7.5,20.1-7.3,28.8-7.3C75.6,124.6,86.6,121.1,81.9,113.7z"/>
	<path class="st3" d="M95.1,205c12.8,0,19.3,7.7,19.3,7.7s-8.8-2.4-19.3-2.4c-10.6,0-19.3,2.4-19.3,2.4S81.9,205,95.1,205z"/>
</g>
<g>
	<path class="st0" d="M172.3,138.6C168.4,185.7,148.8,239.8,95,240c-53.7,0.2-72.8-54.3-77.3-101.4C14.5,103.3,25.1,77,25.1,77
		h141.2C166.3,77,175.3,102.1,172.3,138.6z"/>
	<path class="st1" d="M166.3,77H95.1v73.6c0,0,11.3,32.4,10.6,36c-0.7,3.6-10.6,1.8-10.6,1.8V240c53.7-0.2,73.4-54.3,77.3-101.4
		C175.3,102.1,166.3,77,166.3,77z"/>
	<g>
		<path class="st0" d="M17.2,114.7c-7-5.2-22.7,12.5-9.6,34s16.1,1.8,16.1,1.8L17.2,114.7z"/>
		<path class="st2" d="M14,123c-4.1-4.9-15.2,11.8,3.2,30.1C7.5,142,6.9,125.1,14,123z"/>
	</g>
	<g>
		<path class="st1" d="M172.8,114.7c7-5.2,22.7,12.5,9.6,34c-13.1,21.5-16.1,1.8-16.1,1.8L172.8,114.7z"/>
		<path class="st3" d="M176.7,123c4.1-4.9,15.2,11.8-3.2,30.1C183.2,142,183.7,125.1,176.7,123z"/>
	</g>
	<path class="st4" d="M18.9,148.3c4.1-23.9,0.9-56.7,32.7-56.7c14.7,0,28.8,7.2,43.4,7.2c16,0,29-7.6,43.5-7.2
		c25.7,0.7,31.5,27.7,32.8,56.7c6-14.8,10.7-67.6-1.4-87.8c-7.1-11.9-23-23.1-59.7-28.7c-42-6.4-23.3-26.3-23.3-26.3
		s-14.8,4.8-13.6,16.9C64.3,13.3,65.9,7,68.1,0c0,0-10.5,10.5-9.1,21.5C51.8,23,44.6,15.9,45,7.9c-5,14.6,9,16.6-13.7,36.6
		C0.6,71.4,13.3,120.3,18.9,148.3z"/>
	<path class="st3" d="M95.1,150.7c0,0,13.7,31.8,12.3,36.5s-12.3,1.3-12.3,1.3s6.6,0.1,8.4-2.3C105.3,183.7,95.1,150.7,95.1,150.7z"
		/>
	<ellipse class="st5" cx="62" cy="140" rx="15.7" ry="17.1"/>
	<path d="M71.3,137.7c-0.7-5-5.3-8.4-10.2-7.7c-5,0.7-8.4,5.3-7.7,10.2c0.7,5,5.3,8.4,10.2,7.7S72,142.6,71.3,137.7z"/>
	<path class="st5" d="M59.7,132.2c-0.8-1.8-2.9-2.7-4.7-1.9s-2.7,2.9-1.9,4.7s2.9,2.7,4.7,1.9C59.7,136.2,60.5,134.1,59.7,132.2z"/>
	<path class="st0" d="M85.5,162.3c0.2-6.7-9-12.4-20.7-12.8c-11.7-0.4-21.3,4.7-21.5,11.3c-0.2,6.7,9,12.4,20.7,12.8
		C75.6,174,85.3,169,85.5,162.3z"/>
	<ellipse class="st5" cx="128.1" cy="140" rx="15.7" ry="17.1"/>
	<path d="M137.5,140.3c0.7-5-2.8-9.5-7.7-10.2c-5-0.7-9.5,2.8-10.2,7.7c-0.7,5,2.8,9.5,7.7,10.2S136.8,145.3,137.5,140.3z"/>
	<path class="st5" d="M126.8,134.1c0.3-2-1.1-3.8-3.1-4.1s-3.8,1.1-4.1,3.1c-0.3,2,1.1,3.8,3.1,4.1
		C124.7,137.5,126.5,136.1,126.8,134.1z"/>
	<path class="st1" d="M146.6,160.8c-0.2-6.7-9.9-11.7-21.5-11.3c-11.7,0.4-20.9,6.1-20.7,12.8c0.2,6.7,9.9,11.7,21.5,11.3
		C137.5,173.2,146.8,167.5,146.6,160.8z"/>
	<path class="st4" d="M79.7,103.7c-9.4,13.6-20.9,10.5-42.7,16.9c12.2,0.4,20.6-0.3,29.1-2.3C76.3,115.8,86.1,109.7,79.7,103.7z"/>
	<path class="st4" d="M110.4,103.7c9.4,13.6,20.9,10.5,42.7,16.9c-12.2,0.4-20.6-0.3-29.1-2.3C113.8,115.8,104,109.7,110.4,103.7z"
		/>
	<path class="st6" d="M74.4,218.3c-3.9,0-4.1-6.8-1.4-10.2c3.6-4.6,12.5-8.3,22.1-8.3s17.8,3.7,22.1,8.3c2.9,3.1,2.4,10.2-1.4,10.2
		s-7.1-2.4-20.7-2.4C81.5,215.9,78.3,218.3,74.4,218.3z"/>
	<path class="st7" d="M95.1,212.5c-11.2-2.7-20.7,5.8-20.7,5.8c3.9,0,7.1-2.4,20.6-2.4c13.6,0,16.8,2.4,20.7,2.4
		C115.7,218.3,105.6,210.2,95.1,212.5z"/>
</g>
<g>
	<path class="st8" d="M16,315h158c8.9,0,16-7.2,16-16v-13c0-8.9-7.2-16-16-16H16c-8.9,0-16,7.2-16,16v13C0,307.8,7.2,315,16,315z"/>
	<g class="st9">
		<path class="st10" d="M77.9,283.4v16.5h-3.1v-8.6l0.1-4.8h0l-4.6,13.4h-2.8l-4.6-13.4h0l0.2,4.8v8.6h-3.1v-16.5h5l3,9l1,3.7H69
			l1.1-3.7l3-9H77.9z"/>
		<path class="st10" d="M83.6,285.6c-0.7,0-1.2-0.2-1.6-0.5c-0.3-0.3-0.5-0.8-0.5-1.4c0-0.6,0.2-1.1,0.5-1.4
			c0.4-0.3,0.9-0.5,1.6-0.5c0.7,0,1.2,0.2,1.6,0.5c0.4,0.3,0.5,0.8,0.5,1.4c0,0.6-0.2,1.1-0.5,1.4C84.8,285.5,84.3,285.6,83.6,285.6
			z M85.3,287.4v12.5h-3.4v-12.5H85.3z"/>
		<path class="st10" d="M94.7,300.2c-1.3,0-2.5-0.3-3.4-0.8c-1-0.5-1.7-1.3-2.3-2.2c-0.5-1-0.8-2.1-0.8-3.5s0.3-2.5,0.8-3.5
			c0.5-1,1.3-1.7,2.2-2.2c1-0.5,2.1-0.8,3.3-0.8c1.3,0,2.3,0.3,3.2,0.8c0.9,0.5,1.6,1.2,2,2.1s0.7,1.9,0.7,3c0,0.3,0,0.7,0,1
			c0,0.3,0,0.6-0.1,0.8h-10v-2.4h8.5l-1.6,0.6c0-1-0.2-1.9-0.7-2.4s-1.1-0.8-2-0.8c-0.6,0-1.2,0.1-1.6,0.4c-0.5,0.3-0.8,0.7-1,1.3
			c-0.2,0.6-0.4,1.3-0.4,2.2c0,0.9,0.1,1.6,0.4,2.2c0.3,0.6,0.6,1,1.1,1.3c0.5,0.3,1,0.4,1.7,0.4c0.7,0,1.3-0.1,1.8-0.4
			c0.4-0.3,0.8-0.7,1-1.2l2.7,1.1c-0.3,0.6-0.7,1.2-1.2,1.7c-0.5,0.5-1.2,0.8-1.9,1.1C96.3,300.1,95.5,300.2,94.7,300.2z"/>
		<path class="st10" d="M108.1,300.2c-1,0-2-0.3-2.8-0.8c-0.8-0.5-1.4-1.3-1.9-2.2s-0.7-2.1-0.7-3.5c0-1.4,0.2-2.6,0.7-3.5
			c0.5-1,1.1-1.7,2-2.2c0.8-0.5,1.8-0.8,2.8-0.8c1.1,0,2,0.3,2.7,0.9c0.7,0.6,1.2,1.5,1.4,2.5L112,291v-9h3.4v18h-3.1l-0.2-3.8
			l0.4,0.2c-0.1,0.8-0.4,1.5-0.8,2c-0.4,0.6-0.9,1-1.6,1.3C109.6,300,108.9,300.2,108.1,300.2z M109.1,297.6c0.6,0,1.1-0.2,1.5-0.5
			c0.4-0.3,0.8-0.8,1-1.4c0.2-0.6,0.4-1.3,0.4-2.1c0-0.8-0.1-1.5-0.4-2c-0.2-0.6-0.6-1-1-1.3c-0.4-0.3-0.9-0.4-1.5-0.4
			c-0.9,0-1.7,0.3-2.2,1c-0.5,0.7-0.8,1.6-0.8,2.9c0,1.3,0.3,2.2,0.8,2.9S108.2,297.6,109.1,297.6z"/>
		<path class="st10" d="M124.7,287.2c1.3,0,2.4,0.3,3.3,0.8c1,0.5,1.7,1.3,2.2,2.2c0.5,1,0.8,2.1,0.8,3.5c0,1.3-0.3,2.5-0.8,3.5
			c-0.5,1-1.3,1.7-2.2,2.2c-1,0.5-2.1,0.8-3.3,0.8c-1.2,0-2.4-0.3-3.3-0.8c-1-0.5-1.7-1.3-2.3-2.2c-0.5-1-0.8-2.1-0.8-3.5
			c0-1.4,0.3-2.5,0.8-3.5c0.5-1,1.3-1.7,2.3-2.2C122.4,287.4,123.5,287.2,124.7,287.2z M124.7,289.7c-0.6,0-1.2,0.1-1.6,0.4
			c-0.4,0.3-0.8,0.7-1,1.3c-0.2,0.6-0.4,1.3-0.4,2.2s0.1,1.6,0.4,2.2c0.2,0.6,0.6,1,1,1.3c0.4,0.3,1,0.4,1.6,0.4
			c0.6,0,1.1-0.1,1.6-0.4c0.4-0.3,0.8-0.7,1-1.3c0.2-0.6,0.3-1.3,0.3-2.2s-0.1-1.6-0.3-2.2c-0.2-0.6-0.6-1-1-1.3
			C125.9,289.9,125.4,289.7,124.7,289.7z"/>
	</g>
</g>
</svg>
