<?xml version="1.0" encoding="utf-8"?>
<!-- Generator: Adobe Illustrator 24.2.3, SVG Export Plug-In . SVG Version: 6.00 Build 0)  -->
<svg version="1.1" id="Layer_1" xmlns="http://www.w3.org/2000/svg" xmlns:xlink="http://www.w3.org/1999/xlink" x="0px" y="0px"
	 viewBox="0 0 190 315" style="enable-background:new 0 0 190 315;" xml:space="preserve">
<style type="text/css">
	.st0{fill:#FFE0A6;}
	.st1{fill:#F7D594;}
	.st2{fill:#E6BE73;}
	.st3{fill:#E0B769;}
	.st4{fill:#432918;}
	.st5{fill:#F6F6F6;}
	.st6{fill:#FDBF52;}
	.st7{enable-background:new    ;}
	.st8{fill:#FFFFFF;}
</style>
<g>
	<path class="st0" d="M172.3,138.6c-3.9,47.1-23.5,101.2-77.2,101.4s-72.8-54.3-77.2-101.4C14.6,103.3,25.1,77,25.1,77h141.2
		C166.3,77.1,175.3,102.1,172.3,138.6z"/>
	<path class="st1" d="M166.3,77.1H95.1v73.6c0,0,11.3,32.4,10.6,36s-10.6,1.8-10.6,1.8V240c53.7-0.2,73.4-54.3,77.2-101.4
		C175.3,102.1,166.3,77.1,166.3,77.1z"/>
	<g>
		<path class="st0" d="M17.2,114.7c-7-5.2-22.7,12.5-9.6,34s16.1,1.8,16.1,1.8L17.2,114.7z"/>
		<path class="st2" d="M14,122.9C9.9,118-1.2,134.7,17.2,153C7.5,142,6.9,125.1,14,122.9z"/>
	</g>
	<g>
		<path class="st1" d="M172.8,114.7c7-5.2,22.7,12.5,9.6,34s-16.1,1.8-16.1,1.8L172.8,114.7z"/>
		<path class="st3" d="M176.7,122.9c4.1-4.9,15.2,11.8-3.2,30.1C183.2,142,183.8,125.1,176.7,122.9z"/>
	</g>
	<path class="st4" d="M18.9,148.3c4.1-23.9,0.9-56.7,32.7-56.7c14.7,0,28.8,7.2,43.4,7.2c16,0,29-7.6,43.5-7.2
		c25.7,0.7,31.5,27.8,32.8,56.7c6-14.8,10.7-67.6-1.4-87.8c-7.1-11.9-23-23.1-59.7-28.7c-42-6.3-23.3-26.3-23.3-26.3
		s-14.8,4.8-13.6,16.9C64.3,13.3,65.9,7,68.1,0c0,0-10.5,10.5-9.1,21.5C51.8,23,44.6,15.9,45,8c-5,14.6,9,16.6-13.7,36.5
		C0.6,71.4,13.3,120.3,18.9,148.3z"/>
	<path class="st3" d="M95.1,150.7c0,0,13.7,31.9,12.3,36.5s-12.3,1.3-12.3,1.3s6.6,0.1,8.4-2.3C105.3,183.7,95.1,150.7,95.1,150.7z"
		/>
	
		<ellipse transform="matrix(0.1219 -0.9925 0.9925 0.1219 -85.0351 183.2689)" class="st5" cx="61.1" cy="139.7" rx="11.1" ry="16.3"/>
	<path d="M68.4,141.6c1.1-4.2-1.4-8.5-5.6-9.6s-8.5,1.4-9.6,5.6s1.4,8.5,5.5,9.6C62.9,148.2,67.3,145.8,68.4,141.6z"/>
	<path class="st5" d="M57.7,135.5c-0.2-1.6-1.8-2.8-3.4-2.6s-2.8,1.8-2.6,3.4c0.2,1.6,1.8,2.8,3.4,2.6
		C56.8,138.7,57.9,137.2,57.7,135.5z"/>
	<path class="st0" d="M83.8,125.4c0.8-6.6-7.9-13.1-19.5-14.6c-11.6-1.4-21.6,2.8-22.4,9.4c-0.8,6.6,7.9,13.1,19.5,14.6
		C72.9,136.2,82.9,132,83.8,125.4z"/>
	
		<ellipse transform="matrix(0.1219 -0.9925 0.9925 0.1219 -102.7051 202.0148)" class="st0" cx="62.8" cy="159.1" rx="12.1" ry="21.1"/>
	
		<ellipse transform="matrix(0.9925 -0.1219 0.1219 0.9925 -16.0546 16.7783)" class="st5" cx="129.1" cy="139.6" rx="16.3" ry="11.1"/>
	<path d="M137.7,138.6c-0.5-4.3-4.4-7.4-8.7-6.8c-4.3,0.5-7.4,4.4-6.8,8.7s4.4,7.4,8.7,6.8C135.1,146.8,138.2,142.9,137.7,138.6z"/>
	<path class="st5" d="M127.5,135.2c-0.2-1.6-1.7-2.8-3.4-2.6s-2.8,1.7-2.6,3.4c0.2,1.6,1.7,2.8,3.4,2.6
		C126.5,138.3,127.7,136.8,127.5,135.2z"/>
	
		<ellipse transform="matrix(0.9925 -0.1219 0.1219 0.9925 -14.0229 16.3967)" class="st1" cx="127" cy="122.8" rx="21.1" ry="12.1"/>
	<ellipse transform="matrix(0.9925 -0.1219 0.1219 0.9925 -18.4357 16.6665)" class="st1" cx="127" cy="159" rx="21.1" ry="12.1"/>
	<path class="st4" d="M108.4,123c14.7,4.6,34.1-0.3,43.3-1.7C146.5,128.2,109.5,136.2,108.4,123z"/>
	<path class="st4" d="M81.8,123c-14.7,4.6-34.1-0.3-43.3-1.7C43.7,128.2,80.7,136.2,81.8,123z"/>
	<path class="st3" d="M95.1,207.4c16,0,23,5.3,23,5.3s-12.1-1.2-22.9-1.2s-22.9,1.2-22.9,1.2S78.7,207.4,95.1,207.4z"/>
</g>
<g>
	<path class="st6" d="M16,315h158c8.9,0,16-7.2,16-16v-13c0-8.9-7.2-16-16-16H16c-8.9,0-16,7.2-16,16v13C0,307.8,7.2,315,16,315z"/>
	<g class="st7">
		<path class="st8" d="M14.2,299.9l6-16.5h4.1l6,16.5h-3.6L23,288.7l-0.8-2.5h0l-0.7,2.4l-3.8,11.3H14.2z M17.7,295.9v-2.6h9v2.6
			H17.7z"/>
		<path class="st8" d="M39.8,300.2c-0.8,0-1.5-0.2-2.1-0.5c-0.6-0.3-1.1-0.8-1.5-1.3c-0.4-0.6-0.7-1.2-0.8-1.9l0.4-0.4l-0.2,4h-3
			v-18h3.4v9l-0.3-0.5c0.3-0.9,0.8-1.7,1.5-2.3c0.8-0.6,1.7-0.9,2.8-0.9c1,0,1.9,0.3,2.7,0.8c0.8,0.5,1.4,1.3,1.9,2.2
			c0.5,1,0.7,2.1,0.7,3.5c0,1.3-0.2,2.5-0.7,3.5c-0.5,1-1.1,1.7-1.9,2.2C41.7,299.9,40.8,300.2,39.8,300.2z M38.8,297.6
			c0.9,0,1.6-0.3,2.2-1s0.8-1.6,0.8-2.9c0-1.3-0.3-2.2-0.8-2.9c-0.5-0.7-1.2-1-2.1-1c-0.6,0-1.1,0.2-1.5,0.5c-0.4,0.3-0.8,0.8-1,1.3
			c-0.2,0.6-0.4,1.3-0.4,2.1c0,0.8,0.1,1.5,0.4,2.1s0.6,1,1,1.3C37.7,297.4,38.2,297.6,38.8,297.6z"/>
		<path class="st8" d="M52.5,300.2c-0.8,0-1.6-0.2-2.2-0.5c-0.7-0.3-1.2-0.8-1.6-1.4c-0.4-0.7-0.6-1.5-0.6-2.6v-8.3h3.4v7.5
			c0,1,0.2,1.6,0.6,2s1,0.6,1.7,0.6c0.4,0,0.7-0.1,1-0.2c0.3-0.1,0.6-0.3,0.9-0.6c0.3-0.3,0.5-0.6,0.6-1c0.1-0.4,0.2-0.9,0.2-1.5
			v-6.7H60v12.5h-3l-0.1-2.2c-0.4,0.8-1,1.4-1.7,1.8C54.3,300,53.5,300.2,52.5,300.2z"/>
		<path class="st8" d="M63.5,299.9v-12.5h3l0.2,2.4c0.3-0.9,0.8-1.5,1.5-2s1.4-0.7,2.4-0.7c0.3,0,0.5,0,0.8,0.1
			c0.2,0.1,0.4,0.1,0.6,0.2l-0.4,2.9c-0.2-0.1-0.4-0.1-0.6-0.2s-0.6-0.1-0.9-0.1c-0.5,0-1,0.1-1.4,0.4c-0.5,0.2-0.9,0.6-1.2,1.1
			c-0.3,0.5-0.4,1.1-0.4,1.9v6.5H63.5z"/>
		<path class="st8" d="M74.1,299.9v-12.5h3l0.2,2.4c0.3-0.9,0.8-1.5,1.5-2s1.4-0.7,2.4-0.7c0.3,0,0.5,0,0.8,0.1
			c0.2,0.1,0.4,0.1,0.6,0.2l-0.4,2.9c-0.2-0.1-0.4-0.1-0.6-0.2s-0.6-0.1-0.9-0.1c-0.5,0-1,0.1-1.4,0.4c-0.5,0.2-0.9,0.6-1.2,1.1
			c-0.3,0.5-0.4,1.1-0.4,1.9v6.5H74.1z"/>
		<path class="st8" d="M86.4,285.6c-0.7,0-1.2-0.2-1.6-0.5c-0.3-0.3-0.5-0.8-0.5-1.4c0-0.6,0.2-1.1,0.5-1.4c0.4-0.3,0.9-0.5,1.6-0.5
			c0.7,0,1.2,0.2,1.6,0.5c0.4,0.3,0.5,0.8,0.5,1.4c0,0.6-0.2,1.1-0.5,1.4C87.6,285.5,87.1,285.6,86.4,285.6z M88.1,287.4v12.5h-3.4
			v-12.5H88.1z"/>
		<path class="st8" d="M91.7,299.9v-12.5h3.1l0.1,2.2c0.4-0.8,1-1.5,1.7-1.9c0.7-0.4,1.5-0.6,2.4-0.6c0.9,0,1.7,0.2,2.4,0.6
			c0.7,0.4,1.3,1,1.6,1.8c0.3-0.6,0.6-1,1.1-1.4s1-0.6,1.5-0.8s1.1-0.3,1.7-0.3c0.8,0,1.6,0.2,2.2,0.5c0.7,0.3,1.2,0.8,1.6,1.5
			c0.4,0.7,0.6,1.5,0.6,2.5v8.2h-3.4v-7.5c0-0.9-0.2-1.6-0.6-1.9c-0.4-0.4-0.9-0.6-1.6-0.6c-0.5,0-1,0.1-1.4,0.4
			c-0.4,0.2-0.8,0.6-1,1.1c-0.2,0.5-0.4,1.1-0.4,1.8v6.7H100v-7.5c0-0.9-0.2-1.6-0.6-1.9c-0.4-0.4-0.9-0.6-1.6-0.6
			c-0.4,0-0.9,0.1-1.3,0.3c-0.4,0.2-0.8,0.6-1.1,1.1c-0.3,0.5-0.4,1.2-0.4,2v6.6H91.7z"/>
		<path class="st8" d="M117,285.6c-0.7,0-1.2-0.2-1.6-0.5c-0.3-0.3-0.5-0.8-0.5-1.4c0-0.6,0.2-1.1,0.5-1.4c0.4-0.3,0.9-0.5,1.6-0.5
			c0.7,0,1.2,0.2,1.6,0.5c0.3,0.3,0.5,0.8,0.5,1.4c0,0.6-0.2,1.1-0.5,1.4C118.3,285.5,117.8,285.6,117,285.6z M118.8,287.4v12.5
			h-3.4v-12.5H118.8z"/>
		<path class="st8" d="M128.2,300.2c-1.3,0-2.5-0.3-3.4-0.8c-1-0.5-1.7-1.3-2.3-2.2s-0.8-2.1-0.8-3.5s0.3-2.5,0.8-3.5
			s1.3-1.7,2.2-2.2c1-0.5,2.1-0.8,3.3-0.8c1.3,0,2.3,0.3,3.2,0.8c0.9,0.5,1.6,1.2,2,2.1s0.7,1.9,0.7,3c0,0.3,0,0.7,0,1
			c0,0.3,0,0.6-0.1,0.8h-10v-2.4h8.5l-1.7,0.6c0-1-0.2-1.9-0.7-2.4s-1.1-0.8-2-0.8c-0.6,0-1.2,0.1-1.6,0.4c-0.5,0.3-0.8,0.7-1,1.3
			s-0.4,1.3-0.4,2.2c0,0.9,0.1,1.6,0.4,2.2c0.3,0.6,0.6,1,1.1,1.3s1,0.4,1.7,0.4c0.7,0,1.3-0.1,1.8-0.4s0.8-0.7,1-1.2l2.7,1.1
			c-0.3,0.6-0.7,1.2-1.2,1.7s-1.2,0.8-1.9,1.1C129.8,300.1,129,300.2,128.2,300.2z"/>
		<path class="st8" d="M136.8,299.9v-12.5h3.1l0.2,3.8l-0.4-0.4c0.2-0.8,0.5-1.5,1-2c0.4-0.5,1-0.9,1.6-1.2c0.6-0.3,1.3-0.4,2.1-0.4
			c0.9,0,1.6,0.2,2.3,0.5s1.2,0.8,1.6,1.5c0.4,0.7,0.6,1.5,0.6,2.5v8.2h-3.4v-7.2c0-1.1-0.2-1.8-0.6-2.2c-0.4-0.4-1-0.6-1.6-0.6
			c-0.5,0-0.9,0.1-1.4,0.3s-0.8,0.6-1.1,1.1s-0.4,1.2-0.4,2v6.6H136.8z"/>
		<path class="st8" d="M160.6,287.4v2.5h-9.7v-2.5H160.6z M156.6,283.6v12.2c0,0.6,0.2,1,0.5,1.3c0.3,0.3,0.7,0.4,1.3,0.4
			c0.4,0,0.8-0.1,1.1-0.2s0.6-0.3,0.8-0.5l0.6,2.3c-0.4,0.3-0.9,0.6-1.5,0.8c-0.6,0.2-1.2,0.3-1.9,0.3c-0.8,0-1.6-0.1-2.2-0.4
			s-1.1-0.7-1.5-1.2c-0.4-0.5-0.5-1.3-0.5-2.2v-11.8L156.6,283.6z"/>
		<path class="st8" d="M168.7,287.2c1.3,0,2.4,0.3,3.3,0.8c1,0.5,1.7,1.3,2.2,2.2s0.8,2.1,0.8,3.5c0,1.3-0.3,2.5-0.8,3.5
			c-0.5,1-1.3,1.7-2.2,2.2c-1,0.5-2.1,0.8-3.3,0.8c-1.2,0-2.4-0.3-3.3-0.8c-1-0.5-1.7-1.3-2.3-2.2c-0.5-1-0.8-2.1-0.8-3.5
			c0-1.4,0.3-2.5,0.8-3.5s1.3-1.7,2.3-2.2C166.3,287.4,167.4,287.2,168.7,287.2z M168.7,289.7c-0.6,0-1.2,0.1-1.6,0.4
			c-0.4,0.3-0.8,0.7-1,1.3c-0.2,0.6-0.3,1.3-0.3,2.2s0.1,1.6,0.3,2.2c0.2,0.6,0.6,1,1,1.3c0.4,0.3,1,0.4,1.6,0.4
			c0.6,0,1.1-0.1,1.6-0.4c0.4-0.3,0.8-0.7,1-1.3c0.2-0.6,0.4-1.3,0.4-2.2s-0.1-1.6-0.4-2.2c-0.2-0.6-0.6-1-1-1.3
			C169.8,289.9,169.3,289.7,168.7,289.7z"/>
	</g>
</g>
</svg>
