<?xml version="1.0" encoding="utf-8"?>
<!-- Generator: Adobe Illustrator 24.2.3, SVG Export Plug-In . SVG Version: 6.00 Build 0)  -->
<svg version="1.1" id="Layer_1" xmlns="http://www.w3.org/2000/svg" xmlns:xlink="http://www.w3.org/1999/xlink" x="0px" y="0px"
	 viewBox="0 0 190 315" style="enable-background:new 0 0 190 315;" xml:space="preserve">
<style type="text/css">
	.st0{fill:#FFE0A6;}
	.st1{fill:#F7D594;}
	.st2{fill:#E6BE73;}
	.st3{fill:#E0B769;}
	.st4{fill:#432918;}
	.st5{fill:#F6F6F6;}
	.st6{fill:#F2CC85;}
	.st7{fill:#EDC57B;}
	.st8{fill:#4D0005;}
	.st9{fill:#FA6F46;}
	.st10{enable-background:new    ;}
	.st11{fill:#FFFFFF;}
</style>
<g>
	<path class="st0" d="M172.3,138.6C168.4,185.7,148.8,239.8,95,240c-53.7,0.2-72.8-54.3-77.3-101.4C14.5,103.3,25.1,77,25.1,77
		h141.2C166.3,77,175.3,102.1,172.3,138.6z"/>
	<path class="st1" d="M166.3,77H95.1v73.6c0,0,11.3,32.4,10.6,36c-0.7,3.6-10.6,1.8-10.6,1.8V240c53.7-0.2,73.4-54.3,77.3-101.4
		C175.3,102.1,166.3,77,166.3,77z"/>
	<g>
		<path class="st0" d="M17.2,114.7c-7-5.2-22.7,12.5-9.6,34s16.1,1.8,16.1,1.8L17.2,114.7z"/>
		<path class="st2" d="M14,123c-4.1-4.9-15.2,11.8,3.2,30.1C7.5,142,6.9,125.1,14,123z"/>
	</g>
	<g>
		<path class="st1" d="M172.8,114.7c7-5.2,22.7,12.5,9.6,34c-13.1,21.5-16.1,1.8-16.1,1.8L172.8,114.7z"/>
		<path class="st3" d="M176.7,123c4.1-4.9,15.2,11.8-3.2,30.1C183.2,142,183.7,125.1,176.7,123z"/>
	</g>
	<path class="st4" d="M18.9,148.3c4.1-23.9,0.9-56.7,32.7-56.7c14.7,0,28.8,7.2,43.4,7.2c16,0,29-7.6,43.5-7.2
		c25.7,0.7,31.5,27.7,32.8,56.7c6-14.8,10.7-67.6-1.4-87.8c-7.1-11.9-23-23.1-59.7-28.7c-42-6.4-23.3-26.3-23.3-26.3
		s-14.8,4.8-13.6,16.9C64.3,13.3,65.9,7,68.1,0c0,0-10.5,10.5-9.1,21.5C51.8,23,44.6,15.9,45,7.9c-5,14.6,9,16.6-13.7,36.6
		C0.6,71.4,13.3,120.3,18.9,148.3z"/>
	<path class="st3" d="M95.1,150.7c0,0,13.7,31.8,12.3,36.5c-1.4,4.6-12.3,1.3-12.3,1.3s6.6,0.1,8.4-2.3
		C105.3,183.7,95.1,150.7,95.1,150.7z"/>
	
		<ellipse transform="matrix(0.1219 -0.9925 0.9925 0.1219 -85.0281 183.2845)" class="st5" cx="61.1" cy="139.7" rx="11.1" ry="16.3"/>
	<path d="M68.4,142.8c1.1-4.2-1.4-8.5-5.5-9.6c-4.2-1.1-8.5,1.4-9.6,5.5c-1.1,4.2,1.4,8.5,5.5,9.6C62.9,149.5,67.3,147,68.4,142.8z"
		/>
	<path class="st6" d="M79.4,191.4c-6,0-26.3,2.9-22.4,22.9C57.9,199.2,73.6,193.1,79.4,191.4z"/>
	<path class="st7" d="M110.8,191.4c6,0,26.3,2.9,22.4,22.9C132.3,199.2,116.5,193.1,110.8,191.4z"/>
	<path class="st6" d="M83.9,133c2.9,4.5,1.6,8.5-4.2,11.3C83,141.2,85,136.6,83.9,133z"/>
	<path class="st7" d="M106.2,133c-2.9,4.5-1.6,8.5,4.2,11.3C107.1,141.2,105.1,136.6,106.2,133z"/>
	<path class="st5" d="M57.7,136.7c-0.2-1.7-1.8-2.8-3.4-2.6c-1.7,0.2-2.8,1.8-2.6,3.4c0.2,1.7,1.8,2.8,3.4,2.6
		C56.8,139.9,57.9,138.4,57.7,136.7z"/>
	<path class="st0" d="M83.8,125.4c0.8-6.6-7.9-13.1-19.5-14.6c-11.6-1.4-21.6,2.8-22.4,9.4c-0.8,6.6,7.9,13.1,19.5,14.6
		S82.9,132,83.8,125.4z"/>
	<path class="st0" d="M83.8,161.6c0.8-6.6-7.9-13.1-19.5-14.6c-11.6-1.4-21.6,2.8-22.4,9.4c-0.8,6.6,7.9,13.1,19.5,14.6
		C72.9,172.5,82.9,168.2,83.8,161.6z"/>
	
		<ellipse transform="matrix(0.9925 -0.1219 0.1219 0.9925 -16.054 16.7786)" class="st5" cx="129.1" cy="139.6" rx="16.3" ry="11.1"/>
	<path d="M137.7,139.8c-0.5-4.3-4.4-7.4-8.7-6.8c-4.3,0.5-7.4,4.4-6.8,8.7c0.5,4.3,4.4,7.4,8.7,6.8
		C135.1,148,138.2,144.1,137.7,139.8z"/>
	<path class="st5" d="M127.5,136.4c-0.2-1.7-1.7-2.8-3.4-2.6c-1.7,0.2-2.8,1.7-2.6,3.4c0.2,1.7,1.7,2.8,3.4,2.6
		C126.5,139.5,127.7,138,127.5,136.4z"/>
	<ellipse transform="matrix(0.9925 -0.1219 0.1219 0.9925 -14.0223 16.397)" class="st1" cx="127" cy="122.8" rx="21.1" ry="12.1"/>
	<path class="st1" d="M148,156.5c-0.8-6.6-10.9-10.8-22.4-9.4c-11.6,1.4-20.3,7.9-19.5,14.6c0.8,6.6,10.9,10.8,22.4,9.4
		C140.1,169.6,148.8,163.1,148,156.5z"/>
	<path class="st8" d="M95,196.6c11.8,0,19.2,9.8,23.1,17.3c1.9,3.7-1,8.1-5.2,7.8c-5.7-0.4-8.4-0.5-17.9-0.5c-9.6,0-12.2,0.1-18,0.6
		c-4.2,0.3-7.1-4-5.2-7.8C75.7,206.5,82.9,196.6,95,196.6z"/>
	<path class="st4" d="M81.8,124.1c-15.4,5.9-33-2.4-40.3-12.6c2.4,7.2,10.1,14.3,18.4,17.3C70,132.5,82.5,131.6,81.8,124.1z"/>
	<path class="st4" d="M108.4,124.1c15.4,5.9,33-2.4,40.3-12.6c-2.4,7.2-10.1,14.3-18.4,17.3C120.2,132.5,107.6,131.6,108.4,124.1z"
		/>
	<path class="st5" d="M80.5,202.3c0.1,0,6.4,2.4,14.5,2.5c8.2,0.2,14.3-2.5,14.3-2.5c-3.8-3.3-8.5-5.7-14.4-5.7
		C89.1,196.6,84.3,199,80.5,202.3z"/>
	<path class="st5" d="M72.7,220.1c1,1.1,2.6,1.8,4.3,1.7c5.8-0.4,8.4-0.5,18-0.6c9.5,0,12.2,0.1,17.9,0.5c1.7,0.1,3.3-0.6,4.3-1.7
		c0,0-8.2-3.8-22.3-3.9C80.9,216.2,72.7,220.1,72.7,220.1z"/>
</g>
<g>
	<path class="st9" d="M16,315h158c8.9,0,16-7.2,16-16v-13c0-8.9-7.2-16-16-16H16c-8.9,0-16,7.2-16,16v13C0,307.8,7.2,315,16,315z"/>
	<g class="st10">
		<path class="st11" d="M39,286.2h-8.9v4.2h7v2.8h-7v6.8h-3.5v-16.5H39V286.2z"/>
		<path class="st11" d="M41,299.9v-12.5h3l0.2,2.4c0.3-0.9,0.8-1.5,1.5-2s1.4-0.7,2.4-0.7c0.3,0,0.5,0,0.8,0.1
			c0.2,0.1,0.4,0.1,0.6,0.2l-0.4,2.9c-0.2-0.1-0.4-0.1-0.6-0.2s-0.6-0.1-0.9-0.1c-0.5,0-1,0.1-1.4,0.4c-0.5,0.2-0.9,0.6-1.2,1.1
			c-0.3,0.5-0.4,1.1-0.4,1.9v6.5H41z"/>
		<path class="st11" d="M55.9,300.2c-0.8,0-1.6-0.2-2.2-0.5c-0.7-0.3-1.2-0.8-1.6-1.4c-0.4-0.7-0.6-1.5-0.6-2.6v-8.3h3.4v7.5
			c0,1,0.2,1.6,0.6,2s1,0.6,1.7,0.6c0.4,0,0.7-0.1,1-0.2c0.3-0.1,0.6-0.3,0.9-0.6c0.3-0.3,0.5-0.6,0.6-1c0.1-0.4,0.2-0.9,0.2-1.5
			v-6.7h3.4v12.5h-3l-0.1-2.2c-0.4,0.8-1,1.4-1.7,1.8C57.8,300,56.9,300.2,55.9,300.2z"/>
		<path class="st11" d="M72,300.2c-1.3,0-2.4-0.2-3.5-0.7c-1-0.4-1.9-1.1-2.5-1.9l2-2c0.4,0.6,0.9,1.1,1.6,1.5
			c0.7,0.4,1.5,0.6,2.4,0.6c0.6,0,1.2-0.1,1.6-0.3s0.6-0.5,0.6-0.9c0-0.3-0.1-0.5-0.3-0.7c-0.2-0.2-0.5-0.3-1.1-0.5l-2.2-0.5
			c-1.5-0.3-2.5-0.8-3.1-1.4c-0.6-0.6-0.9-1.4-0.9-2.4c0-0.7,0.2-1.3,0.6-1.9c0.4-0.6,1-1.1,1.8-1.5c0.8-0.4,1.8-0.6,3.1-0.6
			c1.2,0,2.3,0.2,3.3,0.6c0.9,0.4,1.7,1,2.2,1.7l-2,2c-0.4-0.6-0.8-1-1.4-1.3c-0.6-0.3-1.2-0.5-1.9-0.5c-0.5,0-0.9,0-1.2,0.1
			c-0.3,0.1-0.6,0.2-0.8,0.4c-0.2,0.2-0.2,0.4-0.2,0.7c0,0.3,0.1,0.5,0.4,0.7c0.2,0.2,0.7,0.4,1.3,0.5l2.5,0.5
			c1.2,0.2,2.1,0.7,2.6,1.3s0.8,1.3,0.8,2.1c0,0.8-0.2,1.5-0.6,2.1c-0.4,0.6-1,1.1-1.9,1.5C74.2,300,73.2,300.2,72,300.2z"/>
		<path class="st11" d="M88.7,287.4v2.5H79v-2.5H88.7z M84.7,283.6v12.2c0,0.6,0.2,1,0.5,1.3c0.3,0.3,0.7,0.4,1.3,0.4
			c0.4,0,0.8-0.1,1.1-0.2c0.3-0.1,0.6-0.3,0.8-0.5l0.6,2.3c-0.4,0.3-0.9,0.6-1.5,0.8c-0.6,0.2-1.2,0.3-1.9,0.3
			c-0.8,0-1.6-0.1-2.2-0.4s-1.1-0.7-1.5-1.2c-0.4-0.5-0.5-1.3-0.5-2.2v-11.8L84.7,283.6z"/>
		<path class="st11" d="M91,299.9v-12.5h3l0.2,2.4c0.3-0.9,0.8-1.5,1.5-2s1.4-0.7,2.4-0.7c0.3,0,0.5,0,0.8,0.1
			c0.2,0.1,0.4,0.1,0.6,0.2l-0.4,2.9c-0.2-0.1-0.4-0.1-0.6-0.2s-0.6-0.1-0.9-0.1c-0.5,0-1,0.1-1.5,0.4c-0.5,0.2-0.8,0.6-1.1,1.1
			c-0.3,0.5-0.4,1.1-0.4,1.9v6.5H91z"/>
		<path class="st11" d="M108.5,292c0-0.7-0.2-1.3-0.6-1.7s-0.9-0.6-1.6-0.6c-0.6,0-1.2,0.2-1.6,0.5c-0.5,0.3-0.8,0.8-1,1.6l-2.9-0.9
			c0.3-1.1,0.9-2,1.9-2.7c1-0.7,2.2-1,3.9-1c1.1,0,2.1,0.2,2.9,0.5c0.8,0.3,1.5,0.9,1.9,1.5c0.5,0.7,0.7,1.5,0.7,2.6v5.1
			c0,0.6,0.3,1,0.9,1c0.3,0,0.5,0,0.8-0.1l-0.2,2.1c-0.4,0.2-1,0.3-1.6,0.3c-0.6,0-1.1-0.1-1.6-0.3c-0.5-0.2-0.8-0.5-1.1-0.9
			s-0.4-0.9-0.4-1.5v-0.1l0.6-0.1c-0.1,0.6-0.4,1.2-0.8,1.6c-0.4,0.4-1,0.8-1.6,1c-0.6,0.2-1.3,0.3-2,0.3c-0.8,0-1.6-0.1-2.2-0.4
			c-0.6-0.3-1.1-0.6-1.4-1.1s-0.5-1.1-0.5-1.8c0-0.9,0.3-1.7,0.9-2.3s1.5-1,2.6-1.2l4.7-1l0,2.1l-3,0.6c-0.6,0.1-1,0.3-1.3,0.5
			c-0.3,0.2-0.4,0.5-0.4,0.9c0,0.4,0.2,0.7,0.5,1c0.3,0.2,0.7,0.3,1.1,0.3c0.3,0,0.7,0,1-0.1c0.3-0.1,0.6-0.2,0.9-0.4
			c0.3-0.2,0.5-0.4,0.6-0.8c0.1-0.3,0.2-0.7,0.2-1.1V292z"/>
		<path class="st11" d="M121.3,287.2c1.1,0,2.1,0.2,2.8,0.5c0.8,0.3,1.4,0.8,1.9,1.3c0.5,0.6,0.8,1.2,1,1.9l-3.2,1.2
			c-0.2-0.8-0.5-1.3-0.9-1.7s-0.9-0.6-1.6-0.6c-0.6,0-1.2,0.1-1.6,0.4c-0.5,0.3-0.8,0.7-1,1.3c-0.2,0.6-0.4,1.3-0.4,2.2
			c0,0.9,0.1,1.6,0.4,2.2s0.6,1,1.1,1.3c0.5,0.3,1,0.4,1.6,0.4c0.5,0,0.9-0.1,1.3-0.3c0.3-0.2,0.6-0.4,0.9-0.8
			c0.2-0.3,0.4-0.7,0.5-1.2l3.1,1c-0.2,0.8-0.5,1.4-1,2s-1.1,1-1.9,1.3s-1.7,0.5-2.7,0.5c-1.3,0-2.4-0.3-3.4-0.8
			c-1-0.5-1.7-1.3-2.3-2.2c-0.5-1-0.8-2.1-0.8-3.5s0.3-2.5,0.8-3.5c0.5-1,1.3-1.7,2.2-2.2C119,287.4,120.1,287.2,121.3,287.2z"/>
		<path class="st11" d="M131.5,285.6c-0.7,0-1.2-0.2-1.6-0.5c-0.3-0.3-0.5-0.8-0.5-1.4c0-0.6,0.2-1.1,0.5-1.4
			c0.4-0.3,0.9-0.5,1.6-0.5c0.7,0,1.2,0.2,1.6,0.5c0.3,0.3,0.5,0.8,0.5,1.4c0,0.6-0.2,1.1-0.5,1.4
			C132.7,285.5,132.2,285.6,131.5,285.6z M133.2,287.4v12.5h-3.4v-12.5H133.2z"/>
		<path class="st11" d="M142.5,287.2c1.3,0,2.4,0.3,3.3,0.8c1,0.5,1.7,1.3,2.2,2.2c0.5,1,0.8,2.1,0.8,3.5c0,1.3-0.3,2.5-0.8,3.5
			c-0.5,1-1.3,1.7-2.2,2.2c-1,0.5-2.1,0.8-3.3,0.8c-1.2,0-2.4-0.3-3.3-0.8c-1-0.5-1.7-1.3-2.3-2.2c-0.5-1-0.8-2.1-0.8-3.5
			c0-1.4,0.3-2.5,0.8-3.5c0.5-1,1.3-1.7,2.3-2.2C140.2,287.4,141.3,287.2,142.5,287.2z M142.5,289.7c-0.6,0-1.2,0.1-1.6,0.4
			c-0.4,0.3-0.8,0.7-1,1.3c-0.2,0.6-0.4,1.3-0.4,2.2s0.1,1.6,0.4,2.2c0.2,0.6,0.6,1,1,1.3c0.4,0.3,1,0.4,1.6,0.4
			c0.6,0,1.1-0.1,1.6-0.4c0.4-0.3,0.8-0.7,1-1.3c0.2-0.6,0.3-1.3,0.3-2.2s-0.1-1.6-0.3-2.2c-0.2-0.6-0.6-1-1-1.3
			C143.7,289.9,143.1,289.7,142.5,289.7z M142.6,281.4h3.3l-2.5,4.2h-2.5L142.6,281.4z"/>
		<path class="st11" d="M151.8,299.9v-12.5h3.1l0.2,3.8l-0.4-0.4c0.2-0.8,0.5-1.5,1-2c0.4-0.5,1-0.9,1.6-1.2
			c0.6-0.3,1.3-0.4,2.1-0.4c0.9,0,1.6,0.2,2.3,0.5s1.2,0.8,1.6,1.5c0.4,0.7,0.6,1.5,0.6,2.5v8.2h-3.4v-7.2c0-1.1-0.2-1.8-0.6-2.2
			c-0.4-0.4-1-0.6-1.6-0.6c-0.5,0-0.9,0.1-1.4,0.3s-0.8,0.6-1.1,1.1s-0.4,1.2-0.4,2v6.6H151.8z"/>
	</g>
</g>
</svg>
