<?xml version="1.0" encoding="utf-8"?>
<!-- Generator: Adobe Illustrator 24.2.3, SVG Export Plug-In . SVG Version: 6.00 Build 0)  -->
<svg version="1.1" id="Layer_1" xmlns="http://www.w3.org/2000/svg" xmlns:xlink="http://www.w3.org/1999/xlink" x="0px" y="0px"
	 viewBox="0 0 190 315" style="enable-background:new 0 0 190 315;" xml:space="preserve">
<style type="text/css">
	.st0{fill:#FFE0A6;}
	.st1{fill:#F7D594;}
	.st2{fill:#E6BE73;}
	.st3{fill:#E0B769;}
	.st4{fill:#432918;}
	.st5{fill:#F6F6F6;}
	.st6{fill:#FCA44E;}
	.st7{enable-background:new    ;}
	.st8{fill:#FFFFFF;}
</style>
<g>
	<path class="st0" d="M172.3,138.6C168.4,185.7,148.8,239.8,95,240c-53.7,0.2-72.8-54.3-77.3-101.4C14.5,103.3,25.1,77,25.1,77
		h141.2C166.3,77,175.3,102.1,172.3,138.6z"/>
	<path class="st1" d="M166.3,77H95.1v73.6c0,0,11.3,32.4,10.6,36c-0.7,3.6-10.6,1.8-10.6,1.8V240c53.7-0.2,73.4-54.3,77.3-101.4
		C175.3,102.1,166.3,77,166.3,77z"/>
	<g>
		<path class="st0" d="M17.2,114.7c-7-5.2-22.7,12.5-9.6,34s16.1,1.8,16.1,1.8L17.2,114.7z"/>
		<path class="st2" d="M14,123c-4.1-4.9-15.2,11.8,3.2,30.1C7.5,142,6.9,125.1,14,123z"/>
	</g>
	<g>
		<path class="st1" d="M172.8,114.7c7-5.2,22.7,12.5,9.6,34c-13.1,21.5-16.1,1.8-16.1,1.8L172.8,114.7z"/>
		<path class="st3" d="M176.7,123c4.1-4.9,15.2,11.8-3.2,30.1C183.2,142,183.7,125.1,176.7,123z"/>
	</g>
	<path class="st4" d="M18.9,148.3c4.1-23.9,0.9-56.7,32.7-56.7c14.7,0,28.8,7.2,43.4,7.2c16,0,29-7.6,43.5-7.2
		c25.7,0.7,31.5,27.7,32.8,56.7c6-14.8,10.7-67.6-1.4-87.8c-7.1-11.9-23-23.1-59.7-28.7c-42-6.4-23.3-26.3-23.3-26.3
		s-14.8,4.8-13.6,16.9C64.3,13.3,65.9,7,68.1,0c0,0-10.5,10.5-9.1,21.5C51.8,23,44.6,15.9,45,7.9c-5,14.6,9,16.6-13.7,36.6
		C0.6,71.4,13.3,120.3,18.9,148.3z"/>
	<path class="st3" d="M95.1,150.7c0,0,13.7,31.8,12.3,36.5c-1.4,4.6-12.3,1.3-12.3,1.3s6.6,0.1,8.4-2.3
		C105.3,183.7,95.1,150.7,95.1,150.7z"/>
	<ellipse transform="matrix(0.9903 -0.1392 0.1392 0.9903 -18.8838 9.9941)" class="st5" cx="62" cy="140" rx="16.3" ry="11.1"/>
	<path d="M70.2,140.3c-0.6-4.3-4.6-7.3-8.9-6.7s-7.3,4.6-6.7,8.9c0.6,4.3,4.6,7.3,8.9,6.7C67.8,148.5,70.8,144.5,70.2,140.3z"/>
	<path class="st5" d="M60.4,134.9c-0.7-1.5-2.4-2.2-4-1.6c-1.5,0.7-2.2,2.4-1.6,4c0.7,1.5,2.4,2.2,4,1.6
		C60.3,138.2,61,136.4,60.4,134.9z"/>
	<path class="st0" d="M85.3,156.2c-0.9-6.6-11-10.6-22.6-9s-20.2,8.3-19.2,14.9c0.9,6.6,11,10.6,22.6,9
		C77.6,169.5,86.2,162.8,85.3,156.2z"/>
	<path class="st5" d="M144.3,142.3c0.9-6.1-5.7-12-14.6-13.2c-8.9-1.3-16.8,2.6-17.7,8.7c-0.9,6.1,5.7,12,14.6,13.2
		S143.4,148.3,144.3,142.3z"/>
	<path d="M136.3,142.6c0.6-4.3-2.4-8.3-6.7-8.9c-4.3-0.6-8.3,2.4-8.9,6.7s2.4,8.3,6.7,8.9S135.7,146.9,136.3,142.6z"/>
	<path class="st5" d="M127.4,136.5c0.2-1.7-0.9-3.2-2.6-3.4s-3.2,0.9-3.4,2.6c-0.2,1.7,0.9,3.2,2.6,3.4S127.2,138.1,127.4,136.5z"/>
	
		<ellipse transform="matrix(0.1392 -0.9903 0.9903 0.1392 -49.5824 261.1635)" class="st1" cx="125.4" cy="159.1" rx="12.1" ry="21.1"/>
	<path class="st4" d="M108.3,113.7c12.4,10.9,28.6-0.5,45.5,18.2c-10.4-7.5-20.1-7.3-28.8-7.3C114.5,124.6,103.5,121.1,108.3,113.7z
		"/>
	<path class="st4" d="M81.9,113.7c-12.4,10.9-28.6-0.5-45.5,18.2c10.4-7.5,20.1-7.3,28.8-7.3C75.6,124.6,86.6,121.1,81.9,113.7z"/>
	<path class="st3" d="M95.1,205c12.8,0,19.3,7.7,19.3,7.7s-8.8-2.4-19.3-2.4c-10.6,0-19.3,2.4-19.3,2.4S81.9,205,95.1,205z"/>
</g>
<g>
	<path class="st6" d="M16,315h158c8.9,0,16-7.2,16-16v-13c0-8.9-7.2-16-16-16H16c-8.9,0-16,7.2-16,16v13C0,307.8,7.2,315,16,315z"/>
	<g class="st7">
		<path class="st8" d="M61.5,283.4v2.8H56v13.7h-3.4v-13.7H47v-2.8H61.5z"/>
		<path class="st8" d="M62.3,299.9v-12.5h3l0.2,2.4c0.3-0.9,0.8-1.5,1.5-2s1.4-0.7,2.4-0.7c0.3,0,0.5,0,0.8,0.1
			c0.2,0.1,0.4,0.1,0.6,0.2l-0.4,2.9c-0.2-0.1-0.4-0.1-0.6-0.2s-0.6-0.1-0.9-0.1c-0.5,0-1,0.1-1.4,0.4c-0.5,0.2-0.9,0.6-1.2,1.1
			c-0.3,0.5-0.4,1.1-0.4,1.9v6.5H62.3z"/>
		<path class="st8" d="M74.6,285.6c-0.7,0-1.2-0.2-1.6-0.5c-0.3-0.3-0.5-0.8-0.5-1.4c0-0.6,0.2-1.1,0.5-1.4c0.4-0.3,0.9-0.5,1.6-0.5
			c0.7,0,1.2,0.2,1.6,0.5c0.4,0.3,0.5,0.8,0.5,1.4c0,0.6-0.2,1.1-0.5,1.4C75.8,285.5,75.3,285.6,74.6,285.6z M76.3,287.4v12.5h-3.4
			v-12.5H76.3z"/>
		<path class="st8" d="M84.9,300.2c-1.3,0-2.4-0.2-3.5-0.7c-1-0.4-1.9-1.1-2.5-1.9l2-2c0.4,0.6,0.9,1.1,1.6,1.5
			c0.7,0.4,1.5,0.6,2.4,0.6c0.6,0,1.2-0.1,1.6-0.3s0.6-0.5,0.6-0.9c0-0.3-0.1-0.5-0.3-0.7c-0.2-0.2-0.5-0.3-1.1-0.5l-2.2-0.5
			c-1.5-0.3-2.5-0.8-3.1-1.4c-0.6-0.6-0.9-1.4-0.9-2.4c0-0.7,0.2-1.3,0.6-1.9c0.4-0.6,1-1.1,1.8-1.5c0.8-0.4,1.8-0.6,3.1-0.6
			c1.2,0,2.3,0.2,3.3,0.6c0.9,0.4,1.7,1,2.2,1.7l-2,2c-0.4-0.6-0.8-1-1.4-1.3c-0.6-0.3-1.2-0.5-1.9-0.5c-0.5,0-0.9,0-1.2,0.1
			c-0.3,0.1-0.6,0.2-0.8,0.4c-0.2,0.2-0.2,0.4-0.2,0.7c0,0.3,0.1,0.5,0.4,0.7c0.2,0.2,0.7,0.4,1.3,0.5l2.5,0.5
			c1.2,0.2,2.1,0.7,2.6,1.3s0.8,1.3,0.8,2.1c0,0.8-0.2,1.5-0.6,2.1c-0.4,0.6-1,1.1-1.9,1.5C87.1,300,86.1,300.2,84.9,300.2z"/>
		<path class="st8" d="M101.6,287.4v2.5h-9.7v-2.5H101.6z M97.6,283.6v12.2c0,0.6,0.2,1,0.5,1.3c0.3,0.3,0.7,0.4,1.3,0.4
			c0.4,0,0.8-0.1,1.1-0.2c0.3-0.1,0.6-0.3,0.8-0.5l0.6,2.3c-0.4,0.3-0.9,0.6-1.5,0.8s-1.2,0.3-1.9,0.3c-0.8,0-1.6-0.1-2.2-0.4
			c-0.6-0.2-1.1-0.7-1.5-1.2c-0.4-0.5-0.5-1.3-0.5-2.2v-11.8L97.6,283.6z"/>
		<path class="st8" d="M109.7,300.2c-1.3,0-2.5-0.3-3.4-0.8c-1-0.5-1.7-1.3-2.3-2.2s-0.8-2.1-0.8-3.5s0.3-2.5,0.8-3.5
			s1.3-1.7,2.2-2.2c1-0.5,2.1-0.8,3.3-0.8c1.3,0,2.3,0.3,3.2,0.8c0.9,0.5,1.6,1.2,2,2.1s0.7,1.9,0.7,3c0,0.3,0,0.7,0,1
			c0,0.3,0,0.6-0.1,0.8h-10v-2.4h8.5l-1.6,0.6c0-1-0.2-1.9-0.7-2.4c-0.5-0.6-1.1-0.8-2-0.8c-0.6,0-1.2,0.1-1.6,0.4
			c-0.5,0.3-0.8,0.7-1,1.3c-0.2,0.6-0.4,1.3-0.4,2.2c0,0.9,0.1,1.6,0.4,2.2c0.3,0.6,0.6,1,1.1,1.3s1,0.4,1.7,0.4
			c0.7,0,1.3-0.1,1.8-0.4c0.4-0.3,0.8-0.7,1-1.2l2.7,1.1c-0.3,0.6-0.7,1.2-1.2,1.7c-0.5,0.5-1.2,0.8-1.9,1.1
			C111.4,300.1,110.6,300.2,109.7,300.2z"/>
		<path class="st8" d="M117.7,299.9v-2.2l5.5-6.4l1.4-1.4l-2.1,0.1h-4.9v-2.5h10.7v2.2l-5.5,6.4l-1.4,1.5l2.3-0.1h4.9v2.5H117.7z"/>
		<path class="st8" d="M138.6,292c0-0.7-0.2-1.3-0.6-1.7s-0.9-0.6-1.6-0.6c-0.6,0-1.2,0.2-1.6,0.5c-0.5,0.3-0.8,0.8-1,1.6l-2.9-0.9
			c0.3-1.1,0.9-2,1.9-2.7s2.2-1,3.9-1c1.1,0,2.1,0.2,2.9,0.5s1.5,0.9,1.9,1.5c0.5,0.7,0.7,1.5,0.7,2.6v5.1c0,0.6,0.3,1,0.9,1
			c0.3,0,0.6,0,0.8-0.1l-0.2,2.1c-0.4,0.2-1,0.3-1.6,0.3c-0.6,0-1.1-0.1-1.6-0.3c-0.5-0.2-0.8-0.5-1.1-0.9c-0.3-0.4-0.4-0.9-0.4-1.5
			v-0.1l0.6-0.1c-0.1,0.6-0.4,1.2-0.8,1.6c-0.5,0.4-1,0.8-1.6,1c-0.6,0.2-1.3,0.3-2,0.3c-0.9,0-1.6-0.1-2.2-0.4
			c-0.6-0.3-1.1-0.6-1.4-1.1c-0.3-0.5-0.5-1.1-0.5-1.8c0-0.9,0.3-1.7,0.9-2.3c0.6-0.6,1.5-1,2.6-1.2l4.7-1l0,2.1l-3,0.6
			c-0.6,0.1-1,0.3-1.3,0.5c-0.3,0.2-0.4,0.5-0.4,0.9c0,0.4,0.2,0.7,0.5,1s0.7,0.3,1.1,0.3c0.3,0,0.7,0,1-0.1
			c0.3-0.1,0.6-0.2,0.9-0.4c0.3-0.2,0.5-0.4,0.6-0.8c0.1-0.3,0.2-0.7,0.2-1.1V292z"/>
	</g>
</g>
</svg>
