<?xml version="1.0" encoding="utf-8"?>
<!-- Generator: Adobe Illustrator 24.0.1, SVG Export Plug-In . SVG Version: 6.00 Build 0)  -->
<svg version="1.1" id="Layer_1" xmlns="http://www.w3.org/2000/svg" xmlns:xlink="http://www.w3.org/1999/xlink" x="0px" y="0px"
	 viewBox="0 0 52 52" style="enable-background:new 0 0 52 52;" xml:space="preserve">
<style type="text/css">
	.st0{fill:#FFFFFF;}
	.st1{fill:#FF7466;}
	.st2{fill:#FEDA56;}
</style>
<path class="st0" d="M26,52L26,52C11.64,52,0,40.36,0,26v0C0,11.64,11.64,0,26,0h0c14.36,0,26,11.64,26,26v0
	C52,40.36,40.36,52,26,52z"/>
<g>
	<path class="st1" d="M45.5,17.34c-1.03-2.74-3.2-4.91-5.94-5.94c-1.11-0.42-2.31-0.65-3.57-0.65c-5.61,0-10.16,4.55-10.16,10.16
		c0-5.61-4.55-10.16-10.15-10.16c-1.26,0-2.46,0.23-3.57,0.65c-2.74,1.03-4.91,3.2-5.94,5.94c-0.42,1.11-0.65,2.31-0.65,3.57
		c0,2.69,1.04,5.13,2.75,6.95l0.01,0.01l0.45,0.44l0.03,0.03l17.07,17.07l17.1-17.1l0.46-0.45c1.71-1.82,2.75-4.26,2.75-6.95
		C46.14,19.65,45.91,18.45,45.5,17.34z"/>
	<path class="st1" d="M45.5,17.34c-1.03-2.74-3.2-4.91-5.94-5.94c-1.11-0.42-2.31-0.65-3.57-0.65c-5.61,0-10.16,4.55-10.16,10.16
		c0-0.43-0.03-0.84-0.08-1.26v25.68l0.08,0.08l17.1-17.1l0.46-0.45c1.71-1.82,2.75-4.26,2.75-6.95
		C46.14,19.65,45.91,18.45,45.5,17.34z"/>
	<path class="st2" d="M27.05,34.24c-0.02,0-0.05,0-0.07,0c-0.22-0.03-0.42-0.17-0.5-0.38L22.26,23.6l-4,7.25
		c-0.11,0.2-0.32,0.32-0.54,0.32H6.2c-0.34,0-0.62-0.28-0.62-0.62c0-0.34,0.28-0.62,0.62-0.62h11.15l4.45-8.06
		c0.12-0.21,0.34-0.33,0.58-0.32c0.24,0.01,0.45,0.16,0.54,0.38l4.28,10.42l4.04-5.56c0.13-0.18,0.35-0.28,0.58-0.25
		c0.23,0.03,0.42,0.18,0.5,0.39l1.63,4.18l1.28-1.89c0.12-0.17,0.31-0.27,0.51-0.27h10.11c0.34,0,0.62,0.28,0.62,0.62
		c0,0.34-0.28,0.62-0.62,0.62h-9.78l-1.76,2.59c-0.13,0.19-0.35,0.29-0.58,0.27c-0.23-0.03-0.43-0.18-0.51-0.39l-1.65-4.22
		l-4.03,5.54C27.43,34.15,27.24,34.24,27.05,34.24z"/>
</g>
</svg>
