<?xml version="1.0" encoding="utf-8"?>
<!-- Generator: Adobe Illustrator 24.0.1, SVG Export Plug-In . SVG Version: 6.00 Build 0)  -->
<svg version="1.1" id="Layer_1" xmlns="http://www.w3.org/2000/svg" xmlns:xlink="http://www.w3.org/1999/xlink" x="0px" y="0px"
	 viewBox="0 0 86.47 90.76" style="enable-background:new 0 0 86.47 90.76;" xml:space="preserve">
<style type="text/css">
	.st0{fill:#D5804B;}
	.st1{fill-rule:evenodd;clip-rule:evenodd;fill:#65C4B1;}
	.st2{fill-rule:evenodd;clip-rule:evenodd;fill:#4AAF9D;}
	.st3{fill-rule:evenodd;clip-rule:evenodd;fill:#2B917D;}
	.st4{fill-rule:evenodd;clip-rule:evenodd;fill:#48AC99;}
	.st5{fill-rule:evenodd;clip-rule:evenodd;fill:#1B7664;}
	.st6{fill:#FFFFFF;}
	.st7{fill-rule:evenodd;clip-rule:evenodd;fill:#EFF3F5;}
	.st8{fill-rule:evenodd;clip-rule:evenodd;fill:#D5DADC;}
	.st9{fill-rule:evenodd;clip-rule:evenodd;fill:#D8E6E6;}
	.st10{fill-rule:evenodd;clip-rule:evenodd;fill:#FEDA56;}
	.st11{fill-rule:evenodd;clip-rule:evenodd;fill:#E2D2A4;}
</style>
<g>
	<path class="st0" d="M1.6,12.39c-0.86,0-1.6-0.61-1.6-1.47c0-0.86,0.74-1.6,1.6-1.6h9.32c0.98,0,1.59,0.74,1.59,1.6
		c0,0.86-0.61,1.47-1.59,1.47H1.6z"/>
	<path class="st0" d="M75.43,12.39c-0.86,0-1.47-0.61-1.47-1.47c0-0.86,0.61-1.6,1.47-1.6h9.44c0.86,0,1.59,0.74,1.59,1.6
		c0,0.86-0.74,1.47-1.59,1.47H75.43z"/>
	<path class="st1" d="M8.46,4.66H78v81.32c0,2.58-15.57,4.78-34.83,4.78c-19.13,0-34.71-2.21-34.71-4.78V4.66z"/>
	<path class="st2" d="M75.67,4.66H78v81.32c0,2.58-15.57,4.78-34.83,4.78c-19.13,0-34.71-2.21-34.71-4.78
		c84.5,12.14,60.46-22.57,66.96-79.6L75.67,4.66z"/>
	<path class="st3" d="M43.17,9.44C62.31,9.44,78,7.24,78,4.66C78,2.09,62.31,0,43.17,0C24.04,0,8.46,2.09,8.46,4.66
		C8.46,7.24,24.04,9.44,43.17,9.44L43.17,9.44z"/>
	<path class="st4" d="M64.88,35.45c0,0.98-0.86,1.84-1.84,1.84l0,0c-1.1,0-1.96-0.86-1.96-1.84v-7.36c0-1.1-0.86-1.96-1.84-1.96l0,0
		c-1.1,0-1.96,0.86-1.96,1.96v9.08c0,1.1-0.74,1.96-1.84,1.96l0,0c-0.98,0-1.84-0.86-1.84-1.96v-6.62c0-1.11-0.86-1.96-1.96-1.96
		l0,0c-0.98,0-1.84,0.86-1.84,1.96v6.62c0,1.1-0.86,1.96-1.84,1.96l0,0c-1.1,0-1.96-0.86-1.96-1.96v-3.92
		c0-1.11-0.86-1.96-1.84-1.96l0,0c-1.11,0-1.84,0.86-1.84,1.96v7.85c0,0.98-0.86,1.84-1.96,1.84l0,0c-0.98,0-1.84-0.86-1.84-1.84
		V29.44c0-0.98-0.86-1.84-1.96-1.84l0,0c-0.98,0-1.84,0.86-1.84,1.84v4.29c0,1.1-0.86,1.96-1.84,1.96l0,0
		c-1.1,0-1.96-0.86-1.96-1.96v-1.96c0-0.98-0.86-1.84-1.84-1.84l0,0c-0.98,0-1.84,0.86-1.84,1.84v4.78c0,1.1-0.86,1.96-1.96,1.96
		l0,0c-0.98,0-1.84-0.86-1.84-1.96c0-8.46,0-16.92,0-25.27c0-1.96,1.59-3.56,3.43-3.56h34.59c1.84,0,3.43,1.59,3.43,3.56
		C64.88,19.25,64.88,27.35,64.88,35.45L64.88,35.45z"/>
	<path class="st5" d="M75.43,6.38c-5.15,1.84-17.66,3.07-32.26,3.07c-14.59,0-27.11-1.23-32.13-3.07
		c5.03-1.72,17.54-2.94,32.13-2.94C57.77,3.44,70.28,4.66,75.43,6.38L75.43,6.38z"/>
	<path class="st6" d="M80.58,6.99c0-0.86,0.61-1.6,1.59-1.6c0.86,0,1.47,0.74,1.47,1.6v16.92c0,11.16-4.54,21.22-11.9,28.58
		c-7.24,7.36-17.42,11.9-28.58,11.9c-11.04,0-21.22-4.54-28.58-11.9C7.36,45.13,2.7,35.08,2.7,23.92V6.99c0-0.86,0.73-1.6,1.59-1.6
		c0.86,0,1.6,0.74,1.6,1.6v16.92c0,10.3,4.17,19.62,11.04,26.37c6.74,6.75,16.07,10.92,26.25,10.92c10.3,0,19.62-4.17,26.37-10.92
		c6.75-6.75,11.04-16.07,11.04-26.37V6.99z"/>
	<path class="st7" d="M43.17,13.98c-14.1,0-26.37-1.1-31.77-2.82c-1.84-0.49-2.94-1.23-2.94-1.84v3.8c0,0.25,0.25,0.49,0.61,0.86
		c0.61,0.49,1.84,0.86,3.44,1.35c5.89,1.47,17.41,2.45,30.66,2.45c13.37,0,24.9-0.98,30.78-2.45c1.59-0.49,2.82-0.86,3.44-1.35
		c0.37-0.37,0.61-0.61,0.61-0.86v-3.8c0,0.61-1.1,1.35-2.94,1.84C69.66,12.88,57.4,13.98,43.17,13.98L43.17,13.98z"/>
	<path class="st7" d="M43.17,21.59c-14.1,0-26.37-1.1-31.77-2.82c-1.84-0.61-2.94-1.23-2.94-1.84v3.8c0,0.25,0.25,0.49,0.61,0.74
		c0.61,0.49,1.84,0.98,3.44,1.47c5.89,1.47,17.41,2.45,30.66,2.45c13.37,0,24.9-0.98,30.78-2.45c1.59-0.49,2.82-0.98,3.44-1.47
		c0.37-0.24,0.61-0.49,0.61-0.74v-3.8c0,0.61-1.1,1.23-2.94,1.84C69.66,20.48,57.4,21.59,43.17,21.59L43.17,21.59z"/>
	<path class="st8" d="M76.04,14.59c0.61-0.25,1.1-0.37,1.35-0.61c0.37-0.37,0.61-0.61,0.61-0.86l0,0v-3.8c0,0.49-0.74,1.1-2.08,1.6
		C75.92,12.02,76.04,13.25,76.04,14.59L76.04,14.59z"/>
	<path class="st8" d="M76.04,22.2c0.61-0.24,1.1-0.49,1.35-0.74c0.37-0.24,0.61-0.49,0.61-0.74l0,0v-3.8c0,0.49-0.74,0.98-1.96,1.47
		C76.04,19.62,76.04,20.85,76.04,22.2L76.04,22.2z"/>
	<path class="st9" d="M23.43,16.93v-3.8c5.64,0.61,12.39,0.86,19.75,0.86c8.22,0,15.7-0.37,21.71-0.98v3.8
		c-6.01,0.61-13.49,0.98-21.71,0.98C35.81,17.78,29.07,17.54,23.43,16.93L23.43,16.93z"/>
	<path class="st9" d="M23.43,24.53v-3.8c5.64,0.61,12.39,0.86,19.75,0.86c8.22,0,15.7-0.37,21.71-0.98v3.8
		c-6.01,0.61-13.49,0.98-21.71,0.98C35.81,25.39,29.07,25.14,23.43,24.53L23.43,24.53z"/>
	<path class="st10" d="M63.9,34.46c0,0.98-0.86,1.84-1.84,1.84l0,0c-0.98,0-1.84-0.86-1.84-1.84v-7.36c0-0.98-0.86-1.84-1.96-1.84
		l0,0c-0.98,0-1.84,0.86-1.84,1.84v9.2c0,0.98-0.86,1.84-1.84,1.84l0,0c-1.1,0-1.96-0.86-1.96-1.84v-6.75
		c0-0.98-0.86-1.84-1.84-1.84l0,0c-1.1,0-1.84,0.86-1.84,1.84v6.75c0,0.98-0.86,1.84-1.96,1.84l0,0c-0.98,0-1.84-0.86-1.84-1.84
		v-4.05c0-0.98-0.86-1.84-1.96-1.84l0,0c-0.98,0-1.84,0.86-1.84,1.84v7.85c0,1.1-0.86,1.84-1.84,1.84l0,0
		c-1.1,0-1.96-0.73-1.96-1.84V28.58c0-1.1-0.86-1.84-1.84-1.84l0,0c-0.98,0-1.84,0.74-1.84,1.84v4.29c0,0.98-0.86,1.84-1.96,1.84
		l0,0c-0.98,0-1.84-0.86-1.84-1.84v-1.96c0-1.1-0.86-1.96-1.84-1.96l0,0c-1.1,0-1.96,0.86-1.96,1.96v4.78
		c0,0.98-0.86,1.84-1.84,1.84l0,0c-1.1,0-1.96-0.86-1.96-1.84c0-8.46,0-16.93,0-25.39c0-1.96,1.59-3.44,3.56-3.44h34.46
		c1.96,0,3.43,1.47,3.43,3.44C63.9,18.4,63.9,26.37,63.9,34.46L63.9,34.46z"/>
	<path class="st11" d="M23.92,36.67 M24.41,37.53c0.98,0,1.84-0.86,1.84-1.84v-4.78c0-1.1,0.86-1.96,1.96-1.96
		c0.49,0,0.98,0.25,1.35,0.61c-0.12-0.86-0.98-1.47-1.84-1.47c-1.1,0-1.96,0.86-1.96,1.84v4.78c0,1.1-0.86,1.96-1.84,1.96
		c-0.49,0-0.98-0.25-1.35-0.61C22.69,36.92,23.43,37.53,24.41,37.53L24.41,37.53z"/>
	<path class="st11" d="M35.69,26.74 M30.05,33.11c0.13,0.98,0.98,1.59,1.84,1.59c1.1,0,1.96-0.86,1.96-1.84v-4.29
		c0-1.1,0.86-1.84,1.84-1.84c0.49,0,0.98,0.12,1.35,0.61c-0.12-0.98-0.86-1.59-1.84-1.59c-0.98,0-1.84,0.86-1.84,1.84v4.29
		c0,1.1-0.86,1.84-1.96,1.84C30.91,33.73,30.42,33.61,30.05,33.11L30.05,33.11z"/>
	<path class="st11" d="M40.84,39.25c0,0.98-0.86,1.84-1.84,1.84c-0.61,0-1.1-0.25-1.35-0.61c0.12,0.86,0.86,1.47,1.84,1.47
		c0.98,0,1.84-0.73,1.84-1.84v-7.85c0-0.98,0.86-1.84,1.84-1.84c0.61,0,1.1,0.25,1.47,0.61c-0.25-0.86-0.98-1.6-1.84-1.6
		c-1.11,0-1.96,0.86-1.96,1.96V39.25z"/>
	<path class="st11" d="M50.78,27.72 M46.48,37.28 M45.13,36.67c0.12,0.86,0.98,1.47,1.84,1.47c1.1,0,1.96-0.86,1.96-1.84v-6.75
		c0-0.98,0.74-1.84,1.84-1.84c0.49,0,0.98,0.24,1.35,0.61c-0.12-0.86-0.86-1.59-1.84-1.59s-1.84,0.86-1.84,1.96v6.62
		c0,1.1-0.86,1.96-1.97,1.96C45.99,37.28,45.5,37.04,45.13,36.67L45.13,36.67z"/>
	<path class="st11" d="M58.26,25.27 M57.89,24.28 M52.62,36.67c0.25,0.86,0.98,1.47,1.96,1.47c0.98,0,1.84-0.86,1.84-1.84v-9.2
		c0-0.98,0.86-1.84,1.84-1.84c0.61,0,1.1,0.25,1.47,0.61c-0.12-0.37-0.24-0.74-0.49-0.98c-0.37-0.37-0.86-0.61-1.35-0.61
		c-0.61,0-1.23,0.37-1.59,0.73c-0.24,0.37-0.37,0.74-0.37,1.23v9.08c0,1.1-0.86,1.96-1.84,1.96C53.48,37.28,52.99,37.04,52.62,36.67
		L52.62,36.67z"/>
	<path class="st11" d="M63.53,9.32v24.16c0,1.1-0.86,1.96-1.96,1.96c-0.49,0-0.98-0.24-1.35-0.61c0.12,0.86,0.98,1.47,1.84,1.47
		c0.98,0,1.84-0.86,1.84-1.84V10.3c0-0.74-0.24-1.47-0.61-1.96C63.41,8.71,63.53,8.95,63.53,9.32L63.53,9.32z"/>
</g>
</svg>
