<?xml version="1.0" encoding="utf-8"?>
<!-- Generator: Adobe Illustrator 24.0.1, SVG Export Plug-In . SVG Version: 6.00 Build 0)  -->
<svg version="1.1" id="Layer_1" xmlns="http://www.w3.org/2000/svg" xmlns:xlink="http://www.w3.org/1999/xlink" x="0px" y="0px"
	 viewBox="0 0 80 76.76" style="enable-background:new 0 0 80 76.76;" xml:space="preserve">
<style type="text/css">
	.st0{clip-path:url(#SVGID_2_);fill:#FEE589;}
	.st1{clip-path:url(#SVGID_4_);fill:#FEDA56;}
	.st2{clip-path:url(#SVGID_6_);fill:#FEDA56;}
</style>
<g>
	<g>
		<defs>
			<path id="SVGID_1_" d="M76,57.9c-0.2-0.2-0.41-0.4-0.62-0.6L74,56l-1.38,1.3c-0.21,0.2-0.42,0.4-0.62,0.6V22c0-1.1,0.9-2,2-2
				c1.1,0,2,0.9,2,2V57.9L76,57.9z M68,70.76c0-2.01,1.97-5.16,6-9.21c4.03,4.05,6,7.2,6,9.21c0,3.31-2.69,6-6,6
				C70.69,76.76,68,74.07,68,70.76L68,70.76z"/>
		</defs>
		<use xlink:href="#SVGID_1_"  style="overflow:visible;fill:#FEE589;"/>
		<clipPath id="SVGID_2_">
			<use xlink:href="#SVGID_1_"  style="overflow:visible;"/>
		</clipPath>
		<polyline class="st0" points="48,96.76 48,0 100,0 100,96.76 		"/>
	</g>
	<g>
		<defs>
			<path id="SVGID_3_" d="M38.97,0.25l36,20c1.37,0.76,1.37,2.73,0,3.5l-36,20c-0.6,0.34-1.34,0.34-1.94,0l-36-20
				c-1.37-0.76-1.37-2.73,0-3.5l36-20C37.63-0.08,38.37-0.08,38.97,0.25L38.97,0.25z"/>
		</defs>
		<clipPath id="SVGID_4_">
			<use xlink:href="#SVGID_3_"  style="overflow:visible;"/>
		</clipPath>
		<polyline class="st1" points="-20,-20 96,-20 96,64 -20,64 		"/>
	</g>
	<g>
		<defs>
			<path id="SVGID_5_" d="M64,36l0,18.44c0,0.49-0.18,0.96-0.5,1.32C58.61,61.31,50.08,64,38,64c-12.08,0-20.61-2.69-25.5-8.23
				c-0.32-0.37-0.5-0.84-0.5-1.32L12,36l23.09,12.83c0.91,0.5,1.91,0.75,2.91,0.76c1,0,2.01-0.25,2.92-0.76L64,36L64,36z"/>
		</defs>
		<clipPath id="SVGID_6_">
			<use xlink:href="#SVGID_5_"  style="overflow:visible;"/>
		</clipPath>
		<polyline class="st2" points="-8,16 84,16 84,84 -8,84 		"/>
	</g>
</g>
</svg>
