<?xml version="1.0" encoding="utf-8"?>
<!-- Generator: Adobe Illustrator 24.2.3, SVG Export Plug-In . SVG Version: 6.00 Build 0)  -->
<svg version="1.1" id="Layer_1" xmlns="http://www.w3.org/2000/svg" xmlns:xlink="http://www.w3.org/1999/xlink" x="0px" y="0px"
	 viewBox="0 0 157.7 213" style="enable-background:new 0 0 157.7 213;" xml:space="preserve">
<style type="text/css">
	.st0{fill:#E5E5E5;}
	.st1{fill:#FFFFFF;}
	.st2{font-family:'WorkSans-Regular';}
	.st3{font-size:42.8089px;}
</style>
<polygon class="st0" points="146.2,203.4 9.4,203.4 9.4,100 44.4,98.6 79,112.2 96.3,100.8 146.2,100 "/>
<g>
	<g>
		<path class="st1" d="M150.7,110.9V101l-1.4-0.6c-0.5-0.2-12.1-4.7-27.6-4.7c-16.6,0-30.9,5.1-42.5,15c-11.6-10-25.9-15-42.5-15
			c-15.5,0-27.1,4.5-27.6,4.7L7.6,101v9.2c-4.7,0.9-7.6,2.5-7.6,5v94.3h69.5c2.4,2.2,5.9,3.5,9.9,3.5s7.4-1.3,9.8-3.5h67.7v-94.3
			C156.9,113.1,154.5,111.7,150.7,110.9L150.7,110.9z M78.4,202.1c-5.8-2.4-25.6-9.9-45.5-9.9c-7.9,0-14.8,1.2-20.8,3.6v-91.6
			c3.5-1.1,12.9-3.9,24.5-3.9c15.3,0,28.4,4.6,39.1,13.6v54.7l2.7-2.9C78.4,165.6,78.4,202.1,78.4,202.1z M146.2,195.8
			c-6.4-2.6-13.7-3.9-21.8-3.9c-19.9,0-38.8,7.6-44.5,10.1v-36.4l2.6,2.9v-54.7c10.7-9,23.8-13.6,39.1-13.6
			c11.6,0,21.1,2.7,24.5,3.9V195.8z"/>
	</g>
</g>
<text transform="matrix(0.8397 -0.543 0.543 0.8397 28.486 81.4791)" class="st1 st2 st3">a</text>
<text transform="matrix(0.908 0.419 -0.419 0.908 77.8005 70.4648)" class="st1 st2 st3">e</text>
<text transform="matrix(0.908 0.419 -0.419 0.908 119.4607 77.76)" class="st1 st2 st3">o</text>
<text transform="matrix(0.908 0.419 -0.419 0.908 62.5715 51.2632)" class="st1 st2 st3">i</text>
</svg>
