<?xml version="1.0" encoding="utf-8"?>
<!-- Generator: Adobe Illustrator 24.2.3, SVG Export Plug-In . SVG Version: 6.00 Build 0)  -->
<svg version="1.1" id="Layer_1" xmlns="http://www.w3.org/2000/svg" xmlns:xlink="http://www.w3.org/1999/xlink" x="0px" y="0px"
	 viewBox="0 0 180 180" style="enable-background:new 0 0 180 180;" xml:space="preserve">
<style type="text/css">
	.st0{fill:#FFFFFF;}
	.st1{fill:#EF5B66;}
	.st2{fill:#F2F2F2;}
</style>
<g>
	<circle class="st0" cx="90" cy="90" r="90"/>
</g>
<g id="XMLID_1_">
	<path id="XMLID_17_" class="st1" d="M67,141.3L38.7,113c-0.8-0.8-1.2-1.8-1.2-2.9V70c0-1.1,0.4-2.2,1.2-2.9L67,38.7
		c0.8-0.8,1.8-1.2,2.9-1.2h40c1.1,0,2.2,0.4,2.9,1.2L141.3,67c0.8,0.8,1.2,1.8,1.2,2.9v40c0,1.1-0.4,2.2-1.2,2.9L113,141.3
		c-0.8,0.8-1.8,1.2-2.9,1.2H70C68.9,142.5,67.8,142.1,67,141.3z"/>
	<g id="XMLID_2_">
		<path id="XMLID_16_" class="st2" d="M77.6,89.8v11.1H69v2.8c0,7.6,6.2,13.8,13.8,13.8h14.6c7.6,0,13.8-6.2,13.8-13.8V89.8H77.6z"
			/>
		<path id="XMLID_15_" class="st2" d="M111,74.8v15h-7.5v-15c0-2.1,1.7-3.8,3.8-3.8C109.3,71.1,111,72.8,111,74.8z"/>
		<path id="XMLID_14_" class="st2" d="M102.4,70.3v19.5h-7.5V70.3c0-2.1,1.7-3.8,3.8-3.8C100.7,66.6,102.4,68.3,102.4,70.3z"/>
		<path id="XMLID_7_" class="st2" d="M93.8,66.3v23.6h-7.5V66.3c0-2.1,1.7-3.8,3.8-3.8S93.8,64.2,93.8,66.3z"/>
		<path id="XMLID_6_" class="st2" d="M85.1,70.3v19.5h-7.5V70.3c0-2.1,1.7-3.8,3.8-3.8S85.1,68.3,85.1,70.3z"/>
		<path id="XMLID_3_" class="st2" d="M76.5,91.1v9.9H69v-9.9c0-2.1,1.7-3.8,3.8-3.8C74.8,87.3,76.5,89,76.5,91.1z"/>
	</g>
</g>
</svg>
