<?xml version="1.0" encoding="utf-8"?>
<!-- Generator: Adobe Illustrator 24.0.1, SVG Export Plug-In . SVG Version: 6.00 Build 0)  -->
<svg version="1.1" id="Layer_1" xmlns="http://www.w3.org/2000/svg" xmlns:xlink="http://www.w3.org/1999/xlink" x="0px" y="0px"
	 viewBox="0 0 221.33 83" style="enable-background:new 0 0 221.33 83;" xml:space="preserve">
<style type="text/css">
	.st0{fill:#3D5192;}
	.st1{fill:#FFFFFF;}
</style>
<g>
	<g>
		<rect x="-0.38" y="-0.25" class="st0" width="222.09" height="83.49"/>
	</g>
	<g>
		<path class="st1" d="M119.75,35.52c-2.74-0.29-5.12,0.54-7.13,2.95v-0.75l0,0V24.69v-0.14v-0.88l-7.27,0.88v34.27h7.27v-2.03
			c0.98,0.7,1.93,1.54,3.05,1.94c4.23,1.52,9.82,0.28,11.77-5.38c1.25-3.63,1.22-7.36,0.28-11.03
			C126.68,38.22,123.96,35.97,119.75,35.52z M120.84,50.36c-0.32,2.26-2.12,3.44-4.25,3.28c-0.53-0.04-1.02-0.15-1.45-0.32
			c-1.72-0.99-2.24-2.64-2.39-3.68c0,0,0,0,0,0c-0.12-1.61-0.24-4.97,0.54-6.56c0.67-1.22,1.83-1.88,3.37-1.93
			c2.19-0.07,3.84,1.01,4.17,3.23C121.1,46.34,121.12,48.41,120.84,50.36z"/>
		<path class="st1" d="M145.51,35.94c-2.53-0.68-5.08-0.67-7.6,0c-3.77,1-6.3,3.39-7.12,7.19c-0.45,2.07-0.53,4.28-0.42,6.4
			c0.27,4.86,3.27,8.32,7.94,9.4c0.07,0.02,0.13,0.03,0.2,0.04h0c0,0,0.01,0,0.03,0.01c0.18,0.04,0.36,0.07,0.54,0.1
			c0.06,0.01,0.12,0.01,0.18,0.02c0,0,0,0,0.01,0c0.23,0.04,0.5,0.07,0.78,0.1c0.91,0.1,2.08,0.17,3.05,0.05c0.01,0,0.01,0,0.02,0
			c0.05,0,0.1,0,0.15,0c4.82-0.25,8.47-3.29,9.54-7.95c0.59-2.56,0.59-5.12,0.02-7.68C151.94,39.6,149.51,37.01,145.51,35.94z
			 M145.82,49.99c-0.02,0.15-0.05,0.3-0.08,0.45c-0.48,2.14-2.04,3.3-4.12,3.21c-2.23-0.1-3.76-1.41-3.98-3.64
			c-0.16-1.63-0.17-3.29-0.03-4.92c0.21-2.57,1.82-3.98,4.24-3.93c1.98,0.04,3.4,1.16,3.9,3.07
			C146.2,46.14,145.86,49.56,145.82,49.99z"/>
		<path class="st1" d="M36.4,35.82h-5.19v-3.45c0.38-3.26,5.77-2.64,5.77-2.64l0-0.22l0-0.03v-5.36h0v0h0
			c-0.19-0.04-10.72-2.54-12.81,5.47c0,0,0,0,0,0.01c0,0.02-0.01,0.04-0.01,0.05c-0.33,1-0.31,5.59-0.3,6.17h-4.5v6.14h4.78v16.69
			h6.95V41.96h5.32l0.6-6.14L36.4,35.82z"/>
		<path class="st1" d="M52.99,38.76c-0.09-0.09-0.17-0.19-0.24-0.26v0c-0.01-0.01-0.02-0.02-0.03-0.03
			c-0.1-0.11-0.17-0.18-0.17-0.18l0,0c-1.64-1.66-2.26-2.08-3.54-2.46c-4.93-1.45-9.73,1.13-11.25,6.09
			c-0.93,3.05-0.95,6.19-0.4,9.28c1.18,6.69,6.16,8.93,11.46,7.82c1.63-0.34,2.84-1.35,3.96-2.76c0,0,0.1-0.12,0.22-0.36v2.94h6.78
			V35.85h-6.78L52.99,38.76L52.99,38.76z M52.39,50.33c-0.23,2.13-1.95,3.4-3.98,3.32c-2.08-0.08-3.46-1.2-3.91-3.2
			c-0.54-2.84,0.09-6.22,0.15-6.5c0.54-1.91,1.93-2.85,3.97-2.81c2,0.05,3.54,1.23,3.77,3.3C52.59,46.39,52.6,48.39,52.39,50.33z"/>
		<path class="st1" d="M80.49,57.19c-0.31-1.15-0.67-2.29-1.02-3.38l-0.33-1.22c0,0-8.5,4.08-9.83-3.67
			c-0.12-1.28-0.09-2.6,0.09-3.86c0.33-2.38,1.79-3.66,4.1-3.88c0.78-0.07,1.59-0.04,2.37,0.09c1.05,0.18,2.08,0.5,3.24,0.78
			c0.4-1.23,0.81-2.44,1.19-3.66c0.06-0.19,0.11-0.36,0.15-0.5h0l0.19-0.73c-0.05-0.1-0.16-0.2-0.32-0.3c0,0,0,0,0,0
			c-0.2-0.16-0.53-0.3-1.05-0.49c-0.21-0.08-0.42-0.14-0.63-0.21c-0.19-0.06-0.31-0.09-0.31-0.09h0c-2.23-0.64-4.53-0.69-6.86-0.44
			c-4.91,0.52-8.24,3.42-9.17,8.2c-0.49,2.52-0.46,5.06,0.09,7.59c0.83,3.78,3.13,6.22,6.85,7.31c2.43,0.71,4.92,0.75,7.4,0.36
			c1.04-0.16,2.54-0.7,3.61-1.09l0.41-0.14L80.49,57.19L80.49,57.19z"/>
		<path class="st1" d="M102.87,48.2c-0.03-1.59-0.01-3.19-0.24-4.75c-0.62-4.29-3.23-7-7.45-7.71c-1.61-0.27-3.32-0.23-4.95-0.08
			c-4.48,0.43-7.88,3.22-8.58,7.42c-0.42,2.55-0.48,5.25-0.14,7.81c0.52,3.85,2.39,6.3,5.63,7.48c0,0,0,0,0,0
			c0.02,0,0.03,0,0.04,0.01c0,0,0,0,0,0c1.48,0.44,8.73,2.34,15.11-0.87l-0.26-0.94c0,0-0.01,0-0.01,0
			c-0.3-1.25-0.65-2.49-0.99-3.74l-0.04-0.12c0,0-0.13,0.05-0.37,0.12c-0.01,0-0.01,0-0.02,0c-0.28,0.07-0.55,0.16-0.83,0.25
			c-0.05,0.02-0.1,0.03-0.15,0.05c-0.97,0.27-2.35,0.61-3.81,0.8c-1.22,0.12-2.46,0.13-3.71,0.02c-2.03-0.34-3.58-1.42-3.51-3.99
			h1.16c3.98,0,7.95,0,11.93,0c0.09,0,0.19,0,0.28,0l0,0c0,0,0.85-0.01,0.89-0.02c0,0,0-0.23,0-0.25L102.87,48.2z M96.33,45.06
			h-7.85c0.04-1.56,0.24-3.01,1.62-3.9c1.47-0.94,3.1-0.97,4.62-0.13C96.25,41.88,96.37,43.41,96.33,45.06z"/>
		<polygon class="st1" points="201.98,36.09 194.27,36.09 187.57,46.56 187.57,24.71 187.57,24.57 187.57,23.69 180.3,24.57 
			180.3,58.84 187.57,58.84 187.57,48.35 194.27,58.85 201.98,58.85 194.71,47.45 		"/>
		<path class="st1" d="M170.3,35.94c-2.53-0.68-5.08-0.67-7.6,0c-3.77,1.01-6.3,3.39-7.12,7.19c-0.45,2.07-0.53,4.28-0.42,6.4
			c0.27,4.86,3.27,8.32,7.94,9.4c0.07,0.02,0.14,0.03,0.2,0.04h0c0,0,0.01,0,0.03,0.01c0.18,0.04,0.36,0.07,0.54,0.1
			c0.06,0.01,0.12,0.01,0.18,0.02c0,0,0,0,0.01,0c0.23,0.04,0.5,0.07,0.78,0.1c0.92,0.1,2.08,0.17,3.05,0.05c0.01,0,0.01,0,0.02,0
			c0.05,0,0.1,0,0.15,0c4.82-0.25,8.47-3.29,9.54-7.95c0.59-2.56,0.59-5.12,0.02-7.68C176.73,39.59,174.3,37.01,170.3,35.94z
			 M170.61,49.99c-0.02,0.15-0.05,0.3-0.08,0.45c-0.48,2.14-2.04,3.3-4.12,3.21c-2.23-0.1-3.76-1.41-3.98-3.64
			c-0.16-1.63-0.17-3.29-0.03-4.92c0.22-2.57,1.82-3.98,4.24-3.94c1.98,0.04,3.4,1.16,3.9,3.07
			C170.99,46.14,170.65,49.55,170.61,49.99z"/>
	</g>
</g>
</svg>
