<?xml version="1.0" encoding="utf-8"?>
<!-- Generator: Adobe Illustrator 24.0.1, SVG Export Plug-In . SVG Version: 6.00 Build 0)  -->
<svg version="1.1" id="Layer_1" xmlns="http://www.w3.org/2000/svg" xmlns:xlink="http://www.w3.org/1999/xlink" x="0px" y="0px"
	 viewBox="0 0 35 35.19" style="enable-background:new 0 0 35 35.19;" xml:space="preserve">
<style type="text/css">
	.st0{fill:#FDD956;}
</style>
<g>
	<path class="st0" d="M2.76,31.42C1.24,31.42,0,30.18,0,28.66v-3.68c0-1.53,1.24-2.76,2.76-2.76h17.5v-1.03
		c0-0.58,0.18-1.14,0.51-1.61c0.89-1.24,2.61-1.53,3.85-0.64l7.88,5.63c0.25,0.18,0.47,0.39,0.64,0.64c0.89,1.24,0.6,2.97-0.64,3.85
		l-7.86,5.62c-0.47,0.34-1.04,0.52-1.62,0.51c-1.53-0.01-2.76-1.25-2.75-2.78l0.01-0.99H2.76L2.76,31.42z"/>
	<path class="st0" d="M14.74,3.79h17.5c1.53,0,2.76,1.24,2.76,2.76v3.68c0,1.53-1.24,2.76-2.76,2.76H14.71l0.01,0.99
		c0.01,1.53-1.22,2.77-2.75,2.78c-0.58,0-1.15-0.18-1.62-0.51l-7.86-5.62C1.24,9.76,0.95,8.03,1.84,6.79
		c0.18-0.25,0.39-0.47,0.64-0.64l7.88-5.63c1.24-0.89,2.97-0.6,3.85,0.64c0.33,0.47,0.51,1.03,0.51,1.61V3.79L14.74,3.79z"/>
</g>
</svg>
