<?xml version="1.0" encoding="utf-8"?>
<!-- Generator: Adobe Illustrator 24.0.1, SVG Export Plug-In . SVG Version: 6.00 Build 0)  -->
<svg version="1.1" id="Layer_1" xmlns="http://www.w3.org/2000/svg" xmlns:xlink="http://www.w3.org/1999/xlink" x="0px" y="0px"
	 viewBox="0 0 80 70.48" style="enable-background:new 0 0 80 70.48;" xml:space="preserve">
<style type="text/css">
	.st0{clip-path:url(#SVGID_4_);}
	.st1{clip-path:url(#SVGID_5_);}
	.st2{clip-path:url(#SVGID_6_);fill:#FDD089;}
	.st3{clip-path:url(#SVGID_8_);fill:#FBB03B;}
</style>
<g>
	<g>
		<defs>
			<path id="SVGID_1_" d="M53.33,13.33v-1.9c0-3.16-2.56-5.71-5.71-5.71H32.38c-3.16,0-5.71,2.56-5.71,5.71v1.9H53.33L53.33,13.33z"
				/>
		</defs>
		<defs>
			<path id="SVGID_2_" d="M59.05,11.43v7.62h-38.1v-7.62C20.95,5.12,26.07,0,32.38,0h15.24C53.93,0,59.05,5.12,59.05,11.43
				L59.05,11.43z"/>
		</defs>
		<defs>
			<polygon id="SVGID_3_" points="34.29,47.62 34.29,40 45.71,40 45.71,47.62 34.29,47.62 			"/>
		</defs>
		<use xlink:href="#SVGID_1_"  style="overflow:visible;fill:#FDD089;"/>
		<use xlink:href="#SVGID_2_"  style="overflow:visible;fill:#FDD089;"/>
		<use xlink:href="#SVGID_3_"  style="overflow:visible;fill:#FDD089;"/>
		<clipPath id="SVGID_4_">
			<use xlink:href="#SVGID_1_"  style="overflow:visible;"/>
		</clipPath>
		<clipPath id="SVGID_5_" class="st0">
			<use xlink:href="#SVGID_2_"  style="overflow:visible;"/>
		</clipPath>
		<clipPath id="SVGID_6_" class="st1">
			<use xlink:href="#SVGID_3_"  style="overflow:visible;"/>
		</clipPath>
		<rect x="1.9" y="-19.05" class="st2" width="76.19" height="85.71"/>
	</g>
	<g>
		<defs>
			<path id="SVGID_7_" d="M30.48,43.81V48c0,1.89,1.54,3.43,3.43,3.43H46.1c1.89,0,3.43-1.54,3.43-3.43v-4.19h20.95
				c3.73,0,7.1-1.53,9.52-4v17.34c0,7.36-5.97,13.33-13.33,13.33H13.33C5.97,70.48,0,64.51,0,57.14V39.81c2.42,2.47,5.79,4,9.52,4
				H30.48L30.48,43.81z M49.52,40c0-2.1-1.71-3.81-3.81-3.81H34.29c-2.1,0-3.81,1.71-3.81,3.81H9.52C4.26,40,0,35.74,0,30.48V19.05
				c0-3.16,2.56-5.71,5.71-5.71h68.57c3.16,0,5.71,2.56,5.71,5.71v11.43c0,5.26-4.26,9.52-9.52,9.52H49.52L49.52,40z"/>
		</defs>
		<use xlink:href="#SVGID_7_"  style="overflow:visible;fill:#FBB03B;"/>
		<clipPath id="SVGID_8_">
			<use xlink:href="#SVGID_7_"  style="overflow:visible;"/>
		</clipPath>
		<polyline class="st3" points="-19.05,89.52 -19.05,-5.71 99.05,-5.71 99.05,89.52 		"/>
	</g>
</g>
</svg>
