<?xml version="1.0" encoding="utf-8"?>
<!-- Generator: Adobe Illustrator 24.0.1, SVG Export Plug-In . SVG Version: 6.00 Build 0)  -->
<svg version="1.1" id="Layer_1" xmlns="http://www.w3.org/2000/svg" xmlns:xlink="http://www.w3.org/1999/xlink" x="0px" y="0px"
	 viewBox="0 0 221.33 83" style="enable-background:new 0 0 221.33 83;" xml:space="preserve">
<style type="text/css">
	.st0{fill:#FFFFFF;}
	.st1{fill:#4285F4;}
	.st2{fill:#EA4335;}
	.st3{fill:#FBBC05;}
	.st4{fill:#34A853;}
</style>
<g>
	<rect class="st0" width="221.33" height="83"/>
	<g id="XMLID_1_">
		<path id="XMLID_24_" class="st1" d="M55.44,39.5v4.95h11.84c-0.36,2.78-1.29,4.81-2.7,6.24c-1.73,1.73-4.43,3.63-9.14,3.63
			c-7.29,0-12.99-5.88-12.99-13.17s5.7-13.17,12.99-13.17c3.93,0,6.81,1.55,8.92,3.54l3.48-3.48C64.91,25.18,60.96,23,55.44,23
			c-9.99,0-18.39,8.14-18.39,18.13s8.4,18.13,18.39,18.13c5.4,0,9.47-1.77,12.65-5.08c3.26-3.26,4.29-7.88,4.29-11.58
			c0-1.15-0.08-2.22-0.26-3.1H55.44z"/>
		<path id="XMLID_14_" class="st2" d="M87.18,35.47c-6.47,0-11.74,4.91-11.74,11.7c0,6.73,5.28,11.7,11.74,11.7
			s11.74-4.95,11.74-11.7C98.92,40.38,93.65,35.47,87.18,35.47z M87.18,54.26c-3.54,0-6.61-2.92-6.61-7.09
			c0-4.21,3.06-7.09,6.61-7.09s6.61,2.88,6.61,7.09C93.79,51.34,90.73,54.26,87.18,54.26z"/>
		<path id="XMLID_9_" class="st1" d="M144.74,38.09h-0.18c-1.15-1.37-3.36-2.62-6.16-2.62c-5.84,0-10.94,5.1-10.94,11.7
			c0,6.57,5.1,11.7,10.94,11.7c2.8,0,5.02-1.25,6.16-2.66h0.18v1.63c0,4.47-2.4,6.87-6.24,6.87c-3.14,0-5.1-2.26-5.9-4.17
			l-4.47,1.85c1.29,3.1,4.69,6.91,10.37,6.91c6.02,0,11.12-3.54,11.12-12.19V36.07h-4.87V38.09z M138.84,54.26
			c-3.54,0-6.24-3.02-6.24-7.09c0-4.13,2.7-7.09,6.24-7.09c3.5,0,6.24,3.02,6.24,7.13C145.11,51.3,142.35,54.26,138.84,54.26z"/>
		<path id="XMLID_6_" class="st3" d="M113.37,35.47c-6.47,0-11.74,4.91-11.74,11.7c0,6.73,5.28,11.7,11.74,11.7
			s11.74-4.95,11.74-11.7C125.11,40.38,119.83,35.47,113.37,35.47z M113.37,54.26c-3.54,0-6.61-2.92-6.61-7.09
			c0-4.21,3.06-7.09,6.61-7.09s6.61,2.88,6.61,7.09C119.97,51.34,116.91,54.26,113.37,54.26z"/>
		<path id="XMLID_5_" class="st4" d="M153.65,23.48h5.06v35.39h-5.06V23.48z"/>
		<path id="XMLID_2_" class="st2" d="M174.31,54.26c-2.62,0-4.47-1.19-5.68-3.54l15.65-6.47l-0.52-1.33
			c-0.97-2.62-3.95-7.45-10.01-7.45c-6.02,0-11.04,4.73-11.04,11.7c0,6.57,4.95,11.7,11.6,11.7c5.36,0,8.46-3.28,9.75-5.18
			l-3.99-2.66C178.74,52.97,176.93,54.26,174.31,54.26L174.31,54.26z M173.95,39.86c2.07,0,3.85,1.07,4.43,2.58l-10.57,4.37
			C167.81,41.89,171.29,39.86,173.95,39.86z"/>
	</g>
</g>
</svg>
