<?xml version="1.0" encoding="utf-8"?>
<!-- Generator: Adobe Illustrator 24.0.1, SVG Export Plug-In . SVG Version: 6.00 Build 0)  -->
<svg version="1.1" id="Layer_1" xmlns="http://www.w3.org/2000/svg" xmlns:xlink="http://www.w3.org/1999/xlink" x="0px" y="0px"
	 viewBox="0 0 385.84 1069.18" style="enable-background:new 0 0 385.84 1069.18;" xml:space="preserve">
<style type="text/css">
	
		.st0{fill-rule:evenodd;clip-rule:evenodd;fill:none;stroke:#FFFFFF;stroke-width:9.75;stroke-linecap:round;stroke-linejoin:round;stroke-miterlimit:3;}
	
		.st1{fill-rule:evenodd;clip-rule:evenodd;fill:none;stroke:#FFFFFF;stroke-width:11.3;stroke-linecap:round;stroke-linejoin:round;stroke-miterlimit:3;}
</style>
<symbol  id="d2" viewBox="-160.85 -444.25 321.7 888.5">
	<g>
		<path class="st0" d="M46.62,382.78c3.1-3.6,5.9-7.55,8.4-11.85c2.53-4.27,4.77-8.8,6.7-13.6c1.23,1.8,2.22,3.97,2.95,6.5
			c0.8,2.53,1.38,4.88,1.75,7.05l0.8,4.2c1,6.33,1.33,12.75,1,19.25c-0.27,6.43-1.23,12.75-2.9,18.95l-2.1,6.2
			c-1.13,3.13-2.55,6.55-4.25,10.25c-1.67,3.7-3.47,6.92-5.4,9.65 M55.88,398.72c-1.37-2.37-3-4.92-4.9-7.65
			c-2-2.77-3.87-5.22-5.6-7.35l-3.4-4.05c-4.23-4.7-8.88-8.97-13.95-12.8c-5.03-3.83-10.35-7.18-15.95-10.05l-3.9-1.8
			c-1.97-0.9-4.22-1.83-6.75-2.8c-2.47-1-4.78-1.78-6.95-2.35 M-59.27,379.17c2.53,3.67,5.63,7.5,9.3,11.5
			c3.67,4.07,7.08,7.62,10.25,10.65l6.35,6.05c2.5,2,5.03,3.93,7.6,5.8c2.6,1.87,5.27,3.65,8,5.35c5.33,3.43,10.92,6.57,16.75,9.4
			c5.87,2.83,11.78,5.23,17.75,7.2l4.15,1.5c2.17,0.7,4.55,1.35,7.15,1.95c2.63,0.57,5.08,0.77,7.35,0.6 M-15.08,356.88
			c2.13,0.3,4.38,1.07,6.75,2.3c2.33,1.2,4.37,2.45,6.1,3.75l3.55,2.5c2.57,1.83,5,3.82,7.3,5.95c2.37,2.2,4.57,4.45,6.6,6.75
			l4.75,6.3c2.13,3.1,4.28,6.68,6.45,10.75c2.13,4.07,3.62,7.95,4.45,11.65 M47.07,341.92c0.93,1.83,2.33,3.43,4.2,4.8
			c1.77,1.3,3.75,2.28,5.95,2.95c2.13,0.7,4.25,1.02,6.35,0.95 M57.82,310.67l-1.45,8.7 M0.42,323.88c0.5,3.27,1.82,6.23,3.95,8.9
			c2.17,2.6,4.77,4.35,7.8,5.25c3.03,0.9,6.17,0.42,9.4-1.45 M25.48,311.67l1.45-8.65 M35.98,273.58c1.8-1.53,3.83-2.43,6.1-2.7
			c2.27-0.23,4.5,0.02,6.7,0.75c2.23,0.8,4.17,1.9,5.8,3.3 M61.73,357.33c5.9-15.4,9.22-31.97,9.95-49.7
			c0.8-17.67-0.6-34.47-4.2-50.4c-3.67-15.9-9.08-28.82-16.25-38.75c-7.23-10-15.82-14.95-25.75-14.85
			c-9.13,0.53-17.27,3.65-24.4,9.35c-7.1,5.63-13.28,13.2-18.55,22.7c-5.3,9.47-9.75,20.13-13.35,32c-0.67-3.5-2.17-6.38-4.5-8.65
			c-2.3-2.27-5.18-3.6-8.65-4c-3.13-0.17-6.15,0.6-9.05,2.3c-2.8,1.7-5.3,3.68-7.5,5.95c-2.83,2.8-5.13,6.3-6.9,10.5
			c-1.73,4.23-2.52,8.52-2.35,12.85c0.23,4.4,1.93,8.23,5.1,11.5c1.17,1.13,2.77,2.07,4.8,2.8c1.97,0.73,4.08,1.1,6.35,1.1h0.1
			c-1.03,3.23-2.12,6.82-3.25,10.75c-1.17,3.97-2.2,7.55-3.1,10.75l-1.8,6.1c-0.77,3.1-1.53,6.2-2.3,9.3
			c-0.73,3.1-1.43,6.22-2.1,9.35l-0.9,4.15c-0.47,2.13-0.93,4.55-1.4,7.25c-0.43,2.7-0.68,5.17-0.75,7.4 M7.67,406.67
			c-3.83-9.1-8.65-17.65-14.45-25.65c-5.87-8.03-12.7-15.08-20.5-21.15 M-53.43,302.03c2.2,0.07,4.23-0.43,6.1-1.5 M-45.23,360.42
			c0.33-9.73,1.07-19.92,2.2-30.55c1.07-10.53,2.62-21.08,4.65-31.65c1.97-10.6,4.48-20.78,7.55-30.55c0.1,0.6,0.18,1.25,0.25,1.95
			c0.07,0.6,0.1,1.23,0.1,1.9 M-25.58,229.33c-1.2-6.43-2.92-12.82-5.15-19.15c-2.33-6.33-5.47-12.12-9.4-17.35 M-131.18,140.83
			c3.57,3.07,7.67,6.33,12.3,9.8c4.63,3.57,8.83,6.77,12.6,9.6l7.3,5.25c3.73,2.53,7.48,5.02,11.25,7.45
			c3.83,2.43,7.73,4.75,11.7,6.95l5.25,2.85c2.77,1.47,5.9,3.05,9.4,4.75c3.5,1.63,6.72,2.97,9.65,4 M-44.02,184.92
			c1.5-2.8,3.47-5.78,5.9-8.95c2.37-3.23,4.6-6.08,6.7-8.55l3.9-4.65c5.97-7.57,11.98-14.1,18.05-19.6
			c6.07-5.4,12.18-8.42,18.35-9.05c6.1-0.6,12.2,2.53,18.3,9.4 M-155.98,22.23c0.5-0.47,1.02-0.92,1.55-1.35
			c0.5-0.47,1.03-0.92,1.6-1.35c0.8,13.3,1.95,26.62,3.45,39.95c1.53,13.27,3.4,26.33,5.6,39.2l0.7,6.35
			c0.37,3.2,1.02,6.7,1.95,10.5c0.93,3.77,2.33,6.98,4.2,9.65 M-81.73-26.48c0.3,3.07,0.75,6.48,1.35,10.25
			c0.63,3.73,1.27,7.12,1.9,10.15l1.15,5.7c0.73,4.33,1.42,8.7,2.05,13.1c0.67,4.37,1.32,8.75,1.95,13.15l1.25,8.7
			c0.7,4.5,1.47,9.58,2.3,15.25c0.83,5.63,1.62,10.73,2.35,15.3 M16.17,160.48c0.67,6.33,1.57,12.63,2.7,18.9
			c1.07,6.2,2.25,12.4,3.55,18.6 M23.02,180.62c8.07-3.6,15.45-8.48,22.15-14.65c6.67-6.17,12.15-13.2,16.45-21.1
			c4.3-7.83,6.83-16.18,7.6-25.05 M70.57,119.83c0.47-3.17,0.7-6.72,0.7-10.65c0-4-0.08-7.58-0.25-10.75l-0.25-6.2
			c-0.33-9.2-0.95-18.43-1.85-27.7c-0.87-9.2-1.88-18.37-3.05-27.5l-1.1-7.7c-0.63-3.97-1.43-8.37-2.4-13.2
			c-1-4.87-2.13-9.22-3.4-13.05 M147.82,7.73c-5.67-1.47-11.27-3.13-16.8-5c-5.53-1.9-11.08-3.65-16.65-5.25
			c-5.6-1.57-11.3-2.58-17.1-3.05 M155.77-10.38c0.27,2.3,0.27,4.75,0,7.35c-0.3,2.6-1.03,4.97-2.2,7.1
			c-1.2,2.2-2.98,3.85-5.35,4.95 M122.92,10.02c-3.23,0.23-6.33,1.13-9.3,2.7c-3.07,1.53-6.12,2.75-9.15,3.65
			c-3,0.83-6.13,0.42-9.4-1.25 M126.73-65.33c-1.7,3.17-1.98,6.38-0.85,9.65c1.13,3.27,2.23,6.73,3.3,10.4
			c1.07,3.67,0.7,7.65-1.1,11.95 M129.88-23.52c4.63,1.27,9.08,3,13.35,5.2c4.3,2.13,8.33,4.67,12.1,7.6 M96.07,14.52
			c-3.6-2.43-7.02-5.12-10.25-8.05c-3.17-2.93-6.32-5.87-9.45-8.8c-3.23-2.93-6.65-5.58-10.25-7.95 M60.27-20.38
			c-3.07-0.9-6.53-1.75-10.4-2.55c-3.9-0.73-7.43-1.38-10.6-1.95l-6-1c-9.1-1.63-18.22-3.07-27.35-4.3
			c-9.17-1.3-18.32-2.4-27.45-3.3c-4.63-0.47-9.23-0.83-13.8-1.1c-4.63-0.3-9.23-0.57-13.8-0.8l-10.75-0.3
			c-5.63-0.13-11.93-0.32-18.9-0.55c-6.93-0.2-13.18-0.45-18.75-0.75 M54.77-65.17c6.3,0.17,12.62-0.25,18.95-1.25
			c6.33-1.07,12.6-2,18.8-2.8c6.27-0.83,12.45-0.83,18.55,0 M61.48-71.52c0.33-3.17,0.72-6.72,1.15-10.65
			c0.5-3.9,0.95-7.43,1.35-10.6l0.85-5.9c0.63-4.53,1.35-9.05,2.15-13.55c0.77-4.53,1.6-9.02,2.5-13.45l2.65-11.85
			c1.37-6.23,2.87-13.18,4.5-20.85c1.57-7.73,2.92-14.7,4.05-20.9 M-143.77-98.92c3.27,0,6.93-0.12,11-0.35
			c4.07-0.3,7.73-0.55,11-0.75l6.2-0.45c18.8-0.17,37.62,1.18,56.45,4.05c18.8,2.9,37.2,7.05,55.2,12.45l11.85,4.15
			c6.17,2.2,13.08,4.67,20.75,7.4c7.7,2.63,14.67,4.95,20.9,6.95 M-79.02,7.98c-8-2.8-16.4-4.23-25.2-4.3
			c-8.87-0.07-17.5,1.23-25.9,3.9c-8.43,2.63-16,6.62-22.7,11.95c-0.33-5.43-0.62-10.87-0.85-16.3c-0.23-5.4-0.38-10.75-0.45-16.05
			c-0.03-4.7,0-9.38,0.1-14.05c0.07-4.63,0.22-9.3,0.45-14l0.4-7.7c0.23-4.07,0.48-8.6,0.75-13.6c0.3-5.03,0.57-9.58,0.8-13.65
			 M-124.02-195.73c1.33,3.63,2.15,7.75,2.45,12.35c0.2,4.63,0.22,8.87,0.05,12.7l-0.5,7.55c-0.33,4.4-0.82,8.78-1.45,13.15
			c-0.57,4.33-1.03,8.7-1.4,13.1l-0.55,5.75c-0.27,3.07-0.48,6.48-0.65,10.25c-0.17,3.8-0.17,7.22,0,10.25 M-30.58-231.67
			c-5.47-4.87-11.5-10.12-18.1-15.75c-6.67-5.67-13.58-10.72-20.75-15.15c-7.23-4.53-14.47-7.5-21.7-8.9 M79.07-189.62
			c-4-2.6-8.58-5.37-13.75-8.3c-5.07-2.93-9.72-5.53-13.95-7.8l-8.15-4.2c-4.17-1.8-8.42-3.5-12.75-5.1c-4.3-1.53-8.7-2.77-13.2-3.7
			c-11.77-2.37-23.82-3.22-36.15-2.55c-12.37,0.67-24.62,2.42-36.75,5.25c-12.13,2.77-23.8,6.12-35,10.05l-5.9,1.9
			c-3.07,0.93-6.37,2.17-9.9,3.7c-3.63,1.53-6.72,3.25-9.25,5.15 M-117.52-215.27c-0.67-3.17-1.12-6.75-1.35-10.75
			c-0.23-3.93-0.35-7.55-0.35-10.85v-6.15c0.3-6.4,1.2-12.83,2.7-19.3c1.53-6.5,3.07-12.75,4.6-18.75c1.5-6.03,2.35-11.53,2.55-16.5
			c0-3.1-0.48-6.08-1.45-8.95c-0.9-2.93-1.83-5.85-2.8-8.75c-0.97-2.93-1.57-5.98-1.8-9.15c-0.17-4.5,0.18-9.12,1.05-13.85
			c0.83-4.7,1.62-9.3,2.35-13.8l1.7-9.05c0.83-4.8,1.73-10.17,2.7-16.1c0.9-5.93,1.58-11.33,2.05-16.2 M23.27-439.38
			c-0.17,6.43,0.15,13.63,0.95,21.6c0.77,7.97,1.63,15.13,2.6,21.5l2.05,12.45c0.9,4.5,1.85,9.03,2.85,13.6
			c1.03,4.6,1.93,9.18,2.7,13.75c0,0.97-0.45,2.6-1.35,4.9c-0.83,2.37-0.97,4.98-0.4,7.85c0.57,2.83,2.93,5.55,7.1,8.15
			c-3.6,0.8-6.77,0.88-9.5,0.25c-2.7-0.63-4.78-1.2-6.25-1.7c-1.4-0.5-1.98-0.18-1.75,0.95l1,2.85l2.55,5.25
			c1.17,2.1,2.68,3.88,4.55,5.35c1.93,1.53,3.93,3.42,6,5.65c2.17,2.33,4.18,5.73,6.05,10.2c2.2,5.7,3.67,11.68,4.4,17.95
			c0.73,6.3,1.07,12.65,1,19.05c-0.07,6.37-0.15,12.52-0.25,18.45l-0.1,6.1c0,3.27-0.08,6.9-0.25,10.9c-0.1,4-0.32,7.62-0.65,10.85
			 M63.48-420.73c0.57,6.37,1.1,13.5,1.6,21.4c0.53,7.83,0.93,14.95,1.2,21.35l0.5,12.35c0,5.77-0.25,11.87-0.75,18.3
			c-0.5,6.43-0.9,12.72-1.2,18.85c-0.2,6.17,0.12,11.75,0.95,16.75c0.63,2.9,1.57,5.78,2.8,8.65c1.23,2.9,2.5,5.78,3.8,8.65
			c1.37,2.87,2.5,5.72,3.4,8.55c2.53,8.73,4.5,17.73,5.9,27c1.43,9.27,2.12,18.47,2.05,27.6l-0.45,6.1c-0.2,3.17-0.53,6.75-1,10.75
			c-0.4,3.97-0.82,7.52-1.25,10.65 M25.23-262.88c1.17-5.87,1.57-11.7,1.2-17.5c-0.37-5.8-0.92-11.65-1.65-17.55
			c-0.77-5.8-1.18-11.6-1.25-17.4"/>
		<line class="st1" x1="36.23" y1="244.98" x2="41.02" y2="244.73"/>
	</g>
</symbol>
<g>
	<g id="Capa_6_1_">
	</g>
	<g id="Capa_4_1_">
	</g>
	<g id="Capa_3_1_">
	</g>
	<g id="Capa_2_1_">
		
			<use xlink:href="#d2"  width="321.7" height="888.5" x="-160.85" y="-444.25" transform="matrix(-1.2056 0 0 -1.2056 192.9202 534.5909)" style="overflow:visible;"/>
	</g>
	<g id="Capa_1_2_">
	</g>
</g>
</svg>
