<?xml version="1.0" encoding="utf-8"?>
<!-- Generator: Adobe Illustrator 24.0.1, SVG Export Plug-In . SVG Version: 6.00 Build 0)  -->
<svg version="1.1" id="Layer_1" xmlns="http://www.w3.org/2000/svg" xmlns:xlink="http://www.w3.org/1999/xlink" x="0px" y="0px"
	 viewBox="0 0 216.81 328.29" style="enable-background:new 0 0 216.81 328.29;" xml:space="preserve">
<style type="text/css">
	
		.st0{fill-rule:evenodd;clip-rule:evenodd;fill:none;stroke:#FFFFFF;stroke-width:9.75;stroke-linecap:round;stroke-linejoin:round;stroke-miterlimit:3;}
	
		.st1{fill-rule:evenodd;clip-rule:evenodd;fill:none;stroke:#FFFFFF;stroke-width:11.3;stroke-linecap:round;stroke-linejoin:round;stroke-miterlimit:3;}
</style>
<symbol  id="d6" viewBox="-305.54 -462.64 611.08 925.27">
	<g>
		<path class="st0" d="M69.09,370.11c1.53,1.6,2.92,3.6,4.15,6c1.17,2.43,2.13,4.68,2.9,6.75l1.45,4.2c1.93,6.07,3.27,12.32,4,18.75
			c0.38,3.71,0.56,7.39,0.52,11.05c-0.03,2.73-0.17,5.45-0.42,8.15l-1.15,6.5c-0.67,3.3-1.55,6.88-2.65,10.75
			c-1.13,3.93-2.4,7.42-3.8,10.45 M42.69,425.56c-0.87-2.87-2.13-5.77-3.77-8.7c-0.49-0.88-1.01-1.76-1.58-2.65
			c-2.5-3.83-4.93-7.23-7.3-10.2l-5.25-5.85c-2.2-2.17-4.57-4.23-7.1-6.2c-2.5-1.97-5.1-3.75-7.8-5.35l-3.65-2.25
			c-1.9-1.13-4.07-2.22-6.5-3.25c-2.4-1.03-4.68-1.62-6.85-1.75 M53.64,456.51c-2.07,0.7-4.45,1.1-7.15,1.2
			c-2.73,0.1-5.22,0.05-7.45-0.15l-4.35-0.4c-6.33-0.43-12.68-1.32-19.05-2.65c-6.3-1.3-12.48-2.95-18.55-4.95
			c-3.03-0.97-6.03-2.05-9-3.25c-2.97-1.1-5.9-2.33-8.8-3.7l-7.65-4.25c-3.83-2.23-8.03-4.83-12.6-7.8c-4.53-3-8.48-5.97-11.85-8.9
			 M1.84,371.61c2.17,0.4,4.57,0.98,7.2,1.75c2.57,0.83,4.88,1.6,6.95,2.3l3.95,1.45c5.8,2.43,11.37,5.37,16.7,8.8
			c5.33,3.43,10.33,7.3,15,11.6l3.65,3.85c1.9,1.97,3.93,4.25,6.1,6.85c2.2,2.57,4.05,4.98,5.55,7.25 M39.09,353.81
			c1.27,1.7,2.9,3.05,4.9,4.05c1.97,1.03,4.08,1.72,6.35,2.05c2.27,0.37,4.42,0.33,6.45-0.1 M55.14,397.81
			c6.07-9.17,10.52-19.45,13.35-30.85c2.8-11.43,4.22-23.33,4.25-35.7c0.07-12.37-1.05-24.52-3.35-36.45
			c1.33-3.3,3.22-5.77,5.65-7.4c2.47-1.57,5.13-2.02,8-1.35c1.67,0.47,3.2,1.37,4.6,2.7c1.37,1.33,2.6,2.87,3.7,4.6
			c1.03,1.83,1.95,3.67,2.75,5.5c1.53,3.47,2.48,7.47,2.85,12c0.37,4.57-0.07,8.9-1.3,13c-1.27,4.1-3.55,7.27-6.85,9.5
			c-1.2,0.7-2.68,1.1-4.45,1.2c-1.77,0.13-3.53-0.12-5.3-0.75c-1.73-0.67-3.22-1.77-4.45-3.3 M37.04,320.01l-0.1,8.85
			 M-42.86,389.86c-1.4-16.67-1.72-34.22-0.95-52.65c0.8-18.47,3.15-36.05,7.05-52.75c3.87-16.77,9.78-30.93,17.75-42.5
			c7.9-11.57,18.28-18.77,31.15-21.6c8.77-1.5,16.97,0.97,24.6,7.4c7.57,6.37,14.18,15.47,19.85,27.3
			c5.67,11.77,9.93,25.02,12.8,39.75c-0.2,0.5-0.38,1-0.55,1.5c-0.13,0.5-0.27,0.98-0.4,1.45 M-19.01,383.26
			c8.27,5.47,15.62,11.97,22.05,19.5c3.85,4.5,7.35,9.2,10.52,14.1c2.17,3.34,4.17,6.77,6.02,10.3 M-61.36,399.91
			c-0.27-2.17-0.4-4.62-0.4-7.35c0.03-2.77,0.12-5.25,0.25-7.45l0.2-4.2c0.2-3.2,0.43-6.38,0.7-9.55c0.23-3.17,0.5-6.35,0.8-9.55
			l0.75-6.3c0.4-3.3,0.88-6.98,1.45-11.05c0.57-4.07,1.1-7.75,1.6-11.05 M-53.31,331.26c-1.53,1.3-3.28,2.1-5.25,2.4
			c-2.03,0.37-4,0.35-5.9-0.05c-1.9-0.43-3.48-1.13-4.75-2.1c-3.3-2.7-5.35-6.2-6.15-10.5c-0.77-4.3-0.67-8.65,0.3-13.05
			c1-4.47,2.57-8.28,4.7-11.45c1.07-1.67,2.3-3.3,3.7-4.9c1.4-1.57,2.93-2.9,4.6-4c1.7-1.07,3.5-1.67,5.4-1.8
			c2.47-0.13,4.72,0.38,6.75,1.55c2.03,1.13,3.73,2.8,5.1,5c1.3,2.17,2.15,4.72,2.55,7.65 M0.69,317.31l-0.15,8.8 M-8.61,262.51
			c1.23,2.33,3.25,4.05,6.05,5.15c2.8,1.1,5.98,1.63,9.55,1.6c3.6-0.03,7.22-0.6,10.85-1.7 M29.54,290.46
			c-1.83-1.17-3.92-1.95-6.25-2.35c-2.33-0.4-4.58-0.32-6.75,0.25c-2.2,0.63-4.05,1.85-5.55,3.65"/>
		<path class="st1" d="M31.49,176.06c-0.83,7.13-1.17,14.3-1,21.5c0.2,7.23,0.85,14.4,1.95,21.5 M45.74,184.81
			c3.1,0,6.43-0.45,10-1.35c3.63-0.9,6.88-1.9,9.75-3l5.55-2c4.27-1.4,8.47-2.92,12.6-4.55c4.13-1.7,8.23-3.4,12.3-5.1l9.3-4.05
			c4.77-2.1,10.17-4.48,16.2-7.15c5.93-2.73,11.37-5.27,16.3-7.6c-1.77,1.33-3.55,2.58-5.35,3.75c-1.9,1.17-3.73,2.05-5.5,2.65
			 M149.04,139.81c8.62-8.34,17.29-17.32,26.02-26.95c2.65-2.92,5.31-5.91,7.98-8.95c11.4-13,22.67-26.35,33.8-40.05
			c-0.13,1.5-0.42,2.98-0.85,4.45c-0.47,1.47-1.13,2.92-2,4.35 M137.74,150.01c0.13-0.07,0.25-0.12,0.35-0.15
			c0.13-0.07,0.27-0.2,0.4-0.4c2.47-2.07,4.65-3.97,6.55-5.7l4-3.95 M137.74,150.01c0.23-0.17,0.48-0.35,0.75-0.55 M2.54,346.26
			c-0.97,0.37-2.03,0.77-3.2,1.2c-1.23,0.4-2.32,0.75-3.25,1.05l-1.85,0.55c-1.13,0.37-2.25,0.68-3.35,0.95
			c-1.13,0.3-2.3,0.6-3.5,0.9l-1.45,0.3c-0.83,0.2-1.75,0.38-2.75,0.55c-0.97,0.23-1.83,0.42-2.6,0.55 M-136.41,141.21
			c-3.57-5.37-7.93-11.02-13.1-16.95c-3.54-4.14-6.91-7.94-10.1-11.4c-1.47-1.59-2.91-3.1-4.3-4.55l-8.55-9.05
			c-12.77-13.17-25.52-26.47-38.25-39.9c-12.7-13.4-25.07-27.08-37.1-41.05c-12.1-13.97-23.58-28.4-34.45-43.3l-3.8-4.9
			c-1.97-2.5-4.03-5.38-6.2-8.65c-2.27-3.3-4-6.43-5.2-9.4 M-34.01,188.11c3.07,5.6,5.38,11.52,6.95,17.75
			c1.57,6.27,2.53,12.65,2.9,19.15c0.43,6.43,0.43,12.82,0,19.15 M-40.26,182.36c1.2-2.8,2.72-5.8,4.55-9
			c1.8-3.3,3.53-6.22,5.2-8.75l3.7-4.95c5.1-4.53,11.42-7.62,18.95-9.25c7.47-1.67,15.03-1.8,22.7-0.4
			c7.6,1.47,14.22,4.57,19.85,9.3 M-135.56,140.81c5.1,9.97,12.3,17.72,21.6,23.25c9.27,5.6,19.37,10,30.3,13.2
			c10.93,3.23,21.42,6.25,31.45,9.05 M-111.16,40.51c-3.17-0.9-6.42-2.48-9.75-4.75c-3.27-2.23-6.18-4.42-8.75-6.55l-4.8-4.1
			c-4.63-3.47-9.2-6.95-13.7-10.45c-4.53-3.53-9.05-7.08-13.55-10.65c2.3-1.6,4.63-3.13,7-4.6c2.3-1.37,4.52-2.52,6.65-3.45
			 M-101.31-33.84c-1.4,12.03-2.47,24.1-3.2,36.2c-0.67,12.07-1.52,24.15-2.55,36.25c-1.03,12.03-2.77,23.93-5.2,35.7
			 M-165.81-125.09c5.4-2.67,11.05-3.88,16.95-3.65c5.9,0.23,11.85,0.57,17.85,1c6,0.43,11.83-0.42,17.5-2.55 M-113.71-140.94
			c1.1,12.07,2.53,24.18,4.3,36.35c1.7,12.07,3.15,24.18,4.35,36.35c1.17,12.13,1.45,24.3,0.85,36.5 M-207.91-29.89
			c3.27,2.43,6.97,5.13,11.1,8.1c4.13,2.9,7.88,5.53,11.25,7.9l6.35,4.5c2.97,2.17,5.92,4.38,8.85,6.65
			c2.83,2.23,5.72,4.48,8.65,6.75c-3.6,2.47-6.73,4.73-9.4,6.8l-5.25,4.3c-3.3,3.03-6.47,6.33-9.5,9.9
			c-3.03,3.6-5.73,7.28-8.1,11.05l-2.9,5.35c-1.4,2.8-2.9,6-4.5,9.6c-1.57,3.57-2.87,6.87-3.9,9.9 M-299.76-42.64
			c-0.4-3.1,0.15-6.3,1.65-9.6c1.6-3.2,3.37-6.08,5.3-8.65c2-2.47,3.37-4.22,4.1-5.25c6.73-9.9,14.32-19.27,22.75-28.1
			c8.53-8.87,17.4-17.3,26.6-25.3c9.3-8.1,18.52-15.97,27.65-23.6l5.8-4.75c3.03-2.53,6.43-5.35,10.2-8.45
			c3.77-3.17,7.15-6.05,10.15-8.65 M-223.76-38.94c3.7-5.2,7.58-11.2,11.65-18c4.07-6.8,7.68-13.03,10.85-18.7l5.95-10.65
			c2.37-4,4.75-7.95,7.15-11.85c2.5-3.93,5.07-7.78,7.7-11.55l3.55-5.1c1.73-2.7,3.88-5.57,6.45-8.6c2.5-3.03,5.05-5.48,7.65-7.35
			 M-179.31-170.39c5.83-8.33,11.92-16.47,18.25-24.4c6.3-7.97,13.4-15.35,21.3-22.15c7,2.97,13.47,6.82,19.4,11.55
			c6.37,5.07,12.17,10.7,17.4,16.9 M-141.31-217.49c0.5,0.2,1.02,0.38,1.55,0.55 M-98.56-187.14c3.77-0.8,6.92-0.43,9.45,1.1
			c2.57,1.57,4.52,3.83,5.85,6.8c1.27,2.93,1.97,6.03,2.1,9.3c-7.17,4-14.18,8.1-21.05,12.3c-6.93,4.27-13.77,8.62-20.5,13.05
			 M129.44-233.04c-6.2-1.83-13.27-3.3-21.2-4.4c-7.9-1.03-15.1-1.78-21.6-2.25l-12.6-0.75c-18.7-0.9-37.4-1.05-56.1-0.45
			c-18.7,0.6-37.28,2.27-55.75,5c-18.47,2.73-36.68,6.83-54.65,12.3l-5.85,2c-3.03,1.1-6.47,2.35-10.3,3.75
			c-3.77,1.4-7.17,2.7-10.2,3.9 M-108.86-232.89c0.23-3.33-0.1-6.95-1-10.85c-1-3.93-2.07-7.45-3.2-10.55l-2.1-5.9
			c-1.63-6.4-2.97-12.6-4-18.6c-1.03-6.03-1.55-12.08-1.55-18.15c0-6.07,0.82-12.35,2.45-18.85c1.27-4.5,2.9-8.9,4.9-13.2
			c1.97-4.3,3.58-8.73,4.85-13.3l1-12.6c0.23-6.43,0.48-13.65,0.75-21.65c0.3-7.9,0.65-15.07,1.05-21.5c1.3-4.2,2.13-8.45,2.5-12.75
			c0.3-4.33,0.82-8.62,1.55-12.85 M-50.56-253.04c-4.37-7.33-9.93-13.67-16.7-19c-6.73-5.3-13.98-9.62-21.75-12.95 M10.94-276.34
			c0.9-13.8,0.87-27.62-0.1-41.45c-0.97-13.83-2.92-27.53-5.85-41.1 M216.84,63.86c7.17-8.83,14.17-17.52,21-26.05
			c6.87-8.57,13.53-16.83,20-24.8l5.7-7.2c3.03-3.83,6.38-8.12,10.05-12.85c3.7-4.73,7-9.02,9.9-12.85 M216.84,63.86
			c0.23-5.3-1.13-10.5-4.1-15.6c-3-5.1-6.65-9.75-10.95-13.95c-4.3-4.17-8.33-7.57-12.1-10.2c-0.87-0.67-2.4-1.78-4.6-3.35
			c-2.23-1.53-4.8-3.02-7.7-4.45c-2.93-1.47-5.85-2.38-8.75-2.75l6.25-5.4c2.13-1.8,4.27-3.58,6.4-5.35
			c3.47-2.93,6.9-5.88,10.3-8.85c3.4-2.97,6.8-5.93,10.2-8.9l5.45-5.1c2.93-2.63,6.22-5.55,9.85-8.75c3.7-3.23,7.07-6.07,10.1-8.5
			 M126.79-119.64c5.17-0.6,10.45-1.27,15.85-2c5.47-0.8,10.88-1.1,16.25-0.9c5.33,0.1,10.43,1.18,15.3,3.25
			c0.1,0.2,0.22,0.38,0.35,0.55c2.97,5.23,6.13,10.77,9.5,16.6c3.4,6,6.43,11.35,9.1,16.05l5.1,8.9c2.3,3.83,4.67,7.67,7.1,11.5
			c2.37,3.77,4.92,7.4,7.65,10.9l3.85,4.75c1.93,2.37,4.23,4.92,6.9,7.65c2.67,2.73,5.32,4.98,7.95,6.75 M299.89-40.39
			c-2.17-2.43-4.53-5.17-7.1-8.2c-2.6-3.1-4.93-5.88-7-8.35l-3.9-4.75c-5.97-7.23-11.9-14.47-17.8-21.7
			c-5.9-7.17-12.07-14.15-18.5-20.95c-3.27-3.33-6.57-6.63-9.9-9.9c-3.33-3.23-6.72-6.43-10.15-9.6l-9.2-8.65
			c-4.73-4.43-10.2-9.2-16.4-14.3c-6.13-5.03-11.98-9.17-17.55-12.4 M166.09,13.56c0.37-0.07,0.75-0.1,1.15-0.1
			c0.43,0,0.9,0.03,1.4,0.1c-4.8,4.07-9.6,8.1-14.4,12.1c-4.73,4-9.53,8.02-14.4,12.05l-4.65,3.55c-2.5,1.93-5.27,4.12-8.3,6.55
			c-3.03,2.5-5.67,4.83-7.9,7 M117.79,106.31c0.97-15.63,1-31.25,0.1-46.85c-0.93-15.6-2.58-31.15-4.95-46.65
			c-2.3-15.53-5.12-30.93-8.45-46.2 M107.79-39.74c1.2-13.13,1.95-26.32,2.25-39.55c0.3-13.23,0.92-26.43,1.85-39.6 M112.24-146.79
			c1.4,4.57,3.25,8.92,5.55,13.05c2.23,4.1,4.57,8.2,7,12.3 M174.19-119.29c-0.5-0.77-0.95-1.52-1.35-2.25
			c-0.43-0.8-0.87-1.53-1.3-2.2 M93.84-161.44c5.47,4.37,11.12,8.52,16.95,12.45c5.77,4.03,11.68,7.8,17.75,11.3 M142.74-204.19
			c-4.53-0.07-8.5,0.97-11.9,3.1c-3.4,2.13-6.42,4.87-9.05,8.2c-2.53,3.33-4.87,6.73-7,10.2 M193.24-158.89
			c-5.07-4.7-9.83-9.62-14.3-14.75c-4.57-5.17-9.13-10.33-13.7-15.5c-4.5-5.17-9.23-10.08-14.2-14.75 M107.14-177.84
			c-3.3-1.47-6.18-1.87-8.65-1.2c-2.5,0.67-4.52,2.12-6.05,4.35c-1.5,2.27-2.37,5-2.6,8.2 M12.49-368.44
			c2.23,2.3,4.05,5.22,5.45,8.75c1.47,3.53,2.58,6.83,3.35,9.9l1.55,6.2c1.17,4.43,2.15,8.93,2.95,13.5c0.77,4.57,1.47,9.1,2.1,13.6
			l1,9.2c0.47,4.73,0.95,10.03,1.45,15.9c0.47,5.9,0.8,11.25,1,16.05 M110.79-452.24c0.1,4.07,0.22,8.62,0.35,13.65
			c0.07,5.03,0.13,9.58,0.2,13.65v7.75c-0.13,4.67-0.32,9.35-0.55,14.05c-0.27,4.67-0.42,9.33-0.45,14
			c0.17,12.53,1.58,24.9,4.25,37.1c2.73,12.2,5.32,24.38,7.75,36.55c2.43,12.13,3.32,24.45,2.65,36.95l-0.65,6.3
			c-0.43,3.23-1.03,6.78-1.8,10.65c-0.8,3.9-1.87,7.33-3.2,10.3 M4.39-456.99c-1.03,4.6-1.07,9.85-0.1,15.75
			c1.03,5.83,2.25,11.08,3.65,15.75l2.15,8.6c-0.3,1.87-1.02,3.77-2.15,5.7c-1.17,1.97-2.42,3.98-3.75,6.05c-1.33,2-2.33,4.07-3,6.2
			l7.8,3.55l3.3,3c0.67,1.7-0.45,3.12-3.35,4.25c-2.93,1.17-6.37,2.15-10.3,2.95c-3.97,0.77-7.18,1.55-9.65,2.35
			c-1.1,2.13-0.47,3.72,1.9,4.75c2.37,1.1,5.03,2.17,8,3.2c2.97,1.07,4.85,2.73,5.65,5"/>
	</g>
</symbol>
<g>
	<g id="Capa_6_4_">
		
			<use xlink:href="#d6"  width="611.08" height="925.27" x="-305.54" y="-462.64" transform="matrix(0.3548 0 0 -0.3548 108.4049 164.1438)" style="overflow:visible;"/>
	</g>
</g>
</svg>
