<?xml version="1.0" encoding="utf-8"?>
<!-- Generator: Adobe Illustrator 24.0.1, SVG Export Plug-In . SVG Version: 6.00 Build 0)  -->
<svg version="1.1" id="Layer_1" xmlns="http://www.w3.org/2000/svg" xmlns:xlink="http://www.w3.org/1999/xlink" x="0px" y="0px"
	 viewBox="0 0 109.57 221.21" style="enable-background:new 0 0 109.57 221.21;" xml:space="preserve">
<style type="text/css">
	.st0{fill:none;stroke:#FFFFFF;stroke-width:2.9208;stroke-linecap:round;stroke-linejoin:round;stroke-miterlimit:3;}
</style>
<g id="Capa_6">
</g>
<g id="Capa_4">
</g>
<g id="Capa_3">
</g>
<g id="Capa_2">
</g>
<g id="d10">
	<g>
		<path class="st0" d="M4.68,183.79c-0.8-0.84-1.36-1.9-1.68-3.19c-0.33-1.29-0.53-2.52-0.62-3.69l-0.13-2.34
			c-0.62-5.8-0.88-12.17-0.77-19.09c0.14-6.92,0.5-13.85,1.1-20.79c0.62-6.92,1.37-13.28,2.26-19.09l0.73-3.8
			c0.44-1.93,0.95-4.09,1.55-6.48c0.61-2.41,1.21-4.57,1.81-6.48c-0.3,0.47-0.58,0.97-0.84,1.52 M8.93,98.85
			c1.12-1.73,2.53-3.11,4.25-4.13c2.17-1.34,4.54-2.41,7.12-3.23c2.57-0.79,5.02-1.63,7.36-2.52 M83.08,17.05
			c-1.16-1.51-2.59-3.05-4.31-4.62c-1.74-1.54-3.39-2.89-4.95-4.05L70.7,6.15c-1.37-0.78-2.79-1.5-4.25-2.14
			c-1.46-0.64-2.96-1.16-4.49-1.55L59.9,2.04c-1.07-0.17-2.27-0.32-3.58-0.44C55,1.47,53.79,1.43,52.69,1.49 M52.23,9.14
			c0.56,3.09,1.75,5.81,3.58,8.16c1.8,2.36,3.95,4.43,6.44,6.22c2.47,1.8,5,3.42,7.58,4.84 M61.96,11.88
			c0.78,2.33,1.92,4.53,3.4,6.61c1.49,2.08,3.24,3.89,5.26,5.42c2.02,1.52,4.23,2.63,6.64,3.32 M60.68,27.77
			c-2.21-0.6-4.37-1.46-6.48-2.57c-2.1-1.12-4.01-2.49-5.71-4.11c-1.69-1.63-3.04-3.49-4.05-5.6 M44.24,5.49
			c-1.48,2.65-2.7,5.61-3.65,8.87c-0.96,3.29-1.48,6.6-1.57,9.93c-0.06,3.31,0.5,6.38,1.68,9.22 M34.4,60.92
			c-1.09-1.28-1.92-2.94-2.48-5c-0.54-2.06-0.72-4.14-0.55-6.22c0.19-2.07,0.85-3.76,1.97-5.06c1.14-1.31,2.84-1.85,5.09-1.62
			c0.14-0.79,0.29-1.57,0.46-2.35c0.19-0.76,0.39-1.53,0.6-2.28c0.19-0.69,0.6-1.84,1.22-3.45c0.64-1.62,1.47-3.26,2.48-4.93
			c1.04-1.71,2.24-3.01,3.6-3.91 M76.33,65.42c1.37,0.49,2.65,0.46,3.83-0.09c1.18-0.54,2.21-1.37,3.07-2.48
			c0.87-1.12,1.51-2.27,1.94-3.45c0.28-0.8,0.49-1.81,0.64-3.01c0.13-1.18,0.13-2.34-0.02-3.5c-0.17-1.16-0.57-2.09-1.2-2.77
			c-1.33-1.29-2.44-1.96-3.34-2.01c-0.92-0.04-1.71,0.31-2.35,1.04c-0.63,0.73-1.18,1.62-1.64,2.65 M80.59,45.29
			c1.3-3.51,2.22-7.14,2.74-10.9c0.53-3.74,0.8-7.47,0.8-11.19 M71.55,87.77c1.09,0.28,2.3,0.66,3.61,1.15
			c1.32,0.48,2.51,0.93,3.54,1.37l2.01,0.77c2.02,0.68,4.08,1.34,6.19,1.97c2.13,0.6,4.18,1.33,6.15,2.19
			c1.99,0.85,3.83,1.98,5.51,3.38c0.71,0.63,1.67,1.76,2.87,3.4c1.2,1.63,2.31,3.44,3.32,5.44c1.04,2,1.64,3.86,1.81,5.59
			 M39.01,43.14c-0.11-0.02-0.2-0.05-0.29-0.07c-0.11,0-0.2-0.02-0.29-0.04c-0.14,0.81-0.27,1.64-0.38,2.48
			c-0.11,0.84-0.2,1.66-0.29,2.48c-0.28,3.2-0.35,6.46-0.22,9.77c0.13,3.31,0.52,6.55,1.19,9.71l0.38,2.15
			c0.22,1.1,0.54,2.28,0.97,3.56c0.42,1.26,1.01,2.33,1.75,3.19 M40.99,38.47l0.13-0.16l0.43-0.42c0.42-0.34,0.94-0.65,1.59-0.93
			s1.35-0.33,2.1-0.16 M43.52,46.64l-0.18,3.23 M44.37,59.05c0.42,1.35,1.18,2.47,2.26,3.36c1.07,0.88,2.32,1.34,3.76,1.39
			 M54.88,51.44l0.09-2.52 M58.96,39.22c1.43,0.25,2.66,0.91,3.69,1.97c1.01,1.05,1.76,2.24,2.25,3.58 M75.54,31.78
			c-0.05,1.12-0.08,2.38-0.09,3.78c-0.03,1.39-0.04,2.64-0.04,3.76l0.04,2.1c0.08,3.68-0.1,7.83-0.55,12.45
			c-0.47,4.61-1.39,9.08-2.77,13.4c-1.4,4.32-3.46,7.87-6.17,10.64l-0.13,0.11c-0.06,0.03-0.16,0.09-0.31,0.18
			c0.43,2.86,0.99,5.69,1.7,8.49c0.73,2.81,1.78,5.47,3.16,7.96 M50.67,82.35c0.17,0.11,0.35,0.2,0.53,0.26
			c0.17,0.08,0.36,0.15,0.55,0.2c-0.13-0.41-0.27-0.82-0.4-1.22c-0.12-0.41-0.25-0.82-0.38-1.22 M65.4,77.27l0.13,0.93
			c-0.67,0.47-1.81,1.15-3.4,2.04c-1.58,0.88-3.32,1.61-5.22,2.21c-1.89,0.61-3.6,0.74-5.15,0.37c1.02,3.06,2.17,6.08,3.45,9.05
			c1.24,2.99,2.54,5.95,3.92,8.87 M61.11,102.86c1.58,0.13,3.02-0.15,4.31-0.84c1.29-0.66,2.44-1.56,3.45-2.7
			c1.01-1.12,1.9-2.3,2.68-3.54 M33.82,82.64c1.34,0.14,2.68,0.22,4.02,0.26c1.32,0.07,2.63,0.29,3.92,0.68 M50.39,79.79
			c-1.76-0.72-3.58-1.17-5.48-1.35c-1.88-0.18-3.79-0.2-5.71-0.07c-1.91,0.14-3.79,0.34-5.64,0.58 M36.53,105.28
			c-0.75-0.79-1.61-1.49-2.57-2.1c-0.95-0.62-1.86-1.28-2.72-1.97c-0.88-0.68-1.54-1.54-1.99-2.57 M31.53,88.37
			c1.25,0.62,2.57,1.05,3.96,1.31c1.37,0.25,2.73,0.56,4.07,0.93 M30.78,94.81c2.21,0.75,4.07,2,5.59,3.74
			c1.51,1.72,2.92,3.57,4.25,5.57c1.36,2.01,2.87,3.78,4.55,5.33c1.7,1.54,3.82,2.51,6.35,2.9 M32.12,79.79
			c-0.62,3.05-1.11,6.11-1.48,9.18c-0.39,3.09-0.89,6.17-1.5,9.22 M50.97,71.21l-6.02-2.23 M19.92,123.15
			c-0.49,2.13-0.77,4.54-0.84,7.23c-0.06,2.71-0.02,5.18,0.11,7.41l0.35,4.38c0.2,1.59,0.41,3.2,0.64,4.82
			c0.27,1.58,0.59,3.16,0.97,4.73l0.46,2.23c0.24,1.12,0.6,2.29,1.06,3.52c0.5,1.2,1.17,2.17,2.01,2.9
			c1.12,0.12,2.36,0.25,3.74,0.38c1.36,0.12,2.59,0.22,3.71,0.31l2.1,0.16c1.58,0.09,3.17,0.17,4.76,0.24
			c1.62,0.04,3.22,0.07,4.8,0.09l3.19-0.09c1.68-0.05,3.54-0.09,5.6-0.11c2.07-0.02,3.94,0.01,5.62,0.07 M69.83,179.65
			c-0.71-2.11-1.46-4.49-2.25-7.14c-0.8-2.64-1.5-5.03-2.1-7.17l-1.17-4.13c-1.11-4.24-2.3-8.39-3.58-12.45
			c-1.26-4.04-2.54-8.07-3.83-12.1c-1.31-4.02-2.59-8.12-3.83-12.29l-0.64-1.99c-0.35-1.06-0.73-2.25-1.13-3.58
			c-0.39-1.32-0.69-2.51-0.91-3.58 M86.83,163.87c-0.68-1.54-1.44-3.27-2.28-5.18c-0.84-1.91-1.61-3.64-2.3-5.17l-1.28-2.94
			c-1.88-3.96-3.84-7.85-5.9-11.66c-2.04-3.78-4.02-7.61-5.93-11.48c-1.92-3.85-3.6-7.86-5.04-12.03l-0.71-2.03
			c-0.37-1.07-0.75-2.28-1.15-3.63c-0.42-1.34-0.74-2.57-0.97-3.69 M63.5,177.5c-1.05,0.24-2.24,0.52-3.58,0.84
			c-1.32,0.33-2.53,0.61-3.61,0.84l-2.06,0.49c-4.12,0.75-8.27,1.5-12.43,2.25c-4.2,0.78-8.39,1.46-12.58,2.06
			c-4.21,0.62-8.41,1.06-12.61,1.33l-2.77,0.22c-1.38,0.09-2.89,0.07-4.55-0.05c-1.63-0.15-3.07-0.56-4.34-1.2 M82.37,123.79
			c-0.74,2.13-1.24,4.31-1.48,6.54c-0.23,2.22-0.39,4.46-0.46,6.74c-0.06,2.27-0.19,4.5-0.38,6.72 M108.1,119.2
			c-0.05,1.13-0.07,2.4-0.07,3.8c0,1.4,0.02,2.68,0.04,3.82v2.12c-0.4,6.45-1.24,12.9-2.52,19.35c-1.24,6.43-2.68,12.76-4.34,18.99
			c-0.39,1.59-0.79,3.16-1.22,4.71c-0.44,1.57-0.87,3.14-1.3,4.71l-0.73,2.61c-0.39,1.35-0.81,2.88-1.26,4.58
			c-0.48,1.68-0.89,3.2-1.26,4.55 M82.36,147.79c2.83-0.76,5.53-0.74,8.11,0.05c2.55,0.81,4.88,2.13,6.99,3.94s3.91,3.84,5.39,6.12
			 M93.25,192.93c-2.46,1.56-5.08,2.29-7.87,2.19c-2.8-0.11-5.49-0.83-8.07-2.17c-2.6-1.31-4.79-2.99-6.57-5.06 M86.95,198.08
			c-0.08,2.41-0.14,4.84-0.16,7.27c-0.01,2.42-0.12,4.85-0.31,7.28c-0.17,2.4-0.56,4.77-1.17,7.12 M24.8,210.28
			c-0.42-3.83-0.66-7.67-0.75-11.52c-0.09-3.85-0.06-7.69,0.07-11.54 M16.67,147.2c-1.38-0.67-2.81-0.93-4.29-0.8
			c-1.48,0.12-2.94,0.48-4.38,1.06s-2.79,1.21-4.03,1.88"/>
	</g>
</g>
</svg>
