<?xml version="1.0" encoding="utf-8"?>
<!-- Generator: Adobe Illustrator 24.0.1, SVG Export Plug-In . SVG Version: 6.00 Build 0)  -->
<svg version="1.1" id="Layer_1" xmlns="http://www.w3.org/2000/svg" xmlns:xlink="http://www.w3.org/1999/xlink" x="0px" y="0px"
	 viewBox="0 0 141.19 327.84" style="enable-background:new 0 0 141.19 327.84;" xml:space="preserve">
<style type="text/css">
	
		.st0{fill-rule:evenodd;clip-rule:evenodd;fill:none;stroke:#FFFFFF;stroke-width:11.3;stroke-linecap:round;stroke-linejoin:round;stroke-miterlimit:3;}
	
		.st1{fill-rule:evenodd;clip-rule:evenodd;fill:none;stroke:#FFFFFF;stroke-width:9.75;stroke-linecap:round;stroke-linejoin:round;stroke-miterlimit:3;}
</style>
<symbol  id="d3" viewBox="-198.97 -462.01 397.94 924.02">
	<g>
		<path class="st0" d="M131.03,139.84c0.93-3,2.03-6.38,3.3-10.15c1.27-3.7,2.42-7.07,3.45-10.1l1.95-5.7c4.9-13.33,9.9-26.67,15-40
			c5.1-13.3,10-26.7,14.7-40.2c0.17,0.6,0.33,1.18,0.5,1.75c0.17,0.57,0.32,1.15,0.45,1.75 M-139.37,135.94
			c1.43,4.47,4.12,8.68,8.05,12.65c3.9,4.07,7.85,7.52,11.85,10.35c4,2.9,6.83,4.87,8.5,5.9c3.93,2.57,7.93,4.92,12,7.05
			c4.1,2.13,8.3,4.1,12.6,5.9l5.9,2.1c3.07,0.97,6.5,2,10.3,3.1c3.83,1.07,7.35,1.8,10.55,2.2 M-178.57,14.59l1.15-1.15
			c0.4-0.33,0.8-0.7,1.2-1.1c1.7,14.87,3.78,29.68,6.25,44.45c2.5,14.83,5.7,29.57,9.6,44.2l2.05,5.95c1.1,3,2.15,6.42,3.15,10.25
			c0.93,3.8,1.33,7.33,1.2,10.6 M33.48,187.59c5.37-1.43,11.33-3.2,17.9-5.3c6.6-2.07,12.53-4,17.8-5.8l10.15-3.45
			c4.3-1.57,8.58-3.22,12.85-4.95c4.3-1.77,8.47-3.68,12.5-5.75l5.75-2.7c2.9-1.33,5.93-3.03,9.1-5.1c3.2-2.17,5.7-4.55,7.5-7.15
			 M-36.12,189.19c3.6,8.67,6.33,17.55,8.2,26.65c1.8,9.17,2.55,18.32,2.25,27.45 M29.83,173.99c-1.57,6.47-2.4,13.27-2.5,20.4
			c-0.13,7.07,0.07,14.97,0.6,23.7 M-45.82,182.59c3.4-7.07,8.82-12.78,16.25-17.15c7.4-4.27,15.58-7.15,24.55-8.65
			c9-1.5,17.6-1.53,25.8-0.1c8.17,1.5,14.77,4.57,19.8,9.2 M107.48-176.51l-2.5,22.5c-1,11.17-1.98,23.35-2.95,36.55
			c-0.93,13.23-1.72,24.82-2.35,34.75l-0.95,16.85c0.03,4.6,0.15,9.18,0.35,13.75c0.17,4.57,0.3,9.13,0.4,13.7
			c0.37,18.27,0.57,36.6,0.6,55c0,18.4-0.78,36.7-2.35,54.9l-0.4,6.15c-0.23,3.2-0.7,6.7-1.4,10.5c-0.63,3.83-1.62,7.2-2.95,10.1
			 M107.93-6.76c4.97-9.17,9.85-18.42,14.65-27.75c4.77-9.3,9.7-18.53,14.8-27.7 M144.03-74.01c-2.6-2.07-5-4.67-7.2-7.8
			c-2.27-3.13-4.15-6.12-5.65-8.95l-2.95-5.75c-3.93-9.83-6.77-21.22-8.5-34.15c-1.67-12.97-2.97-26.1-3.9-39.4
			c-0.87-13.4-2.05-25.53-3.55-36.4l-1.3-7.8c-0.7-4.07-1.48-8.73-2.35-14c-0.93-5.23-1.82-10.25-2.65-15.05
			c-0.1-0.73-0.2-1.48-0.3-2.25c-0.13-0.7-0.28-1.4-0.45-2.1 M-128.52-95.01c1.33,5.27,2.87,11.2,4.6,17.8
			c1.7,6.53,3.23,12.47,4.6,17.8l2.7,10.15c2.27,8.73,4.58,17.45,6.95,26.15s4.65,17.42,6.85,26.15l1.5,5.75
			c0.73,3.07,1.53,6.48,2.4,10.25c0.93,3.8,1.72,7.23,2.35,10.3 M-100.62-21.56c0.73-3.1,1.53-6.63,2.4-10.6
			c0.93-3.93,1.72-7.48,2.35-10.65l1.15-6.2c0.33-5.97,0.15-12.03-0.55-18.2c-0.63-6.17-1.47-12.33-2.5-18.5
			c-0.97-6.2-1.75-12.35-2.35-18.45l-0.6-9.3c-0.3-4.87-0.7-10.3-1.2-16.3c-0.53-6.1-1.15-11.55-1.85-16.35 M-176.22,12.34
			c5.73-5.5,11.78-10.8,18.15-15.9c6.4-5.1,13.23-9.22,20.5-12.35c7.27-3.13,15.08-4.52,23.45-4.15 M-190.02-105.46
			c0.7,4.8,1.45,10.18,2.25,16.15c0.83,5.93,1.57,11.3,2.2,16.1l1.1,9.2c1.53,12.8,2.93,25.57,4.2,38.3
			c1.27,12.67,2.62,25.35,4.05,38.05 M-193.32-121.61c1.23-3,2.37-6.45,3.4-10.35c1.03-3.87,1.9-7.4,2.6-10.6l1.3-6.05
			c2.5-9.1,5.33-18.02,8.5-26.75c3.2-8.77,6.73-17.43,10.6-26c1.97-4.27,3.97-8.48,6-12.65c2.1-4.23,4.18-8.47,6.25-12.7l5.55-11.2
			c2.9-5.8,6.3-12.23,10.2-19.3c3.8-7.1,7.5-13.35,11.1-18.75 M-105.17-256.26c-1.5,4.6-2.85,9.78-4.05,15.55
			c-1.23,5.87-2.22,11.17-2.95,15.9l-1.3,9.3c-0.6,4.57-1.07,9.17-1.4,13.8c-0.4,4.6-0.78,9.22-1.15,13.85
			c-0.73,9.2-1.65,18.43-2.75,27.7c-1.07,9.2-2.63,18.32-4.7,27.35l-1.4,6.1c-0.77,3.1-1.78,6.53-3.05,10.3
			c-1.33,3.7-2.92,6.88-4.75,9.55 M-96.97-202.81c4.97-4.13,10.9-7.95,17.8-11.45c6.93-3.6,13.35-6.58,19.25-8.95l11.9-4.55
			c8.83-2.53,17.87-4.23,27.1-5.1c9.33-0.83,18.58-1.27,27.75-1.3c3.23-0.07,8.58,0.1,16.05,0.5c7.4,0.47,15.77,1.42,25.1,2.85
			c9.37,1.53,18.57,3.77,27.6,6.7c9.03,3.03,16.83,7.03,23.4,12 M-129.37-284.01c3.3-0.3,6.17-1.47,8.6-3.5
			c2.47-1.97,4.72-4.28,6.75-6.95c2.03-2.67,4.1-5.1,6.2-7.3 M-12.22-289.76c-5.97,0.23-11.7,1.38-17.2,3.45
			c-5.5,2.17-10.53,5.1-15.1,8.8c-4.63,3.7-8.57,8.03-11.8,13 M-53.47-263.86c-4.07,2.13-8.38,3.68-12.95,4.65
			c-4.57,1-9.13,1.5-13.7,1.5 M-82.92-257.81c-2.6,0.07-5.23-0.13-7.9-0.6c-2.6-0.47-5.23-0.75-7.9-0.85
			c-2.6-0.13-5.15,0.38-7.65,1.55 M-109.67-311.91c7.07-0.47,13.87,0.4,20.4,2.6c6.6,2.27,12.97,5.17,19.1,8.7
			c6.17,3.57,12.13,7.12,17.9,10.65 M-50.62-297.16c2.73-1.57,5.8-3.33,9.2-5.3c3.5-1.9,6.98-3.35,10.45-4.35
			c3.4-0.9,6.43-0.67,9.1,0.7c2.73,1.4,4.65,4.65,5.75,9.75 M-80.82-348.46c-6.9,5.6-13.73,11.3-20.5,17.1
			c-6.73,5.83-13.33,11.77-19.8,17.8 M4.73-323.11c0.7,6.47,1.33,13,1.9,19.6c0.63,6.57,0.93,13.12,0.9,19.65
			c-0.07,6.53-0.72,13.05-1.95,19.55 M3.53-360.71c3.77,6.37,6.92,13.02,9.45,19.95c2.5,6.97,4.58,14.03,6.25,21.2
			c1.73,7.23,3.23,14.45,4.5,21.65 M66.93-262.66c0.47-3.7-0.58-7.52-3.15-11.45c-2.47-3.97-5.42-7.73-8.85-11.3
			c-3.47-3.67-6.38-6.83-8.75-9.5l-2.35-3.35v-2.2c1.37-5.57,3.42-8.25,6.15-8.05c2.77,0.23,5.8,1.97,9.1,5.2
			c3.3,3.3,6.47,6.77,9.5,10.4c3,3.73,5.48,6.32,7.45,7.75 M105.98-243.31c-3.17-3.3-6.95-5.82-11.35-7.55
			c-4.33-1.73-8.85-3.35-13.55-4.85c-4.63-1.5-8.95-3.53-12.95-6.1 M75.08-300.46c4.63-1.03,9.22-2.5,13.75-4.4
			c4.5-1.93,9.07-3.53,13.7-4.8c4.63-1.2,9.42-1.32,14.35-0.35 M102.88-304.46c4.57,4.6,9.02,9.32,13.35,14.15
			c4.3,4.87,8.65,9.72,13.05,14.55 M188.53-35.36c-1.1,5.43-2.5,11.45-4.2,18.05c-1.67,6.67-3.25,12.67-4.75,18l-2.85,10.25
			c-1.17,3.83-2.37,7.65-3.6,11.45c-1.2,3.77-2.43,7.53-3.7,11.3c-2.8-8.03-7.23-15.3-13.3-21.8c-6.1-6.53-13.13-11.63-21.1-15.3
			c-8-3.7-16.28-5.35-24.85-4.95 M130.83-265.11c1.87,5.33,4.05,11.27,6.55,17.8c2.47,6.57,4.75,12.48,6.85,17.75l3.9,10.05
			c1.73,4.37,3.47,8.68,5.2,12.95c1.73,4.33,3.45,8.68,5.15,13.05c4.33,11.4,8.58,23,12.75,34.8c4.17,11.77,7.98,23.65,11.45,35.65
			c3.43,11.97,6.25,24,8.45,36.1l0.85,6.1c0.4,3.23,0.75,6.82,1.05,10.75c0.3,4,0.37,7.62,0.2,10.85 M103.13-340.56
			c-3.63-2.73-7.42-5.78-11.35-9.15c-3.9-3.37-8.08-5.88-12.55-7.55c-4.4-1.73-9.12-1.53-14.15,0.6 M114.28-321.71
			c2.23-10.9,2.68-21.53,1.35-31.9c-1.33-10.37-3.38-20.62-6.15-30.75c-2.77-10.13-5.23-20.27-7.4-30.4
			c-2.2-10.13-3.03-20.38-2.5-30.75 M83.53-366.91l16.5,8.8 M13.78-358.66c-1-2-3.97-4.1-8.9-6.3c-4.9-2.27-9.9-4.48-15-6.65
			c-5.17-2.07-8.55-3.93-10.15-5.6c-1.63-1.63,0.35-2.83,5.95-3.6c11.07,1.93,17.22,0.2,18.45-5.2c1.2-5.37,0.02-12.57-3.55-21.6
			c-3.6-9.03-7.12-18.07-10.55-27.1c-3.47-9.1-4.33-16.32-2.6-21.65 M-117.92-321.71c2.73-9.8,6.53-19.25,11.4-28.35
			c4.8-9.03,10.75-17.22,17.85-24.55 M-114.02-452.91c-2.53,11.7-4.18,23.5-4.95,35.4c-0.7,11.87-1.25,23.75-1.65,35.65
			c-0.4,11.9-1.42,23.75-3.05,35.55"/>
		<path class="st1" d="M65.53,369.49c1.53,1.6,2.92,3.6,4.15,6c1.17,2.43,2.13,4.68,2.9,6.75l1.45,4.2c1.93,6.07,3.27,12.32,4,18.75
			c0.67,6.47,0.7,12.87,0.1,19.2l-1.15,6.5c-0.67,3.3-1.55,6.88-2.65,10.75c-1.13,3.93-2.4,7.42-3.8,10.45 M-1.72,370.99
			c2.17,0.4,4.57,0.98,7.2,1.75c2.57,0.83,4.88,1.6,6.95,2.3l3.95,1.45c5.8,2.43,11.37,5.37,16.7,8.8c5.33,3.43,10.33,7.3,15,11.6
			l3.65,3.85c1.9,1.97,3.93,4.25,6.1,6.85c2.2,2.57,4.05,4.98,5.55,7.25 M51.58,397.19c6.07-9.17,10.52-19.45,13.35-30.85
			c2.8-11.43,4.22-23.33,4.25-35.7c0.07-12.37-1.05-24.52-3.35-36.45c1.33-3.3,3.22-5.77,5.65-7.4c2.47-1.57,5.13-2.02,8-1.35
			c1.67,0.47,3.2,1.37,4.6,2.7c1.37,1.33,2.6,2.87,3.7,4.6c1.03,1.83,1.95,3.67,2.75,5.5c1.53,3.47,2.48,7.47,2.85,12
			c0.37,4.57-0.07,8.9-1.3,13c-1.27,4.1-3.55,7.27-6.85,9.5c-1.2,0.7-2.68,1.1-4.45,1.2c-1.77,0.13-3.53-0.12-5.3-0.75
			c-1.73-0.67-3.22-1.77-4.45-3.3 M50.08,455.89c-2.07,0.7-4.45,1.1-7.15,1.2c-2.73,0.1-5.22,0.05-7.45-0.15l-4.35-0.4
			c-6.33-0.43-12.68-1.32-19.05-2.65c-6.3-1.3-12.48-2.95-18.55-4.95c-3.03-0.97-6.03-2.05-9-3.25c-2.97-1.1-5.9-2.33-8.8-3.7
			l-7.65-4.25c-3.83-2.23-8.03-4.83-12.6-7.8c-4.53-3-8.48-5.97-11.85-8.9 M39.13,424.94c-1.13-3.73-2.92-7.52-5.35-11.35
			c-2.5-3.83-4.93-7.23-7.3-10.2l-5.25-5.85c-2.2-2.17-4.57-4.23-7.1-6.2c-2.5-1.97-5.1-3.75-7.8-5.35l-3.65-2.25
			c-1.9-1.13-4.07-2.22-6.5-3.25c-2.4-1.03-4.68-1.62-6.85-1.75 M-22.57,382.64c8.27,5.47,15.62,11.97,22.05,19.5
			c6.47,7.57,11.98,15.7,16.55,24.4 M37.08,357.19c1.33,1.67,2.98,3.02,4.95,4.05c2,1.03,4.12,1.72,6.35,2.05
			c2.23,0.3,4.37,0.27,6.4-0.1 M33.48,319.39l-0.1,8.85 M-21.97,346.74c1,3.17,2.77,5.88,5.3,8.15c2.5,2.23,5.32,3.57,8.45,4
			c3.17,0.43,6.22-0.52,9.15-2.85 M-2.87,316.69l-0.15,8.8 M-10.37,282.74c-0.13-4.3,0.95-8.13,3.25-11.5c2.3-3.4,5.3-5.68,9-6.85
			c3.7-1.13,7.58-0.5,11.65,1.9 M25.98,289.84c-1.83-1.17-3.92-1.95-6.25-2.35c-2.33-0.4-4.58-0.32-6.75,0.25
			c-2.2,0.63-4.05,1.85-5.55,3.65 M-46.42,389.24c-1.4-16.67-1.72-34.22-0.95-52.65c0.8-18.47,3.15-36.05,7.05-52.75
			c3.87-16.77,9.78-30.93,17.75-42.5c7.9-11.57,18.28-18.77,31.15-21.6c8.77-1.5,16.97,0.97,24.6,7.4
			c7.57,6.37,14.18,15.47,19.85,27.3c5.67,11.77,9.93,25.02,12.8,39.75c-0.2,0.5-0.38,1-0.55,1.5c-0.13,0.5-0.27,0.98-0.4,1.45
			 M-64.92,399.29c-0.27-2.17-0.4-4.62-0.4-7.35c0.03-2.77,0.12-5.25,0.25-7.45l0.2-4.2c0.2-3.2,0.43-6.38,0.7-9.55
			c0.23-3.17,0.5-6.35,0.8-9.55l0.75-6.3c0.4-3.3,0.88-6.98,1.45-11.05c0.57-4.07,1.1-7.75,1.6-11.05 M-56.87,330.64
			c-1.53,1.3-3.28,2.1-5.25,2.4c-2.03,0.37-4,0.35-5.9-0.05c-1.9-0.43-3.48-1.13-4.75-2.1c-3.3-2.7-5.35-6.2-6.15-10.5
			c-0.77-4.3-0.67-8.65,0.3-13.05c1-4.47,2.57-8.28,4.7-11.45c1.07-1.67,2.3-3.3,3.7-4.9c1.4-1.57,2.93-2.9,4.6-4
			c1.7-1.07,3.5-1.67,5.4-1.8c2.47-0.13,4.72,0.38,6.75,1.55c2.03,1.13,3.73,2.8,5.1,5c1.3,2.17,2.15,4.72,2.55,7.65"/>
	</g>
</symbol>
<g>
	<g id="Capa_6_2_">
	</g>
	<g id="Capa_4_2_">
	</g>
	<g id="Capa_3_2_">
		
			<use xlink:href="#d3"  width="397.94" height="924.02" x="-198.97" y="-462.01" transform="matrix(0.3548 0 0 -0.3548 70.5945 163.9221)" style="overflow:visible;"/>
	</g>
</g>
</svg>
