<?xml version="1.0" encoding="utf-8"?>
<!-- Generator: Adobe Illustrator 24.0.1, SVG Export Plug-In . SVG Version: 6.00 Build 0)  -->
<svg version="1.1" id="Layer_1" xmlns="http://www.w3.org/2000/svg" xmlns:xlink="http://www.w3.org/1999/xlink" x="0px" y="0px"
	 viewBox="0 0 119.12 248.28" style="enable-background:new 0 0 119.12 248.28;" xml:space="preserve">
<style type="text/css">
	
		.st0{fill-rule:evenodd;clip-rule:evenodd;fill:none;stroke:#FFFFFF;stroke-width:2.9208;stroke-linecap:round;stroke-linejoin:round;stroke-miterlimit:3;}
</style>
<g id="Capa_6">
</g>
<g id="Capa_4">
</g>
<g id="Capa_3">
</g>
<g id="Capa_2">
</g>
<g id="d10">
	<g>
		<path class="st0" d="M111.03,127.43c-0.26-0.55-0.54-1.05-0.84-1.52c0.6,1.91,1.2,4.07,1.81,6.48c0.6,2.39,1.11,4.55,1.55,6.48
			l0.73,3.8c0.89,5.81,1.64,12.17,2.26,19.09c0.6,6.94,0.96,13.87,1.1,20.79c0.11,6.92-0.15,13.29-0.77,19.09l-0.13,2.34
			c-0.09,1.17-0.29,2.4-0.62,3.69c-0.32,1.29-0.88,2.35-1.68,3.19 M91.46,116.04c2.34,0.89,4.79,1.73,7.36,2.52
			c2.58,0.82,4.95,1.89,7.12,3.23c1.72,1.02,3.13,2.4,4.25,4.13 M66.43,28.56c-1.1-0.06-2.31-0.02-3.63,0.11
			c-1.31,0.12-2.51,0.27-3.58,0.44l-2.06,0.42c-1.53,0.39-3.03,0.91-4.49,1.55c-1.46,0.64-2.88,1.36-4.25,2.14l-3.12,2.23
			c-1.56,1.16-3.21,2.51-4.95,4.05c-1.72,1.57-3.15,3.11-4.31,4.62 M49.29,55.43c2.58-1.42,5.11-3.04,7.58-4.84
			c2.49-1.79,4.64-3.86,6.44-6.22c1.83-2.35,3.02-5.07,3.58-8.16 M41.86,54.3c2.41-0.69,4.62-1.8,6.64-3.32
			c2.02-1.53,3.77-3.34,5.26-5.42c1.48-2.08,2.62-4.28,3.4-6.61 M74.68,42.56c-1.01,2.11-2.36,3.97-4.05,5.6
			c-1.7,1.62-3.61,2.99-5.71,4.11c-2.11,1.11-4.27,1.97-6.48,2.57 M78.42,60.58c1.18-2.84,1.74-5.91,1.68-9.22
			c-0.09-3.33-0.61-6.64-1.57-9.93c-0.95-3.26-2.17-6.22-3.65-8.87 M72.33,53.17c1.36,0.9,2.56,2.2,3.6,3.91
			c1.01,1.67,1.84,3.31,2.48,4.93c0.62,1.61,1.03,2.76,1.22,3.45c0.21,0.75,0.41,1.52,0.6,2.28c0.17,0.78,0.32,1.56,0.46,2.35
			c2.25-0.23,3.95,0.31,5.09,1.62c1.12,1.3,1.78,2.99,1.97,5.06c0.17,2.08-0.01,4.16-0.55,6.22c-0.56,2.06-1.39,3.72-2.48,5
			 M19,32.98c-0.73-1.1-1.32-2.42-1.77-3.96c-0.47-1.57-0.82-3.04-1.04-4.42c-0.21-1.38-0.3-2.35-0.27-2.94
			c0.06-1.1,0.26-2.15,0.6-3.16c0.34-1.02,0.69-2.04,1.04-3.05c0.37-1.02,0.59-2.07,0.68-3.14c0.19-2.45-0.1-4.62-0.88-6.52
			c-0.75-1.91-2.01-3.22-3.78-3.92c-1.74-0.71-4-0.5-6.77,0.6C6.15,2.75,5.42,3.26,4.62,3.99C3.83,4.71,3.13,5.57,2.54,6.58
			C1.93,7.59,1.57,8.68,1.46,9.83 M23.64,42.53l-1.31-2.32 M41.86,78.87c-0.46-1.03-1.01-1.92-1.64-2.65
			c-0.64-0.73-1.43-1.08-2.35-1.04c-0.9,0.05-2.01,0.72-3.34,2.01c-0.63,0.68-1.03,1.61-1.2,2.77c-0.15,1.16-0.15,2.32-0.02,3.5
			c0.15,1.2,0.36,2.21,0.64,3.01c0.43,1.18,1.07,2.33,1.94,3.45c0.86,1.11,1.89,1.94,3.07,2.48c1.18,0.55,2.46,0.58,3.83,0.09
			 M34.99,50.27c0,3.72,0.27,7.45,0.8,11.19c0.52,3.76,1.44,7.39,2.74,10.9 M12.56,140.1c0.17-1.73,0.77-3.59,1.81-5.59
			c1.01-2,2.12-3.81,3.32-5.44c1.2-1.64,2.16-2.77,2.87-3.4c1.68-1.4,3.52-2.53,5.51-3.38c1.97-0.86,4.02-1.59,6.15-2.19
			c2.11-0.63,4.17-1.29,6.19-1.97l2.01-0.77c1.03-0.44,2.22-0.89,3.54-1.37c1.31-0.49,2.52-0.87,3.61-1.15 M77.29,103.44
			c0.74-0.86,1.33-1.93,1.75-3.19c0.43-1.28,0.75-2.46,0.97-3.56l0.38-2.15c0.67-3.16,1.06-6.4,1.19-9.71
			c0.13-3.31,0.06-6.57-0.22-9.77c-0.09-0.82-0.18-1.64-0.29-2.48c-0.11-0.84-0.24-1.67-0.38-2.48c-0.09,0.02-0.18,0.04-0.29,0.04
			c-0.09,0.02-0.18,0.05-0.29,0.07 M73.88,63.87c0.75-0.17,1.45-0.12,2.1,0.16c0.65,0.28,1.17,0.59,1.59,0.93L78,65.38l0.13,0.16
			 M75.78,76.94l-0.18-3.23 M68.73,90.87c1.44-0.05,2.69-0.51,3.76-1.39c1.08-0.89,1.84-2.01,2.26-3.36 M64.15,75.99l0.09,2.52
			 M54.22,71.84c0.49-1.34,1.24-2.53,2.25-3.58c1.03-1.06,2.26-1.72,3.69-1.97 M48.74,121.72c1.38-2.49,2.43-5.15,3.16-7.96
			c0.71-2.8,1.27-5.63,1.7-8.49c-0.15-0.09-0.25-0.15-0.31-0.18l-0.13-0.11c-2.71-2.77-4.77-6.32-6.17-10.64
			c-1.38-4.32-2.3-8.79-2.77-13.4c-0.45-4.62-0.63-8.77-0.55-12.45l0.04-2.1c0-1.12-0.01-2.37-0.04-3.76
			c-0.01-1.4-0.04-2.66-0.09-3.78 M68.15,107.44c-0.13,0.4-0.26,0.81-0.38,1.22c-0.13,0.4-0.27,0.81-0.4,1.22
			c0.19-0.05,0.38-0.12,0.55-0.2c0.18-0.06,0.36-0.15,0.53-0.26 M59.99,127.81c1.38-2.92,2.68-5.88,3.92-8.87
			c1.28-2.97,2.43-5.99,3.45-9.05c-1.55,0.37-3.26,0.24-5.15-0.37c-1.9-0.6-3.64-1.33-5.22-2.21c-1.59-0.89-2.73-1.57-3.4-2.04
			l0.13-0.93 M47.57,122.85c0.78,1.24,1.67,2.42,2.68,3.54c1.01,1.14,2.16,2.04,3.45,2.7c1.29,0.69,2.73,0.97,4.31,0.84
			 M77.36,110.65c1.29-0.39,2.6-0.61,3.92-0.68c1.34-0.04,2.68-0.12,4.02-0.26 M85.56,106.02c-1.85-0.24-3.73-0.44-5.64-0.58
			c-1.92-0.13-3.83-0.11-5.71,0.07c-1.9,0.18-3.72,0.63-5.48,1.35 M89.87,125.71c-0.45,1.03-1.11,1.89-1.99,2.57
			c-0.86,0.69-1.77,1.35-2.72,1.97c-0.96,0.61-1.82,1.31-2.57,2.1 M79.56,117.68c1.34-0.37,2.7-0.68,4.07-0.93
			c1.39-0.26,2.71-0.69,3.96-1.31 M67.6,139.42c2.53-0.39,4.65-1.36,6.35-2.9c1.68-1.55,3.19-3.32,4.55-5.33
			c1.33-2,2.74-3.85,4.25-5.57c1.52-1.74,3.38-2.99,5.59-3.74 M89.98,125.26c-0.61-3.05-1.11-6.13-1.5-9.22
			c-0.37-3.07-0.86-6.13-1.48-9.18 M74.17,96.05l-6.02,2.23 M60.92,188.49c1.68-0.06,3.55-0.09,5.62-0.07
			c2.06,0.02,3.92,0.06,5.6,0.11l3.19,0.09c1.58-0.02,3.18-0.05,4.8-0.09c1.59-0.07,3.18-0.15,4.76-0.24l2.1-0.16
			c1.12-0.09,2.35-0.19,3.71-0.31c1.38-0.13,2.62-0.26,3.74-0.38c0.84-0.73,1.51-1.7,2.01-2.9c0.46-1.23,0.82-2.4,1.06-3.52
			l0.46-2.23c0.38-1.57,0.7-3.15,0.97-4.73c0.23-1.62,0.44-3.23,0.64-4.82l0.35-4.38c0.13-2.23,0.17-4.7,0.11-7.41
			c-0.07-2.69-0.35-5.1-0.84-7.23 M68.73,142.29c-0.22,1.07-0.52,2.26-0.91,3.58c-0.4,1.33-0.78,2.52-1.13,3.58l-0.64,1.99
			c-1.24,4.17-2.52,8.27-3.83,12.29c-1.29,4.03-2.57,8.06-3.83,12.1c-1.28,4.06-2.47,8.21-3.58,12.45l-1.17,4.13
			c-0.6,2.14-1.3,4.53-2.1,7.17c-0.79,2.65-1.54,5.03-2.25,7.14 M57.85,133.13c-0.23,1.12-0.55,2.35-0.97,3.69
			c-0.4,1.35-0.78,2.56-1.15,3.63l-0.71,2.03c-1.44,4.17-3.12,8.18-5.04,12.03c-1.91,3.87-3.89,7.7-5.93,11.48
			c-2.06,3.81-4.02,7.7-5.9,11.66l-1.28,2.94c-0.69,1.53-1.46,3.26-2.3,5.17c-0.84,1.91-1.6,3.64-2.28,5.18 M114.15,211.35
			c-1.27,0.64-2.71,1.05-4.34,1.2c-1.66,0.12-3.17,0.14-4.55,0.05l-2.77-0.22c-4.2-0.27-8.4-0.71-12.61-1.33
			c-4.19-0.6-8.38-1.28-12.58-2.06c-4.16-0.75-8.31-1.5-12.43-2.25l-2.06-0.49c-1.08-0.23-2.29-0.51-3.61-0.84
			c-1.34-0.32-2.53-0.6-3.58-0.84 M39.07,170.86c-0.19-2.22-0.32-4.45-0.38-6.72c-0.07-2.28-0.23-4.52-0.46-6.74
			c-0.24-2.23-0.74-4.41-1.48-6.54 M23.68,215.51c-0.37-1.35-0.78-2.87-1.26-4.55c-0.45-1.7-0.87-3.23-1.26-4.58l-0.73-2.61
			c-0.43-1.57-0.86-3.14-1.3-4.71c-0.43-1.55-0.83-3.12-1.22-4.71c-1.66-6.23-3.1-12.56-4.34-18.99c-1.28-6.45-2.12-12.9-2.52-19.35
			v-2.12c0.02-1.14,0.04-2.42,0.04-3.82c0-1.4-0.02-2.67-0.07-3.8 M16.27,184.97c1.48-2.28,3.28-4.31,5.39-6.12
			c2.11-1.81,4.44-3.13,6.99-3.94c2.58-0.79,5.28-0.81,8.11-0.05 M48.38,214.96c-1.78,2.07-3.97,3.75-6.57,5.06
			c-2.58,1.34-5.27,2.06-8.07,2.17c-2.79,0.1-5.41-0.63-7.87-2.19 M33.81,246.82c-0.61-2.35-1-4.72-1.17-7.12
			c-0.19-2.43-0.3-4.86-0.31-7.28c-0.02-2.43-0.08-4.86-0.16-7.27 M95,214.29c0.13,3.85,0.16,7.69,0.07,11.54
			c-0.09,3.85-0.33,7.69-0.75,11.52 M115.15,176.41c-1.24-0.67-2.59-1.3-4.03-1.88c-1.44-0.58-2.9-0.94-4.38-1.06
			c-1.48-0.13-2.91,0.13-4.29,0.8"/>
	</g>
</g>
</svg>
