<?xml version="1.0" encoding="utf-8"?>
<!-- Generator: Adobe Illustrator 24.2.1, SVG Export Plug-In . SVG Version: 6.00 Build 0)  -->
<svg version="1.1" id="Layer_1" xmlns="http://www.w3.org/2000/svg" xmlns:xlink="http://www.w3.org/1999/xlink" x="0px" y="0px"
	 viewBox="0 0 87.64 87.64" style="enable-background:new 0 0 87.64 87.64;" xml:space="preserve">
<style type="text/css">
	.st0{fill:#FFFFFF;}
	.st1{fill:#0795FF;}
	.st2{fill:#156CDD;}
	.st3{fill:#DFE8F4;}
	.st4{fill:#CCD8E5;}
	.st5{fill:#FF7466;}
	.st6{fill:#FEDA56;}
</style>
<circle class="st0" cx="43.82" cy="43.82" r="43.82"/>
<g>
	<path class="st1" d="M19.98,29.33h47.68c1.75,0,3.17,1.42,3.17,3.17v27.79c0,1.75-1.42,3.17-3.17,3.17H19.98
		c-1.75,0-3.17-1.42-3.17-3.17V32.5C16.8,30.75,18.23,29.33,19.98,29.33z"/>
	<path class="st2" d="M67.66,29.28H43.82v34.18h23.84c1.75,0,3.17-1.42,3.17-3.17v-27.8c0.02-1.75-1.37-3.18-3.12-3.21
		C67.7,29.28,67.68,29.28,67.66,29.28z"/>
	<path class="st3" d="M20.98,55.3c0,1.72,1.39,3.11,3.1,3.11c0.05,0,0.1,0,0.15,0c0.56,0,1.13,0,1.7,0
		c6.21-0.08,12.34,1.34,17.89,4.14V26.28c-5.54-2.81-11.68-4.23-17.89-4.16c-0.69,0-1.36,0-2.04,0c-1.65,0.1-2.93,1.47-2.92,3.12
		L20.98,55.3z"/>
	<path class="st4" d="M66.66,55.3c0,1.72-1.39,3.11-3.1,3.11c-0.05,0-0.1,0-0.15,0c-0.56,0-1.13,0-1.7,0
		c-6.21-0.08-12.34,1.34-17.89,4.14V26.28c5.54-2.81,11.68-4.23,17.89-4.16c0.69,0,1.36,0,2.04,0c1.65,0.1,2.93,1.47,2.92,3.12V55.3
		z"/>
</g>
<g>
	<path class="st5" d="M61.03,37.83c-0.37-0.92-1.13-1.65-2.07-1.97c-0.38-0.13-0.79-0.2-1.22-0.19c-1.91,0.05-3.42,1.64-3.37,3.55
		c-0.05-1.91-1.64-3.42-3.55-3.37c-0.43,0.01-0.84,0.1-1.21,0.25c-0.92,0.37-1.65,1.13-1.97,2.07c-0.13,0.38-0.2,0.79-0.19,1.22
		c0.02,0.92,0.4,1.74,1,2.34l0,0l0.16,0.15l0.01,0.01l5.96,5.67l5.68-5.97l0.15-0.16c0.57-0.63,0.9-1.47,0.88-2.39
		C61.27,38.61,61.19,38.2,61.03,37.83z"/>
	<path class="st5" d="M61.03,37.83c-0.37-0.92-1.13-1.65-2.07-1.97c-0.38-0.13-0.79-0.2-1.22-0.19c-1.91,0.05-3.42,1.64-3.37,3.55
		c0-0.15-0.02-0.29-0.04-0.43l0.22,8.75l0.03,0.03l5.68-5.97l0.15-0.16c0.57-0.63,0.9-1.47,0.88-2.39
		C61.27,38.61,61.19,38.2,61.03,37.83z"/>
	<path class="st6" d="M54.89,43.75c-0.01,0-0.02,0-0.03,0c-0.08-0.01-0.14-0.06-0.17-0.13l-1.52-3.46l-1.3,2.5
		c-0.04,0.07-0.11,0.11-0.18,0.11l-3.92,0.1c-0.12,0-0.21-0.09-0.22-0.21c0-0.12,0.09-0.21,0.21-0.22l3.8-0.1L53,39.57
		c0.04-0.07,0.11-0.12,0.19-0.11c0.08,0,0.15,0.05,0.19,0.13l1.55,3.52l1.33-1.93c0.04-0.06,0.12-0.1,0.2-0.09
		c0.08,0.01,0.14,0.06,0.17,0.13l0.59,1.41l0.42-0.65c0.04-0.06,0.1-0.1,0.17-0.1l3.45-0.09c0.12,0,0.21,0.09,0.22,0.21
		c0,0.12-0.09,0.21-0.21,0.22l-3.33,0.08l-0.58,0.9c-0.04,0.07-0.12,0.1-0.2,0.1c-0.08-0.01-0.15-0.06-0.18-0.13l-0.6-1.42
		l-1.32,1.92C55.02,43.71,54.96,43.75,54.89,43.75z"/>
</g>
</svg>
