<?xml version="1.0" encoding="utf-8"?>
<!-- Generator: Adobe Illustrator 24.0.1, SVG Export Plug-In . SVG Version: 6.00 Build 0)  -->
<svg version="1.1" id="Layer_1" xmlns="http://www.w3.org/2000/svg" xmlns:xlink="http://www.w3.org/1999/xlink" x="0px" y="0px"
	 viewBox="0 0 40.02 40" style="enable-background:new 0 0 40.02 40;" xml:space="preserve">
<style type="text/css">
	.st0{fill:url(#SVGID_1_);}
	.st1{fill:url(#SVGID_2_);}
</style>
<g>
	<g>
		<linearGradient id="SVGID_1_" gradientUnits="userSpaceOnUse" x1="0" y1="20" x2="40.0177" y2="20">
			<stop  offset="0" style="stop-color:#2E77AF"/>
			<stop  offset="0.1283" style="stop-color:#2B71BB"/>
			<stop  offset="0.4468" style="stop-color:#2565D2"/>
			<stop  offset="0.7449" style="stop-color:#215EE0"/>
			<stop  offset="1" style="stop-color:#205BE5"/>
		</linearGradient>
		<path class="st0" d="M20.04,0.98c10.51,0,19,8.5,19,19.02c0,9.97-7.66,18.15-17.38,18.95c-0.54,0.1-1.08,0.1-1.62,0.1
			c-1.42,0-2.8-0.14-4.12-0.44c-8.55-1.91-14.93-9.53-14.93-18.6C0.98,9.47,9.53,0.98,20.04,0.98 M20.04,0C8.99,0,0,8.98,0,19.99
			c0,9.28,6.6,17.51,15.69,19.56c1.37,0.3,2.83,0.45,4.34,0.45c0.59,0,1.2,0,1.79-0.09c10.16-0.82,18.2-9.57,18.2-19.92
			C40.02,8.98,31.05,0,20.04,0L20.04,0z"/>
	</g>
	<g>
		<linearGradient id="SVGID_2_" gradientUnits="userSpaceOnUse" x1="12.7627" y1="25.0646" x2="27.255" y2="25.0646">
			<stop  offset="0" style="stop-color:#2E77AF"/>
			<stop  offset="0.1283" style="stop-color:#2B71BB"/>
			<stop  offset="0.4468" style="stop-color:#2565D2"/>
			<stop  offset="0.7449" style="stop-color:#215EE0"/>
			<stop  offset="1" style="stop-color:#205BE5"/>
		</linearGradient>
		<path class="st1" d="M22.2,16c0.29-0.35,0.88-0.59,1.72-0.59c0.78,0,1.72,0.12,2.6,0.36l0.74-3.99c-1.52-0.53-3.09-0.68-4.71-0.68
			c-1.62,0-2.9,0.25-3.93,0.84c-1.03,0.57-1.72,1.22-2.11,2.16c-0.39,0.84-0.59,2.25-0.59,4.03v1.57h-3.15v4.56h3.15v14.34
			c1.32,0.3,2.7,0.44,4.12,0.44c0.54,0,1.08,0,1.62-0.1V24.25h4.17v-4.56h-4.17v-1.47C21.65,17.09,21.8,16.4,22.2,16z"/>
	</g>
</g>
</svg>
