<?xml version="1.0" encoding="utf-8"?>
<!-- Generator: Adobe Illustrator 24.0.1, SVG Export Plug-In . SVG Version: 6.00 Build 0)  -->
<svg version="1.1" id="Layer_1" xmlns="http://www.w3.org/2000/svg" xmlns:xlink="http://www.w3.org/1999/xlink" x="0px" y="0px"
	 viewBox="0 0 40.02 40" style="enable-background:new 0 0 40.02 40;" xml:space="preserve">
<style type="text/css">
	.st0{fill:url(#SVGID_1_);}
	.st1{fill-rule:evenodd;clip-rule:evenodd;fill:url(#SVGID_2_);}
	.st2{fill-rule:evenodd;clip-rule:evenodd;fill:url(#SVGID_3_);}
</style>
<g>
	<g>
		<linearGradient id="SVGID_1_" gradientUnits="userSpaceOnUse" x1="6.812453e-03" y1="20" x2="40.0109" y2="20">
			<stop  offset="0" style="stop-color:#2E77AF"/>
			<stop  offset="0.1283" style="stop-color:#2B71BB"/>
			<stop  offset="0.4468" style="stop-color:#2565D2"/>
			<stop  offset="0.7449" style="stop-color:#215EE0"/>
			<stop  offset="1" style="stop-color:#205BE5"/>
		</linearGradient>
		<path class="st0" d="M20,0.98c10.51,0,19.03,8.51,19.03,19.02S30.51,39.03,20,39.03C9.5,39.03,0.99,30.51,0.99,20
			S9.5,0.98,20,0.98 M20,0c-11.02,0-20,8.97-20,20c0,11.03,8.97,20,20,20c11.03,0,20.01-8.97,20.01-20C40.01,8.97,31.03,0,20,0L20,0
			z"/>
	</g>
	<g>
		<linearGradient id="SVGID_2_" gradientUnits="userSpaceOnUse" x1="8.4145" y1="19.996" x2="31.5958" y2="19.996">
			<stop  offset="0" style="stop-color:#2E77AF"/>
			<stop  offset="0.1283" style="stop-color:#2B71BB"/>
			<stop  offset="0.4468" style="stop-color:#2565D2"/>
			<stop  offset="0.7449" style="stop-color:#215EE0"/>
			<stop  offset="1" style="stop-color:#205BE5"/>
		</linearGradient>
		<path class="st1" d="M31.28,17.27C30.02,12,25.48,8.41,20,8.34c-0.72,0.04-1.5,0.09-2.21,0.22c-7.68,1.55-11.64,10.03-7.92,16.85
			c0.13,0.2,0.13,0.36,0.11,0.58c-0.54,1.77-1.04,3.59-1.52,5.38c-0.08,0.31-0.08,0.31,0.22,0.23c1.87-0.51,3.73-0.99,5.6-1.45
			c0.16-0.05,0.28-0.05,0.42,0.02c2.4,1.22,4.94,1.57,7.6,1.07C28.64,30.02,32.8,23.55,31.28,17.27z M21.63,29.39
			c-0.55,0.1-1.07,0.15-1.33,0.12c-2.04,0-3.69-0.46-5.22-1.34c-0.22-0.13-0.38-0.17-0.59-0.09c-1.05,0.25-2.07,0.53-3.1,0.8
			c-0.21,0.06-0.23,0.02-0.19-0.19c0.27-0.96,0.53-1.93,0.83-2.93c0.07-0.27,0.05-0.48-0.12-0.68c-2.1-3.42-2-7.61,0.34-10.79
			c2.44-3.26,5.8-4.62,9.78-3.76c3.93,0.82,6.45,3.38,7.34,7.3C30.65,23.19,27.04,28.51,21.63,29.39z"/>
		<linearGradient id="SVGID_3_" gradientUnits="userSpaceOnUse" x1="14.154" y1="19.9874" x2="25.8914" y2="19.9874">
			<stop  offset="0" style="stop-color:#2E77AF"/>
			<stop  offset="0.1283" style="stop-color:#2B71BB"/>
			<stop  offset="0.4468" style="stop-color:#2565D2"/>
			<stop  offset="0.7449" style="stop-color:#215EE0"/>
			<stop  offset="1" style="stop-color:#205BE5"/>
		</linearGradient>
		<path class="st2" d="M23.03,25.42c-0.4,0.04-0.81-0.04-1.2-0.15c-2.65-0.78-4.65-2.4-6.26-4.6c-0.6-0.82-1.17-1.69-1.34-2.73
			c-0.24-1.2,0.13-2.27,1.04-3.08c0.3-0.29,1.18-0.43,1.54-0.23c0.12,0.1,0.18,0.19,0.26,0.3c0.33,0.82,0.68,1.59,1.01,2.37
			c0.05,0.18,0.04,0.33-0.05,0.5c-0.18,0.36-0.45,0.65-0.71,0.96c-0.22,0.19-0.22,0.4-0.07,0.63c0.95,1.59,2.23,2.73,3.95,3.4
			c0.25,0.1,0.44,0.06,0.59-0.13c0.3-0.35,0.59-0.73,0.86-1.09c0.17-0.22,0.39-0.27,0.64-0.15c0.57,0.25,1.13,0.51,1.67,0.76
			c0.15,0.08,0.26,0.13,0.39,0.19c0.57,0.28,0.57,0.32,0.51,0.93c-0.08,1.21-1,1.82-2.06,2.12C23.51,25.46,23.28,25.46,23.03,25.42z
			"/>
	</g>
</g>
</svg>
