<?xml version="1.0" encoding="utf-8"?>
<!-- Generator: Adobe Illustrator 24.0.1, SVG Export Plug-In . SVG Version: 6.00 Build 0)  -->
<svg version="1.1" id="Layer_1" xmlns="http://www.w3.org/2000/svg" xmlns:xlink="http://www.w3.org/1999/xlink" x="0px" y="0px"
	 viewBox="0 0 40.02 40" style="enable-background:new 0 0 40.02 40;" xml:space="preserve">
<style type="text/css">
	.st0{fill:url(#SVGID_1_);}
	.st1{fill-rule:evenodd;clip-rule:evenodd;fill:url(#SVGID_2_);}
</style>
<g>
	<g>
		<linearGradient id="SVGID_1_" gradientUnits="userSpaceOnUse" x1="0.0111" y1="20" x2="40.0066" y2="20">
			<stop  offset="0" style="stop-color:#2E77AF"/>
			<stop  offset="0.1283" style="stop-color:#2B71BB"/>
			<stop  offset="0.4468" style="stop-color:#2565D2"/>
			<stop  offset="0.7449" style="stop-color:#215EE0"/>
			<stop  offset="1" style="stop-color:#205BE5"/>
		</linearGradient>
		<path class="st0" d="M20.02,0.97c10.5,0,19.02,8.51,19.02,19.03c0,10.5-8.52,19.03-19.02,19.03C9.5,39.03,0.99,30.5,0.99,20
			C0.99,9.49,9.5,0.97,20.02,0.97 M20.02,0c-11.03,0-20,8.97-20,20s8.98,20,20,20c11.02,0,19.99-8.97,19.99-20S31.04,0,20.02,0
			L20.02,0z"/>
	</g>
	<g>
		<linearGradient id="SVGID_2_" gradientUnits="userSpaceOnUse" x1="8.4992" y1="21.0031" x2="32.7399" y2="21.0031">
			<stop  offset="0" style="stop-color:#2E77AF"/>
			<stop  offset="0.1283" style="stop-color:#2B71BB"/>
			<stop  offset="0.4468" style="stop-color:#2565D2"/>
			<stop  offset="0.7449" style="stop-color:#215EE0"/>
			<stop  offset="1" style="stop-color:#205BE5"/>
		</linearGradient>
		<path class="st1" d="M8.5,28.75c1.81,0.12,3.56-0.15,5.21-0.9c0.74-0.33,1.42-0.73,2.09-1.26c-0.79-0.02-1.51-0.21-2.16-0.54
			c-1.12-0.57-1.91-1.46-2.38-2.67c-0.11-0.27-0.11-0.27,0.19-0.25c0.8,0.08,1.38,0.06,1.83-0.12c-0.43-0.15-0.84-0.23-1.18-0.45
			c-1.67-0.92-2.55-2.35-2.7-4.26c-0.02-0.22,0.04-0.25,0.25-0.15c0.59,0.33,1.22,0.46,1.96,0.53c-0.32-0.28-0.59-0.51-0.84-0.76
			c-1.38-1.49-1.71-3.85-0.79-5.66c0.12-0.25,0.17-0.25,0.34-0.05c2.33,2.69,5.23,4.31,8.72,4.87c0.35,0.07,0.74,0.07,1.11,0.15
			c0.25,0.04,0.27-0.08,0.24-0.27c-0.36-2.1,0.62-4.18,2.48-5.23c1.9-1.11,4.36-0.76,5.89,0.73c0.18,0.15,0.35,0.19,0.55,0.13
			c0.94-0.21,1.82-0.56,2.64-1.04c0.07-0.02,0.12-0.05,0.21-0.13c-0.35,1.19-1.06,2.07-2.11,2.77c0.97-0.09,1.83-0.38,2.7-0.7
			c0.02,0.12-0.07,0.19-0.12,0.28c-0.59,0.8-1.27,1.51-2.07,2.12c-0.15,0.12-0.19,0.21-0.19,0.4c0.06,3.67-1.11,6.93-3.45,9.77
			c-2.2,2.58-5.01,4.15-8.35,4.68c-3.55,0.55-6.88-0.04-9.95-1.93C8.57,28.77,8.53,28.75,8.5,28.75z"/>
	</g>
</g>
</svg>
