<?xml version="1.0" encoding="utf-8"?>
<!-- Generator: Adobe Illustrator 24.2.3, SVG Export Plug-In . SVG Version: 6.00 Build 0)  -->
<svg version="1.1" id="Layer_1" xmlns="http://www.w3.org/2000/svg" xmlns:xlink="http://www.w3.org/1999/xlink" x="0px" y="0px"
	 viewBox="0 0 165.8 182.9" style="enable-background:new 0 0 165.8 182.9;" xml:space="preserve">
<style type="text/css">
	.st0{fill:#E6E6E6;}
	.st1{opacity:0.18;enable-background:new    ;}
	.st2{fill:#0071BC;}
	.st3{fill:#F2F2F2;}
	.st4{opacity:0.61;fill:#FFFFFF;enable-background:new    ;}
	.st5{enable-background:new    ;}
	.st6{fill:#FFFFFF;}
</style>
<g>
	<g>
		<g>
			<polygon class="st0" points="131.9,134.5 121.9,143.5 85,101.9 95.1,92.9 			"/>
			<path class="st1" d="M85.6,102.5l26.1,9.2L95.6,93.5C95.6,93.5,90.5,99.1,85.6,102.5z"/>
		</g>
		<path class="st1" d="M63.3,101.6c-9.8,0-19.3-2.2-28.2-6.2c-8.6-3.8-17.3-9.3-23.2-16.7c-2.5-3.1-4.6-6.4-6-10.1
			c3.3,12.9,11.4,24.5,23.7,31.9c18.6,11.2,41.5,9.3,58-3C79.8,100.4,71.4,101.6,63.3,101.6z"/>
		<path class="st0" d="M163.4,177.3l-4.3,3.9c-2.9,2.6-7.2,2.3-9.8-0.5L111.6,138c-0.4-0.5-0.4-1.2,0.1-1.6l12.9-11.7
			c0.5-0.4,1.2-0.4,1.6,0.1l37.8,42.6C166.6,170.3,166.3,174.7,163.4,177.3z"/>
		<polygon class="st2" points="133.1,131.9 118.4,145.1 116.8,143.3 131.5,130.1 		"/>
		<polygon class="st2" points="136.7,136.2 122.1,149.4 120.5,147.6 135.1,134.4 		"/>
		<g>
			<path class="st3" d="M93.3,98.5c-23.1,20.8-58.6,18.9-79.2-4.3C-6.4,71-4.3,35.3,18.8,14.4C41.9-6.4,77.4-4.5,97.9,18.7
				S116.4,77.7,93.3,98.5z M22.2,18.3C1.2,37.2-0.7,69.7,18,90.8c18.7,21.1,50.9,22.8,71.9,3.9s22.9-51.4,4.2-72.5
				S43.2-0.6,22.2,18.3z"/>
		</g>
		<path class="st4" d="M74.3,14.7c-6.6-3.9-14.8-5.2-22.4-4.3c-6.6,0.9-13.7,4.1-17.2,10c-0.5,0.9,0.3,2.3,1.4,1.7
			c5.1-2.9,10.3-5.3,16.2-5.9c6.7-0.8,13,1.4,19.2,3.5C74.5,20.7,77.2,16.4,74.3,14.7z"/>
	</g>
	<g>
		<path class="st2" d="M41.1,106.3c-27.3-8-43-37-34.9-64.6C14.3,14.1,43.2-1.7,70.5,6.3s43,37,34.9,64.6
			C97.3,98.5,68.4,114.4,41.1,106.3z M70.2,7.2C43.4-0.6,15.1,14.9,7.2,42s7.4,55.5,34.2,63.4s55.1-7.7,63.1-34.8
			C112.4,43.6,97,15.1,70.2,7.2z"/>
	</g>
</g>
<g class="st5">
	<path class="st6" d="M42.3,64.6V51.5c0-0.5,0-1,0-1.5c0-0.5,0-1,0-1.6c-0.7,0.6-1.5,1.2-2.4,1.7c-0.9,0.5-1.8,0.8-2.7,1l-0.6-3.6
		c0.5,0,1-0.2,1.6-0.4s1.2-0.5,1.8-0.9s1.2-0.7,1.7-1.1c0.5-0.4,0.9-0.8,1.2-1.2h3.5v20.7H42.3z"/>
	<path class="st6" d="M55.8,43.6c1.1,0,2.1,0.2,2.9,0.7c0.8,0.5,1.5,1.2,1.9,2c0.4,0.9,0.7,1.9,0.7,3.1c0,1.2-0.2,2.2-0.7,3.1
		c-0.4,0.9-1.1,1.5-1.9,2s-1.8,0.7-2.9,0.7c-1.1,0-2.1-0.2-2.9-0.7c-0.8-0.5-1.5-1.2-1.9-2c-0.4-0.9-0.7-1.9-0.7-3.1
		c0-1.2,0.2-2.2,0.7-3.1c0.4-0.9,1.1-1.6,1.9-2C53.7,43.9,54.6,43.6,55.8,43.6z M55.8,46.6c-0.5,0-0.9,0.1-1.2,0.3
		c-0.3,0.2-0.6,0.5-0.8,1c-0.2,0.4-0.3,0.9-0.3,1.5c0,0.6,0.1,1.1,0.3,1.5c0.2,0.4,0.4,0.8,0.8,1c0.3,0.2,0.7,0.3,1.2,0.3
		c0.5,0,0.9-0.1,1.2-0.3c0.3-0.2,0.6-0.5,0.7-1c0.2-0.4,0.3-0.9,0.3-1.5c0-0.6-0.1-1.1-0.3-1.5c-0.2-0.4-0.4-0.8-0.7-1
		C56.6,46.7,56.2,46.6,55.8,46.6z M54.7,64.6l13.9-20.7h3.4L58.2,64.6H54.7z M71,53.3c1.1,0,2.1,0.2,2.9,0.7c0.8,0.5,1.5,1.2,1.9,2
		c0.5,0.9,0.7,1.9,0.7,3.1s-0.2,2.2-0.7,3.1c-0.5,0.9-1.1,1.6-1.9,2c-0.8,0.5-1.8,0.7-2.9,0.7s-2.1-0.2-2.9-0.7
		c-0.8-0.5-1.5-1.2-1.9-2c-0.4-0.9-0.7-1.9-0.7-3.1s0.2-2.2,0.7-3.1c0.4-0.9,1.1-1.5,1.9-2S69.9,53.3,71,53.3z M71,56.3
		c-0.5,0-0.9,0.1-1.2,0.3c-0.3,0.2-0.6,0.5-0.7,1s-0.3,0.9-0.3,1.5c0,0.6,0.1,1.1,0.3,1.5s0.4,0.8,0.7,1s0.7,0.3,1.2,0.3
		c0.5,0,0.9-0.1,1.2-0.3c0.3-0.2,0.6-0.5,0.7-1c0.2-0.4,0.3-0.9,0.3-1.5c0-0.6-0.1-1.1-0.3-1.5c-0.2-0.4-0.4-0.7-0.7-1
		C71.9,56.4,71.5,56.3,71,56.3z"/>
</g>
</svg>
