<?xml version="1.0" encoding="utf-8"?>
<!-- Generator: Adobe Illustrator 24.2.3, SVG Export Plug-In . SVG Version: 6.00 Build 0)  -->
<svg version="1.1" id="Layer_1" xmlns="http://www.w3.org/2000/svg" xmlns:xlink="http://www.w3.org/1999/xlink" x="0px" y="0px"
	 viewBox="0 0 49.6 37.5" style="enable-background:new 0 0 49.6 37.5;" xml:space="preserve">
<style type="text/css">
	.st0{fill:#FFFFFF;}
	.st1{fill:#231F20;}
</style>
<g>
	<path class="st0" d="M3.4,4.7c-0.3-0.3-0.3-0.9,0-1.2c0.3-0.3,0.9-0.3,1.2,0l2.8,2.8c0.3,0.3,0.3,0.9,0,1.2c-0.3,0.3-0.9,0.3-1.2,0
		L3.4,4.7z"/>
	<path class="st0" d="M17.1,7.5l2.8-2.8c0.3-0.3,0.3-0.9,0-1.2c-0.3-0.3-0.9-0.3-1.2,0l-2.8,2.8c-0.3,0.3-0.3,0.9,0,1.2
		C16.2,7.9,16.7,7.9,17.1,7.5z"/>
	<path class="st0" d="M6.3,15.8l-2.8,2.8c-0.3,0.3-0.3,0.9,0,1.2c0.3,0.3,0.9,0.3,1.2,0l2.8-2.8c0.3-0.3,0.3-0.9,0-1.2
		C7.2,15.5,6.6,15.5,6.3,15.8z"/>
	<path class="st0" d="M11.7,5.8c0.2,0,0.5-0.1,0.6-0.3c0.2-0.2,0.3-0.4,0.3-0.6v-4c0-0.5-0.4-0.9-0.9-0.9c-0.5,0-0.9,0.4-0.9,0.9v4
		C10.8,5.4,11.2,5.8,11.7,5.8z"/>
	<path class="st0" d="M5.5,12.3c0.2-0.2,0.3-0.4,0.3-0.6c0-0.5-0.4-0.9-0.9-0.9h-4c-0.5,0-0.9,0.4-0.9,0.9c0,0.5,0.4,0.9,0.9,0.9h4
		C5.2,12.6,5.4,12.5,5.5,12.3z"/>
	<path class="st1" d="M46,34c-6.4,6.4-14.6,2.8-25.8-1.1c-3.6-1.3-3.7-6.3-0.2-7.8L9.4,14.6c-0.8-0.8-1.2-1.9-1.2-2.9
		c0.1-3.5,4.3-5.1,6.9-2.6l6.6,6.6c0.7-2.4,3.6-3.6,5.8-2.3c0.6-2.3,3.2-3.7,5.5-2.6c0.8-2.5,3.9-3,5.7-1.3l7.7,7.7
		C50.3,21,51.1,28.9,46,34z"/>
	<path class="st0" d="M44.9,18.7c-0.3-0.3,1.2,1.2-7.7-7.7c-1.3-1.3-3,0.6-1.9,1.7c0,0,0,0,0.8,0.8c0.4,0.4,0.4,1.1,0,1.5
		c-1.8,1.8-3.5-4.4-6-2.1c-2.7,2.4,3.6,4.5,1.9,6.2c-2,2-5.1-6.5-7.9-3.7c-2.8,2.8,5.7,5.9,3.7,7.9c-0.4,0.4-1.1,0.4-1.5,0
		L13.6,10.5c-1.9-1.9-4.4,0.9-2.7,2.6l10.4,10.4c0,0,0.1,0.1,0.1,0.1l3.7,3.7c0.4,0.4,0.4,1.1,0,1.5c-0.4,0.4-1.1,0.4-1.5,0
		l-1.9-1.9c-2.4-0.3-3.2,3.2-0.9,4c11.2,3.9,18.3,7,23.7,1.6C48.3,28.7,48.5,22.6,44.9,18.7z"/>
</g>
</svg>
