<?xml version="1.0" encoding="utf-8"?>
<!-- Generator: Adobe Illustrator 24.2.3, SVG Export Plug-In . SVG Version: 6.00 Build 0)  -->
<svg version="1.1" id="Layer_1" xmlns="http://www.w3.org/2000/svg" xmlns:xlink="http://www.w3.org/1999/xlink" x="0px" y="0px"
	 viewBox="0 0 49.6 37.5" style="enable-background:new 0 0 49.6 37.5;" xml:space="preserve">
<style type="text/css">
	.st0{fill:#FFFFFF;}
	.st1{fill:#231F20;}
</style>
<g>
	<path class="st0" d="M46.2,4.7c0.3-0.3,0.3-0.9,0-1.2c-0.3-0.3-0.9-0.3-1.2,0l-2.8,2.8c-0.3,0.3-0.3,0.9,0,1.2
		c0.3,0.3,0.9,0.3,1.2,0L46.2,4.7z"/>
	<path class="st0" d="M32.5,7.5l-2.8-2.8c-0.3-0.3-0.3-0.9,0-1.2c0.3-0.3,0.9-0.3,1.2,0l2.8,2.8c0.3,0.3,0.3,0.9,0,1.2
		C33.4,7.9,32.9,7.9,32.5,7.5z"/>
	<path class="st0" d="M43.3,15.8l2.8,2.8c0.3,0.3,0.3,0.9,0,1.2c-0.3,0.3-0.9,0.3-1.2,0l-2.8-2.8c-0.3-0.3-0.3-0.9,0-1.2
		C42.4,15.5,43,15.5,43.3,15.8z"/>
	<path class="st0" d="M37.9,5.8c-0.2,0-0.5-0.1-0.6-0.3C37.1,5.4,37,5.2,37,4.9v-4C37,0.4,37.4,0,37.9,0c0.5,0,0.9,0.4,0.9,0.9v4
		C38.8,5.4,38.4,5.8,37.9,5.8z"/>
	<path class="st0" d="M44.1,12.3c-0.2-0.2-0.3-0.4-0.3-0.6c0-0.5,0.4-0.9,0.9-0.9h4c0.5,0,0.9,0.4,0.9,0.9c0,0.5-0.4,0.9-0.9,0.9h-4
		C44.4,12.6,44.2,12.5,44.1,12.3z"/>
	<path class="st1" d="M3.5,34c6.4,6.4,14.6,2.8,25.8-1.1c3.6-1.3,3.7-6.3,0.2-7.8l10.5-10.5c0.8-0.8,1.2-1.9,1.2-2.9
		C41.2,8.1,37,6.5,34.5,9l-6.6,6.6c-0.7-2.4-3.6-3.6-5.8-2.3c-0.6-2.3-3.2-3.7-5.5-2.6c-0.8-2.5-3.9-3-5.7-1.3l-7.7,7.7
		C-0.7,21-1.5,28.9,3.5,34z"/>
	<path class="st0" d="M4.7,18.7c0.3-0.3-1.2,1.2,7.7-7.7c1.3-1.3,3,0.6,1.9,1.7c0,0,0,0-0.8,0.8C13,14,13,14.6,13.4,15
		c1.8,1.8,3.5-4.4,6-2.1c2.7,2.4-3.6,4.5-1.9,6.2c2,2,5.1-6.5,7.9-3.7c2.8,2.8-5.7,5.9-3.7,7.9c0.4,0.4,1.1,0.4,1.5,0L36,10.5
		c1.9-1.9,4.4,0.9,2.7,2.6L28.3,23.5c0,0-0.1,0.1-0.1,0.1l-3.7,3.7c-0.4,0.4-0.4,1.1,0,1.5c0.4,0.4,1.1,0.4,1.5,0l1.9-1.9
		c2.4-0.3,3.2,3.2,0.9,4c-11.2,3.9-18.3,7-23.7,1.6C1.3,28.7,1.1,22.6,4.7,18.7z"/>
</g>
</svg>
