<?xml version="1.0" encoding="utf-8"?>
<!-- Generator: Adobe Illustrator 24.0.1, SVG Export Plug-In . SVG Version: 6.00 Build 0)  -->
<svg version="1.1" id="Layer_1" xmlns="http://www.w3.org/2000/svg" xmlns:xlink="http://www.w3.org/1999/xlink" x="0px" y="0px"
	 viewBox="0 0 208.15 37.76" style="enable-background:new 0 0 208.15 37.76;" xml:space="preserve">
<style type="text/css">
	.st0{fill:#002F87;}
	.st1{fill-rule:evenodd;clip-rule:evenodd;fill:#002F87;}
	.st2{fill:none;stroke:#002F87;stroke-width:0.575;stroke-miterlimit:3.8637;}
</style>
<g>
	<polygon class="st0" points="5.29,29.2 5.33,29.16 9.48,34.83 13.64,29.16 13.68,29.2 13.55,37.51 18.97,37.51 18.97,22.03 
		14.11,22.03 9.48,28.29 4.86,22.03 0,22.03 0,37.51 5.42,37.51 5.29,29.2 	"/>
	<path class="st1" d="M34.49,34.47c-1.34-0.02-1.43-0.39-1.43-1.59v-3.4c0-3.02-2.61-4.15-5.38-4.15c-2.16,0-3.92,0.64-5.65,2.04
		v3.52c2-1.52,3.22-2.04,4.79-2.04c1.34,0,1.84,0.38,1.88,1.47c-1.27,0.98-4.88,1.16-6.15,2.43c-0.59,0.59-0.91,1.32-0.91,2.04
		c0,1.54,1.14,2.93,3.81,2.93c1.47,0,2.79-0.38,3.92-1.16c0.73,1.02,1.91,1.27,4.24,1.11L34.49,34.47L34.49,34.47z M28.7,34.01
		c0,0.54,0.02,0.84,0.11,1.11c-0.64,0.5-1.5,0.82-2.25,0.82c-0.77,0-1.34-0.57-1.34-1.34c0-1.64,2.34-1.5,3.47-2.29V34.01
		L28.7,34.01z"/>
	<path class="st0" d="M36.15,37.51h4.72V30.5c0.52-0.89,1.14-1.3,1.88-1.3c0.93,0,1.36,0.55,1.36,1.75v6.56h4.72v-7.92
		c0-2.66-1.47-4.27-4.11-4.27c-1.5,0-2.56,0.5-3.86,1.77v-1.57h-4.72V37.51L36.15,37.51z"/>
	<path class="st1" d="M50.98,31.52c0,2.93,2,6.19,7.1,6.19c4.77,0,7.01-3.02,7.01-6.19c0-2.9-1.95-6.2-7.06-6.2
		C53.09,25.32,50.98,28.43,50.98,31.52L50.98,31.52z M55.7,31.52c0-1.36,0.95-2.32,2.34-2.32c1.39,0,2.34,0.95,2.34,2.32
		c0,1.36-0.95,2.31-2.34,2.31C56.65,33.83,55.7,32.88,55.7,31.52L55.7,31.52z"/>
	<path class="st0" d="M75.98,26.3c-1.45-0.7-2.59-0.98-4.29-0.98c-3.77,0-4.83,2-4.83,3.52c0,3.54,5.01,3.52,5.01,5.01
		c0,0.61-0.5,0.93-1.25,0.93c-1.14,0-2.2-0.45-3.77-1.64v3.4c1.29,0.75,3.2,1.16,5.13,1.16c3.45,0,4.61-2.13,4.61-3.63
		c0-0.95-0.43-1.84-1.07-2.47c-1.61-1.61-3.95-1.34-3.95-2.54c0-0.48,0.45-0.82,1.11-0.82c0.88,0,1.9,0.36,3.29,1.2V26.3L75.98,26.3
		z"/>
	<path class="st0" d="M143.43,22.08h-5.42v7.99c0,2.45-1.25,3.49-2.9,3.49c-1.68,0-2.84-1.04-2.84-3.22v-8.26h-5.42v8.94
		c0,4.22,3.02,6.74,8.4,6.74c5.38,0,8.19-2.77,8.19-7.31V22.08L143.43,22.08z"/>
	<path class="st0" d="M145.97,37.55h4.72v-7.01c0.52-0.88,1.14-1.29,1.88-1.29c0.93,0,1.36,0.54,1.36,1.75v6.56h4.72v-7.92
		c0-2.65-1.47-4.26-4.1-4.26c-1.5,0-2.56,0.5-3.86,1.77v-1.57h-4.72V37.55L145.97,37.55z"/>
	<path class="st1" d="M161.37,37.55h4.72V25.57h-4.72V37.55L161.37,37.55z M163.73,21.53c-0.89,0-1.59,0.7-1.59,1.59
		c0,0.88,0.7,1.59,1.59,1.59c0.88,0,1.59-0.7,1.59-1.59C165.31,22.24,164.61,21.53,163.73,21.53L163.73,21.53z"/>
	<path class="st1" d="M182.03,22.08h-4.72v3.79c-1.04-0.36-1.84-0.5-2.83-0.5c-3.63,0-6.08,2.45-6.08,6.1
		c0,3.63,2.38,6.08,6.08,6.08h7.56V22.08L182.03,22.08z M177.31,33.46c-0.61,0.14-1.02,0.21-1.5,0.21c-1.64,0-2.7-0.84-2.7-2.16
		c0-1.36,1.02-2.27,2.52-2.27c0.52,0,1.07,0.09,1.68,0.25V33.46L177.31,33.46z"/>
	<path class="st1" d="M197.23,34.51c-1.34-0.02-1.43-0.38-1.43-1.59v-3.4c0-3.02-2.61-4.15-5.38-4.15c-2.15,0-3.92,0.64-5.65,2.04
		v3.52c2-1.52,3.22-2.04,4.79-2.04c1.34,0,1.84,0.38,1.88,1.47c-1.27,0.98-4.88,1.16-6.15,2.43c-0.59,0.59-0.91,1.31-0.91,2.04
		c0,1.54,1.14,2.93,3.81,2.93c1.47,0,2.79-0.39,3.93-1.16c0.73,1.02,1.91,1.27,4.24,1.11L197.23,34.51L197.23,34.51z M191.44,34.06
		c0,0.54,0.02,0.84,0.11,1.11c-0.64,0.5-1.5,0.82-2.25,0.82c-0.77,0-1.34-0.57-1.34-1.34c0-1.63,2.34-1.5,3.47-2.29V34.06
		L191.44,34.06z"/>
	<path class="st0" d="M207.53,26.34c-1.45-0.7-2.59-0.98-4.29-0.98c-3.77,0-4.84,2-4.84,3.52c0,3.54,5.01,3.52,5.01,5.01
		c0,0.61-0.5,0.93-1.25,0.93c-1.13,0-2.2-0.45-3.77-1.63v3.4c1.3,0.75,3.2,1.16,5.13,1.16c3.45,0,4.61-2.13,4.61-3.63
		c0-0.95-0.43-1.84-1.07-2.47c-1.61-1.61-3.95-1.34-3.95-2.54c0-0.48,0.45-0.82,1.11-0.82c0.88,0,1.9,0.36,3.29,1.2V26.34
		L207.53,26.34z"/>
	<path class="st2" d="M80.37,18.6C81.87,8.03,90.46,0.65,101.14,0.76c10.11,0.1,17.97,6.49,20.11,16.38 M84.89,22.6
		c-0.16-4.88,0.65-7.95,3.2-12.12c3.31-5.41,6.92-8.1,13.05-9.72c5.55,1.56,8.76,3.88,11.98,8.66c2.97,4.39,3.92,7.79,3.66,13.08
		 M90.88,21.8c-0.21-4.55,0.34-7.33,2.26-11.45c2.06-4.41,4.02-6.77,7.99-9.59c3.77,2.91,5.63,5.18,7.72,9.46
		c1.73,3.53,2.35,5.8,2.66,9.72 M97.81,30.45c-0.84-5.18-0.96-8.22-0.53-13.45c0.53-6.49,1.42-10.21,3.86-16.25
		c2.55,6.1,3.44,9.91,3.86,16.51c0.32,5.04,0.14,7.96-0.8,12.92 M93.01,2.49c1.71,3.08,4.21,4.58,7.72,4.66
		c3.65,0.08,6.35-1.47,8.12-4.66 M86.62,6.48c4.3,4.06,8.07,5.65,13.98,5.86c6.29,0.23,10.5-1.3,15.18-5.53 M82.23,12.87
		c6.66,3.4,11.16,4.49,18.64,4.53c7.52,0.04,12.05-1.02,18.78-4.39 M83.96,21.66h4.26 M91.68,21.66h18.38 M113.92,21.66h4.45
		 M94.74,26.32h11.85 M109.36,37.21h5.43c0.6-0.41,0.92-0.69,1.4-1.23c0.46-0.52,0.68-0.85,1-1.46l-4.53,1.26L109.36,37.21
		L109.36,37.21z M91.28,37.23h-3.86c-0.86-0.43-1.22-0.91-1.8-1.67c-0.44-0.57-0.65-0.93-0.93-1.6c1.81-0.41,3.15-0.14,4.66,0.93
		C90.32,35.59,90.79,36.16,91.28,37.23L91.28,37.23z"/>
	<path class="st0" d="M101,30.72c0,0,2-0.27,2.63-0.63c0.63-0.37,1.23-1.16,1.73-1.63c0.5-0.47,0.76-1.76,1.16-2.5
		c0.4-0.73,1.93-2.1,2.36-2.6c0.43-0.5,0.73-1.36,1.17-1.83c0.43-0.47,1.16-1.93,1.53-2.66c0.37-0.73,0.77-1.93,1.07-2.16
		c0.3-0.23,1,0.17,1.5,0.66c0.5,0.5,0.66,1.67,0.63,2.43c-0.03,0.77-0.47,2.17-0.73,2.8c-0.27,0.63-0.4,1.33-0.4,1.33
		s0.5-0.1,0.9-0.27c0.4-0.17,1-0.57,2.23-1.3c1.23-0.73,2.4-2,3.36-3.2c0.97-1.2,0.93-2.9,0.93-2.9s0.73,0.43,1.26,0.9
		c0.53,0.47,0.6,2.46,0.6,2.46s0.5,0.6,0.63,1.6c0.13,1-0.43,2.67-0.43,2.67s0.3,0.4,0.4,1.4c0.1,1-0.83,2.66-0.83,2.66
		s0.03,0.66,0,1.1c-0.03,0.43-0.4,1.43-1.16,2.53c-0.77,1.1-2.43,2.3-3.7,2.96c-1.26,0.66-3.3,1.1-5.43,1.66
		c-2.13,0.57-1.37,1.03-1.37,1.03s-1.84,0.39-1.97,0.06c-0.13-0.33,1.41-1.16,2.11-1.46c0.7-0.3,1.73-0.53,3.73-1.03
		c2-0.5,4.16-1.8,5.39-2.9c1.23-1.1,1.5-2.3,1.33-2.5c-0.16-0.2-0.53,0.27-0.97,0.73c-0.43,0.47-1.5,1.2-2.1,1.53
		c-0.6,0.33-1.66,1.2-1.93,0.73c-0.27-0.47,1.23-1.13,1.73-1.47c0.5-0.33,1.53-1.13,1.93-1.56c0.4-0.43,1.53-1.4,2.03-2.3
		c0.5-0.9,0.43-1.9,0.23-1.96c-0.2-0.07-1.16,1.26-1.8,2c-0.63,0.73-1.6,1.53-2.13,1.86c-0.53,0.33-1.86,1.4-2.1,1
		c-0.23-0.4,0.47-0.73,0.93-1.06c0.47-0.33,1.8-1.33,2.86-2.53c1.07-1.2,2.03-2.53,2.26-3.43c0.23-0.9,0.17-1.83-0.03-1.77
		c-0.2,0.07-1.03,1.7-1.6,2.33c-0.57,0.63-1.73,1.63-2.66,2.4c-0.93,0.77-2.56,1.93-2.83,1.57c-0.27-0.37,0.33-0.67,0.76-0.97
		c0.43-0.3,1.76-1.43,3.1-2.53c1.33-1.1,2.56-3.26,2.83-4.16c0.27-0.9-0.13-2-0.4-2.06c-0.27-0.07-0.37,0.63-0.6,1.03
		c-0.23,0.4-0.6,1.2-1.5,2.17c-0.9,0.97-3.26,2.63-4.13,3.06c-0.87,0.43-2.7,1.36-3.03,1.17c-0.33-0.2,0.13-1.1,0.27-1.63
		c0.13-0.53,1.26-3.16,1.26-4.16s-0.4-1.53-1-1.53c-0.6,0-0.6,1.13-0.93,1.8c-0.33,0.66-1.13,1.86-1.66,2.8
		c-0.53,0.93-2.53,3.06-3.13,3.93c-0.6,0.87-1.53,2.8-2.33,3.66c-0.8,0.87-3.86,1.67-3.86,1.67l-0.01,5.82h-9.95
		c0,0-0.96-0.82-1.82-1.36c-0.87-0.53-2.66-0.67-3.73-1c-1.07-0.33-2.26-1-3.6-1.86c-1.33-0.87-2.07-2.2-2.4-2.99
		c-0.22-0.53-0.13-1.03-0.02-1.33l0.59,0.53c1.64,1.34,2.74,2.13,4.64,3.06c0.24,0.08,0.32-0.16,0.2-0.32
		c-1.98-1.01-3-1.71-4.67-3.07c-0.21-0.17-0.4-0.35-0.59-0.51c0,0-0.63-0.69-0.83-1.16c-0.2-0.47-0.4-0.87-0.47-1.86
		c-0.04-0.65,0.12-0.86,0.29-0.98c0.49,0.6,0.99,1.11,1.68,1.8c1.53,1.51,2.56,2.33,4.41,3.47c0.2,0.08,0.31-0.02,0.29-0.2
		c-1.92-1.23-2.9-1.99-4.45-3.52c-0.72-0.71-1.27-1.3-1.78-1.92c-0.2-0.52-0.68-1.87-0.68-2.72c0-0.79,0.51-1.06,0.8-1.16
		c0.76,1.21,1.37,2.11,2.49,3.31c1.44,1.55,2.43,2.39,4.19,3.6c0.16,0.07,0.34-0.09,0.27-0.27c-1.82-1.28-2.77-2.09-4.22-3.66
		c-1.12-1.21-1.73-2.05-2.5-3.28c-0.12-0.49-0.47-1.84-0.34-2.67c0.15-0.92,1.86-1.06,1.86-1.06s0,0.8,0.07,1.46
		c0.07,0.67,0.66,1.4,1.93,2.66c1.26,1.26,5.72,3.93,5.72,3.93s0.07-0.73-0.33-1.66c-0.4-0.93-0.47-1.07-0.8-2.66
		c-0.33-1.6,1.06-3.06,1.66-3c0.6,0.07,1.53,2.73,2,3.26c0.47,0.53,1.8,2.6,2.53,3.8c0.73,1.2,1.6,2.46,3.46,4.73
		S101,30.72,101,30.72L101,30.72z"/>
</g>
</svg>
