<?xml version="1.0" encoding="utf-8"?>
<!-- Generator: Adobe Illustrator 24.2.3, SVG Export Plug-In . SVG Version: 6.00 Build 0)  -->
<svg version="1.1" id="Layer_1" xmlns="http://www.w3.org/2000/svg" xmlns:xlink="http://www.w3.org/1999/xlink" x="0px" y="0px"
	 viewBox="0 0 1062 455.8" style="enable-background:new 0 0 1062 455.8;" xml:space="preserve">
<style type="text/css">
	.st0{fill:none;stroke:#FFFFFF;stroke-miterlimit:10;}
	.st1{fill:none;}
	.st2{fill:#FFFFFF;}
	.st3{font-family:'WorkSans-Light';}
	.st4{font-size:12px;}
	.st5{fill:#FBE5E4;}
	.st6{fill:#F7CBC9;}
	.st7{fill:#F3B0AE;}
	.st8{fill:#EF9693;}
	.st9{fill:#EA7C77;}
	.st10{fill:#E6625C;}
	.st11{fill:#E24741;}
	.st12{fill:#DE2D26;}
	.st13{fill:#630606;}
	.st14{fill:none;stroke:#FFFFFF;stroke-width:0.5;stroke-miterlimit:10;}
</style>
<g>
	<rect x="867.6" y="154.6" class="st0" width="194" height="260"/>
	<rect x="949.3" y="207.9" class="st1" width="97.1" height="199.7"/>
	<text transform="matrix(1 0 0 1 949.2698 216.6779)" class="st2 st3 st4">0 - 15</text>
	<text transform="matrix(1 0 0 1 949.2698 237.6779)" class="st2 st3 st4">15 - 50</text>
	<text transform="matrix(1 0 0 1 949.2698 258.6779)" class="st2 st3 st4">50 - 100</text>
	<text transform="matrix(1 0 0 1 949.2698 279.6779)" class="st2 st3 st4">100 - 150</text>
	<text transform="matrix(1 0 0 1 949.2698 300.6779)" class="st2 st3 st4">150 - 300</text>
	<text transform="matrix(1 0 0 1 949.2698 321.6779)" class="st2 st3 st4">300 - 500</text>
	<text transform="matrix(1 0 0 1 949.2698 342.6779)" class="st2 st3 st4">500 - 800</text>
	<text transform="matrix(1 0 0 1 949.2698 363.6779)" class="st2 st3 st4">800 - 1500</text>
	<text transform="matrix(1 0 0 1 949.2698 384.6779)" class="st2 st3 st4">1500 - 4000</text>
	<text transform="matrix(1 0 0 1 949.2698 405.6779)" class="st2 st3 st4">4000 - 4000</text>
	<text transform="matrix(1 0 0 1 913.2981 173.8903)" class="st2 st3 st4">Casos reportados </text>
	<text transform="matrix(1 0 0 1 895.968 188.2903)" class="st2 st3 st4">(por 100 000 habitantes)</text>
	<rect x="916.9" y="207.6" class="st2" width="20" height="10"/>
	<rect x="916.9" y="228.6" class="st5" width="20" height="10"/>
	<rect x="916.9" y="249.6" class="st6" width="20" height="10"/>
	<rect x="916.9" y="270.6" class="st7" width="20" height="10"/>
	<rect x="916.9" y="291.6" class="st8" width="20" height="10"/>
	<rect x="916.9" y="312.6" class="st9" width="20" height="10"/>
	<rect x="916.9" y="333.6" class="st10" width="20" height="10"/>
	<rect x="916.9" y="354.6" class="st11" width="20" height="10"/>
	<rect x="916.9" y="375.6" class="st12" width="20" height="10"/>
	<rect x="916.9" y="396.6" class="st13" width="20" height="10"/>
</g>
<rect x="0.4" y="284.3" class="st14" width="262.5" height="128.4"/>
</svg>
