<?xml version="1.0" encoding="utf-8"?>
<!-- Generator: Adobe Illustrator 24.2.3, SVG Export Plug-In . SVG Version: 6.00 Build 0)  -->
<svg version="1.1" id="Capa_1" xmlns="http://www.w3.org/2000/svg" xmlns:xlink="http://www.w3.org/1999/xlink" x="0px" y="0px"
	 viewBox="0 0 532.7 274.2" style="enable-background:new 0 0 532.7 274.2;" xml:space="preserve">
<style type="text/css">
	.st0{fill:#FFFFFF;}
</style>
<g>
	<g>
		<path class="st0" d="M161.3,77.4V86h-0.8l-4.5-6.7l-0.6-1.1l0,0v1V86h-0.6v-8.6h0.8l4.5,6.7l0.7,1.1v-1v-6.8
			C160.8,77.4,161.3,77.4,161.3,77.4z"/>
		<path class="st0" d="M166.4,79.3c0.6,0,1.1,0.1,1.6,0.4s0.8,0.7,1.1,1.2s0.4,1.1,0.4,1.8s-0.1,1.3-0.4,1.8
			c-0.3,0.5-0.6,0.9-1.1,1.2c-0.5,0.3-1,0.4-1.6,0.4s-1.1-0.1-1.6-0.4s-0.8-0.7-1.1-1.2s-0.4-1.1-0.4-1.8s0.1-1.3,0.4-1.8
			s0.6-0.9,1.1-1.2C165.2,79.4,165.8,79.3,166.4,79.3z M166.4,79.9c-0.5,0-0.9,0.1-1.3,0.3c-0.4,0.2-0.6,0.5-0.9,1
			c-0.2,0.4-0.3,0.9-0.3,1.5s0.1,1.1,0.3,1.5s0.5,0.8,0.9,1s0.8,0.3,1.3,0.3s0.9-0.1,1.3-0.3c0.4-0.2,0.6-0.6,0.9-1
			c0.2-0.4,0.3-0.9,0.3-1.5s-0.1-1.1-0.3-1.5s-0.5-0.7-0.9-1C167.3,80,166.9,79.9,166.4,79.9z"/>
		<path class="st0" d="M178.6,79.4V80h-4.4v-0.6H178.6z M176.2,77.6v6.6c0,0.4,0.1,0.7,0.3,0.9c0.2,0.2,0.5,0.3,0.9,0.3
			c0.2,0,0.5,0,0.6-0.1c0.2-0.1,0.4-0.2,0.5-0.4l0.2,0.5c-0.2,0.2-0.4,0.3-0.6,0.4c-0.3,0.1-0.5,0.1-0.8,0.1s-0.6-0.1-0.9-0.2
			c-0.3-0.1-0.5-0.3-0.6-0.6c-0.1-0.3-0.2-0.6-0.2-1v-6.5L176.2,77.6z"/>
		<path class="st0" d="M180.4,78.2c-0.2,0-0.3,0-0.4-0.1c-0.1-0.1-0.2-0.2-0.2-0.4c0-0.2,0-0.3,0.2-0.4c0.1-0.1,0.2-0.1,0.4-0.1
			s0.3,0,0.4,0.1c0.1,0.1,0.1,0.2,0.1,0.4c0,0.2,0,0.3-0.1,0.4C180.7,78.1,180.5,78.2,180.4,78.2z M180.7,79.4v6.5H180v-6.5H180.7z"
			/>
		<path class="st0" d="M185.7,86.1c-0.6,0-1.1-0.1-1.6-0.4s-0.8-0.7-1.1-1.2s-0.4-1.1-0.4-1.8s0.1-1.3,0.4-1.8s0.6-0.9,1.1-1.2
			s1-0.4,1.5-0.4c0.6,0,1.1,0.1,1.5,0.4s0.7,0.6,1,1.1c0.2,0.5,0.3,1,0.3,1.6c0,0.1,0,0.2,0,0.2c0,0.1,0,0.1,0,0.2H183v-0.6h5.1
			l-0.3,0.1c0-0.7-0.2-1.3-0.6-1.8c-0.4-0.4-0.9-0.7-1.6-0.7c-0.5,0-0.9,0.1-1.2,0.3c-0.4,0.2-0.6,0.5-0.8,1
			c-0.2,0.4-0.3,0.9-0.3,1.5s0.1,1.1,0.3,1.5s0.5,0.7,0.9,1s0.8,0.3,1.3,0.3s0.9-0.1,1.3-0.3c0.4-0.2,0.6-0.5,0.8-0.9l0.5,0.3
			c-0.2,0.3-0.4,0.6-0.6,0.8s-0.6,0.4-0.9,0.5S186.1,86.1,185.7,86.1z"/>
		<path class="st0" d="M190.3,85.9v-6.5h0.6L191,81l-0.1-0.1c0.1-0.4,0.3-0.7,0.5-0.9c0.2-0.3,0.5-0.4,0.9-0.6
			c0.3-0.1,0.7-0.2,1.1-0.2c0.5,0,0.9,0.1,1.3,0.3c0.4,0.2,0.7,0.5,0.9,0.8c0.2,0.4,0.3,0.8,0.3,1.3v4.2h-0.6v-4
			c0-0.7-0.2-1.2-0.5-1.6c-0.4-0.3-0.8-0.5-1.4-0.5c-0.4,0-0.8,0.1-1.1,0.3c-0.4,0.2-0.6,0.5-0.9,0.8s-0.3,0.8-0.3,1.3v3.7
			L190.3,85.9L190.3,85.9z"/>
		<path class="st0" d="M200.7,86.1c-0.6,0-1.1-0.1-1.6-0.4s-0.8-0.7-1.1-1.2s-0.4-1.1-0.4-1.8s0.1-1.3,0.4-1.8s0.6-0.9,1.1-1.2
			s1-0.4,1.5-0.4c0.6,0,1.1,0.1,1.5,0.4s0.7,0.6,1,1.1c0.2,0.5,0.3,1,0.3,1.6c0,0.1,0,0.2,0,0.2c0,0.1,0,0.1,0,0.2H198v-0.6h5.1
			l-0.3,0.1c0-0.7-0.2-1.3-0.6-1.8c-0.4-0.4-0.9-0.7-1.6-0.7c-0.5,0-0.9,0.1-1.2,0.3c-0.4,0.2-0.6,0.5-0.8,1
			c-0.2,0.4-0.3,0.9-0.3,1.5s0.1,1.1,0.3,1.5s0.5,0.7,0.9,1s0.8,0.3,1.3,0.3s0.9-0.1,1.3-0.3c0.4-0.2,0.6-0.5,0.8-0.9l0.5,0.3
			c-0.2,0.3-0.4,0.6-0.6,0.8s-0.6,0.4-0.9,0.5S201.1,86.1,200.7,86.1z"/>
		<path class="st0" d="M205.3,85.9v-6.5h0.6L206,81l-0.1-0.1c0.1-0.4,0.3-0.7,0.5-0.9c0.2-0.3,0.5-0.4,0.9-0.6
			c0.3-0.1,0.7-0.2,1.1-0.2c0.5,0,0.9,0.1,1.3,0.3c0.4,0.2,0.7,0.5,0.9,0.8c0.2,0.4,0.3,0.8,0.3,1.3v4.2h-0.6v-4
			c0-0.7-0.2-1.2-0.5-1.6c-0.4-0.3-0.8-0.5-1.4-0.5c-0.4,0-0.8,0.1-1.1,0.3c-0.4,0.2-0.6,0.5-0.9,0.8s-0.3,0.8-0.3,1.3v3.7
			L205.3,85.9L205.3,85.9z"/>
		<path class="st0" d="M221.1,81.7c0-0.6-0.2-1-0.5-1.3s-0.7-0.5-1.3-0.5c-0.5,0-0.9,0.1-1.3,0.3c-0.4,0.2-0.6,0.6-0.8,1.1l-0.5-0.3
			c0.2-0.5,0.5-0.9,1-1.2c0.4-0.3,1-0.4,1.7-0.4c0.5,0,0.9,0.1,1.3,0.3c0.4,0.2,0.6,0.4,0.8,0.7c0.2,0.3,0.3,0.7,0.3,1.2v3.2
			c0,0.5,0.2,0.7,0.6,0.7c0.2,0,0.3,0,0.5-0.1v0.5c-0.1,0.1-0.3,0.1-0.6,0.1c-0.2,0-0.4,0-0.6-0.1c-0.2-0.1-0.3-0.2-0.4-0.4
			s-0.2-0.4-0.2-0.7v-0.4h0.2c-0.1,0.4-0.2,0.7-0.5,0.9c-0.3,0.2-0.6,0.4-0.9,0.5c-0.3,0.1-0.7,0.2-1,0.2c-0.4,0-0.8-0.1-1.1-0.2
			s-0.6-0.3-0.8-0.6c-0.2-0.2-0.3-0.6-0.3-0.9c0-0.5,0.2-0.9,0.5-1.2c0.3-0.3,0.8-0.5,1.4-0.6l2.7-0.5v0.5l-2.4,0.5
			c-0.5,0.1-0.9,0.3-1.1,0.5c-0.3,0.2-0.4,0.5-0.4,0.8c0,0.4,0.1,0.6,0.4,0.9c0.3,0.2,0.6,0.3,1.1,0.3c0.3,0,0.5,0,0.8-0.1
			s0.5-0.2,0.7-0.3c0.2-0.2,0.4-0.3,0.5-0.6c0.1-0.2,0.2-0.5,0.2-0.8L221.1,81.7L221.1,81.7z"/>
		<path class="st0" d="M226.8,79.3c0.4,0,0.8,0.1,1.2,0.2s0.6,0.3,0.9,0.6c0.2,0.3,0.4,0.6,0.6,0.9l-0.6,0.3
			c-0.1-0.5-0.4-0.8-0.7-1.1c-0.3-0.3-0.8-0.4-1.3-0.4s-0.9,0.1-1.3,0.3s-0.6,0.5-0.8,1c-0.2,0.4-0.3,0.9-0.3,1.5s0.1,1.1,0.3,1.5
			s0.5,0.7,0.8,1s0.8,0.3,1.3,0.3c0.4,0,0.7-0.1,1-0.2s0.5-0.3,0.7-0.5s0.3-0.5,0.4-0.8l0.6,0.2c-0.1,0.4-0.3,0.7-0.6,1
			s-0.6,0.5-0.9,0.7s-0.8,0.2-1.2,0.2c-0.6,0-1.1-0.1-1.6-0.4s-0.8-0.7-1.1-1.2s-0.4-1.1-0.4-1.8s0.1-1.3,0.4-1.8s0.6-0.9,1.1-1.2
			C225.7,79.4,226.2,79.3,226.8,79.3z"/>
		<path class="st0" d="M233.9,79.3c0.4,0,0.8,0.1,1.2,0.2s0.6,0.3,0.9,0.6c0.2,0.3,0.4,0.6,0.6,0.9l-0.6,0.3
			c-0.1-0.5-0.4-0.8-0.7-1.1c-0.3-0.3-0.8-0.4-1.3-0.4s-0.9,0.1-1.3,0.3s-0.6,0.5-0.8,1c-0.2,0.4-0.3,0.9-0.3,1.5s0.1,1.1,0.3,1.5
			s0.5,0.7,0.8,1s0.8,0.3,1.3,0.3c0.4,0,0.7-0.1,1-0.2s0.5-0.3,0.7-0.5s0.3-0.5,0.4-0.8l0.6,0.2c-0.1,0.4-0.3,0.7-0.6,1
			s-0.6,0.5-0.9,0.7S234.4,86,234,86c-0.6,0-1.1-0.1-1.6-0.4s-0.8-0.7-1.1-1.2s-0.4-1.1-0.4-1.8s0.1-1.3,0.4-1.8s0.6-0.9,1.1-1.2
			C232.7,79.4,233.3,79.3,233.9,79.3z"/>
		<path class="st0" d="M240.9,86.1c-0.6,0-1.1-0.1-1.6-0.4s-0.8-0.7-1.1-1.2s-0.4-1.1-0.4-1.8s0.1-1.3,0.4-1.8s0.6-0.9,1.1-1.2
			s1-0.4,1.5-0.4c0.6,0,1.1,0.1,1.5,0.4s0.7,0.6,1,1.1c0.2,0.5,0.3,1,0.3,1.6c0,0.1,0,0.2,0,0.2c0,0.1,0,0.1,0,0.2h-5.4v-0.6h5.1
			l-0.3,0.1c0-0.7-0.2-1.3-0.6-1.8c-0.4-0.4-0.9-0.7-1.6-0.7c-0.5,0-0.9,0.1-1.2,0.3c-0.4,0.2-0.6,0.5-0.8,1
			c-0.2,0.4-0.3,0.9-0.3,1.5s0.1,1.1,0.3,1.5s0.5,0.7,0.9,1s0.8,0.3,1.3,0.3s0.9-0.1,1.3-0.3c0.4-0.2,0.6-0.5,0.8-0.9l0.5,0.3
			c-0.2,0.3-0.4,0.6-0.6,0.8s-0.6,0.4-0.9,0.5S241.4,86.1,240.9,86.1z"/>
		<path class="st0" d="M247.7,86.1c-0.7,0-1.2-0.1-1.7-0.4s-0.9-0.7-1.1-1.2l0.6-0.4c0.2,0.4,0.4,0.8,0.8,1c0.4,0.2,0.9,0.4,1.5,0.4
			s1-0.1,1.3-0.3c0.3-0.2,0.5-0.5,0.5-0.9c0-0.3-0.1-0.5-0.2-0.7c-0.2-0.2-0.5-0.3-0.9-0.4l-1.5-0.3c-0.6-0.1-1.1-0.3-1.3-0.6
			c-0.3-0.3-0.4-0.6-0.4-1.1c0-0.3,0.1-0.7,0.3-0.9s0.5-0.5,0.9-0.7s0.8-0.3,1.3-0.3c0.6,0,1.2,0.1,1.6,0.4c0.4,0.3,0.7,0.6,0.9,1.2
			l-0.5,0.4c-0.1-0.5-0.4-0.8-0.7-1c-0.4-0.2-0.8-0.3-1.2-0.3s-0.7,0.1-1,0.2s-0.5,0.3-0.6,0.4c-0.2,0.2-0.2,0.4-0.2,0.6
			c0,0.3,0.1,0.5,0.3,0.7s0.5,0.4,0.9,0.4l1.6,0.3c0.6,0.1,1,0.3,1.3,0.6c0.2,0.3,0.4,0.6,0.4,1s-0.1,0.7-0.3,1
			c-0.2,0.3-0.5,0.5-0.9,0.7C248.7,86,248.2,86.1,247.7,86.1z"/>
		<path class="st0" d="M254.7,79.3c0.6,0,1.1,0.1,1.6,0.4s0.8,0.7,1.1,1.2c0.3,0.5,0.4,1.1,0.4,1.8s-0.1,1.3-0.4,1.8
			s-0.6,0.9-1.1,1.2c-0.5,0.3-1,0.4-1.6,0.4s-1.1-0.1-1.6-0.4s-0.8-0.7-1.1-1.2s-0.4-1.1-0.4-1.8s0.1-1.3,0.4-1.8s0.6-0.9,1.1-1.2
			C253.6,79.4,254.1,79.3,254.7,79.3z M254.7,79.9c-0.5,0-0.9,0.1-1.3,0.3c-0.4,0.2-0.6,0.5-0.9,1c-0.2,0.4-0.3,0.9-0.3,1.5
			s0.1,1.1,0.3,1.5c0.2,0.4,0.5,0.8,0.9,1s0.8,0.3,1.3,0.3s0.9-0.1,1.3-0.3c0.4-0.2,0.6-0.6,0.9-1c0.2-0.4,0.3-0.9,0.3-1.5
			s-0.1-1.1-0.3-1.5c-0.2-0.4-0.5-0.7-0.9-1C255.7,80,255.2,79.9,254.7,79.9z"/>
		<path class="st0" d="M267.7,81.7c0-0.6-0.2-1-0.5-1.3s-0.7-0.5-1.3-0.5c-0.5,0-0.9,0.1-1.3,0.3c-0.4,0.2-0.6,0.6-0.8,1.1l-0.5-0.3
			c0.2-0.5,0.5-0.9,1-1.2c0.4-0.3,1-0.4,1.7-0.4c0.5,0,0.9,0.1,1.3,0.3c0.4,0.2,0.6,0.4,0.8,0.7c0.2,0.3,0.3,0.7,0.3,1.2v3.2
			c0,0.5,0.2,0.7,0.6,0.7c0.2,0,0.3,0,0.5-0.1v0.5c-0.1,0.1-0.3,0.1-0.6,0.1c-0.2,0-0.4,0-0.6-0.1s-0.3-0.2-0.4-0.4
			s-0.2-0.4-0.2-0.7v-0.4h0.2c-0.1,0.4-0.2,0.7-0.5,0.9c-0.3,0.2-0.6,0.4-0.9,0.5s-0.7,0.2-1,0.2c-0.4,0-0.8-0.1-1.1-0.2
			c-0.3-0.1-0.6-0.3-0.8-0.6c-0.2-0.2-0.3-0.6-0.3-0.9c0-0.5,0.2-0.9,0.5-1.2c0.3-0.3,0.8-0.5,1.4-0.6l2.7-0.5v0.5l-2.4,0.5
			c-0.5,0.1-0.9,0.3-1.1,0.5c-0.3,0.2-0.4,0.5-0.4,0.8c0,0.4,0.1,0.6,0.4,0.9c0.3,0.2,0.6,0.3,1.1,0.3c0.3,0,0.5,0,0.8-0.1
			s0.5-0.2,0.7-0.3c0.2-0.2,0.4-0.3,0.5-0.6c0.1-0.2,0.2-0.5,0.2-0.8L267.7,81.7L267.7,81.7z"/>
		<path class="st0" d="M163.2,101.5V95h1.6l0.1,1.2c0.2-0.4,0.5-0.8,0.9-1s0.8-0.3,1.3-0.3s0.9,0.1,1.3,0.3s0.7,0.5,0.9,1
			c0.1-0.3,0.3-0.5,0.6-0.7c0.2-0.2,0.5-0.3,0.8-0.4s0.6-0.1,0.9-0.1c0.4,0,0.8,0.1,1.2,0.3c0.4,0.2,0.6,0.4,0.8,0.8
			s0.3,0.8,0.3,1.3v4.3h-1.8v-3.9c0-0.5-0.1-0.8-0.3-1s-0.5-0.3-0.8-0.3s-0.5,0.1-0.7,0.2s-0.4,0.3-0.5,0.6c-0.1,0.3-0.2,0.6-0.2,1
			v3.5h-1.8v-3.9c0-0.5-0.1-0.8-0.3-1s-0.5-0.3-0.8-0.3c-0.2,0-0.4,0.1-0.7,0.2s-0.4,0.3-0.5,0.6c-0.1,0.3-0.2,0.6-0.2,1v3.4h-2.1
			V101.5z"/>
		<path class="st0" d="M178.5,101.7c-0.7,0-1.3-0.1-1.8-0.4s-0.9-0.7-1.2-1.2s-0.4-1.1-0.4-1.8s0.1-1.3,0.4-1.8
			c0.3-0.5,0.7-0.9,1.2-1.2s1.1-0.4,1.7-0.4c0.7,0,1.2,0.1,1.7,0.4s0.8,0.6,1.1,1.1c0.2,0.5,0.4,1,0.4,1.6c0,0.2,0,0.3,0,0.5
			s0,0.3,0,0.4h-5.2v-1.2h4.4l-0.9,0.3c0-0.5-0.1-1-0.4-1.3s-0.6-0.4-1-0.4c-0.3,0-0.6,0.1-0.9,0.2s-0.4,0.4-0.5,0.7
			s-0.2,0.7-0.2,1.2s0.1,0.8,0.2,1.1c0.1,0.3,0.3,0.5,0.6,0.7s0.5,0.2,0.9,0.2s0.7-0.1,0.9-0.2s0.4-0.4,0.5-0.6l1.4,0.5
			c-0.1,0.3-0.3,0.6-0.6,0.9c-0.3,0.2-0.6,0.4-1,0.6C179.4,101.6,179,101.7,178.5,101.7z"/>
		<path class="st0" d="M185.5,101.7c-0.5,0-1-0.1-1.4-0.4s-0.7-0.7-1-1.2c-0.2-0.5-0.4-1.1-0.4-1.8c0-0.7,0.1-1.3,0.4-1.8
			c0.3-0.5,0.6-0.9,1-1.2c0.4-0.3,0.9-0.4,1.4-0.4c0.6,0,1,0.2,1.4,0.5s0.6,0.8,0.7,1.3l-0.2,0.2v-4.7h1.8v9.3h-1.6l-0.1-2l0.2,0.1
			c-0.1,0.4-0.2,0.8-0.4,1.1s-0.5,0.5-0.8,0.7C186.2,101.6,185.9,101.7,185.5,101.7z M186,100.3c0.3,0,0.6-0.1,0.8-0.2
			s0.4-0.4,0.5-0.7c0.1-0.3,0.2-0.7,0.2-1.1s-0.1-0.8-0.2-1.1s-0.3-0.5-0.5-0.7s-0.5-0.2-0.8-0.2c-0.5,0-0.9,0.2-1.1,0.5
			c-0.3,0.3-0.4,0.8-0.4,1.5s0.1,1.2,0.4,1.5C185.2,100.1,185.5,100.3,186,100.3z"/>
		<path class="st0" d="M192.1,94.1c-0.4,0-0.7-0.1-0.8-0.2c-0.2-0.2-0.3-0.4-0.3-0.7c0-0.3,0.1-0.6,0.3-0.7s0.5-0.2,0.8-0.2
			c0.4,0,0.7,0.1,0.8,0.2s0.3,0.4,0.3,0.7c0,0.3-0.1,0.5-0.3,0.7C192.7,94,192.5,94.1,192.1,94.1z M193,95v6.5h-1.8V95H193z"/>
		<path class="st0" d="M197.8,94.9c0.6,0,1.1,0.1,1.5,0.3c0.4,0.2,0.7,0.4,1,0.7s0.4,0.6,0.5,1l-1.7,0.6c-0.1-0.4-0.2-0.7-0.4-0.9
			s-0.5-0.3-0.8-0.3s-0.6,0.1-0.8,0.2c-0.2,0.2-0.4,0.4-0.5,0.7c-0.1,0.3-0.2,0.7-0.2,1.2s0.1,0.8,0.2,1.1c0.1,0.3,0.3,0.5,0.5,0.7
			c0.2,0.1,0.5,0.2,0.8,0.2s0.5,0,0.7-0.1s0.3-0.2,0.4-0.4c0.1-0.2,0.2-0.4,0.2-0.6l1.6,0.5c-0.1,0.4-0.3,0.7-0.5,1
			c-0.3,0.3-0.6,0.5-1,0.7s-0.9,0.2-1.4,0.2c-0.7,0-1.3-0.1-1.8-0.4s-0.9-0.7-1.2-1.2s-0.4-1.1-0.4-1.8s0.1-1.3,0.4-1.8
			c0.3-0.5,0.7-0.9,1.2-1.2C196.6,95,197.1,94.9,197.8,94.9z"/>
		<path class="st0" d="M205.9,97.4c0-0.4-0.1-0.7-0.3-0.9c-0.2-0.2-0.5-0.3-0.8-0.3s-0.6,0.1-0.8,0.2c-0.2,0.2-0.4,0.4-0.5,0.8
			l-1.5-0.5c0.1-0.6,0.5-1,1-1.4c0.5-0.3,1.2-0.5,2-0.5c0.6,0,1.1,0.1,1.5,0.3s0.8,0.4,1,0.8s0.4,0.8,0.4,1.3v2.6
			c0,0.3,0.2,0.5,0.5,0.5c0.1,0,0.3,0,0.4-0.1l-0.1,1.1c-0.2,0.1-0.5,0.2-0.8,0.2s-0.6-0.1-0.8-0.2s-0.4-0.3-0.6-0.5
			c-0.1-0.2-0.2-0.5-0.2-0.8v-0.1l0.3-0.1c-0.1,0.3-0.2,0.6-0.4,0.8s-0.5,0.4-0.9,0.5s-0.7,0.2-1,0.2c-0.4,0-0.8-0.1-1.1-0.2
			s-0.6-0.3-0.7-0.6c-0.2-0.3-0.3-0.6-0.3-1c0-0.5,0.2-0.9,0.5-1.2c0.3-0.3,0.8-0.5,1.3-0.6l2.4-0.5v1.1l-1.6,0.3
			c-0.3,0.1-0.5,0.1-0.7,0.2s-0.2,0.3-0.2,0.5s0.1,0.4,0.2,0.5s0.4,0.2,0.6,0.2c0.2,0,0.4,0,0.5-0.1c0.2,0,0.3-0.1,0.5-0.2
			c0.1-0.1,0.2-0.2,0.3-0.4c0.1-0.2,0.1-0.4,0.1-0.6v-1.3C206.1,97.4,205.9,97.4,205.9,97.4z"/>
		<path class="st0" d="M209.6,101.5V95h1.6l0.1,1.2c0.2-0.4,0.5-0.8,0.9-1s0.8-0.3,1.3-0.3s0.9,0.1,1.3,0.3s0.7,0.5,0.9,1
			c0.1-0.3,0.3-0.5,0.6-0.7c0.2-0.2,0.5-0.3,0.8-0.4s0.6-0.1,0.9-0.1c0.4,0,0.8,0.1,1.2,0.3c0.4,0.2,0.6,0.4,0.8,0.8
			s0.3,0.8,0.3,1.3v4.3h-1.8v-3.9c0-0.5-0.1-0.8-0.3-1s-0.5-0.3-0.8-0.3s-0.5,0.1-0.7,0.2s-0.4,0.3-0.5,0.6c-0.1,0.3-0.2,0.6-0.2,1
			v3.5h-2v-3.9c0-0.5-0.1-0.8-0.3-1s-0.5-0.3-0.8-0.3c-0.2,0-0.4,0.1-0.7,0.2s-0.4,0.3-0.5,0.6c-0.1,0.3-0.2,0.6-0.2,1v3.4h-1.9
			L209.6,101.5L209.6,101.5z"/>
		<path class="st0" d="M224.9,101.7c-0.7,0-1.3-0.1-1.8-0.4s-0.9-0.7-1.2-1.2s-0.4-1.1-0.4-1.8s0.1-1.3,0.4-1.8
			c0.3-0.5,0.7-0.9,1.2-1.2s1.1-0.4,1.7-0.4c0.7,0,1.2,0.1,1.7,0.4s0.8,0.6,1.1,1.1c0.2,0.5,0.4,1,0.4,1.6c0,0.2,0,0.3,0,0.5
			s0,0.3,0,0.4h-5.2v-1.2h4.4l-0.9,0.3c0-0.5-0.1-1-0.4-1.3s-0.6-0.4-1-0.4c-0.3,0-0.6,0.1-0.9,0.2s-0.4,0.4-0.5,0.7
			s-0.2,0.7-0.2,1.2s0.1,0.8,0.2,1.1c0.1,0.3,0.3,0.5,0.6,0.7s0.5,0.2,0.9,0.2s0.7-0.1,0.9-0.2s0.4-0.4,0.5-0.6l1.4,0.5
			c-0.1,0.3-0.3,0.6-0.6,0.9c-0.3,0.2-0.6,0.4-1,0.6C225.8,101.6,225.4,101.7,224.9,101.7z"/>
		<path class="st0" d="M229.5,101.5V95h1.6l0.1,2l-0.2-0.2c0.1-0.4,0.3-0.8,0.5-1c0.2-0.3,0.5-0.5,0.8-0.6s0.7-0.2,1.1-0.2
			c0.5,0,0.9,0.1,1.2,0.3c0.4,0.2,0.6,0.4,0.8,0.8s0.3,0.8,0.3,1.3v4.3h-1.8v-3.8c0-0.6-0.1-0.9-0.3-1.2c-0.2-0.2-0.5-0.3-0.8-0.3
			c-0.2,0-0.5,0.1-0.7,0.2s-0.4,0.3-0.6,0.6c-0.1,0.3-0.2,0.6-0.2,1v3.4h-1.8L229.5,101.5L229.5,101.5z"/>
		<path class="st0" d="M241.8,95v1.3h-5.1V95H241.8z M239.8,93v6.4c0,0.3,0.1,0.5,0.2,0.7s0.4,0.2,0.7,0.2c0.2,0,0.4,0,0.6-0.1
			c0.2-0.1,0.3-0.2,0.4-0.3l0.3,1.2c-0.2,0.2-0.5,0.3-0.8,0.4s-0.6,0.1-1,0.1s-0.8-0.1-1.2-0.2c-0.3-0.1-0.6-0.3-0.8-0.6
			c-0.2-0.3-0.3-0.7-0.3-1.1v-6.2L239.8,93z"/>
		<path class="st0" d="M246,94.9c0.7,0,1.2,0.1,1.7,0.4s0.9,0.7,1.2,1.2s0.4,1.1,0.4,1.8c0,0.7-0.1,1.3-0.4,1.8
			c-0.3,0.5-0.7,0.9-1.2,1.2c-0.5,0.3-1.1,0.4-1.7,0.4c-0.7,0-1.2-0.1-1.7-0.4s-0.9-0.7-1.2-1.2s-0.4-1.1-0.4-1.8
			c0-0.7,0.1-1.3,0.4-1.8c0.3-0.5,0.7-0.9,1.2-1.2S245.4,94.9,246,94.9z M246,96.2c-0.3,0-0.6,0.1-0.8,0.2c-0.2,0.2-0.4,0.4-0.5,0.7
			c-0.1,0.3-0.2,0.7-0.2,1.1s0.1,0.8,0.2,1.1c0.1,0.3,0.3,0.5,0.5,0.7s0.5,0.2,0.8,0.2s0.6-0.1,0.8-0.2c0.2-0.2,0.4-0.4,0.5-0.7
			c0.1-0.3,0.2-0.7,0.2-1.1s-0.1-0.8-0.2-1.1c-0.1-0.3-0.3-0.5-0.5-0.7C246.6,96.3,246.3,96.2,246,96.2z"/>
		<path class="st0" d="M253.4,101.7c-0.7,0-1.3-0.1-1.8-0.4c-0.5-0.2-1-0.6-1.3-1l1-1c0.2,0.3,0.5,0.6,0.8,0.8
			c0.3,0.2,0.8,0.3,1.2,0.3c0.3,0,0.6,0,0.8-0.1c0.2-0.1,0.3-0.3,0.3-0.5c0-0.1,0-0.3-0.1-0.4s-0.3-0.2-0.6-0.2l-1.1-0.2
			c-0.8-0.2-1.3-0.4-1.6-0.7s-0.5-0.7-0.5-1.2c0-0.4,0.1-0.7,0.3-1c0.2-0.3,0.5-0.6,1-0.8c0.4-0.2,1-0.3,1.6-0.3
			c0.7,0,1.2,0.1,1.7,0.3c0.5,0.2,0.9,0.5,1.1,0.9l-1.1,1c-0.2-0.3-0.4-0.5-0.7-0.7s-0.6-0.2-1-0.2c-0.2,0-0.5,0-0.6,0.1
			c-0.2,0.1-0.3,0.1-0.4,0.2s-0.1,0.2-0.1,0.3s0.1,0.3,0.2,0.4s0.3,0.2,0.7,0.3l1.3,0.3c0.6,0.1,1.1,0.3,1.4,0.7s0.4,0.7,0.4,1.1
			s-0.1,0.8-0.3,1.1c-0.2,0.3-0.5,0.6-1,0.8C254.6,101.6,254.1,101.7,253.4,101.7z"/>
		<path class="st0" d="M258.6,99.5c0.3,0,0.6,0.1,0.8,0.3c0.2,0.2,0.3,0.4,0.3,0.8c0,0.3-0.1,0.6-0.3,0.8c-0.2,0.2-0.5,0.3-0.8,0.3
			s-0.6-0.1-0.8-0.3c-0.2-0.2-0.3-0.4-0.3-0.8c0-0.3,0.1-0.6,0.3-0.8S258.3,99.5,258.6,99.5z"/>
	</g>
	<path class="st0" d="M210.5,135.5v-22c0-0.5,0.4-0.9,0.9-0.9s0.9,0.3,0.9,0.9v22l6.7-6.7c0.3-0.3,0.9-0.3,1.2,0s0.3,0.9,0,1.2
		l-8.2,8.2c-0.3,0.3-0.9,0.3-1.2,0l-8.2-8.2c-0.3-0.3-0.3-0.9,0-1.2s0.9-0.3,1.2,0L210.5,135.5L210.5,135.5z"/>
</g>
</svg>
