<?xml version="1.0" encoding="utf-8"?>
<!-- Generator: Adobe Illustrator 24.2.3, SVG Export Plug-In . SVG Version: 6.00 Build 0)  -->
<svg version="1.1" id="Capa_1" xmlns="http://www.w3.org/2000/svg" xmlns:xlink="http://www.w3.org/1999/xlink" x="0px" y="0px"
	 viewBox="0 0 532.7 274.2" style="enable-background:new 0 0 532.7 274.2;" xml:space="preserve">
<style type="text/css">
	.st0{fill-rule:evenodd;clip-rule:evenodd;fill:#FE9E9E;}
	.st1{fill-rule:evenodd;clip-rule:evenodd;fill:#FFFFFF;}
	.st2{fill-rule:evenodd;clip-rule:evenodd;}
	.st3{fill:none;stroke:#FE9E9E;stroke-width:12;stroke-linecap:round;stroke-linejoin:round;stroke-miterlimit:3;}
	.st4{fill-rule:evenodd;clip-rule:evenodd;fill:#FF5E9D;}
	.st5{fill-rule:evenodd;clip-rule:evenodd;fill:#AF4670;}
	.st6{fill-rule:evenodd;clip-rule:evenodd;fill:#CBE0E0;}
	.st7{fill-rule:evenodd;clip-rule:evenodd;fill:#748F8F;}
	.st8{fill:none;stroke:#748F8F;stroke-width:2.5;stroke-linecap:round;stroke-miterlimit:3;}
	.st9{fill:none;stroke:#000000;stroke-linecap:round;stroke-linejoin:round;stroke-miterlimit:3;}
	.st10{fill:none;stroke:#F5F5F5;stroke-width:5;stroke-linecap:round;stroke-linejoin:round;stroke-miterlimit:3;}
	.st11{fill-rule:evenodd;clip-rule:evenodd;fill:#FFFF00;}
	.st12{fill:none;stroke:#FEFEFE;stroke-width:12;stroke-linecap:round;stroke-miterlimit:3;}
	.st13{fill:none;stroke:#000000;stroke-width:0.5;stroke-linecap:square;stroke-miterlimit:3;}
	.st14{clip-path:url(#SVGID_2_);}
	.st15{clip-path:url(#SVGID_4_);}
	.st16{clip-path:url(#SVGID_6_);}
	.st17{clip-path:url(#SVGID_8_);}
	.st18{clip-path:url(#SVGID_10_);}
	.st19{clip-path:url(#SVGID_14_);}
	.st20{clip-path:url(#SVGID_16_);}
	.st21{clip-path:url(#SVGID_20_);}
	.st22{clip-path:url(#SVGID_22_);}
	.st23{clip-path:url(#SVGID_26_);}
	.st24{clip-path:url(#SVGID_28_);}
	.st25{clip-path:url(#SVGID_32_);}
	.st26{clip-path:url(#SVGID_34_);}
	.st27{fill-rule:evenodd;clip-rule:evenodd;fill:#AF426D;}
	.st28{clip-path:url(#SVGID_38_);}
	.st29{clip-path:url(#SVGID_40_);}
	.st30{fill:#748F8F;}
	.st31{clip-path:url(#SVGID_42_);}
	.st32{clip-path:url(#SVGID_44_);}
	.st33{fill:#FE9E9E;}
	.st34{fill-rule:evenodd;clip-rule:evenodd;fill:#FF619F;}
	.st35{fill-rule:evenodd;clip-rule:evenodd;fill:#AF446E;}
	.st36{clip-path:url(#SVGID_46_);}
	.st37{clip-path:url(#SVGID_48_);}
	.st38{clip-path:url(#SVGID_50_);}
	.st39{clip-path:url(#SVGID_52_);}
	.st40{clip-path:url(#SVGID_54_);}
	.st41{clip-path:url(#SVGID_56_);}
	.st42{clip-path:url(#SVGID_58_);}
	.st43{clip-path:url(#SVGID_60_);}
	.st44{clip-path:url(#SVGID_62_);}
	.st45{clip-path:url(#SVGID_64_);}
	.st46{clip-path:url(#SVGID_66_);}
	.st47{clip-path:url(#SVGID_68_);}
	.st48{fill:#FEFEFE;}
	.st49{clip-path:url(#SVGID_70_);}
	.st50{clip-path:url(#SVGID_72_);}
	.st51{clip-path:url(#SVGID_74_);}
	.st52{clip-path:url(#SVGID_76_);}
	.st53{clip-path:url(#SVGID_78_);}
	.st54{clip-path:url(#SVGID_80_);}
	.st55{clip-path:url(#SVGID_82_);}
	.st56{clip-path:url(#SVGID_84_);}
	.st57{clip-path:url(#SVGID_86_);}
	.st58{clip-path:url(#SVGID_88_);}
	.st59{clip-path:url(#SVGID_90_);}
	.st60{clip-path:url(#SVGID_92_);}
	.st61{clip-path:url(#SVGID_94_);}
	.st62{clip-path:url(#SVGID_96_);}
	.st63{fill-rule:evenodd;clip-rule:evenodd;fill:#FFCA00;}
</style>
<symbol  id="Símbolo_10" viewBox="-45.7 -74 91.4 148">
	<path class="st0" d="M45.7,31.7v-63.3c0-11.7-4.2-21.7-12.5-30S14.9-74,3.3-74h-6.7c-11.6,0-21.6,4.1-30,12.3
		c-8.2,8.4-12.3,18.4-12.3,30v63.3c0,11.6,4.1,21.6,12.3,30c8.3,8.3,18.3,12.4,30,12.4h6.7c11.6,0,21.6-4.1,29.8-12.3
		C41.4,53.3,45.7,43.3,45.7,31.7z"/>
</symbol>
<symbol  id="Símbolo_21" viewBox="-29 -9 58.1 18">
	<g>
		<path class="st1" d="M28,3.9l-0.5,0.2c-1.4,0.6-3.7,0.9-6.9,1C14.8,5.3,8.1,4.5-0.1,2.8c-8-1.7-14.8-3.8-20.5-6.3
			c-3.1-1.4-5.4-2.7-6.8-3.9l-0.5-0.4c-0.8,0.4-1.2,1-1.2,1.7c0,1.8,2.8,4,8.5,6.5S-8,5,0,6.7c8,1.6,14.8,2.4,20.5,2.3
			S29,7.9,29,6.1C29,5.5,28.7,4.7,28,3.9z"/>
		<path class="st2" d="M-27.8-7.8l0.5,0.4c1.4,1.2,3.7,2.5,6.8,3.9C-14.9-1-8,1.1,0,2.8s14.9,2.4,20.5,2.3c3.2-0.1,5.5-0.4,6.9-1
			L28,3.9l-0.5-0.5C26,2.3,23.8,1,20.5-0.4C14.8-2.9,8.1-5-0.1-6.6c-8-1.7-14.8-2.5-20.5-2.4c-3.1,0.1-5.4,0.4-6.8,0.9L-27.8-7.8z"
			/>
	</g>
</symbol>
<symbol  id="Símbolo_39" viewBox="-7.1 -7.1 14.2 14.2">
	<path class="st2" d="M-5.1-5c-1.4,1.4-2,3-2,5s0.7,3.7,2,5.1c1.4,1.4,3.1,2,5.1,2s3.6-0.7,5-2C6.4,3.7,7.1,2,7.1,0S6.4-3.6,5-5
		S2-7.1,0-7.1S-3.7-6.4-5.1-5z"/>
</symbol>
<symbol  id="Símbolo_4" viewBox="-34.5 -18.4 69 36.8">
	<polyline class="st3" points="-28.5,-9.4 8.9,-12.4 28.5,12.4 	"/>
</symbol>
<symbol  id="Símbolo_5" viewBox="-24.2 -25.3 48.4 50.6">
	<g>
		<g>
			<path class="st4" d="M4.3-15.3L-15.3,2.2L1.9,21.5c2.2,2.5,5,3.7,8.4,3.8c1.2,0,2.3-0.1,3.3-0.4c1.4-0.3,2.7-0.9,3.9-1.7l2-1.5
				l1-1.1c1-1,1.8-2.1,2.4-3.4c0.7-1.4,1.1-2.8,1.2-4.3v-0.2c0.3-3.3-0.6-6.2-2.8-8.6L4.3-15.3z M-18.5-1.5L1.1-18.9l-5.7-6.4
				L-24.2-7.8L-18.5-1.5z"/>
			
				<rect x="-20.1" y="-10.8" transform="matrix(0.7469 -0.6649 0.6649 0.7469 3.7595 -6.7541)" class="st5" width="26.2" height="4.9"/>
		</g>
	</g>
</symbol>
<symbol  id="Símbolo_60" viewBox="-15.5 -8 31 15.9">
	<g>
		<path class="st6" d="M15.1-4.4h-30.5c0.1,1.7,0.3,3.2,0.6,4.6c0.8,3,2.3,4.6,4.5,4.7H4.1c3.2,0,5.9-1.2,8.1-3.7
			C13.6-0.4,14.6-2.3,15.1-4.4z"/>
		<path class="st7" d="M15.1-4.4c0.3-1.1,0.4-2.2,0.4-3.4V-8h-31v0.2v3.4H15.1z"/>
	</g>
	<g>
		<path class="st8" d="M4.4,6.7l-3-5.1 M8.6,6.7L5.7,1.6"/>
	</g>
</symbol>
<symbol  id="Símbolo_63" viewBox="-5.8 -12.8 11.6 25.5">
	<path class="st0" d="M5.8,12.7V-6.9c0-1.6-0.6-3-1.7-4.2S1.6-12.8,0-12.8s-3,0.6-4.1,1.7c-1.2,1.2-1.7,2.6-1.7,4.2v19.6
		C-5.8,12.7,5.8,12.7,5.8,12.7z"/>
</symbol>
<symbol  id="Símbolo_65" viewBox="-1.7 -0.7 3.4 1.4">
	<path class="st9" d="M-1.2-0.2C-0.9,0.1-0.5,0.2,0,0.2c0.4,0,0.8-0.2,1.2-0.4"/>
</symbol>
<symbol  id="Símbolo_66" viewBox="-50.5 -111.2 101 222.4">
	<path class="st0" d="M-3.7,111.2h7.4c12.9,0,23.9-4.6,33-13.7c9.2-9.2,13.8-20.3,13.8-33.2V-64.3c0-12.9-4.6-23.9-13.8-33
		c-9.1-9.3-20.1-13.9-33-13.9h-7.4c-12.9,0-24,4.6-33.2,13.9c-9.1,9.1-13.6,20.1-13.6,33V64.3c0,12.9,4.5,24,13.7,33.2
		C-27.7,106.6-16.6,111.2-3.7,111.2z"/>
</symbol>
<symbol  id="Símbolo_67" viewBox="-31.1 -34.1 62.3 68.2">
	<path class="st10" d="M23.4,31.6v-63.2 M-22.6,31.6v-63.2"/>
	<g>
		<g>
			<path class="st2" d="M25,30.5L-8,6.7h-14.6l-3.2,0.2l33,23.8L25,30.5z M31.1,21.9v-9.2c0-4-2.8-6-8.5-6H10.1L31.1,21.9z
				 M-31.1,16.2v8.5c0,4,2.8,6,8.5,6h11.4L-31.1,16.2z"/>
			<path class="st11" d="M-11.1,30.7H7.2l-33-23.8c-3.6,0.7-5.4,2.6-5.4,5.8v3.5L-11.1,30.7z M10.1,6.7H-8l33,23.9
				c4.1-0.5,6.1-2.5,6.1-5.9v-2.8L10.1,6.7z"/>
		</g>
	</g>
</symbol>
<symbol  id="Símbolo_7" viewBox="-12.4 -31 24.8 62">
	<path class="st12" d="M-5.9,24.8L-6.4,25 M6.4-25v23.5c0,4.6-0.9,8.9-2.6,12.9"/>
</symbol>
<symbol  id="Símbolo_8" viewBox="-50.6 -74 101.2 148">
	<path class="st0" d="M3.7-74h-7.4c-12.9,0-24,4.6-33.2,13.9C-46-51-50.6-40-50.6-27.1v22.4H50.6v-22.4c0-12.9-4.6-23.9-13.8-33
		C27.6-69.4,16.6-74,3.7-74z"/>
	<g>
		<path class="st0" d="M38.1,61.7c8.3-8.3,12.5-18.3,12.5-30V-14c0-11.7-4.2-21.6-12.5-29.8c-8.2-8.4-18.2-12.5-29.8-12.5H1.6
			c-11.6,0-21.6,4.2-30,12.5c-8.2,8.2-12.4,18.1-12.4,29.8v45.7c0,11.6,4.1,21.6,12.4,30C-20,69.9-10,74,1.6,74h6.7
			C19.9,74,29.9,69.9,38.1,61.7z"/>
	</g>
</symbol>
<symbol  id="Símbolo_9" viewBox="-4.4 -3.7 8.7 7.4">
	<path class="st1" d="M-1,3.1C0,3.2,0.9,3,1.8,2.5l0.1-0.1c0.9-0.5,1.5-1.2,1.9-2L4-0.2c0.4-1.1,0.3-2.1-0.2-3.1L3.6-3.7l-8,4.6
		l0.2,0.4C-3.6,2.2-2.7,2.8-1.6,3L-1,3.1z"/>
	<g>
		<path class="st13" d="M-0.8,3.4l-2.3-4 M-0.7-1.9l2.8,4.8 M1.7-3.3l2.3,4"/>
	</g>
</symbol>
<g>
	<g id="Capa_1_3_">
		<g>
			<g>
				<g>
					<defs>
						<rect id="SVGID_1_" x="33.1" width="499.6" height="206.9"/>
					</defs>
					<clipPath id="SVGID_2_">
						<use xlink:href="#SVGID_1_"  style="overflow:visible;"/>
					</clipPath>
					<g class="st14">
						<g>
							<g>
								<defs>
									<rect id="SVGID_3_" x="32.1" y="81.1" width="319.8" height="123.3"/>
								</defs>
								<clipPath id="SVGID_4_">
									<use xlink:href="#SVGID_3_"  style="overflow:visible;"/>
								</clipPath>
								<g class="st15">
									<g>
										<defs>
											<rect id="SVGID_5_" x="31.1" y="82.2" width="319.8" height="123.4"/>
										</defs>
										<clipPath id="SVGID_6_">
											<use xlink:href="#SVGID_5_"  style="overflow:visible;"/>
										</clipPath>
										<g id="XMLID_1_" class="st16">
											<g>
												<g>
													<g>
														<defs>
															
																<rect id="SVGID_7_" x="115.3" y="102.4" transform="matrix(0.4995 -0.8663 0.8663 0.4995 -31.5541 153.2137)" width="3" height="3"/>
														</defs>
														<clipPath id="SVGID_8_">
															<use xlink:href="#SVGID_7_"  style="overflow:visible;"/>
														</clipPath>
														<g transform="matrix(1 2.980232e-08 -2.980232e-08 1 0 -5.960464e-07)" class="st17">
															<g>
																<g>
																	<defs>
																		
																			<rect id="SVGID_9_" x="115.3" y="102.4" transform="matrix(0.8663 -0.4995 0.4995 0.8663 -36.302 72.2374)" width="3" height="3"/>
																	</defs>
																	<clipPath id="SVGID_10_">
																		<use xlink:href="#SVGID_9_"  style="overflow:visible;"/>
																	</clipPath>
																	<g transform="matrix(1 2.980232e-08 -2.980232e-08 1 0 0)" class="st18">
																		<g>
																			<defs>
																				
																					<rect id="SVGID_11_" x="115.3" y="102.4" transform="matrix(0.4995 -0.8663 0.8663 0.4995 -31.5464 153.2029)" width="3" height="3"/>
																			</defs>
																			<clipPath id="SVGID_12_">
																				<use xlink:href="#SVGID_11_"  style="overflow:visible;"/>
																			</clipPath>
																			
																				<g transform="matrix(1 -2.980232e-08 2.980232e-08 1 -1.525879e-05 -7.629395e-06)" style="clip-path:url(#SVGID_12_);">
																				
																					<use xlink:href="#Símbolo_39"  width="14.2" height="14.2" x="-7.1" y="-7.1" transform="matrix(-0.1809 -0.1043 0.1043 -0.1809 116.8138 103.9028)" style="overflow:visible;"/>
																			</g>
																		</g>
																	</g>
																</g>
															</g>
														</g>
													</g>
												</g>
											</g>
											<g>
												<g>
													<g>
														<defs>
															
																<rect id="SVGID_13_" x="118.2" y="99.8" transform="matrix(0.8895 -0.457 0.457 0.8895 -33.2204 65.5232)" width="1.3" height="3.2"/>
														</defs>
														<clipPath id="SVGID_14_">
															<use xlink:href="#SVGID_13_"  style="overflow:visible;"/>
														</clipPath>
														<g transform="matrix(1 0 0 1 0 1.430511e-06)" class="st19">
															<g>
																<g>
																	<defs>
																		
																			<rect id="SVGID_15_" x="117.3" y="100.7" transform="matrix(0.457 -0.8895 0.8895 0.457 -25.6894 160.8054)" width="3.2" height="1.4"/>
																	</defs>
																	<clipPath id="SVGID_16_">
																		<use xlink:href="#SVGID_15_"  style="overflow:visible;"/>
																	</clipPath>
																	<g transform="matrix(1 0 0 1 0 -3.814697e-06)" class="st20">
																		<g>
																			<defs>
																				
																					<rect id="SVGID_17_" x="118.2" y="99.9" transform="matrix(0.8895 -0.457 0.457 0.8895 -33.2332 65.5381)" width="1.3" height="3.2"/>
																			</defs>
																			<clipPath id="SVGID_18_">
																				<use xlink:href="#SVGID_17_"  style="overflow:visible;"/>
																			</clipPath>
																			<g style="clip-path:url(#SVGID_18_);">
																				
																					<use xlink:href="#Símbolo_65"  width="3.4" height="1.4" x="-1.7" y="-0.7" transform="matrix(-0.424 -0.8252 -0.8252 0.424 118.8614 101.4675)" style="overflow:visible;"/>
																			</g>
																		</g>
																	</g>
																</g>
															</g>
														</g>
													</g>
												</g>
											</g>
											<g>
												<g>
													<g>
														<defs>
															<polygon id="SVGID_19_" points="300.1,196.2 349.9,206.7 349.9,191.2 300.1,180.7 															"/>
														</defs>
														<clipPath id="SVGID_20_">
															<use xlink:href="#SVGID_19_"  style="overflow:visible;"/>
														</clipPath>
														<g transform="matrix(1 0 0 1 0 7.629395e-06)" class="st21">
															<g>
																<g>
																	<defs>
																		<polygon id="SVGID_21_" points="300.1,196.3 349.9,206.8 349.9,191.3 300.1,180.8 																		"/>
																	</defs>
																	<clipPath id="SVGID_22_">
																		<use xlink:href="#SVGID_21_"  style="overflow:visible;"/>
																	</clipPath>
																	<g class="st22">
																		<g>
																			<defs>
																				<polygon id="SVGID_23_" points="300,196.4 349.8,206.9 349.8,191.4 300,180.9 																				"/>
																			</defs>
																			<clipPath id="SVGID_24_">
																				<use xlink:href="#SVGID_23_"  style="overflow:visible;"/>
																			</clipPath>
																			<g style="clip-path:url(#SVGID_24_);">
																				
																					<use xlink:href="#Símbolo_21"  width="58.1" height="18" x="-29" y="-9" transform="matrix(0.8572 0.1811 0 -0.8572 325.0053 193.9935)" style="overflow:visible;"/>
																			</g>
																		</g>
																	</g>
																</g>
															</g>
														</g>
													</g>
												</g>
											</g>
											<g>
												<g>
													<g>
														<defs>
															<polygon id="SVGID_25_" points="190.8,196.2 240.6,206.7 240.6,191.2 190.8,180.7 															"/>
														</defs>
														<clipPath id="SVGID_26_">
															<use xlink:href="#SVGID_25_"  style="overflow:visible;"/>
														</clipPath>
														<g class="st23">
															<g>
																<g>
																	<defs>
																		<polygon id="SVGID_27_" points="190.8,196.3 240.6,206.8 240.6,191.3 190.8,180.8 																		"/>
																	</defs>
																	<clipPath id="SVGID_28_">
																		<use xlink:href="#SVGID_27_"  style="overflow:visible;"/>
																	</clipPath>
																	<g class="st24">
																		<g>
																			<defs>
																				<polygon id="SVGID_29_" points="190.7,196.4 240.5,206.9 240.5,191.4 190.7,180.9 																				"/>
																			</defs>
																			<clipPath id="SVGID_30_">
																				<use xlink:href="#SVGID_29_"  style="overflow:visible;"/>
																			</clipPath>
																			<g transform="matrix(1 0 0 1 0 1.525879e-05)" style="clip-path:url(#SVGID_30_);">
																				
																					<use xlink:href="#Símbolo_21"  width="58.1" height="18" x="-29" y="-9" transform="matrix(0.8572 0.1811 0 -0.8572 215.7056 193.9935)" style="overflow:visible;"/>
																			</g>
																		</g>
																	</g>
																</g>
															</g>
														</g>
													</g>
												</g>
											</g>
											<g>
												<g>
													<g>
														<defs>
															<polygon id="SVGID_31_" points="130.2,188.9 183.5,200.2 183.5,141.8 130.2,130.5 															"/>
														</defs>
														<clipPath id="SVGID_32_">
															<use xlink:href="#SVGID_31_"  style="overflow:visible;"/>
														</clipPath>
														<g transform="matrix(1 0 0 1 0 -7.629395e-06)" class="st25">
															<g>
																<g>
																	<defs>
																		<polygon id="SVGID_33_" points="130.2,189 183.5,200.2 183.5,141.8 130.2,130.5 																		"/>
																	</defs>
																	<clipPath id="SVGID_34_">
																		<use xlink:href="#SVGID_33_"  style="overflow:visible;"/>
																	</clipPath>
																	<g transform="matrix(1 0 0 1 0 1.907349e-06)" class="st26">
																		<g>
																			<defs>
																				<polygon id="SVGID_35_" points="130.2,189 183.6,200.3 183.6,141.8 130.2,130.5 																				"/>
																			</defs>
																			<clipPath id="SVGID_36_">
																				<use xlink:href="#SVGID_35_"  style="overflow:visible;"/>
																			</clipPath>
																			<g style="clip-path:url(#SVGID_36_);">
																				
																					<use xlink:href="#Símbolo_67"  width="62.3" height="68.2" x="-31.1" y="-34.1" transform="matrix(0.8572 0.1811 0 -0.8572 156.791 165.3927)" style="overflow:visible;"/>
																			</g>
																		</g>
																	</g>
																</g>
															</g>
														</g>
													</g>
												</g>
											</g>
											<g>
												<g>
													<g>
														<g id="XMLID_2_">
															<g>
																<g>
																	<g>
																		<g>
																			<path class="st0" d="M77.3,185.4l-6.4-1l3.4-12.7l-7.1-21.1c-0.3-0.8-0.2-1.7,0.1-2.5c0.4-0.8,1-1.3,1.9-1.6
																				c0.8-0.3,1.6-0.2,2.4,0.2c0.8,0.4,1.4,1,1.6,1.8l6.4,19.8c0.6,1.8,0.8,3.4,0.6,4.6L77.3,185.4z"/>
																		</g>
																	</g>
																	<g>
																		<g>
																			<polygon class="st27" points="69.8,188.3 70.4,186.3 76.8,187.4 76.2,189.3 																			"/>
																		</g>
																	</g>
																	<g>
																		<g>
																			<path class="st4" d="M70.4,186.3l0.5-1.8l6.4,1l-0.5,2L70.4,186.3z M69.8,188.3l6.4,1.1l-2.1,7.8
																				c-0.2,0.9-0.7,1.5-1.4,1.9c-0.8,0.5-1.6,0.6-2.5,0.4s-1.5-0.7-1.9-1.5c-0.5-0.8-0.6-1.6-0.4-2.5L69.8,188.3z"/>
																		</g>
																	</g>
																</g>
															</g>
															<g>
																<g>
																	<defs>
																		
																			<rect id="SVGID_37_" x="69.7" y="187.5" transform="matrix(1.889460e-03 -1 1 1.889460e-03 -122.6965 271.763)" width="10.1" height="19.7"/>
																	</defs>
																	<clipPath id="SVGID_38_">
																		<use xlink:href="#SVGID_37_"  style="overflow:visible;"/>
																	</clipPath>
																	<g class="st28">
																		<g>
																			<defs>
																				
																					<rect id="SVGID_39_" x="64.9" y="192.3" transform="matrix(1 -1.889463e-03 1.889463e-03 1 -0.3728 0.1416)" width="19.7" height="10.1"/>
																			</defs>
																			<clipPath id="SVGID_40_">
																				<use xlink:href="#SVGID_39_"  style="overflow:visible;"/>
																			</clipPath>
																			<g class="st29">
																				<g>
																					<g>
																						<path class="st6" d="M84.3,200.1l-19.4,0c0.1-1.1,0.2-2,0.4-2.9c0.5-1.9,1.5-2.9,2.9-3l9.1,0
																							c2,0,3.7,0.8,5.1,2.3C83.4,197.6,84,198.8,84.3,200.1z"/>
																					</g>
																					<g>
																						<path class="st7" d="M84.3,200.1c0.2,0.7,0.3,1.4,0.3,2.2l0,0.1l-19.7,0l0-0.1l0-2.2L84.3,200.1z"/>
																					</g>
																				</g>
																				<g>
																					<g>
																						<path class="st30" d="M75.6,197.6c-0.2,0-0.4-0.1-0.6-0.2c-0.6-0.3-0.8-1.1-0.4-1.7l1.9-3.2
																							c0.3-0.6,1.1-0.8,1.7-0.4c0.4,0.2,0.6,0.6,0.6,1l0.3-0.6c0.3-0.6,1.1-0.8,1.7-0.5c0.6,0.3,0.8,1.1,0.5,1.7
																							l-1.8,3.2c-0.3,0.6-1.1,0.8-1.7,0.5c-0.4-0.2-0.7-0.7-0.6-1.1l-0.4,0.7C76.5,197.4,76.1,197.6,75.6,197.6z"/>
																					</g>
																				</g>
																			</g>
																		</g>
																	</g>
																</g>
															</g>
															<g>
																<g>
																	<g>
																		<polygon class="st27" points="70.2,167.6 64.1,149 75.1,145.4 81.2,164 																		"/>
																	</g>
																</g>
															</g>
															<g>
																<g>
																	<defs>
																		
																			<rect id="SVGID_41_" x="62" y="122.1" transform="matrix(0.9975 -7.020929e-02 7.020929e-02 0.9975 -9.0691 5.9869)" width="37.2" height="19.9"/>
																	</defs>
																	<clipPath id="SVGID_42_">
																		<use xlink:href="#SVGID_41_"  style="overflow:visible;"/>
																	</clipPath>
																	<g transform="matrix(1 7.450581e-09 -7.450581e-09 1 0 1.907349e-06)" class="st31">
																		<g>
																			<defs>
																				
																					<rect id="SVGID_43_" x="70.6" y="113.4" transform="matrix(7.020702e-02 -0.9975 0.9975 7.020702e-02 -56.7957 203.156)" width="19.9" height="37.2"/>
																			</defs>
																			<clipPath id="SVGID_44_">
																				<use xlink:href="#SVGID_43_"  style="overflow:visible;"/>
																			</clipPath>
																			<g class="st32">
																				<g>
																					<path class="st33" d="M84.9,145c-0.3,0-0.6,0-0.9-0.1l-20-3c-3.3-0.5-5.5-3.6-5-6.8c0.5-3.3,3.6-5.5,6.8-5
																						l16.9,2.6l9.3-10.2c2.2-2.4,6-2.6,8.5-0.4c2.4,2.2,2.6,6,0.4,8.5l-11.5,12.6C88.2,144.3,86.6,145,84.9,145z"/>
																				</g>
																			</g>
																		</g>
																	</g>
																</g>
															</g>
															<g>
																<g>
																	<g>
																		<path class="st0" d="M64,150c0.4-0.8,1-1.4,1.9-1.7c0.8-0.3,1.6-0.3,2.4,0.1c0.8,0.4,1.4,1,1.6,1.8
																			c0.3,0.8,0.3,1.6-0.1,2.5l-9.9,21.2l-7.1-0.5L64,150z"/>
																	</g>
																</g>
																<g>
																	<g>
																		<g>
																			<g>
																				<path class="st0" d="M50,180.3l-3.8-5.4l11.6-6.2l1.8,1.9c0.4,0.5,0.6,1.1,0.8,1.8c0.1,0.7-0.1,1.3-0.4,1.9
																					c-0.3,0.6-0.7,1.1-1.3,1.3L50,180.3z"/>
																			</g>
																		</g>
																		<g>
																			<g>
																				<path class="st34" d="M45,175.6l1.2-0.7l3.8,5.4l-1.4,0.8L45,175.6z M43.7,176.3l3.6,5.5l-7.6,4.1
																					c-0.8,0.4-1.6,0.5-2.4,0.2c-0.9-0.2-1.5-0.8-1.9-1.6s-0.5-1.6-0.2-2.4c0.2-0.8,0.8-1.5,1.6-1.9L43.7,176.3z"/>
																			</g>
																		</g>
																		<g>
																			<g>
																				<polygon class="st35" points="47.2,181.8 43.7,176.3 45,175.6 48.6,181 																				"/>
																			</g>
																		</g>
																	</g>
																</g>
															</g>
															<g>
																<g>
																	<defs>
																		
																			<rect id="SVGID_45_" x="27.7" y="181.4" transform="matrix(0.2406 -0.9706 0.9706 0.2406 -152.5431 178.0164)" width="19.6" height="10.1"/>
																	</defs>
																	<clipPath id="SVGID_46_">
																		<use xlink:href="#SVGID_45_"  style="overflow:visible;"/>
																	</clipPath>
																	<g transform="matrix(1 1.490116e-08 0 1 0 0)" class="st36">
																		<g>
																			<defs>
																				
																					<rect id="SVGID_47_" x="32.5" y="176.7" transform="matrix(0.9706 -0.2406 0.2406 0.9706 -43.7768 14.503)" width="10.1" height="19.7"/>
																			</defs>
																			<clipPath id="SVGID_48_">
																				<use xlink:href="#SVGID_47_"  style="overflow:visible;"/>
																			</clipPath>
																			<g class="st37">
																				<g>
																					<g>
																						<g>
																							<path class="st6" d="M37.1,196.5l-4.7-18.8c1.1-0.2,2-0.3,2.9-0.3c2,0,3.2,0.7,3.6,2.1l2.2,8.9
																								c0.5,2,0.2,3.8-1,5.5C39.4,194.9,38.3,195.8,37.1,196.5z"/>
																						</g>
																					</g>
																					<g>
																						<g>
																							<path class="st7" d="M37.1,196.5c-0.6,0.4-1.3,0.6-2,0.8l-0.1,0l-4.7-19.1l0.1,0l2.1-0.5L37.1,196.5z"/>
																						</g>
																					</g>
																				</g>
																				<g>
																					<g>
																						<g>
																							<g>
																								<path class="st30" d="M38.6,189.9c0-0.1,0-0.3,0-0.4c0.1-0.4,0.6-0.7,1-0.5l3.6,1c0.4,0.1,0.7,0.6,0.5,1
																									c-0.1,0.4-0.6,0.7-1,0.5l-3.6-1C38.9,190.4,38.7,190.2,38.6,189.9z M38,187.3c0-0.1,0-0.3,0-0.4
																									c0.1-0.4,0.6-0.7,1-0.5l3.6,1.1c0.4,0.1,0.7,0.6,0.5,1c-0.1,0.4-0.6,0.7-1,0.5l-3.6-1.1
																									C38.2,187.8,38,187.6,38,187.3z"/>
																							</g>
																						</g>
																					</g>
																				</g>
																			</g>
																		</g>
																	</g>
																</g>
															</g>
															<g>
																<g>
																	<g>
																		<g>
																			<polygon class="st35" points="65.7,168.2 55,164.1 63.5,141.5 72.6,149.8 																			"/>
																		</g>
																	</g>
																</g>
															</g>
															<g>
																<g>
																	<defs>
																		
																			<rect id="SVGID_49_" x="52" y="98.3" transform="matrix(0.4769 -0.879 0.879 0.4769 -65.6236 122.5741)" width="36.3" height="36.3"/>
																	</defs>
																	<clipPath id="SVGID_50_">
																		<use xlink:href="#SVGID_49_"  style="overflow:visible;"/>
																	</clipPath>
																	<g transform="matrix(1 2.980232e-08 -2.980232e-08 1 0 7.629395e-06)" class="st38">
																		<g>
																			<defs>
																				
																					<rect id="SVGID_51_" x="52.1" y="98.2" transform="matrix(0.879 -0.4769 0.4769 0.879 -47.0097 47.5843)" width="36.3" height="36.3"/>
																			</defs>
																			<clipPath id="SVGID_52_">
																				<use xlink:href="#SVGID_51_"  style="overflow:visible;"/>
																			</clipPath>
																			<g class="st39">
																				<g>
																					<g>
																						<path class="st2" d="M64.9,133.9c-4.9-1.4-8.2-4.3-10.6-8.8c-2.4-4.5-2.9-9.2-1.7-13.9
																							c1.4-4.9,4.5-8.3,9-10.7c4.5-2.4,9-2.8,13.7-1.6c4.9,1.4,8.5,4.4,10.9,8.9c2.4,4.5,2.8,9,1.4,13.8
																							c-1.4,4.9-4.2,8.4-8.7,10.8S69.7,135.3,64.9,133.9z"/>
																					</g>
																				</g>
																			</g>
																		</g>
																	</g>
																</g>
															</g>
															<g>
																<g>
																	<defs>
																		<rect id="SVGID_53_" x="56.3" y="110" width="48.5" height="50.5"/>
																	</defs>
																	<clipPath id="SVGID_54_">
																		<use xlink:href="#SVGID_53_"  style="overflow:visible;"/>
																	</clipPath>
																	<g class="st40">
																		<g>
																			<defs>
																				<rect id="SVGID_55_" x="56.3" y="110" width="48.5" height="50.6"/>
																			</defs>
																			<clipPath id="SVGID_56_">
																				<use xlink:href="#SVGID_55_"  style="overflow:visible;"/>
																			</clipPath>
																			<g class="st41">
																				<g>
																					<g>
																						<g>
																							<g>
																								<path class="st4" d="M84.8,150.6l-19.6-17.5l17.2-19.3c2.2-2.5,5-3.7,8.4-3.8c1.2,0,2.3,0.1,3.3,0.4
																									c1.4,0.3,2.7,0.9,3.9,1.7l2,1.5l1,1.1c1,1,1.8,2.1,2.4,3.4c0.7,1.4,1.1,2.8,1.2,4.3v0.2
																									c0.3,3.3-0.6,6.2-2.8,8.6L84.8,150.6z M62,136.8l19.6,17.4l-5.7,6.4l-19.6-17.5L62,136.8z"/>
																							</g>
																						</g>
																						<g>
																							<g>
																								
																									<rect x="71" y="130.5" transform="matrix(0.6649 -0.7469 0.7469 0.6649 -82.66 102.9726)" class="st5" width="4.9" height="26.2"/>
																							</g>
																						</g>
																					</g>
																				</g>
																			</g>
																		</g>
																	</g>
																</g>
															</g>
															<g>
																<g>
																	<defs>
																		
																			<rect id="SVGID_57_" x="98.8" y="108.7" transform="matrix(0.7469 -0.6649 0.6649 0.7469 -51.0099 96.9981)" width="6.3" height="13.7"/>
																	</defs>
																	<clipPath id="SVGID_58_">
																		<use xlink:href="#SVGID_57_"  style="overflow:visible;"/>
																	</clipPath>
																	<g transform="matrix(1 2.980232e-08 -2.980232e-08 1 0 0)" class="st42">
																		<g>
																			<defs>
																				
																					<rect id="SVGID_59_" x="95.1" y="112.4" transform="matrix(0.6649 -0.7469 0.7469 0.6649 -52.1318 114.8986)" width="13.8" height="6.3"/>
																			</defs>
																			<clipPath id="SVGID_60_">
																				<use xlink:href="#SVGID_59_"  style="overflow:visible;"/>
																			</clipPath>
																			<g class="st43">
																				<g>
																					<g>
																						<path class="st0" d="M108.8,112.5l-7,7.9c-0.6,0.6-1.3,1-2.2,1.1s-1.6-0.3-2.2-0.8s-1-1.3-1-2.2
																							c-0.1-0.9,0.2-1.7,0.8-2.3l7-7.9C104.2,108.3,108.8,112.5,108.8,112.5z"/>
																					</g>
																				</g>
																			</g>
																		</g>
																	</g>
																</g>
															</g>
															<g>
																<g>
																	<defs>
																		
																			<rect id="SVGID_61_" x="97.6" y="97.4" transform="matrix(0.866 -0.5 0.5 0.866 -36.6771 65.3193)" width="11.8" height="7.3"/>
																	</defs>
																	<clipPath id="SVGID_62_">
																		<use xlink:href="#SVGID_61_"  style="overflow:visible;"/>
																	</clipPath>
																	<g transform="matrix(1 -2.980232e-08 2.980232e-08 1 0 6.675720e-06)" class="st44">
																		<g>
																			<defs>
																				
																					<rect id="SVGID_63_" x="99.9" y="95.1" transform="matrix(0.5 -0.866 0.866 0.5 -35.7293 140.2053)" width="7.3" height="11.8"/>
																			</defs>
																			<clipPath id="SVGID_64_">
																				<use xlink:href="#SVGID_63_"  style="overflow:visible;"/>
																			</clipPath>
																			<g class="st45">
																				<g>
																					<g>
																						<path class="st0" d="M98,100.9c-0.2-0.9-0.1-1.7,0.3-2.5l0.3-0.5c0.5-0.8,1.1-1.3,2.1-1.6
																							c0.9-0.2,1.8-0.1,2.6,0.3l4.4,2.5c0.8,0.5,1.3,1.1,1.6,2c0.2,0.9,0.1,1.8-0.3,2.6l-0.3,0.5
																							c-0.5,0.8-1.1,1.3-2,1.6c-0.9,0.2-1.8,0.1-2.6-0.3l-4.4-2.5C98.7,102.5,98.2,101.8,98,100.9z"/>
																					</g>
																				</g>
																			</g>
																		</g>
																	</g>
																</g>
															</g>
															<g>
																<g>
																	<defs>
																		
																			<rect id="SVGID_65_" x="98.2" y="100.3" transform="matrix(0.866 -0.5 0.5 0.866 -37.1761 63.9221)" width="4.9" height="2"/>
																	</defs>
																	<clipPath id="SVGID_66_">
																		<use xlink:href="#SVGID_65_"  style="overflow:visible;"/>
																	</clipPath>
																	<g transform="matrix(1 -2.980232e-08 2.980232e-08 1 -1.525879e-05 3.814697e-06)" class="st46">
																		<g>
																			<defs>
																				
																					<rect id="SVGID_67_" x="99.7" y="98.8" transform="matrix(0.5 -0.866 0.866 0.5 -37.3565 137.8643)" width="2" height="4.9"/>
																			</defs>
																			<clipPath id="SVGID_68_">
																				<use xlink:href="#SVGID_67_"  style="overflow:visible;"/>
																			</clipPath>
																			<g class="st47">
																				<g>
																					<g>
																						<path class="st48" d="M102.2,108.7c-1,0-2-0.3-3-0.8l-1.6-0.9c-1-0.6-1.9-1.4-2.6-2.3
																							c-0.4-0.6-0.7-1.2-0.9-1.8c-0.7-1.1-1-2.5-0.8-3.9c0.5-3.3,3.6-5.6,6.8-5.1c2,0.3,3.7,1.6,4.5,3.3l0.6,0.3
																							c2.9,1.7,3.9,5.3,2.2,8.2C106.3,107.7,104.3,108.7,102.2,108.7z"/>
																					</g>
																				</g>
																			</g>
																		</g>
																	</g>
																</g>
															</g>
															<g>
																<g>
																	<defs>
																		
																			<rect id="SVGID_69_" x="100.7" y="87.2" transform="matrix(0.8662 -0.4997 0.4997 0.8662 -36.5239 69.5115)" width="21.6" height="31.6"/>
																	</defs>
																	<clipPath id="SVGID_70_">
																		<use xlink:href="#SVGID_69_"  style="overflow:visible;"/>
																	</clipPath>
																	<g transform="matrix(1 0 0 1 0 -2.622604e-06)" class="st49">
																		<g>
																			<defs>
																				
																					<rect id="SVGID_71_" x="95.8" y="92.2" transform="matrix(0.4997 -0.8662 0.8662 0.4997 -33.3756 148.1732)" width="31.6" height="21.6"/>
																			</defs>
																			<clipPath id="SVGID_72_">
																				<use xlink:href="#SVGID_71_"  style="overflow:visible;"/>
																			</clipPath>
																			<g class="st50">
																				<g>
																					<g>
																						<path class="st0" d="M98.4,110.2c-0.7-2.7-0.4-5.2,1-7.6l2.4-4.1l18.7,10.8l-2.4,4.1c-1.4,2.4-3.4,3.9-6,4.6
																							c-2.7,0.7-5.2,0.4-7.6-1l-1.4-0.8C100.6,114.9,99.1,112.9,98.4,110.2z"/>
																					</g>
																				</g>
																				<g>
																					<g>
																						<g>
																							<path class="st0" d="M117.9,88.4l1.2,0.7c2.1,1.2,3.6,3.1,4.2,5.5c0.6,2.4,0.3,4.7-0.9,6.9l-4.9,8.4
																								c-1.2,2.2-3.1,3.5-5.5,4.2c-2.4,0.6-4.7,0.3-6.9-0.9l-1.2-0.7c-2.1-1.2-3.6-3.1-4.2-5.5
																								c-0.7-2.4-0.4-4.7,0.9-6.8l4.9-8.4c1.2-2.2,3.1-3.6,5.5-4.2C113.5,86.9,115.8,87.2,117.9,88.4z"/>
																						</g>
																					</g>
																				</g>
																			</g>
																		</g>
																	</g>
																</g>
															</g>
															<g>
																<g>
																	<defs>
																		<rect id="SVGID_73_" x="105.1" y="107.5" width="8.7" height="7.5"/>
																	</defs>
																	<clipPath id="SVGID_74_">
																		<use xlink:href="#SVGID_73_"  style="overflow:visible;"/>
																	</clipPath>
																	<g class="st51">
																		<g>
																			<defs>
																				<rect id="SVGID_75_" x="105.1" y="107.5" width="8.7" height="7.5"/>
																			</defs>
																			<clipPath id="SVGID_76_">
																				<use xlink:href="#SVGID_75_"  style="overflow:visible;"/>
																			</clipPath>
																			<g class="st52">
																				<g>
																					<g>
																						<path class="st1" d="M108.5,108.2c1-0.1,1.9,0.1,2.8,0.6l0.1,0.1c0.9,0.5,1.5,1.2,1.9,2l0.2,0.6
																							c0.4,1.1,0.3,2.1-0.2,3.1l-0.2,0.4l-8-4.6l0.2-0.4c0.6-0.9,1.5-1.5,2.6-1.7L108.5,108.2z"/>
																					</g>
																				</g>
																				<g>
																					<g>
																						<g>
																							<path d="M111.3,114.9l-0.4-0.2l2.5-4.4l0.4,0.2L111.3,114.9z M108.9,113.5l-0.4-0.3l3.1-5.2l0.4,0.3
																								L108.9,113.5z M106.5,112.2l-0.4-0.2l2.5-4.4l0.4,0.2L106.5,112.2z"/>
																						</g>
																					</g>
																				</g>
																			</g>
																		</g>
																	</g>
																</g>
															</g>
															<g>
																<g>
																	<defs>
																		
																			<rect id="SVGID_77_" x="111.3" y="100.4" transform="matrix(0.8663 -0.4995 0.4995 0.8663 -35.8196 69.9815)" width="3" height="3"/>
																	</defs>
																	<clipPath id="SVGID_78_">
																		<use xlink:href="#SVGID_77_"  style="overflow:visible;"/>
																	</clipPath>
																	<g transform="matrix(1 2.980232e-08 -2.980232e-08 1 0 4.291534e-06)" class="st53">
																		<g>
																			<defs>
																				
																					<rect id="SVGID_79_" x="111.3" y="100.4" transform="matrix(0.4995 -0.8663 0.8663 0.4995 -31.7975 148.7416)" width="3" height="3"/>
																			</defs>
																			<clipPath id="SVGID_80_">
																				<use xlink:href="#SVGID_79_"  style="overflow:visible;"/>
																			</clipPath>
																			<g class="st54">
																				<g>
																					<g>
																						<path class="st2" d="M112.1,103.2c-0.4-0.2-0.6-0.5-0.7-0.9s-0.1-0.8,0.1-1.1c0.2-0.4,0.5-0.6,0.9-0.7
																							c0.4-0.1,0.8,0,1.1,0.2c0.4,0.2,0.6,0.5,0.7,0.9c0.1,0.4,0,0.8-0.2,1.1c-0.2,0.4-0.5,0.6-0.9,0.7
																							C112.8,103.4,112.4,103.4,112.1,103.2z"/>
																					</g>
																				</g>
																			</g>
																		</g>
																	</g>
																</g>
															</g>
															<g>
																<g>
																	<g>
																		<g>
																			<path d="M115.9,99.3h-2.3c-0.3,0-0.5-0.2-0.5-0.5s0.2-0.5,0.5-0.5h2.3c0.3,0,0.5,0.2,0.5,0.5
																				S116.2,99.3,115.9,99.3z"/>
																		</g>
																	</g>
																</g>
															</g>
															<g>
																<g>
																	<defs>
																		
																			<rect id="SVGID_81_" x="115.5" y="102.8" transform="matrix(0.8663 -0.4995 0.4995 0.8663 -36.4772 72.3754)" width="3" height="3"/>
																	</defs>
																	<clipPath id="SVGID_82_">
																		<use xlink:href="#SVGID_81_"  style="overflow:visible;"/>
																	</clipPath>
																	<g transform="matrix(1 2.980232e-08 -2.980232e-08 1 0 -5.960464e-07)" class="st55">
																		<g>
																			<defs>
																				
																					<rect id="SVGID_83_" x="115.4" y="102.9" transform="matrix(0.4995 -0.8663 0.8663 0.4995 -31.8683 153.5195)" width="3" height="3"/>
																			</defs>
																			<clipPath id="SVGID_84_">
																				<use xlink:href="#SVGID_83_"  style="overflow:visible;"/>
																			</clipPath>
																			<g class="st56">
																				<g>
																					<g>
																						<path class="st2" d="M116.2,105.6c-0.4-0.2-0.6-0.5-0.7-0.9c-0.1-0.4-0.1-0.8,0.1-1.1
																							c0.2-0.4,0.5-0.6,0.9-0.7c0.4-0.1,0.8,0,1.1,0.2c0.4,0.2,0.6,0.5,0.7,0.9c0.1,0.4,0,0.8-0.2,1.1
																							c-0.2,0.4-0.5,0.6-0.9,0.7C116.9,105.9,116.5,105.8,116.2,105.6z"/>
																					</g>
																				</g>
																			</g>
																		</g>
																	</g>
																</g>
															</g>
															<g>
																<g>
																	<defs>
																		
																			<rect id="SVGID_85_" x="117.4" y="101.3" transform="matrix(0.457 -0.8895 0.8895 0.457 -26.032 161.1715)" width="3.2" height="1.3"/>
																	</defs>
																	<clipPath id="SVGID_86_">
																		<use xlink:href="#SVGID_85_"  style="overflow:visible;"/>
																	</clipPath>
																	<g transform="matrix(1 0 0 1 0 1.430511e-06)" class="st57">
																		<g>
																			<defs>
																				
																					<rect id="SVGID_87_" x="118.2" y="100.3" transform="matrix(0.8895 -0.457 0.457 0.8895 -33.4346 65.6215)" width="1.4" height="3.2"/>
																			</defs>
																			<clipPath id="SVGID_88_">
																				<use xlink:href="#SVGID_87_"  style="overflow:visible;"/>
																			</clipPath>
																			<g class="st58">
																				<g>
																					<g>
																						<path d="M119.6,103.3c-0.1,0-0.1,0-0.2,0c-0.6-0.2-0.9-0.7-1.1-1.1c-0.2-0.4-0.2-0.9-0.2-1.4
																							c0-0.3,0.2-0.5,0.5-0.5c0.3,0,0.5,0.2,0.5,0.5c0,0.4,0,0.7,0.1,0.9c0.2,0.4,0.4,0.5,0.5,0.6
																							c0.3,0.1,0.4,0.4,0.3,0.6C120.1,103.2,119.9,103.3,119.6,103.3z"/>
																					</g>
																				</g>
																			</g>
																		</g>
																	</g>
																</g>
															</g>
															<g>
																<g>
																	<defs>
																		
																			<rect id="SVGID_89_" x="113.1" y="107.3" transform="matrix(0.8663 -0.4995 0.4995 0.8663 -38.9786 73.8168)" width="10.7" height="4.9"/>
																	</defs>
																	<clipPath id="SVGID_90_">
																		<use xlink:href="#SVGID_89_"  style="overflow:visible;"/>
																	</clipPath>
																	<g transform="matrix(1 0 0 1 0 -1.668930e-06)" class="st59">
																		<g>
																			<defs>
																				
																					<rect id="SVGID_91_" x="116" y="104.4" transform="matrix(0.4995 -0.8663 0.8663 0.4995 -35.8109 157.5267)" width="4.9" height="10.7"/>
																			</defs>
																			<clipPath id="SVGID_92_">
																				<use xlink:href="#SVGID_91_"  style="overflow:visible;"/>
																			</clipPath>
																			<g class="st60">
																				<g>
																					<g>
																						<path class="st0" d="M115.2,105.9c0.6-0.2,1.2-0.1,1.7,0.2l5.4,3.1c0.5,0.3,0.9,0.8,1.1,1.4
																							c0.2,0.6,0.1,1.2-0.2,1.7l-0.2,0.3c-0.3,0.5-0.8,0.9-1.4,1c-0.6,0.2-1.2,0.1-1.7-0.2l-5.4-3.1
																							c-0.5-0.3-0.9-0.8-1.1-1.4c-0.2-0.6-0.1-1.2,0.2-1.7l0.2-0.3C114.2,106.4,114.6,106,115.2,105.9z"/>
																					</g>
																				</g>
																			</g>
																		</g>
																	</g>
																</g>
															</g>
															<g>
																<g>
																	<g>
																		<g>
																			<path class="st1" d="M79.2,117.7c-1.3,0.7-2.7,0.9-4.1,0.4s-2.5-1.3-3.2-2.6c-0.7-1.3-0.9-2.7-0.4-4.2
																				c0.4-1.4,1.3-2.5,2.6-3.2c1.3-0.7,2.7-0.9,4.1-0.5c1.4,0.4,2.5,1.3,3.2,2.7s0.9,2.7,0.4,4.2
																				C81.4,115.9,80.5,117,79.2,117.7z"/>
																		</g>
																	</g>
																</g>
															</g>
															<g>
																<g>
																	<defs>
																		
																			<rect id="SVGID_93_" x="61.8" y="104.3" transform="matrix(0.7518 -0.6594 0.6594 0.7518 -63.2578 77.8423)" width="19.9" height="37.2"/>
																	</defs>
																	<clipPath id="SVGID_94_">
																		<use xlink:href="#SVGID_93_"  style="overflow:visible;"/>
																	</clipPath>
																	<g transform="matrix(1 -2.980232e-08 2.980232e-08 1 -1.525879e-05 0)" class="st61">
																		<g>
																			<defs>
																				
																					<rect id="SVGID_95_" x="53.1" y="113" transform="matrix(0.6594 -0.7518 0.7518 0.6594 -68.0338 95.8098)" width="37.2" height="19.9"/>
																			</defs>
																			<clipPath id="SVGID_96_">
																				<use xlink:href="#SVGID_95_"  style="overflow:visible;"/>
																			</clipPath>
																			<g class="st62">
																				<g>
																					<g>
																						<path class="st33" d="M57.8,137.2c-1.2,0-2.5-0.4-3.6-1.2c-2.7-2-3.2-5.7-1.2-8.4l12.1-16.2
																							c1.2-1.6,3.1-2.5,5.1-2.4l17,0.9c3.3,0.2,5.9,3,5.7,6.3c-0.2,3.3-3,5.8-6.3,5.7l-13.8-0.7l-10.2,13.7
																							C61.4,136.4,59.6,137.2,57.8,137.2z"/>
																					</g>
																				</g>
																			</g>
																		</g>
																	</g>
																</g>
															</g>
															<g>
																<g>
																	<g>
																		<g>
																			<g>
																				<path class="st63" d="M118.9,88.5l1.2,0.7c2.1,1.2,3.4,3.1,3.9,5.7c0.5,2.5,0,5-1.4,7.3l-0.3,0.5
																					c-3.7-1.7-5.9-5.2-6.6-10.6c-0.2-0.1-0.3-0.1-0.5-0.2c-3,1.6-5.7,2.1-8.1,1.5c-0.5,0.5-0.9,1.2-1.2,1.9
																					l-0.7,1.2c-0.5,0.9-0.9,1.4-1.4,1.6c-0.4,0.1-0.8,0.1-1.1-0.3c-0.5-0.3-0.6-0.7-0.4-1.4
																					c0.1-0.3,0.3-0.7,0.6-1.3l1.9-3.3c1.2-2.1,2.8-3.5,4.6-4.2c1.7-0.7,3.5-0.8,5.4-0.3
																					C116.2,87.4,117.6,87.7,118.9,88.5z"/>
																			</g>
																		</g>
																	</g>
																</g>
															</g>
														</g>
													</g>
												</g>
											</g>
										</g>
									</g>
								</g>
							</g>
						</g>
					</g>
				</g>
			</g>
		</g>
	</g>
</g>
</svg>
