<?xml version="1.0" encoding="utf-8"?>
<!-- Generator: Adobe Illustrator 24.2.3, SVG Export Plug-In . SVG Version: 6.00 Build 0)  -->
<svg version="1.1" id="Capa_1" xmlns="http://www.w3.org/2000/svg" xmlns:xlink="http://www.w3.org/1999/xlink" x="0px" y="0px"
	 viewBox="0 0 532.7 274.2" style="enable-background:new 0 0 532.7 274.2;" xml:space="preserve">
<style type="text/css">
	.st0{fill-rule:evenodd;clip-rule:evenodd;fill:#FE9E9E;}
	.st1{fill:none;stroke:#F4F4F4;stroke-width:5;stroke-linecap:round;stroke-linejoin:round;stroke-miterlimit:3;}
	.st2{fill-rule:evenodd;clip-rule:evenodd;}
	.st3{fill-rule:evenodd;clip-rule:evenodd;fill:#FFFF00;}
	.st4{fill-rule:evenodd;clip-rule:evenodd;fill:#FFFFFF;}
	.st5{fill:none;stroke:#FE9E9E;stroke-width:12;stroke-linecap:round;stroke-linejoin:round;stroke-miterlimit:3;}
	.st6{fill-rule:evenodd;clip-rule:evenodd;fill:#FF5E9D;}
	.st7{fill-rule:evenodd;clip-rule:evenodd;fill:#AF4670;}
	.st8{fill-rule:evenodd;clip-rule:evenodd;fill:#CBE0E0;}
	.st9{fill-rule:evenodd;clip-rule:evenodd;fill:#748F8F;}
	.st10{fill:none;stroke:#748F8F;stroke-width:2.5;stroke-linecap:round;stroke-miterlimit:3;}
	.st11{fill:none;stroke:#000000;stroke-linecap:round;stroke-linejoin:round;stroke-miterlimit:3;}
	.st12{fill:none;stroke:#F5F5F5;stroke-width:5;stroke-linecap:round;stroke-linejoin:round;stroke-miterlimit:3;}
	.st13{fill:none;stroke:#FEFEFE;stroke-width:12;stroke-linecap:round;stroke-miterlimit:3;}
	.st14{fill:none;stroke:#000000;stroke-width:0.5;stroke-linecap:square;stroke-miterlimit:3;}
	.st15{clip-path:url(#SVGID_2_);}
	.st16{clip-path:url(#SVGID_6_);}
</style>
<symbol  id="Símbolo_10" viewBox="-45.7 -74 91.3 148">
	<path class="st0" d="M45.7,31.7v-63.3c0-11.7-4.2-21.7-12.5-30S14.9-74,3.3-74h-6.7c-11.6,0-21.6,4.1-30,12.3
		c-8.2,8.4-12.3,18.4-12.3,30v63.3c0,11.6,4.1,21.6,12.3,30c8.3,8.3,18.3,12.4,30,12.4h6.7c11.6,0,21.6-4.1,29.8-12.3
		C41.4,53.3,45.7,43.3,45.7,31.7z"/>
</symbol>
<symbol  id="Símbolo_2" viewBox="-31.1 -34.1 62.3 68.2">
	<path class="st1" d="M23.4,31.6v-63.2 M-22.6,31.6v-63.2"/>
	<g>
		<g>
			<path class="st2" d="M25,30.5L-8,6.7h-14.6l-3.2,0.2l33,23.8L25,30.5z M31.1,21.9v-9.2c0-4-2.8-6-8.5-6H10.1L31.1,21.9z
				 M-31.1,16.2v8.5c0,4,2.8,6,8.5,6h11.4L-31.1,16.2z"/>
			<path class="st3" d="M-11.1,30.7H7.2l-33-23.8c-3.6,0.7-5.4,2.6-5.4,5.8v3.5L-11.1,30.7z M10.1,6.7H-8l33,23.9
				c4.1-0.5,6.1-2.5,6.1-5.9v-2.8L10.1,6.7z"/>
		</g>
	</g>
</symbol>
<symbol  id="Símbolo_21" viewBox="-29.1 -9 58.1 18">
	<g>
		<path class="st4" d="M28,3.9l-0.5,0.2c-1.4,0.6-3.7,0.9-6.9,1C14.9,5.3,8.1,4.5,0,2.8C-8,1.1-14.8-1-20.5-3.5
			c-3.1-1.4-5.4-2.7-6.8-3.9l-0.5-0.4c-0.8,0.4-1.2,1-1.2,1.7c0,1.8,2.8,4,8.5,6.5S-7.9,5,0.1,6.7c8,1.6,14.8,2.4,20.5,2.3
			s8.5-1.1,8.5-2.9C29.1,5.5,28.7,4.7,28,3.9z"/>
		<path class="st2" d="M-27.8-7.8l0.5,0.4c1.4,1.2,3.7,2.5,6.8,3.9C-14.8-1-7.9,1.1,0.1,2.8S15,5.2,20.6,5.1c3.2-0.1,5.5-0.4,6.9-1
			L28,3.9l-0.5-0.5c-1.4-1.1-3.7-2.4-6.9-3.8C14.9-2.9,8.1-5,0-6.6C-8-8.3-14.8-9.1-20.5-9c-3.1,0.1-5.4,0.4-6.8,0.9L-27.8-7.8z"/>
	</g>
</symbol>
<symbol  id="Símbolo_39" viewBox="-7.1 -7.1 14.2 14.2">
	<path class="st2" d="M-5.1-5c-1.4,1.4-2,3-2,5s0.7,3.7,2,5.1c1.4,1.4,3.1,2,5.1,2s3.6-0.7,5-2C6.4,3.7,7.1,2,7.1,0S6.4-3.6,5-5
		S2-7.1,0-7.1S-3.7-6.4-5.1-5z"/>
</symbol>
<symbol  id="Símbolo_4" viewBox="-34.5 -18.4 69 36.8">
	<polyline class="st5" points="-28.5,-9.4 8.9,-12.4 28.5,12.4 	"/>
</symbol>
<symbol  id="Símbolo_5" viewBox="-24.2 -25.3 48.4 50.6">
	<g>
		<g>
			<path class="st6" d="M4.3-15.3L-15.3,2.2L1.9,21.5c2.2,2.5,5,3.7,8.4,3.8c1.2,0,2.3-0.1,3.3-0.4c1.4-0.3,2.7-0.9,3.9-1.7l2-1.5
				l1-1.1c1-1,1.8-2.1,2.4-3.4c0.7-1.4,1.1-2.8,1.2-4.3v-0.2c0.3-3.3-0.6-6.2-2.8-8.6L4.3-15.3z M-18.5-1.5L1.1-18.9l-5.7-6.4
				L-24.2-7.8L-18.5-1.5z"/>
			
				<rect x="-9.5" y="-21.4" transform="matrix(0.6649 -0.7469 0.7469 0.6649 3.8722 -8.0626)" class="st7" width="4.9" height="26.2"/>
		</g>
	</g>
</symbol>
<symbol  id="Símbolo_60" viewBox="-15.5 -8 31 15.9">
	<g>
		<path class="st8" d="M15.1-4.4h-30.5c0.1,1.7,0.3,3.2,0.6,4.6c0.8,3,2.3,4.6,4.5,4.7H4.1c3.2,0,5.9-1.2,8.1-3.7
			C13.6-0.4,14.6-2.3,15.1-4.4z"/>
		<path class="st9" d="M15.1-4.4c0.3-1.1,0.4-2.2,0.4-3.4V-8h-31v0.2v3.4H15.1z"/>
	</g>
	<g>
		<path class="st10" d="M4.4,6.7l-3-5.1 M8.6,6.7L5.7,1.6"/>
	</g>
</symbol>
<symbol  id="Símbolo_63" viewBox="-5.8 -12.8 11.6 25.5">
	<path class="st0" d="M5.8,12.6V-7c0-1.6-0.6-3-1.7-4.2S1.6-12.8,0-12.8s-3,0.6-4.1,1.7c-1.2,1.2-1.7,2.6-1.7,4.2v19.6
		C-5.8,12.6,5.8,12.6,5.8,12.6z"/>
</symbol>
<symbol  id="Símbolo_65" viewBox="-1.7 -0.7 3.4 1.4">
	<path class="st11" d="M-1.2-0.2C-0.9,0.1-0.5,0.2,0,0.2c0.4,0,0.8-0.2,1.2-0.4"/>
</symbol>
<symbol  id="Símbolo_66" viewBox="-50.5 -111.2 101 222.4">
	<path class="st0" d="M-3.7,111.2h7.4c12.9,0,23.9-4.6,33-13.7c9.2-9.2,13.8-20.3,13.8-33.2V-64.3c0-12.9-4.6-23.9-13.8-33
		c-9.1-9.3-20.1-13.9-33-13.9h-7.4c-12.9,0-24,4.6-33.2,13.9c-9.1,9.1-13.6,20.1-13.6,33V64.3c0,12.9,4.5,24,13.7,33.2
		C-27.7,106.6-16.6,111.2-3.7,111.2z"/>
</symbol>
<symbol  id="Símbolo_67" viewBox="-31.1 -34.1 62.3 68.2">
	<path class="st12" d="M23.4,31.6v-63.2 M-22.6,31.6v-63.2"/>
	<g>
		<g>
			<path class="st2" d="M25,30.5L-8,6.7h-14.6l-3.2,0.2l33,23.8L25,30.5z M31.1,21.9v-9.2c0-4-2.8-6-8.5-6H10.1L31.1,21.9z
				 M-31.1,16.2v8.5c0,4,2.8,6,8.5,6h11.4L-31.1,16.2z"/>
			<path class="st3" d="M-11.1,30.7H7.2l-33-23.8c-3.6,0.7-5.4,2.6-5.4,5.8v3.5L-11.1,30.7z M10.1,6.7H-8l33,23.9
				c4.1-0.5,6.1-2.5,6.1-5.9v-2.8L10.1,6.7z"/>
		</g>
	</g>
</symbol>
<symbol  id="Símbolo_7" viewBox="-12.4 -31 24.8 62">
	<path class="st13" d="M-5.9,24.8L-6.4,25 M6.4-25v23.5c0,4.6-0.9,8.9-2.6,12.9"/>
</symbol>
<symbol  id="Símbolo_8" viewBox="-50.6 -74 101.2 148">
	<path class="st0" d="M3.7-74h-7.4c-12.9,0-24,4.6-33.2,13.9C-46-51-50.6-40-50.6-27.1v22.4H50.6v-22.4c0-12.9-4.6-23.9-13.8-33
		C27.6-69.4,16.6-74,3.7-74z"/>
	<g>
		<path class="st0" d="M38.1,61.7c8.3-8.3,12.5-18.3,12.5-30V-14c0-11.7-4.2-21.6-12.5-29.8c-8.2-8.4-18.2-12.5-29.8-12.5H1.6
			c-11.6,0-21.6,4.2-30,12.5c-8.2,8.2-12.4,18.1-12.4,29.8v45.7c0,11.6,4.1,21.6,12.4,30C-20,69.9-10,74,1.6,74h6.7
			C19.9,74,29.9,69.9,38.1,61.7z"/>
	</g>
</symbol>
<symbol  id="Símbolo_9" viewBox="-4.4 -3.7 8.7 7.4">
	<path class="st4" d="M-1,3.1C0,3.2,0.9,3,1.8,2.5l0.1-0.1c0.9-0.5,1.5-1.2,1.9-2L4-0.2c0.4-1.1,0.3-2.1-0.2-3.1L3.6-3.7l-8,4.6
		l0.2,0.4C-3.6,2.2-2.7,2.8-1.6,3L-1,3.1z"/>
	<g>
		<path class="st14" d="M-0.8,3.4l-2.3-4 M-0.7-1.9l2.8,4.8 M1.7-3.3l2.3,4"/>
	</g>
</symbol>
<g>
	<g>
		<defs>
			<polygon id="SVGID_1_" points="340.5,186.3 393.8,197.5 393.8,139.1 340.5,127.9 			"/>
		</defs>
		<clipPath id="SVGID_2_">
			<use xlink:href="#SVGID_1_"  style="overflow:visible;"/>
		</clipPath>
		<g class="st15">
			<g>
				<defs>
					<polygon id="SVGID_3_" points="340.5,186.3 393.8,197.5 393.8,139.1 340.5,127.8 					"/>
				</defs>
				<clipPath id="SVGID_4_">
					<use xlink:href="#SVGID_3_"  style="overflow:visible;"/>
				</clipPath>
				<g style="clip-path:url(#SVGID_4_);">
					
						<use xlink:href="#Símbolo_2"  width="62.3" height="68.2" x="-31.1" y="-34.1" transform="matrix(0.8572 0.1811 0 -0.8572 367.1097 162.6745)" style="overflow:visible;"/>
				</g>
			</g>
		</g>
	</g>
</g>
<g>
	<g>
		<defs>
			<polygon id="SVGID_5_" points="231.3,186.3 284.7,197.5 284.7,139.1 231.3,127.9 			"/>
		</defs>
		<clipPath id="SVGID_6_">
			<use xlink:href="#SVGID_5_"  style="overflow:visible;"/>
		</clipPath>
		<g class="st16">
			<g>
				<defs>
					<polygon id="SVGID_7_" points="231.3,186.3 284.7,197.5 284.7,139.1 231.3,127.8 					"/>
				</defs>
				<clipPath id="SVGID_8_">
					<use xlink:href="#SVGID_7_"  style="overflow:visible;"/>
				</clipPath>
				<g style="clip-path:url(#SVGID_8_);">
					
						<use xlink:href="#Símbolo_2"  width="62.3" height="68.2" x="-31.1" y="-34.1" transform="matrix(0.8572 0.1811 0 -0.8572 257.9598 162.6745)" style="overflow:visible;"/>
				</g>
			</g>
		</g>
	</g>
</g>
</svg>
