<?xml version="1.0" encoding="utf-8"?>
<!-- Generator: Adobe Illustrator 24.2.3, SVG Export Plug-In . SVG Version: 6.00 Build 0)  -->
<svg version="1.1" id="Capa_1" xmlns="http://www.w3.org/2000/svg" xmlns:xlink="http://www.w3.org/1999/xlink" x="0px" y="0px"
	 viewBox="0 0 532.7 274.2" style="enable-background:new 0 0 532.7 274.2;" xml:space="preserve">
<style type="text/css">
	.st0{fill:#FFFFFF;}
</style>
<path class="st0" d="M257.6,84.3v-17c0-0.4,0.3-0.7,0.7-0.7s0.7,0.3,0.7,0.7v17l5.2-5.2c0.3-0.3,0.7-0.3,1,0s0.3,0.7,0,1l-6.4,6.3
	c-0.3,0.3-0.7,0.3-1,0l-6.3-6.3c-0.3-0.3-0.3-0.7,0-1s0.7-0.3,1,0L257.6,84.3L257.6,84.3z"/>
<g>
	<path class="st0" d="M160.8,32.2v8.6H160l-4.5-6.7l-0.7-1.1l0,0v1v6.8h-0.6v-8.6h0.8l4.5,6.7l0.7,1.1v-1v-6.8H160.8z"/>
	<path class="st0" d="M165.9,34.2c0.6,0,1.1,0.1,1.6,0.4c0.5,0.3,0.8,0.7,1.1,1.2s0.4,1.1,0.4,1.8c0,0.7-0.1,1.3-0.4,1.8
		c-0.3,0.5-0.6,0.9-1.1,1.2c-0.5,0.3-1,0.4-1.6,0.4s-1.1-0.1-1.6-0.4c-0.5-0.3-0.8-0.7-1.1-1.2s-0.4-1.1-0.4-1.8
		c0-0.7,0.1-1.3,0.4-1.8s0.6-0.9,1.1-1.2C164.7,34.3,165.2,34.2,165.9,34.2z M165.9,34.7c-0.5,0-0.9,0.1-1.3,0.3
		c-0.4,0.2-0.6,0.5-0.9,1c-0.2,0.4-0.3,0.9-0.3,1.5s0.1,1.1,0.3,1.5s0.5,0.8,0.9,1s0.8,0.3,1.3,0.3s0.9-0.1,1.3-0.3
		c0.4-0.2,0.6-0.6,0.9-1c0.2-0.4,0.3-0.9,0.3-1.5s-0.1-1.1-0.3-1.5s-0.5-0.7-0.9-1C166.8,34.8,166.3,34.7,165.9,34.7z"/>
	<path class="st0" d="M178.1,34.3v0.6h-4.4v-0.6H178.1z M175.7,32.5v6.6c0,0.4,0.1,0.7,0.3,0.9s0.5,0.3,0.9,0.3c0.2,0,0.5,0,0.6-0.1
		c0.2-0.1,0.4-0.2,0.5-0.4l0.2,0.5c-0.2,0.2-0.4,0.3-0.6,0.4c-0.3,0.1-0.5,0.1-0.8,0.1s-0.6-0.1-0.9-0.2c-0.3-0.1-0.5-0.3-0.6-0.6
		s-0.2-0.6-0.2-1v-6.3L175.7,32.5z"/>
	<path class="st0" d="M179.8,33c-0.2,0-0.3,0-0.4-0.1c-0.1-0.1-0.2-0.2-0.2-0.4s0-0.3,0.2-0.4c0.1-0.1,0.2-0.1,0.4-0.1
		s0.3,0,0.4,0.1c0.1,0.1,0.1,0.2,0.1,0.4s0,0.3-0.1,0.4C180.1,33,180,33,179.8,33z M180.2,34.3v6.5h-0.6v-6.5H180.2z"/>
	<path class="st0" d="M185.1,40.9c-0.6,0-1.1-0.1-1.6-0.4s-0.8-0.7-1.1-1.2s-0.4-1.1-0.4-1.8s0.1-1.3,0.4-1.8s0.6-0.9,1.1-1.2
		s1-0.4,1.5-0.4c0.6,0,1.1,0.1,1.5,0.4s0.7,0.6,1,1.1c0.2,0.5,0.3,1,0.3,1.6c0,0.1,0,0.2,0,0.2c0,0.1,0,0.1,0,0.2h-5.4v-0.5h5.1
		l-0.3,0.1c0-0.7-0.2-1.3-0.6-1.8c-0.4-0.4-0.9-0.7-1.6-0.7c-0.5,0-0.9,0.1-1.2,0.3c-0.4,0.2-0.6,0.5-0.8,1
		c-0.2,0.4-0.3,0.9-0.3,1.5s0.1,1.1,0.3,1.5s0.5,0.7,0.9,1s0.8,0.3,1.3,0.3s0.9-0.1,1.3-0.3c0.4-0.2,0.6-0.5,0.8-0.9l0.5,0.3
		c-0.2,0.3-0.4,0.6-0.6,0.8s-0.6,0.4-0.9,0.5S185.6,40.9,185.1,40.9z"/>
	<path class="st0" d="M189.7,40.8v-6.5h0.6l0.1,1.6l-0.1-0.1c0.1-0.4,0.3-0.7,0.5-0.9c0.2-0.3,0.5-0.4,0.9-0.6
		c0.3-0.1,0.7-0.2,1.1-0.2c0.5,0,0.9,0.1,1.3,0.3c0.4,0.2,0.7,0.5,0.9,0.8c0.2,0.4,0.3,0.8,0.3,1.3v4.2h-0.6v-4
		c0-0.7-0.2-1.2-0.5-1.6c-0.4-0.3-0.8-0.5-1.4-0.5c-0.4,0-0.8,0.1-1.1,0.3c-0.4,0.2-0.6,0.5-0.9,0.8s-0.3,0.8-0.3,1.3v3.7
		L189.7,40.8L189.7,40.8z"/>
	<path class="st0" d="M200.2,40.9c-0.6,0-1.1-0.1-1.6-0.4s-0.8-0.7-1.1-1.2s-0.4-1.1-0.4-1.8s0.1-1.3,0.4-1.8s0.6-0.9,1.1-1.2
		s1-0.4,1.5-0.4c0.6,0,1.1,0.1,1.5,0.4s0.7,0.6,1,1.1c0.2,0.5,0.3,1,0.3,1.6c0,0.1,0,0.2,0,0.2c0,0.1,0,0.1,0,0.2h-5.4v-0.5h5.1
		l-0.3,0.1c0-0.7-0.2-1.3-0.6-1.8c-0.4-0.4-0.9-0.7-1.6-0.7c-0.5,0-0.9,0.1-1.2,0.3c-0.4,0.2-0.6,0.5-0.8,1
		c-0.2,0.4-0.3,0.9-0.3,1.5s0.1,1.1,0.3,1.5s0.5,0.7,0.9,1s0.8,0.3,1.3,0.3s0.9-0.1,1.3-0.3c0.4-0.2,0.6-0.5,0.8-0.9l0.5,0.3
		c-0.2,0.3-0.4,0.6-0.6,0.8s-0.6,0.4-0.9,0.5S200.6,40.9,200.2,40.9z"/>
	<path class="st0" d="M204.7,40.8v-6.5h0.6l0.1,1.6l-0.1-0.1c0.1-0.4,0.3-0.7,0.5-0.9c0.2-0.3,0.5-0.4,0.9-0.6
		c0.3-0.1,0.7-0.2,1.1-0.2c0.5,0,0.9,0.1,1.3,0.3c0.4,0.2,0.7,0.5,0.9,0.8c0.2,0.4,0.3,0.8,0.3,1.3v4.2h-0.6v-4
		c0-0.7-0.2-1.2-0.5-1.6c-0.4-0.3-0.8-0.5-1.4-0.5c-0.4,0-0.8,0.1-1.1,0.3c-0.4,0.2-0.6,0.5-0.9,0.8s-0.3,0.8-0.3,1.3v3.7
		L204.7,40.8L204.7,40.8z"/>
	<path class="st0" d="M220.6,36.5c0-0.6-0.2-1-0.5-1.3s-0.7-0.5-1.3-0.5c-0.5,0-0.9,0.1-1.3,0.3c-0.4,0.2-0.6,0.6-0.8,1.1l-0.5-0.3
		c0.2-0.5,0.5-0.9,1-1.2c0.4-0.3,1-0.4,1.7-0.4c0.5,0,0.9,0.1,1.3,0.3c0.4,0.2,0.6,0.4,0.8,0.7s0.3,0.7,0.3,1.2v3.2
		c0,0.5,0.2,0.7,0.6,0.7c0.2,0,0.3,0,0.5-0.1v0.5c-0.1,0.1-0.3,0.1-0.6,0.1c-0.2,0-0.4,0-0.6-0.1c-0.2-0.1-0.3-0.2-0.4-0.4
		s-0.2-0.4-0.2-0.7v-0.3h0.2c-0.1,0.4-0.2,0.7-0.5,0.9s-0.6,0.4-0.9,0.5c-0.3,0.1-0.7,0.2-1,0.2c-0.4,0-0.8-0.1-1.1-0.2
		c-0.3-0.1-0.6-0.3-0.8-0.6c-0.2-0.2-0.3-0.6-0.3-0.9c0-0.5,0.2-0.9,0.5-1.2s0.8-0.5,1.4-0.6l2.7-0.5v0.5l-2.4,0.5
		c-0.5,0.1-0.9,0.3-1.1,0.5c-0.3,0.2-0.4,0.5-0.4,0.8c0,0.4,0.1,0.6,0.4,0.9c0.3,0.2,0.6,0.3,1.1,0.3c0.3,0,0.5,0,0.8-0.1
		s0.5-0.2,0.7-0.3c0.2-0.2,0.4-0.3,0.5-0.6c0.1-0.2,0.2-0.5,0.2-0.8L220.6,36.5L220.6,36.5z"/>
	<path class="st0" d="M226.3,34.2c0.4,0,0.8,0.1,1.2,0.2c0.4,0.1,0.6,0.3,0.9,0.6c0.2,0.3,0.4,0.6,0.6,0.9l-0.6,0.3
		c-0.1-0.5-0.4-0.8-0.7-1.1c-0.3-0.3-0.8-0.4-1.3-0.4s-0.9,0.1-1.3,0.3s-0.6,0.5-0.8,1c-0.2,0.4-0.3,0.9-0.3,1.5s0.1,1.1,0.3,1.5
		s0.5,0.7,0.8,1s0.8,0.3,1.3,0.3c0.4,0,0.7-0.1,1-0.2c0.3-0.1,0.5-0.3,0.7-0.5c0.2-0.2,0.3-0.5,0.4-0.8L229,39
		c-0.1,0.4-0.3,0.7-0.6,1s-0.6,0.5-0.9,0.7s-0.8,0.2-1.2,0.2c-0.6,0-1.1-0.1-1.6-0.4s-0.8-0.7-1.1-1.2s-0.4-1.1-0.4-1.8
		s0.1-1.3,0.4-1.8s0.6-0.9,1.1-1.2C225.2,34.3,225.7,34.2,226.3,34.2z"/>
	<path class="st0" d="M233.3,34.2c0.4,0,0.8,0.1,1.2,0.2c0.4,0.1,0.6,0.3,0.9,0.6c0.2,0.3,0.4,0.6,0.6,0.9l-0.6,0.3
		c-0.1-0.5-0.4-0.8-0.7-1.1c-0.3-0.3-0.8-0.4-1.3-0.4s-0.9,0.1-1.3,0.3s-0.6,0.5-0.8,1c-0.2,0.4-0.3,0.9-0.3,1.5s0.1,1.1,0.3,1.5
		s0.5,0.7,0.8,1s0.8,0.3,1.3,0.3c0.4,0,0.7-0.1,1-0.2c0.3-0.1,0.5-0.3,0.7-0.5c0.2-0.2,0.3-0.5,0.4-0.8L236,39
		c-0.1,0.4-0.3,0.7-0.6,1s-0.6,0.5-0.9,0.7s-0.8,0.2-1.2,0.2c-0.6,0-1.1-0.1-1.6-0.4s-0.8-0.7-1.1-1.2s-0.4-1.1-0.4-1.8
		s0.1-1.3,0.4-1.8s0.6-0.9,1.1-1.2C232.2,34.3,232.7,34.2,233.3,34.2z"/>
	<path class="st0" d="M240.4,40.9c-0.6,0-1.1-0.1-1.6-0.4s-0.8-0.7-1.1-1.2s-0.4-1.1-0.4-1.8s0.1-1.3,0.4-1.8s0.6-0.9,1.1-1.2
		s1-0.4,1.5-0.4c0.6,0,1.1,0.1,1.5,0.4s0.7,0.6,1,1.1c0.2,0.5,0.3,1,0.3,1.6c0,0.1,0,0.2,0,0.2c0,0.1,0,0.1,0,0.2h-5.4v-0.5h5.1
		l-0.3,0.1c0-0.7-0.2-1.3-0.6-1.8c-0.4-0.4-0.9-0.7-1.6-0.7c-0.5,0-0.9,0.1-1.2,0.3c-0.4,0.2-0.6,0.5-0.8,1c-0.2,0.4-0.3,1-0.3,1.5
		c0,0.6,0.1,1.1,0.3,1.5s0.5,0.7,0.9,1s0.8,0.3,1.3,0.3s0.9-0.1,1.3-0.3c0.4-0.2,0.6-0.5,0.8-0.9l0.5,0.3c-0.2,0.3-0.4,0.6-0.6,0.8
		s-0.6,0.4-0.9,0.5S240.8,40.9,240.4,40.9z"/>
	<path class="st0" d="M247.2,40.9c-0.7,0-1.2-0.1-1.7-0.4s-0.9-0.7-1.1-1.2l0.6-0.4c0.2,0.4,0.4,0.8,0.8,1c0.4,0.2,0.9,0.4,1.5,0.4
		s1-0.1,1.3-0.3s0.5-0.5,0.5-0.9c0-0.3-0.1-0.5-0.2-0.7c-0.2-0.2-0.5-0.3-0.9-0.4l-1.5-0.3c-0.6-0.1-1.1-0.3-1.3-0.6
		c-0.3-0.3-0.4-0.6-0.4-1.1c0-0.3,0.1-0.7,0.3-0.9s0.5-0.5,0.9-0.7s0.8-0.3,1.3-0.3c0.6,0,1.2,0.1,1.6,0.4c0.4,0.3,0.7,0.6,0.9,1.2
		l-0.7,0.3c-0.1-0.5-0.4-0.8-0.7-1c-0.4-0.2-0.8-0.3-1.2-0.3s-0.7,0.1-1,0.2c-0.3,0.1-0.5,0.3-0.6,0.4c-0.2,0.2-0.2,0.4-0.2,0.6
		c0,0.3,0.1,0.5,0.3,0.7c0.2,0.2,0.5,0.4,0.9,0.4l1.6,0.3c0.6,0.1,1,0.3,1.3,0.6c0.2,0.3,0.4,0.6,0.4,1c0,0.4-0.1,0.7-0.3,1
		c-0.2,0.3-0.5,0.5-0.9,0.7C248.2,40.8,247.7,40.9,247.2,40.9z"/>
	<path class="st0" d="M254.2,34.2c0.6,0,1.1,0.1,1.6,0.4c0.5,0.3,0.8,0.7,1.1,1.2s0.4,1.1,0.4,1.8c0,0.7-0.1,1.3-0.4,1.8
		s-0.6,0.9-1.1,1.2c-0.5,0.3-1,0.4-1.6,0.4s-1.1-0.1-1.6-0.4c-0.5-0.3-0.8-0.7-1.1-1.2s-0.4-1.1-0.4-1.8c0-0.7,0.1-1.3,0.4-1.8
		s0.6-0.9,1.1-1.2C253.1,34.3,253.6,34.2,254.2,34.2z M254.2,34.7c-0.5,0-0.9,0.1-1.3,0.3c-0.4,0.2-0.6,0.5-0.9,1
		c-0.2,0.4-0.3,0.9-0.3,1.5s0.1,1.1,0.3,1.5s0.5,0.8,0.9,1s0.8,0.3,1.3,0.3s0.9-0.1,1.3-0.3c0.4-0.2,0.6-0.6,0.9-1
		c0.2-0.4,0.3-0.9,0.3-1.5s-0.1-1.1-0.3-1.5c-0.2-0.4-0.5-0.7-0.9-1C255.1,34.8,254.7,34.7,254.2,34.7z"/>
	<path class="st0" d="M267.2,36.5c0-0.6-0.2-1-0.5-1.3s-0.7-0.5-1.3-0.5c-0.5,0-0.9,0.1-1.3,0.3s-0.6,0.6-0.8,1.1l-0.5-0.3
		c0.2-0.5,0.5-0.9,1-1.2c0.4-0.3,1-0.4,1.7-0.4c0.5,0,0.9,0.1,1.3,0.3s0.6,0.4,0.8,0.7c0.2,0.3,0.3,0.7,0.3,1.2v3.2
		c0,0.5,0.2,0.7,0.6,0.7c0.2,0,0.3,0,0.5-0.1v0.5c-0.1,0.1-0.3,0.1-0.6,0.1c-0.2,0-0.4,0-0.6-0.1c-0.2-0.1-0.3-0.2-0.4-0.4
		s-0.2-0.4-0.2-0.7v-0.3h0.2c-0.1,0.4-0.2,0.7-0.5,0.9s-0.6,0.4-0.9,0.5c-0.3,0.1-0.7,0.2-1,0.2c-0.4,0-0.8-0.1-1.1-0.2
		c-0.3-0.1-0.6-0.3-0.8-0.6c-0.2-0.2-0.3-0.6-0.3-0.9c0-0.5,0.2-0.9,0.5-1.2s0.8-0.5,1.4-0.6l2.7-0.5v0.5l-2.4,0.5
		c-0.5,0.1-0.9,0.3-1.1,0.5c-0.3,0.2-0.4,0.5-0.4,0.8c0,0.4,0.1,0.6,0.4,0.9c0.3,0.2,0.6,0.3,1.1,0.3c0.3,0,0.5,0,0.8-0.1
		s0.5-0.2,0.7-0.3c0.2-0.2,0.4-0.3,0.5-0.6c0.1-0.2,0.2-0.5,0.2-0.8V36.5z"/>
	<path class="st0" d="M274.6,31.3v8c0,0.4,0.1,0.7,0.2,0.8c0.1,0.2,0.4,0.2,0.7,0.2c0.2,0,0.3,0,0.4,0s0.2-0.1,0.4-0.1l-0.1,0.6
		c-0.1,0.1-0.2,0.1-0.4,0.1c-0.1,0-0.3,0-0.5,0c-0.5,0-0.8-0.1-1-0.4s-0.3-0.7-0.3-1.2v-8C274,31.3,274.6,31.3,274.6,31.3z"/>
	<path class="st0" d="M281.6,36.5c0-0.6-0.2-1-0.5-1.3s-0.7-0.5-1.3-0.5c-0.5,0-0.9,0.1-1.3,0.3s-0.6,0.6-0.8,1.1l-0.5-0.3
		c0.2-0.5,0.5-0.9,1-1.2c0.4-0.3,1-0.4,1.7-0.4c0.5,0,0.9,0.1,1.3,0.3s0.6,0.4,0.8,0.7c0.2,0.3,0.3,0.7,0.3,1.2v3.2
		c0,0.5,0.2,0.7,0.6,0.7c0.2,0,0.3,0,0.5-0.1v0.5c-0.1,0.1-0.3,0.1-0.6,0.1c-0.2,0-0.4,0-0.6-0.1c-0.2-0.1-0.3-0.2-0.4-0.4
		s-0.2-0.4-0.2-0.7v-0.3h0.2c-0.1,0.4-0.2,0.7-0.5,0.9s-0.6,0.4-0.9,0.5c-0.3,0.1-0.7,0.2-1,0.2c-0.4,0-0.8-0.1-1.1-0.2
		c-0.3-0.1-0.6-0.3-0.8-0.6c-0.2-0.2-0.3-0.6-0.3-0.9c0-0.5,0.2-0.9,0.5-1.2s0.8-0.5,1.4-0.6l2.7-0.5v0.5l-2.4,0.5
		c-0.5,0.1-0.9,0.3-1.1,0.5c-0.3,0.2-0.4,0.5-0.4,0.8c0,0.4,0.1,0.6,0.4,0.9c0.3,0.2,0.6,0.3,1.1,0.3c0.3,0,0.5,0,0.8-0.1
		s0.5-0.2,0.7-0.3c0.2-0.2,0.4-0.3,0.5-0.6c0.1-0.2,0.2-0.5,0.2-0.8L281.6,36.5L281.6,36.5z"/>
	<path class="st0" d="M288.7,33c-0.2,0-0.3,0-0.4-0.1c-0.1-0.1-0.2-0.2-0.2-0.4s0-0.3,0.2-0.4c0.1-0.1,0.2-0.1,0.4-0.1
		c0.2,0,0.3,0,0.4,0.1c0.1,0.1,0.1,0.2,0.1,0.4s0,0.3-0.1,0.4C289,33,288.9,33,288.7,33z M289.1,34.3v6.5h-0.6v-6.5H289.1z"/>
	<path class="st0" d="M291.4,40.8v-6.5h0.6l0.1,1.6l-0.1-0.1c0.1-0.4,0.3-0.7,0.5-0.9c0.2-0.3,0.5-0.4,0.9-0.6
		c0.3-0.1,0.7-0.2,1.1-0.2c0.5,0,0.9,0.1,1.3,0.3c0.4,0.2,0.7,0.5,0.9,0.8c0.2,0.4,0.3,0.8,0.3,1.3v4.2h-0.6v-4
		c0-0.7-0.2-1.2-0.5-1.6c-0.4-0.3-0.8-0.5-1.4-0.5c-0.4,0-0.8,0.1-1.1,0.3c-0.4,0.2-0.6,0.5-0.9,0.8s-0.5,0.9-0.5,1.4v3.7H291.4z"/>
	<path class="st0" d="M302.4,34.3v0.6h-4.2v-0.6H302.4z M301.4,31.2c0.2,0,0.5,0,0.6,0.1c0.1,0.1,0.3,0.1,0.4,0.3l-0.2,0.5
		c-0.1-0.1-0.2-0.2-0.4-0.2c-0.1,0-0.3-0.1-0.5-0.1c-0.4,0-0.8,0.1-1,0.4c-0.2,0.2-0.4,0.6-0.4,1.1v1v0.2v6.3h-0.7v-7.6
		c0-0.3,0-0.6,0.1-0.8c0.1-0.2,0.2-0.4,0.4-0.6c0.2-0.2,0.4-0.3,0.6-0.4C300.9,31.3,301.1,31.2,301.4,31.2z"/>
	<path class="st0" d="M306.1,34.2c0.6,0,1.1,0.1,1.6,0.4c0.5,0.3,0.8,0.7,1.1,1.2c0.3,0.5,0.4,1.1,0.4,1.8c0,0.7-0.1,1.3-0.4,1.8
		s-0.6,0.9-1.1,1.2c-0.5,0.3-1,0.4-1.6,0.4s-1.1-0.1-1.6-0.4c-0.5-0.3-0.8-0.7-1.1-1.2s-0.4-1.2-0.4-1.9s0.1-1.3,0.4-1.8
		s0.6-0.9,1.1-1.2C305,34.3,305.5,34.2,306.1,34.2z M306.1,34.7c-0.5,0-0.9,0.1-1.3,0.3s-0.6,0.5-0.9,1c-0.2,0.4-0.3,0.9-0.3,1.5
		s0.1,1.1,0.3,1.5c0.2,0.4,0.5,0.8,0.9,1s0.8,0.3,1.3,0.3s0.9-0.1,1.3-0.3s0.6-0.6,0.9-1c0.2-0.4,0.3-0.9,0.3-1.5s-0.1-1.1-0.3-1.5
		c-0.2-0.4-0.5-0.7-0.9-1C307,34.8,306.6,34.7,306.1,34.7z"/>
	<path class="st0" d="M311.1,40.8v-6.5h0.5l0.1,1.4c0.2-0.5,0.4-0.8,0.8-1.1c0.4-0.3,0.8-0.4,1.3-0.4c0.2,0,0.3,0,0.5,0.1
		c0.1,0,0.3,0.1,0.4,0.2l-0.2,0.5c-0.1-0.1-0.2-0.1-0.3-0.1c-0.1,0-0.3-0.1-0.5-0.1c-0.3,0-0.6,0.1-0.9,0.3
		c-0.3,0.2-0.5,0.5-0.7,0.8c-0.2,0.4-0.3,0.8-0.3,1.2v3.6L311.1,40.8L311.1,40.8z"/>
	<path class="st0" d="M316,40.8v-6.5h0.6v1.4c0.2-0.5,0.5-0.8,0.9-1.1c0.4-0.3,0.9-0.4,1.4-0.4c0.6,0,1.1,0.1,1.5,0.4
		c0.4,0.3,0.7,0.7,0.9,1.2c0.1-0.3,0.3-0.6,0.5-0.9c0.2-0.3,0.5-0.4,0.9-0.6s0.7-0.2,1.1-0.2c0.5,0,0.9,0.1,1.2,0.3
		c0.4,0.2,0.7,0.4,0.9,0.8s0.3,0.8,0.3,1.3v4.2h-0.6v-4.1c0-0.6-0.2-1.1-0.5-1.4s-0.8-0.5-1.4-0.5c-0.4,0-0.8,0.1-1.1,0.3
		c-0.3,0.2-0.6,0.5-0.8,0.8c-0.2,0.4-0.3,0.8-0.3,1.2v3.7h-0.6v-4.1c0-0.6-0.2-1.1-0.5-1.4s-0.8-0.5-1.4-0.5c-0.4,0-0.8,0.1-1.1,0.3
		c-0.3,0.2-0.6,0.5-0.8,0.8s-0.3,0.8-0.3,1.3v3.7H316z"/>
	<path class="st0" d="M332.4,36.5c0-0.6-0.2-1-0.5-1.3s-0.7-0.5-1.3-0.5c-0.5,0-0.9,0.1-1.3,0.3s-0.6,0.6-0.8,1.1l-0.5-0.3
		c0.2-0.5,0.5-0.9,1-1.2c0.4-0.3,1-0.4,1.7-0.4c0.5,0,0.9,0.1,1.3,0.3s0.6,0.4,0.8,0.7c0.2,0.3,0.3,0.7,0.3,1.2v3.2
		c0,0.5,0.2,0.7,0.6,0.7c0.2,0,0.3,0,0.5-0.1v0.5c-0.1,0.1-0.3,0.1-0.6,0.1c-0.2,0-0.4,0-0.6-0.1c-0.2-0.1-0.3-0.2-0.4-0.4
		s-0.2-0.4-0.2-0.7v-0.3h0.2c-0.1,0.4-0.2,0.7-0.5,0.9s-0.6,0.4-0.9,0.5c-0.3,0.1-0.7,0.2-1,0.2c-0.4,0-0.8-0.1-1.1-0.2
		c-0.3-0.1-0.6-0.3-0.8-0.6c-0.2-0.2-0.3-0.6-0.3-0.9c0-0.5,0.2-0.9,0.5-1.2s0.8-0.5,1.4-0.6l2.7-0.5v0.5l-2.4,0.5
		c-0.5,0.1-0.9,0.3-1.1,0.5c-0.3,0.2-0.4,0.5-0.4,0.8c0,0.4,0.1,0.6,0.4,0.9c0.3,0.2,0.6,0.3,1.1,0.3c0.3,0,0.5,0,0.8-0.1
		s0.5-0.2,0.7-0.3c0.2-0.2,0.4-0.3,0.5-0.6c0.1-0.2,0.2-0.5,0.2-0.8L332.4,36.5L332.4,36.5z"/>
	<path class="st0" d="M338.1,34.2c0.4,0,0.8,0.1,1.2,0.2c0.4,0.1,0.6,0.3,0.9,0.6c0.2,0.3,0.4,0.6,0.6,0.9l-0.6,0.3
		c-0.1-0.5-0.4-0.8-0.7-1.1c-0.3-0.3-0.8-0.4-1.3-0.4s-0.9,0.1-1.3,0.3s-0.6,0.5-0.8,1c-0.2,0.4-0.3,0.9-0.3,1.5s0.1,1.1,0.3,1.5
		s0.5,0.7,0.8,1s0.8,0.3,1.3,0.3c0.4,0,0.7-0.1,1-0.2c0.3-0.1,0.5-0.3,0.7-0.5c0.2-0.2,0.3-0.5,0.4-0.8l0.6,0.2
		c-0.1,0.4-0.3,0.7-0.6,1c-0.3,0.3-0.6,0.5-0.9,0.7s-0.8,0.2-1.2,0.2c-0.6,0-1.1-0.1-1.6-0.4s-0.8-0.7-1.1-1.2
		c-0.3-0.5-0.4-1.1-0.4-1.8s0.1-1.3,0.4-1.8s0.6-0.9,1.1-1.2C337,34.3,337.5,34.2,338.1,34.2z"/>
	<path class="st0" d="M342.9,33c-0.2,0-0.3,0-0.4-0.1c-0.1-0.1-0.2-0.2-0.2-0.4s0-0.3,0.2-0.4c0.1-0.1,0.2-0.1,0.4-0.1
		c0.2,0,0.3,0,0.4,0.1c0.1,0.1,0.1,0.2,0.1,0.4s0,0.3-0.1,0.4C343.2,33,343.1,33,342.9,33z M343.2,34.3v6.5h-0.6v-6.5H343.2z"/>
	<path class="st0" d="M348.2,34.2c0.6,0,1.1,0.1,1.6,0.4c0.5,0.3,0.8,0.7,1.1,1.2c0.3,0.5,0.4,1.1,0.4,1.8c0,0.7-0.1,1.3-0.4,1.8
		s-0.6,0.9-1.1,1.2c-0.5,0.3-1,0.4-1.6,0.4s-1.1-0.1-1.6-0.4c-0.5-0.3-0.8-0.7-1.1-1.2s-0.4-1.1-0.4-1.8c0-0.7,0.1-1.3,0.4-1.8
		s0.6-0.9,1.1-1.2C347.1,34.3,347.6,34.2,348.2,34.2z M348.2,34.7c-0.5,0-0.9,0.1-1.3,0.3s-0.6,0.5-0.9,1c-0.2,0.4-0.3,0.9-0.3,1.5
		s0.1,1.1,0.3,1.5c0.2,0.4,0.5,0.8,0.9,1s0.8,0.3,1.3,0.3s0.9-0.1,1.3-0.3s0.6-0.6,0.9-1c0.2-0.4,0.3-0.9,0.3-1.5s-0.1-1.1-0.3-1.5
		c-0.2-0.4-0.5-0.7-0.9-1C349.1,34.8,348.7,34.7,348.2,34.7z M348.9,31.2h0.7l-1.2,2.1h-0.5L348.9,31.2z"/>
	<path class="st0" d="M353.2,40.8v-6.5h0.6l0.1,1.6l-0.1-0.1c0.1-0.4,0.3-0.7,0.5-0.9c0.2-0.3,0.5-0.4,0.9-0.6
		c0.3-0.1,0.7-0.2,1.1-0.2c0.5,0,0.9,0.1,1.3,0.3c0.4,0.2,0.7,0.5,0.9,0.8c0.2,0.4,0.3,0.8,0.3,1.3v4.2H358v-4
		c0-0.7-0.2-1.2-0.5-1.6c-0.4-0.3-0.8-0.5-1.4-0.5c-0.4,0-0.8,0.1-1.1,0.3c-0.4,0.2-0.6,0.5-0.9,0.8s-0.3,0.8-0.3,1.3v3.7
		L353.2,40.8L353.2,40.8z"/>
	<path class="st0" d="M161.2,49.9l-3.1,7.7c-0.2,0.4-0.3,0.7-0.5,0.9c-0.2,0.2-0.4,0.4-0.6,0.5c-0.2,0.1-0.5,0.1-0.8,0.1
		s-0.5,0-0.7-0.1c-0.2-0.1-0.4-0.2-0.5-0.3l0.2-0.6c0.1,0.2,0.3,0.3,0.5,0.3c0.2,0.1,0.4,0.1,0.6,0.1c0.3,0,0.5-0.1,0.7-0.2
		c0.2-0.1,0.4-0.5,0.6-0.9l0.4-1l-0.7-1.6l-2.1-4.9h0.7l2,4.9l0.3,0.9l0.4-0.9l1.9-4.9C160.5,49.9,161.2,49.9,161.2,49.9z"/>
	<path class="st0" d="M167,46.9v8c0,0.4,0.1,0.7,0.2,0.8c0.1,0.2,0.4,0.2,0.7,0.2c0.2,0,0.3,0,0.4,0c0.1,0,0.2-0.1,0.4-0.1l-0.1,0.6
		c-0.1,0.1-0.2,0.1-0.4,0.1c-0.1,0-0.3,0-0.5,0c-0.5,0-0.8-0.1-1-0.4c-0.2-0.3-0.3-0.7-0.3-1.2v-8H167z"/>
	<path class="st0" d="M170.5,46.9v8c0,0.4,0.1,0.7,0.2,0.8c0.1,0.2,0.4,0.2,0.7,0.2c0.2,0,0.3,0,0.4,0c0.1,0,0.2-0.1,0.4-0.1
		l-0.1,0.6c-0.1,0.1-0.2,0.1-0.4,0.1c-0.1,0-0.3,0-0.5,0c-0.5,0-0.8-0.1-1-0.4c-0.2-0.3-0.3-0.7-0.3-1.2v-8H170.5z"/>
	<path class="st0" d="M176.1,56.5c-0.6,0-1.1-0.1-1.6-0.4c-0.5-0.3-0.8-0.7-1.1-1.2s-0.4-1.1-0.4-1.8c0-0.7,0.1-1.3,0.4-1.8
		s0.6-0.9,1.1-1.2c0.5-0.3,1-0.4,1.5-0.4c0.6,0,1.1,0.1,1.5,0.4c0.4,0.3,0.7,0.6,1,1.1c0.2,0.5,0.3,1,0.3,1.6c0,0.1,0,0.2,0,0.2
		c0,0.1,0,0.1,0,0.2h-5.4v-0.6h5.1l-0.3,0.1c0-0.7-0.2-1.3-0.6-1.8c-0.4-0.4-0.9-0.7-1.6-0.7c-0.5,0-0.9,0.1-1.2,0.3
		c-0.4,0.2-0.6,0.5-0.8,1c-0.2,0.4-0.3,0.9-0.3,1.5c0,0.6,0.1,1.1,0.3,1.5c0.2,0.4,0.5,0.7,0.9,1c0.4,0.3,0.8,0.3,1.3,0.3
		s0.9-0.1,1.3-0.3c0.4-0.2,0.6-0.5,0.8-0.9l0.5,0.3c-0.2,0.3-0.4,0.6-0.6,0.8s-0.6,0.4-0.9,0.5S176.5,56.5,176.1,56.5z"/>
	<path class="st0" d="M185,49.9h0.7l-2.7,6.5h-0.6l-2.7-6.5h0.7l2.3,5.8L185,49.9z"/>
	<path class="st0" d="M190.8,52.1c0-0.6-0.2-1-0.5-1.3c-0.3-0.3-0.7-0.5-1.3-0.5c-0.5,0-0.9,0.1-1.3,0.3c-0.4,0.2-0.6,0.6-0.8,1.1
		l-0.5-0.3c0.2-0.5,0.5-0.9,1-1.2c0.4-0.3,1-0.4,1.7-0.4c0.5,0,0.9,0.1,1.3,0.3c0.4,0.2,0.6,0.4,0.8,0.7c0.2,0.3,0.3,0.7,0.3,1.2
		v3.2c0,0.5,0.2,0.7,0.6,0.7c0.2,0,0.3,0,0.5-0.1v0.5c-0.1,0.1-0.3,0.1-0.6,0.1c-0.2,0-0.4,0-0.6-0.1c-0.2-0.1-0.3-0.2-0.4-0.4
		c-0.1-0.2-0.2-0.4-0.2-0.7v-0.4h0.2c-0.1,0.4-0.2,0.7-0.5,0.9c-0.3,0.2-0.6,0.4-0.9,0.5c-0.3,0.1-0.7,0.2-1,0.2
		c-0.4,0-0.8-0.1-1.1-0.2c-0.3-0.1-0.6-0.3-0.8-0.6c-0.2-0.2-0.3-0.6-0.3-0.9c0-0.5,0.2-0.9,0.5-1.2c0.3-0.3,0.8-0.5,1.4-0.6
		l2.7-0.5v0.5l-2.4,0.5c-0.5,0.1-0.9,0.3-1.1,0.5c-0.3,0.2-0.4,0.5-0.4,0.8c0,0.4,0.1,0.6,0.4,0.9c0.3,0.2,0.6,0.3,1.1,0.3
		c0.3,0,0.5,0,0.8-0.1s0.5-0.2,0.7-0.3c0.2-0.2,0.4-0.3,0.5-0.6c0.1-0.2,0.2-0.5,0.2-0.8L190.8,52.1L190.8,52.1z"/>
	<path class="st0" d="M193.9,56.4v-6.5h0.6l0.1,1.6l-0.1-0.1c0.1-0.4,0.3-0.7,0.5-0.9c0.2-0.3,0.5-0.4,0.9-0.6
		c0.3-0.1,0.7-0.2,1.1-0.2c0.5,0,0.9,0.1,1.3,0.3c0.4,0.2,0.7,0.5,0.9,0.8c0.2,0.4,0.3,0.8,0.3,1.3v4.2h-0.6v-4
		c0-0.7-0.2-1.2-0.5-1.6c-0.4-0.3-0.8-0.5-1.4-0.5c-0.4,0-0.8,0.1-1.1,0.3c-0.4,0.2-0.6,0.5-0.9,0.8c-0.3,0.3-0.3,0.8-0.3,1.3v3.7
		h-0.8V56.4z"/>
	<path class="st0" d="M208,56.5c-0.5,0-0.9-0.1-1.2-0.2c-0.4-0.2-0.6-0.4-0.8-0.8s-0.3-0.8-0.3-1.3v-4.3h0.7V54
		c0,0.7,0.2,1.2,0.5,1.5s0.8,0.5,1.4,0.5c0.3,0,0.7-0.1,0.9-0.2c0.3-0.1,0.5-0.3,0.7-0.5s0.4-0.5,0.5-0.7c0.1-0.3,0.2-0.6,0.2-0.9
		V50h0.7v6.5h-0.6v-1.3c-0.2,0.5-0.5,0.8-0.9,1.1C209.2,56.4,208.6,56.5,208,56.5z"/>
	<path class="st0" d="M213.5,56.4v-6.5h0.6l0.1,1.6l-0.1-0.1c0.1-0.4,0.3-0.7,0.5-0.9c0.2-0.3,0.5-0.4,0.9-0.6
		c0.3-0.1,0.7-0.2,1.1-0.2c0.5,0,0.9,0.1,1.3,0.3c0.4,0.2,0.7,0.5,0.9,0.8c0.2,0.4,0.3,0.8,0.3,1.3v4.2h-0.6v-4
		c0-0.7-0.2-1.2-0.5-1.6c-0.4-0.3-0.8-0.5-1.4-0.5c-0.4,0-0.8,0.1-1.1,0.3c-0.4,0.2-0.6,0.5-0.9,0.8c-0.3,0.3-0.3,0.8-0.3,1.3v3.7
		h-0.8V56.4z"/>
	<path class="st0" d="M225.2,52.1c0-0.6-0.2-1-0.5-1.3c-0.3-0.3-0.7-0.5-1.3-0.5c-0.5,0-0.9,0.1-1.3,0.3c-0.4,0.2-0.6,0.6-0.8,1.1
		l-0.5-0.3c0.2-0.5,0.5-0.9,1-1.2c0.4-0.3,1-0.4,1.7-0.4c0.5,0,0.9,0.1,1.3,0.3c0.4,0.2,0.6,0.4,0.8,0.7c0.2,0.3,0.3,0.7,0.3,1.2
		v3.2c0,0.5,0.2,0.7,0.6,0.7c0.2,0,0.3,0,0.5-0.1v0.5c-0.1,0.1-0.3,0.1-0.6,0.1c-0.2,0-0.4,0-0.6-0.1c-0.2-0.1-0.3-0.2-0.4-0.4
		c-0.1-0.2-0.2-0.4-0.2-0.7v-0.4h0.2c-0.1,0.4-0.2,0.7-0.5,0.9c-0.3,0.2-0.6,0.4-0.9,0.5c-0.3,0.1-0.7,0.2-1,0.2
		c-0.4,0-0.8-0.1-1.1-0.2c-0.3-0.1-0.6-0.3-0.8-0.6c-0.2-0.2-0.3-0.6-0.3-0.9c0-0.5,0.2-0.9,0.5-1.2c0.3-0.3,0.8-0.5,1.4-0.6
		l2.7-0.5v0.5l-2.4,0.5c-0.5,0.1-0.9,0.3-1.1,0.5c-0.3,0.2-0.4,0.5-0.4,0.8c0,0.4,0.1,0.6,0.4,0.9c0.3,0.2,0.6,0.3,1.1,0.3
		c0.3,0,0.5,0,0.8-0.1s0.5-0.2,0.7-0.3c0.2-0.2,0.4-0.3,0.5-0.6c0.1-0.2,0.2-0.5,0.2-0.8L225.2,52.1L225.2,52.1z"/>
	<path class="st0" d="M236.1,49.9h1.8l-2.5,6.5h-2.1l-2.5-6.5h1.9l1.6,5.1L236.1,49.9z"/>
	<path class="st0" d="M239.8,49c-0.4,0-0.7-0.1-0.8-0.2c-0.2-0.2-0.3-0.4-0.3-0.7c0-0.3,0.1-0.6,0.3-0.7s0.5-0.2,0.8-0.2
		c0.4,0,0.7,0.1,0.8,0.2s0.3,0.4,0.3,0.7c0,0.3-0.1,0.5-0.3,0.7C240.5,48.9,240.2,49,239.8,49z M240.7,49.9v6.5h-1.8v-6.5H240.7z"/>
	<path class="st0" d="M245,56.5c-0.5,0-1-0.1-1.4-0.4c-0.4-0.3-0.7-0.7-1-1.2c-0.2-0.5-0.4-1.1-0.4-1.8c0-0.7,0.1-1.3,0.4-1.8
		c0.3-0.5,0.6-0.9,1-1.2c0.4-0.3,0.9-0.4,1.4-0.4c0.6,0,1,0.2,1.4,0.5s0.6,0.8,0.7,1.3l-0.2,0.2V47h1.8v9.3h-1.6l-0.1-2l0.2,0.1
		c-0.1,0.4-0.2,0.8-0.4,1.1s-0.5,0.5-0.8,0.7C245.8,56.4,245.4,56.5,245,56.5z M245.6,55.2c0.3,0,0.6-0.1,0.8-0.2s0.4-0.4,0.5-0.7
		s0.2-0.7,0.2-1.1c0-0.4-0.1-0.8-0.2-1.1s-0.3-0.5-0.5-0.7s-0.5-0.2-0.8-0.2c-0.5,0-0.9,0.2-1.1,0.5c-0.3,0.3-0.4,0.8-0.4,1.5
		s0.1,1.2,0.4,1.5C244.7,55,245.1,55.2,245.6,55.2z"/>
	<path class="st0" d="M254.4,52.2c0-0.4-0.1-0.7-0.3-0.9c-0.2-0.2-0.5-0.3-0.8-0.3s-0.6,0.1-0.8,0.2c-0.2,0.2-0.4,0.4-0.5,0.8
		l-1.5-0.5c0.1-0.6,0.5-1,1-1.4c0.5-0.3,1.2-0.5,2-0.5c0.6,0,1.1,0.1,1.5,0.3s0.8,0.4,1,0.8s0.4,0.8,0.4,1.3v2.6
		c0,0.3,0.2,0.5,0.5,0.5c0.1,0,0.3,0,0.4-0.1l-0.1,1.1c-0.2,0.1-0.5,0.2-0.8,0.2s-0.6-0.1-0.8-0.2c-0.2-0.1-0.4-0.3-0.6-0.5
		c-0.1-0.2-0.2-0.5-0.2-0.8V55l0.3-0.1c-0.1,0.3-0.2,0.6-0.4,0.8c-0.2,0.2-0.5,0.4-0.9,0.5c-0.4,0.1-0.7,0.2-1,0.2
		c-0.4,0-0.8-0.1-1.1-0.2c-0.3-0.1-0.6-0.3-0.7-0.6c-0.2-0.3-0.3-0.6-0.3-1c0-0.5,0.2-0.9,0.5-1.2s0.8-0.5,1.3-0.6l2.4-0.5v1.1
		l-1.6,0.3c-0.3,0.1-0.5,0.1-0.7,0.2s-0.2,0.3-0.2,0.5s0.1,0.4,0.2,0.5s0.4,0.2,0.6,0.2c0.2,0,0.4,0,0.5-0.1c0.2,0,0.3-0.1,0.5-0.2
		c0.1-0.1,0.2-0.2,0.3-0.4s0.1-0.4,0.1-0.6v-1.6H254.4z"/>
	<path class="st0" d="M262,59.1v-9.2h1.6l0.1,2.1l-0.2-0.2c0.1-0.4,0.2-0.7,0.4-1c0.2-0.3,0.5-0.5,0.8-0.7c0.3-0.2,0.7-0.3,1.1-0.3
		c0.5,0,1,0.1,1.4,0.4s0.7,0.7,1,1.2c0.2,0.5,0.4,1.1,0.4,1.8s-0.1,1.3-0.4,1.8c-0.2,0.5-0.6,0.9-1,1.2s-0.9,0.4-1.4,0.4
		c-0.6,0-1-0.2-1.4-0.5c-0.4-0.3-0.6-0.7-0.8-1.2l0.2-0.3v4.6H262V59.1z M265.3,55.2c0.5,0,0.9-0.2,1.1-0.5c0.3-0.3,0.4-0.8,0.4-1.5
		s-0.1-1.2-0.4-1.5s-0.6-0.5-1.1-0.5c-0.3,0-0.6,0.1-0.8,0.2s-0.4,0.4-0.5,0.7s-0.2,0.7-0.2,1.1c0,0.4,0.1,0.8,0.2,1.1
		c0.1,0.3,0.3,0.5,0.5,0.7C264.7,55.1,265,55.2,265.3,55.2z"/>
	<path class="st0" d="M273.1,49.8c0.7,0,1.2,0.1,1.7,0.4c0.5,0.3,0.9,0.7,1.2,1.2c0.3,0.5,0.4,1.1,0.4,1.8c0,0.7-0.1,1.3-0.4,1.8
		s-0.7,0.9-1.2,1.2c-0.5,0.3-1.1,0.4-1.7,0.4c-0.7,0-1.2-0.1-1.7-0.4c-0.5-0.3-0.9-0.7-1.2-1.2c-0.3-0.5-0.4-1.1-0.4-1.8
		c0-0.7,0.1-1.3,0.4-1.8s0.7-0.9,1.2-1.2C271.9,49.9,272.5,49.8,273.1,49.8z M273.1,51.1c-0.3,0-0.6,0.1-0.8,0.2
		c-0.2,0.2-0.4,0.4-0.5,0.7c-0.1,0.3-0.2,0.7-0.2,1.1s0.1,0.8,0.2,1.1c0.1,0.3,0.3,0.5,0.5,0.7c0.2,0.2,0.5,0.2,0.8,0.2
		s0.6-0.1,0.8-0.2c0.2-0.2,0.4-0.4,0.5-0.7c0.1-0.3,0.2-0.7,0.2-1.1s-0.1-0.8-0.2-1.1c-0.1-0.3-0.3-0.5-0.5-0.7
		C273.7,51.2,273.4,51.1,273.1,51.1z"/>
	<path class="st0" d="M280.9,49.8c0.6,0,1.1,0.1,1.5,0.3c0.4,0.2,0.7,0.4,1,0.7s0.4,0.6,0.5,1l-1.7,0.6c-0.1-0.4-0.2-0.7-0.4-0.9
		s-0.5-0.3-0.8-0.3s-0.6,0.1-0.8,0.2c-0.2,0.2-0.4,0.4-0.5,0.7s-0.2,0.7-0.2,1.2s0.1,0.8,0.2,1.1c0.1,0.3,0.3,0.5,0.5,0.7
		c0.2,0.1,0.5,0.2,0.8,0.2s0.5,0,0.7-0.1s0.3-0.2,0.4-0.4c0.1-0.2,0.2-0.4,0.2-0.6l1.6,0.5c-0.1,0.4-0.3,0.7-0.5,1
		c-0.3,0.3-0.6,0.5-1,0.7s-0.9,0.2-1.4,0.2c-0.7,0-1.3-0.1-1.8-0.4c-0.5-0.3-0.9-0.7-1.2-1.2c-0.3-0.5-0.4-1.1-0.4-1.8
		c0-0.7,0.1-1.3,0.4-1.8s0.7-0.9,1.2-1.2C279.6,49.9,280.2,49.8,280.9,49.8z"/>
	<path class="st0" d="M288.2,49.8c0.7,0,1.2,0.1,1.7,0.4c0.5,0.3,0.9,0.7,1.2,1.2c0.3,0.5,0.4,1.1,0.4,1.8c0,0.7-0.1,1.3-0.4,1.8
		s-0.7,0.9-1.2,1.2c-0.5,0.3-1.1,0.4-1.7,0.4c-0.7,0-1.2-0.1-1.7-0.4c-0.5-0.3-0.9-0.7-1.2-1.2c-0.3-0.5-0.4-1.1-0.4-1.8
		c0-0.7,0.1-1.3,0.4-1.8s0.7-0.9,1.2-1.2C287,49.9,287.6,49.8,288.2,49.8z M288.2,51.1c-0.3,0-0.6,0.1-0.8,0.2
		c-0.2,0.2-0.4,0.4-0.5,0.7c-0.1,0.3-0.2,0.7-0.2,1.1s0.1,0.8,0.2,1.1c0.1,0.3,0.3,0.5,0.5,0.7c0.2,0.2,0.5,0.2,0.8,0.2
		s0.6-0.1,0.8-0.2c0.2-0.2,0.4-0.4,0.5-0.7c0.1-0.3,0.2-0.7,0.2-1.1s-0.1-0.8-0.2-1.1c-0.1-0.3-0.3-0.5-0.5-0.7
		C288.8,51.2,288.5,51.1,288.2,51.1z"/>
	<path class="st0" d="M299.6,56.5c-0.7,0-1.3-0.1-1.8-0.4c-0.5-0.2-1-0.6-1.3-1l1-1c0.2,0.3,0.5,0.6,0.8,0.8
		c0.3,0.2,0.8,0.3,1.2,0.3c0.3,0,0.6,0,0.8-0.1c0.2-0.1,0.3-0.3,0.3-0.5c0-0.1,0-0.3-0.1-0.4c-0.1-0.1-0.3-0.2-0.6-0.2l-1.1-0.2
		c-0.8-0.2-1.3-0.4-1.6-0.7c-0.3-0.3-0.5-0.7-0.5-1.2c0-0.4,0.1-0.7,0.3-1c0.2-0.3,0.5-0.6,1-0.8c0.4-0.2,1-0.3,1.6-0.3
		c0.7,0,1.2,0.1,1.7,0.3c0.5,0.2,0.9,0.5,1.1,0.9l-1.1,1c-0.2-0.3-0.4-0.5-0.7-0.7s-0.6-0.2-1-0.2c-0.2,0-0.5,0-0.6,0.1
		c-0.2,0.1-0.3,0.1-0.4,0.2c-0.1,0.1-0.1,0.2-0.1,0.3s0.1,0.3,0.2,0.4s0.3,0.2,0.7,0.3l1.3,0.3c0.6,0.1,1.1,0.3,1.4,0.7
		s0.4,0.7,0.4,1.1c0,0.4-0.1,0.8-0.3,1.1c-0.2,0.3-0.5,0.6-1,0.8C300.8,56.4,300.2,56.5,299.6,56.5z"/>
	<path class="st0" d="M307.6,52.2c0-0.4-0.1-0.7-0.3-0.9c-0.2-0.2-0.5-0.3-0.8-0.3s-0.6,0.1-0.8,0.2c-0.2,0.2-0.4,0.4-0.5,0.8
		l-1.5-0.5c0.1-0.6,0.5-1,1-1.4c0.5-0.3,1.2-0.5,2-0.5c0.6,0,1.1,0.1,1.5,0.3s0.8,0.4,1,0.8s0.4,0.8,0.4,1.3v2.6
		c0,0.3,0.2,0.5,0.5,0.5c0.1,0,0.3,0,0.4-0.1l-0.1,1.1c-0.2,0.1-0.5,0.2-0.8,0.2s-0.6-0.1-0.8-0.2c-0.2-0.1-0.4-0.3-0.6-0.5
		c-0.1-0.2-0.2-0.5-0.2-0.8V55h0c-0.1,0.3-0.2,0.6-0.4,0.8s-0.5,0.4-0.9,0.5s-0.7,0.2-1,0.2c-0.4,0-0.8-0.1-1.1-0.2
		c-0.3-0.1-0.6-0.3-0.7-0.6c-0.2-0.3-0.3-0.6-0.3-1c0-0.5,0.2-0.9,0.5-1.2c0.3-0.3,0.8-0.5,1.3-0.6l2.4-0.5v1.1l-1.6,0.3
		c-0.3,0.1-0.5,0.1-0.7,0.2c-0.2,0.1-0.2,0.3-0.2,0.5c0,0.2,0.1,0.4,0.2,0.5c0.1,0.1,0.4,0.2,0.6,0.2s0.4,0,0.5-0.1
		c0.2,0,0.3-0.1,0.5-0.2c0.1-0.1,0.2-0.2,0.3-0.4c0.1-0.2,0.1-0.4,0.1-0.6v-1.7H307.6z"/>
	<path class="st0" d="M313.1,47v7.3c0,0.3,0.1,0.5,0.2,0.6c0.1,0.1,0.3,0.2,0.5,0.2c0.1,0,0.3,0,0.4,0s0.2-0.1,0.4-0.1l-0.2,1.2
		c-0.1,0.1-0.3,0.2-0.6,0.2c-0.2,0-0.4,0.1-0.7,0.1c-0.6,0-1.1-0.2-1.4-0.5c-0.3-0.3-0.4-0.8-0.4-1.5V47H313.1z"/>
	<path class="st0" d="M317.8,56.5c-0.4,0-0.8-0.1-1.2-0.2c-0.3-0.2-0.6-0.4-0.8-0.7c-0.2-0.3-0.3-0.8-0.3-1.3V50h1.8v3.9
		c0,0.5,0.1,0.9,0.3,1c0.2,0.1,0.5,0.3,0.9,0.3c0.2,0,0.4,0,0.5-0.1c0.2-0.1,0.3-0.2,0.5-0.3c0.1-0.1,0.2-0.3,0.3-0.5
		c0.1-0.2,0.1-0.5,0.1-0.8V50h1.8v6.5h-1.6l-0.1-1.1c-0.2,0.4-0.5,0.8-0.9,1C318.8,56.4,318.3,56.5,317.8,56.5z"/>
	<path class="st0" d="M326,56.5c-0.5,0-1-0.1-1.4-0.4c-0.4-0.3-0.7-0.7-1-1.2c-0.2-0.5-0.4-1.1-0.4-1.8c0-0.7,0.1-1.3,0.4-1.8
		s0.6-0.9,1-1.2c0.4-0.3,0.9-0.4,1.4-0.4c0.6,0,1,0.2,1.4,0.5s0.6,0.8,0.7,1.3l-0.2,0.2V47h1.8v9.3h-1.6l-0.1-2l0.2,0.1
		c-0.1,0.4-0.2,0.8-0.4,1.1s-0.5,0.5-0.8,0.7C326.8,56.4,326.4,56.5,326,56.5z M326.5,55.2c0.3,0,0.6-0.1,0.8-0.2s0.4-0.4,0.5-0.7
		s0.2-0.7,0.2-1.1c0-0.4-0.1-0.8-0.2-1.1s-0.3-0.5-0.5-0.7s-0.5-0.2-0.8-0.2c-0.5,0-0.9,0.2-1.1,0.5c-0.3,0.3-0.4,0.8-0.4,1.5
		s0.1,1.2,0.4,1.5C325.7,55,326.1,55.2,326.5,55.2z"/>
	<path class="st0" d="M335.4,52.2c0-0.4-0.1-0.7-0.3-0.9c-0.2-0.2-0.5-0.3-0.8-0.3s-0.6,0.1-0.8,0.2c-0.2,0.2-0.4,0.4-0.5,0.8
		l-1.5-0.5c0.1-0.6,0.5-1,1-1.4c0.5-0.3,1.2-0.5,2-0.5c0.6,0,1.1,0.1,1.5,0.3s0.8,0.4,1,0.8s0.4,0.8,0.4,1.3v2.6
		c0,0.3,0.2,0.5,0.5,0.5c0.1,0,0.3,0,0.4-0.1l-0.1,1.1c-0.2,0.1-0.5,0.2-0.8,0.2s-0.6-0.1-0.8-0.2c-0.2-0.1-0.4-0.3-0.6-0.5
		c-0.1-0.2-0.2-0.5-0.2-0.8V55l0.3-0.1c-0.1,0.3-0.2,0.6-0.4,0.8c-0.2,0.2-0.5,0.4-0.9,0.5c-0.4,0.1-0.7,0.2-1,0.2
		c-0.4,0-0.8-0.1-1.1-0.2c-0.3-0.1-0.6-0.3-0.7-0.6c-0.2-0.3-0.3-0.6-0.3-1c0-0.5,0.2-0.9,0.5-1.2s0.8-0.5,1.3-0.6l2.4-0.5v1.1
		l-1.6,0.3c-0.3,0.1-0.5,0.1-0.7,0.2s-0.2,0.3-0.2,0.5s0.1,0.4,0.2,0.5s0.4,0.2,0.6,0.2s0.4,0,0.5-0.1c0.2,0,0.3-0.1,0.5-0.2
		c0.1-0.1,0.2-0.2,0.3-0.4c0.1-0.2,0.1-0.4,0.1-0.6v-1.6H335.4z"/>
	<path class="st0" d="M343,56.5c-0.4,0-0.8-0.1-1.1-0.3c-0.3-0.2-0.6-0.4-0.8-0.7c-0.2-0.3-0.4-0.6-0.4-1l0.2-0.2l-0.1,2.1h-1.6V47
		h1.8v4.7l-0.2-0.3c0.1-0.5,0.4-0.9,0.8-1.2s0.9-0.5,1.5-0.5c0.5,0,1,0.1,1.4,0.4c0.4,0.3,0.7,0.7,1,1.2c0.2,0.5,0.4,1.1,0.4,1.8
		c0,0.7-0.1,1.3-0.4,1.8c-0.2,0.5-0.6,0.9-1,1.2C344,56.4,343.5,56.5,343,56.5z M342.5,55.2c0.5,0,0.9-0.2,1.1-0.5
		c0.3-0.3,0.4-0.8,0.4-1.5s-0.1-1.2-0.4-1.5s-0.6-0.5-1.1-0.5c-0.3,0-0.6,0.1-0.8,0.2c-0.2,0.2-0.4,0.4-0.5,0.7s-0.2,0.7-0.2,1.1
		c0,0.4,0.1,0.8,0.2,1.1c0.1,0.3,0.3,0.5,0.5,0.7C341.9,55.1,342.2,55.2,342.5,55.2z"/>
	<path class="st0" d="M349.1,47v7.3c0,0.3,0.1,0.5,0.2,0.6c0.1,0.1,0.3,0.2,0.5,0.2c0.1,0,0.3,0,0.4,0s0.2-0.1,0.4-0.1l-0.2,1.2
		c-0.1,0.1-0.3,0.2-0.6,0.2c-0.2,0-0.4,0.1-0.7,0.1c-0.6,0-1.1-0.2-1.4-0.5c-0.3-0.3-0.4-0.8-0.4-1.5V47H349.1z"/>
	<path class="st0" d="M354.5,56.5c-0.7,0-1.3-0.1-1.8-0.4c-0.5-0.3-0.9-0.7-1.2-1.2c-0.3-0.5-0.4-1.1-0.4-1.8c0-0.7,0.1-1.3,0.4-1.8
		s0.7-0.9,1.2-1.2c0.5-0.3,1.1-0.4,1.7-0.4c0.7,0,1.2,0.1,1.7,0.4c0.5,0.3,0.8,0.6,1.1,1.1c0.2,0.5,0.4,1,0.4,1.6c0,0.2,0,0.3,0,0.5
		c0,0.2,0,0.3,0,0.4h-5.2v-1.2h4.4l-0.9,0.3c0-0.5-0.1-1-0.4-1.3s-0.6-0.4-1-0.4c-0.3,0-0.6,0.1-0.9,0.2c-0.3,0.1-0.4,0.4-0.5,0.7
		c-0.1,0.3-0.2,0.7-0.2,1.2s0.1,0.8,0.2,1.1c0.1,0.3,0.3,0.5,0.6,0.7s0.5,0.2,0.9,0.2s0.7-0.1,0.9-0.2c0.2-0.1,0.4-0.4,0.5-0.6
		l1.4,0.5c-0.1,0.3-0.3,0.6-0.6,0.9c-0.3,0.2-0.6,0.4-1,0.6C355.3,56.5,354.9,56.5,354.5,56.5z"/>
	<path class="st0" d="M359.9,54.4c0.3,0,0.6,0.1,0.8,0.3c0.2,0.2,0.3,0.4,0.3,0.8c0,0.3-0.1,0.6-0.3,0.8c-0.2,0.2-0.5,0.3-0.8,0.3
		s-0.6-0.1-0.8-0.3c-0.2-0.2-0.3-0.4-0.3-0.8c0-0.3,0.1-0.6,0.3-0.8C359.3,54.5,359.6,54.4,359.9,54.4z"/>
</g>
</svg>
