<?xml version="1.0" encoding="utf-8"?>
<!-- Generator: Adobe Illustrator 24.2.3, SVG Export Plug-In . SVG Version: 6.00 Build 0)  -->
<svg version="1.1" id="Capa_1" xmlns="http://www.w3.org/2000/svg" xmlns:xlink="http://www.w3.org/1999/xlink" x="0px" y="0px"
	 viewBox="0 0 532.7 274.2" style="enable-background:new 0 0 532.7 274.2;" xml:space="preserve">
<style type="text/css">
	.st0{fill-rule:evenodd;clip-rule:evenodd;fill:#FE9E9E;}
	.st1{fill-rule:evenodd;clip-rule:evenodd;fill:#FF9E9E;}
	.st2{fill-rule:evenodd;clip-rule:evenodd;fill:#C2E0E0;}
	.st3{fill-rule:evenodd;clip-rule:evenodd;fill:#678F8F;}
	.st4{fill:none;stroke:#678F8F;stroke-width:2.5;stroke-linecap:round;stroke-miterlimit:3;}
	.st5{fill-rule:evenodd;clip-rule:evenodd;fill:#FFFFFF;}
	.st6{fill-rule:evenodd;clip-rule:evenodd;}
	.st7{fill:none;stroke:#FE9E9E;stroke-width:12;stroke-linecap:round;stroke-linejoin:round;stroke-miterlimit:3;}
	.st8{fill-rule:evenodd;clip-rule:evenodd;fill:#FF5E9D;}
	.st9{fill-rule:evenodd;clip-rule:evenodd;fill:#AF4670;}
	.st10{fill-rule:evenodd;clip-rule:evenodd;fill:#00B200;}
	.st11{fill-rule:evenodd;clip-rule:evenodd;fill:#00E700;}
	.st12{fill:none;stroke:#000000;stroke-linecap:round;stroke-linejoin:round;stroke-miterlimit:3;}
	.st13{fill-rule:evenodd;clip-rule:evenodd;fill:#CBE0E0;}
	.st14{fill-rule:evenodd;clip-rule:evenodd;fill:#748F8F;}
	.st15{fill:none;stroke:#748F8F;stroke-width:2.5;stroke-linecap:round;stroke-miterlimit:3;}
	.st16{fill-rule:evenodd;clip-rule:evenodd;fill:#00B300;}
	.st17{fill:none;stroke:#F5F5F5;stroke-width:5;stroke-linecap:round;stroke-linejoin:round;stroke-miterlimit:3;}
	.st18{fill-rule:evenodd;clip-rule:evenodd;fill:#FFFF00;}
	.st19{fill:none;stroke:#FEFEFE;stroke-width:12;stroke-linecap:round;stroke-miterlimit:3;}
	.st20{fill:none;stroke:#000000;stroke-width:0.5;stroke-linecap:square;stroke-miterlimit:3;}
	.st21{fill-rule:evenodd;clip-rule:evenodd;fill:#B13000;}
</style>
<symbol  id="Símbolo_10" viewBox="-45.7 -74 91.3 148">
	<path class="st0" d="M45.7,31.7v-63.3c0-11.7-4.2-21.7-12.5-30S14.9-74,3.3-74h-6.7c-11.6,0-21.6,4.1-30,12.3
		c-8.2,8.4-12.3,18.4-12.3,30v63.3c0,11.6,4.1,21.6,12.3,30c8.3,8.3,18.3,12.4,30,12.4h6.7c11.6,0,21.6-4.1,29.8-12.3
		C41.4,53.3,45.7,43.3,45.7,31.7z"/>
</symbol>
<symbol  id="Símbolo_11" viewBox="-5.8 -12.7 11.7 25.5">
	<path class="st1" d="M5.8,12.7V-6.9c0-1.6-0.6-3-1.7-4.2S1.6-12.7,0-12.7c-1.6,0-3,0.6-4.1,1.7c-1.2,1.2-1.7,2.6-1.7,4.2v19.6
		C-5.8,12.7,5.8,12.7,5.8,12.7z"/>
</symbol>
<symbol  id="Símbolo_12" viewBox="-15.5 -8 31 15.9">
	<g>
		<path class="st2" d="M15.1-4.4h-30.5c0.1,1.7,0.3,3.2,0.6,4.6c0.8,3,2.3,4.6,4.5,4.7H4.1c3.2,0,5.9-1.2,8.1-3.7
			C13.6-0.4,14.6-2.3,15.1-4.4z"/>
		<path class="st3" d="M15.1-4.4c0.3-1.1,0.4-2.2,0.4-3.4V-8h-31v0.2v3.4H15.1z"/>
	</g>
	<g>
		<path class="st4" d="M4.4,6.7l-3-5.1 M8.6,6.7L5.7,1.6"/>
	</g>
</symbol>
<symbol  id="Símbolo_21" viewBox="-29.1 -9 58.1 18">
	<g>
		<path class="st5" d="M28,3.9l-0.5,0.2c-1.4,0.6-3.7,0.9-6.9,1C14.9,5.3,8.1,4.5,0,2.8C-8,1.1-14.8-1-20.5-3.5
			c-3.1-1.4-5.4-2.7-6.8-3.9l-0.5-0.4c-0.8,0.4-1.2,1-1.2,1.7c0,1.8,2.8,4,8.5,6.5S-7.9,5,0.1,6.7c8,1.6,14.8,2.4,20.5,2.3
			s8.5-1.1,8.5-2.9C29.1,5.5,28.7,4.7,28,3.9z"/>
		<path class="st6" d="M-27.8-7.8l0.5,0.4c1.4,1.2,3.7,2.5,6.8,3.9C-14.8-1-7.9,1.1,0.1,2.8S15,5.2,20.6,5.1c3.2-0.1,5.5-0.4,6.9-1
			L28,3.9l-0.5-0.5c-1.4-1.1-3.7-2.4-6.9-3.8C14.9-2.9,8.1-5,0-6.6C-8-8.3-14.8-9.1-20.5-9c-3.1,0.1-5.4,0.4-6.8,0.9L-27.8-7.8z"/>
	</g>
</symbol>
<symbol  id="Símbolo_3" viewBox="-50.6 -111.2 101.2 222.4">
	<path class="st1" d="M-3.7,111.2h7.4c12.9,0,23.9-4.6,33-13.7c9.2-9.2,13.8-20.3,13.8-33.2V-64.3c0-12.9-4.6-23.9-13.8-33
		c-9.1-9.3-20.1-13.9-33-13.9h-7.4c-12.9,0-24,4.6-33.2,13.9c-9.1,9.1-13.6,20.1-13.6,33V64.3c0,12.9,4.5,24,13.7,33.2
		C-27.7,106.6-16.6,111.2-3.7,111.2z"/>
</symbol>
<symbol  id="Símbolo_39" viewBox="-7.1 -7.1 14.2 14.2">
	<path class="st6" d="M-5.1-5c-1.4,1.4-2,3-2,5s0.7,3.7,2,5.1c1.4,1.4,3.1,2,5.1,2s3.6-0.7,5-2C6.4,3.7,7.1,2,7.1,0S6.4-3.6,5-5
		S2-7.1,0-7.1S-3.7-6.4-5.1-5z"/>
</symbol>
<symbol  id="Símbolo_4" viewBox="-34.5 -18.4 69 36.8">
	<polyline class="st7" points="-28.5,-9.4 8.9,-12.4 28.5,12.4 	"/>
</symbol>
<symbol  id="Símbolo_5" viewBox="-24.2 -25.3 48.4 50.6">
	<g>
		<g>
			<path class="st8" d="M4.3-15.3L-15.3,2.2L1.9,21.5c2.2,2.5,5,3.7,8.4,3.8c1.2,0,2.3-0.1,3.3-0.4c1.4-0.3,2.7-0.9,3.9-1.7l2-1.5
				l1-1.1c1-1,1.8-2.1,2.4-3.4c0.7-1.4,1.1-2.8,1.2-4.3v-0.2c0.3-3.3-0.6-6.2-2.8-8.6L4.3-15.3z M-18.5-1.5L1.1-18.9l-5.7-6.4
				L-24.2-7.8L-18.5-1.5z"/>
			
				<rect x="-9.5" y="-21.4" transform="matrix(0.6649 -0.7469 0.7469 0.6649 3.8722 -8.0626)" class="st9" width="4.9" height="26.2"/>
		</g>
	</g>
</symbol>
<symbol  id="Símbolo_59" viewBox="-22.4 -47.7 44.8 95.3">
	<g>
		<path class="st1" d="M13.8-19L3.1-24.5l-25,64c-0.6,1.5-0.6,3.1,0.1,4.6c0.7,1.5,1.8,2.5,3.4,3.2c1.5,0.6,3,0.6,4.5,0
			c1.5-0.7,2.6-1.8,3.2-3.3L13.8-19z"/>
		<path class="st10" d="M3.1-24.5L13.8-19l1.4-3.6L4.3-27.8L3.1-24.5z M5.8-31.5L16.6-26L22-39.9c0.6-1.5,0.6-3-0.1-4.5
			c-0.7-1.5-1.8-2.6-3.3-3.2l-4.6,0.1c-1.5,0.7-2.6,1.8-3.2,3.3L5.8-31.5z"/>
		<polygon class="st11" points="5.8,-31.5 4.3,-27.8 15.2,-22.6 16.6,-26 		"/>
	</g>
</symbol>
<symbol  id="Símbolo_6" viewBox="-1.7 -0.7 3.4 1.5">
	<path class="st12" d="M-1.2-0.2C-0.9,0.1-0.5,0.2,0,0.2c0.4,0,0.8-0.2,1.2-0.4"/>
</symbol>
<symbol  id="Símbolo_60" viewBox="-15.5 -8 31 15.9">
	<g>
		<path class="st13" d="M15.1-4.4h-30.5c0.1,1.7,0.3,3.2,0.6,4.6c0.8,3,2.3,4.6,4.5,4.7H4.1c3.2,0,5.9-1.2,8.1-3.7
			C13.6-0.4,14.6-2.3,15.1-4.4z"/>
		<path class="st14" d="M15.1-4.4c0.3-1.1,0.4-2.2,0.4-3.4V-8h-31v0.2v3.4H15.1z"/>
	</g>
	<g>
		<path class="st15" d="M4.4,6.7l-3-5.1 M8.6,6.7L5.7,1.6"/>
	</g>
</symbol>
<symbol  id="Símbolo_61" viewBox="-16.5 -20.8 33 41.6">
	<polygon class="st16" points="16.5,-13.1 -3.5,-20.8 -16.5,13.1 3.5,20.8 	"/>
</symbol>
<symbol  id="Símbolo_63" viewBox="-5.8 -12.8 11.6 25.5">
	<path class="st0" d="M5.8,12.6V-7c0-1.6-0.6-3-1.7-4.2S1.6-12.8,0-12.8s-3,0.6-4.1,1.7c-1.2,1.2-1.7,2.6-1.7,4.2v19.6
		C-5.8,12.6,5.8,12.6,5.8,12.6z"/>
</symbol>
<symbol  id="Símbolo_64" viewBox="-31.3 -31.3 62.6 62.6">
	<path class="st6" d="M31.3,0c0-8.7-3-16-9.1-22.1S8.7-31.3,0-31.3c-8.6,0-16,3-22.1,9.1C-28.2-16-31.3-8.7-31.3,0
		c0,8.6,3,16,9.1,22.1C-16,28.2-8.6,31.3,0,31.3c8.7,0,16-3,22.1-9.1C28.2,16,31.3,8.6,31.3,0z"/>
</symbol>
<symbol  id="Símbolo_65" viewBox="-1.7 -0.7 3.4 1.4">
	<path class="st12" d="M-1.2-0.2C-0.9,0.1-0.5,0.2,0,0.2c0.4,0,0.8-0.2,1.2-0.4"/>
</symbol>
<symbol  id="Símbolo_66" viewBox="-50.5 -111.2 101 222.4">
	<path class="st0" d="M-3.7,111.2h7.4c12.9,0,23.9-4.6,33-13.7c9.2-9.2,13.8-20.3,13.8-33.2V-64.3c0-12.9-4.6-23.9-13.8-33
		c-9.1-9.3-20.1-13.9-33-13.9h-7.4c-12.9,0-24,4.6-33.2,13.9c-9.1,9.1-13.6,20.1-13.6,33V64.3c0,12.9,4.5,24,13.7,33.2
		C-27.7,106.6-16.6,111.2-3.7,111.2z"/>
</symbol>
<symbol  id="Símbolo_67" viewBox="-31.1 -34.1 62.3 68.2">
	<path class="st17" d="M23.4,31.6v-63.2 M-22.6,31.6v-63.2"/>
	<g>
		<g>
			<path class="st6" d="M25,30.5L-8,6.7h-14.6l-3.2,0.2l33,23.8L25,30.5z M31.1,21.9v-9.2c0-4-2.8-6-8.5-6H10.1L31.1,21.9z
				 M-31.1,16.2v8.5c0,4,2.8,6,8.5,6h11.4L-31.1,16.2z"/>
			<path class="st18" d="M-11.1,30.7H7.2l-33-23.8c-3.6,0.7-5.4,2.6-5.4,5.8v3.5L-11.1,30.7z M10.1,6.7H-8l33,23.9
				c4.1-0.5,6.1-2.5,6.1-5.9v-2.8L10.1,6.7z"/>
		</g>
	</g>
</symbol>
<symbol  id="Símbolo_7" viewBox="-12.4 -31 24.8 62">
	<path class="st19" d="M-5.9,24.8L-6.4,25 M6.4-25v23.5c0,4.6-0.9,8.9-2.6,12.9"/>
</symbol>
<symbol  id="Símbolo_8" viewBox="-50.6 -74 101.2 148">
	<path class="st0" d="M3.7-74h-7.4c-12.9,0-24,4.6-33.2,13.9C-46-51-50.6-40-50.6-27.1v22.4H50.6v-22.4c0-12.9-4.6-23.9-13.8-33
		C27.6-69.4,16.6-74,3.7-74z"/>
	<g>
		<path class="st0" d="M38.1,61.7c8.3-8.3,12.5-18.3,12.5-30V-14c0-11.7-4.2-21.6-12.5-29.8c-8.2-8.4-18.2-12.5-29.8-12.5H1.6
			c-11.6,0-21.6,4.2-30,12.5c-8.2,8.2-12.4,18.1-12.4,29.8v45.7c0,11.6,4.1,21.6,12.4,30C-20,69.9-10,74,1.6,74h6.7
			C19.9,74,29.9,69.9,38.1,61.7z"/>
	</g>
</symbol>
<symbol  id="Símbolo_9" viewBox="-4.4 -3.7 8.7 7.4">
	<path class="st5" d="M-1,3.1C0,3.2,0.9,3,1.8,2.5l0.1-0.1c0.9-0.5,1.5-1.2,1.9-2L4-0.2c0.4-1.1,0.3-2.1-0.2-3.1L3.6-3.7l-8,4.6
		l0.2,0.4C-3.6,2.2-2.7,2.8-1.6,3L-1,3.1z"/>
	<g>
		<path class="st20" d="M-0.8,3.4l-2.3-4 M-0.7-1.9l2.8,4.8 M1.7-3.3l2.3,4"/>
	</g>
</symbol>
<g>
	<g>
		<defs>
			
				<rect id="SVGID_1_" x="43" y="156.1" transform="matrix(4.760915e-02 -0.9989 0.9989 4.760915e-02 -102.5347 228.7846)" width="51.4" height="24.2"/>
		</defs>
		<clipPath id="SVGID_2_">
			<use xlink:href="#SVGID_1_"  style="overflow:visible;"/>
		</clipPath>
		<g transform="matrix(1 0 0 1 7.629395e-06 1.525879e-05)" style="clip-path:url(#SVGID_2_);">
			
				<use xlink:href="#Símbolo_59"  width="44.8" height="95.3" x="-22.4" y="-47.7" transform="matrix(0.5392 2.570000e-02 2.570000e-02 -0.5392 68.6168 168.1564)" style="overflow:visible;"/>
		</g>
	</g>
	<g>
		<defs>
			
				<rect id="SVGID_3_" x="70.4" y="184.9" transform="matrix(0.8338 -0.5521 0.5521 0.8338 -91.5422 75.8712)" width="19.7" height="10.1"/>
		</defs>
		<clipPath id="SVGID_4_">
			<use xlink:href="#SVGID_3_"  style="overflow:visible;"/>
		</clipPath>
		<g transform="matrix(1 2.980232e-08 -2.980232e-08 1 0 0)" style="clip-path:url(#SVGID_4_);">
			
				<use xlink:href="#Símbolo_12"  width="31" height="15.9" x="-15.5" y="-8" transform="matrix(0.5295 -0.3506 -0.3506 -0.5295 80.2444 189.9705)" style="overflow:visible;"/>
		</g>
	</g>
	<g>
		<defs>
			
				<rect id="SVGID_5_" x="52.2" y="143.3" transform="matrix(4.760915e-02 -0.9989 0.9989 4.760915e-02 -91.5967 208.2432)" width="22.5" height="17.8"/>
		</defs>
		<clipPath id="SVGID_6_">
			<use xlink:href="#SVGID_5_"  style="overflow:visible;"/>
		</clipPath>
		<g style="clip-path:url(#SVGID_6_);">
			
				<use xlink:href="#Símbolo_61"  width="33" height="41.6" x="-16.5" y="-20.8" transform="matrix(0.5392 2.570000e-02 2.570000e-02 -0.5392 63.4069 152.155)" style="overflow:visible;"/>
		</g>
	</g>
	<g>
		<defs>
			
				<rect id="SVGID_7_" x="22.7" y="157.6" transform="matrix(0.6422 -0.7665 0.7665 0.6422 -112.727 97.8585)" width="51.5" height="24.2"/>
		</defs>
		<clipPath id="SVGID_8_">
			<use xlink:href="#SVGID_7_"  style="overflow:visible;"/>
		</clipPath>
		<g transform="matrix(1 0 0 1 7.629395e-06 0)" style="clip-path:url(#SVGID_8_);">
			
				<use xlink:href="#Símbolo_59"  width="44.8" height="95.3" x="-22.4" y="-47.7" transform="matrix(0.4138 0.3467 0.3467 -0.4138 48.3959 169.6263)" style="overflow:visible;"/>
		</g>
	</g>
	<g>
		<defs>
			
				<rect id="SVGID_9_" x="39.4" y="184.2" transform="matrix(6.472120e-02 -0.9979 0.9979 6.472120e-02 -152.0663 225.8381)" width="10.1" height="19.7"/>
		</defs>
		<clipPath id="SVGID_10_">
			<use xlink:href="#SVGID_9_"  style="overflow:visible;"/>
		</clipPath>
		<g style="clip-path:url(#SVGID_10_);">
			
				<use xlink:href="#Símbolo_12"  width="31" height="15.9" x="-15.5" y="-8" transform="matrix(0.6337 4.110000e-02 4.110000e-02 -0.6337 44.4527 194.05)" style="overflow:visible;"/>
		</g>
	</g>
	<g>
		<defs>
			
				<rect id="SVGID_11_" x="42.7" y="144.8" transform="matrix(0.6422 -0.7665 0.7665 0.6422 -98.5441 96.3372)" width="22.5" height="17.8"/>
		</defs>
		<clipPath id="SVGID_12_">
			<use xlink:href="#SVGID_11_"  style="overflow:visible;"/>
		</clipPath>
		<g transform="matrix(1 0 0 1 3.814697e-06 0)" style="clip-path:url(#SVGID_12_);">
			
				<use xlink:href="#Símbolo_61"  width="33" height="41.6" x="-16.5" y="-20.8" transform="matrix(0.4138 0.3467 0.3467 -0.4138 53.9285 153.733)" style="overflow:visible;"/>
		</g>
	</g>
	<g>
		<path class="st1" d="M97.1,111.3c0.5,0.7,0.7,1.5,0.6,2.3c-0.1,0.9-0.5,1.6-1.2,2.1l-15.3,11.7c-0.6,0.5-1.4,0.7-2.1,0.6
			c-0.8,0-1.4-0.4-2-1l-13.6-14.4c-0.6-0.6-0.9-1.3-0.9-2.2c0-0.9,0.4-1.6,1-2.2c0.6-0.6,1.3-0.9,2.2-0.9c0.9,0,1.6,0.3,2.2,0.9
			l11.7,12.3l6.6-5l-0.1-2.8c0-0.7,0.2-1.3,0.7-1.8c0.5-0.5,1.1-0.8,1.8-0.8c0.7,0,1.3,0.2,1.8,0.7c0.3,0.3,0.6,0.7,0.7,1.1l1.7-1.3
			c0.7-0.5,1.5-0.7,2.4-0.6C95.9,110.2,96.6,110.6,97.1,111.3z"/>
	</g>
	<g>
		<g>
			<polygon class="st11" points="47.3,137.2 69.6,134.3 70.1,140.1 70.1,140.1 47.8,142.6 			"/>
			<path class="st16" d="M47.8,142.6l22.3-2.5l0.6,5.9l-22.2,2.8L47.8,142.6z M69.6,134.3l-22.3,2.9l-0.1-0.3
				c-0.8-10.6-0.8-19.4,0.1-26.5c0.3-3,1.7-5.4,4.1-7.3c2.4-1.9,5.2-2.7,8.2-2.3s5.6,1.7,7.5,4c1.9,2.3,2.7,5,2.4,7.9
				C69,118.6,69,125.8,69.6,134.3z"/>
		</g>
	</g>
	<g>
		<defs>
			
				<rect id="SVGID_13_" x="56.3" y="91.3" transform="matrix(0.9981 -6.094810e-02 6.094810e-02 0.9981 -5.8706 3.8037)" width="6.3" height="13.7"/>
		</defs>
		<clipPath id="SVGID_14_">
			<use xlink:href="#SVGID_13_"  style="overflow:visible;"/>
		</clipPath>
		<g transform="matrix(1 3.725290e-09 -3.725290e-09 1 0 0)" style="clip-path:url(#SVGID_14_);">
			
				<use xlink:href="#Símbolo_11"  width="11.7" height="25.5" x="-5.8" y="-12.7" transform="matrix(0.5388 -3.290000e-02 -3.290000e-02 -0.5388 59.405 98.1392)" style="overflow:visible;"/>
		</g>
	</g>
	<g>
		<path class="st1" d="M48,91.1l-1.2-4.6l20.9-5.7l1.2,4.6c0.7,2.7,0.4,5.2-0.9,7.5c-1.4,2.5-3.4,4.1-6.1,4.8l-1.6,0.5
			c-2.6,0.7-5.1,0.3-7.6-1.1C50.3,95.8,48.8,93.8,48,91.1z"/>
		<g>
			<path class="st1" d="M47.3,88.4L44.7,79c-0.6-2.4-0.3-4.7,0.9-6.8c1.2-2.2,3-3.6,5.4-4.2l1.4-0.4c2.4-0.6,4.7-0.3,6.9,0.9
				c2.1,1.3,3.5,3.1,4.1,5.4l2.5,9.4c0.7,2.4,0.4,4.7-0.8,6.8c-1.3,2.2-3.1,3.6-5.5,4.2l-1.4,0.4c-2.4,0.6-4.6,0.3-6.8-1
				C49.4,92.7,48,90.9,47.3,88.4z"/>
		</g>
	</g>
	<g>
		<path class="st6" d="M58.9,87.6c0.5-0.7,1.1-1.1,1.9-1.3l0.1,0c0.8-0.2,1.6-0.1,2.4,0.2c0.7,0.4,1.2,0.9,1.4,1.7l0.1,0.2
			c0,0.1,0,0.2-0.1,0.3c0,0.1-0.1,0.1-0.2,0.2c-0.1,0.1-0.3,0.1-0.4,0c-0.1-0.1-0.2-0.2-0.2-0.2l-0.1-0.2c-0.1-0.5-0.5-0.9-1-1.2
			c-0.5-0.2-1.1-0.3-1.6-0.2L61,87.1c-0.6,0.2-1,0.5-1.3,0.9c-0.3,0.5-0.4,1-0.3,1.5l0.1,0.2c0,0.1,0,0.2-0.1,0.3
			c0,0.1-0.1,0.2-0.2,0.2s-0.3,0-0.4,0c-0.1-0.1-0.2-0.2-0.2-0.2l-0.1-0.2C58.3,89.1,58.4,88.3,58.9,87.6z"/>
	</g>
	<g>
		<defs>
			
				<rect id="SVGID_15_" x="55.7" y="79.5" transform="matrix(0.9651 -0.2619 0.2619 0.9651 -19.2205 17.8058)" width="3" height="3"/>
		</defs>
		<clipPath id="SVGID_16_">
			<use xlink:href="#SVGID_15_"  style="overflow:visible;"/>
		</clipPath>
		<g transform="matrix(1 2.980232e-08 -2.980232e-08 1 -3.814697e-06 0)" style="clip-path:url(#SVGID_16_);">
			
				<use xlink:href="#Símbolo_64"  width="62.6" height="62.6" x="-31.3" y="-31.3" transform="matrix(-4.570000e-02 1.240000e-02 -1.240000e-02 -4.570000e-02 57.1992 81.0203)" style="overflow:visible;"/>
		</g>
	</g>
	<g>
		<defs>
			
				<rect id="SVGID_17_" x="54.8" y="77.2" transform="matrix(0.965 -0.2622 0.2622 0.965 -18.4453 17.5078)" width="3.2" height="1.3"/>
		</defs>
		<clipPath id="SVGID_18_">
			<use xlink:href="#SVGID_17_"  style="overflow:visible;"/>
		</clipPath>
		<g style="clip-path:url(#SVGID_18_);">
			
				<use xlink:href="#Símbolo_6"  width="3.4" height="1.5" x="-1.7" y="-0.7" transform="matrix(-0.8955 0.2433 -0.2433 -0.8955 56.3854 77.8751)" style="overflow:visible;"/>
		</g>
	</g>
	<g>
		<defs>
			
				<rect id="SVGID_19_" x="60.3" y="78.3" transform="matrix(0.9651 -0.2619 0.2619 0.9651 -18.7344 18.9538)" width="3" height="3"/>
		</defs>
		<clipPath id="SVGID_20_">
			<use xlink:href="#SVGID_19_"  style="overflow:visible;"/>
		</clipPath>
		<g transform="matrix(1 2.980232e-08 -2.980232e-08 1 0 0)" style="clip-path:url(#SVGID_20_);">
			
				<use xlink:href="#Símbolo_64"  width="62.6" height="62.6" x="-31.3" y="-31.3" transform="matrix(-4.570000e-02 1.240000e-02 -1.240000e-02 -4.570000e-02 61.7495 79.7703)" style="overflow:visible;"/>
		</g>
	</g>
	<g>
		<defs>
			
				<rect id="SVGID_21_" x="59.3" y="76" transform="matrix(0.965 -0.2622 0.2622 0.965 -17.9602 18.6439)" width="3.2" height="1.3"/>
		</defs>
		<clipPath id="SVGID_22_">
			<use xlink:href="#SVGID_21_"  style="overflow:visible;"/>
		</clipPath>
		<g style="clip-path:url(#SVGID_22_);">
			
				<use xlink:href="#Símbolo_6"  width="3.4" height="1.5" x="-1.7" y="-0.7" transform="matrix(-0.8955 0.2433 -0.2433 -0.8955 60.8854 76.6251)" style="overflow:visible;"/>
		</g>
	</g>
	<g>
		<defs>
			
				<rect id="SVGID_23_" x="59.8" y="80.5" transform="matrix(0.9648 -0.2629 0.2629 0.9648 -19.5121 20.0565)" width="10.7" height="4.9"/>
		</defs>
		<clipPath id="SVGID_24_">
			<use xlink:href="#SVGID_23_"  style="overflow:visible;"/>
		</clipPath>
		<g style="clip-path:url(#SVGID_24_);">
			
				<use xlink:href="#Símbolo_3"  width="101.2" height="222.4" x="-50.6" y="-111.2" transform="matrix(1.270000e-02 4.660000e-02 -4.660000e-02 1.270000e-02 65.1798 82.9294)" style="overflow:visible;"/>
		</g>
	</g>
	<g>
		<path class="st21" d="M52.5,67.6c2.4-0.6,4.7-0.3,6.9,0.9c1.5,0.9,2.6,2,3.4,3.4l-15.4,4.2l2.1,7.8l-3.2,0.9l-1.6-5.7
			c-0.6-2.4-0.3-4.7,0.9-6.9c1.2-2.2,3-3.6,5.4-4.2L52.5,67.6z"/>
	</g>
	<g>
		<path class="st1" d="M42.7,87.8c-0.3-1-0.1-2,0.4-2.8c0.5-0.9,1.2-1.5,2.2-1.8l5.4-1.5c1-0.3,1.9-0.2,2.9,0.3
			c0.9,0.5,1.5,1.2,1.8,2.2l0.1,0.6c0.3,1,0.1,1.9-0.4,2.8c-0.5,0.9-1.3,1.5-2.3,1.8L47.4,91c-1,0.3-1.9,0.2-2.8-0.3
			c-0.9-0.5-1.5-1.3-1.8-2.2L42.7,87.8z"/>
	</g>
	<g>
		<path class="st6" d="M71.3,123.5c-2.7,0.4-5.2-0.2-7.4-1.9c-2.2-1.6-3.5-3.8-3.9-6.4s0.2-5.2,1.8-7.4c1.6-2.2,3.8-3.5,6.5-3.9
			s5.1,0.2,7.4,1.8c2.2,1.6,3.6,3.8,3.9,6.5c0.4,2.7-0.2,5.2-1.9,7.3C76.2,121.8,74,123.1,71.3,123.5z"/>
	</g>
	<g>
		<path class="st1" d="M70.5,118.4c0.6,0.2,1.1,0.6,1.4,1.2c0.2,0.4,0.3,0.8,0.2,1.2l2.1-0.7c0.8-0.2,1.6-0.2,2.4,0.2
			c0.8,0.4,1.3,1,1.6,1.8c0.3,0.8,0.2,1.6-0.2,2.4c-0.4,0.7-1,1.2-1.8,1.5l-18.2,6c-0.8,0.3-1.5,0.2-2.2-0.1
			c-0.7-0.3-1.3-0.8-1.6-1.6l-8.1-18.1c-0.4-0.8-0.4-1.5-0.1-2.3c0.3-0.8,0.9-1.4,1.7-1.8c0.8-0.4,1.6-0.4,2.4-0.1
			c0.8,0.3,1.4,0.9,1.8,1.7l7,15.4l7.9-2.5l0.9-2.8c0.2-0.7,0.6-1.2,1.2-1.5C69.2,118.2,69.8,118.2,70.5,118.4z"/>
	</g>
	<g>
		<path class="st6" d="M90.3,99.5c2.2,1.6,3.6,3.8,3.9,6.5c0.4,2.7-0.2,5.2-1.9,7.3c-1.6,2.2-3.8,3.6-6.4,4
			c-2.7,0.4-5.2-0.2-7.4-1.9c-2.2-1.6-3.5-3.8-3.9-6.4s0.2-5.2,1.8-7.4c1.6-2.2,3.8-3.5,6.5-3.9C85.7,97.3,88.1,97.9,90.3,99.5z"/>
	</g>
	<g>
		<path class="st5" d="M88.3,107.9c-0.9,0.1-1.8-0.1-2.6-0.6c-0.8-0.5-1.2-1.3-1.4-2.2c-0.1-0.9,0.1-1.8,0.6-2.5
			c0.6-0.8,1.3-1.2,2.2-1.4c0.9-0.2,1.8,0,2.5,0.6c0.8,0.6,1.2,1.3,1.4,2.2c0.2,0.9,0,1.8-0.6,2.5C90,107.3,89.3,107.7,88.3,107.9z"
			/>
	</g>
	<g>
		<path class="st5" d="M73.7,114c-0.9,0.1-1.8-0.1-2.6-0.7c-0.8-0.5-1.2-1.3-1.4-2.2c-0.1-0.9,0.1-1.8,0.6-2.6
			c0.6-0.8,1.3-1.2,2.2-1.3c0.9-0.2,1.8,0,2.5,0.6c0.8,0.6,1.2,1.3,1.4,2.2c0.2,0.9,0,1.8-0.6,2.5C75.4,113.4,74.6,113.9,73.7,114z"
			/>
	</g>
</g>
</svg>
