<?xml version="1.0" encoding="utf-8"?>
<!-- Generator: Adobe Illustrator 24.2.3, SVG Export Plug-In . SVG Version: 6.00 Build 0)  -->
<svg version="1.1" id="Capa_1" xmlns="http://www.w3.org/2000/svg" xmlns:xlink="http://www.w3.org/1999/xlink" x="0px" y="0px"
	 viewBox="0 0 532.7 274.2" style="enable-background:new 0 0 532.7 274.2;" xml:space="preserve">
<style type="text/css">
	.st0{fill-rule:evenodd;clip-rule:evenodd;fill:#FE9E9E;}
	.st1{fill-rule:evenodd;clip-rule:evenodd;fill:#FFFFFF;}
	.st2{fill-rule:evenodd;clip-rule:evenodd;}
	.st3{fill:none;stroke:#FE9E9E;stroke-width:12;stroke-linecap:round;stroke-linejoin:round;stroke-miterlimit:3;}
	.st4{fill-rule:evenodd;clip-rule:evenodd;fill:#FF5E9D;}
	.st5{fill-rule:evenodd;clip-rule:evenodd;fill:#AF4670;}
	.st6{fill-rule:evenodd;clip-rule:evenodd;fill:#CBE0E0;}
	.st7{fill-rule:evenodd;clip-rule:evenodd;fill:#748F8F;}
	.st8{fill:none;stroke:#748F8F;stroke-width:2.5;stroke-linecap:round;stroke-miterlimit:3;}
	.st9{fill:none;stroke:#000000;stroke-linecap:round;stroke-linejoin:round;stroke-miterlimit:3;}
	.st10{fill:none;stroke:#F5F5F5;stroke-width:5;stroke-linecap:round;stroke-linejoin:round;stroke-miterlimit:3;}
	.st11{fill-rule:evenodd;clip-rule:evenodd;fill:#FFFF00;}
	.st12{fill:none;stroke:#FEFEFE;stroke-width:12;stroke-linecap:round;stroke-miterlimit:3;}
	.st13{fill:none;stroke:#000000;stroke-width:0.5;stroke-linecap:square;stroke-miterlimit:3;}
	.st14{fill:#FFFFFF;}
</style>
<symbol  id="Símbolo_10" viewBox="-45.7 -74 91.3 148">
	<path class="st0" d="M45.7,31.7v-63.3c0-11.7-4.2-21.7-12.5-30S14.9-74,3.3-74h-6.7c-11.6,0-21.6,4.1-30,12.3
		c-8.2,8.4-12.3,18.4-12.3,30v63.3c0,11.6,4.1,21.6,12.3,30c8.3,8.3,18.3,12.4,30,12.4h6.7c11.6,0,21.6-4.1,29.8-12.3
		C41.4,53.3,45.7,43.3,45.7,31.7z"/>
</symbol>
<symbol  id="Símbolo_21" viewBox="-29.1 -9 58.1 18">
	<g>
		<path class="st1" d="M28,3.9l-0.5,0.2c-1.4,0.6-3.7,0.9-6.9,1C14.9,5.3,8.1,4.5,0,2.8C-8,1.1-14.8-1-20.5-3.5
			c-3.1-1.4-5.4-2.7-6.8-3.9l-0.5-0.4c-0.8,0.4-1.2,1-1.2,1.7c0,1.8,2.8,4,8.5,6.5S-7.9,5,0.1,6.7c8,1.6,14.8,2.4,20.5,2.3
			s8.5-1.1,8.5-2.9C29.1,5.5,28.7,4.7,28,3.9z"/>
		<path class="st2" d="M-27.8-7.8l0.5,0.4c1.4,1.2,3.7,2.5,6.8,3.9C-14.8-1-7.9,1.1,0.1,2.8S15,5.2,20.6,5.1c3.2-0.1,5.5-0.4,6.9-1
			L28,3.9l-0.5-0.5c-1.4-1.1-3.7-2.4-6.9-3.8C14.9-2.9,8.1-5,0-6.6C-8-8.3-14.8-9.1-20.5-9c-3.1,0.1-5.4,0.4-6.8,0.9L-27.8-7.8z"/>
	</g>
</symbol>
<symbol  id="Símbolo_39" viewBox="-7.1 -7.1 14.2 14.2">
	<path class="st2" d="M-5.1-5c-1.4,1.4-2,3-2,5s0.7,3.7,2,5.1c1.4,1.4,3.1,2,5.1,2s3.6-0.7,5-2C6.4,3.7,7.1,2,7.1,0S6.4-3.6,5-5
		S2-7.1,0-7.1S-3.7-6.4-5.1-5z"/>
</symbol>
<symbol  id="Símbolo_4" viewBox="-34.5 -18.4 69 36.8">
	<polyline class="st3" points="-28.5,-9.4 8.9,-12.4 28.5,12.4 	"/>
</symbol>
<symbol  id="Símbolo_5" viewBox="-24.2 -25.3 48.4 50.6">
	<g>
		<g>
			<path class="st4" d="M4.3-15.3L-15.3,2.2L1.9,21.5c2.2,2.5,5,3.7,8.4,3.8c1.2,0,2.3-0.1,3.3-0.4c1.4-0.3,2.7-0.9,3.9-1.7l2-1.5
				l1-1.1c1-1,1.8-2.1,2.4-3.4c0.7-1.4,1.1-2.8,1.2-4.3v-0.2c0.3-3.3-0.6-6.2-2.8-8.6L4.3-15.3z M-18.5-1.5L1.1-18.9l-5.7-6.4
				L-24.2-7.8L-18.5-1.5z"/>
			
				<rect x="-9.5" y="-21.4" transform="matrix(0.6649 -0.7469 0.7469 0.6649 3.8722 -8.0626)" class="st5" width="4.9" height="26.2"/>
		</g>
	</g>
</symbol>
<symbol  id="Símbolo_60" viewBox="-15.5 -8 31 15.9">
	<g>
		<path class="st6" d="M15.1-4.4h-30.5c0.1,1.7,0.3,3.2,0.6,4.6c0.8,3,2.3,4.6,4.5,4.7H4.1c3.2,0,5.9-1.2,8.1-3.7
			C13.6-0.4,14.6-2.3,15.1-4.4z"/>
		<path class="st7" d="M15.1-4.4c0.3-1.1,0.4-2.2,0.4-3.4V-8h-31v0.2v3.4H15.1z"/>
	</g>
	<g>
		<path class="st8" d="M4.4,6.7l-3-5.1 M8.6,6.7L5.7,1.6"/>
	</g>
</symbol>
<symbol  id="Símbolo_63" viewBox="-5.8 -12.8 11.6 25.5">
	<path class="st0" d="M5.8,12.6V-7c0-1.6-0.6-3-1.7-4.2S1.6-12.8,0-12.8s-3,0.6-4.1,1.7c-1.2,1.2-1.7,2.6-1.7,4.2v19.6
		C-5.8,12.6,5.8,12.6,5.8,12.6z"/>
</symbol>
<symbol  id="Símbolo_65" viewBox="-1.7 -0.7 3.4 1.4">
	<path class="st9" d="M-1.2-0.2C-0.9,0.1-0.5,0.2,0,0.2c0.4,0,0.8-0.2,1.2-0.4"/>
</symbol>
<symbol  id="Símbolo_66" viewBox="-50.5 -111.2 101 222.4">
	<path class="st0" d="M-3.7,111.2h7.4c12.9,0,23.9-4.6,33-13.7c9.2-9.2,13.8-20.3,13.8-33.2V-64.3c0-12.9-4.6-23.9-13.8-33
		c-9.1-9.3-20.1-13.9-33-13.9h-7.4c-12.9,0-24,4.6-33.2,13.9c-9.1,9.1-13.6,20.1-13.6,33V64.3c0,12.9,4.5,24,13.7,33.2
		C-27.7,106.6-16.6,111.2-3.7,111.2z"/>
</symbol>
<symbol  id="Símbolo_67" viewBox="-31.1 -34.1 62.3 68.2">
	<path class="st10" d="M23.4,31.6v-63.2 M-22.6,31.6v-63.2"/>
	<g>
		<g>
			<path class="st2" d="M25,30.5L-8,6.7h-14.6l-3.2,0.2l33,23.8L25,30.5z M31.1,21.9v-9.2c0-4-2.8-6-8.5-6H10.1L31.1,21.9z
				 M-31.1,16.2v8.5c0,4,2.8,6,8.5,6h11.4L-31.1,16.2z"/>
			<path class="st11" d="M-11.1,30.7H7.2l-33-23.8c-3.6,0.7-5.4,2.6-5.4,5.8v3.5L-11.1,30.7z M10.1,6.7H-8l33,23.9
				c4.1-0.5,6.1-2.5,6.1-5.9v-2.8L10.1,6.7z"/>
		</g>
	</g>
</symbol>
<symbol  id="Símbolo_7" viewBox="-12.4 -31 24.8 62">
	<path class="st12" d="M-5.9,24.8L-6.4,25 M6.4-25v23.5c0,4.6-0.9,8.9-2.6,12.9"/>
</symbol>
<symbol  id="Símbolo_8" viewBox="-50.6 -74 101.2 148">
	<path class="st0" d="M3.7-74h-7.4c-12.9,0-24,4.6-33.2,13.9C-46-51-50.6-40-50.6-27.1v22.4H50.6v-22.4c0-12.9-4.6-23.9-13.8-33
		C27.6-69.4,16.6-74,3.7-74z"/>
	<g>
		<path class="st0" d="M38.1,61.7c8.3-8.3,12.5-18.3,12.5-30V-14c0-11.7-4.2-21.6-12.5-29.8c-8.2-8.4-18.2-12.5-29.8-12.5H1.6
			c-11.6,0-21.6,4.2-30,12.5c-8.2,8.2-12.4,18.1-12.4,29.8v45.7c0,11.6,4.1,21.6,12.4,30C-20,69.9-10,74,1.6,74h6.7
			C19.9,74,29.9,69.9,38.1,61.7z"/>
	</g>
</symbol>
<symbol  id="Símbolo_9" viewBox="-4.4 -3.7 8.7 7.4">
	<path class="st1" d="M-1,3.1C0,3.2,0.9,3,1.8,2.5l0.1-0.1c0.9-0.5,1.5-1.2,1.9-2L4-0.2c0.4-1.1,0.3-2.1-0.2-3.1L3.6-3.7l-8,4.6
		l0.2,0.4C-3.6,2.2-2.7,2.8-1.6,3L-1,3.1z"/>
	<g>
		<path class="st13" d="M-0.8,3.4l-2.3-4 M-0.7-1.9l2.8,4.8 M1.7-3.3l2.3,4"/>
	</g>
</symbol>
<path class="st14" d="M61.6,220.3v17c0,0.4-0.3,0.7-0.7,0.7s-0.7-0.3-0.7-0.7v-17l-5.2,5.2c-0.3,0.3-0.7,0.3-1,0
	c-0.3-0.3-0.3-0.7,0-1l6.4-6.3c0.3-0.3,0.7-0.3,1,0l6.3,6.3c0.3,0.3,0.3,0.7,0,1s-0.7,0.3-1,0L61.6,220.3L61.6,220.3z"/>
<g>
	<path class="st14" d="M24.2,250.1l-3.3,8.6h-0.8l-3.3-8.6h0.7l2.5,6.6l0.5,1.3l0.5-1.3l2.5-6.6H24.2z"/>
	<path class="st14" d="M25.9,250.9c-0.2,0-0.3,0-0.4-0.1c-0.1-0.1-0.2-0.2-0.2-0.4c0-0.2,0-0.3,0.2-0.4c0.1-0.1,0.2-0.1,0.4-0.1
		c0.2,0,0.3,0,0.4,0.1c0.1,0.1,0.1,0.2,0.1,0.4c0,0.2,0,0.3-0.1,0.4C26.2,250.9,26.1,250.9,25.9,250.9z M26.3,252.2v6.5h-0.6v-6.5
		H26.3z"/>
	<path class="st14" d="M33.1,252.2h0.7l-2.7,6.5h-0.6l-2.7-6.5h0.7l2.3,5.8L33.1,252.2z"/>
	<path class="st14" d="M37.7,258.8c-0.6,0-1.1-0.1-1.6-0.4c-0.5-0.3-0.8-0.7-1.1-1.2s-0.4-1.1-0.4-1.8s0.1-1.3,0.4-1.8
		s0.6-0.9,1.1-1.2s1-0.4,1.5-0.4c0.6,0,1.1,0.1,1.5,0.4s0.7,0.6,1,1.1c0.2,0.5,0.3,1,0.3,1.6c0,0.1,0,0.2,0,0.2c0,0.1,0,0.1,0,0.2
		H35V255h5.1l-0.3,0.1c0-0.7-0.2-1.3-0.6-1.8c-0.4-0.4-0.9-0.7-1.6-0.7c-0.5,0-0.9,0.1-1.2,0.3c-0.4,0.2-0.6,0.5-0.8,1
		c-0.2,0.4-0.3,0.9-0.3,1.5c0,0.6,0.1,1.1,0.3,1.5c0.2,0.4,0.5,0.7,0.9,1s0.8,0.3,1.3,0.3c0.5,0,0.9-0.1,1.3-0.3
		c0.4-0.2,0.6-0.5,0.8-0.9l0.5,0.3c-0.2,0.3-0.4,0.6-0.6,0.8s-0.6,0.4-0.9,0.5S38.1,258.8,37.7,258.8z"/>
	<path class="st14" d="M42.3,258.7v-6.5h0.6l0.1,1.6l-0.1-0.1c0.1-0.4,0.3-0.7,0.5-0.9c0.2-0.3,0.5-0.4,0.9-0.6
		c0.3-0.1,0.7-0.2,1.1-0.2c0.5,0,0.9,0.1,1.3,0.3c0.4,0.2,0.7,0.5,0.9,0.8c0.2,0.4,0.3,0.8,0.3,1.3v4.2h-0.6v-4
		c0-0.7-0.2-1.2-0.5-1.6c-0.4-0.3-0.8-0.5-1.4-0.5c-0.4,0-0.8,0.1-1.1,0.3c-0.4,0.2-0.6,0.5-0.9,0.8s-0.3,0.8-0.3,1.3v3.7H42.3z"/>
	<path class="st14" d="M55.6,249.3v7.3c0,0.3,0.1,0.5,0.2,0.6c0.1,0.1,0.3,0.2,0.5,0.2c0.1,0,0.3,0,0.4,0c0.1,0,0.2-0.1,0.4-0.1
		l-0.2,1.2c-0.1,0.1-0.3,0.2-0.6,0.2c-0.2,0-0.4,0.1-0.7,0.1c-0.6,0-1.1-0.2-1.4-0.5c-0.3-0.3-0.4-0.8-0.4-1.5v-7.5H55.6z"/>
	<path class="st14" d="M61.1,258.8c-0.7,0-1.3-0.1-1.8-0.4c-0.5-0.3-0.9-0.7-1.2-1.2c-0.3-0.5-0.4-1.1-0.4-1.8s0.1-1.3,0.4-1.8
		c0.3-0.5,0.7-0.9,1.2-1.2s1.1-0.4,1.7-0.4c0.7,0,1.2,0.1,1.7,0.4c0.5,0.3,0.8,0.6,1.1,1.1c0.2,0.5,0.4,1,0.4,1.6c0,0.2,0,0.3,0,0.5
		c0,0.2,0,0.3,0,0.4h-5.2v-1.2h4.4l-0.9,0.3c0-0.5-0.1-1-0.4-1.3s-0.6-0.4-1-0.4c-0.3,0-0.6,0.1-0.9,0.2s-0.4,0.4-0.5,0.7
		s-0.2,0.7-0.2,1.2c0,0.5,0.1,0.8,0.2,1.1c0.1,0.3,0.3,0.5,0.6,0.7s0.5,0.2,0.9,0.2c0.4,0,0.7-0.1,0.9-0.2c0.2-0.1,0.4-0.4,0.5-0.6
		l1.4,0.5c-0.1,0.3-0.3,0.6-0.6,0.9c-0.3,0.2-0.6,0.4-1,0.6C61.9,258.7,61.5,258.8,61.1,258.8z"/>
	<path class="st14" d="M67.3,252.2v7c0,0.6-0.1,1-0.3,1.4c-0.2,0.3-0.5,0.6-0.8,0.7s-0.7,0.2-1.2,0.2c-0.3,0-0.6,0-0.9-0.1
		c-0.3-0.1-0.5-0.2-0.7-0.3l0.3-1.3c0.1,0.1,0.2,0.2,0.4,0.2c0.2,0.1,0.3,0.1,0.5,0.1c0.3,0,0.5-0.1,0.7-0.2
		c0.2-0.2,0.2-0.4,0.2-0.9v-6.8H67.3z M66.4,251.2c-0.4,0-0.7-0.1-0.8-0.2c-0.2-0.2-0.3-0.4-0.3-0.7c0-0.3,0.1-0.6,0.3-0.7
		s0.5-0.2,0.8-0.2c0.4,0,0.7,0.1,0.8,0.2s0.3,0.4,0.3,0.7c0,0.3-0.1,0.5-0.3,0.7C67.1,251.2,66.8,251.2,66.4,251.2z"/>
	<path class="st14" d="M72.2,252c0.7,0,1.2,0.1,1.7,0.4c0.5,0.3,0.9,0.7,1.2,1.2c0.3,0.5,0.4,1.1,0.4,1.8c0,0.7-0.1,1.3-0.4,1.8
		c-0.3,0.5-0.7,0.9-1.2,1.2c-0.5,0.3-1.1,0.4-1.7,0.4c-0.7,0-1.2-0.1-1.7-0.4c-0.5-0.3-0.9-0.7-1.2-1.2c-0.3-0.5-0.4-1.1-0.4-1.8
		c0-0.7,0.1-1.3,0.4-1.8c0.3-0.5,0.7-0.9,1.2-1.2S71.5,252,72.2,252z M72.2,253.4c-0.3,0-0.6,0.1-0.8,0.2c-0.2,0.2-0.4,0.4-0.5,0.7
		c-0.1,0.3-0.2,0.7-0.2,1.1s0.1,0.8,0.2,1.1c0.1,0.3,0.3,0.5,0.5,0.7c0.2,0.2,0.5,0.2,0.8,0.2c0.3,0,0.6-0.1,0.8-0.2
		c0.2-0.2,0.4-0.4,0.5-0.7c0.1-0.3,0.2-0.7,0.2-1.1s-0.1-0.8-0.2-1.1c-0.1-0.3-0.3-0.5-0.5-0.7C72.8,253.5,72.5,253.4,72.2,253.4z"
		/>
	<path class="st14" d="M79.6,258.8c-0.7,0-1.3-0.1-1.8-0.4c-0.5-0.2-1-0.6-1.3-1l1-1c0.2,0.3,0.5,0.6,0.8,0.8
		c0.3,0.2,0.8,0.3,1.2,0.3c0.3,0,0.6,0,0.8-0.1c0.2-0.1,0.3-0.3,0.3-0.5c0-0.1,0-0.3-0.1-0.4c-0.1-0.1-0.3-0.2-0.6-0.2l-1.1-0.2
		c-0.8-0.2-1.3-0.4-1.6-0.7s-0.5-0.7-0.5-1.2c0-0.4,0.1-0.7,0.3-1c0.2-0.3,0.5-0.6,1-0.8c0.4-0.2,1-0.3,1.6-0.3
		c0.7,0,1.2,0.1,1.7,0.3c0.5,0.2,0.9,0.5,1.1,0.9l-1.1,1c-0.2-0.3-0.4-0.5-0.7-0.7s-0.6-0.2-1-0.2c-0.2,0-0.5,0-0.6,0.1
		c-0.2,0.1-0.3,0.1-0.4,0.2s-0.1,0.2-0.1,0.3s0.1,0.3,0.2,0.4c0.1,0.1,0.3,0.2,0.7,0.3l1.3,0.3c0.6,0.1,1.1,0.3,1.4,0.7
		s0.4,0.7,0.4,1.1c0,0.4-0.1,0.8-0.3,1.1c-0.2,0.3-0.5,0.6-1,0.8C80.7,258.7,80.2,258.8,79.6,258.8z"/>
	<path class="st14" d="M90.7,258.8c-0.6,0-1.1-0.1-1.5-0.4c-0.5-0.3-0.8-0.7-1.1-1.2s-0.4-1.1-0.4-1.8c0-0.7,0.1-1.3,0.4-1.8
		s0.6-0.9,1.1-1.2c0.5-0.3,1-0.4,1.5-0.4c0.6,0,1.1,0.2,1.5,0.5c0.4,0.3,0.7,0.8,0.9,1.3l-0.1,0.1v-4.7h0.7v9.5h-0.6l0-1.8l0.1,0
		c-0.1,0.4-0.2,0.8-0.5,1.1c-0.2,0.3-0.5,0.5-0.9,0.7C91.5,258.7,91.1,258.8,90.7,258.8z M90.8,258.2c0.5,0,0.9-0.1,1.2-0.3
		s0.6-0.6,0.8-1c0.2-0.4,0.3-0.9,0.3-1.5c0-0.6-0.1-1.1-0.3-1.5c-0.2-0.4-0.5-0.7-0.8-0.9s-0.7-0.3-1.2-0.3c-0.7,0-1.3,0.3-1.8,0.8
		c-0.4,0.5-0.7,1.2-0.7,2.1c0,0.9,0.2,1.6,0.6,2.1C89.5,258,90,258.2,90.8,258.2z"/>
	<path class="st14" d="M98.7,258.8c-0.6,0-1.1-0.1-1.6-0.4c-0.5-0.3-0.8-0.7-1.1-1.2s-0.4-1.1-0.4-1.8s0.1-1.3,0.4-1.8
		s0.6-0.9,1.1-1.2s1-0.4,1.5-0.4c0.6,0,1.1,0.1,1.5,0.4s0.7,0.6,1,1.1c0.2,0.5,0.3,1,0.3,1.6c0,0.1,0,0.2,0,0.2c0,0.1,0,0.1,0,0.2
		H96V255h5.1l-0.3,0.1c0-0.7-0.2-1.3-0.6-1.8c-0.4-0.4-0.9-0.7-1.6-0.7c-0.5,0-0.9,0.1-1.2,0.3c-0.4,0.2-0.6,0.5-0.8,1
		c-0.2,0.4-0.3,0.9-0.3,1.5c0,0.6,0.1,1.1,0.3,1.5c0.2,0.4,0.5,0.7,0.9,1s0.8,0.3,1.3,0.3c0.5,0,0.9-0.1,1.3-0.3
		c0.4-0.2,0.6-0.5,0.8-0.9l0.5,0.3c-0.2,0.3-0.4,0.6-0.6,0.8s-0.6,0.4-0.9,0.5S99.1,258.8,98.7,258.8z"/>
	<path class="st14" d="M103.9,249.2v8c0,0.4,0.1,0.7,0.2,0.8c0.1,0.2,0.4,0.2,0.7,0.2c0.2,0,0.3,0,0.4,0c0.1,0,0.2-0.1,0.4-0.1
		l-0.1,0.6c-0.1,0.1-0.2,0.1-0.4,0.1c-0.1,0-0.3,0-0.5,0c-0.5,0-0.8-0.1-1-0.4s-0.3-0.7-0.3-1.2v-8H103.9z"/>
	<path class="st14" d="M15.9,267.6c0.4,0,0.8,0.1,1.2,0.2s0.6,0.3,0.9,0.6c0.2,0.3,0.4,0.6,0.6,0.9l-0.6,0.3
		c-0.1-0.5-0.4-0.8-0.7-1.1c-0.3-0.3-0.8-0.4-1.3-0.4c-0.5,0-0.9,0.1-1.3,0.3s-0.6,0.5-0.8,1c-0.2,0.4-0.3,0.9-0.3,1.5
		c0,0.6,0.1,1.1,0.3,1.5s0.5,0.7,0.8,1s0.8,0.3,1.3,0.3c0.4,0,0.7-0.1,1-0.2c0.3-0.1,0.5-0.3,0.7-0.5c0.2-0.2,0.3-0.5,0.4-0.8
		l0.6,0.2c-0.1,0.4-0.3,0.7-0.6,1c-0.3,0.3-0.6,0.5-0.9,0.7s-0.8,0.2-1.2,0.2c-0.6,0-1.1-0.1-1.6-0.4c-0.5-0.3-0.8-0.7-1.1-1.2
		c-0.3-0.5-0.4-1.1-0.4-1.8s0.1-1.3,0.4-1.8s0.6-0.9,1.1-1.2C14.8,267.8,15.3,267.6,15.9,267.6z"/>
	<path class="st14" d="M23,274.4c-0.6,0-1.1-0.1-1.6-0.4c-0.5-0.3-0.8-0.7-1.1-1.2s-0.4-1.1-0.4-1.8s0.1-1.3,0.4-1.8
		s0.6-0.9,1.1-1.2s1-0.4,1.5-0.4c0.6,0,1.1,0.1,1.5,0.4s0.7,0.6,1,1.1c0.2,0.5,0.3,1,0.3,1.6c0,0.1,0,0.2,0,0.2c0,0.1,0,0.1,0,0.2
		h-5.4v-0.6h5.1l-0.3,0.1c0-0.7-0.2-1.3-0.6-1.8c-0.4-0.4-0.9-0.7-1.6-0.7c-0.5,0-0.9,0.1-1.2,0.3c-0.4,0.2-0.6,0.5-0.8,1
		c-0.2,0.4-0.3,0.9-0.3,1.5c0,0.6,0.1,1.1,0.3,1.5c0.2,0.4,0.5,0.7,0.9,1s0.8,0.3,1.3,0.3c0.5,0,0.9-0.1,1.3-0.3
		c0.4-0.2,0.6-0.5,0.8-0.9l0.5,0.3c-0.2,0.3-0.4,0.6-0.6,0.8s-0.6,0.4-0.9,0.5S23.4,274.4,23,274.4z"/>
	<path class="st14" d="M27.6,274.3v-6.5h0.6l0.1,1.6l-0.1-0.1c0.1-0.4,0.3-0.7,0.5-0.9c0.2-0.3,0.5-0.4,0.9-0.6
		c0.3-0.1,0.7-0.2,1.1-0.2c0.5,0,0.9,0.1,1.3,0.3c0.4,0.2,0.7,0.5,0.9,0.8c0.2,0.4,0.3,0.8,0.3,1.3v4.2h-0.6v-4
		c0-0.7-0.2-1.2-0.5-1.6c-0.4-0.3-0.8-0.5-1.4-0.5c-0.4,0-0.8,0.1-1.1,0.3c-0.4,0.2-0.6,0.5-0.9,0.8s-0.3,0.8-0.3,1.3v3.7H27.6z"/>
	<path class="st14" d="M38.7,267.8v0.6h-4.4v-0.6H38.7z M36.3,266v6.6c0,0.4,0.1,0.7,0.3,0.9c0.2,0.2,0.5,0.3,0.9,0.3
		c0.2,0,0.5,0,0.6-0.1c0.2-0.1,0.4-0.2,0.5-0.4l0.2,0.5c-0.2,0.2-0.4,0.3-0.6,0.4c-0.3,0.1-0.5,0.1-0.8,0.1c-0.3,0-0.6-0.1-0.9-0.2
		c-0.3-0.1-0.5-0.3-0.6-0.6c-0.1-0.3-0.2-0.6-0.2-1v-6.5L36.3,266z"/>
	<path class="st14" d="M40.1,274.3v-6.5h0.5l0.1,1.4c0.2-0.5,0.4-0.8,0.8-1.1s0.8-0.4,1.3-0.4c0.2,0,0.3,0,0.5,0.1
		c0.1,0,0.3,0.1,0.4,0.2l-0.2,0.6c-0.1-0.1-0.2-0.1-0.3-0.1c-0.1,0-0.3-0.1-0.5-0.1c-0.3,0-0.6,0.1-0.9,0.3
		c-0.3,0.2-0.5,0.5-0.7,0.8c-0.2,0.4-0.3,0.8-0.3,1.2v3.6H40.1z"/>
	<path class="st14" d="M47.4,267.6c0.6,0,1.1,0.1,1.6,0.4c0.5,0.3,0.8,0.7,1.1,1.2c0.3,0.5,0.4,1.1,0.4,1.8s-0.1,1.3-0.4,1.8
		c-0.3,0.5-0.6,0.9-1.1,1.2c-0.5,0.3-1,0.4-1.6,0.4c-0.6,0-1.1-0.1-1.6-0.4c-0.5-0.3-0.8-0.7-1.1-1.2s-0.4-1.1-0.4-1.8
		s0.1-1.3,0.4-1.8s0.6-0.9,1.1-1.2C46.2,267.8,46.8,267.6,47.4,267.6z M47.4,268.2c-0.5,0-0.9,0.1-1.3,0.3c-0.4,0.2-0.6,0.5-0.9,1
		c-0.2,0.4-0.3,0.9-0.3,1.5c0,0.6,0.1,1.1,0.3,1.5c0.2,0.4,0.5,0.8,0.9,1c0.4,0.2,0.8,0.3,1.3,0.3c0.5,0,0.9-0.1,1.3-0.3
		c0.4-0.2,0.6-0.6,0.9-1c0.2-0.4,0.3-0.9,0.3-1.5c0-0.6-0.1-1.1-0.3-1.5c-0.2-0.4-0.5-0.7-0.9-1C48.3,268.3,47.9,268.2,47.4,268.2z"
		/>
	<path class="st14" d="M58.6,274.4c-0.7,0-1.2-0.1-1.7-0.4c-0.5-0.3-0.9-0.7-1.1-1.2l0.6-0.4c0.2,0.4,0.4,0.8,0.8,1
		c0.4,0.2,0.9,0.4,1.5,0.4c0.6,0,1-0.1,1.3-0.3c0.3-0.2,0.5-0.5,0.5-0.9c0-0.3-0.1-0.5-0.2-0.7c-0.2-0.2-0.5-0.3-0.9-0.4l-1.5-0.3
		c-0.6-0.1-1.1-0.3-1.3-0.6c-0.3-0.3-0.4-0.6-0.4-1.1c0-0.3,0.1-0.7,0.3-0.9s0.5-0.5,0.9-0.7c0.4-0.2,0.8-0.3,1.3-0.3
		c0.6,0,1.2,0.1,1.6,0.4c0.4,0.3,0.7,0.6,0.9,1.2l-0.5,0.4c-0.1-0.5-0.4-0.8-0.7-1c-0.4-0.2-0.8-0.3-1.2-0.3c-0.4,0-0.7,0.1-1,0.2
		c-0.3,0.1-0.5,0.3-0.6,0.4c-0.2,0.2-0.2,0.4-0.2,0.6c0,0.3,0.1,0.5,0.3,0.7c0.2,0.2,0.5,0.4,0.9,0.4l1.6,0.3c0.6,0.1,1,0.3,1.3,0.6
		c0.2,0.3,0.4,0.6,0.4,1c0,0.4-0.1,0.7-0.3,1c-0.2,0.3-0.5,0.5-0.9,0.7C59.5,274.3,59.1,274.4,58.6,274.4z"/>
	<path class="st14" d="M66.9,270c0-0.6-0.2-1-0.5-1.3c-0.3-0.3-0.7-0.5-1.3-0.5c-0.5,0-0.9,0.1-1.3,0.3c-0.4,0.2-0.6,0.6-0.8,1.1
		l-0.5-0.3c0.2-0.5,0.5-0.9,1-1.2c0.4-0.3,1-0.4,1.7-0.4c0.5,0,0.9,0.1,1.3,0.3c0.4,0.2,0.6,0.4,0.8,0.7c0.2,0.3,0.3,0.7,0.3,1.2
		v3.2c0,0.5,0.2,0.7,0.6,0.7c0.2,0,0.3,0,0.5-0.1l0,0.5c-0.1,0.1-0.3,0.1-0.6,0.1c-0.2,0-0.4,0-0.6-0.1c-0.2-0.1-0.3-0.2-0.4-0.4
		s-0.2-0.4-0.2-0.7v-0.4l0.2,0c-0.1,0.4-0.2,0.7-0.5,0.9c-0.3,0.2-0.6,0.4-0.9,0.5c-0.3,0.1-0.7,0.2-1,0.2c-0.4,0-0.8-0.1-1.1-0.2
		c-0.3-0.1-0.6-0.3-0.8-0.6c-0.2-0.2-0.3-0.6-0.3-0.9c0-0.5,0.2-0.9,0.5-1.2c0.3-0.3,0.8-0.5,1.4-0.6l2.7-0.5v0.5l-2.4,0.5
		c-0.5,0.1-0.9,0.3-1.1,0.5c-0.3,0.2-0.4,0.5-0.4,0.8c0,0.4,0.1,0.6,0.4,0.9c0.3,0.2,0.6,0.3,1.1,0.3c0.3,0,0.5,0,0.8-0.1
		c0.3-0.1,0.5-0.2,0.7-0.3c0.2-0.2,0.4-0.3,0.5-0.6c0.1-0.2,0.2-0.5,0.2-0.8V270z"/>
	<path class="st14" d="M70,274.3v-6.5h0.6l0.1,1.6l-0.1-0.1c0.1-0.4,0.3-0.7,0.5-0.9c0.2-0.3,0.5-0.4,0.9-0.6
		c0.3-0.1,0.7-0.2,1.1-0.2c0.5,0,0.9,0.1,1.3,0.3c0.4,0.2,0.7,0.5,0.9,0.8c0.2,0.4,0.3,0.8,0.3,1.3v4.2h-0.6v-4
		c0-0.7-0.2-1.2-0.5-1.6c-0.4-0.3-0.8-0.5-1.4-0.5c-0.4,0-0.8,0.1-1.1,0.3c-0.4,0.2-0.6,0.5-0.9,0.8s-0.3,0.8-0.3,1.3v3.7H70z"/>
	<path class="st14" d="M78.1,266.5c-0.2,0-0.3,0-0.4-0.1c-0.1-0.1-0.2-0.2-0.2-0.4c0-0.2,0-0.3,0.2-0.4c0.1-0.1,0.2-0.1,0.4-0.1
		c0.2,0,0.3,0,0.4,0.1c0.1,0.1,0.1,0.2,0.1,0.4c0,0.2,0,0.3-0.1,0.4C78.4,266.5,78.3,266.5,78.1,266.5z M78.4,267.8v6.5h-0.6v-6.5
		H78.4z"/>
	<path class="st14" d="M84.3,267.8v0.6h-4.4v-0.6H84.3z M81.8,266v6.6c0,0.4,0.1,0.7,0.3,0.9c0.2,0.2,0.5,0.3,0.9,0.3
		c0.2,0,0.5,0,0.6-0.1c0.2-0.1,0.4-0.2,0.5-0.4l0.2,0.5c-0.2,0.2-0.4,0.3-0.6,0.4c-0.3,0.1-0.5,0.1-0.8,0.1c-0.3,0-0.6-0.1-0.9-0.2
		c-0.3-0.1-0.5-0.3-0.6-0.6c-0.1-0.3-0.2-0.6-0.2-1v-6.5L81.8,266z"/>
	<path class="st14" d="M89.6,270c0-0.6-0.2-1-0.5-1.3c-0.3-0.3-0.7-0.5-1.3-0.5c-0.5,0-0.9,0.1-1.3,0.3c-0.4,0.2-0.6,0.6-0.8,1.1
		l-0.5-0.3c0.2-0.5,0.5-0.9,1-1.2c0.4-0.3,1-0.4,1.7-0.4c0.5,0,0.9,0.1,1.3,0.3c0.4,0.2,0.6,0.4,0.8,0.7c0.2,0.3,0.3,0.7,0.3,1.2
		v3.2c0,0.5,0.2,0.7,0.6,0.7c0.2,0,0.3,0,0.5-0.1l0,0.5c-0.1,0.1-0.3,0.1-0.6,0.1c-0.2,0-0.4,0-0.6-0.1c-0.2-0.1-0.3-0.2-0.4-0.4
		s-0.2-0.4-0.2-0.7v-0.4l0.2,0c-0.1,0.4-0.2,0.7-0.5,0.9c-0.3,0.2-0.6,0.4-0.9,0.5c-0.3,0.1-0.7,0.2-1,0.2c-0.4,0-0.8-0.1-1.1-0.2
		c-0.3-0.1-0.6-0.3-0.8-0.6c-0.2-0.2-0.3-0.6-0.3-0.9c0-0.5,0.2-0.9,0.5-1.2c0.3-0.3,0.8-0.5,1.4-0.6l2.7-0.5v0.5l-2.4,0.5
		c-0.5,0.1-0.9,0.3-1.1,0.5c-0.3,0.2-0.4,0.5-0.4,0.8c0,0.4,0.1,0.6,0.4,0.9c0.3,0.2,0.6,0.3,1.1,0.3c0.3,0,0.5,0,0.8-0.1
		c0.3-0.1,0.5-0.2,0.7-0.3c0.2-0.2,0.4-0.3,0.5-0.6c0.1-0.2,0.2-0.5,0.2-0.8V270z"/>
	<path class="st14" d="M92.7,274.3v-6.5h0.5l0.1,1.4c0.2-0.5,0.4-0.8,0.8-1.1s0.8-0.4,1.3-0.4c0.2,0,0.3,0,0.5,0.1
		c0.1,0,0.3,0.1,0.4,0.2l-0.2,0.6c-0.1-0.1-0.2-0.1-0.3-0.1c-0.1,0-0.3-0.1-0.5-0.1c-0.3,0-0.6,0.1-0.9,0.3
		c-0.3,0.2-0.5,0.5-0.7,0.8c-0.2,0.4-0.3,0.8-0.3,1.2v3.6H92.7z"/>
	<path class="st14" d="M98,266.5c-0.2,0-0.3,0-0.4-0.1c-0.1-0.1-0.2-0.2-0.2-0.4c0-0.2,0-0.3,0.2-0.4c0.1-0.1,0.2-0.1,0.4-0.1
		c0.2,0,0.3,0,0.4,0.1c0.1,0.1,0.1,0.2,0.1,0.4c0,0.2,0,0.3-0.1,0.4C98.3,266.5,98.1,266.5,98,266.5z M98.3,267.8v6.5h-0.6v-6.5
		H98.3z"/>
	<path class="st14" d="M103.3,267.6c0.6,0,1.1,0.1,1.6,0.4c0.5,0.3,0.8,0.7,1.1,1.2c0.3,0.5,0.4,1.1,0.4,1.8s-0.1,1.3-0.4,1.8
		c-0.3,0.5-0.6,0.9-1.1,1.2c-0.5,0.3-1,0.4-1.6,0.4c-0.6,0-1.1-0.1-1.6-0.4c-0.5-0.3-0.8-0.7-1.1-1.2s-0.4-1.1-0.4-1.8
		s0.1-1.3,0.4-1.8s0.6-0.9,1.1-1.2C102.1,267.8,102.7,267.6,103.3,267.6z M103.3,268.2c-0.5,0-0.9,0.1-1.3,0.3
		c-0.4,0.2-0.6,0.5-0.9,1c-0.2,0.4-0.3,0.9-0.3,1.5c0,0.6,0.1,1.1,0.3,1.5c0.2,0.4,0.5,0.8,0.9,1c0.4,0.2,0.8,0.3,1.3,0.3
		c0.5,0,0.9-0.1,1.3-0.3c0.4-0.2,0.6-0.6,0.9-1c0.2-0.4,0.3-0.9,0.3-1.5c0-0.6-0.1-1.1-0.3-1.5c-0.2-0.4-0.5-0.7-0.9-1
		C104.2,268.3,103.8,268.2,103.3,268.2z"/>
	<path class="st14" d="M108.2,273.2c0.2,0,0.3,0.1,0.4,0.2s0.2,0.2,0.2,0.4c0,0.2-0.1,0.3-0.2,0.4s-0.2,0.2-0.4,0.2
		c-0.2,0-0.3-0.1-0.4-0.2s-0.2-0.2-0.2-0.4c0-0.2,0.1-0.3,0.2-0.4S108,273.2,108.2,273.2z"/>
</g>
</svg>
