<?xml version="1.0" encoding="utf-8"?>
<!-- Generator: Adobe Illustrator 24.2.3, SVG Export Plug-In . SVG Version: 6.00 Build 0)  -->
<svg version="1.1" id="Capa_1" xmlns="http://www.w3.org/2000/svg" xmlns:xlink="http://www.w3.org/1999/xlink" x="0px" y="0px"
	 viewBox="0 0 532.7 274.2" style="enable-background:new 0 0 532.7 274.2;" xml:space="preserve">
<style type="text/css">
	.st0{fill-rule:evenodd;clip-rule:evenodd;fill:#FE9E9E;}
	.st1{fill-rule:evenodd;clip-rule:evenodd;fill:#FFFFFF;}
	.st2{fill-rule:evenodd;clip-rule:evenodd;}
	.st3{fill:none;stroke:#FE9E9E;stroke-width:12;stroke-linecap:round;stroke-linejoin:round;stroke-miterlimit:3;}
	.st4{fill-rule:evenodd;clip-rule:evenodd;fill:#FF5E9D;}
	.st5{fill-rule:evenodd;clip-rule:evenodd;fill:#AF4670;}
	.st6{fill-rule:evenodd;clip-rule:evenodd;fill:#CBE0E0;}
	.st7{fill-rule:evenodd;clip-rule:evenodd;fill:#748F8F;}
	.st8{fill:none;stroke:#748F8F;stroke-width:2.5;stroke-linecap:round;stroke-miterlimit:3;}
	.st9{fill:none;stroke:#000000;stroke-linecap:round;stroke-linejoin:round;stroke-miterlimit:3;}
	.st10{fill:none;stroke:#F5F5F5;stroke-width:5;stroke-linecap:round;stroke-linejoin:round;stroke-miterlimit:3;}
	.st11{fill-rule:evenodd;clip-rule:evenodd;fill:#FFFF00;}
	.st12{fill:none;stroke:#FEFEFE;stroke-width:12;stroke-linecap:round;stroke-miterlimit:3;}
	.st13{fill:none;stroke:#000000;stroke-width:0.5;stroke-linecap:square;stroke-miterlimit:3;}
	.st14{fill:#FFFFFF;}
</style>
<symbol  id="Símbolo_10" viewBox="-45.7 -74 91.3 148">
	<path class="st0" d="M45.7,31.7v-63.3c0-11.7-4.2-21.7-12.5-30C24.9-69.9,15-74,3.4-74h-6.7c-11.6,0-21.6,4.1-30,12.3
		c-8.2,8.4-12.3,18.4-12.3,30v63.3c0,11.6,4.1,21.6,12.3,30C-25,69.9-15,74-3.3,74h6.7c11.6,0,21.6-4.1,29.8-12.3
		C41.5,53.3,45.7,43.3,45.7,31.7z"/>
</symbol>
<symbol  id="Símbolo_21" viewBox="-29 -9 58.1 18.1">
	<g>
		<path class="st1" d="M27.9,3.9l-0.5,0.2c-1.4,0.6-3.7,0.9-6.9,1C14.8,5.3,8,4.5-0.1,2.8c-8-1.7-14.8-3.8-20.5-6.3
			c-3.1-1.4-5.4-2.7-6.8-3.9l-0.5-0.4c-0.8,0.4-1.2,1-1.2,1.7c0,1.8,2.8,4,8.5,6.5C-14.9,2.9-8,5,0,6.7C8,8.3,14.8,9.1,20.5,9
			C26.2,8.9,29,7.9,29,6.1C29,5.5,28.6,4.7,27.9,3.9z"/>
		<path class="st2" d="M-27.9-7.8l0.5,0.4c1.4,1.2,3.7,2.5,6.8,3.9C-14.9-1-8,1.1,0,2.8c8,1.7,14.9,2.4,20.5,2.3
			c3.2-0.1,5.5-0.4,6.9-1l0.5-0.2l-0.5-0.5C26,2.3,23.7,1,20.5-0.4C14.8-2.9,8-5-0.1-6.6c-8-1.7-14.8-2.5-20.5-2.4
			c-3.1,0.1-5.4,0.4-6.8,0.9L-27.9-7.8z"/>
	</g>
</symbol>
<symbol  id="Símbolo_39" viewBox="-7.1 -7.1 14.2 14.2">
	<path class="st2" d="M-5.1-5c-1.4,1.4-2,3-2,5s0.7,3.7,2,5.1c1.4,1.4,3.1,2,5.1,2s3.6-0.7,5-2C6.4,3.7,7.1,2,7.1,0S6.4-3.6,5-5
		C3.6-6.4,2-7.1,0-7.1S-3.7-6.4-5.1-5z"/>
</symbol>
<symbol  id="Símbolo_4" viewBox="-34.5 -18.5 68.9 36.9">
	<polyline class="st3" points="-28.5,-9.4 8.9,-12.4 28.5,12.4 	"/>
</symbol>
<symbol  id="Símbolo_5" viewBox="-24.3 -25.3 48.5 50.6">
	<g>
		<g>
			<path class="st4" d="M4.2-15.3L-15.4,2.2L1.8,21.5c2.2,2.5,5,3.7,8.4,3.8c1.2,0,2.3-0.1,3.3-0.4c1.4-0.3,2.7-0.9,3.9-1.7l2-1.5
				l1-1.1c1-1,1.8-2.1,2.4-3.4c0.7-1.4,1.1-2.8,1.2-4.3v-0.2c0.3-3.3-0.6-6.2-2.8-8.6L4.2-15.3z M-18.6-1.5L1-18.9l-5.7-6.4
				L-24.3-7.8L-18.6-1.5z"/>
			
				<rect x="-20.3" y="-10.8" transform="matrix(0.7469 -0.6649 0.6649 0.7469 3.7577 -6.8976)" class="st5" width="26.2" height="4.9"/>
		</g>
	</g>
</symbol>
<symbol  id="Símbolo_60" viewBox="-15.5 -8 31 15.9">
	<g>
		<path class="st6" d="M15.1-4.4h-30.5c0.1,1.7,0.3,3.2,0.6,4.6c0.8,3,2.3,4.6,4.5,4.7H4.1c3.2,0,5.9-1.2,8.1-3.7
			C13.6-0.4,14.6-2.3,15.1-4.4z"/>
		<path class="st7" d="M15.1-4.4c0.3-1.1,0.4-2.2,0.4-3.4V-8h-31v0.2v3.4H15.1z"/>
	</g>
	<g>
		<path class="st8" d="M4.4,6.7l-3-5.1 M8.6,6.7L5.7,1.6"/>
	</g>
</symbol>
<symbol  id="Símbolo_63" viewBox="-5.8 -12.7 11.7 25.5">
	<path class="st0" d="M5.8,12.7V-6.9c0-1.6-0.6-3-1.7-4.2S1.6-12.7,0-12.7c-1.6,0-3,0.6-4.1,1.7c-1.2,1.2-1.7,2.6-1.7,4.2v19.6
		C-5.8,12.7,5.8,12.7,5.8,12.7z"/>
</symbol>
<symbol  id="Símbolo_65" viewBox="-1.7 -0.7 3.4 1.5">
	<path class="st9" d="M-1.2-0.2C-0.9,0.1-0.5,0.2,0,0.2c0.4,0,0.8-0.2,1.2-0.4"/>
</symbol>
<symbol  id="Símbolo_66" viewBox="-50.6 -111.2 101.2 222.4">
	<path class="st0" d="M-3.7,111.2h7.4c12.9,0,23.9-4.6,33-13.7c9.2-9.2,13.8-20.3,13.8-33.2V-64.3c0-12.9-4.6-23.9-13.8-33
		c-9.1-9.3-20.1-13.9-33-13.9h-7.4c-12.9,0-24,4.6-33.2,13.9c-9.1,9.1-13.6,20.1-13.6,33V64.3c0,12.9,4.5,24,13.7,33.2
		C-27.7,106.6-16.6,111.2-3.7,111.2z"/>
</symbol>
<symbol  id="Símbolo_67" viewBox="-31.1 -34.1 62.2 68.2">
	<path class="st10" d="M23.4,31.6v-63.2 M-22.6,31.6v-63.2"/>
	<g>
		<g>
			<path class="st2" d="M25,30.5L-8,6.7h-14.6l-3.2,0.2L7.2,30.7L25,30.5z M31.1,21.9v-9.2c0-4-2.8-6-8.5-6H10.1L31.1,21.9z
				 M-31.1,16.2v8.5c0,4,2.8,6,8.5,6h11.4L-31.1,16.2z"/>
			<path class="st11" d="M-11.1,30.7H7.2L-25.8,6.9c-3.6,0.7-5.4,2.6-5.4,5.8v3.5L-11.1,30.7z M10.1,6.7H-8l33,23.9
				c4.1-0.5,6.1-2.5,6.1-5.9v-2.8L10.1,6.7z"/>
		</g>
	</g>
</symbol>
<symbol  id="Símbolo_7" viewBox="-12.4 -31 24.8 62">
	<path class="st12" d="M-5.9,24.8L-6.4,25 M6.4-25v23.5c0,4.6-0.9,8.9-2.6,12.9"/>
</symbol>
<symbol  id="Símbolo_8" viewBox="-50.6 -74 101.2 148">
	<path class="st0" d="M3.7-74h-7.4c-12.9,0-24,4.6-33.2,13.9C-46-51-50.6-40-50.6-27.1v22.4H50.6v-22.4c0-12.9-4.6-23.9-13.8-33
		C27.6-69.4,16.6-74,3.7-74z"/>
	<g>
		<path class="st0" d="M38.1,61.7c8.3-8.3,12.5-18.3,12.5-30V-14c0-11.7-4.2-21.6-12.5-29.8c-8.2-8.4-18.2-12.5-29.8-12.5H1.6
			c-11.6,0-21.6,4.2-30,12.5c-8.2,8.2-12.4,18.1-12.4,29.8v45.7c0,11.6,4.1,21.6,12.4,30C-20,69.9-10,74,1.6,74h6.7
			C19.9,74,29.9,69.9,38.1,61.7z"/>
	</g>
</symbol>
<symbol  id="Símbolo_9" viewBox="-4.4 -3.7 8.7 7.5">
	<path class="st1" d="M-1,3.1c1,0.1,1.9-0.1,2.8-0.6l0.1-0.1c0.9-0.5,1.5-1.2,1.9-2l0.2-0.6c0.4-1.1,0.3-2.1-0.2-3.1L3.6-3.7l-8,4.6
		l0.2,0.4C-3.6,2.2-2.7,2.8-1.6,3L-1,3.1z"/>
	<g>
		<path class="st13" d="M-0.8,3.4l-2.3-4 M-0.7-1.9l2.8,4.8 M1.7-3.3l2.3,4"/>
	</g>
</symbol>
<g>
	<path class="st14" d="M322.6,63.7l0-17c0-0.4,0.3-0.7,0.7-0.7s0.7,0.3,0.7,0.7l0,17l5.2-5.2c0.3-0.3,0.7-0.3,1,0
		c0.3,0.3,0.3,0.7,0,1l-6.3,6.3c-0.3,0.3-0.7,0.3-1,0l-6.3-6.3c-0.3-0.3-0.3-0.7,0-1c0.3-0.3,0.7-0.3,1,0L322.6,63.7L322.6,63.7z"/>
	<g>
		<path class="st14" d="M237.8,12.2h-4.6v2.2h3.7v1.5h-3.7v3.5h-1.8v-8.6h6.4V12.2z"/>
		<path class="st14" d="M242.2,15.2c0-0.4-0.1-0.7-0.3-0.9c-0.2-0.2-0.5-0.3-0.8-0.3c-0.3,0-0.6,0.1-0.8,0.2
			c-0.2,0.2-0.4,0.4-0.5,0.8l-1.5-0.5c0.1-0.6,0.5-1,1-1.4c0.5-0.3,1.2-0.5,2-0.5c0.6,0,1.1,0.1,1.5,0.3s0.8,0.4,1,0.8
			c0.2,0.4,0.4,0.8,0.4,1.3v2.6c0,0.3,0.2,0.5,0.5,0.5c0.1,0,0.3,0,0.4-0.1l-0.1,1.1c-0.2,0.1-0.5,0.2-0.8,0.2
			c-0.3,0-0.6-0.1-0.8-0.2c-0.2-0.1-0.4-0.3-0.6-0.5c-0.1-0.2-0.2-0.5-0.2-0.8V18l0.3-0.1c-0.1,0.3-0.2,0.6-0.4,0.8
			s-0.5,0.4-0.9,0.5s-0.7,0.2-1,0.2c-0.4,0-0.8-0.1-1.1-0.2c-0.3-0.1-0.6-0.3-0.7-0.6c-0.2-0.3-0.3-0.6-0.3-1c0-0.5,0.2-0.9,0.5-1.2
			c0.3-0.3,0.8-0.5,1.3-0.6l2.4-0.5l0,1.1l-1.6,0.3c-0.3,0.1-0.5,0.1-0.7,0.2s-0.2,0.3-0.2,0.5c0,0.2,0.1,0.4,0.2,0.5
			s0.4,0.2,0.6,0.2c0.2,0,0.4,0,0.5-0.1c0.2,0,0.3-0.1,0.5-0.2c0.1-0.1,0.2-0.2,0.3-0.4c0.1-0.2,0.1-0.4,0.1-0.6V15.2z"/>
		<path class="st14" d="M247.7,10v7.3c0,0.3,0.1,0.5,0.2,0.6c0.1,0.1,0.3,0.2,0.5,0.2c0.1,0,0.3,0,0.4,0c0.1,0,0.2-0.1,0.4-0.1
			l-0.2,1.2c-0.1,0.1-0.3,0.2-0.6,0.2c-0.2,0-0.4,0.1-0.7,0.1c-0.6,0-1.1-0.2-1.4-0.5c-0.3-0.3-0.4-0.8-0.4-1.5V10H247.7z"/>
		<path class="st14" d="M254.2,12.8v1.3h-5.1v-1.3H254.2z M252.2,10.8v6.4c0,0.3,0.1,0.5,0.2,0.7s0.4,0.2,0.7,0.2
			c0.2,0,0.4,0,0.6-0.1c0.2-0.1,0.3-0.2,0.4-0.3l0.3,1.2c-0.2,0.2-0.5,0.3-0.8,0.4c-0.3,0.1-0.6,0.1-1,0.1c-0.4,0-0.8-0.1-1.2-0.2
			c-0.3-0.1-0.6-0.3-0.8-0.6c-0.2-0.3-0.3-0.7-0.3-1.1v-6.2L252.2,10.8z"/>
		<path class="st14" d="M259.2,15.2c0-0.4-0.1-0.7-0.3-0.9c-0.2-0.2-0.5-0.3-0.8-0.3c-0.3,0-0.6,0.1-0.8,0.2
			c-0.2,0.2-0.4,0.4-0.5,0.8l-1.5-0.5c0.1-0.6,0.5-1,1-1.4c0.5-0.3,1.2-0.5,2-0.5c0.6,0,1.1,0.1,1.5,0.3s0.8,0.4,1,0.8
			c0.2,0.4,0.4,0.8,0.4,1.3v2.6c0,0.3,0.2,0.5,0.5,0.5c0.1,0,0.3,0,0.4-0.1l-0.1,1.1c-0.2,0.1-0.5,0.2-0.8,0.2
			c-0.3,0-0.6-0.1-0.8-0.2c-0.2-0.1-0.4-0.3-0.6-0.5c-0.1-0.2-0.2-0.5-0.2-0.8V18l0.3-0.1c-0.1,0.3-0.2,0.6-0.4,0.8
			s-0.5,0.4-0.9,0.5s-0.7,0.2-1,0.2c-0.4,0-0.8-0.1-1.1-0.2c-0.3-0.1-0.6-0.3-0.7-0.6c-0.2-0.3-0.3-0.6-0.3-1c0-0.5,0.2-0.9,0.5-1.2
			c0.3-0.3,0.8-0.5,1.3-0.6l2.4-0.5l0,1.1l-1.6,0.3c-0.3,0.1-0.5,0.1-0.7,0.2s-0.2,0.3-0.2,0.5c0,0.2,0.1,0.4,0.2,0.5
			s0.4,0.2,0.6,0.2c0.2,0,0.4,0,0.5-0.1c0.2,0,0.3-0.1,0.5-0.2c0.1-0.1,0.2-0.2,0.3-0.4c0.1-0.2,0.1-0.4,0.1-0.6V15.2z"/>
		<path class="st14" d="M263,19.3v-6.5h1.6l0.1,2l-0.2-0.2c0.1-0.4,0.3-0.8,0.5-1c0.2-0.3,0.5-0.5,0.8-0.6s0.7-0.2,1.1-0.2
			c0.5,0,0.9,0.1,1.2,0.3c0.4,0.2,0.6,0.4,0.8,0.8c0.2,0.4,0.3,0.8,0.3,1.3v4.3h-1.8v-3.8c0-0.6-0.1-0.9-0.3-1.2
			c-0.2-0.2-0.5-0.3-0.8-0.3c-0.2,0-0.5,0.1-0.7,0.2s-0.4,0.3-0.6,0.6c-0.1,0.3-0.2,0.6-0.2,1v3.4H263z"/>
		<path class="st14" d="M277.5,19.5c-0.5,0-1-0.1-1.4-0.4c-0.4-0.3-0.7-0.7-1-1.2c-0.2-0.5-0.4-1.1-0.4-1.8c0-0.7,0.1-1.3,0.4-1.8
			c0.3-0.5,0.6-0.9,1-1.2c0.4-0.3,0.9-0.4,1.4-0.4c0.6,0,1,0.2,1.4,0.5c0.4,0.3,0.6,0.8,0.7,1.3l-0.2,0.2V10h1.8v9.3h-1.6l-0.1-2
			l0.2,0.1c-0.1,0.4-0.2,0.8-0.4,1.1s-0.5,0.5-0.8,0.7C278.2,19.4,277.9,19.5,277.5,19.5z M278,18.1c0.3,0,0.6-0.1,0.8-0.2
			s0.4-0.4,0.5-0.7c0.1-0.3,0.2-0.7,0.2-1.1c0-0.4-0.1-0.8-0.2-1.1s-0.3-0.5-0.5-0.7c-0.2-0.2-0.5-0.2-0.8-0.2
			c-0.5,0-0.9,0.2-1.1,0.5c-0.3,0.3-0.4,0.8-0.4,1.5c0,0.7,0.1,1.2,0.4,1.5C277.1,17.9,277.5,18.1,278,18.1z"/>
		<path class="st14" d="M286.2,19.5c-0.7,0-1.3-0.1-1.8-0.4c-0.5-0.3-0.9-0.7-1.2-1.2c-0.3-0.5-0.4-1.1-0.4-1.8s0.1-1.3,0.4-1.8
			c0.3-0.5,0.7-0.9,1.2-1.2s1.1-0.4,1.7-0.4c0.7,0,1.2,0.1,1.7,0.4c0.5,0.3,0.8,0.6,1.1,1.1c0.2,0.5,0.4,1,0.4,1.6
			c0,0.2,0,0.3,0,0.5c0,0.2,0,0.3,0,0.4h-5.2v-1.2h4.4l-0.9,0.3c0-0.5-0.1-1-0.4-1.3s-0.6-0.4-1-0.4c-0.3,0-0.6,0.1-0.9,0.2
			s-0.4,0.4-0.5,0.7s-0.2,0.7-0.2,1.2c0,0.5,0.1,0.8,0.2,1.1c0.1,0.3,0.3,0.5,0.6,0.7s0.5,0.2,0.9,0.2c0.4,0,0.7-0.1,0.9-0.2
			c0.2-0.1,0.4-0.4,0.5-0.6l1.4,0.5c-0.1,0.3-0.3,0.6-0.6,0.9c-0.3,0.2-0.6,0.4-1,0.6C287,19.4,286.6,19.5,286.2,19.5z"/>
		<path class="st14" d="M298.4,15.2c0-0.4-0.1-0.7-0.3-0.9c-0.2-0.2-0.5-0.3-0.8-0.3c-0.3,0-0.6,0.1-0.8,0.2
			c-0.2,0.2-0.4,0.4-0.5,0.8l-1.5-0.5c0.1-0.6,0.5-1,1-1.4c0.5-0.3,1.2-0.5,2-0.5c0.6,0,1.1,0.1,1.5,0.3s0.8,0.4,1,0.8
			c0.2,0.4,0.4,0.8,0.4,1.3v2.6c0,0.3,0.2,0.5,0.5,0.5c0.1,0,0.3,0,0.4-0.1l-0.1,1.1c-0.2,0.1-0.5,0.2-0.8,0.2
			c-0.3,0-0.6-0.1-0.8-0.2c-0.2-0.1-0.4-0.3-0.6-0.5c-0.1-0.2-0.2-0.5-0.2-0.8V18l0.3-0.1c-0.1,0.3-0.2,0.6-0.4,0.8
			s-0.5,0.4-0.9,0.5s-0.7,0.2-1,0.2c-0.4,0-0.8-0.1-1.1-0.2c-0.3-0.1-0.6-0.3-0.7-0.6c-0.2-0.3-0.3-0.6-0.3-1c0-0.5,0.2-0.9,0.5-1.2
			c0.3-0.3,0.8-0.5,1.3-0.6l2.4-0.5l0,1.1l-1.6,0.3c-0.3,0.1-0.5,0.1-0.7,0.2s-0.2,0.3-0.2,0.5c0,0.2,0.1,0.4,0.2,0.5
			s0.4,0.2,0.6,0.2c0.2,0,0.4,0,0.5-0.1c0.2,0,0.3-0.1,0.5-0.2c0.1-0.1,0.2-0.2,0.3-0.4c0.1-0.2,0.1-0.4,0.1-0.6V15.2z"/>
		<path class="st14" d="M303.9,10v7.3c0,0.3,0.1,0.5,0.2,0.6c0.1,0.1,0.3,0.2,0.5,0.2c0.1,0,0.3,0,0.4,0c0.1,0,0.2-0.1,0.4-0.1
			l-0.2,1.2c-0.1,0.1-0.3,0.2-0.6,0.2c-0.2,0-0.4,0.1-0.7,0.1c-0.6,0-1.1-0.2-1.4-0.5c-0.3-0.3-0.4-0.8-0.4-1.5V10H303.9z"/>
		<path class="st14" d="M307.2,11.9c-0.4,0-0.7-0.1-0.8-0.2c-0.2-0.2-0.3-0.4-0.3-0.7c0-0.3,0.1-0.6,0.3-0.7s0.5-0.2,0.8-0.2
			c0.4,0,0.7,0.1,0.8,0.2s0.3,0.4,0.3,0.7c0,0.3-0.1,0.5-0.3,0.7C307.8,11.8,307.5,11.9,307.2,11.9z M308,12.8v6.5h-1.8v-6.5H308z"
			/>
		<path class="st14" d="M309.9,19.3v-6.5h1.6l0.1,1.2c0.2-0.4,0.5-0.8,0.9-1s0.8-0.3,1.3-0.3c0.5,0,0.9,0.1,1.3,0.3s0.7,0.5,0.9,1
			c0.1-0.3,0.3-0.5,0.6-0.7c0.2-0.2,0.5-0.3,0.8-0.4c0.3-0.1,0.6-0.1,0.9-0.1c0.4,0,0.8,0.1,1.2,0.3c0.4,0.2,0.6,0.4,0.8,0.8
			s0.3,0.8,0.3,1.3v4.3h-1.8v-3.9c0-0.5-0.1-0.8-0.3-1s-0.5-0.3-0.8-0.3c-0.3,0-0.5,0.1-0.7,0.2s-0.4,0.3-0.5,0.6
			c-0.1,0.3-0.2,0.6-0.2,1v3.5h-1.8v-3.9c0-0.5-0.1-0.8-0.3-1c-0.2-0.2-0.5-0.3-0.8-0.3c-0.2,0-0.4,0.1-0.7,0.2s-0.4,0.3-0.5,0.6
			c-0.1,0.3-0.2,0.6-0.2,1v3.4H309.9z"/>
		<path class="st14" d="M325.2,19.5c-0.7,0-1.3-0.1-1.8-0.4c-0.5-0.3-0.9-0.7-1.2-1.2c-0.3-0.5-0.4-1.1-0.4-1.8s0.1-1.3,0.4-1.8
			c0.3-0.5,0.7-0.9,1.2-1.2s1.1-0.4,1.7-0.4c0.7,0,1.2,0.1,1.7,0.4c0.5,0.3,0.8,0.6,1.1,1.1c0.2,0.5,0.4,1,0.4,1.6
			c0,0.2,0,0.3,0,0.5c0,0.2,0,0.3,0,0.4H323v-1.2h4.4l-0.9,0.3c0-0.5-0.1-1-0.4-1.3s-0.6-0.4-1-0.4c-0.3,0-0.6,0.1-0.9,0.2
			s-0.4,0.4-0.5,0.7s-0.2,0.7-0.2,1.2c0,0.5,0.1,0.8,0.2,1.1c0.1,0.3,0.3,0.5,0.6,0.7s0.5,0.2,0.9,0.2c0.4,0,0.7-0.1,0.9-0.2
			c0.2-0.1,0.4-0.4,0.5-0.6l1.4,0.5c-0.1,0.3-0.3,0.6-0.6,0.9c-0.3,0.2-0.6,0.4-1,0.6C326.1,19.4,325.7,19.5,325.2,19.5z"/>
		<path class="st14" d="M329.7,19.3v-6.5h1.6l0.1,2l-0.2-0.2c0.1-0.4,0.3-0.8,0.5-1c0.2-0.3,0.5-0.5,0.8-0.6s0.7-0.2,1.1-0.2
			c0.5,0,0.9,0.1,1.2,0.3c0.4,0.2,0.6,0.4,0.8,0.8c0.2,0.4,0.3,0.8,0.3,1.3v4.3h-1.8v-3.8c0-0.6-0.1-0.9-0.3-1.2
			c-0.2-0.2-0.5-0.3-0.8-0.3c-0.2,0-0.5,0.1-0.7,0.2s-0.4,0.3-0.6,0.6c-0.1,0.3-0.2,0.6-0.2,1v3.4H329.7z"/>
		<path class="st14" d="M342.1,12.8v1.3h-5.1v-1.3H342.1z M340,10.8v6.4c0,0.3,0.1,0.5,0.2,0.7s0.4,0.2,0.7,0.2c0.2,0,0.4,0,0.6-0.1
			c0.2-0.1,0.3-0.2,0.4-0.3l0.3,1.2c-0.2,0.2-0.5,0.3-0.8,0.4c-0.3,0.1-0.6,0.1-1,0.1c-0.4,0-0.8-0.1-1.2-0.2
			c-0.3-0.1-0.6-0.3-0.8-0.6c-0.2-0.3-0.3-0.7-0.3-1.1v-6.2L340,10.8z"/>
		<path class="st14" d="M346.3,12.7c0.7,0,1.2,0.1,1.7,0.4c0.5,0.3,0.9,0.7,1.2,1.2c0.3,0.5,0.4,1.1,0.4,1.8c0,0.7-0.1,1.3-0.4,1.8
			c-0.3,0.5-0.7,0.9-1.2,1.2c-0.5,0.3-1.1,0.4-1.7,0.4c-0.7,0-1.2-0.1-1.7-0.4c-0.5-0.3-0.9-0.7-1.2-1.2c-0.3-0.5-0.4-1.1-0.4-1.8
			c0-0.7,0.1-1.3,0.4-1.8c0.3-0.5,0.7-0.9,1.2-1.2S345.6,12.7,346.3,12.7z M346.3,14c-0.3,0-0.6,0.1-0.8,0.2
			c-0.2,0.2-0.4,0.4-0.5,0.7c-0.1,0.3-0.2,0.7-0.2,1.1s0.1,0.8,0.2,1.1c0.1,0.3,0.3,0.5,0.5,0.7c0.2,0.2,0.5,0.2,0.8,0.2
			c0.3,0,0.6-0.1,0.8-0.2c0.2-0.2,0.4-0.4,0.5-0.7c0.1-0.3,0.2-0.7,0.2-1.1s-0.1-0.8-0.2-1.1c-0.1-0.3-0.3-0.5-0.5-0.7
			C346.9,14.1,346.6,14,346.3,14z"/>
		<path class="st14" d="M353.7,19.5c-0.7,0-1.3-0.1-1.8-0.4c-0.5-0.2-1-0.6-1.3-1l1-1c0.2,0.3,0.5,0.6,0.8,0.8
			c0.3,0.2,0.8,0.3,1.2,0.3c0.3,0,0.6,0,0.8-0.1c0.2-0.1,0.3-0.3,0.3-0.5c0-0.1,0-0.3-0.1-0.4c-0.1-0.1-0.3-0.2-0.6-0.2l-1.1-0.2
			c-0.8-0.2-1.3-0.4-1.6-0.7s-0.5-0.7-0.5-1.2c0-0.4,0.1-0.7,0.3-1c0.2-0.3,0.5-0.6,1-0.8c0.4-0.2,1-0.3,1.6-0.3
			c0.7,0,1.2,0.1,1.7,0.3c0.5,0.2,0.9,0.5,1.1,0.9l-1.1,1c-0.2-0.3-0.4-0.5-0.7-0.7s-0.6-0.2-1-0.2c-0.2,0-0.5,0-0.6,0.1
			c-0.2,0.1-0.3,0.1-0.4,0.2s-0.1,0.2-0.1,0.3s0.1,0.3,0.2,0.4c0.1,0.1,0.3,0.2,0.7,0.3l1.3,0.3c0.6,0.1,1.1,0.3,1.4,0.7
			s0.4,0.7,0.4,1.1c0,0.4-0.1,0.8-0.3,1.1c-0.2,0.3-0.5,0.6-1,0.8C354.9,19.4,354.3,19.5,353.7,19.5z"/>
		<path class="st14" d="M364.8,19.5c-0.6,0-1.1-0.1-1.5-0.4c-0.5-0.3-0.8-0.7-1.1-1.2s-0.4-1.1-0.4-1.8c0-0.7,0.1-1.3,0.4-1.8
			s0.6-0.9,1.1-1.2c0.5-0.3,1-0.4,1.5-0.4c0.6,0,1.1,0.2,1.5,0.5c0.4,0.3,0.7,0.8,0.9,1.3l-0.1,0.1V9.8h0.7v9.5h-0.6l0-1.8l0.1,0
			c-0.1,0.4-0.2,0.8-0.5,1.1c-0.2,0.3-0.5,0.5-0.9,0.7C365.6,19.4,365.3,19.5,364.8,19.5z M364.9,18.9c0.5,0,0.9-0.1,1.2-0.3
			s0.6-0.6,0.8-1c0.2-0.4,0.3-0.9,0.3-1.5c0-0.6-0.1-1.1-0.3-1.5c-0.2-0.4-0.5-0.7-0.8-0.9s-0.7-0.3-1.2-0.3c-0.7,0-1.3,0.3-1.8,0.8
			c-0.4,0.5-0.7,1.2-0.7,2.1c0,0.9,0.2,1.6,0.6,2.1C363.6,18.6,364.2,18.9,364.9,18.9z"/>
		<path class="st14" d="M372.9,19.5c-0.6,0-1.1-0.1-1.6-0.4c-0.5-0.3-0.8-0.7-1.1-1.2s-0.4-1.1-0.4-1.8s0.1-1.3,0.4-1.8
			s0.6-0.9,1.1-1.2s1-0.4,1.5-0.4c0.6,0,1.1,0.1,1.5,0.4s0.7,0.6,1,1.1c0.2,0.5,0.3,1,0.3,1.6c0,0.1,0,0.2,0,0.2c0,0.1,0,0.1,0,0.2
			h-5.4v-0.6h5.1l-0.3,0.1c0-0.7-0.2-1.3-0.6-1.8c-0.4-0.4-0.9-0.7-1.6-0.7c-0.5,0-0.9,0.1-1.2,0.3c-0.4,0.2-0.6,0.5-0.8,1
			c-0.2,0.4-0.3,0.9-0.3,1.5c0,0.6,0.1,1.1,0.3,1.5c0.2,0.4,0.5,0.7,0.9,1s0.8,0.3,1.3,0.3c0.5,0,0.9-0.1,1.3-0.3
			c0.4-0.2,0.6-0.5,0.8-0.9l0.5,0.3c-0.2,0.3-0.4,0.6-0.6,0.8s-0.6,0.4-0.9,0.5S373.3,19.5,372.9,19.5z"/>
		<path class="st14" d="M379.6,19.5c-0.7,0-1.2-0.1-1.7-0.4c-0.5-0.3-0.9-0.7-1.1-1.2l0.6-0.4c0.2,0.4,0.4,0.8,0.8,1
			c0.4,0.2,0.9,0.4,1.5,0.4c0.6,0,1-0.1,1.3-0.3c0.3-0.2,0.5-0.5,0.5-0.9c0-0.3-0.1-0.5-0.2-0.7c-0.2-0.2-0.5-0.3-0.9-0.4l-1.5-0.3
			c-0.6-0.1-1.1-0.3-1.3-0.6c-0.3-0.3-0.4-0.6-0.4-1.1c0-0.3,0.1-0.7,0.3-0.9s0.5-0.5,0.9-0.7c0.4-0.2,0.8-0.3,1.3-0.3
			c0.6,0,1.2,0.1,1.6,0.4c0.4,0.3,0.7,0.6,0.9,1.2l-0.5,0.4c-0.1-0.5-0.4-0.8-0.7-1c-0.4-0.2-0.8-0.3-1.2-0.3c-0.4,0-0.7,0.1-1,0.2
			c-0.3,0.1-0.5,0.3-0.6,0.4c-0.2,0.2-0.2,0.4-0.2,0.6c0,0.3,0.1,0.5,0.3,0.7c0.2,0.2,0.5,0.4,0.9,0.4l1.6,0.3
			c0.6,0.1,1,0.3,1.3,0.6c0.2,0.3,0.4,0.6,0.4,1c0,0.4-0.1,0.7-0.3,1c-0.2,0.3-0.5,0.5-0.9,0.7C380.6,19.4,380.2,19.5,379.6,19.5z"
			/>
		<path class="st14" d="M384,22.1v-9.2h0.6l0.1,1.8l-0.1-0.1c0.1-0.4,0.3-0.7,0.5-1c0.2-0.3,0.5-0.5,0.9-0.6
			c0.3-0.1,0.7-0.2,1.1-0.2c0.6,0,1.1,0.1,1.5,0.4c0.4,0.3,0.8,0.7,1.1,1.2c0.3,0.5,0.4,1.1,0.4,1.8c0,0.7-0.1,1.3-0.4,1.8
			s-0.6,0.9-1.1,1.2c-0.4,0.3-1,0.4-1.5,0.4c-0.6,0-1.1-0.2-1.6-0.5c-0.4-0.3-0.8-0.7-0.9-1.3l0.1-0.1v4.5H384z M387,18.9
			c0.7,0,1.3-0.3,1.7-0.8c0.4-0.5,0.6-1.2,0.6-2.1c0-0.9-0.2-1.6-0.6-2.1s-1-0.8-1.7-0.8c-0.5,0-0.9,0.1-1.2,0.3
			c-0.4,0.2-0.6,0.6-0.8,1c-0.2,0.4-0.3,0.9-0.3,1.5c0,0.6,0.1,1.1,0.3,1.5c0.2,0.4,0.5,0.8,0.8,1C386.1,18.8,386.5,18.9,387,18.9z"
			/>
		<path class="st14" d="M394.2,19.5c-0.5,0-0.9-0.1-1.2-0.2c-0.4-0.2-0.6-0.4-0.8-0.8c-0.2-0.4-0.3-0.8-0.3-1.3v-4.3h0.7V17
			c0,0.7,0.2,1.2,0.5,1.5c0.3,0.3,0.8,0.5,1.4,0.5c0.3,0,0.7-0.1,0.9-0.2c0.3-0.1,0.5-0.3,0.7-0.5s0.4-0.5,0.5-0.7
			c0.1-0.3,0.2-0.6,0.2-0.9v-3.7h0.7v6.5h-0.6l0-1.3c-0.2,0.5-0.5,0.8-0.9,1.1C395.3,19.3,394.8,19.5,394.2,19.5z"/>
		<path class="st14" d="M402.2,19.5c-0.6,0-1.1-0.1-1.6-0.4c-0.5-0.3-0.8-0.7-1.1-1.2s-0.4-1.1-0.4-1.8s0.1-1.3,0.4-1.8
			s0.6-0.9,1.1-1.2s1-0.4,1.5-0.4c0.6,0,1.1,0.1,1.5,0.4s0.7,0.6,1,1.1c0.2,0.5,0.3,1,0.3,1.6c0,0.1,0,0.2,0,0.2c0,0.1,0,0.1,0,0.2
			h-5.4v-0.6h5.1l-0.3,0.1c0-0.7-0.2-1.3-0.6-1.8c-0.4-0.4-0.9-0.7-1.6-0.7c-0.5,0-0.9,0.1-1.2,0.3c-0.4,0.2-0.6,0.5-0.8,1
			c-0.2,0.4-0.3,0.9-0.3,1.5c0,0.6,0.1,1.1,0.3,1.5c0.2,0.4,0.5,0.7,0.9,1s0.8,0.3,1.3,0.3c0.5,0,0.9-0.1,1.3-0.3
			c0.4-0.2,0.6-0.5,0.8-0.9l0.5,0.3c-0.2,0.3-0.4,0.6-0.6,0.8s-0.6,0.4-0.9,0.5S402.7,19.5,402.2,19.5z M402.8,9.7h0.7l-1.2,2.1
			h-0.5L402.8,9.7z"/>
		<path class="st14" d="M409,19.5c-0.7,0-1.2-0.1-1.7-0.4c-0.5-0.3-0.9-0.7-1.1-1.2l0.6-0.4c0.2,0.4,0.4,0.8,0.8,1
			c0.4,0.2,0.9,0.4,1.5,0.4c0.6,0,1-0.1,1.3-0.3c0.3-0.2,0.5-0.5,0.5-0.9c0-0.3-0.1-0.5-0.2-0.7c-0.2-0.2-0.5-0.3-0.9-0.4l-1.5-0.3
			c-0.6-0.1-1.1-0.3-1.3-0.6c-0.3-0.3-0.4-0.6-0.4-1.1c0-0.3,0.1-0.7,0.3-0.9s0.5-0.5,0.9-0.7c0.4-0.2,0.8-0.3,1.3-0.3
			c0.6,0,1.2,0.1,1.6,0.4c0.4,0.3,0.7,0.6,0.9,1.2l-0.5,0.4c-0.1-0.5-0.4-0.8-0.7-1c-0.4-0.2-0.8-0.3-1.2-0.3c-0.4,0-0.7,0.1-1,0.2
			c-0.3,0.1-0.5,0.3-0.6,0.4c-0.2,0.2-0.2,0.4-0.2,0.6c0,0.3,0.1,0.5,0.3,0.7c0.2,0.2,0.5,0.4,0.9,0.4l1.6,0.3
			c0.6,0.1,1,0.3,1.3,0.6c0.2,0.3,0.4,0.6,0.4,1c0,0.4-0.1,0.7-0.3,1c-0.2,0.3-0.5,0.5-0.9,0.7C410,19.4,409.5,19.5,409,19.5z"/>
		<path class="st14" d="M251.7,35.1c-0.6,0-1.1-0.1-1.5-0.4c-0.5-0.3-0.8-0.7-1.1-1.2s-0.4-1.1-0.4-1.8c0-0.7,0.1-1.3,0.4-1.8
			s0.6-0.9,1.1-1.2c0.5-0.3,1-0.4,1.5-0.4c0.6,0,1.1,0.2,1.5,0.5c0.4,0.3,0.7,0.8,0.9,1.3l-0.1,0.1v-4.7h0.7v9.5h-0.6l0-1.8l0.1,0
			c-0.1,0.4-0.2,0.8-0.5,1.1c-0.2,0.3-0.5,0.5-0.9,0.7C252.5,35,252.2,35.1,251.7,35.1z M251.8,34.5c0.5,0,0.9-0.1,1.2-0.3
			s0.6-0.6,0.8-1c0.2-0.4,0.3-0.9,0.3-1.5c0-0.6-0.1-1.1-0.3-1.5c-0.2-0.4-0.5-0.7-0.8-0.9s-0.7-0.3-1.2-0.3c-0.7,0-1.3,0.3-1.8,0.8
			c-0.4,0.5-0.7,1.2-0.7,2.1c0,0.9,0.2,1.6,0.6,2.1C250.5,34.2,251.1,34.5,251.8,34.5z"/>
		<path class="st14" d="M259.8,35.1c-0.6,0-1.1-0.1-1.6-0.4c-0.5-0.3-0.8-0.7-1.1-1.2s-0.4-1.1-0.4-1.8s0.1-1.3,0.4-1.8
			s0.6-0.9,1.1-1.2s1-0.4,1.5-0.4c0.6,0,1.1,0.1,1.5,0.4s0.7,0.6,1,1.1c0.2,0.5,0.3,1,0.3,1.6c0,0.1,0,0.2,0,0.2c0,0.1,0,0.1,0,0.2
			h-5.4v-0.6h5.1l-0.3,0.1c0-0.7-0.2-1.3-0.6-1.8c-0.4-0.4-0.9-0.7-1.6-0.7c-0.5,0-0.9,0.1-1.2,0.3c-0.4,0.2-0.6,0.5-0.8,1
			c-0.2,0.4-0.3,0.9-0.3,1.5c0,0.6,0.1,1.1,0.3,1.5c0.2,0.4,0.5,0.7,0.9,1s0.8,0.3,1.3,0.3c0.5,0,0.9-0.1,1.3-0.3
			c0.4-0.2,0.6-0.5,0.8-0.9l0.5,0.3c-0.2,0.3-0.4,0.6-0.6,0.8s-0.6,0.4-0.9,0.5S260.2,35.1,259.8,35.1z"/>
		<path class="st14" d="M270.7,35.1c-0.5,0-0.9-0.1-1.2-0.2c-0.4-0.2-0.6-0.4-0.8-0.8c-0.2-0.4-0.3-0.8-0.3-1.3v-4.3h0.7v4.1
			c0,0.7,0.2,1.2,0.5,1.5c0.3,0.3,0.8,0.5,1.4,0.5c0.3,0,0.7-0.1,0.9-0.2c0.3-0.1,0.5-0.3,0.7-0.5s0.4-0.5,0.5-0.7
			c0.1-0.3,0.2-0.6,0.2-0.9v-3.7h0.7v6.5h-0.6l0-1.3c-0.2,0.5-0.5,0.8-0.9,1.1C271.8,34.9,271.3,35.1,270.7,35.1z"/>
		<path class="st14" d="M276.1,34.9v-6.5h0.6l0.1,1.6l-0.1-0.1c0.1-0.4,0.3-0.7,0.5-0.9c0.2-0.3,0.5-0.4,0.9-0.6
			c0.3-0.1,0.7-0.2,1.1-0.2c0.5,0,0.9,0.1,1.3,0.3c0.4,0.2,0.7,0.5,0.9,0.8c0.2,0.4,0.3,0.8,0.3,1.3v4.2H281v-4
			c0-0.7-0.2-1.2-0.5-1.6c-0.4-0.3-0.8-0.5-1.4-0.5c-0.4,0-0.8,0.1-1.1,0.3c-0.4,0.2-0.6,0.5-0.9,0.8s-0.3,0.8-0.3,1.3v3.7H276.1z"
			/>
		<path class="st14" d="M288,37.7v-9.2h0.6l0.1,1.8l-0.1-0.1c0.1-0.4,0.3-0.7,0.5-1c0.2-0.3,0.5-0.5,0.9-0.6
			c0.3-0.1,0.7-0.2,1.1-0.2c0.6,0,1.1,0.1,1.5,0.4c0.4,0.3,0.8,0.7,1.1,1.2c0.3,0.5,0.4,1.1,0.4,1.8c0,0.7-0.1,1.3-0.4,1.8
			s-0.6,0.9-1.1,1.2c-0.4,0.3-1,0.4-1.5,0.4c-0.6,0-1.1-0.2-1.6-0.5c-0.4-0.3-0.8-0.7-0.9-1.3l0.1-0.1v4.5H288z M290.9,34.5
			c0.7,0,1.3-0.3,1.7-0.8c0.4-0.5,0.6-1.2,0.6-2.1c0-0.9-0.2-1.6-0.6-2.1s-1-0.8-1.7-0.8c-0.5,0-0.9,0.1-1.2,0.3
			c-0.4,0.2-0.6,0.6-0.8,1c-0.2,0.4-0.3,0.9-0.3,1.5c0,0.6,0.1,1.1,0.3,1.5c0.2,0.4,0.5,0.8,0.8,1C290.1,34.4,290.5,34.5,290.9,34.5
			z"/>
		<path class="st14" d="M298.5,35.1c-0.6,0-1.1-0.1-1.6-0.4c-0.5-0.3-0.8-0.7-1.1-1.2s-0.4-1.1-0.4-1.8s0.1-1.3,0.4-1.8
			s0.6-0.9,1.1-1.2s1-0.4,1.5-0.4c0.6,0,1.1,0.1,1.5,0.4s0.7,0.6,1,1.1c0.2,0.5,0.3,1,0.3,1.6c0,0.1,0,0.2,0,0.2c0,0.1,0,0.1,0,0.2
			h-5.4v-0.6h5.1l-0.3,0.1c0-0.7-0.2-1.3-0.6-1.8c-0.4-0.4-0.9-0.7-1.6-0.7c-0.5,0-0.9,0.1-1.2,0.3c-0.4,0.2-0.6,0.5-0.8,1
			c-0.2,0.4-0.3,0.9-0.3,1.5c0,0.6,0.1,1.1,0.3,1.5c0.2,0.4,0.5,0.7,0.9,1s0.8,0.3,1.3,0.3c0.5,0,0.9-0.1,1.3-0.3
			c0.4-0.2,0.6-0.5,0.8-0.9l0.5,0.3c-0.2,0.3-0.4,0.6-0.6,0.8s-0.6,0.4-0.9,0.5S298.9,35.1,298.5,35.1z"/>
		<path class="st14" d="M303.1,34.9v-6.5h0.5l0.1,1.4c0.2-0.5,0.4-0.8,0.8-1.1s0.8-0.4,1.3-0.4c0.2,0,0.3,0,0.5,0.1
			c0.1,0,0.3,0.1,0.4,0.2l-0.2,0.6c-0.1-0.1-0.2-0.1-0.3-0.1c-0.1,0-0.3-0.1-0.5-0.1c-0.3,0-0.6,0.1-0.9,0.3
			c-0.3,0.2-0.5,0.5-0.7,0.8c-0.2,0.4-0.3,0.8-0.3,1.2v3.6H303.1z"/>
		<path class="st14" d="M308.3,27.2c-0.2,0-0.3,0-0.4-0.1c-0.1-0.1-0.2-0.2-0.2-0.4c0-0.2,0-0.3,0.2-0.4c0.1-0.1,0.2-0.1,0.4-0.1
			c0.2,0,0.3,0,0.4,0.1c0.1,0.1,0.1,0.2,0.1,0.4c0,0.2,0,0.3-0.1,0.4C308.6,27.1,308.5,27.2,308.3,27.2z M308.6,28.4v6.5H308v-6.5
			H308.6z"/>
		<path class="st14" d="M313.6,28.3c0.6,0,1.1,0.1,1.6,0.4c0.5,0.3,0.8,0.7,1.1,1.2c0.3,0.5,0.4,1.1,0.4,1.8s-0.1,1.3-0.4,1.8
			c-0.3,0.5-0.6,0.9-1.1,1.2c-0.5,0.3-1,0.4-1.6,0.4c-0.6,0-1.1-0.1-1.6-0.4c-0.5-0.3-0.8-0.7-1.1-1.2s-0.4-1.1-0.4-1.8
			s0.1-1.3,0.4-1.8s0.6-0.9,1.1-1.2C312.5,28.4,313,28.3,313.6,28.3z M313.6,28.9c-0.5,0-0.9,0.1-1.3,0.3c-0.4,0.2-0.6,0.5-0.9,1
			c-0.2,0.4-0.3,0.9-0.3,1.5c0,0.6,0.1,1.1,0.3,1.5c0.2,0.4,0.5,0.8,0.9,1c0.4,0.2,0.8,0.3,1.3,0.3c0.5,0,0.9-0.1,1.3-0.3
			c0.4-0.2,0.6-0.6,0.9-1c0.2-0.4,0.3-0.9,0.3-1.5c0-0.6-0.1-1.1-0.3-1.5c-0.2-0.4-0.5-0.7-0.9-1C314.5,29,314.1,28.9,313.6,28.9z"
			/>
		<path class="st14" d="M321.1,35.1c-0.6,0-1.1-0.1-1.5-0.4c-0.5-0.3-0.8-0.7-1.1-1.2s-0.4-1.1-0.4-1.8c0-0.7,0.1-1.3,0.4-1.8
			s0.6-0.9,1.1-1.2c0.5-0.3,1-0.4,1.5-0.4c0.6,0,1.1,0.2,1.5,0.5c0.4,0.3,0.7,0.8,0.9,1.3l-0.1,0.1v-4.7h0.7v9.5h-0.6l0-1.8l0.1,0
			c-0.1,0.4-0.2,0.8-0.5,1.1c-0.2,0.3-0.5,0.5-0.9,0.7C321.9,35,321.5,35.1,321.1,35.1z M321.2,34.5c0.5,0,0.9-0.1,1.2-0.3
			s0.6-0.6,0.8-1c0.2-0.4,0.3-0.9,0.3-1.5c0-0.6-0.1-1.1-0.3-1.5c-0.2-0.4-0.5-0.7-0.8-0.9s-0.7-0.3-1.2-0.3c-0.7,0-1.3,0.3-1.8,0.8
			c-0.4,0.5-0.7,1.2-0.7,2.1c0,0.9,0.2,1.6,0.6,2.1C319.9,34.2,320.5,34.5,321.2,34.5z"/>
		<path class="st14" d="M329.1,28.3c0.6,0,1.1,0.1,1.6,0.4c0.5,0.3,0.8,0.7,1.1,1.2c0.3,0.5,0.4,1.1,0.4,1.8s-0.1,1.3-0.4,1.8
			c-0.3,0.5-0.6,0.9-1.1,1.2c-0.5,0.3-1,0.4-1.6,0.4c-0.6,0-1.1-0.1-1.6-0.4c-0.5-0.3-0.8-0.7-1.1-1.2s-0.4-1.1-0.4-1.8
			s0.1-1.3,0.4-1.8s0.6-0.9,1.1-1.2C328,28.4,328.5,28.3,329.1,28.3z M329.1,28.9c-0.5,0-0.9,0.1-1.3,0.3c-0.4,0.2-0.6,0.5-0.9,1
			c-0.2,0.4-0.3,0.9-0.3,1.5c0,0.6,0.1,1.1,0.3,1.5c0.2,0.4,0.5,0.8,0.9,1c0.4,0.2,0.8,0.3,1.3,0.3c0.5,0,0.9-0.1,1.3-0.3
			c0.4-0.2,0.6-0.6,0.9-1c0.2-0.4,0.3-0.9,0.3-1.5c0-0.6-0.1-1.1-0.3-1.5c-0.2-0.4-0.5-0.7-0.9-1C330,29,329.6,28.9,329.1,28.9z"/>
		<path class="st14" d="M340.7,35.1c-0.6,0-1.1-0.1-1.5-0.4c-0.5-0.3-0.8-0.7-1.1-1.2s-0.4-1.1-0.4-1.8c0-0.7,0.1-1.3,0.4-1.8
			s0.6-0.9,1.1-1.2c0.5-0.3,1-0.4,1.5-0.4c0.6,0,1.1,0.2,1.5,0.5c0.4,0.3,0.7,0.8,0.9,1.3l-0.1,0.1v-4.7h0.7v9.5h-0.6l0-1.8l0.1,0
			c-0.1,0.4-0.2,0.8-0.5,1.1c-0.2,0.3-0.5,0.5-0.9,0.7C341.5,35,341.1,35.1,340.7,35.1z M340.8,34.5c0.5,0,0.9-0.1,1.2-0.3
			s0.6-0.6,0.8-1c0.2-0.4,0.3-0.9,0.3-1.5c0-0.6-0.1-1.1-0.3-1.5c-0.2-0.4-0.5-0.7-0.8-0.9s-0.7-0.3-1.2-0.3c-0.7,0-1.3,0.3-1.8,0.8
			c-0.4,0.5-0.7,1.2-0.7,2.1c0,0.9,0.2,1.6,0.6,2.1C339.4,34.2,340,34.5,340.8,34.5z"/>
		<path class="st14" d="M348.7,35.1c-0.6,0-1.1-0.1-1.6-0.4c-0.5-0.3-0.8-0.7-1.1-1.2s-0.4-1.1-0.4-1.8s0.1-1.3,0.4-1.8
			s0.6-0.9,1.1-1.2s1-0.4,1.5-0.4c0.6,0,1.1,0.1,1.5,0.4s0.7,0.6,1,1.1c0.2,0.5,0.3,1,0.3,1.6c0,0.1,0,0.2,0,0.2c0,0.1,0,0.1,0,0.2
			H346v-0.6h5.1l-0.3,0.1c0-0.7-0.2-1.3-0.6-1.8c-0.4-0.4-0.9-0.7-1.6-0.7c-0.5,0-0.9,0.1-1.2,0.3c-0.4,0.2-0.6,0.5-0.8,1
			c-0.2,0.4-0.3,0.9-0.3,1.5c0,0.6,0.1,1.1,0.3,1.5c0.2,0.4,0.5,0.7,0.9,1s0.8,0.3,1.3,0.3c0.5,0,0.9-0.1,1.3-0.3
			c0.4-0.2,0.6-0.5,0.8-0.9l0.5,0.3c-0.2,0.3-0.4,0.6-0.6,0.8s-0.6,0.4-0.9,0.5S349.1,35.1,348.7,35.1z"/>
		<path class="st14" d="M359.5,35.1c-0.7,0-1.2-0.1-1.7-0.4c-0.5-0.3-0.9-0.7-1.1-1.2l0.6-0.4c0.2,0.4,0.4,0.8,0.8,1
			c0.4,0.2,0.9,0.4,1.5,0.4c0.6,0,1-0.1,1.3-0.3c0.3-0.2,0.5-0.5,0.5-0.9c0-0.3-0.1-0.5-0.2-0.7c-0.2-0.2-0.5-0.3-0.9-0.4l-1.5-0.3
			c-0.6-0.1-1.1-0.3-1.3-0.6c-0.3-0.3-0.4-0.6-0.4-1.1c0-0.3,0.1-0.7,0.3-0.9s0.5-0.5,0.9-0.7c0.4-0.2,0.8-0.3,1.3-0.3
			c0.6,0,1.2,0.1,1.6,0.4c0.4,0.3,0.7,0.6,0.9,1.2l-0.5,0.4c-0.1-0.5-0.4-0.8-0.7-1c-0.4-0.2-0.8-0.3-1.2-0.3c-0.4,0-0.7,0.1-1,0.2
			c-0.3,0.1-0.5,0.3-0.6,0.4c-0.2,0.2-0.2,0.4-0.2,0.6c0,0.3,0.1,0.5,0.3,0.7c0.2,0.2,0.5,0.4,0.9,0.4l1.6,0.3
			c0.6,0.1,1,0.3,1.3,0.6c0.2,0.3,0.4,0.6,0.4,1c0,0.4-0.1,0.7-0.3,1c-0.2,0.3-0.5,0.5-0.9,0.7C360.5,35,360.1,35.1,359.5,35.1z"/>
		<path class="st14" d="M366.6,35.1c-0.6,0-1.1-0.1-1.6-0.4c-0.5-0.3-0.8-0.7-1.1-1.2s-0.4-1.1-0.4-1.8s0.1-1.3,0.4-1.8
			s0.6-0.9,1.1-1.2s1-0.4,1.5-0.4c0.6,0,1.1,0.1,1.5,0.4s0.7,0.6,1,1.1c0.2,0.5,0.3,1,0.3,1.6c0,0.1,0,0.2,0,0.2c0,0.1,0,0.1,0,0.2
			h-5.4v-0.6h5.1l-0.3,0.1c0-0.7-0.2-1.3-0.6-1.8c-0.4-0.4-0.9-0.7-1.6-0.7c-0.5,0-0.9,0.1-1.2,0.3c-0.4,0.2-0.6,0.5-0.8,1
			c-0.2,0.4-0.3,0.9-0.3,1.5c0,0.6,0.1,1.1,0.3,1.5c0.2,0.4,0.5,0.7,0.9,1s0.8,0.3,1.3,0.3c0.5,0,0.9-0.1,1.3-0.3
			c0.4-0.2,0.6-0.5,0.8-0.9l0.5,0.3c-0.2,0.3-0.4,0.6-0.6,0.8s-0.6,0.4-0.9,0.5S367,35.1,366.6,35.1z"/>
		<path class="st14" d="M376.1,37.7V33l0.1,0.1c-0.1,0.4-0.2,0.8-0.5,1.1c-0.2,0.3-0.5,0.5-0.9,0.7s-0.7,0.2-1.1,0.2
			c-0.6,0-1.1-0.1-1.5-0.4c-0.5-0.3-0.8-0.7-1.1-1.2s-0.4-1.1-0.4-1.8c0-0.7,0.1-1.3,0.4-1.8s0.6-0.9,1.1-1.2c0.5-0.3,1-0.4,1.5-0.4
			c0.4,0,0.8,0.1,1.1,0.2s0.6,0.4,0.9,0.6c0.2,0.3,0.4,0.6,0.5,1l-0.1,0l0-1.8h0.6v9.2H376.1z M373.8,34.5c0.5,0,0.9-0.1,1.2-0.3
			c0.3-0.2,0.6-0.6,0.8-1c0.2-0.4,0.3-0.9,0.3-1.5c0-0.6-0.1-1.1-0.3-1.5c-0.2-0.4-0.5-0.7-0.8-1s-0.7-0.3-1.2-0.3
			c-0.7,0-1.3,0.3-1.8,0.8c-0.4,0.5-0.7,1.2-0.7,2.1c0,0.9,0.2,1.6,0.6,2.1C372.4,34.2,373,34.5,373.8,34.5z"/>
		<path class="st14" d="M381.3,35.1c-0.5,0-0.9-0.1-1.2-0.2c-0.4-0.2-0.6-0.4-0.8-0.8c-0.2-0.4-0.3-0.8-0.3-1.3v-4.3h0.7v4.1
			c0,0.7,0.2,1.2,0.5,1.5c0.3,0.3,0.8,0.5,1.4,0.5c0.3,0,0.7-0.1,0.9-0.2c0.3-0.1,0.5-0.3,0.7-0.5s0.4-0.5,0.5-0.7
			c0.1-0.3,0.2-0.6,0.2-0.9v-3.7h0.7v6.5h-0.6l0-1.3c-0.2,0.5-0.5,0.8-0.9,1.1C382.4,34.9,381.9,35.1,381.3,35.1z"/>
		<path class="st14" d="M387.7,25.3h0.7l-1.2,2.1h-0.5L387.7,25.3z M387.4,28.4v6.5h-0.6v-6.5H387.4z"/>
		<path class="st14" d="M393.7,30.7c0-0.6-0.2-1-0.5-1.3c-0.3-0.3-0.7-0.5-1.3-0.5c-0.5,0-0.9,0.1-1.3,0.3c-0.4,0.2-0.6,0.6-0.8,1.1
			l-0.5-0.3c0.2-0.5,0.5-0.9,1-1.2c0.4-0.3,1-0.4,1.7-0.4c0.5,0,0.9,0.1,1.3,0.3c0.4,0.2,0.6,0.4,0.8,0.7c0.2,0.3,0.3,0.7,0.3,1.2
			v3.2c0,0.5,0.2,0.7,0.6,0.7c0.2,0,0.3,0,0.5-0.1l0,0.5c-0.1,0.1-0.3,0.1-0.6,0.1c-0.2,0-0.4,0-0.6-0.1c-0.2-0.1-0.3-0.2-0.4-0.4
			s-0.2-0.4-0.2-0.7v-0.4l0.2,0c-0.1,0.4-0.2,0.7-0.5,0.9c-0.3,0.2-0.6,0.4-0.9,0.5c-0.3,0.1-0.7,0.2-1,0.2c-0.4,0-0.8-0.1-1.1-0.2
			c-0.3-0.1-0.6-0.3-0.8-0.6c-0.2-0.2-0.3-0.6-0.3-0.9c0-0.5,0.2-0.9,0.5-1.2c0.3-0.3,0.8-0.5,1.4-0.6l2.7-0.5v0.5l-2.4,0.5
			c-0.5,0.1-0.9,0.3-1.1,0.5c-0.3,0.2-0.4,0.5-0.4,0.8c0,0.4,0.1,0.6,0.4,0.9c0.3,0.2,0.6,0.3,1.1,0.3c0.3,0,0.5,0,0.8-0.1
			c0.3-0.1,0.5-0.2,0.7-0.3c0.2-0.2,0.4-0.3,0.5-0.6c0.1-0.2,0.2-0.5,0.2-0.8V30.7z"/>
		<path class="st14" d="M397,33.9c0.2,0,0.3,0.1,0.4,0.2s0.2,0.2,0.2,0.4c0,0.2-0.1,0.3-0.2,0.4S397.2,35,397,35
			c-0.2,0-0.3-0.1-0.4-0.2s-0.2-0.2-0.2-0.4c0-0.2,0.1-0.3,0.2-0.4S396.9,33.9,397,33.9z"/>
	</g>
</g>
</svg>
