<?xml version="1.0" encoding="utf-8"?>
<!-- Generator: Adobe Illustrator 24.2.3, SVG Export Plug-In . SVG Version: 6.00 Build 0)  -->
<svg version="1.1" id="Layer_1" xmlns="http://www.w3.org/2000/svg" xmlns:xlink="http://www.w3.org/1999/xlink" x="0px" y="0px"
	 viewBox="0 0 463.5 206.6" style="enable-background:new 0 0 463.5 206.6;" xml:space="preserve">
<style type="text/css">
	.st0{fill:#FFAEA6;}
	.st1{fill:#FFFFFF;}
	.st2{fill:none;stroke:#FFAEA6;stroke-width:1.8539;stroke-miterlimit:10;stroke-dasharray:13.0898;}
</style>
<path class="st0" d="M71.4,201l-0.7-0.9c-0.4-1-1.7-2.1-2.5-3.4c-0.8-1.2-2-2.3-2-2.3l0.8-0.6l-0.3-0.5c0.3-1-0.4-1.6-0.4-1.6
	c1.6-0.2,1.5-2.5,0-2.7c-1.5-0.2-0.3-0.6,0-1.1c0.3-0.5,0.1-3.5-0.5-4.9c-0.5-1.4-0.7-7.7-0.8-8.7c-0.1-0.9-0.3-1.4-0.3-1.9
	c0-0.5,0.3-1-0.1-1.4c-0.3-0.5-0.6-0.4-0.1-1.3c0.5-0.9,0.4-1.1-0.3-1.6c-0.7-0.6-0.5-0.9-0.4-1.8c0.2-0.9,0.3-1.6-0.3-2.3
	s0.1-1.5,0.4-3.3c0.2-1.8,0.9-11.9,0.9-11.9c0-0.4,0.1-7.8,0.1-7.8l0.5-0.1c0.1-0.4-0.1-3.9-0.1-3.9h0.6l-0.1-2.7l-0.5-0.1
	c0,0-0.3-1.7-0.4-3c-0.1-1.3-0.2-1.5-0.1-2.5c0.1-1-0.7-1.8-0.7-1.8c2,0.1,3.7-0.8,5-2.2c1.3-1.4,0.3-6.9,0.3-6.9
	c0.8,0.2,2.1-0.8,2.1-0.8c-0.5-0.6-1.7-8.1-2.7-11.8c-1-3.7-3.1-4.9-3.1-4.9c-0.2-0.4-1.4-1.3-2.3-1.4c-0.9-0.1-4.6-2.3-4.6-2.3
	c-0.5-1.1-0.8,0-1.3-0.8c-0.5-0.8-0.4-3.4-0.4-3.8c0-0.4,0.5-0.9,1-1.3c0.5-0.4,1-1.9,1-1.9l0.2-0.2l0.3,1.1l0.1-1.4l0.6,0.8l0.1-1
	l0.3,1.5c0,0,0.5-3.7,0.5-3.8s0.2-4.5-1.8-9.2c-2-4.7-4.8-3.1-4.8-3.1c-0.7-1.3-3.5-0.7-3.5-0.7c-5.5,1-7,6.9-7,6.9
	c-1.4,9.1,3.5,10.6,3.5,10.6c-0.7-1.4-0.5-2.4-0.5-2.4s0.5,2.3,1.4,3.1c0,0,0.4,2.1-0.6,3.1s-2.4,0.9-2.6,1.8c0,0-1.1,0.1-2.2,0.4
	c-1.1,0.4-3.6,0.9-4.5,1c0,0-4.1,3-4.5,5.1c-0.5,2.1-0.7,4.5-1,5.7c-0.4,1.2-0.3,3.3-1.1,4.5c-0.8,1.2-1.1,2.4-1.1,2.4l1.1,0.9
	c0,0-0.4,2-0.6,3.6s0.2,3.1,1,3.7c0,0,0.4,8.1,0.4,10.3c0,0-0.3-0.1-0.3,1s1.8,10,1.8,10l4.2,2.7c0,0,0.9,0.7,0.9,1.3
	s0.5,2.1,0.7,2.9c0.2,0.8,0.5,3,0.6,3.7c0,0,0,0.8,0.5,1.7c0.5,0.9,0.7,1.8,0.6,2.5s0.3,1,0.3,1.8c0,0.8,0.2,1.6,0.4,2.3
	s0.5,1.5,0.2,1.9c-0.3,0.4,0,0.9-0.2,1.6c-0.2,0.7,0,1.6-0.4,1.9s-0.7,1.3-0.3,2c0.4,0.6,0,1.3,0,1.3s0,0.1,0.1,1.1
	c0,0.9,0,9.8,0.5,11.9c0.5,2.1,0.4,3.1,0.1,4.1c-0.2,0.9-0.2,2.8,0.3,3.2c0,0,0,0.1,0,0.1c0,0,0,0,0-0.1c-0.1-0.1-0.3-0.2-0.4,0.4
	c-0.1,0.7,0,1.4,0,1.4s-0.3,1.7,1.7,1.1c0,0-1.7,3.9-3.1,5.1c-1.4,1.2-2.5,2-2,3c0,0-0.9,2,2.2,2c3.1,0.1,5.7-0.2,6.3-1.4
	c0.6-1.2,0.9-1,2.1-1.6c1.2-0.6,0.6-1.6,0.6-2.3s-0.1-3.4,0.1-4c0,0,0.5,0.1,0.7-0.4c0.2-0.5,0.3-0.9,0.3-0.9s0.6,0,0.6-1.1
	s-1-1.1-1-1.1s0.8-0.8,0.2-1.7c-0.6-0.9-1.9-0.8-1.6-1.6c0.3-0.8,1-1.2,1.5-5.6c0,0,0-3.1,0-4.3s0.2-3,0.2-3.7s-1.1-2.1-0.3-2.9
	c0.8-0.8,1.1-1.8,0.4-2.3s-0.1-1.4,0.4-2.1c0.5-0.6,0.8-4.8,0.6-7.1c-0.2-2.3,0.2-4.2,0.1-5.9c0-1.8,0.2-2.5,0.5-1.9
	c0.3,0.7,0.4,1.8,0.4,2.3c0,0.5-0.3,1.6,0.4,3.8c0,0,0,6,0.6,7.1c0.6,1.1,0.8,1,0.5,2.1c-0.3,1,0.1,0.9,0.5,1.5
	c0.4,0.6,0.9,1.4,0.4,1.6s0.6,2,0.6,2s0,1.1,0.2,2.2c0.2,1.1,0.7,6.8,1.2,8.1c0.5,1.4,1.6,4.5,1.6,4.5s-1.3,1.6-0.4,2.6
	c0,0,0,1.4-0.1,2.3c-0.2,0.8,0.4,2.8,1.9,2.4c0,0,0.2,1.2,0.2,2.1c0,0.9-0.7,3,1.1,3.7c0,0,1.6,0.4,1.7,1.2c0.1,0.9,1,1.6,3.9,1.6
	s4.2-0.9,4.2-0.9l0.1-0.7c0,0,0,0.1,0,0.1l-0.1-1.9L71.4,201z M63.4,121.4l0.3-0.7l0.6-0.2l0.1,0.8L63.4,121.4z"/>
<path class="st1" d="M188.9,200.5l-0.9-1.1c-0.5-1.3-2.2-2.8-3.2-4.4c-1-1.6-2.6-2.9-2.6-2.9l1.1-0.7l-0.4-0.6c0.3-1.3-0.5-2-0.5-2
	c2-0.3,1.9-3.3,0-3.6s-0.4-0.8,0-1.5s0.1-4.6-0.6-6.4c-0.7-1.9-0.9-10.1-1.1-11.2c-0.1-1.2-0.3-1.9-0.3-2.5c0-0.6,0.3-1.3-0.1-1.9
	c-0.4-0.6-0.7-0.5-0.1-1.7c0.6-1.2,0.5-1.4-0.3-2.1c-0.9-0.7-0.7-1.1-0.5-2.3c0.2-1.2,0.4-2.1-0.4-2.9c-0.8-0.9,0.2-1.9,0.5-4.3
	c0.3-2.3,1.1-15.5,1.1-15.5c0-0.5,0.1-10.2,0.1-10.2l0.7-0.1c0.1-0.5-0.1-5-0.1-5h0.7L182,114l-0.6-0.1c0,0-0.4-2.2-0.5-3.9
	s-0.2-1.9-0.1-3.3c0.1-1.3-0.9-2.3-0.9-2.3c2.5,0.1,4.8-1,6.5-2.8c1.7-1.8,0.3-8.9,0.3-8.9c1.1,0.2,2.8-1,2.8-1
	c-0.7-0.8-2.1-10.5-3.5-15.3c-1.3-4.8-4-6.4-4-6.4c-0.2-0.5-1.9-1.7-3-1.9c-1.1-0.1-6-2.9-6-2.9c-0.7-1.4-1-0.1-1.7-1.1
	s-0.5-4.4-0.5-5c-0.1-0.5,0.6-1.1,1.3-1.7c0.7-0.5,1.3-2.5,1.3-2.5l0.3-0.3l0.3,1.5l0.1-1.9l0.7,1.1l0.1-1.3l0.3,1.9
	c0,0,0.6-4.8,0.6-5c0-0.2,0.2-5.8-2.3-12s-6.3-4.1-6.3-4.1c-0.9-1.7-4.6-0.9-4.6-0.9c-7.1,1.3-9.1,8.9-9.1,8.9
	c-1.7,11.9,4.6,13.8,4.6,13.8c-0.9-1.9-0.7-3.2-0.7-3.2s0.6,3,1.9,4.1c0,0,0.5,2.7-0.8,4.1s-3.1,1.2-3.4,2.3c0,0-1.4,0.1-2.8,0.5
	c-1.4,0.5-4.6,1.2-5.8,1.3c0,0-5.3,3.9-5.9,6.6c-0.6,2.8-0.9,5.9-1.3,7.4s-0.3,4.3-1.4,5.9c-1.1,1.5-1.5,3.1-1.5,3.1l1.5,1.2
	c0,0-0.5,2.5-0.7,4.7s0.3,4.1,1.3,4.8c0,0,0.5,10.5,0.5,13.4c0,0-0.4-0.1-0.4,1.3c0,1.4,2.3,13,2.3,13l5.4,3.5c0,0,1.2,0.9,1.2,1.7
	s0.6,2.8,0.9,3.8c0.3,1,0.7,3.9,0.7,4.8c0,0,0,1.1,0.6,2.2s0.9,2.3,0.7,3.2c-0.1,0.9,0.3,1.3,0.4,2.3c0.1,1,0.2,2.1,0.5,3
	c0.3,0.9,0.6,1.9,0.2,2.5c-0.4,0.5,0.1,1.2-0.2,2.1c-0.3,0.9,0,2.1-0.5,2.5c-0.5,0.4-0.9,1.7-0.4,2.5c0.5,0.8-0.1,1.7-0.1,1.7
	s0.1,0.2,0.1,1.4c0.1,1.2,0.1,12.7,0.7,15.4c0.6,2.7,0.5,4,0.1,5.3c-0.3,1.2-0.2,3.6,0.4,4.2c0,0,0.1,0.1,0.1,0.1c0,0,0,0-0.1-0.1
	c-0.1-0.1-0.4-0.3-0.5,0.5c-0.1,0.9,0,1.9,0,1.9s-0.3,2.2,2.1,1.4c0,0-2.2,5.1-4,6.7s-3.2,2.6-2.6,3.9c0,0-1.2,2.6,2.9,2.6
	c4.1,0.1,7.4-0.3,8.2-1.9s1.1-1.3,2.7-2.1c1.5-0.8,0.8-2,0.8-2.9s-0.1-4.5,0.1-5.2c0,0,0.7,0.2,0.9-0.5s0.3-1.1,0.3-1.1
	s0.7,0,0.8-1.5c0.1-1.5-1.3-1.5-1.3-1.5s1.1-1.1,0.3-2.2s-2.4-1.1-2.1-2.1c0.3-1.1,1.3-1.5,2-7.2c0,0,0.1-4,0.1-5.6s0.3-3.9,0.3-4.8
	c0-0.9-1.5-2.8-0.4-3.8s1.4-2.3,0.5-3s-0.1-1.9,0.5-2.7s1-6.2,0.8-9.2s0.2-5.4,0.1-7.7c-0.1-2.3,0.3-3.3,0.6-2.4s0.5,2.3,0.5,3
	s-0.4,2.1,0.5,4.9c0,0,0.1,7.8,0.8,9.2c0.7,1.5,1,1.3,0.7,2.7s0.1,1.1,0.7,1.9s1.1,1.8,0.5,2.1s0.7,2.6,0.7,2.6s-0.1,1.4,0.2,2.8
	s0.9,8.8,1.5,10.6s2.1,5.8,2.1,5.8s-1.7,2.1-0.5,3.4c0,0,0.1,1.9-0.1,2.9c-0.2,1.1,0.5,3.6,2.5,3.1c0,0,0.2,1.6,0.2,2.8
	s-0.9,3.9,1.5,4.8c0,0,2.1,0.5,2.2,1.6s1.3,2,5,2s5.4-1.1,5.4-1.1l0.1-0.9c0,0,0,0.1,0,0.2l-0.1-2.5L188.9,200.5z M178.4,97.1
	l0.4-0.9l0.8-0.3l0.1,1.1L178.4,97.1z"/>
<path class="st1" d="M296.6,200.5l-0.9-1.1c-0.5-1.3-2.2-2.8-3.2-4.4c-1-1.6-2.5-2.9-2.5-2.9l1.1-0.7l-0.4-0.6c0.3-1.3-0.5-2-0.5-2
	c2-0.3,1.9-3.3,0-3.6s-0.4-0.8,0-1.5s0.1-4.6-0.6-6.4c-0.7-1.9-0.9-10.1-1.1-11.2c-0.1-1.2-0.3-1.9-0.3-2.5c0-0.6,0.3-1.3-0.1-1.9
	c-0.4-0.6-0.7-0.5-0.1-1.7c0.6-1.2,0.5-1.4-0.3-2.1c-0.9-0.7-0.7-1.1-0.5-2.3c0.2-1.2,0.4-2.1-0.4-2.9c-0.8-0.9,0.2-1.9,0.5-4.3
	c0.3-2.3,1.1-15.5,1.1-15.5c0-0.5,0.1-10.2,0.1-10.2l0.7-0.1c0.1-0.5-0.1-5-0.1-5h0.7l-0.1-3.6l-0.6-0.1c0,0-0.4-2.2-0.5-3.9
	s-0.2-1.9-0.1-3.3s-0.9-2.3-0.9-2.3c2.5,0.1,4.8-1,6.5-2.8c1.7-1.8,0.3-8.9,0.3-8.9c1.1,0.2,2.8-1,2.8-1c-0.7-0.8-2.1-10.5-3.5-15.3
	c-1.3-4.8-4-6.4-4-6.4c-0.2-0.5-1.9-1.7-3-1.9c-1.1-0.1-6-2.9-6-2.9c-0.7-1.4-1-0.1-1.7-1.1s-0.5-4.4-0.5-5
	c-0.1-0.5,0.6-1.1,1.3-1.7c0.7-0.5,1.3-2.5,1.3-2.5l0.3-0.3l0.3,1.5l0.1-1.9l0.7,1.1l0.1-1.3L283,56c0,0,0.6-4.8,0.6-5
	c0-0.2,0.2-5.8-2.3-12s-6.3-4.1-6.3-4.1c-0.9-1.7-4.5-0.9-4.5-0.9c-7.1,1.3-9.1,8.9-9.1,8.9c-1.7,11.9,4.5,13.8,4.5,13.8
	c-0.9-1.9-0.7-3.2-0.7-3.2s0.6,3,1.9,4.1c0,0,0.5,2.7-0.8,4.1s-3.1,1.2-3.4,2.3c0,0-1.4,0.1-2.8,0.5c-1.4,0.5-4.6,1.2-5.8,1.3
	c0,0-5.3,3.9-5.9,6.6c-0.6,2.8-0.9,5.9-1.3,7.4s-0.3,4.3-1.4,5.9c-1.1,1.5-1.5,3.1-1.5,3.1l1.5,1.2c0,0-0.5,2.5-0.7,4.7
	s0.3,4.1,1.3,4.8c0,0,0.5,10.5,0.5,13.4c0,0-0.4-0.1-0.4,1.3c0,1.4,2.3,13,2.3,13l5.4,3.5c0,0,1.2,0.9,1.2,1.7s0.6,2.8,0.9,3.8
	c0.3,1,0.7,3.9,0.7,4.8c0,0,0,1.1,0.6,2.2s0.9,2.3,0.7,3.2c-0.1,0.9,0.3,1.3,0.4,2.3s0.2,2.1,0.5,3c0.3,0.9,0.6,1.9,0.2,2.5
	c-0.4,0.5,0.1,1.2-0.2,2.1c-0.3,0.9,0,2.1-0.5,2.5c-0.5,0.4-0.9,1.7-0.4,2.5s-0.1,1.7-0.1,1.7s0.1,0.2,0.1,1.4
	c0.1,1.2,0.1,12.7,0.7,15.4s0.5,4,0.1,5.3c-0.3,1.2-0.2,3.6,0.4,4.2c0,0,0.1,0.1,0.1,0.1c0,0,0,0-0.1-0.1c-0.1-0.1-0.4-0.3-0.5,0.5
	c-0.1,0.9,0,1.9,0,1.9s-0.3,2.2,2.1,1.4c0,0-2.2,5.1-4,6.7s-3.2,2.6-2.6,3.9c0,0-1.2,2.6,2.9,2.6c4.1,0.1,7.4-0.3,8.2-1.9
	c0.8-1.6,1.1-1.3,2.7-2.1c1.5-0.8,0.8-2,0.8-2.9s-0.1-4.5,0.1-5.2c0,0,0.7,0.2,0.9-0.5s0.3-1.1,0.3-1.1s0.7,0,0.8-1.5
	c0.1-1.5-1.3-1.5-1.3-1.5s1.1-1.1,0.3-2.2c-0.8-1.1-2.4-1.1-2.1-2.1c0.3-1.1,1.3-1.5,2-7.2c0,0,0.1-4,0.1-5.6s0.3-3.9,0.3-4.8
	c0-0.9-1.5-2.8-0.4-3.8s1.4-2.3,0.5-3s-0.1-1.9,0.5-2.7s1-6.2,0.8-9.2s0.2-5.4,0.1-7.7s0.3-3.3,0.6-2.4c0.3,0.9,0.5,2.3,0.5,3
	s-0.4,2.1,0.5,4.9c0,0,0.1,7.8,0.8,9.2c0.7,1.5,1,1.3,0.7,2.7s0.1,1.1,0.7,1.9s1.1,1.8,0.5,2.1s0.7,2.6,0.7,2.6s-0.1,1.4,0.2,2.8
	s0.9,8.8,1.5,10.6s2.1,5.8,2.1,5.8s-1.7,2.1-0.5,3.4c0,0,0.1,1.9-0.1,2.9c-0.2,1.1,0.5,3.6,2.5,3.1c0,0,0.2,1.6,0.2,2.8
	s-0.9,3.9,1.5,4.8c0,0,2.1,0.5,2.2,1.6s1.3,2,5,2s5.4-1.1,5.4-1.1l0.1-0.9c0,0,0,0.1,0,0.2l-0.1-2.5L296.6,200.5z M286.1,97.1
	l0.4-0.9l0.8-0.3l0.1,1.1L286.1,97.1z"/>
<path class="st1" d="M401.6,200.5l-0.9-1.1c-0.5-1.3-2.2-2.8-3.2-4.4c-1-1.6-2.5-2.9-2.5-2.9l1.1-0.7l-0.4-0.6c0.3-1.3-0.5-2-0.5-2
	c2-0.3,1.9-3.3,0-3.6s-0.4-0.8,0-1.5s0.1-4.6-0.6-6.4c-0.7-1.9-0.9-10.1-1.1-11.2c-0.1-1.2-0.3-1.9-0.3-2.5c0-0.6,0.3-1.3-0.1-1.9
	c-0.4-0.6-0.7-0.5-0.1-1.7c0.6-1.2,0.5-1.4-0.3-2.1c-0.9-0.7-0.7-1.1-0.5-2.3c0.2-1.2,0.4-2.1-0.4-2.9c-0.8-0.9,0.2-1.9,0.5-4.3
	c0.3-2.3,1.1-15.5,1.1-15.5c0-0.5,0.1-10.2,0.1-10.2l0.7-0.1c0.1-0.5-0.1-5-0.1-5h0.7l-0.1-3.6l-0.6-0.1c0,0-0.4-2.2-0.5-3.9
	s-0.2-1.9-0.1-3.3s-0.9-2.3-0.9-2.3c2.5,0.1,4.8-1,6.5-2.8c1.7-1.8,0.3-8.9,0.3-8.9c1.1,0.2,2.8-1,2.8-1c-0.7-0.8-2.1-10.5-3.5-15.3
	c-1.3-4.8-4-6.4-4-6.4c-0.2-0.5-1.9-1.7-3-1.9c-1.1-0.1-6-2.9-6-2.9c-0.7-1.4-1-0.1-1.7-1.1s-0.5-4.4-0.5-5
	c-0.1-0.5,0.6-1.1,1.3-1.7c0.7-0.5,1.3-2.5,1.3-2.5l0.3-0.3l0.3,1.5l0.1-1.9l0.7,1.1l0.1-1.3L388,56c0,0,0.6-4.8,0.6-5
	c0-0.2,0.2-5.8-2.3-12S380,35,380,35c-0.9-1.7-4.5-0.9-4.5-0.9c-7.1,1.3-9.1,8.9-9.1,8.9c-1.7,11.9,4.5,13.8,4.5,13.8
	c-0.9-1.9-0.7-3.2-0.7-3.2s0.6,3,1.9,4.1c0,0,0.5,2.7-0.8,4.1s-3.1,1.2-3.4,2.3c0,0-1.4,0.1-2.8,0.5c-1.4,0.5-4.6,1.2-5.8,1.3
	c0,0-5.3,3.9-5.9,6.6c-0.6,2.8-0.9,5.9-1.3,7.4s-0.3,4.3-1.4,5.9c-1.1,1.5-1.5,3.1-1.5,3.1l1.5,1.2c0,0-0.5,2.5-0.7,4.7
	s0.3,4.1,1.3,4.8c0,0,0.5,10.5,0.5,13.4c0,0-0.4-0.1-0.4,1.3c0,1.4,2.3,13,2.3,13l5.4,3.5c0,0,1.2,0.9,1.2,1.7s0.6,2.8,0.9,3.8
	s0.7,3.9,0.7,4.8c0,0,0,1.1,0.6,2.2s0.9,2.3,0.7,3.2c-0.1,0.9,0.3,1.3,0.4,2.3s0.2,2.1,0.5,3c0.3,0.9,0.6,1.9,0.2,2.5
	c-0.4,0.5,0.1,1.2-0.2,2.1c-0.3,0.9,0,2.1-0.5,2.5c-0.5,0.4-0.9,1.7-0.4,2.5s-0.1,1.7-0.1,1.7s0.1,0.2,0.1,1.4
	c0.1,1.2,0.1,12.7,0.7,15.4s0.5,4,0.1,5.3c-0.3,1.2-0.2,3.6,0.4,4.2c0,0,0.1,0.1,0.1,0.1c0,0,0,0-0.1-0.1c-0.1-0.1-0.4-0.3-0.5,0.5
	c-0.1,0.9,0,1.9,0,1.9s-0.3,2.2,2.1,1.4c0,0-2.2,5.1-4,6.7s-3.2,2.6-2.5,3.9c0,0-1.2,2.6,2.9,2.6c4.1,0.1,7.4-0.3,8.2-1.9
	c0.8-1.6,1.1-1.3,2.7-2.1c1.5-0.8,0.8-2,0.8-2.9s-0.1-4.5,0.1-5.2c0,0,0.7,0.2,0.9-0.5s0.3-1.1,0.3-1.1s0.7,0,0.8-1.5
	c0.1-1.5-1.3-1.5-1.3-1.5s1.1-1.1,0.3-2.2c-0.8-1.1-2.4-1.1-2.1-2.1c0.3-1.1,1.3-1.5,2-7.2c0,0,0.1-4,0.1-5.6s0.3-3.9,0.3-4.8
	c0-0.9-1.5-2.8-0.4-3.8s1.4-2.3,0.5-3s-0.1-1.9,0.5-2.7s1-6.2,0.8-9.2s0.2-5.4,0.1-7.7s0.3-3.3,0.6-2.4c0.3,0.9,0.5,2.3,0.5,3
	s-0.4,2.1,0.5,4.9c0,0,0.1,7.8,0.8,9.2c0.7,1.5,1,1.3,0.7,2.7s0.1,1.1,0.7,1.9s1.1,1.8,0.5,2.1s0.7,2.6,0.7,2.6s-0.1,1.4,0.2,2.8
	c0.3,1.4,0.9,8.8,1.5,10.6s2.1,5.8,2.1,5.8s-1.7,2.1-0.5,3.4c0,0,0.1,1.9-0.1,2.9c-0.2,1.1,0.5,3.6,2.5,3.1c0,0,0.2,1.6,0.2,2.8
	s-0.9,3.9,1.5,4.8c0,0,2.1,0.5,2.2,1.6s1.3,2,5,2s5.4-1.1,5.4-1.1l0.1-0.9c0,0,0,0.1,0,0.2l-0.1-2.5L401.6,200.5z M391.2,97.1
	l0.4-0.9l0.8-0.3l0.1,1.1L391.2,97.1z"/>
<line class="st2" x1="9.7" y1="71.5" x2="443.2" y2="71.5"/>
</svg>
