<?xml version="1.0" encoding="utf-8"?>
<!-- Generator: Adobe Illustrator 24.0.1, SVG Export Plug-In . SVG Version: 6.00 Build 0)  -->
<svg version="1.1" id="Layer_1" xmlns="http://www.w3.org/2000/svg" xmlns:xlink="http://www.w3.org/1999/xlink" x="0px" y="0px"
	 viewBox="0 0 93.76 80" style="enable-background:new 0 0 93.76 80;" xml:space="preserve">
<style type="text/css">
	.st0{fill:#FFFFFF;}
</style>
<g>
	<path class="st0" d="M92.27,15.2C89.9,8.88,84.87,3.86,78.55,1.49C75.99,0.53,73.22,0,70.32,0C57.37,0,46.88,10.49,46.88,23.44
		C46.88,10.49,36.38,0,23.44,0c-2.9,0-5.68,0.53-8.24,1.49C8.88,3.86,3.86,8.88,1.49,15.2C0.53,17.76,0,20.54,0,23.44
		c0,6.21,2.41,11.85,6.35,16.04l0.03,0.03l1.03,1.02l0.07,0.07L46.88,80l39.47-39.47l1.05-1.05c3.94-4.19,6.35-9.83,6.35-16.04
		C93.76,20.54,93.23,17.76,92.27,15.2z"/>
</g>
</svg>
