<?xml version="1.0" encoding="utf-8"?>
<!-- Generator: Adobe Illustrator 24.0.1, SVG Export Plug-In . SVG Version: 6.00 Build 0)  -->
<svg version="1.1" id="Layer_1" xmlns="http://www.w3.org/2000/svg" xmlns:xlink="http://www.w3.org/1999/xlink" x="0px" y="0px"
	 viewBox="0 0 221.33 83" style="enable-background:new 0 0 221.33 83;" xml:space="preserve">
<style type="text/css">
	.st0{fill:#FFFFFF;}
	.st1{fill:none;stroke:#FFFFFF;stroke-width:32.1735;stroke-miterlimit:10;}
	.st2{fill:#38CDFF;}
</style>
<g>
	<rect class="st0" width="221.33" height="83"/>
	<g>
		<g>
			<path class="st1" d="M53.15,49.07c-3.01-0.24-6.04,0.03-9.07-0.24c-1.45-0.16-2.64-1.45-2.9-2.85c-0.18-1.45-0.11-2.93-0.16-4.4
				c4.03-0.05,8.07,0.18,12.08-0.13c1.95-0.32,3.45-2.58,2.87-4.51c-0.18-1.53-1.56-2.72-3.03-2.95c-3.93-0.18-7.88-0.03-11.81-0.05
				c-0.03-1.56-0.03-3.14-0.16-4.69c-0.29-1.98-2.56-3.35-4.46-2.79c-2.08,0.32-3.4,2.58-3.08,4.59c0,4.82-0.11,9.68,0.05,14.5
				c-0.03,4.72,3.37,9.17,7.88,10.55c2.98,0.92,6.14,0.5,9.2,0.55c1.66,0,3.77,0.05,4.72-1.63C57.05,53.06,55.76,49.47,53.15,49.07z
				 M96.1,32.97c1.82,1.9,5.56,0.98,6.14-1.66c0.95-2.61-1.69-5.62-4.38-4.9C94.91,26.77,93.7,31.2,96.1,32.97z M114.29,48.52
				c-1.4-0.63-1.45-2.45-1.71-3.72c2.27-0.03,4.53,0.03,6.8-0.11c1.9,0.26,3.77-1.34,3.82-3.22c0.37-1.92-1.13-3.77-2.93-4.19
				c-2.66-0.32-5.33-0.18-7.99-0.21c-0.05-2.82,0.16-5.67-0.24-8.46c-0.87-2.35-4.35-3.06-6.06-1.21c-1.66,1.27-1.24,3.66-1.4,5.48
				c0.03,6.06-0.21,12.47,2.11,18.19c1.95,4.69,7.57,6.06,12.15,5.51c1.92,0.16,3.95-1.08,4.32-3.06c0.34-1.37-0.29-2.72-1.16-3.77
				C119.72,48.31,116.74,49.5,114.29,48.52z M133.96,48.36c-1.21-0.74-1.11-2.4-1.29-3.61c2.58,0,5.17,0.11,7.75-0.11
				c1.71-0.21,2.64-1.87,2.85-3.4c0.18-1.85-1.21-3.59-2.95-3.95c-2.66-0.32-5.33-0.18-7.99-0.21c-0.03-2.66,0.11-5.35-0.18-8.04
				c-0.16-1.03-1.03-1.77-1.87-2.29c-1.42-0.82-3.27-0.26-4.51,0.66c-0.87,1.19-1.24,2.69-1.19,4.17c-0.32,3.8,0.05,7.59,0.29,11.39
				c0.45,3.48,0.82,7.25,3.03,10.15c3.06,3.59,8.28,4.03,12.63,3.3c2.4-0.66,3.61-3.77,2.08-5.88
				C140.49,47.81,136.67,49.79,133.96,48.36z M90.32,35.6c-1.69-0.84-3.82,0.32-4.51,1.95c-0.87,2.74-0.24,5.69-0.5,8.52
				c0.42,2.08-1.9,3.69-3.8,3.3c-1.29-0.08-2.24-1.13-2.64-2.29c-0.69-3.48,0.95-7.57-1.21-10.7c-0.92-0.61-2.06-1.29-3.22-0.98
				c-1.56,0.32-2.85,1.71-3.03,3.3c-0.11,2.72,0.08,5.43-0.13,8.12c-0.21,1.29-1.29,2.45-2.64,2.56c-2.03,0.45-3.93-1.34-4.09-3.3
				c-0.16-2.85,0.16-5.69-0.21-8.52c-0.74-1.45-2.53-2.69-4.22-2.08c-1.85,0.24-2.82,2.32-2.69,4.01c-0.08,3.16-0.26,6.41,0.45,9.52
				c1.34,4.96,6.7,8.36,11.76,7.46c2.03-0.21,3.72-1.4,5.43-2.43c2.06,1.48,4.48,2.72,7.12,2.56c5.3,0.08,10.1-4.51,10.49-9.75
				c0.16-2.85,0.18-5.7-0.11-8.52C92.46,37.05,91.46,36.08,90.32,35.6z M164.12,38.24c-3.69-2.98-8.96-3.32-13.37-1.9
				c-2.56,0.87-4.61,2.95-5.59,5.48c-1.74,4.27-0.4,9.76,3.51,12.39c3.27,2.72,7.86,2.87,11.84,1.85c2.27-0.45,4.64-1.66,5.59-3.9
				c0.66-1.29-0.32-3.16-1.82-3.3c-2.08-0.37-3.77,1.16-5.75,1.53c-2.27,0.4-5.27,0.21-6.41-2.14c4.01-0.16,8.04,0.08,12.05-0.16
				c1.24-0.05,2.72-0.55,3.11-1.85C167.84,43.25,166.46,40.14,164.12,38.24z M152.2,43.14c1.42-2.9,6.3-2.95,7.78-0.08
				C157.4,43.17,154.79,43.2,152.2,43.14z M184.5,35.52c-2.24-0.11-4.51-0.08-6.75,0.16c-4.59,0.42-8.59,4.51-8.96,9.1
				c-0.24,3.03-0.24,6.06,0.03,9.1c0.13,1.19,1.24,1.98,2.21,2.53c2.11,0.92,4.64-1,4.75-3.19c0.11-2.64-0.08-5.27,0.13-7.88
				c0.21-1.4,1.4-2.5,2.79-2.61c2.16-0.13,4.32-0.05,6.49-0.24c1.21-0.11,1.98-1.21,2.53-2.19C188.64,38.19,186.74,35.6,184.5,35.52
				z M98.13,36.71c-1.48,0.18-2.98,1.24-3.16,2.82c-0.24,4.38-0.16,8.75-0.05,13.13c-0.32,2.29,2.08,4.4,4.32,3.82
				c1.74-0.24,3.11-1.85,3.22-3.56c0.13-4.35,0.21-8.73-0.11-13.08C102.11,37.92,100.08,36.34,98.13,36.71z"/>
		</g>
		<g>
			<path class="st2" d="M53.15,49.07c-3.01-0.24-6.04,0.03-9.07-0.24c-1.45-0.16-2.64-1.45-2.9-2.85c-0.18-1.45-0.11-2.93-0.16-4.4
				c4.03-0.05,8.07,0.18,12.08-0.13c1.95-0.32,3.45-2.58,2.87-4.51c-0.18-1.53-1.56-2.72-3.03-2.95c-3.93-0.18-7.88-0.03-11.81-0.05
				c-0.03-1.56-0.03-3.14-0.16-4.69c-0.29-1.98-2.56-3.35-4.46-2.79c-2.08,0.32-3.4,2.58-3.08,4.59c0,4.82-0.11,9.68,0.05,14.5
				c-0.03,4.72,3.37,9.17,7.88,10.55c2.98,0.92,6.14,0.5,9.2,0.55c1.66,0,3.77,0.05,4.72-1.63C57.05,53.06,55.76,49.47,53.15,49.07z
				 M96.1,32.97c1.82,1.9,5.56,0.98,6.14-1.66c0.95-2.61-1.69-5.62-4.38-4.9C94.91,26.77,93.7,31.2,96.1,32.97z M114.29,48.52
				c-1.4-0.63-1.45-2.45-1.71-3.72c2.27-0.03,4.53,0.03,6.8-0.11c1.9,0.26,3.77-1.34,3.82-3.22c0.37-1.92-1.13-3.77-2.93-4.19
				c-2.66-0.32-5.33-0.18-7.99-0.21c-0.05-2.82,0.16-5.67-0.24-8.46c-0.87-2.35-4.35-3.06-6.06-1.21c-1.66,1.27-1.24,3.66-1.4,5.48
				c0.03,6.06-0.21,12.47,2.11,18.19c1.95,4.69,7.57,6.06,12.15,5.51c1.92,0.16,3.95-1.08,4.32-3.06c0.34-1.37-0.29-2.72-1.16-3.77
				C119.72,48.31,116.74,49.5,114.29,48.52z M133.96,48.36c-1.21-0.74-1.11-2.4-1.29-3.61c2.58,0,5.17,0.11,7.75-0.11
				c1.71-0.21,2.64-1.87,2.85-3.4c0.18-1.85-1.21-3.59-2.95-3.95c-2.66-0.32-5.33-0.18-7.99-0.21c-0.03-2.66,0.11-5.35-0.18-8.04
				c-0.16-1.03-1.03-1.77-1.87-2.29c-1.42-0.82-3.27-0.26-4.51,0.66c-0.87,1.19-1.24,2.69-1.19,4.17c-0.32,3.8,0.05,7.59,0.29,11.39
				c0.45,3.48,0.82,7.25,3.03,10.15c3.06,3.59,8.28,4.03,12.63,3.3c2.4-0.66,3.61-3.77,2.08-5.88
				C140.49,47.81,136.67,49.79,133.96,48.36z M90.32,35.6c-1.69-0.84-3.82,0.32-4.51,1.95c-0.87,2.74-0.24,5.69-0.5,8.52
				c0.42,2.08-1.9,3.69-3.8,3.3c-1.29-0.08-2.24-1.13-2.64-2.29c-0.69-3.48,0.95-7.57-1.21-10.7c-0.92-0.61-2.06-1.29-3.22-0.98
				c-1.56,0.32-2.85,1.71-3.03,3.3c-0.11,2.72,0.08,5.43-0.13,8.12c-0.21,1.29-1.29,2.45-2.64,2.56c-2.03,0.45-3.93-1.34-4.09-3.3
				c-0.16-2.85,0.16-5.69-0.21-8.52c-0.74-1.45-2.53-2.69-4.22-2.08c-1.85,0.24-2.82,2.32-2.69,4.01c-0.08,3.16-0.26,6.41,0.45,9.52
				c1.34,4.96,6.7,8.36,11.76,7.46c2.03-0.21,3.72-1.4,5.43-2.43c2.06,1.48,4.48,2.72,7.12,2.56c5.3,0.08,10.1-4.51,10.49-9.75
				c0.16-2.85,0.18-5.7-0.11-8.52C92.46,37.05,91.46,36.08,90.32,35.6z M164.12,38.24c-3.69-2.98-8.96-3.32-13.37-1.9
				c-2.56,0.87-4.61,2.95-5.59,5.48c-1.74,4.27-0.4,9.76,3.51,12.39c3.27,2.72,7.86,2.87,11.84,1.85c2.27-0.45,4.64-1.66,5.59-3.9
				c0.66-1.29-0.32-3.16-1.82-3.3c-2.08-0.37-3.77,1.16-5.75,1.53c-2.27,0.4-5.27,0.21-6.41-2.14c4.01-0.16,8.04,0.08,12.05-0.16
				c1.24-0.05,2.72-0.55,3.11-1.85C167.84,43.25,166.46,40.14,164.12,38.24z M152.2,43.14c1.42-2.9,6.3-2.95,7.78-0.08
				C157.4,43.17,154.79,43.2,152.2,43.14z M184.5,35.52c-2.24-0.11-4.51-0.08-6.75,0.16c-4.59,0.42-8.59,4.51-8.96,9.1
				c-0.24,3.03-0.24,6.06,0.03,9.1c0.13,1.19,1.24,1.98,2.21,2.53c2.11,0.92,4.64-1,4.75-3.19c0.11-2.64-0.08-5.27,0.13-7.88
				c0.21-1.4,1.4-2.5,2.79-2.61c2.16-0.13,4.32-0.05,6.49-0.24c1.21-0.11,1.98-1.21,2.53-2.19C188.64,38.19,186.74,35.6,184.5,35.52
				z M98.13,36.71c-1.48,0.18-2.98,1.24-3.16,2.82c-0.24,4.38-0.16,8.75-0.05,13.13c-0.32,2.29,2.08,4.4,4.32,3.82
				c1.74-0.24,3.11-1.85,3.22-3.56c0.13-4.35,0.21-8.73-0.11-13.08C102.11,37.92,100.08,36.34,98.13,36.71z"/>
		</g>
	</g>
</g>
</svg>
