<?xml version="1.0" encoding="utf-8"?>
<!-- Generator: Adobe Illustrator 24.0.1, SVG Export Plug-In . SVG Version: 6.00 Build 0)  -->
<svg version="1.1" id="Layer_1" xmlns="http://www.w3.org/2000/svg" xmlns:xlink="http://www.w3.org/1999/xlink" x="0px" y="0px"
	 viewBox="0 0 16.14 24.29" style="enable-background:new 0 0 16.14 24.29;" xml:space="preserve">
<style type="text/css">
	.st0{fill-rule:evenodd;clip-rule:evenodd;fill:#FF7466;}
</style>
<g>
	<g>
		<path class="st0" d="M16.14,8.07L16.14,8.07L16.14,8.07z M8.07,0c2.23,0,4.24,0.91,5.7,2.37c1.46,1.46,2.37,3.48,2.37,5.7
			c0,0.9-0.28,2.07-0.85,3.52c-0.55,1.41-1.38,3.1-2.5,5.11c-0.55,0.98-1.07,1.88-1.54,2.64c-0.91,1.5-1.6,2.56-1.65,2.62l0,0
			l-1.12,1.7l-0.41,0.63l-0.41-0.63l-1.12-1.7l0,0l0,0v0c-0.08-0.13-1.62-2.47-3.18-5.26c-1.12-2-1.95-3.7-2.5-5.11
			C0.28,10.14,0,8.97,0,8.07c0-2.23,0.91-4.24,2.37-5.7C3.83,0.91,5.85,0,8.07,0L8.07,0z M8.07,12.44c1.22,0,2.33-0.5,3.13-1.3
			c0.8-0.8,1.3-1.91,1.3-3.13v0h0c0-1.22-0.49-2.33-1.29-3.13c-0.8-0.8-1.91-1.3-3.13-1.3h0c-1.22,0-2.33,0.5-3.13,1.3
			c-0.8,0.8-1.3,1.91-1.3,3.13c0,1.22,0.5,2.33,1.3,3.13C5.74,11.95,6.85,12.44,8.07,12.44z"/>
		<path class="st0" d="M8.07,3.04c2.79,0,5.06,2.27,5.06,5.06c0,2.79-2.27,5.06-5.06,5.06S3.01,10.89,3.01,8.1
			C3.01,5.3,5.28,3.04,8.07,3.04L8.07,3.04z M8.07,12.44c1.22,0,2.33-0.5,3.13-1.3c0.8-0.8,1.3-1.91,1.3-3.13v0h0
			c0-1.22-0.49-2.33-1.29-3.13c-0.8-0.8-1.91-1.3-3.13-1.3h0c-1.22,0-2.33,0.5-3.13,1.3c-0.8,0.8-1.3,1.91-1.3,3.13
			c0,1.22,0.5,2.33,1.3,3.13C5.74,11.95,6.85,12.44,8.07,12.44z"/>
		<circle class="st0" cx="8.07" cy="8.07" r="4.42"/>
	</g>
</g>
</svg>
