<?xml version="1.0" encoding="utf-8"?>
<!-- Generator: Adobe Illustrator 24.0.1, SVG Export Plug-In . SVG Version: 6.00 Build 0)  -->
<svg version="1.1" id="Layer_1" xmlns="http://www.w3.org/2000/svg" xmlns:xlink="http://www.w3.org/1999/xlink" x="0px" y="0px"
	 viewBox="0 0 24.09 36.26" style="enable-background:new 0 0 24.09 36.26;" xml:space="preserve">
<style type="text/css">
	.st0{fill-rule:evenodd;clip-rule:evenodd;fill:#FDD956;}
	.st1{fill-rule:evenodd;clip-rule:evenodd;fill:#1A1A1A;}
</style>
<g>
	<circle class="st0" cx="11.95" cy="11.73" r="7.59"/>
	<g>
		<path class="st1" d="M24.09,12.05L24.09,12.05L24.09,12.05z M12.05,0c3.32,0,6.33,1.35,8.51,3.53c2.18,2.18,3.53,5.19,3.53,8.51
			c0,1.35-0.42,3.09-1.27,5.25c-0.82,2.1-2.06,4.63-3.73,7.62c-0.82,1.46-1.6,2.8-2.29,3.94c-1.35,2.24-2.39,3.82-2.46,3.91l0,0
			l-1.68,2.54l-0.62,0.94l-0.62-0.94l-1.68-2.54l0,0l0,0v0C9.62,32.58,7.32,29.08,5,24.92c-1.67-2.99-2.91-5.52-3.73-7.62
			C0.42,15.13,0,13.39,0,12.05c0-3.32,1.35-6.33,3.53-8.51C5.71,1.35,8.72,0,12.05,0L12.05,0z M12.05,18.57
			c1.82,0,3.47-0.74,4.67-1.93c1.19-1.19,1.93-2.85,1.93-4.67v0h0c0-1.82-0.74-3.48-1.93-4.67c-1.19-1.19-2.85-1.93-4.67-1.93h0
			c-1.82,0-3.47,0.74-4.67,1.93c-1.19,1.19-1.93,2.85-1.93,4.67c0,1.82,0.74,3.47,1.93,4.67C8.57,17.83,10.22,18.57,12.05,18.57z"/>
		<path class="st0" d="M12.05,4.53c4.17,0,7.55,3.38,7.55,7.55c0,4.17-3.38,7.55-7.55,7.55s-7.55-3.38-7.55-7.55
			C4.49,7.91,7.87,4.53,12.05,4.53L12.05,4.53z M12.05,18.57c1.82,0,3.47-0.74,4.67-1.93c1.19-1.19,1.93-2.85,1.93-4.67v0h0
			c0-1.82-0.74-3.48-1.93-4.67c-1.19-1.19-2.85-1.93-4.67-1.93h0c-1.82,0-3.47,0.74-4.67,1.93c-1.19,1.19-1.93,2.85-1.93,4.67
			c0,1.82,0.74,3.47,1.93,4.67C8.57,17.83,10.22,18.57,12.05,18.57z"/>
	</g>
</g>
</svg>
