<?xml version="1.0" encoding="utf-8"?>
<!-- Generator: Adobe Illustrator 24.2.3, SVG Export Plug-In . SVG Version: 6.00 Build 0)  -->
<svg version="1.1" id="Layer_1" xmlns="http://www.w3.org/2000/svg" xmlns:xlink="http://www.w3.org/1999/xlink" x="0px" y="0px"
	 viewBox="0 0 895 556.4" style="enable-background:new 0 0 895 556.4;" xml:space="preserve">
<style type="text/css">
	.st0{fill:#FFFFFF;}
</style>
<g>
	<g>
		<path class="st0" d="M706.3,486.2c2.4,0,4.3,0.6,5.6,1.9c1.3,1.2,2,3.1,2,5.5c0,2.5-0.6,4.4-2,5.7c-1.3,1.3-3.1,2-5.6,2h-4.8v-15
			L706.3,486.2L706.3,486.2z M706.4,500.2c2,0,3.5-0.5,4.7-1.8c1-1.1,1.7-2.8,1.7-4.9c0-2.1-0.5-3.6-1.7-4.7c-1-1.1-2.6-1.7-4.7-1.7
			h-3.7v13L706.4,500.2L706.4,500.2z"/>
		<path class="st0" d="M722,501.4c-1,0-2-0.2-2.8-0.7c-0.8-0.5-1.5-1.1-2-2.1c-0.5-0.9-0.7-2-0.7-3.2s0.2-2.3,0.7-3.2
			s1.1-1.6,1.9-2.1c0.8-0.5,1.7-0.7,2.7-0.7c1,0,1.9,0.2,2.7,0.7s1.2,1.1,1.7,1.9c0.4,0.8,0.6,1.8,0.6,2.8c0,0.1,0,0.3,0,0.4
			c0,0.1,0,0.2,0,0.3h-9.4v-1h8.9l-0.5,0.2c0-1.3-0.3-2.4-1-3.1c-0.7-0.7-1.7-1.1-2.8-1.1c-0.8,0-1.6,0.2-2.2,0.6
			c-0.6,0.4-1.1,0.9-1.5,1.7c-0.3,0.7-0.5,1.7-0.5,2.7c0,1,0.2,1.9,0.5,2.7c0.3,0.7,0.8,1.3,1.6,1.7c0.6,0.4,1.3,0.6,2.3,0.6
			s1.7-0.2,2.3-0.5c0.6-0.4,1.1-0.9,1.5-1.6l0.9,0.5c-0.3,0.5-0.6,1-1.1,1.5c-0.4,0.4-0.9,0.7-1.6,0.9
			C723.4,501.3,722.7,501.4,722,501.4z"/>
		<path class="st0" d="M730,501.2v-11.4h0.9l0.1,2.4c0.3-0.8,0.7-1.5,1.3-1.9c0.6-0.4,1.5-0.7,2.3-0.7c0.3,0,0.6,0,0.8,0.1
			c0.2,0.1,0.4,0.2,0.6,0.3l-0.3,1c-0.2-0.1-0.3-0.2-0.5-0.2c-0.2,0-0.5-0.1-0.9-0.1c-0.6,0-1.1,0.2-1.7,0.5
			c-0.5,0.3-0.9,0.8-1.2,1.5c-0.3,0.6-0.5,1.3-0.5,2.2v6.4H730V501.2z"/>
		<path class="st0" d="M742.8,501.4c-1,0-2-0.2-2.8-0.7c-0.8-0.5-1.5-1.1-2-2.1c-0.5-0.9-0.7-2-0.7-3.2s0.2-2.3,0.7-3.2
			s1.1-1.6,1.9-2.1c0.8-0.5,1.7-0.7,2.7-0.7s1.9,0.2,2.7,0.7c0.7,0.4,1.2,1.1,1.7,1.9c0.4,0.8,0.6,1.8,0.6,2.8c0,0.1,0,0.3,0,0.4
			c0,0.1,0,0.2,0,0.3h-9.4v-1h8.9l-0.6,0.2c0-1.3-0.3-2.4-1-3.1c-0.7-0.7-1.7-1.1-2.8-1.1c-0.8,0-1.6,0.2-2.2,0.6
			c-0.6,0.4-1.1,0.9-1.5,1.7s-0.5,1.7-0.5,2.7c0,1,0.2,1.9,0.5,2.7c0.3,0.8,0.8,1.3,1.6,1.7c0.6,0.4,1.3,0.6,2.3,0.6
			s1.7-0.2,2.3-0.5c0.6-0.4,1.1-0.9,1.5-1.6l0.9,0.5c-0.3,0.5-0.6,1-1.1,1.5c-0.4,0.4-0.9,0.7-1.6,0.9
			C744.1,501.4,743.5,501.4,742.8,501.4z"/>
		<path class="st0" d="M755.4,489.6c0.7,0,1.5,0.1,2.1,0.4c0.6,0.2,1.1,0.6,1.6,1c0.4,0.4,0.7,1,0.9,1.7l-1,0.5
			c-0.2-0.8-0.6-1.5-1.2-1.9c-0.6-0.4-1.3-0.6-2.3-0.6c-0.8,0-1.6,0.2-2.2,0.6s-1.1,0.9-1.5,1.7c-0.3,0.7-0.5,1.7-0.5,2.7
			c0,1,0.2,1.9,0.5,2.7c0.3,0.7,0.8,1.3,1.5,1.7c0.6,0.3,1.3,0.6,2.2,0.6c0.6,0,1.2-0.1,1.8-0.3c0.5-0.2,0.9-0.5,1.3-0.9
			c0.3-0.4,0.5-0.9,0.6-1.5l1,0.4c-0.2,0.7-0.5,1.3-0.9,1.8s-1,0.9-1.7,1.1c-0.6,0.3-1.3,0.4-2.2,0.4c-1,0-2-0.2-2.8-0.7
			c-0.8-0.5-1.5-1.1-1.9-2.1c-0.4-0.9-0.7-2-0.7-3.2s0.2-2.3,0.7-3.2c0.5-0.9,1.1-1.6,1.9-2.1C753.5,489.8,754.4,489.6,755.4,489.6z
			"/>
		<path class="st0" d="M763.2,501.2v-16.7h1.1v7.6c0.3-0.8,0.8-1.5,1.7-1.9s1.6-0.6,2.6-0.6c0.8,0,1.6,0.2,2.3,0.5
			c0.6,0.3,1.1,0.8,1.6,1.5c0.4,0.6,0.5,1.5,0.5,2.4v7.4h-1.1v-7.1c0-1.2-0.3-2.2-0.9-2.7s-1.5-0.8-2.4-0.8c-0.7,0-1.3,0.2-2,0.5
			c-0.6,0.3-1.1,0.8-1.6,1.5c-0.4,0.6-0.6,1.3-0.6,2.3v6.4h-1.1V501.2z"/>
		<path class="st0" d="M781.5,489.6c1,0,2,0.2,2.8,0.7c0.8,0.5,1.5,1.1,1.9,2.1c0.4,0.9,0.7,2,0.7,3.2s-0.2,2.3-0.7,3.2
			c-0.5,0.9-1.1,1.6-1.9,2.1c-0.8,0.5-1.8,0.7-2.8,0.7s-2-0.2-2.8-0.7c-0.8-0.5-1.5-1.1-1.9-2.1c-0.4-0.9-0.7-2-0.7-3.2
			s0.2-2.3,0.7-3.2c0.5-0.9,1.1-1.6,1.9-2.1C779.6,489.8,780.5,489.6,781.5,489.6z M781.5,490.5c-0.8,0-1.7,0.2-2.3,0.6
			c-0.6,0.4-1.1,0.9-1.5,1.7c-0.3,0.7-0.5,1.7-0.5,2.7s0.2,1.9,0.5,2.7c0.3,0.7,0.8,1.3,1.5,1.8c0.6,0.4,1.3,0.6,2.3,0.6
			c0.8,0,1.7-0.2,2.3-0.6c0.6-0.4,1.1-0.9,1.5-1.8c0.3-0.8,0.5-1.7,0.5-2.7s-0.2-2-0.5-2.7c-0.3-0.7-0.8-1.3-1.5-1.7
			C783.2,490.8,782.4,490.5,781.5,490.5z"/>
		<path class="st0" d="M804.4,493.6c0-1-0.3-1.8-0.8-2.3s-1.2-0.8-2.3-0.8c-0.8,0-1.7,0.2-2.3,0.5c-0.6,0.4-1,1-1.3,1.9l-0.9-0.6
			c0.3-0.9,0.9-1.6,1.7-2.1c0.8-0.5,1.8-0.7,2.9-0.7c0.8,0,1.6,0.1,2.2,0.4s1.1,0.7,1.5,1.3c0.3,0.6,0.5,1.3,0.5,2.2v5.7
			c0,0.8,0.4,1.2,1.1,1.2c0.3,0,0.6-0.1,0.8-0.2l-0.1,0.9c-0.2,0.1-0.6,0.2-1,0.2c-0.3,0-0.7-0.1-0.9-0.2c-0.3-0.1-0.5-0.4-0.7-0.7
			c-0.2-0.3-0.3-0.7-0.3-1.3v-0.6h0.3c-0.1,0.6-0.4,1.2-0.9,1.7c-0.5,0.4-1,0.7-1.7,0.9c-0.6,0.2-1.2,0.3-1.9,0.3
			c-0.7,0-1.3-0.1-1.9-0.3c-0.5-0.2-1-0.5-1.3-1c-0.3-0.4-0.5-0.9-0.5-1.7c0-0.8,0.3-1.6,0.8-2.1s1.3-0.9,2.4-1l4.8-0.9v0.9
			l-4.1,0.8c-0.9,0.2-1.6,0.4-2,0.8c-0.4,0.3-0.6,0.8-0.6,1.5c0,0.6,0.2,1.1,0.7,1.5s1.1,0.5,2,0.5c0.4,0,0.9-0.1,1.3-0.2
			c0.4-0.1,0.8-0.3,1.2-0.6c0.4-0.3,0.7-0.6,0.9-1c0.2-0.4,0.3-0.9,0.3-1.5v-3.3H804.4z"/>
		<path class="st0" d="M817.4,484.5v14c0,0.7,0.1,1.2,0.4,1.5c0.2,0.3,0.6,0.4,1.1,0.4c0.3,0,0.6,0,0.7-0.1c0.2,0,0.4-0.1,0.6-0.2
			l-0.2,1c-0.2,0.1-0.4,0.2-0.6,0.2c-0.2,0-0.5,0.1-0.8,0.1c-0.8,0-1.5-0.2-1.8-0.7c-0.4-0.4-0.6-1.1-0.6-2.2v-14L817.4,484.5
			L817.4,484.5z"/>
		<path class="st0" d="M829.6,493.6c0-1-0.3-1.8-0.8-2.3s-1.2-0.8-2.3-0.8c-0.8,0-1.7,0.2-2.3,0.5c-0.6,0.4-1,1-1.3,1.9l-0.9-0.6
			c0.3-0.9,0.9-1.6,1.7-2.1c0.8-0.5,1.8-0.7,2.9-0.7c0.8,0,1.6,0.1,2.2,0.4c0.6,0.3,1.1,0.7,1.5,1.3c0.3,0.6,0.5,1.3,0.5,2.2v5.7
			c0,0.8,0.4,1.2,1.1,1.2c0.3,0,0.6-0.1,0.8-0.2l-0.1,0.9c-0.2,0.1-0.6,0.2-1,0.2c-0.3,0-0.7-0.1-0.9-0.2c-0.3-0.1-0.5-0.4-0.7-0.7
			c-0.2-0.3-0.3-0.7-0.3-1.3v-0.6h0.3c-0.1,0.6-0.4,1.2-0.9,1.7c-0.5,0.4-1,0.7-1.7,0.9c-0.6,0.2-1.2,0.3-1.9,0.3
			c-0.7,0-1.3-0.1-1.9-0.3c-0.5-0.2-1-0.5-1.3-1c-0.3-0.4-0.5-0.9-0.5-1.7c0-0.8,0.3-1.6,0.8-2.1s1.3-0.9,2.4-1l4.8-0.9v0.9
			l-4.1,0.8c-0.9,0.2-1.6,0.4-2,0.8c-0.4,0.3-0.6,0.8-0.6,1.5c0,0.6,0.2,1.1,0.7,1.5s1.1,0.5,2,0.5c0.4,0,0.9-0.1,1.3-0.2
			c0.4-0.1,0.8-0.3,1.2-0.6c0.4-0.3,0.7-0.6,0.9-1c0.2-0.4,0.3-0.9,0.3-1.5v-3.3H829.6z"/>
		<path class="st0" d="M646.5,533.4v-16.2h1l0.1,3.2l-0.2-0.2c0.2-0.6,0.5-1.2,0.9-1.7c0.4-0.5,0.9-0.8,1.6-1.1
			c0.6-0.2,1.2-0.4,2-0.4c0.9,0,1.9,0.2,2.6,0.7c0.7,0.5,1.3,1.1,1.9,2.1c0.4,0.9,0.7,2,0.7,3.2c0,1.2-0.2,2.3-0.7,3.2
			c-0.4,0.9-1,1.6-1.9,2.1c-0.8,0.5-1.7,0.7-2.7,0.7s-2-0.3-2.7-0.8c-0.7-0.5-1.3-1.3-1.7-2.3l0.1-0.2v7.9h-1V533.4z M651.7,527.8
			c1.2,0,2.3-0.4,3.1-1.3c0.7-0.9,1.1-2.1,1.1-3.6c0-1.6-0.4-2.7-1.1-3.6c-0.7-0.8-1.8-1.3-3-1.3c-0.8,0-1.6,0.2-2.2,0.6
			c-0.6,0.4-1.1,0.9-1.5,1.7c-0.3,0.7-0.5,1.7-0.5,2.6c0,1,0.2,1.9,0.5,2.6c0.3,0.7,0.8,1.3,1.5,1.8
			C650.2,527.6,650.9,527.8,651.7,527.8z"/>
		<path class="st0" d="M660.3,528.6v-11.4h0.9l0.1,2.4c0.3-0.8,0.7-1.5,1.3-1.9c0.6-0.5,1.5-0.7,2.3-0.7c0.3,0,0.6,0,0.8,0.1
			c0.2,0.1,0.4,0.2,0.6,0.3l-0.3,1c-0.2-0.1-0.3-0.2-0.5-0.2c-0.2-0.1-0.5-0.1-0.9-0.1c-0.6,0-1.1,0.2-1.7,0.5
			c-0.5,0.3-0.9,0.8-1.2,1.5c-0.3,0.6-0.5,1.3-0.5,2.2v6.4h-0.9V528.6z"/>
		<path class="st0" d="M673,517c1,0,2,0.2,2.8,0.7c0.8,0.5,1.5,1.1,1.9,2.1c0.4,0.9,0.7,2,0.7,3.2c0,1.2-0.2,2.3-0.7,3.2
			c-0.4,0.9-1.1,1.6-1.9,2.1c-0.8,0.5-1.8,0.7-2.8,0.7c-1,0-2-0.2-2.8-0.7s-1.5-1.1-1.9-2.1c-0.4-0.9-0.7-2-0.7-3.2
			c0-1.2,0.2-2.3,0.7-3.2c0.4-0.9,1.1-1.6,1.9-2.1C671.1,517.2,672,517,673,517z M673,517.9c-0.8,0-1.7,0.2-2.3,0.6
			c-0.6,0.4-1.1,0.9-1.5,1.7c-0.3,0.7-0.5,1.7-0.5,2.7s0.2,1.9,0.5,2.7c0.3,0.7,0.8,1.3,1.5,1.8s1.3,0.6,2.3,0.6
			c0.8,0,1.7-0.2,2.3-0.6c0.6-0.4,1.1-0.9,1.5-1.8c0.3-0.7,0.5-1.7,0.5-2.7s-0.2-2-0.5-2.7c-0.3-0.7-0.8-1.3-1.5-1.7
			C674.7,518.1,674,517.9,673,517.9z"/>
		<path class="st0" d="M687.8,517.2v0.9h-7.7v-0.9H687.8z M683.5,514v11.6c0,0.7,0.2,1.2,0.5,1.7c0.3,0.4,0.8,0.5,1.5,0.5
			c0.4,0,0.8-0.1,1.1-0.2c0.3-0.1,0.6-0.3,0.8-0.6l0.4,0.9c-0.3,0.3-0.6,0.5-1.1,0.7c-0.5,0.2-0.9,0.3-1.5,0.3
			c-0.6,0-1.1-0.1-1.6-0.3c-0.4-0.2-0.8-0.5-1-1c-0.2-0.5-0.4-1-0.4-1.8v-11.4L683.5,514z"/>
		<path class="st0" d="M694.8,528.8c-1,0-2-0.2-2.8-0.7c-0.8-0.5-1.5-1.1-2-2.1c-0.4-0.9-0.7-2-0.7-3.2c0-1.2,0.2-2.3,0.7-3.2
			c0.4-0.9,1.1-1.6,1.9-2.1c0.8-0.5,1.7-0.7,2.7-0.7s1.9,0.2,2.7,0.7c0.7,0.4,1.2,1.1,1.7,1.9c0.4,0.8,0.6,1.8,0.6,2.8
			c0,0.1,0,0.3,0,0.4c0,0.1,0,0.2,0,0.3h-9.4v-1h8.9l-0.6,0.2c0-1.3-0.3-2.4-1-3.1c-0.7-0.7-1.7-1.1-2.8-1.1c-0.8,0-1.6,0.2-2.2,0.6
			c-0.6,0.4-1.1,0.9-1.5,1.7c-0.3,0.7-0.5,1.7-0.5,2.7s0.2,1.9,0.5,2.7c0.3,0.7,0.8,1.3,1.6,1.7c0.6,0.4,1.3,0.6,2.3,0.6
			s1.7-0.2,2.3-0.5c0.6-0.4,1.1-0.9,1.5-1.6l0.9,0.5c-0.3,0.5-0.6,1-1.1,1.5c-0.4,0.4-0.9,0.7-1.6,0.9
			C696.2,528.8,695.6,528.8,694.8,528.8z"/>
		<path class="st0" d="M707.5,517c0.7,0,1.5,0.1,2.1,0.4c0.6,0.2,1.1,0.6,1.6,1c0.4,0.4,0.7,1,0.9,1.7l-1,0.5
			c-0.2-0.8-0.6-1.5-1.2-1.9c-0.6-0.4-1.3-0.6-2.3-0.6c-0.8,0-1.6,0.2-2.2,0.6c-0.6,0.4-1.1,0.9-1.5,1.7c-0.3,0.7-0.5,1.7-0.5,2.7
			c0,1,0.2,1.9,0.5,2.7c0.3,0.7,0.8,1.3,1.5,1.7c0.6,0.4,1.3,0.6,2.2,0.6c0.6,0,1.2-0.1,1.8-0.3c0.5-0.2,0.9-0.5,1.3-0.9
			c0.4-0.4,0.5-0.9,0.6-1.5l1,0.4c-0.2,0.7-0.5,1.3-0.9,1.8c-0.4,0.5-1,0.9-1.7,1.1c-0.6,0.3-1.3,0.4-2.2,0.4c-1,0-2-0.2-2.8-0.7
			c-0.8-0.5-1.5-1.1-1.9-2.1c-0.4-0.9-0.7-2-0.7-3.2s0.2-2.3,0.7-3.2c0.4-0.9,1.1-1.6,1.9-2.1C705.5,517.2,706.4,517,707.5,517z"/>
		<path class="st0" d="M719.9,517c0.7,0,1.5,0.1,2.1,0.4c0.6,0.2,1.1,0.6,1.6,1c0.4,0.4,0.7,1,0.9,1.7l-1,0.5
			c-0.2-0.8-0.6-1.5-1.2-1.9c-0.6-0.4-1.3-0.6-2.3-0.6c-0.8,0-1.6,0.2-2.2,0.6c-0.6,0.4-1.1,0.9-1.5,1.7c-0.3,0.7-0.5,1.7-0.5,2.7
			c0,1,0.2,1.9,0.5,2.7c0.3,0.7,0.8,1.3,1.5,1.7c0.6,0.4,1.3,0.6,2.2,0.6c0.6,0,1.2-0.1,1.8-0.3c0.5-0.2,0.9-0.5,1.3-0.9
			c0.4-0.4,0.5-0.9,0.6-1.5l1,0.4c-0.2,0.7-0.5,1.3-0.9,1.8c-0.4,0.5-1,0.9-1.7,1.1c-0.6,0.2-1.3,0.4-2.2,0.4c-1,0-2-0.2-2.8-0.7
			s-1.5-1.1-1.9-2.1c-0.4-0.9-0.7-2-0.7-3.2s0.2-2.3,0.7-3.2c0.4-0.9,1.1-1.6,1.9-2.1C718,517.2,718.9,517,719.9,517z"/>
		<path class="st0" d="M728.2,515c-0.3,0-0.5-0.1-0.7-0.3c-0.2-0.2-0.3-0.4-0.3-0.7c0-0.3,0.1-0.5,0.3-0.7c0.2-0.2,0.4-0.3,0.7-0.3
			c0.3,0,0.5,0.1,0.7,0.3c0.2,0.2,0.3,0.4,0.3,0.7s-0.1,0.5-0.3,0.7C728.7,514.9,728.5,515,728.2,515z M728.8,517.2v11.4h-1.1v-11.4
			H728.8z"/>
		<path class="st0" d="M737.6,517c1,0,2,0.2,2.8,0.7c0.8,0.5,1.5,1.1,1.9,2.1c0.4,0.9,0.7,2,0.7,3.2c0,1.2-0.2,2.3-0.7,3.2
			c-0.4,0.9-1.1,1.6-1.9,2.1c-0.7,0.5-1.8,0.5-2.8,0.5s-2-0.2-2.8-0.7s-1.5-1.1-1.9-2.1c-0.4-0.9-0.7-2-0.7-3.2
			c0-1.2,0.2-2.3,0.7-3.2c0.4-0.9,1.1-1.6,1.9-2.1C735.6,517.2,736.5,517,737.6,517z M737.6,517.9c-0.8,0-1.7,0.2-2.3,0.6
			c-0.6,0.4-1.1,0.9-1.5,1.7c-0.3,0.7-0.5,1.7-0.5,2.7s0.2,1.9,0.5,2.7c0.3,0.7,0.8,1.3,1.5,1.8c0.6,0.4,1.3,0.6,2.3,0.6
			s1.7-0.2,2.3-0.6c0.6-0.4,1.1-0.9,1.5-1.8c0.3-0.7,0.5-1.7,0.5-2.7s-0.2-2-0.5-2.7c-0.3-0.7-0.8-1.3-1.5-1.7
			C739.2,518.1,738.4,517.9,737.6,517.9z M738.7,511.7h1.2l-2.2,3.6h-0.9L738.7,511.7z"/>
		<path class="st0" d="M746.3,528.6v-11.4h1l0.1,2.9l-0.2-0.2c0.2-0.6,0.5-1.1,0.9-1.6c0.4-0.4,0.9-0.7,1.6-1
			c0.6-0.3,1.2-0.3,1.9-0.3c0.8,0,1.6,0.2,2.3,0.5c0.6,0.3,1.1,0.8,1.6,1.5c0.4,0.6,0.5,1.5,0.5,2.4v7.4h-1.1v-7.2
			c0-1.2-0.3-2.2-0.9-2.7c-0.6-0.6-1.5-0.8-2.4-0.8c-0.7,0-1.3,0.2-2,0.5c-0.6,0.3-1.1,0.8-1.6,1.5c-0.4,0.6-0.6,1.3-0.6,2.3v6.4h-1
			V528.6z"/>
		<path class="st0" d="M771.7,517c0.7,0,1.5,0.1,2.1,0.4c0.6,0.2,1.1,0.6,1.6,1c0.4,0.4,0.7,1,0.9,1.7l-1,0.5
			c-0.2-0.8-0.6-1.5-1.2-1.9c-0.6-0.4-1.3-0.6-2.3-0.6c-0.8,0-1.6,0.2-2.2,0.6c-0.6,0.4-1.1,0.9-1.5,1.7c-0.3,0.7-0.5,1.7-0.5,2.7
			c0,1,0.2,1.9,0.5,2.7c0.3,0.7,0.8,1.3,1.5,1.7c0.6,0.4,1.3,0.6,2.2,0.6c0.6,0,1.2-0.1,1.8-0.3c0.5-0.2,0.9-0.5,1.3-0.9
			c0.4-0.4,0.5-0.9,0.6-1.5l1,0.4c-0.2,0.7-0.5,1.3-0.9,1.8c-0.4,0.5-1,0.9-1.7,1.1c-0.6,0.2-1.3,0.4-2.2,0.4c-1,0-2-0.2-2.8-0.7
			s-1.5-1.1-1.9-2.1c-0.4-0.9-0.7-2-0.7-3.2s0.2-2.3,0.7-3.2c0.4-0.9,1.1-1.6,1.9-2.1C769.7,517.2,770.7,517,771.7,517z"/>
		<path class="st0" d="M784.1,517c1,0,2,0.2,2.8,0.7s1.5,1.1,1.9,2.1c0.4,0.9,0.7,2,0.7,3.2c0,1.2-0.2,2.3-0.7,3.2
			c-0.4,0.9-1.1,1.6-1.9,2.1c-0.8,0.5-1.8,0.7-2.8,0.7s-2-0.2-2.8-0.7c-0.8-0.5-1.5-1.1-1.9-2.1c-0.4-0.9-0.7-2-0.7-3.2
			c0-1.2,0.2-2.3,0.7-3.2c0.4-0.9,1.1-1.6,1.9-2.1C782.1,517.2,783,517,784.1,517z M784.1,517.9c-0.8,0-1.7,0.2-2.3,0.6
			s-1.1,0.9-1.5,1.7c-0.3,0.7-0.5,1.7-0.5,2.7s0.2,1.9,0.5,2.7c0.3,0.7,0.8,1.3,1.5,1.8c0.6,0.4,1.3,0.6,2.3,0.6
			c0.8,0,1.7-0.2,2.3-0.6c0.6-0.4,1.1-0.9,1.5-1.8c0.3-0.7,0.5-1.7,0.5-2.7s-0.2-2-0.5-2.7c-0.3-0.7-0.8-1.3-1.5-1.7
			C785.7,518.1,785,517.9,784.1,517.9z"/>
		<path class="st0" d="M792.8,528.6v-11.4h1l0.1,2.9l-0.2-0.2c0.2-0.6,0.5-1.1,0.9-1.6c0.4-0.4,0.9-0.7,1.6-1
			c0.6-0.2,1.2-0.3,1.9-0.3c0.8,0,1.6,0.2,2.3,0.5c0.6,0.3,1.1,0.8,1.6,1.5s0.5,1.5,0.5,2.4v7.4h-1.1v-7.2c0-1.2-0.3-2.2-0.9-2.7
			c-0.6-0.6-1.5-0.8-2.4-0.8c-0.7,0-1.3,0.2-2,0.5s-1.1,0.8-1.6,1.5c-0.4,0.6-0.6,1.3-0.6,2.3v6.4h-1V528.6z"/>
		<path class="st0" d="M812.3,517.2v0.9h-7.7v-0.9H812.3z M808,514v11.6c0,0.7,0.2,1.2,0.5,1.7c0.3,0.4,0.8,0.5,1.5,0.5
			c0.4,0,0.8-0.1,1.1-0.2c0.3-0.1,0.6-0.3,0.8-0.6l0.4,0.9c-0.3,0.3-0.6,0.5-1.1,0.7c-0.4,0.2-0.9,0.3-1.5,0.3
			c-0.6,0-1.1-0.1-1.6-0.3c-0.4-0.2-0.8-0.5-1-1c-0.2-0.4-0.4-1-0.4-1.8v-11.4L808,514z"/>
		<path class="st0" d="M814.7,528.6v-11.4h0.9l0.1,2.4c0.3-0.8,0.7-1.5,1.3-1.9c0.6-0.5,1.5-0.7,2.3-0.7c0.3,0,0.6,0,0.8,0.1
			c0.2,0.1,0.4,0.2,0.6,0.3l-0.3,1c-0.2-0.1-0.3-0.2-0.5-0.2c-0.2-0.1-0.5-0.1-0.9-0.1c-0.6,0-1.1,0.2-1.7,0.5
			c-0.5,0.3-0.9,0.8-1.2,1.5s-0.5,1.3-0.5,2.2v6.4h-0.9V528.6z"/>
		<path class="st0" d="M830.1,521c0-1-0.3-1.8-0.8-2.3s-1.2-0.8-2.3-0.8c-0.8,0-1.7,0.2-2.3,0.5c-0.6,0.4-1,1-1.3,1.9l-0.9-0.6
			c0.3-0.9,0.9-1.6,1.7-2.1c0.8-0.5,1.8-0.7,2.9-0.7c0.8,0,1.6,0.1,2.2,0.4c0.6,0.3,1.1,0.7,1.5,1.3c0.3,0.6,0.5,1.3,0.5,2.2v5.7
			c0,0.8,0.4,1.2,1.1,1.2c0.3,0,0.6-0.1,0.8-0.2l-0.1,0.9c-0.2,0.1-0.6,0.2-1,0.2c-0.3,0-0.7-0.1-0.9-0.2c-0.3-0.1-0.5-0.4-0.7-0.7
			c-0.2-0.3-0.3-0.7-0.3-1.3v-0.6h0.3c-0.1,0.6-0.4,1.2-0.9,1.7s-1,0.7-1.7,0.9c-0.6,0.2-1.2,0.3-1.9,0.3c-0.7,0-1.3-0.1-1.9-0.3
			s-1-0.5-1.3-1c-0.3-0.4-0.5-0.9-0.5-1.7c0-0.8,0.3-1.6,0.8-2.1s1.3-0.9,2.4-1l4.8-0.9v0.9l-4.1,0.8c-0.9,0.2-1.6,0.4-2,0.8
			c-0.4,0.3-0.6,0.8-0.6,1.5s0.2,1.1,0.7,1.5c0.5,0.3,1.1,0.5,2,0.5c0.4,0,0.9-0.1,1.3-0.2c0.4-0.1,0.8-0.3,1.2-0.6
			c0.4-0.3,0.7-0.6,0.9-1c0.2-0.4,0.3-0.9,0.3-1.5V521H830.1z"/>
		<path class="st0" d="M847.7,517.2v0.9h-7.7v-0.9H847.7z M843.5,514v11.6c0,0.7,0.2,1.2,0.5,1.7s0.8,0.5,1.5,0.5
			c0.4,0,0.8-0.1,1.1-0.2c0.3-0.1,0.6-0.3,0.8-0.6l0.4,0.9c-0.3,0.3-0.6,0.5-1.1,0.7c-0.4,0.2-0.9,0.3-1.5,0.3
			c-0.6,0-1.1-0.1-1.6-0.3c-0.4-0.2-0.8-0.5-1-1c-0.2-0.4-0.4-1-0.4-1.8v-11.4L843.5,514z"/>
		<path class="st0" d="M854.9,517c1,0,2,0.2,2.8,0.7s1.5,1.1,1.9,2.1c0.4,0.9,0.7,2,0.7,3.2c0,1.2-0.2,2.3-0.7,3.2
			c-0.4,0.9-1.1,1.6-1.9,2.1c-0.7,0.5-1.8,0.7-2.8,0.7s-2-0.2-2.8-0.7c-0.8-0.5-1.5-1.1-1.9-2.1c-0.4-0.9-0.7-2-0.7-3.2
			c0-1.2,0.2-2.3,0.7-3.2c0.4-0.9,1.1-1.6,1.9-2.1C852.8,517.2,853.7,517,854.9,517z M854.9,517.9c-0.8,0-1.7,0.2-2.3,0.6
			s-1.1,0.9-1.5,1.7c-0.3,0.7-0.5,1.7-0.5,2.7s0.2,1.9,0.5,2.7c0.3,0.7,0.8,1.3,1.5,1.8c0.6,0.4,1.3,0.6,2.3,0.6s1.7-0.2,2.3-0.6
			c0.6-0.4,1.1-0.9,1.5-1.8c0.3-0.7,0.5-1.7,0.5-2.7s-0.2-2-0.5-2.7c-0.3-0.7-0.8-1.3-1.5-1.7C856.4,518.1,855.7,517.9,854.9,517.9z
			"/>
		<path class="st0" d="M868,528.8c-1,0-1.9-0.2-2.7-0.7c-0.8-0.5-1.5-1.1-1.9-2.1c-0.4-0.9-0.6-2-0.6-3.2c0-1.2,0.2-2.4,0.7-3.2
			c0.5-0.9,1.1-1.6,1.9-2c0.7-0.4,1.7-0.7,2.7-0.7s2,0.3,2.7,0.8s1.2,1.3,1.6,2.3l-0.1,0.1v-8.3h1.1v16.7h-1l-0.1-3.2h0.1
			c-0.1,0.7-0.4,1.3-0.8,1.9c-0.4,0.5-0.9,0.9-1.6,1.1C869.3,528.5,868.7,528.8,868,528.8z M868.2,527.8c0.8,0,1.6-0.2,2.1-0.6
			c0.6-0.4,1-0.9,1.5-1.8s0.5-1.7,0.5-2.7s-0.2-1.9-0.5-2.6c-0.3-0.7-0.8-1.2-1.5-1.7c-0.6-0.4-1.2-0.6-2.1-0.6
			c-1.3,0-2.4,0.4-3.1,1.3c-0.7,0.9-1.1,2.1-1.1,3.6s0.4,2.7,1.1,3.6C865.8,527.4,866.8,527.8,868.2,527.8z"/>
		<path class="st0" d="M884.4,521c0-1-0.3-1.8-0.8-2.3s-1.2-0.8-2.3-0.8c-0.8,0-1.7,0.2-2.3,0.5c-0.6,0.4-1,1-1.3,1.9l-0.9-0.6
			c0.3-0.9,0.9-1.6,1.7-2.1c0.8-0.5,1.8-0.7,2.9-0.7c0.8,0,1.6,0.1,2.2,0.4s1.1,0.7,1.5,1.3c0.3,0.6,0.5,1.3,0.5,2.2v5.7
			c0,0.8,0.4,1.2,1.1,1.2c0.3,0,0.6-0.1,0.8-0.2l-0.1,0.9c-0.2,0.1-0.6,0.2-1,0.2c-0.3,0-0.7-0.1-0.9-0.2c-0.3-0.1-0.5-0.4-0.7-0.7
			c-0.2-0.3-0.3-0.7-0.3-1.3v-0.6h0.3c-0.1,0.6-0.4,1.2-0.9,1.7s-1,0.7-1.7,0.9c-0.6,0.2-1.2,0.3-1.9,0.3c-0.7,0-1.3-0.1-1.9-0.3
			s-1-0.5-1.3-1c-0.3-0.4-0.5-0.9-0.5-1.7c0-0.8,0.3-1.6,0.8-2.1s1.3-0.9,2.4-1l4.8-0.9v0.9l-4.1,0.8c-0.9,0.2-1.6,0.4-2,0.8
			c-0.4,0.3-0.6,0.8-0.6,1.5s0.2,1.1,0.7,1.5c0.5,0.3,1.1,0.5,2,0.5c0.4,0,0.9-0.1,1.3-0.2c0.4-0.1,0.8-0.3,1.2-0.6s0.7-0.6,0.9-1
			c0.2-0.4,0.3-0.9,0.3-1.5V521H884.4z"/>
		<path class="st0" d="M689.7,556.2c-0.9,0-1.8-0.2-2.5-0.7c-0.7-0.5-1.3-1.1-1.8-2.1c-0.4-0.9-0.6-2-0.6-3.2c0-1.2,0.2-2.4,0.6-3.2
			c0.4-0.9,1-1.6,1.8-2.1c0.7-0.4,1.6-0.7,2.6-0.7s1.9,0.3,2.5,0.8c0.6,0.6,1,1.3,1.2,2.3l-0.3,0.4v-8.2h3.1v16.4h-2.8l-0.2-3.4
			l0.4,0.2c-0.1,0.7-0.3,1.3-0.7,1.9s-0.8,0.9-1.5,1.2C691.1,556.1,690.5,556.2,689.7,556.2z M690.7,553.8c0.5,0,1-0.1,1.5-0.4
			s0.7-0.7,0.9-1.2c0.2-0.5,0.3-1.2,0.3-2c0-0.7-0.1-1.3-0.3-1.9c-0.2-0.5-0.5-0.9-0.9-1.1c-0.4-0.3-0.8-0.4-1.3-0.4
			c-0.8,0-1.6,0.3-2,0.9c-0.5,0.6-0.7,1.5-0.7,2.6s0.2,2.1,0.7,2.6C689.2,553.5,689.8,553.8,690.7,553.8z"/>
		<path class="st0" d="M701.4,542.9c-0.6,0-1.1-0.1-1.5-0.4c-0.3-0.3-0.5-0.7-0.5-1.2s0.2-1,0.5-1.2c0.3-0.3,0.8-0.4,1.5-0.4
			c0.6,0,1.1,0.1,1.5,0.4c0.3,0.3,0.5,0.7,0.5,1.2s-0.2,0.9-0.5,1.2C702.5,542.8,702,542.9,701.4,542.9z M702.9,544.6V556h-3.1
			v-11.4H702.9z"/>
		<path class="st0" d="M710.7,556.2c-1.1,0-2.2-0.2-3.1-0.6c-0.9-0.4-1.8-1-2.3-1.8l1.8-1.9c0.4,0.5,0.8,1,1.5,1.3
			c0.6,0.3,1.3,0.5,2.2,0.5c0.6,0,1-0.1,1.5-0.3c0.3-0.2,0.5-0.4,0.5-0.8c0-0.2-0.1-0.4-0.2-0.6c-0.2-0.2-0.5-0.3-1-0.4l-2-0.4
			c-1.3-0.3-2.3-0.7-2.8-1.2c-0.5-0.5-0.8-1.2-0.8-2.2c0-0.6,0.2-1.2,0.5-1.8c0.4-0.5,0.9-1,1.7-1.3c0.7-0.3,1.7-0.5,2.8-0.5
			c1.1,0,2.2,0.2,3,0.5c0.8,0.3,1.6,0.9,2,1.6l-1.9,1.9c-0.3-0.5-0.7-0.9-1.3-1.2c-0.6-0.3-1.1-0.4-1.7-0.4c-0.4,0-0.8,0-1.1,0.1
			s-0.5,0.2-0.7,0.4c-0.2,0.2-0.2,0.3-0.2,0.6s0.1,0.4,0.3,0.6c0.2,0.2,0.6,0.3,1.1,0.4l2.3,0.5c1.1,0.2,2,0.6,2.4,1.1
			c0.5,0.5,0.7,1.1,0.7,2c0,0.7-0.2,1.3-0.6,2c-0.4,0.5-0.9,1-1.7,1.3C712.8,556,711.8,556.2,710.7,556.2z"/>
		<path class="st0" d="M723.5,544.4c1,0,1.9,0.1,2.6,0.4c0.7,0.3,1.2,0.7,1.7,1.2c0.4,0.5,0.7,1,0.9,1.7l-2.9,1
			c-0.1-0.7-0.4-1.2-0.7-1.6c-0.4-0.3-0.8-0.5-1.5-0.5c-0.6,0-1,0.1-1.5,0.4c-0.4,0.3-0.7,0.6-0.9,1.2c-0.2,0.5-0.3,1.2-0.3,2
			s0.1,1.5,0.3,2c0.2,0.5,0.5,0.9,0.9,1.1c0.4,0.2,0.9,0.4,1.5,0.4c0.4,0,0.8-0.1,1.1-0.2c0.3-0.2,0.6-0.4,0.8-0.7
			c0.2-0.3,0.3-0.6,0.4-1.1l2.8,0.9c-0.2,0.7-0.5,1.2-0.9,1.8s-1,0.9-1.8,1.2c-0.7,0.3-1.6,0.4-2.5,0.4c-1.1,0-2.2-0.2-3.1-0.7
			s-1.6-1.1-2.1-2.1c-0.5-0.9-0.7-2-0.7-3.2c0-1.2,0.2-2.3,0.7-3.2c0.5-0.9,1.1-1.6,2.1-2.1C721.3,544.6,722.3,544.4,723.5,544.4z"
			/>
		<path class="st0" d="M731.1,556v-11.4h2.7l0.2,2.3c0.3-0.8,0.7-1.3,1.3-1.9c0.6-0.4,1.3-0.6,2.2-0.6c0.2,0,0.5,0,0.7,0.1
			c0.2,0,0.4,0.1,0.5,0.2l-0.4,2.6c-0.1-0.1-0.3-0.1-0.5-0.1c-0.2,0-0.5,0-0.8,0c-0.4,0-0.9,0.1-1.3,0.3c-0.4,0.2-0.7,0.5-1,1
			c-0.3,0.4-0.4,1-0.4,1.7v5.9h-3.1V556z"/>
		<path class="st0" d="M742.3,542.9c-0.6,0-1.1-0.1-1.5-0.4c-0.3-0.3-0.5-0.7-0.5-1.2s0.2-1,0.5-1.2c0.3-0.3,0.8-0.4,1.5-0.4
			c0.6,0,1.1,0.1,1.5,0.4c0.3,0.3,0.5,0.7,0.5,1.2s-0.2,0.9-0.5,1.2C743.5,542.8,743,542.9,742.3,542.9z M743.9,544.6V556h-3.1
			v-11.4H743.9z"/>
		<path class="st0" d="M747.2,556v-11.4h2.8l0.1,2.1c0.4-0.7,0.9-1.3,1.6-1.7c0.6-0.4,1.3-0.6,2.2-0.6c0.8,0,1.6,0.2,2.2,0.6
			c0.6,0.4,1.1,0.9,1.5,1.7c0.2-0.5,0.5-0.9,0.9-1.2c0.4-0.3,0.8-0.6,1.3-0.7c0.5-0.2,1-0.2,1.6-0.2c0.7,0,1.5,0.1,2.1,0.4
			s1.1,0.7,1.5,1.3c0.4,0.6,0.5,1.3,0.5,2.3v7.5h-3.1v-6.8c0-0.8-0.2-1.5-0.5-1.8c-0.4-0.3-0.8-0.5-1.5-0.5c-0.4,0-0.8,0.1-1.2,0.3
			s-0.7,0.5-0.9,1c-0.2,0.5-0.3,1-0.3,1.7v6.1h-3.1v-6.8c0-0.8-0.2-1.5-0.5-1.8c-0.4-0.3-0.8-0.5-1.5-0.5c-0.4,0-0.8,0.1-1.1,0.3
			c-0.4,0.2-0.7,0.5-0.9,1c-0.2,0.5-0.4,1-0.4,1.8v6L747.2,556L747.2,556z"/>
		<path class="st0" d="M770.3,542.9c-0.6,0-1.1-0.1-1.5-0.4c-0.3-0.3-0.5-0.7-0.5-1.2s0.2-1,0.5-1.2c0.3-0.3,0.8-0.4,1.5-0.4
			s1.1,0.1,1.5,0.4c0.3,0.3,0.5,0.7,0.5,1.2s-0.2,0.9-0.5,1.2C771.5,542.8,771,542.9,770.3,542.9z M771.9,544.6V556h-3.1v-11.4
			H771.9z"/>
		<path class="st0" d="M775.2,556v-11.4h2.8l0.2,3.4l-0.4-0.4c0.2-0.7,0.5-1.3,0.8-1.9c0.4-0.5,0.8-0.8,1.5-1
			c0.5-0.2,1.2-0.4,1.9-0.4c0.8,0,1.5,0.1,2.1,0.4c0.6,0.3,1.1,0.7,1.5,1.3c0.3,0.6,0.5,1.3,0.5,2.3v7.5h-3.1v-6.6
			c0-0.9-0.2-1.7-0.5-2c-0.4-0.4-0.8-0.5-1.5-0.5c-0.4,0-0.8,0.1-1.2,0.3c-0.4,0.2-0.7,0.5-0.9,1c-0.2,0.4-0.4,1-0.4,1.9v6h-3.1V556
			z"/>
		<path class="st0" d="M795.9,548.7c0-0.6-0.2-1.1-0.5-1.6c-0.4-0.4-0.8-0.5-1.5-0.5c-0.5,0-1,0.1-1.5,0.4c-0.4,0.3-0.7,0.7-0.9,1.5
			l-2.7-0.8c0.2-1,0.8-1.8,1.7-2.4c0.8-0.6,2.1-0.9,3.5-0.9c1,0,1.9,0.2,2.6,0.5c0.7,0.3,1.3,0.8,1.8,1.5c0.4,0.6,0.6,1.5,0.6,2.4
			v4.7c0,0.6,0.3,0.8,0.8,0.8c0.2,0,0.5,0,0.7-0.1l-0.2,2c-0.4,0.2-0.9,0.3-1.5,0.3c-0.5,0-1-0.1-1.5-0.3c-0.4-0.2-0.7-0.4-1-0.8
			c-0.3-0.4-0.4-0.8-0.4-1.5v-0.1l0.5-0.1c-0.1,0.6-0.3,1-0.7,1.5c-0.4,0.4-0.9,0.7-1.5,0.9c-0.6,0.2-1.1,0.3-1.8,0.3
			c-0.7,0-1.5-0.1-2-0.3c-0.5-0.2-1-0.6-1.3-1c-0.3-0.4-0.4-1-0.4-1.7c0-0.8,0.3-1.6,0.8-2.1c0.5-0.5,1.3-0.9,2.4-1.1l4.3-0.8v2
			l-2.7,0.5c-0.5,0.1-0.9,0.2-1.1,0.4c-0.2,0.2-0.4,0.4-0.4,0.8c0,0.4,0.1,0.6,0.4,0.8c0.3,0.2,0.6,0.3,1,0.3c0.3,0,0.6,0,0.9-0.1
			c0.3-0.1,0.6-0.2,0.8-0.4s0.4-0.4,0.5-0.7c0.1-0.3,0.2-0.6,0.2-1v-3.1H795.9z"/>
		<path class="st0" d="M807.6,544.4c1,0,1.9,0.1,2.6,0.4c0.7,0.3,1.2,0.7,1.8,1.2c0.4,0.5,0.7,1,0.9,1.7l-2.9,1
			c-0.1-0.7-0.4-1.2-0.7-1.6c-0.4-0.3-0.8-0.5-1.5-0.5c-0.6,0-1,0.1-1.5,0.4c-0.4,0.3-0.7,0.6-0.9,1.2c-0.2,0.5-0.3,1.2-0.3,2
			s0.1,1.5,0.3,2c0.2,0.5,0.5,0.9,0.9,1.1c0.4,0.2,0.9,0.4,1.5,0.4c0.4,0,0.8-0.1,1.1-0.2c0.3-0.2,0.6-0.4,0.8-0.7
			c0.2-0.3,0.3-0.6,0.4-1.1l2.8,0.9c-0.2,0.7-0.5,1.2-0.9,1.8c-0.4,0.5-1,0.9-1.8,1.2c-0.7,0.3-1.6,0.4-2.5,0.4
			c-1.1,0-2.2-0.2-3.1-0.7s-1.6-1.1-2.1-2.1c-0.5-0.9-0.7-2-0.7-3.2c0-1.2,0.2-2.3,0.7-3.2c0.5-0.9,1.1-1.6,2.1-2.1
			C805.4,544.6,806.4,544.4,807.6,544.4z"/>
		<path class="st0" d="M816.8,542.9c-0.6,0-1.1-0.1-1.5-0.4c-0.3-0.3-0.5-0.7-0.5-1.2s0.2-1,0.5-1.2c0.3-0.3,0.8-0.4,1.5-0.4
			c0.6,0,1.1,0.1,1.5,0.4c0.3,0.3,0.5,0.7,0.5,1.2s-0.2,0.9-0.5,1.2C818,542.8,817.4,542.9,816.8,542.9z M818.4,544.6V556h-3.1
			v-11.4H818.4z"/>
		<path class="st0" d="M826.9,544.4c1.1,0,2.2,0.2,3,0.7c0.8,0.5,1.6,1.1,2.1,2.1c0.5,0.9,0.7,2,0.7,3.2c0,1.2-0.2,2.3-0.7,3.2
			c-0.5,0.9-1.1,1.6-2.1,2.1c-0.8,0.5-1.9,0.7-3,0.7c-1.1,0-2.2-0.2-3-0.7c-0.9-0.5-1.6-1.1-2.1-2.1c-0.5-0.9-0.7-2-0.7-3.2
			c0-1.2,0.2-2.3,0.7-3.2c0.5-0.9,1.1-1.6,2.1-2.1C824.7,544.6,825.7,544.4,826.9,544.4z M826.9,546.7c-0.6,0-1,0.1-1.5,0.4
			c-0.4,0.3-0.7,0.6-0.9,1.2c-0.2,0.5-0.3,1.2-0.3,2s0.1,1.5,0.3,2s0.5,0.9,0.9,1.2c0.4,0.3,0.9,0.4,1.5,0.4s1-0.1,1.5-0.4
			c0.4-0.3,0.7-0.6,0.9-1.2c0.2-0.6,0.3-1.2,0.3-2s-0.1-1.5-0.3-2c-0.2-0.5-0.5-0.9-0.9-1.2C827.9,546.8,827.4,546.7,826.9,546.7z
			 M827,539.1h3l-2.3,3.8h-2.3L827,539.1z"/>
		<path class="st0" d="M835.4,556v-11.4h2.8l0.2,3.4l-0.4-0.4c0.2-0.7,0.5-1.3,0.8-1.9c0.4-0.5,0.8-0.8,1.5-1
			c0.5-0.2,1.2-0.4,1.9-0.4c0.8,0,1.5,0.1,2.1,0.4c0.6,0.3,1.1,0.7,1.5,1.3c0.3,0.6,0.5,1.3,0.5,2.3v7.5h-3.1v-6.6
			c0-0.9-0.2-1.7-0.5-2c-0.4-0.4-0.8-0.5-1.5-0.5c-0.4,0-0.8,0.1-1.2,0.3c-0.4,0.2-0.7,0.5-0.9,1c-0.2,0.4-0.4,1-0.4,1.9v6h-3.1V556
			z"/>
	</g>
</g>
</svg>
