<?xml version="1.0" encoding="utf-8"?>
<!-- Generator: Adobe Illustrator 24.2.3, SVG Export Plug-In . SVG Version: 6.00 Build 0)  -->
<svg version="1.1" id="Layer_1" xmlns="http://www.w3.org/2000/svg" xmlns:xlink="http://www.w3.org/1999/xlink" x="0px" y="0px"
	 viewBox="0 0 895 556.4" style="enable-background:new 0 0 895 556.4;" xml:space="preserve">
<style type="text/css">
	.st0{fill:#FFFFFF;stroke:#0071BB;stroke-width:0.5;stroke-miterlimit:10;}
	.st1{fill:#FECA57;}
	.st2{fill:#1DD1A1;}
	.st3{fill:#48DBFB;}
	.st4{fill:#8395A7;}
	.st5{clip-path:url(#SVGID_4_);}
	.st6{fill:#C59B6D;}
	.st7{fill:#54A0FF;}
	.st8{clip-path:url(#SVGID_6_);fill:#54A0FF;}
	.st9{clip-path:url(#SVGID_8_);fill:#FECA57;}
	.st10{fill:#FF6B6B;}
	.st11{fill:none;}
	.st12{fill:#FF9FF3;}
</style>
<g>
	<g>
		<circle class="st0" cx="505" cy="156.8" r="80"/>
		<g>
			<path class="st1" d="M514,116.1c-8.3-0.1-13,4-13.5,11.7v0.6h0.7c0,0,0,0,0.1,0s0.1,0,0.3,0c0.3,0,0.6,0,0.8,0c0.3,0,0.6,0,0.8,0
				c0.2,0,0.2,0,0.3,0c0.1,0,0.1,0,0.1,0c0.1,0.1,0.1,0.1,0.5-0.7c0.5-5.6,3.6-8.2,10-8.1c1,0,1.8-0.8,1.8-1.8
				C515.8,116.9,515,116.1,514,116.1z"/>
			<path class="st2" d="M512.7,126.3c-3.3-0.5-7.2-0.4-9.3,1.5c-0.6,0.6-1.1,0.8-2.4,0.1c-2.7-1.6-6-2.1-9.4-1.6
				c-8.1,1.3-13,8.1-11.6,17c1.7,10.7,10.7,23.9,17.9,22.8c1.5-0.2,2.9-1.1,4.2-2.4c1.2,1.3,2.6,2.1,4.2,2.4
				c7.2,1.1,16.2-12.1,17.9-22.8C525.8,134.4,520.8,127.6,512.7,126.3z"/>
		</g>
	</g>
	<g>
		<circle class="st0" cx="622.6" cy="216.9" r="55"/>
		<g>
			<path class="st3" d="M624.1,187.1c-3.9,3.9-18.2,19.1-18.2,32.6c0,9.6,8.2,17.4,18.2,17.4s18.2-7.8,18.2-17.4
				C642.3,206.2,627.9,191,624.1,187.1z M624.1,233.7c-8.1,0-14.7-6.3-14.7-14.2c0-0.4,0.3-0.7,0.7-0.7s0.7,0.3,0.7,0.7
				c0,7,6,12.7,13.3,12.7c0.4,0,0.7,0.3,0.7,0.7C624.8,233.4,624.5,233.7,624.1,233.7z"/>
		</g>
	</g>
	<g>
		<path class="st1" d="M688.7,360.7c-0.1-0.1-0.3-0.3-0.4-0.4l-0.9-0.8l-0.9,0.8c-0.1,0.1-0.3,0.3-0.4,0.4v-24.3
			c0-0.7,0.6-1.3,1.3-1.3c0.7,0,1.3,0.6,1.3,1.3L688.7,360.7L688.7,360.7z"/>
		<circle class="st0" cx="649.1" cy="346.2" r="80"/>
		<path class="st4" d="M679.4,333.3l-23.5-13c-0.4-0.2-0.9-0.2-1.3,0l-23.5,13c-0.9,0.5-0.9,1.8,0,2.3l23.5,13
			c0.4,0.2,0.9,0.2,1.3,0l23.5-13C680.3,335.1,680.3,333.8,679.4,333.3z"/>
		<path class="st4" d="M655.3,352.4c-0.7,0-1.3-0.2-1.9-0.5l-15-8.4v12c0,0.3,0.1,0.6,0.3,0.9c3.2,3.6,8.7,5.4,16.6,5.4
			c7.9,0,13.4-1.7,16.6-5.4c0.2-0.2,0.3-0.5,0.3-0.9v-12l-15,8.4C656.6,352.3,655.9,352.4,655.3,352.4z"/>
		<path class="st1" d="M683.3,369.3c0-1.3,1.3-3.5,4-6.2c2.7,2.7,4,4.9,4,6.2c0,2.3-1.8,4-4,4C685.2,373.3,683.3,371.6,683.3,369.3
			L683.3,369.3z"/>
	</g>
	<g>
		<circle class="st0" cx="564.5" cy="447.6" r="55"/>
		<g>
			<g>
				<defs>
					<rect id="SVGID_2_" x="548.4" y="428.6" width="37.2" height="47"/>
				</defs>
				<clipPath id="SVGID_4_">
					<use xlink:href="#SVGID_2_"  style="overflow:visible;"/>
				</clipPath>
				<g class="st5">
					<g>
						<path class="st6" d="M558.2,483.7h12.3v-17.5c3.7-2.9,9.4-11.1,9.4-11.2l3.8-3.5c0.9-0.7,1.1-1.9,0.5-2.9
							c-0.7-0.9-1.9-1.1-2.9-0.5l-3.9,3.5c-0.2,0.1-4.7,4.3-4.7,2.7c0-5,2.4-18.6,2.4-18.6c0-1-0.8-1.9-1.9-1.9
							c-1,0-1.9,0.8-1.9,1.9l-2.4,13.8c0,0.3-0.2,0.5-0.5,0.5s-0.5-0.2-0.5-0.5l1-16.7c0-1-0.8-1.9-1.9-1.9c-1,0-1.9,0.8-1.9,1.9
							l-1,16.5c0,0.3-0.2,0.7-0.5,0.7s-0.5-0.4-0.5-0.6l-1.4-13.8c0-1-0.8-1.9-1.9-1.9c-1,0-1.9,0.8-1.9,1.9c0,0,1.1,10.1,1.3,13.5
							c0,0.4,0.2,0.8-0.5,0.9c-0.4,0.1-0.7-0.6-0.9-1c-0.6-1.3-1.3-4-1.8-5.6c-0.2-0.8-0.9-2-1.9-1.7c-1.2,0.3-1.1,1.5-0.9,2.3
							c0.7,3.4,1.9,8.6,1.9,15.9c0,2,1,4.2,2.9,5.8L558.2,483.7z"/>
					</g>
				</g>
			</g>
		</g>
	</g>
	<g>
		<circle class="st0" cx="432.5" cy="444.8" r="80"/>
		<g>
			<g>
				<g>
					<path id="SVGID_1_" class="st7" d="M435.6,440.5V439c0-2.5-2-4.5-4.5-4.5H419c-2.5,0-4.5,2-4.5,4.5v1.5H435.6L435.6,440.5z
						 M440.1,438.9v6.1h-30.3v-6.1c0-5,4.1-9.1,9.1-9.1h12.2C436.1,429.9,440.1,433.9,440.1,438.9L440.1,438.9z M420.5,467.7v-6.1
						h9.1v6.1H420.5L420.5,467.7z"/>
				</g>
				<g>
					<defs>
						<path id="SVGID_5_" d="M435.6,440.5V439c0-2.5-2-4.5-4.5-4.5H419c-2.5,0-4.5,2-4.5,4.5v1.5H435.6L435.6,440.5z M440.1,438.9
							v6.1h-30.3v-6.1c0-5,4.1-9.1,9.1-9.1h12.2C436.1,429.9,440.1,433.9,440.1,438.9L440.1,438.9z M420.5,467.7v-6.1h9.1v6.1H420.5
							L420.5,467.7z"/>
					</defs>
					<clipPath id="SVGID_6_">
						<use xlink:href="#SVGID_5_"  style="overflow:visible;"/>
					</clipPath>
					<rect x="394.7" y="414.7" class="st8" width="60.6" height="68.1"/>
				</g>
			</g>
			<g>
				<g>
					<path id="SVGID_3_" class="st1" d="M417.4,464.7v3.3c0,1.5,1.2,2.7,2.7,2.7h9.7c1.5,0,2.7-1.2,2.7-2.7v-3.3h16.7
						c3,0,5.6-1.2,7.6-3.2v13.8c0,5.9-4.7,10.6-10.6,10.6h-42.4c-5.9,0-10.6-4.7-10.6-10.6v-13.8c1.9,2,4.6,3.2,7.6,3.2H417.4
						L417.4,464.7z M432.6,461.7c0-1.7-1.4-3-3-3h-9.1c-1.7,0-3,1.4-3,3h-16.7c-4.2,0-7.6-3.4-7.6-7.6V445c0-2.5,2-4.5,4.5-4.5h54.5
						c2.5,0,4.5,2,4.5,4.5v9.1c0,4.2-3.4,7.6-7.6,7.6H432.6L432.6,461.7z"/>
				</g>
				<g>
					<defs>
						<path id="SVGID_7_" d="M417.4,464.7v3.3c0,1.5,1.2,2.7,2.7,2.7h9.7c1.5,0,2.7-1.2,2.7-2.7v-3.3h16.7c3,0,5.6-1.2,7.6-3.2v13.8
							c0,5.9-4.7,10.6-10.6,10.6h-42.4c-5.9,0-10.6-4.7-10.6-10.6v-13.8c1.9,2,4.6,3.2,7.6,3.2H417.4L417.4,464.7z M432.6,461.7
							c0-1.7-1.4-3-3-3h-9.1c-1.7,0-3,1.4-3,3h-16.7c-4.2,0-7.6-3.4-7.6-7.6V445c0-2.5,2-4.5,4.5-4.5h54.5c2.5,0,4.5,2,4.5,4.5v9.1
							c0,4.2-3.4,7.6-7.6,7.6H432.6L432.6,461.7z"/>
					</defs>
					<clipPath id="SVGID_8_">
						<use xlink:href="#SVGID_7_"  style="overflow:visible;"/>
					</clipPath>
					<polyline class="st9" points="378.1,501 378.1,425.3 471.9,425.3 471.9,501 					"/>
				</g>
			</g>
		</g>
	</g>
	<g>
		<circle class="st0" cx="384.7" cy="211.3" r="55"/>
		<g>
			<g>
				<g id="XMLID_10_">
					<g>
						<path class="st10" d="M397.7,186.6c2.2,0,3.9,1.8,3.9,3.9c0,2.1-1.8,3.9-3.9,3.9s-3.9-1.8-3.9-3.9S395.6,186.6,397.7,186.6z"
							/>
						<path class="st10" d="M398.4,232.6l-0.6-16.6c0-0.6-0.5-1-1-1s-1,0.4-1,1l-0.6,16.5c-0.1,0.2-0.3,0.4-0.5,0.5
							c-0.3,0.1-0.7,0.2-0.9,0.1h-0.1c-0.3-0.1-0.5-0.2-0.6-0.5c-0.1-0.2-0.2-0.5-0.1-0.8c0-0.1,0-0.2,0-0.3l-0.1-20.8v-7.6l0,0l0,0
							l0,0c0-0.1,0-0.1,0-0.2l0,0c0-0.1,0-0.1-0.1-0.2l0,0v-0.1c-0.3-0.5-7.2-12.2-7.8-13.2c-0.3-0.4-0.4-0.7-0.5-1.5
							c0.1-0.7,0.2-1.7,0.2-3.1c0.3,0.1,0.7,0.4,1.1,0.6l6.9,11.4l0,0c0,0,0,0.1,0.1,0.1c0,0,0,0,0.1,0.1c0,0,0,0,0.1,0.1h0.1
							c0,0,0.1,0,0.1,0.1c0,0,0,0,0.1,0h0.1h0.1h0.1h0.1l0,0h6.5c2.1,0,5.5,2.6,5.5,4.6v11.4c0,0.7-0.5,1.3-1.1,1.4
							c-0.5,0.1-1,0-1.3-0.4c-0.2-0.2-0.3-0.4-0.4-0.6v-3v-7.7c0-0.6-0.5-1-1-1s-1,0.5-1,1v7.7v3.2l-0.2,17.5c0,0.1,0,0.2,0,0.3
							c0.1,0.6-0.2,1.1-0.7,1.3c-0.2,0-0.3,0.1-0.5,0.1C399,233,398.5,232.9,398.4,232.6z"/>
						<path class="st3" d="M384.6,184.6L384.6,184.6c0,0.1,0,0.1,0,0.1l-0.1-0.1C384.5,184.6,384.5,184.6,384.6,184.6z"/>
						<path class="st3" d="M384.4,184.6c0,0,0.1,0,0.1,0.1c0,1.4,0,2.4-0.2,3.1c-0.1-0.6-0.1-1.5-0.1-3.1
							C384.3,184.7,384.4,184.6,384.4,184.6z"/>
						<path class="st10" d="M384.4,184.6c0,0-0.1,0-0.1,0.1v-0.1l0,0C384.3,184.6,384.4,184.6,384.4,184.6z"/>
						<path class="st3" d="M371.1,186.6c2.2,0,3.9,1.8,3.9,3.9c0,2.1-1.8,3.9-3.9,3.9s-3.9-1.8-3.9-3.9S369,186.6,371.1,186.6z"/>
						<path class="st3" d="M363.3,201.8c0-2,3.4-4.6,5.5-4.6h6.6l0,0h0.1c0,0,0,0,0.1,0h0.1c0,0,0,0,0.1,0s0.1,0,0.1-0.1
							c0,0,0,0,0.1,0c0,0,0-0.1,0.1-0.1c0,0,0.1,0,0.1-0.1s0-0.1,0.1-0.1l0.1-0.1l0,0l6.9-11.4c0.3-0.3,0.8-0.5,1.1-0.6
							c0,1.5,0,2.5,0.1,3.1c-0.1,0.6-0.3,1.1-0.5,1.5c-0.6,1-7.5,12.7-7.8,13.2v0.1l0,0c0,0.1,0,0.1,0,0.2l0,0c0,0.1,0,0.1,0,0.2
							l0,0l0,0c0,0,0,0,0,0.1v7.6l-0.1,20.8c0,0.1,0,0.2,0,0.3c0.1,0.3,0,0.6-0.1,0.8s-0.4,0.4-0.6,0.5c-0.3,0.1-0.7,0.1-1-0.1
							c-0.2-0.1-0.4-0.3-0.5-0.5l-0.6-16.5c0-0.6-0.5-1-1-1c-0.6,0-1,0.4-1,1l-0.5,16.6c-0.2,0.3-0.6,0.4-1,0.4
							c-0.2,0-0.3,0-0.5-0.1c-0.5-0.2-0.9-0.7-0.7-1.3c0-0.1,0-0.2,0-0.3l-0.2-17.5v-3.2v-7.7c0-0.6-0.5-1-1-1c-0.6,0-1,0.5-1,1v7.7
							v3c-0.1,0.2-0.2,0.4-0.4,0.6c-0.4,0.3-0.8,0.5-1.3,0.4c-0.6-0.1-1.1-0.7-1.1-1.4v-11.4H363.3z"/>
					</g>
				</g>
			</g>
		</g>
	</g>
	<g>
		<circle class="st0" cx="352.3" cy="339.8" r="90"/>
		<g>
			<polygon class="st11" points="358.8,336.3 370.9,336.3 364.9,323.1 			"/>
			<polygon class="st11" points="309.8,336.3 321.9,336.3 315.9,323.1 			"/>
			<path class="st12" d="M367.6,320.6h-5.5l-7.6,16.8c-0.1,0.2-0.2,0.5-0.2,0.7c0,5.8,4.7,10.5,10.5,10.5s10.5-4.7,10.5-10.5
				c0-0.2-0.1-0.5-0.2-0.7L367.6,320.6z M358.8,336.3l6-13.3l6,13.3H358.8z"/>
			<path class="st12" d="M372.7,320.6h1c1,0,1.8-0.8,1.8-1.8s-0.8-1.8-1.8-1.8H349c-1-4.7-5.6-7.8-10.3-6.8
				c-3.4,0.7-6.1,3.4-6.8,6.8h-24.8c-1,0-1.8,0.8-1.8,1.8s0.8,1.8,1.8,1.8h6l0,0h5.4l0,0h13.2c0.6,2.8,2.5,5.1,5.1,6.3v35.7h-8.7
				c-1,0-1.7,0.8-1.8,1.7l0,0v3.5c0,1,0.8,1.7,1.7,1.8l0,0h24.5c1,0,1.7-0.8,1.8-1.7l0,0v-3.5c0-1-0.8-1.7-1.7-1.8l0,0h-8.8v-35.7
				c2.6-1.1,4.5-3.5,5.1-6.3h9.7h3.5h5.4H372.7z"/>
			<path class="st12" d="M305.5,337.4c-0.1,0.2-0.2,0.5-0.2,0.7c0,5.8,4.7,10.5,10.5,10.5s10.5-4.7,10.5-10.5c0-0.2-0.1-0.5-0.2-0.7
				l-7.6-16.8h-5.4L305.5,337.4z M309.8,336.3l6-13.3l6,13.3H309.8z"/>
		</g>
	</g>
</g>
</svg>
