<?xml version="1.0" encoding="utf-8"?>
<!-- Generator: Adobe Illustrator 24.2.3, SVG Export Plug-In . SVG Version: 6.00 Build 0)  -->
<svg version="1.1" id="Layer_1" xmlns="http://www.w3.org/2000/svg" xmlns:xlink="http://www.w3.org/1999/xlink" x="0px" y="0px"
	 viewBox="0 0 895 556.4" style="enable-background:new 0 0 895 556.4;" xml:space="preserve">
<style type="text/css">
	.st0{fill:#5DD4E5;}
	.st1{fill:#FFFFFF;}
</style>
<g>
	<circle class="st0" cx="501.9" cy="314.2" r="125"/>
	<g>
		<g>
			<g>
				<g>
					<path class="st1" d="M626,314.2c0.1,0.4,0.4,0.2,0.3-1l-0.4-0.8L626,314.2z"/>
					<path class="st1" d="M626.6,306.6c-0.3-1.3-0.8-2.8-1.1-1.9c0.5,1.3,0.4,1.6,1,3c0.1,1.1-0.1,2-0.2,1.8c0.1,0.4,0,1.8,0.2,2.4
						c0.1-0.7,0.2-1.6,0.2-2.5s-0.1-1.9-0.3-2.8C626.3,306.1,626.5,306.5,626.6,306.6z"/>
					<path class="st1" d="M574.7,211.9l0.6,0.5C575.1,212.2,574.9,212.1,574.7,211.9z"/>
					<path class="st1" d="M510.2,188.7c0.5,0,0.8,0,0.8,0C510.5,188.6,510.1,188.6,510.2,188.7z"/>
					<path class="st1" d="M498.4,188c0.3,0,0.5,0,0.7,0C498.8,188,498.5,188,498.4,188z"/>
					<path class="st1" d="M574.7,211.9l-1.4-1.2C573.1,210.8,574,211.3,574.7,211.9z"/>
					<path class="st1" d="M623.7,291.5c0.1,0.4,0.2,0.7,0.3,1C623.9,292.2,623.8,291.9,623.7,291.5
						C623.7,291.6,623.7,291.5,623.7,291.5z"/>
					<path class="st1" d="M597.5,232.2l0.4,0.4c0.1,0.1,0.3,0.2,0.4,0.2L597.5,232.2z"/>
					<path class="st1" d="M611.1,251.4c-0.3-0.5-0.7-0.4-0.9-0.5c0.3,0.2,0.5,0.5,0.8,0.9C611.1,251.7,611.1,251.6,611.1,251.4z"/>
					<path class="st1" d="M624.1,286.1l0.2,0.6C624.2,286.6,624.1,286.3,624.1,286.1z"/>
					<path class="st1" d="M585.7,220.2c0-0.1,0-0.2-0.1-0.2C585.6,220,585.7,220,585.7,220.2z"/>
					<path class="st1" d="M622.3,340.7L622.3,340.7C622.4,340.6,622.3,340.5,622.3,340.7z"/>
					<path class="st1" d="M627,314.2v0.4c0.1,0,0.1,0.1,0.2,0.1L627,314.2z"/>
					<path class="st1" d="M476.7,190L476.7,190C477.3,189.8,477,189.9,476.7,190z"/>
					<path class="st1" d="M378.3,341c-0.2-2.3,1.2,3.5,0.8,0.1C379,341.4,377.8,338.2,378.3,341z"/>
					<path class="st1" d="M623.6,290.9c-0.1-0.3-0.1-0.6-0.2-0.9C623.5,290.4,623.6,290.7,623.6,290.9z"/>
					<path class="st1" d="M379.1,341.1L379.1,341.1v-0.3C379.1,340.9,379.1,341,379.1,341.1z"/>
					<path class="st1" d="M430.7,209.6c0.1,0,0.3-0.1,0.5-0.2C431.1,209.4,431,209.5,430.7,209.6z"/>
					<path class="st1" d="M464.4,193.8l-0.9,0.2C463.9,194,464.2,193.9,464.4,193.8z"/>
					<path class="st1" d="M415.8,222.2c-0.4,0.3-0.5,0.4-1,0.9c0.1,0,0.1-0.1,0.2-0.1C415.2,222.7,415.4,222.5,415.8,222.2z"/>
					<path class="st1" d="M402.3,237c0.1-0.1,0.2-0.2,0.3-0.2c0.1-0.2,0.3-0.3,0.4-0.5L402.3,237z"/>
					<path class="st1" d="M596.1,394c0.4-0.3,0.6-0.4,0.8-0.5C596.5,393.6,598.4,391.3,596.1,394z"/>
					<path class="st1" d="M623.9,291.5c-0.1-0.1-0.2-0.3-0.3-0.6c0,0.2,0.1,0.4,0.1,0.6C623.8,291.6,623.9,291.6,623.9,291.5z"/>
					<path class="st1" d="M417.2,224.8l-2.3,2.1C415.6,226.3,416.4,225.6,417.2,224.8z"/>
					<path class="st1" d="M467.8,432.9l0.7,0.2C468.2,433,467.9,432.9,467.8,432.9z"/>
					<path class="st1" d="M408.7,233.8c-0.5,0.3-0.9,0.7-1.3,1.2c-0.1,0.1-0.1,0.2-0.2,0.3L408.7,233.8z"/>
					<path class="st1" d="M596.9,393.5L596.9,393.5L596.9,393.5z"/>
					<path class="st1" d="M608.1,376.1c-1.5,2.6-0.3,1.5-0.4,2.1c-1.8,3.1-1.2,1.2-2,2.1c-0.5,1-1,1.9-1.3,2.7
						c-0.4,0.8-0.8,1.6-1.3,2.2c-0.1,0.1-0.3,0.3-0.2-0.1c-0.3,0.5-0.6,1.2-1.1,1.8c-0.4,0.7-1,1.4-1.5,2.1
						c-1.1,1.4-2.2,2.9-2.9,4.1c-0.2,0.1-0.3,0.2-0.3,0.2c0.5-0.2,0.7-0.1,0.8,0.1c-0.9,1-1.4,2.1-2,2.3c0.5-0.6,0.5-0.8,0.7-1.1
						l-0.8,1.2c-1.2,0.7,1.1-1.6,0.9-1.8c-0.8,1.1-1.7,2.3-2.6,3.4c-0.9,1.1-1.8,2.1-2.5,2.8c-0.6,0,3.3-3.7,1.1-1.9l1.2-1.1
						l1.1-1.2c-2.1,1.4,1.3-1.5-0.7-0.2c-0.7,0.8-1.3,1.4-1.8,1.9s-0.9,1-1.3,1.4c-0.8,0.9-1.5,1.8-3.1,3.2c-0.5,0.8,0.5,0,0,0.9
						c-1,1.1-1.8,1.9-2.4,2.4c-0.6,0.5-1.2,0.7-1.6,1c-0.9,0.5-1.7,0.8-3.2,2.5c-0.7,1-0.7,1.7-3.4,3.4l0.5-1.1
						c-3.3,2.5-1.4,2-5.2,4.3c0.5-0.6,2.6-2,2-1.7c-2.5,1.3-1.5,1.4-3.2,2.6l-0.6-0.1c-1.8,1.2-3.7,2.6-5.7,3.9s-4.1,2.6-6.2,3.7
						c0.2-0.2,0.9-0.7-0.2-0.3c-2.7,1.6-5.7,2.9-8.7,4.1c-1.5,0.6-3.1,1.1-4.6,1.6c-1.5,0.6-3,0.9-4.4,1.3l-2,1.1
						c-0.5,0.2-1,0.1-0.5-0.1c-2.3,0.5,0,0.3-1.1,0.7c-1.3,0.4-1.7,0.3-1-0.1c-3.8,1.6-11.2,3.5-15.5,3.8l0.8-0.3
						c-3.3,0.4-3.6,1.3-6.8,1.3l0.6-0.1c-3.6,0.3-7.5,0.6-11.1,0.7c-0.9,0-1.8,0-2.7,0c-0.9,0-1.7-0.1-2.5-0.1
						c-1.6-0.1-3.2-0.2-4.6-0.4c-0.5,0.2-2.3,0-4.1-0.1c-1.7-0.1-3.4-0.4-3.6-0.1c-2-0.5-2.8-0.7-3.7-0.9c-0.9-0.3-2.1-0.6-4.9-1.2
						c-1.5-0.3-2.4,0-4.3-0.3v-0.4l-2.7-0.2c-0.4-0.2-0.8-0.5-1.2-0.8l-1.8-0.4c0.7,0.2,1.4,0.6,1.3,0.7c-1.4-0.3-3-0.8-4.3-1.3
						s-2.2-1-2.2-1.1l-3.2-0.9c-1.1-0.3-2.1-0.7-3.2-1c0.2-0.1,1.3,0.3,2.1,0.5c-3.5-0.9-0.5-0.6-3.6-1.5c0.4,0.2-0.3,0.1-0.4,0.2
						c-0.7-0.4-1.9-1-3.3-1.6c-1.3-0.6-2.8-1.2-4.1-1.8h0.6c-1.1-0.6-2.2-1.2-3.4-1.7c-0.6-0.3-1.2-0.6-1.8-0.9
						c-0.6-0.3-1.2-0.6-1.7-1c-1.2-0.7-2.4-1.3-3.6-2s-2.3-1.5-3.5-2.2c1.6,1.2,1,1.3-0.4,0.5l-0.3-0.7c-1-0.4,1.4,1.1-0.7,0.1
						c-1.7-1.2-0.9-1.2,0.2-0.6l-2.1-1.3c0-0.2,0.5,0.1,0.7,0.1c-1-0.4-3.3-2.8-4.7-3.4v-0.2c-1.1-0.9-2-1.6-2.9-2.3
						c-0.8-0.7-1.6-1.3-2.3-1.9c-0.7-0.6-1.4-1.2-2.2-1.8c-0.7-0.6-1.5-1.3-2.3-2.1c-0.3,0.2-1.5-1.1-2.7-1.8
						c-1.1-1.3-2.3-2.6-3.5-4s-2.4-2.9-3.7-4.4c-1.9-2.1-0.8-0.4-1.7-1.3c0.1-0.4-2.4-3.5-0.9-2c-1.5-1.9-2.4-3.1-3.4-4.5
						c-0.5-0.7-1.1-1.4-1.7-2.2c-0.6-0.9-1.3-1.9-2.2-3.1c0.2,0.6,0.6,1.3,0.3,1c-0.6-0.9-1.2-2.2-1-2.2l0.2,0.2
						c-2-2.8-3.8-6.4-5.3-9.8c-0.8-1.7-1.4-3.5-2.1-5c-0.3-0.8-0.7-1.5-1-2.2s-0.6-1.4-1-2l0.1,0.3c-0.8-1.7-1.7-3.4-2.3-5.2
						c-0.8-2.5,0.7,1.4,0.3-0.5c-0.6-1.4-1.1-2.7-1.5-3.9c-0.4-1.2-0.7-2.3-1-3.4c-0.6-2.2-1-4.3-1.8-6.7c0-0.5,0-1.1-0.1-1.7
						c-0.1-0.7-0.1-1.4-0.2-2.1c-0.2-1.5-0.6-3.3-0.8-5c-0.3-1.8-0.5-3.6-0.7-5.3c-0.1-1.7-0.2-3.3-0.1-4.6l-0.2,0.3
						c-0.3-1.3,0-1.6,0-2.6c-0.2,0.1-0.2,1.5-0.3,0.6c-0.1-2.9-0.3-5.8-0.1-8.7c0.1-1.5,0.1-3,0.2-4.4c0.1-1.5,0.3-3,0.4-4.4
						c0.1-1.5,0.4-3,0.6-4.4c0.2-1.5,0.4-2.9,0.8-4.4c0.3-1.5,0.6-2.9,0.9-4.4c0.4-1.4,0.7-2.9,1.1-4.3c0.5-2.1,0.4-2.7,0.4-3.5
						s0.1-1.7,1.1-4.2v1.6c2-8.5,6-16.7,9.7-24.3c-0.2,0.5-0.1,0.6-0.4,1.3c1.1-1.4,3.3-5.7,3.1-5.9c0.7-1.1,0.4-0.1,0.9-0.8
						c1.1-1.4,2.1-4,2.9-4.6c0.1-0.1-0.2,0.5-0.4,0.8c0.5-1,3.2-4.4,2.2-3.7c1-1.3,1.9-2.5,2.8-3.6s1.7-2.3,2.6-3.2
						c0.8-1.5,3.7-4,3.7-4.7c0.3,0.6,4.2-3.8,5.5-5.3c-0.4,0.6,1.4-1.1,1-0.4c1.6-1.6,3.2-3,2.7-3c1.8-1.1,3.3-2.7,4.8-3.9
						c1.4-1.2,2.7-2.4,3.9-2.7c5.3-4.3,10.7-7.8,16.1-10.8c0,0.3-1.5,1.1-2.9,1.9c-1.4,0.8-2.8,1.6-2.5,1.8c1.2-0.8,2.3-1.5,3.4-2.2
						c1.1-0.6,2-1.2,3-1.8c2-1.2,4-2.2,6.7-3.3c1.4-0.5-0.7,0.6-1.1,0.9c2.6-1.4,5.3-2.3,7.8-3.3c1.3-0.4,2.6-0.9,3.8-1.3
						c0.6-0.2,1.2-0.5,1.9-0.7c0.6-0.2,1.2-0.4,1.9-0.6c0,0.1-0.5,0.3-1,0.5c1-0.3,2.3-0.6,2.1-0.8l-0.9,0.3
						c-1.7,0.1,3.7-1.9,3.8-2.1c-1.5,1.1,5.1-1,2.6,0.6c0.6-0.2,1.4-0.5,1.3-0.7c1-0.2,1.3-0.1,0.4,0.3c1.8-0.5,2.3-0.7,2.9-0.9
						c0.5-0.2,1-0.3,2.7-0.6c0,0.1-0.6,0.3-1,0.5c1.6-0.5,3.2-1.1,6.1-1.3c-0.2,0.1,0.2,0.2-0.7,0.3c2.4-0.3,4.4-0.8,6.5-1
						c1.1-0.1,2.1-0.3,3.3-0.4c1.1-0.1,2.4-0.1,3.7-0.1c-1.6,0.6,1.8,0.1,2.1,0.6c0.9-0.1,1.9-0.1,2.8-0.1l-1.1-0.3
						c2.5,0.1,4.7-0.3,6.9,0c-0.6,0-1.2,0-1.9,0.1c1.6,0,3.1,0.2,4.7,0.2l-2.6-0.4c2.5-0.1-0.2-0.6,3.1-0.2c-0.7,0,2.5,0.2,3.8,0.7
						l0,0c1.2,0,2.5,0,4.4,0.4c0.5,0.2-0.5,0.5-0.2,0.6c0.6-0.1,2.1,0.1,3.6,0.4c1.5,0.2,3,0.4,3.8,0.4c-0.5,0-0.6,0.2-0.4,0.3
						l1.1-0.1c1.1,0.4,1.3,0.5,1,0.6c3.4,0.8-0.9-0.8,3,0.3c-0.3,0-0.2,0-0.9-0.1c4,1.1,7.8,1.9,11.4,3.3c0.9,0.8-3.2-1-2.1-0.2
						c5.3,1.6,10.9,3.5,15.7,5.9l-0.9-0.5c1-0.3,3.4,2.1,5.9,3.1c-0.6-0.3-0.9-0.1-0.7-0.1c1.6,1,3.2,1.8,5.1,2.8
						c1.8,1.1,3.9,2.2,6.2,3.7l-0.7-0.3c1.6,1.4,4.6,3.3,6.3,4.9c0.6,0.3,1.7,1.1,1.2,0.4c0.6,0.7,1.3,1.3,1.9,1.9
						c0.6,0.6,1.3,1.2,1.9,1.8c1.3,1.1,2.6,2.2,3.9,3.3c1.2,1.1,2.5,2.1,3.7,3.3c1.1,1.2,2.2,2.4,3.1,3.7c-0.5-0.5-1.4-1.2-0.9-0.8
						c1.3,1.2,2.5,2.6,3.7,3.9c-0.1-0.5-0.3-0.7-0.9-1.7c0.6,0.4,1.7,1.5,2.6,2.5c-1.8-1.7-0.3,0.3,0.2,1.2c0-0.2,0.3,0,0.3-0.1
						c1.3,2.6,0.8,0,2.9,3.3l-0.3-0.1c1,1.1,1.9,2.1,2.8,3.4c0.1,0.7-1-1.2-1.3-1.1c1.3,1.8,3.1,3.1,3.8,5c-0.6-0.7-1.3-1.9-1.9-2.6
						c0.9,2,1.1,2.2,1.9,3.6l-0.1-0.1c0.6,1.1,1.2,2.1,1.8,3.2c-0.1-0.3-0.3-0.6-0.4-0.9c1.1,0.9,1.8,2.1,2.6,3.5
						c0.4,0.7,0.8,1.3,1.2,2.1c0.4,0.7,0.9,1.5,1.4,2.2c-2.1-2.9-0.6-0.4-1-0.4c0.3,0.9,0.9,2.2,0.6,1.9c0.5,0.7,0.8,1.4,1.1,2.1
						c0.3,0.8,0.6,1.6,1.4,2.6c-0.1,0.2,0.8,1.7,0.3,1.5c1,2,0-0.6,0.2-0.5c1.8,3,2.6,7.8,4.7,12.4c0.8,2,1.2,3.2,1.7,4.4
						c0.2,0.6,0.5,1.2,0.8,1.8c0.2,0.7,0.5,1.4,0.8,2.4c0.1,1.4-0.7-1-0.7-1c0.3,2.2,0.8,3.8,1.3,5.8c-0.2-0.4-0.2,0.1-0.2,0.7
						c0.3,1.6,0.6,1,0.8,3.2c-0.2-0.3-0.5-0.8-0.8-1.5c0.2,1,0.5,1.9,0.7,2.8c0.2,1,0.4,1.9,0.6,2.9c-0.2,0.6-0.5-1.2-0.7-1.9
						c0.4,2.2,1,5.8,1.3,6.5v-1.5c0.1,0.8-0.3,0.5-0.4-0.1c-0.5-1.9-0.2-2.8-0.1-2.9l0.3,1.4c0.3-0.8,0.1-2.2-0.3-3.8
						c-0.3-1.6-0.9-3.3-1.1-4.8l0.7,1.1l-1-2.9c0-0.6,0.2-1.1,0.6,0.3c-0.1-2.1-0.6-1.8-0.7-3.6c0-0.2,0-0.1,0.1,0.1l-0.6-2
						c0.2,0.4,0.3-0.4,0.5,0.8c-0.1-0.9-0.3-1.7-0.5-2.5c-0.2-0.7-0.5-1.4-0.7-1.9c-0.4-1.1-0.7-2-0.7-2.7l0.1,0.3
						c-0.4-1.2-0.6-1.8-0.8-2.1s-0.2-0.3-0.3-0.3c-0.1,0.1-0.2,0.3-1-1.4l0.1-2.8l-0.5-0.3c-0.2-0.5-0.5-1.5-0.3-1.4
						c-1-1.7,0,0.4-0.7-0.6c-0.3-1.2-1-2.9-1.6-4.2c-0.6-1.4-1.1-2.5-1-2.9c-0.6-0.7,0.8,2.3-0.5-0.1c0.1-0.5-0.2-1.2-0.7-2.1
						c-0.5-0.8-1.1-1.8-1.5-2.9c0.6,0.5,1.5,2.5,0.7,0.3c-0.6-0.5-1.1-1.5-1.5-2.6c-0.5-1.1-1-2.3-1.5-3.1c-0.2,0.1-0.8-0.8-1.5-2.1
						c-0.8-1.3-1.8-2.8-2.7-4.2c0.3,0.1-3.2-5.3-5-7.8h0.1c-0.4-0.1-1-0.8-1.8-1.6c-0.7-0.9-1.6-1.9-2.4-2.8c0.3-0.1,0.6,0.1,1.5,1
						c-0.5-0.6-0.9-1.1-1.4-1.6c-0.5-0.3-1-0.7-1.9-1.8l0.6,0.2c-0.5-0.5-1-1.1-1.5-1.6s-1.1-1-1.6-1.6c-0.6-0.5-1.1-1.1-1.7-1.7
						c-0.3-0.3-0.6-0.6-0.9-0.9c-0.3-0.3-0.6-0.6-0.9-1c-0.4,0.1,1.5,2.7-1.5,0.2c0-0.2,0.1-0.5,0.9,0.1c-0.3-0.2-1-0.7-1.4-1.2
						l1.3,0.9c-1.1-1.3-0.8-0.4-1.8-1.4c0.2-0.2-0.6-0.8-0.3-0.8c0.3,0.2,0.8,0.9,1.2,1.2c-1.1-1.1-2.3-2.5-2.6-3
						c0,0.2-0.2,0.3-1.1-0.4c-2.2-1.9-0.5-0.9-1.7-2.1c-0.6-0.3-2-1.6-2.2-1.3c-0.7-0.5-0.7-0.8-0.9-1c-0.6-0.4-2-1.5-3.1-2.2
						s-1.9-1.2-1.4-0.6l0.3,0.2c-0.1,0-0.1-0.1-0.2-0.1l0,0l0,0c-1-0.6-2.1-1.3-3.1-2s-2.1-1.4-3.1-2.1c-2.1-1.5-4.2-2.8-6.3-3.9
						l0.1-0.1c-1.3-0.7-2.7-1.4-4.1-2c-1.4-0.6-2.6-1.3-3.6-1.5c-0.8-0.4-1.7-1-1.3-1c-2.1-0.8-2.3-0.9-5.2-2.2
						c2.1,0.6-0.6-0.5,2.2,0.7c-2.6-1.1-3.2-1.6-6.2-2.4c1.1,0-1.9-1.1-3.2-1.4l1.8,0.9c-1.5-0.4-2.7-0.9-4-1.4l0.8-0.2
						c-1.4-0.6-2.7-0.9-4-1.3c-1.3-0.3-2.6-0.6-3.8-0.8c-2.5-0.4-4.7-0.8-6.8-1.6c-1.6,0,3.1,0.8,1.7,0.9c-2.6-0.5-5.3-1.6-6.2-1.8
						c-3.7-0.7-3.5,0.1-7.4-0.4c0.5,0.2,0.9,0.6-2,0.6c-2.7-0.3-3.3-0.9-1.6-0.9c0.6,0,1,0.1,0.9,0.2c0.9,0,2,0,1-0.2l-0.4,0.1
						c-0.7-0.1-1.9-0.3-2.9-0.4c-1-0.1-1.7-0.2-1.3-0.3c-2.1,0.1-0.9,0.2,0.6,0.3c-1.7-0.2-3.1-0.2-4.5-0.2c-1.4-0.1-2.8,0-4.5,0
						c0.6,0.1,1.1,0.2,0.5,0.2c-2.6,0-3.2,0.1-3.6,0.2c-0.4,0.1-0.5,0.2-2.3,0.4c-2-0.1,0.7-0.6-2.9-0.1c-2.2,0-0.5-0.4,0.4-0.6
						c-0.8,0.1-1.6,0.2-2.3,0.3c-0.7,0.1-1.5,0.1-2.1,0.2c-1.4,0.1-2.5,0.1-3.5,0.2l1.7-0.3c-1,0.2-1.9,0.3-2.7,0.4
						c0.3,0,0.7,0.1,1,0.2c-1,0.1-1.9,0.3-1.9,0.1c-1,0.4,0.9,0.4-1.1,1c-1.3,0.1-4,0.9-4.5,0.6c4.2-0.7-0.5-0.3,3-1
						c-0.7,0.2-1.5,0.3-2.5,0.4c-0.2,0,0.1-0.1,0.4-0.2c-4,0.5-1.7,0.9-5.8,1.8c0.5-0.4-1.1-0.2-1.7,0.1c1.6-0.5,0.9,0.1-0.6,0.7
						c-2.6,0.6-2.8,0.9-4.1,1.3l1.6-0.4c-0.5,0.4-1.8,0.7-3.5,1.4c-0.2-0.1,1.6-0.7,0.9-0.5c-1.8,1.1-4.6,1-7.2,2.4
						c-1.3,0.3-0.3-0.4-1.4,0c-2.9,1.4-3.4,1.1-6.4,2.7c1-0.1,1.2-0.3-0.9,1l5-2.5l-3.1,1.9c1.5-0.7,3.2-1.7,4.1-2
						c-1.5,0.9-1.3,0.8-0.5,0.7c-2.3,0.6-4.1,2.1-6.6,3l-0.3-0.7c-1.9,0.8-3.4,1.6-5.1,2.7c-0.8,0.5-1.7,1.1-2.6,1.7
						c-0.9,0.6-2,1.2-3.1,1.8c0.5-0.3,1-0.5,1.5-0.8c-0.5,0.6-2.7,1.8-4.1,2.8c0-0.3-1,0.2-1.6,0.5c0.2,0.1-3.1,2.2-3.2,2.9
						c-0.7,0.4-1.4,0.7-2.1,1.1c-3.4,2.5-3.4,3.5-6.5,6.1c0.7-1-0.8,0.1,1.2-1.9c-1,0.9-2,1.7-1.9,1.8c-0.3,0.2-1,0.9-1.7,1.6
						c-0.7,0.7-1.4,1.5-1.9,1.9c-0.3,0.5-0.3,0.8-1.4,1.8c-0.2,0.1-0.1-0.1-0.1-0.1c0.1,0.1-1.6,1.8-0.4,1.1
						c-3.5,2.4-7.9,8.5-10.5,11c-0.4,0.6-0.9,1.2-1.4,1.9c-0.5,0.6-0.9,1.3-1.4,2c-0.9,1.3-1.8,2.6-2.5,3.7c0-0.2-0.1-0.1,0.2-0.5
						c-2.2,3-0.6,2.3-3.1,5.7c-0.7,0.8-0.5,0.3-0.2-0.3s0.7-1.2,0.3-0.7c-0.5,0-1.1,1.1-1.8,2.5c-0.7,1.4-1.6,3-2.4,4.2l0.3-0.6
						c-1.2,1.8-2.2,4.8-3.6,8.1c0,0,0-0.2-0.1-0.1c-0.3,1.2-0.9,2.8-1.5,4.6c-0.6,1.8-1.3,3.6-1.8,5.3c0-1.1,0.3-1.5-0.2-1
						c-0.4,1.5,0.6-0.2-0.2,2.7c-0.5,0.9-1.4,2.9-1.7,3.1c0.2-0.9,0.6-1.8,0.9-2.7c-0.4,0.6-0.8,1.5-1,2.4s-0.4,1.9-0.6,2.6
						l-0.1-0.2c-1.2,4.3-0.6,4.5-1.7,9.1l0.3-0.4c-0.1,2.6-0.7,2.1-0.8,4.7l-0.6,0.7c0,0.4-0.1,1-0.2,1.7c0,0.7-0.1,1.5-0.1,2.3
						c-0.1,1.7-0.3,3.5-0.3,5c-0.2-1.8,0.1-5.3,0.1-7.6c-0.2,1.7-0.7,5.7-0.6,6.6c0-0.7,0-1.5,0.2-2.2c0.1,2.1,0.1,4.8-0.1,8.2
						c-1-0.6-0.5,8.8-1.1,11.2l0.2,2.2c0.1,0.7,0.1,1.5,0.2,2.2c0.1,1.5,0.2,3,0.3,4.6c0.2,1.5,0.3,3.1,0.5,4.7
						c0.1,1.6,0.5,3.3,0.8,5c0.3-2.6,0.4,2,1.1,1.4c0.3,1.6,0.5,2.2,0.5,2.3l0.7,4.9c0,0.6-0.1,0.2-0.3-0.3c-0.2-0.5-0.3-1.1-0.4-1
						c0.8,3.5,0.1,1.5,0.5,3.9c0.1-0.5,0.7,1.1,1.2,3.1l-0.4-2.9c0.9,2.3,1,3.4,1.2,4.5s0.4,2.2,1.4,4.5l-0.7-1.4
						c0.9,2.4,3.4,8.9,5.1,10.9c0.1,0.5,0.2,1.1-0.4,0.1c2.5,5.7,6.8,11.9,9.2,16l-0.4-0.3c0.7,0.9,1.3,1.5,2,2.8
						c-0.1,0-0.4-0.3-0.1,0.2c0.4,0.5,2,2.3,2.8,3.6l-0.9-0.9c0.8,1.3,1.6,2.3,2.4,3.2c0.8,0.9,1.5,1.8,2.3,2.6
						c1.6,1.5,3.1,3,4.8,4.8c-0.2,0.2,0.5,1.2,1.4,2.3c0.9,1.2,2.1,2.5,2.9,3.3h-0.1c1.3,1.2,2.4,2.3,3.6,3.4c1.2,1,2.4,1.9,3.5,2.8
						s2.3,1.7,3.5,2.6c1.2,0.8,2.4,1.8,3.8,2.6c0.7,0.7,1.8,1.6,3,2.5c1.3,0.9,2.8,1.9,4.3,2.9c1.5,1.1,3.2,1.9,4.8,2.9
						c1.6,1,3.2,1.8,4.6,2.6c-0.8-0.5,0.3-0.3,1.4,0.1c1.3,0.8,4,1.4,3.5,1.8l-0.5-0.2c0.8,0.9,3.7,2.2,6,3l0.6-0.5
						c1.4,0.8,3,1.6,4.9,2.2c1.8,0.6,3.7,1.3,5.5,1.7c1.8,0.5,3.6,0.9,5.1,1.3s2.7,0.7,3.5,1.1c1.5,0.2,3.4,0.5,4.9,0.6l-0.1,0.3
						c2.1,0.4,3.7,0.8,5.4,0.9c0.9,0.1,1.7,0.2,2.7,0.3c0.5,0.1,1,0.1,1.6,0.2c0.6,0,1.2,0.1,1.8,0.1l-1.1,0.2
						c3,0.2,3.8-0.7,6.5-0.6l0.8,0.6c2.6,0.1,5.2,0.3,7.8,0.2c1.3,0,2.6,0,3.9-0.1s2.6-0.3,3.8-0.5c-0.1,0.1-0.2,0.3-1.1,0.3
						c2.4-0.1,9.4-0.7,8.4-1.3c0.1,0.5,5.3-0.8,8-1.6l-0.3,0.5c2.2-1,2.2-1.1,5.4-2c0.8-0.1,0.7,0.1-0.3,0.3
						c2.6-0.5,1.9-0.9,4.9-1.5l-1.1,0.5c2.6-0.7,2.3-0.7,3.6-1.5c1.5-0.7,4.8-1.5,5.3-1.4c0.3-0.3,1.5-1.1,3-1.6
						c0.2,0-0.3,0.3-0.5,0.5c1.1-0.4,2-0.7,2.8-1c0.8-0.4,1.5-0.7,2.1-1.1c1.3-0.7,2.5-1.3,3.9-1.8c0.1,0.1,0.3,0,0.6,0
						c-3.2,1.5-5.8,2.6-5.6,2.5c0.1,0.3,2.8-0.8,0.9,0.5c1-0.6,2.3-1.4,3.8-2.2c1.4-0.8,2.8-1.7,4.1-2.3c0.1,0,0.3-0.1,0.4-0.1
						l-0.2,0.2c0.6-0.3,1.1-0.6,1.5-0.9c0.8-0.4,1.3-0.6,2.1-1.1c0.4,0.1,3-1.5,4.2-2.3c-0.3-0.2,1.3-1.2-0.3-0.5
						c0.2-0.1-0.2,0.2-1,0.7c-0.2,0.1-0.4,0.2-0.5,0.3c0,0,0,0,0.1-0.1c-0.8,0.5-1.9,1.1-3.1,1.8c0.9-0.7,1.8-1.4,3.3-2.1
						c0.5-0.6,1-1.2,1.4-1.6c1-0.3,2.3-0.9,3.4-1.4c1.2-0.5,2.1-1.1,2.4-1.1c0.9-0.7,1.8-1.4,2.8-2.1s1.9-1.5,2.8-2.3
						c0.9-0.8,1.8-1.5,2.5-2.2s1.3-1.4,1.7-2c0.9-0.9,1.2-0.8,1.6-1c-0.5,0.5-1.1,1.1-1.4,1.4c0.9-0.9,2.3-2,3.4-3.2
						c1.1-1.1,2-2.1,2.1-2.5c2.4-2-0.9,1.6,2.1-1.5l-0.3,0.5c1.6-1.4,2.9-2.8,4.1-4.1c1.2-1.4,2.2-2.8,3.2-4.3c1-1.4,2-3,3.2-4.5
						s2.4-3.2,3.9-5c-0.4,0.5-0.6,0.7-0.8,0.8c0.4-0.5,0.8-1.1,1.2-1.6l1.1-1.7c0.7-1.1,1.5-2.3,2.2-3.4c0.7-1.2,1.3-2.4,2-3.6
						c0.3-0.6,0.7-1.2,1-1.8l0.9-1.8c2.5-4.8,4.5-9.9,6.8-14.7c1.1-2.8,0.9-3.2,1.3-5l0.6-0.5c0.2-1,0.3-2.1,0.4-3.1
						c0.2-1.1,0.5-2.1,0.9-3c0.3-1,0.6-1.9,1-2.9c0.3-1,0.7-2,0.9-3.1c0.3-1.1,0.4-2.4,0.5-3.8l-0.4,0.7c0.2-1,0.5-2.5,0.6-3.8
						c0.2-1.3,0.3-2.3,0.4-2.1c0-0.2-0.2-0.7,0-1.4h0.2c0-0.8,0.1-1.6,0.1-2.5v-2.5c0.2-1.9,0.4-1.7,0.6-1.8c0.1,0,0.2-0.1,0.3-0.5
						s0.2-1.2,0.3-2.6c0-2.1-0.4-5.9-0.6-5.1c0,0.8-0.2,2.1-0.4,2.2l-0.1-1.9c-0.6-0.4-1.2-1.8-1.7,2.8l0.3,3.2l-0.4,1
						c0.1-0.9,0.1-1.8,0.1-2.7c-0.3,1.5-0.1,2.5-0.1,3.6c-0.2,0.2-0.3,0.7-0.4,1.3l0.3,3.2c-0.3,0.4-0.3-1.4-0.7,0.6
						c0.1,1.5,0.7-1.3,0.6,1.1c-0.5,1.5-0.6,1-0.6,2.8c-0.2,0.2-0.2-0.2-0.2-0.9c0,0.8-0.1,1.9-0.2,2.8c-0.1,0.9-0.2,1.8-0.1,2.2
						c-0.3,0.8-0.5,2.1-0.7,3.2s-0.5,2-0.7,1.8c0,0.5-0.2,2.8-0.5,4.3c0-1.4-0.3,0-0.8,1.5s-1,3.3-1.2,2.9c0.1,1-0.5,2.8-1.1,4.6
						c-0.3,0.9-0.6,1.9-0.9,2.9c-0.3,0.9-0.7,1.9-0.9,2.7c0-0.2,0.1-0.6,0.2-0.9c-0.8,1.8-1.2,2.3-1.7,3.4c0.4,0.4-0.8,3.3-1.2,4.9
						c-1.4,2,0.1-1.6-0.7-1.1c0.2,0-0.1,1-0.4,1.9c-0.4,0.9-0.7,1.7-0.3,1.4c-1.1,1.5-0.9,1.4-1.7,2c0.4,0.6-0.7,1.6-1.1,3.1
						c-1.6,2.2-0.9,0.3-2.2,2.9C607,378.5,608.1,376.1,608.1,376.1z M558.8,424.4L558.8,424.4c0.5-0.3,1-0.5,1.3-0.7
						C559.8,423.8,559.5,424,558.8,424.4z M553.5,427c0.7-0.3,1.5-0.6,2.3-1.1c0.2,0,0.1,0.3-0.4,0.5
						C555.7,426.2,554.4,426.7,553.5,427z M565.9,423.4c-0.8,0.5-1.1,0.6-1.3,0.6c0.4-0.2,0.8-0.5,1.4-0.9l0.1-0.1
						C566.1,423.2,566,423.3,565.9,423.4z"/>
					<path class="st1" d="M567.1,422.1c0.1-0.1,0.2-0.1,0.3-0.2c-0.2,0.1-0.4,0.1-0.5,0.2s-0.2,0.2-0.2,0.3
						C566.8,422.3,567,422.2,567.1,422.1z"/>
					<path class="st1" d="M575.3,212.4L575.3,212.4c0,0,0,0.1,0.1,0.1C575.4,212.5,575.4,212.5,575.3,212.4z"/>
					<polygon class="st1" points="474.1,434.4 474.1,434.5 474.6,434.5 					"/>
					<path class="st1" d="M598.2,235.7c0,0.1,0.1,0.2,0.2,0.4C598.4,236.1,598.3,235.9,598.2,235.7z"/>
					<path class="st1" d="M606.4,247.1l1,1.7C607,248.1,606.7,247.6,606.4,247.1z"/>
					<path class="st1" d="M611.7,256.5c0.1,0.1,0.2,0.1,0.2,0.1l0,0L611.7,256.5z"/>
					<path class="st1" d="M465.9,196c-0.1,0-0.3,0.1-0.4,0.1C464.6,196.4,465.2,196.2,465.9,196z"/>
					<path class="st1" d="M516.3,190.6c-0.5,0-1.1,0-1.7,0C515.5,190.7,516.2,190.8,516.3,190.6z"/>
					<path class="st1" d="M417.5,224.6L417.5,224.6c-0.1,0.1-0.2,0.1-0.3,0.2L417.5,224.6z"/>
					<path class="st1" d="M512.2,190.4c0.9,0.1,1.7,0.2,2.4,0.2C513.9,190.5,513,190.4,512.2,190.4z"/>
					<path class="st1" d="M625.1,301l0.1,0.5c0,0,0,0,0.1,0.1L625.1,301z"/>
					<path class="st1" d="M625.2,301.6l0.1,0.6C625.2,301.9,625.2,301.7,625.2,301.6z"/>
					<path class="st1" d="M625.4,303.4l-0.2-1.2C625.3,302.6,625.3,303.1,625.4,303.4z"/>
					<path class="st1" d="M622.9,286.9l-0.2-0.1C622.8,286.9,622.8,286.9,622.9,286.9z"/>
					<path class="st1" d="M621.8,282.7c0.3,1,0.3,2.6,0.7,4l0.1,0.1C622.4,286.2,622.3,283.6,621.8,282.7z"/>
					<path class="st1" d="M617.5,265c0.5,1.1,0.8,2.3,1.3,3.5c-0.1-0.6-0.2-1.5,0.4,0C617.8,264,619.2,269.5,617.5,265z"/>
					<path class="st1" d="M612.7,254.6c1,1.7,0.2-0.1,0.3-0.1C612.3,253.5,612.1,253.2,612.7,254.6z"/>
					<path class="st1" d="M553.2,199.3l0.3-0.2C552.1,198.5,553.5,199.2,553.2,199.3z"/>
					<path class="st1" d="M537.9,195.4c0.5,0.2,0.9,0.4,1.3,0.6l0.8-0.1C539.3,195.8,538.6,195.6,537.9,195.4z"/>
					<polygon class="st1" points="529.5,190.8 530.2,190.9 527.7,190.4 					"/>
					<path class="st1" d="M404.2,234c0.2,0,0.4-0.1,0.6-0.1C405.5,233.1,405.3,232.6,404.2,234z"/>
					<path class="st1" d="M378.7,287.8c-0.4,0.6-0.8,2.2-0.8,3.3C378.2,289.8,378.6,288.5,378.7,287.8z"/>
					<path class="st1" d="M458.1,433l-1.2-0.3c0.7,0.2,1.4,0.5,2.2,0.7C458.7,433.3,458.4,433.2,458.1,433z"/>
				</g>
			</g>
		</g>
	</g>
</g>
<g>
	<g>
		<path class="st1" d="M426.8,287.1c3.1,0,5.5,0.9,7.1,2.6s2.4,4.2,2.4,7.3c0,3.1-0.8,5.6-2.4,7.3c-1.6,1.7-4,2.6-7.1,2.6h-9.1
			v-19.8H426.8z M426.1,302.4c1.5,0,2.5-0.4,3.1-1.3s0.9-2.3,0.9-4.1c0-1.8-0.3-3.2-0.9-4.1s-1.6-1.3-3.1-1.3h-2.2v10.9h2.2V302.4z"
			/>
		<path class="st1" d="M439.3,306.9v-19.8h16v4.6h-9.8v3.2h7.9v4.3h-7.9v3.1h10.2v4.6L439.3,306.9L439.3,306.9z"/>
		<path class="st1" d="M468.2,287.1c2.5,0,4.4,0.6,5.7,1.7c1.3,1.1,2,2.6,2,4.5c0,2.1-0.7,3.7-2,4.8c-1.3,1.1-3.2,1.6-5.7,1.6
			l-0.6,0.3h-3.5v6.9h-6v-19.8H468.2z M467.2,295.9c0.9,0,1.5-0.2,1.9-0.5s0.6-0.9,0.6-1.6c0-0.8-0.2-1.3-0.6-1.6s-1.1-0.5-1.9-0.5
			h-3.1v4.3L467.2,295.9L467.2,295.9z M470.9,297.2l6.2,9.8h-6.7l-4.8-8.7L470.9,297.2z"/>
		<path class="st1" d="M479,306.9v-19.8h16v4.6h-9.8v3.2h7.9v4.3h-7.9v3.1h10.2v4.6L479,306.9L479,306.9z"/>
		<path class="st1" d="M515.9,301c-0.4,1.5-1,2.6-1.8,3.6c-0.8,0.9-1.9,1.6-3.1,2s-2.5,0.6-4,0.6c-2,0-3.8-0.4-5.3-1.2
			c-1.5-0.8-2.6-2-3.4-3.5s-1.2-3.4-1.2-5.5s0.4-4,1.2-5.5c0.8-1.5,1.9-2.7,3.4-3.5s3.2-1.2,5.3-1.2c1.4,0,2.8,0.2,4,0.6
			s2.2,1,3.1,1.9c0.8,0.8,1.4,1.9,1.7,3.3l-5.3,2.1c-0.2-1.3-0.6-2.1-1.2-2.5s-1.3-0.6-2.1-0.6c-0.8,0-1.5,0.2-2.1,0.6s-1,1-1.3,1.8
			s-0.4,1.8-0.4,3.1c0,1.2,0.1,2.2,0.4,3.1c0.3,0.8,0.7,1.4,1.3,1.8s1.3,0.6,2.2,0.6c0.8,0,1.5-0.2,2.1-0.7s0.9-1.2,1.1-2.2
			L515.9,301z"/>
		<path class="st1" d="M524.3,287.1v19.8h-6.2v-19.8H524.3z M534,294.6v4.6h-12.9v-4.6H534z M536.8,287.1v19.8h-6.2v-19.8H536.8z"/>
		<path class="st1" d="M549.7,286.8c2.1,0,3.8,0.4,5.3,1.2c1.5,0.8,2.6,2,3.4,3.5c0.8,1.5,1.2,3.4,1.2,5.5s-0.4,4-1.2,5.5
			s-1.9,2.7-3.4,3.5s-3.2,1.2-5.3,1.2c-2,0-3.8-0.4-5.3-1.2c-1.5-0.8-2.6-2-3.4-3.5c-0.8-1.5-1.2-3.4-1.2-5.5s0.4-4,1.2-5.5
			s1.9-2.7,3.4-3.5C545.9,287.2,547.6,286.8,549.7,286.8z M549.7,291.5c-0.8,0-1.5,0.2-2,0.6s-0.9,1-1.2,1.8s-0.4,1.8-0.4,3.1
			c0,1.2,0.1,2.3,0.4,3.1c0.3,0.8,0.7,1.4,1.2,1.8s1.2,0.6,2,0.6s1.5-0.2,2-0.6s0.9-1,1.2-1.8s0.4-1.8,0.4-3.1
			c0-1.3-0.1-2.3-0.4-3.1c-0.3-0.8-0.7-1.4-1.2-1.8C551.1,291.7,550.5,291.5,549.7,291.5z"/>
		<path class="st1" d="M568.1,306.9l6.7-19.8h7.4l6.7,19.8h-6.3l-3.2-12l-0.8-3.2h-0.1l-0.8,3.2l-3.3,12H568.1z M572.9,302.8v-4
			h11.2v4H572.9z"/>
		<path class="st1" d="M436.6,338.3h9.4v4.6h-15.5v-19.8h6.1V338.3z"/>
		<path class="st1" d="M446.6,342.9l6.7-19.8h7.3l6.7,19.8H461l-3.2-12l-0.8-3.2h-0.1l-0.8,3.2l-3.3,12H446.6z M451.4,338.8v-4h11.2
			v4H451.4z"/>
		<path class="st1" d="M484.8,322.8c1.9,0,3.5,0.3,5,0.8s2.7,1.3,3.8,2.3l-2.7,3.9c-0.9-0.8-1.9-1.4-2.9-1.8s-2.1-0.6-3.3-0.6
			c-0.6,0-1.1,0.1-1.5,0.2s-0.7,0.3-0.8,0.5c-0.2,0.2-0.3,0.4-0.3,0.7c0,0.3,0.2,0.6,0.6,0.8c0.4,0.2,0.9,0.4,1.6,0.5l3,0.7
			c2,0.5,3.5,1.1,4.5,2s1.5,2.1,1.5,3.6s-0.4,2.8-1.1,3.8s-1.8,1.8-3.1,2.2c-1.3,0.5-2.8,0.8-4.4,0.8c-1.3,0-2.6-0.1-3.8-0.4
			c-1.2-0.3-2.4-0.6-3.4-1.1s-1.9-1.1-2.6-1.8l2.6-4c0.5,0.5,1.2,1,2,1.4s1.6,0.7,2.5,1s1.7,0.4,2.5,0.4c0.6,0,1.1-0.1,1.4-0.2
			c0.4-0.1,0.6-0.3,0.8-0.5c0.2-0.2,0.2-0.4,0.2-0.7c0-0.3-0.1-0.6-0.4-0.8c-0.3-0.2-0.8-0.4-1.5-0.6l-3.3-0.8c-1.1-0.2-2.1-0.6-3-1
			s-1.7-1-2.2-1.8c-0.6-0.8-0.8-1.7-0.8-3s0.3-2.4,1-3.5c0.7-1,1.7-1.8,3.1-2.3C481.3,323.1,483,322.8,484.8,322.8z"/>
		<path class="st1" d="M494,342.9l6.7-19.8h7.3l6.7,19.8h-6.3l-3.2-12l-0.8-3.2h-0.1l-0.8,3.2l-3.3,12H494z M498.8,338.8v-4H510v4
			H498.8z"/>
		<path class="st1" d="M522.6,338.3h9.4v4.6h-15.5v-19.8h6.1L522.6,338.3L522.6,338.3z"/>
		<path class="st1" d="M552.6,323.1v11.5c0,2.9-0.8,5-2.3,6.5c-1.5,1.4-3.8,2.1-6.9,2.1c-3.1,0-5.4-0.7-6.9-2.1s-2.3-3.6-2.3-6.5
			v-11.5h6.1v11.8c0,1.2,0.3,2.1,0.8,2.7s1.3,0.9,2.3,0.9s1.8-0.3,2.3-0.9s0.8-1.5,0.8-2.7v-11.8H552.6z"/>
		<path class="st1" d="M564.9,323.1c3.1,0,5.5,0.9,7.1,2.6s2.4,4.2,2.4,7.3c0,3.1-0.8,5.6-2.4,7.3c-1.6,1.7-4,2.6-7.1,2.6h-9.1
			v-19.8H564.9z M564.2,338.4c1.5,0,2.5-0.4,3.1-1.3s0.9-2.3,0.9-4.1c0-1.8-0.3-3.2-0.9-4.1c-0.6-0.9-1.6-1.3-3.1-1.3H562v10.9h2.2
			V338.4z"/>
	</g>
</g>
</svg>
