<?xml version="1.0" encoding="utf-8"?>
<!-- Generator: Adobe Illustrator 24.2.3, SVG Export Plug-In . SVG Version: 6.00 Build 0)  -->
<svg version="1.1" id="Layer_1" xmlns="http://www.w3.org/2000/svg" xmlns:xlink="http://www.w3.org/1999/xlink" x="0px" y="0px"
	 viewBox="0 0 895 556.4" style="enable-background:new 0 0 895 556.4;" xml:space="preserve">
<style type="text/css">
	.st0{fill:#FFFFFF;}
</style>
<g>
	<g>
		<path class="st0" d="M4.8,323.6c2.4,0,4.3,0.6,5.6,1.9c1.3,1.2,2,3.1,2,5.5c0,2.5-0.6,4.4-2,5.7c-1.3,1.3-3.1,2-5.6,2H0v-15
			L4.8,323.6L4.8,323.6z M4.9,337.7c2,0,3.5-0.5,4.7-1.8c1-1.1,1.7-2.8,1.7-4.9c0-2.1-0.5-3.6-1.7-4.7c-1-1.1-2.6-1.7-4.7-1.7H1.1
			v13L4.9,337.7L4.9,337.7z"/>
		<path class="st0" d="M20.3,338.9c-1,0-2-0.2-2.8-0.7c-0.8-0.5-1.5-1.1-2-2.1c-0.5-0.9-0.7-2-0.7-3.2s0.2-2.3,0.7-3.2
			c0.5-0.9,1.1-1.6,1.9-2.1c0.7-0.5,1.7-0.7,2.7-0.7s1.9,0.2,2.7,0.7c0.7,0.4,1.2,1.1,1.7,1.9c0.4,0.8,0.6,1.8,0.6,2.8
			c0,0.1,0,0.3,0,0.4c0,0.1,0,0.2,0,0.3h-9.4v-1h8.9l-0.6,0.2c0-1.3-0.3-2.4-1-3.1c-0.7-0.7-1.7-1.1-2.8-1.1c-0.8,0-1.6,0.2-2.2,0.6
			s-1.1,0.9-1.5,1.7c-0.3,0.7-0.5,1.7-0.5,2.7c0,1,0.2,1.9,0.5,2.7c0.3,0.7,0.8,1.3,1.6,1.7c0.7,0.3,1.3,0.6,2.3,0.6
			c0.9,0,1.7-0.2,2.3-0.5c0.6-0.4,1.1-0.9,1.5-1.6l0.9,0.5c-0.3,0.5-0.6,1-1.1,1.5c-0.4,0.4-0.9,0.7-1.6,0.9
			C21.7,338.8,21.1,338.9,20.3,338.9z"/>
		<path class="st0" d="M28.4,338.7v-11.4h0.9l0.1,2.4c0.3-0.8,0.7-1.5,1.3-1.9c0.6-0.5,1.5-0.7,2.3-0.7c0.3,0,0.6,0,0.8,0.1
			c0.2,0.1,0.4,0.2,0.6,0.3l-0.3,1c-0.2-0.1-0.3-0.2-0.5-0.2s-0.5-0.1-0.9-0.1c-0.6,0-1.1,0.2-1.7,0.5c-0.5,0.3-0.9,0.8-1.2,1.5
			c-0.3,0.6-0.5,1.3-0.5,2.2v6.4h-0.9V338.7z"/>
		<path class="st0" d="M41.2,338.9c-1,0-2-0.2-2.8-0.7c-0.8-0.5-1.5-1.1-2-2.1s-0.7-2-0.7-3.2s0.2-2.3,0.7-3.2
			c0.5-0.9,1.1-1.6,1.9-2.1c0.7-0.5,1.7-0.7,2.7-0.7s1.9,0.2,2.7,0.7c0.7,0.4,1.2,1.1,1.7,1.9c0.4,0.8,0.6,1.8,0.6,2.8
			c0,0.1,0,0.3,0,0.4c0,0.1,0,0.2,0,0.3h-9.4v-1h8.9l-0.6,0.2c0-1.3-0.3-2.4-1-3.1c-0.7-0.7-1.7-1.1-2.8-1.1c-0.8,0-1.6,0.2-2.2,0.6
			c-0.6,0.4-1.1,0.9-1.5,1.7c-0.3,0.7-0.5,1.7-0.5,2.7c0,1,0.2,1.9,0.5,2.7c0.3,0.7,0.8,1.3,1.6,1.7c0.7,0.3,1.3,0.6,2.3,0.6
			c0.9,0,1.7-0.2,2.3-0.5c0.6-0.4,1.1-0.9,1.5-1.6l0.9,0.5c-0.3,0.5-0.6,1-1.1,1.5c-0.4,0.4-0.9,0.7-1.6,0.9
			C42.5,338.8,41.9,338.9,41.2,338.9z"/>
		<path class="st0" d="M53.8,327c0.7,0,1.5,0.1,2.1,0.4c0.6,0.3,1.1,0.6,1.6,1c0.4,0.4,0.7,1,0.9,1.7l-1,0.5
			c-0.2-0.8-0.6-1.5-1.2-1.9c-0.6-0.4-1.3-0.6-2.3-0.6c-0.8,0-1.6,0.2-2.2,0.6c-0.6,0.4-1.1,0.9-1.5,1.7c-0.3,0.7-0.5,1.7-0.5,2.7
			c0,1,0.2,1.9,0.5,2.7c0.3,0.8,0.8,1.3,1.5,1.7c0.6,0.4,1.3,0.6,2.2,0.6c0.6,0,1.2-0.1,1.8-0.3c0.5-0.2,0.9-0.5,1.3-0.9
			c0.3-0.4,0.5-0.9,0.6-1.5l1,0.4c-0.2,0.7-0.5,1.3-0.9,1.8c-0.4,0.4-1,0.9-1.7,1.1c-0.6,0.3-1.3,0.4-2.2,0.4c-1,0-2-0.2-2.8-0.7
			s-1.5-1.1-1.9-2.1c-0.4-0.9-0.7-2-0.7-3.2s0.2-2.3,0.7-3.2c0.5-0.9,1.1-1.6,1.9-2.1S52.8,327,53.8,327z"/>
		<path class="st0" d="M61.6,338.7V322h1.1v7.6c0.3-0.8,0.8-1.5,1.7-1.9c0.7-0.4,1.6-0.6,2.6-0.6c0.8,0,1.6,0.2,2.3,0.5
			c0.6,0.3,1.1,0.8,1.6,1.5s0.5,1.5,0.5,2.4v7.4h-1.1v-7.1c0-1.2-0.3-2.2-0.9-2.7c-0.6-0.6-1.5-0.8-2.4-0.8c-0.7,0-1.3,0.2-2,0.5
			c-0.6,0.3-1.1,0.8-1.6,1.5c-0.4,0.6-0.6,1.3-0.6,2.3v6.4h-1.1V338.7z"/>
		<path class="st0" d="M79.9,327c1,0,2,0.2,2.8,0.7c0.8,0.5,1.5,1.1,1.9,2.1c0.4,0.9,0.7,2,0.7,3.2s-0.2,2.3-0.7,3.2
			c-0.4,0.9-1.1,1.6-1.9,2.1c-0.8,0.5-1.8,0.7-2.8,0.7s-2-0.2-2.8-0.7c-0.8-0.5-1.5-1.1-1.9-2.1c-0.4-0.9-0.7-2-0.7-3.2
			s0.2-2.3,0.7-3.2c0.5-0.9,1.1-1.6,1.9-2.1C77.8,327.2,78.8,327,79.9,327z M79.9,328c-0.8,0-1.7,0.2-2.3,0.6
			c-0.6,0.4-1.1,0.9-1.5,1.7c-0.3,0.7-0.5,1.7-0.5,2.7s0.2,1.9,0.5,2.7c0.3,0.7,0.8,1.3,1.5,1.8c0.6,0.4,1.3,0.6,2.3,0.6
			c0.8,0,1.7-0.2,2.3-0.6c0.6-0.4,1.1-0.9,1.5-1.8c0.3-0.8,0.5-1.7,0.5-2.7s-0.2-2-0.5-2.7s-0.8-1.3-1.5-1.7
			C81.5,328.3,80.8,328,79.9,328z"/>
		<path class="st0" d="M102.7,331.1c0-1-0.3-1.8-0.8-2.3c-0.5-0.5-1.2-0.8-2.3-0.8c-0.8,0-1.7,0.2-2.3,0.5c-0.6,0.4-1,1-1.3,1.9
			l-0.9-0.6c0.3-0.9,0.9-1.6,1.7-2.1c0.7-0.5,1.8-0.7,2.9-0.7c0.8,0,1.6,0.1,2.2,0.4s1.1,0.7,1.5,1.3c0.3,0.6,0.5,1.3,0.5,2.2v5.7
			c0,0.8,0.4,1.2,1.1,1.2c0.3,0,0.6-0.1,0.8-0.2l-0.1,0.9c-0.2,0.1-0.6,0.2-1,0.2c-0.3,0-0.7-0.1-0.9-0.2c-0.3-0.1-0.5-0.4-0.7-0.7
			c-0.2-0.3-0.3-0.7-0.3-1.3v-0.6h0.3c-0.1,0.6-0.4,1.2-0.9,1.7c-0.5,0.4-1,0.7-1.7,0.9s-1.2,0.3-1.9,0.3c-0.7,0-1.3-0.1-1.9-0.3
			c-0.5-0.2-1-0.5-1.3-1c-0.3-0.5-0.5-0.9-0.5-1.7c0-0.8,0.3-1.6,0.8-2.1c0.5-0.5,1.3-0.9,2.4-1l4.8-0.9v0.9l-4.1,0.8
			c-0.9,0.2-1.6,0.4-2,0.8c-0.4,0.3-0.6,0.8-0.6,1.5c0,0.6,0.2,1.1,0.7,1.5c0.5,0.3,1.1,0.5,2,0.5c0.4,0,0.9-0.1,1.3-0.2
			c0.4-0.1,0.8-0.3,1.2-0.6c0.4-0.3,0.7-0.6,0.9-1c0.2-0.4,0.3-0.9,0.3-1.5v-3.3H102.7z"/>
		<path class="st0" d="M115.8,322v14c0,0.7,0.1,1.2,0.4,1.5c0.2,0.3,0.6,0.4,1.1,0.4c0.3,0,0.6,0,0.7-0.1c0.2,0,0.4-0.1,0.6-0.2
			l-0.2,1c-0.2,0.1-0.4,0.2-0.6,0.2c-0.2,0.1-0.5,0.1-0.8,0.1c-0.8,0-1.5-0.2-1.8-0.7c-0.4-0.4-0.6-1.1-0.6-2.2v-14L115.8,322
			L115.8,322z"/>
		<path class="st0" d="M128,331.1c0-1-0.3-1.8-0.8-2.3c-0.5-0.5-1.2-0.8-2.3-0.8c-0.8,0-1.7,0.2-2.3,0.5c-0.6,0.4-1,1-1.3,1.9
			l-0.9-0.5c0.3-0.9,0.9-1.6,1.7-2.1c0.7-0.5,1.8-0.7,2.9-0.7c0.8,0,1.6,0.1,2.2,0.4c0.6,0.3,1.1,0.7,1.5,1.3
			c0.3,0.6,0.5,1.3,0.5,2.2v5.7c0,0.8,0.4,1.2,1.1,1.2c0.3,0,0.6-0.1,0.8-0.2l-0.1,0.9c-0.2,0.1-0.6,0.2-1,0.2
			c-0.3,0-0.7-0.1-0.9-0.2c-0.3-0.1-0.5-0.4-0.7-0.7c-0.2-0.3-0.3-0.7-0.3-1.3V336h0.3c-0.1,0.6-0.4,1.2-0.9,1.7
			c-0.5,0.4-1,0.7-1.7,0.9c-0.6,0.2-1.2,0.3-1.9,0.3c-0.7,0-1.3-0.1-1.9-0.3c-0.5-0.2-1-0.5-1.3-1s-0.5-0.9-0.5-1.7
			c0-0.8,0.3-1.6,0.8-2.1c0.5-0.5,1.3-0.9,2.4-1l4.8-0.9v0.9l-4.1,0.8c-0.9,0.2-1.6,0.4-2,0.8c-0.4,0.3-0.6,0.8-0.6,1.5
			s0.2,1.1,0.7,1.5c0.5,0.3,1.1,0.5,2,0.5c0.4,0,0.9-0.1,1.3-0.2c0.4-0.1,0.8-0.3,1.2-0.6c0.4-0.3,0.7-0.6,0.9-1
			c0.2-0.4,0.3-0.9,0.3-1.5v-3.4H128z"/>
		<path class="st0" d="M141.1,325.6c-0.6,0-1.1-0.1-1.5-0.4c-0.3-0.3-0.5-0.7-0.5-1.2s0.2-0.9,0.5-1.2c0.3-0.3,0.8-0.4,1.5-0.4
			c0.6,0,1.1,0.1,1.5,0.4s0.5,0.7,0.5,1.2s-0.2,0.9-0.5,1.2C142.2,325.4,141.8,325.6,141.1,325.6z M142.6,327.3v11.4h-3.1v-11.4
			H142.6z"/>
		<path class="st0" d="M152.8,336.5c1.2,0,2.2,0.3,2.9,0.8c0.6,0.5,1,1.2,1,2.3c0,0.8-0.2,1.6-0.7,2.2c-0.5,0.6-1.2,1-2.1,1.3
			c-0.9,0.3-2,0.4-3.1,0.4c-2,0-3.4-0.3-4.3-0.8s-1.3-1.2-1.3-2.2c0-0.6,0.2-1.1,0.7-1.6c0.5-0.4,1.2-0.6,2.4-0.7l-0.1,0.4
			c-0.8-0.1-1.3-0.4-1.8-0.8s-0.6-0.9-0.6-1.7s0.3-1.2,0.8-1.8c0.5-0.4,1.2-0.7,2.2-0.8l1.3,0.6h-0.3c-0.6,0-1.1,0.2-1.3,0.4
			c-0.3,0.2-0.4,0.5-0.4,0.7c0,0.3,0.1,0.5,0.4,0.7c0.2,0.2,0.6,0.2,1,0.2h3.2V336.5z M150.6,327c1,0,2,0.2,2.8,0.5
			c0.8,0.3,1.3,0.7,1.8,1.3c0.4,0.6,0.6,1.2,0.6,2.1c0,0.8-0.2,1.5-0.6,2.1c-0.4,0.6-1,1-1.8,1.3c-0.8,0.3-1.7,0.5-2.8,0.5
			c-1.7,0-3-0.3-3.8-1c-0.9-0.7-1.3-1.7-1.3-2.8c0-0.8,0.2-1.5,0.6-2.1c0.4-0.6,1-1,1.8-1.3C148.7,327.2,149.6,327,150.6,327z
			 M150.6,341.4c0.8,0,1.5-0.1,2-0.2c0.5-0.1,0.9-0.3,1.1-0.5c0.2-0.2,0.4-0.4,0.4-0.7s-0.1-0.5-0.3-0.7c-0.2-0.2-0.6-0.3-1.2-0.3
			h-3.8c-0.4,0-0.6,0.1-0.9,0.3c-0.2,0.2-0.3,0.4-0.3,0.7c0,0.4,0.3,0.7,0.8,1C148.9,341.3,149.7,341.4,150.6,341.4z M150.6,328.9
			c-0.6,0-1.1,0.2-1.6,0.5c-0.4,0.3-0.6,0.8-0.6,1.3s0.2,1,0.6,1.5c0.4,0.3,0.9,0.5,1.6,0.5s1.1-0.2,1.5-0.5
			c0.3-0.3,0.6-0.8,0.6-1.5c0-0.6-0.2-1-0.6-1.3C151.8,329.2,151.2,328.9,150.6,328.9z M156.5,324.6l0.4,2.3c-0.1,0-0.1,0-0.2,0
			c-0.1,0-0.1,0-0.2,0c-0.7,0-1.2,0.2-1.6,0.5c-0.3,0.3-0.5,0.7-0.5,1.2l-1.2-0.5c0-0.6,0.1-1.1,0.4-1.7c0.3-0.5,0.6-0.9,1-1.2
			c0.5-0.3,1-0.5,1.8-0.5h0.1C156.4,324.6,156.4,324.6,156.5,324.6z"/>
		<path class="st0" d="M162.5,338.9c-0.7,0-1.5-0.1-2.1-0.4c-0.6-0.3-1.1-0.7-1.5-1.3s-0.5-1.3-0.5-2.4v-7.6h3.1v6.8
			c0,0.9,0.2,1.5,0.5,1.9c0.3,0.4,0.9,0.5,1.6,0.5c0.3,0,0.6-0.1,0.9-0.2c0.3-0.1,0.6-0.3,0.8-0.5c0.2-0.2,0.4-0.5,0.5-0.9
			c0.1-0.4,0.2-0.8,0.2-1.3v-6.1h3.1v11.4h-2.8l-0.1-2c-0.4,0.7-0.9,1.3-1.6,1.7C164.2,338.7,163.4,338.9,162.5,338.9z"/>
		<path class="st0" d="M179.2,331.3c0-0.6-0.2-1.1-0.5-1.6c-0.4-0.4-0.8-0.5-1.5-0.5c-0.5,0-1,0.1-1.5,0.4c-0.4,0.3-0.7,0.7-0.9,1.5
			l-2.7-0.8c0.2-1,0.8-1.8,1.7-2.4s2.1-0.9,3.5-0.9c1,0,1.9,0.2,2.6,0.5c0.7,0.3,1.3,0.8,1.8,1.5c0.4,0.6,0.6,1.5,0.6,2.4v4.7
			c0,0.6,0.3,0.8,0.8,0.8c0.2,0,0.5,0,0.7-0.1l-0.2,2c-0.4,0.2-0.9,0.3-1.5,0.3c-0.5,0-1-0.1-1.5-0.3c-0.4-0.2-0.7-0.4-1-0.8
			c-0.2-0.4-0.4-0.8-0.4-1.5v-0.1l0.5-0.1c-0.1,0.6-0.3,1-0.7,1.5c-0.4,0.4-0.9,0.7-1.5,0.9c-0.6,0.2-1.1,0.3-1.8,0.3
			c-0.7,0-1.5-0.1-2-0.3c-0.5-0.2-1-0.6-1.3-1c-0.3-0.4-0.4-1-0.4-1.7c0-0.8,0.3-1.6,0.8-2.1c0.5-0.5,1.3-0.9,2.4-1.1l4.3-0.8v2
			l-2.7,0.5c-0.5,0.1-0.9,0.2-1.1,0.4c-0.3,0.2-0.4,0.4-0.4,0.8c0,0.4,0.1,0.6,0.4,0.8c0.3,0.2,0.6,0.3,1,0.3c0.3,0,0.6,0,0.9-0.1
			c0.3-0.1,0.6-0.2,0.8-0.4c0.2-0.2,0.4-0.4,0.5-0.7c0.1-0.3,0.2-0.6,0.2-1v-3.1H179.2z"/>
		<path class="st0" d="M188.8,322.2v12.9c0,0.5,0.1,0.9,0.3,1.1c0.2,0.2,0.5,0.3,0.9,0.3c0.2,0,0.5,0,0.6-0.1c0.2,0,0.4-0.1,0.6-0.2
			l-0.3,2.1c-0.2,0.1-0.6,0.3-0.9,0.3c-0.4,0.1-0.7,0.1-1.1,0.1c-1.1,0-2-0.3-2.4-0.8c-0.5-0.5-0.7-1.5-0.7-2.6V322h3V322.2z"/>
		<path class="st0" d="M197.3,338.9c-0.9,0-1.8-0.2-2.5-0.7c-0.7-0.5-1.3-1.1-1.8-2.1c-0.4-0.8-0.6-2-0.6-3.2s0.2-2.4,0.6-3.2
			c0.4-0.9,1-1.6,1.8-2.1s1.6-0.7,2.6-0.7c1,0,1.9,0.3,2.5,0.8c0.6,0.6,1,1.3,1.2,2.3l-0.3,0.4v-8.2h3.1v16.4h-2.7l-0.2-3.4l0.4,0.2
			c-0.1,0.7-0.3,1.3-0.7,1.9c-0.4,0.5-0.8,0.9-1.5,1.2C198.7,338.7,198,338.9,197.3,338.9z M198.2,336.5c0.5,0,1-0.1,1.5-0.4
			c0.4-0.3,0.7-0.7,0.9-1.2s0.3-1.2,0.3-2c0-0.7-0.1-1.3-0.3-1.9s-0.5-0.9-0.9-1.1c-0.4-0.2-0.8-0.4-1.3-0.4c-0.8,0-1.6,0.3-2,0.9
			c-0.5,0.6-0.7,1.5-0.7,2.6s0.2,2.1,0.7,2.6C196.8,336.2,197.4,336.5,198.2,336.5z"/>
		<path class="st0" d="M213.8,331.3c0-0.6-0.2-1.1-0.5-1.6c-0.4-0.4-0.8-0.5-1.5-0.5c-0.5,0-1,0.1-1.5,0.4c-0.4,0.3-0.7,0.7-0.9,1.5
			l-2.7-0.8c0.2-1,0.8-1.8,1.7-2.4s2.1-0.9,3.5-0.9c1,0,1.9,0.2,2.6,0.5c0.7,0.3,1.3,0.8,1.8,1.5c0.4,0.6,0.6,1.5,0.6,2.4v4.7
			c0,0.6,0.3,0.8,0.8,0.8c0.2,0,0.5,0,0.7-0.1l-0.2,2c-0.4,0.2-0.9,0.3-1.5,0.3c-0.5,0-1-0.1-1.5-0.3c-0.4-0.2-0.7-0.4-1-0.8
			c-0.2-0.4-0.4-0.8-0.4-1.5v-0.1l0.5-0.1c-0.1,0.6-0.3,1-0.7,1.5c-0.4,0.4-0.9,0.7-1.5,0.9c-0.6,0.2-1.1,0.3-1.8,0.3
			c-0.7,0-1.5-0.1-2-0.3c-0.5-0.2-1-0.6-1.3-1c-0.3-0.4-0.4-1-0.4-1.7c0-0.8,0.3-1.6,0.8-2.1c0.5-0.5,1.3-0.9,2.4-1.1l4.3-0.8v2
			l-2.7,0.5c-0.5,0.1-0.9,0.2-1.1,0.4c-0.3,0.2-0.4,0.4-0.4,0.8c0,0.4,0.1,0.6,0.4,0.8c0.3,0.2,0.6,0.3,1,0.3c0.3,0,0.6,0,0.9-0.1
			c0.3-0.1,0.6-0.2,0.8-0.4c0.2-0.2,0.4-0.4,0.5-0.7c0.1-0.3,0.2-0.6,0.2-1v-3.1H213.8z"/>
		<path class="st0" d="M224.7,338.9c-0.9,0-1.8-0.2-2.5-0.7c-0.7-0.5-1.3-1.1-1.8-2.1c-0.4-0.8-0.6-2-0.6-3.2s0.2-2.4,0.6-3.2
			c0.4-0.9,1-1.6,1.8-2.1s1.6-0.7,2.6-0.7c1,0,1.9,0.3,2.5,0.8c0.6,0.6,1,1.3,1.2,2.3l-0.3,0.4v-8.2h3.1v16.4h-2.8l-0.2-3.4l0.4,0.2
			c-0.1,0.7-0.3,1.3-0.7,1.9c-0.4,0.5-0.8,0.9-1.5,1.2C226,338.7,225.4,338.9,224.7,338.9z M225.6,336.5c0.5,0,1-0.1,1.5-0.4
			c0.4-0.3,0.7-0.7,0.9-1.2c0.2-0.5,0.3-1.2,0.3-2c0-0.7-0.1-1.3-0.3-1.9c-0.2-0.5-0.5-0.9-0.9-1.1c-0.4-0.2-0.8-0.4-1.3-0.4
			c-0.8,0-1.6,0.3-2,0.9c-0.5,0.6-0.7,1.5-0.7,2.6s0.2,2.1,0.7,2.6C224.1,336.2,224.8,336.5,225.6,336.5z"/>
		<path class="st0" d="M17.3,366.3c-1,0-1.9-0.2-2.7-0.7s-1.5-1.1-1.9-2.1s-0.6-2-0.6-3.2s0.2-2.4,0.7-3.2c0.5-0.9,1.1-1.6,1.9-2
			c0.8-0.4,1.7-0.7,2.7-0.7c1,0,2,0.3,2.7,0.8s1.2,1.3,1.6,2.3l-0.1,0.1v-8.3h1.1V366h-1l-0.1-3.2h0.1c-0.1,0.7-0.4,1.3-0.8,1.9
			c-0.4,0.5-0.9,0.9-1.6,1.1C18.7,366.2,18.1,366.3,17.3,366.3z M17.4,365.3c0.8,0,1.6-0.2,2.1-0.6c0.6-0.4,1-0.9,1.5-1.8
			c0.3-0.7,0.5-1.7,0.5-2.7c0-1-0.2-1.9-0.5-2.6c-0.3-0.7-0.8-1.2-1.5-1.7s-1.3-0.6-2.1-0.6c-1.3,0-2.4,0.4-3.1,1.3
			s-1.1,2.1-1.1,3.6s0.4,2.7,1.1,3.6C15.1,364.8,16.2,365.3,17.4,365.3z"/>
		<path class="st0" d="M31.3,366.3c-1,0-2-0.2-2.8-0.7c-0.8-0.5-1.5-1.1-2-2.1c-0.4-0.9-0.7-2-0.7-3.2s0.2-2.3,0.7-3.2
			c0.4-0.9,1.1-1.6,1.9-2.1c0.8-0.5,1.7-0.7,2.7-0.7c1,0,1.9,0.2,2.7,0.7c0.7,0.4,1.2,1.1,1.7,1.9c0.4,0.8,0.6,1.8,0.6,2.8
			c0,0.1,0,0.3,0,0.4c0,0.1,0,0.2,0,0.3h-9.4v-1h8.9l-0.6,0.2c0-1.3-0.3-2.4-1-3.1c-0.7-0.7-1.7-1.1-2.8-1.1c-0.8,0-1.6,0.2-2.2,0.6
			c-0.6,0.4-1.1,0.9-1.5,1.7s-0.5,1.7-0.5,2.7s0.2,1.9,0.5,2.7c0.3,0.7,0.8,1.3,1.6,1.7c0.6,0.4,1.3,0.6,2.3,0.6s1.7-0.2,2.3-0.5
			c0.6-0.4,1.1-0.9,1.5-1.6l0.9,0.5c-0.3,0.5-0.6,1-1.1,1.5s-0.9,0.7-1.6,0.9C32.8,366.2,32.1,366.3,31.3,366.3z"/>
		<path class="st0" d="M43.3,366.3c-1.1,0-2.2-0.2-3.1-0.7c-0.9-0.5-1.6-1.1-1.9-2.1l0.9-0.6c0.3,0.7,0.7,1.3,1.5,1.8
			c0.7,0.4,1.6,0.6,2.6,0.6s1.8-0.2,2.4-0.6c0.5-0.4,0.8-0.9,0.8-1.6c0-0.4-0.1-0.8-0.4-1.1c-0.3-0.3-0.8-0.6-1.6-0.7l-2.7-0.5
			c-1-0.2-1.9-0.6-2.3-1.1c-0.5-0.5-0.7-1.1-0.7-1.9c0-0.6,0.2-1.1,0.5-1.7c0.4-0.5,0.8-0.8,1.6-1.1c0.7-0.3,1.5-0.4,2.3-0.4
			c1.1,0,2.1,0.2,2.8,0.7c0.7,0.4,1.2,1.1,1.6,2l-0.9,0.6c-0.2-0.8-0.6-1.3-1.2-1.8s-1.3-0.5-2.2-0.5c-0.6,0-1.2,0.1-1.7,0.3
			c-0.5,0.2-0.8,0.4-1.1,0.7c-0.3,0.3-0.4,0.7-0.4,1.1c0,0.4,0.1,0.8,0.4,1.2c0.3,0.3,0.8,0.6,1.7,0.8l2.7,0.6c1,0.2,1.9,0.6,2.3,1
			c0.4,0.4,0.6,1,0.6,1.8c0,0.6-0.2,1.2-0.5,1.8c-0.4,0.5-0.9,0.9-1.6,1.1C44.9,366.3,44.2,366.3,43.3,366.3z"/>
		<path class="st0" d="M55.4,366.3c-1,0-1.9-0.2-2.7-0.7c-0.8-0.5-1.5-1.1-1.9-2.1c-0.4-0.9-0.6-2-0.6-3.2s0.2-2.4,0.7-3.2
			c0.5-0.9,1.1-1.6,1.9-2c0.8-0.4,1.7-0.7,2.7-0.7s2,0.3,2.7,0.8s1.2,1.3,1.6,2.3l-0.1,0.1v-8.3h1.1V366h-1l-0.1-3.2h0.1
			c-0.1,0.7-0.4,1.3-0.8,1.9c-0.4,0.5-0.9,0.9-1.6,1.1C56.7,366.2,56.1,366.3,55.4,366.3z M55.5,365.3c0.8,0,1.6-0.2,2.1-0.6
			c0.6-0.4,1-0.9,1.5-1.8c0.3-0.7,0.5-1.7,0.5-2.7c0-1-0.2-1.9-0.5-2.6s-0.8-1.2-1.5-1.7c-0.6-0.4-1.3-0.6-2.1-0.6
			c-1.3,0-2.4,0.4-3.1,1.3s-1.1,2.1-1.1,3.6s0.4,2.7,1.1,3.6C53.2,364.8,54.3,365.3,55.5,365.3z"/>
		<path class="st0" d="M69.5,366.3c-1,0-2-0.2-2.8-0.7c-0.8-0.5-1.5-1.1-2-2.1c-0.4-0.9-0.7-2-0.7-3.2s0.2-2.3,0.7-3.2
			c0.4-0.9,1.1-1.6,1.9-2.1c0.8-0.5,1.7-0.7,2.7-0.7s1.9,0.2,2.7,0.7c0.7,0.4,1.2,1.1,1.7,1.9c0.4,0.8,0.6,1.8,0.6,2.8
			c0,0.1,0,0.3,0,0.4c0,0.1,0,0.2,0,0.3h-9.4v-1h8.8l-0.6,0.2c0-1.3-0.3-2.4-1-3.1c-0.7-0.7-1.7-1.1-2.8-1.1c-0.8,0-1.6,0.2-2.2,0.6
			s-1.1,0.9-1.5,1.7c-0.3,0.7-0.5,1.7-0.5,2.7s0.2,1.9,0.5,2.7c0.3,0.7,0.8,1.3,1.6,1.7c0.6,0.4,1.3,0.6,2.3,0.6
			c0.9,0,1.7-0.2,2.3-0.5c0.6-0.4,1.1-0.9,1.5-1.6l0.9,0.5c-0.3,0.5-0.6,1-1.1,1.5c-0.5,0.4-0.9,0.7-1.6,0.9
			C70.9,366.2,70.1,366.3,69.5,366.3z"/>
		<path class="st0" d="M89.3,366.3c-1,0-2-0.2-2.8-0.7c-0.8-0.5-1.5-1.1-2-2.1c-0.4-0.9-0.7-2-0.7-3.2s0.2-2.3,0.7-3.2
			c0.4-0.9,1.1-1.6,1.9-2.1c0.8-0.5,1.7-0.7,2.7-0.7s1.9,0.2,2.7,0.7c0.7,0.4,1.2,1.1,1.7,1.9c0.4,0.8,0.6,1.8,0.6,2.8
			c0,0.1,0,0.3,0,0.4c0,0.1,0,0.2,0,0.3h-9.4v-1h8.9l-0.6,0.2c0-1.3-0.3-2.4-1-3.1s-1.7-1.1-2.8-1.1c-0.8,0-1.6,0.2-2.2,0.6
			c-0.6,0.4-1.1,0.9-1.5,1.7s-0.5,1.7-0.5,2.7s0.2,1.9,0.5,2.7c0.3,0.7,0.8,1.3,1.6,1.7c0.6,0.4,1.3,0.6,2.3,0.6s1.7-0.2,2.3-0.5
			c0.6-0.4,1.1-0.9,1.5-1.6l0.9,0.5c-0.3,0.5-0.6,1-1.1,1.5c-0.5,0.4-0.9,0.7-1.6,0.9C90.7,366.2,90,366.3,89.3,366.3z"/>
		<path class="st0" d="M98.4,349.4v14c0,0.7,0.1,1.2,0.4,1.5c0.2,0.3,0.6,0.4,1.1,0.4c0.3,0,0.6,0,0.7-0.1c0.2,0,0.4-0.1,0.6-0.2
			l-0.2,1c-0.2,0.1-0.4,0.2-0.6,0.2c-0.2,0.1-0.5,0.1-0.8,0.1c-0.8,0-1.5-0.2-1.8-0.7c-0.4-0.4-0.6-1.1-0.6-2.2v-14L98.4,349.4
			L98.4,349.4z"/>
		<path class="st0" d="M110.1,366.1v-11.4h1l0.1,2.9l-0.2-0.2c0.2-0.6,0.5-1.1,0.9-1.6c0.4-0.4,0.9-0.7,1.6-1
			c0.6-0.2,1.2-0.3,1.9-0.3c0.8,0,1.6,0.2,2.3,0.5c0.6,0.3,1.1,0.8,1.6,1.5c0.4,0.6,0.5,1.5,0.5,2.4v7.4h-1.1v-7.1
			c0-1.2-0.3-2.2-0.9-2.7c-0.6-0.6-1.5-0.8-2.4-0.8c-0.7,0-1.3,0.2-2,0.5c-0.6,0.3-1.1,0.8-1.6,1.5c-0.4,0.6-0.6,1.3-0.6,2.3v6.4h-1
			V366.1z"/>
		<path class="st0" d="M130.7,358.5c0-1-0.3-1.8-0.8-2.3c-0.5-0.5-1.2-0.8-2.3-0.8c-0.8,0-1.7,0.2-2.3,0.5c-0.6,0.4-1,1-1.3,1.9
			l-0.9-0.6c0.3-0.9,0.9-1.6,1.7-2.1s1.8-0.7,2.9-0.7c0.8,0,1.6,0.1,2.2,0.4c0.6,0.3,1.1,0.7,1.5,1.3s0.5,1.3,0.5,2.2v5.7
			c0,0.8,0.4,1.2,1.1,1.2c0.3,0,0.6-0.1,0.8-0.2l-0.1,0.9c-0.2,0.1-0.6,0.2-1,0.2c-0.3,0-0.7-0.1-0.9-0.2c-0.3-0.1-0.5-0.4-0.7-0.7
			c-0.2-0.3-0.3-0.7-0.3-1.3v-0.6h0.3c-0.1,0.6-0.4,1.2-0.9,1.7c-0.5,0.4-1,0.7-1.7,0.9c-0.6,0.2-1.2,0.3-1.9,0.3
			c-0.7,0-1.3-0.1-1.9-0.3c-0.5-0.2-1-0.5-1.3-1c-0.3-0.5-0.5-0.9-0.5-1.7c0-0.8,0.3-1.6,0.8-2.1c0.5-0.5,1.3-0.9,2.4-1l4.8-0.9v0.9
			l-4.1,0.8c-0.9,0.2-1.6,0.4-2,0.8c-0.4,0.3-0.6,0.8-0.6,1.5c0,0.6,0.2,1.1,0.7,1.5c0.5,0.3,1.1,0.5,2,0.5c0.4,0,0.9-0.1,1.3-0.2
			s0.8-0.3,1.2-0.6c0.4-0.3,0.7-0.6,0.9-1s0.3-0.9,0.3-1.5v-3.3H130.7z"/>
		<path class="st0" d="M140.7,354.4c0.7,0,1.5,0.1,2.1,0.4c0.6,0.2,1.1,0.6,1.6,1c0.4,0.4,0.7,1,0.9,1.7l-1,0.5
			c-0.2-0.8-0.6-1.5-1.2-1.9c-0.6-0.4-1.3-0.6-2.3-0.6c-0.8,0-1.6,0.2-2.2,0.6c-0.6,0.4-1.1,0.9-1.5,1.7c-0.3,0.7-0.5,1.7-0.5,2.7
			s0.2,1.9,0.5,2.7c0.3,0.7,0.8,1.3,1.5,1.7c0.6,0.4,1.3,0.6,2.2,0.6c0.6,0,1.2-0.1,1.8-0.3c0.5-0.2,0.9-0.5,1.3-0.9
			c0.4-0.4,0.5-0.9,0.6-1.5l1,0.4c-0.2,0.7-0.5,1.3-0.9,1.8c-0.4,0.5-1,0.9-1.7,1.1c-0.6,0.3-1.3,0.4-2.2,0.4c-1,0-2-0.2-2.8-0.7
			c-0.8-0.5-1.5-1.1-1.9-2.1c-0.4-0.9-0.7-2-0.7-3.2s0.2-2.3,0.7-3.2c0.4-0.9,1.1-1.6,1.9-2.1C138.7,354.7,139.6,354.4,140.7,354.4z
			"/>
		<path class="st0" d="M149.1,352.4c-0.3,0-0.5-0.1-0.7-0.3c-0.2-0.2-0.3-0.4-0.3-0.7c0-0.3,0.1-0.5,0.3-0.7
			c0.2-0.2,0.4-0.3,0.7-0.3c0.3,0,0.5,0.1,0.7,0.3c0.2,0.2,0.3,0.4,0.3,0.7s-0.1,0.5-0.3,0.7S149.3,352.4,149.1,352.4z M149.6,354.7
			v11.4h-1.1v-11.4H149.6z"/>
		<path class="st0" d="M153.7,366.1v-11.4h1l0.1,2.4c0.3-0.8,0.8-1.5,1.7-1.9c0.7-0.4,1.6-0.7,2.5-0.7c1,0,1.9,0.2,2.6,0.7
			s1.2,1.1,1.5,2.1c0.2-0.6,0.5-1,0.9-1.5c0.4-0.4,0.9-0.7,1.6-0.9c0.6-0.2,1.2-0.3,1.9-0.3c0.8,0,1.6,0.2,2.2,0.5
			c0.6,0.3,1.1,0.8,1.6,1.5c0.4,0.6,0.6,1.5,0.6,2.4v7.4h-1.1V359c0-1.1-0.3-2-0.9-2.5c-0.6-0.5-1.3-0.8-2.4-0.8
			c-0.7,0-1.3,0.2-2,0.5c-0.6,0.3-1.1,0.8-1.5,1.5c-0.3,0.6-0.5,1.3-0.5,2.2v6.5h-1.1v-7.3c0-1.1-0.3-2-0.9-2.5s-1.3-0.8-2.4-0.8
			c-0.7,0-1.3,0.2-2,0.5c-0.6,0.3-1.1,0.8-1.5,1.5c-0.3,0.6-0.5,1.3-0.5,2.3v6.4h-1.2V366.1z"/>
		<path class="st0" d="M176.1,352.4c-0.3,0-0.5-0.1-0.7-0.3c-0.2-0.2-0.3-0.4-0.3-0.7c0-0.3,0.1-0.5,0.3-0.7
			c0.2-0.2,0.4-0.3,0.7-0.3c0.3,0,0.5,0.1,0.7,0.3c0.2,0.2,0.3,0.4,0.3,0.7s-0.1,0.5-0.3,0.7S176.5,352.4,176.1,352.4z M176.8,354.7
			v11.4h-1.1v-11.4H176.8z"/>
		<path class="st0" d="M185.5,366.3c-1,0-2-0.2-2.8-0.7s-1.5-1.1-2-2.1c-0.4-0.9-0.7-2-0.7-3.2s0.2-2.3,0.7-3.2
			c0.4-0.9,1.1-1.6,1.9-2.1c0.8-0.5,1.7-0.7,2.7-0.7c1,0,1.9,0.2,2.7,0.7c0.7,0.4,1.2,1.1,1.7,1.9c0.4,0.8,0.6,1.8,0.6,2.8
			c0,0.1,0,0.3,0,0.4c0,0.1,0,0.2,0,0.3h-9.4v-1h8.9l-0.6,0.2c0-1.3-0.3-2.4-1-3.1s-1.7-1.1-2.8-1.1c-0.8,0-1.6,0.2-2.2,0.6
			s-1.1,0.9-1.5,1.7s-0.5,1.7-0.5,2.7s0.2,1.9,0.5,2.7c0.3,0.7,0.8,1.3,1.6,1.7c0.6,0.4,1.3,0.6,2.3,0.6c0.9,0,1.7-0.2,2.3-0.5
			c0.6-0.4,1.1-0.9,1.5-1.6l0.9,0.5c-0.3,0.5-0.6,1-1.1,1.5c-0.5,0.4-0.9,0.7-1.6,0.9C186.8,366.2,186.2,366.3,185.5,366.3z"/>
		<path class="st0" d="M193.6,366.1v-11.4h1l0.1,2.9l-0.2-0.2c0.2-0.6,0.5-1.1,0.9-1.6c0.4-0.4,0.9-0.7,1.6-1
			c0.6-0.2,1.2-0.3,1.9-0.3c0.8,0,1.6,0.2,2.3,0.5c0.6,0.3,1.1,0.8,1.6,1.5c0.4,0.6,0.5,1.5,0.5,2.4v7.4h-1.1v-7.1
			c0-1.2-0.3-2.2-0.9-2.7c-0.6-0.6-1.5-0.8-2.4-0.8c-0.7,0-1.3,0.2-2,0.5c-0.6,0.3-1.1,0.8-1.6,1.5c-0.4,0.6-0.6,1.3-0.6,2.3v6.4h-1
			V366.1z"/>
		<path class="st0" d="M213.1,354.7v0.9h-7.7v-0.9H213.1z M208.8,351.5v11.6c0,0.7,0.2,1.2,0.5,1.7c0.3,0.4,0.8,0.5,1.5,0.5
			c0.4,0,0.8-0.1,1.1-0.2c0.3-0.1,0.6-0.3,0.8-0.6l0.4,0.9c-0.3,0.3-0.6,0.5-1.1,0.7c-0.4,0.2-0.9,0.3-1.5,0.3
			c-0.6,0-1.1-0.1-1.6-0.3c-0.4-0.2-0.8-0.5-1-1c-0.2-0.4-0.4-1-0.4-1.8v-11.4L208.8,351.5z"/>
		<path class="st0" d="M220.1,354.4c1,0,2,0.2,2.8,0.7s1.5,1.1,1.9,2.1s0.7,2,0.7,3.2c0,1.2-0.2,2.3-0.7,3.2
			c-0.4,0.9-1.1,1.6-1.9,2.1c-0.8,0.5-1.8,0.7-2.8,0.7c-1,0-2-0.2-2.8-0.7s-1.5-1.1-1.9-2.1c-0.4-0.9-0.7-2-0.7-3.2
			c0-1.2,0.2-2.3,0.7-3.2c0.4-0.9,1.1-1.6,1.9-2.1C218.2,354.7,219.1,354.4,220.1,354.4z M220.1,355.4c-0.8,0-1.7,0.2-2.3,0.6
			c-0.6,0.4-1.1,0.9-1.5,1.7s-0.5,1.7-0.5,2.7c0,1,0.2,1.9,0.5,2.7c0.3,0.7,0.8,1.3,1.5,1.8c0.6,0.4,1.3,0.6,2.3,0.6
			c0.8,0,1.7-0.2,2.3-0.6c0.6-0.4,1.1-0.9,1.5-1.8c0.3-0.7,0.5-1.7,0.5-2.7c0-1-0.2-2-0.5-2.7c-0.3-0.7-0.8-1.3-1.5-1.7
			C221.8,355.6,221.1,355.4,220.1,355.4z"/>
	</g>
</g>
</svg>
