<?xml version="1.0" encoding="utf-8"?>
<!-- Generator: Adobe Illustrator 24.2.3, SVG Export Plug-In . SVG Version: 6.00 Build 0)  -->
<svg version="1.1" id="Layer_1" xmlns="http://www.w3.org/2000/svg" xmlns:xlink="http://www.w3.org/1999/xlink" x="0px" y="0px"
	 viewBox="0 0 895 556.4" style="enable-background:new 0 0 895 556.4;" xml:space="preserve">
<style type="text/css">
	.st0{fill:#FFFFFF;}
</style>
<g>
	<g>
		<path class="st0" d="M91.2,161.1c2.4,0,4.3,0.6,5.6,1.9s2,3.1,2,5.5c0,2.5-0.6,4.4-2,5.7s-3.1,2-5.6,2h-4.8v-15H91.2z M91.3,175.1
			c2,0,3.5-0.5,4.7-1.7c1-1.1,1.7-2.8,1.7-4.9s-0.5-3.6-1.7-4.7c-1-1.1-2.6-1.7-4.7-1.7h-3.7v13h3.7V175.1z"/>
		<path class="st0" d="M106.7,176.4c-1,0-2-0.2-2.8-0.7c-0.8-0.5-1.5-1.1-2-2.1c-0.5-0.9-0.7-2-0.7-3.2c0-1.2,0.2-2.3,0.7-3.2
			c0.5-0.9,1.1-1.6,1.9-2.1c0.8-0.5,1.7-0.7,2.7-0.7s1.9,0.2,2.7,0.7c0.7,0.4,1.2,1.1,1.7,1.9c0.4,0.8,0.6,1.8,0.6,2.8
			c0,0.1,0,0.3,0,0.4c0,0.1,0,0.2,0,0.3h-9.4v-1h8.9l-0.6,0.2c0-1.3-0.3-2.4-1-3.1s-1.7-1.1-2.8-1.1c-0.8,0-1.6,0.2-2.2,0.6
			c-0.6,0.4-1.1,0.9-1.5,1.7c-0.3,0.7-0.5,1.7-0.5,2.7c0,1,0.2,1.9,0.5,2.7c0.3,0.7,0.8,1.3,1.6,1.7c0.7,0.3,1.3,0.6,2.3,0.6
			c0.9,0,1.7-0.2,2.3-0.5c0.6-0.4,1.1-0.9,1.5-1.6l0.9,0.5c-0.3,0.5-0.6,1-1.1,1.5c-0.5,0.4-0.9,0.7-1.6,0.9
			C108.2,176.2,107.5,176.4,106.7,176.4z"/>
		<path class="st0" d="M114.8,176.1v-11.4h0.9l0.1,2.4c0.3-0.8,0.7-1.5,1.3-1.9c0.6-0.5,1.5-0.7,2.3-0.7c0.3,0,0.6,0,0.8,0.1
			s0.4,0.2,0.6,0.3l-0.3,1c-0.2-0.1-0.3-0.2-0.5-0.2c-0.2-0.1-0.5-0.1-0.9-0.1c-0.6,0-1.1,0.2-1.7,0.5c-0.5,0.3-0.9,0.8-1.2,1.5
			c-0.3,0.6-0.5,1.3-0.5,2.2v6.4h-0.9V176.1z"/>
		<path class="st0" d="M127.6,176.4c-1,0-2-0.2-2.8-0.7c-0.8-0.5-1.5-1.1-2-2.1c-0.5-0.9-0.7-2-0.7-3.2c0-1.2,0.2-2.3,0.7-3.2
			c0.5-0.9,1.1-1.6,1.9-2.1c0.8-0.5,1.7-0.7,2.7-0.7s1.9,0.2,2.7,0.7c0.7,0.4,1.2,1.1,1.7,1.9c0.4,0.8,0.6,1.8,0.6,2.8
			c0,0.1,0,0.3,0,0.4c0,0.1,0,0.2,0,0.3h-9.4v-1h8.9l-0.6,0.2c0-1.3-0.3-2.4-1-3.1s-1.7-1.1-2.8-1.1c-0.8,0-1.6,0.2-2.2,0.6
			c-0.6,0.4-1.1,0.9-1.5,1.7c-0.3,0.7-0.5,1.7-0.5,2.7c0,1,0.2,1.9,0.5,2.7c0.3,0.7,0.8,1.3,1.6,1.7c0.7,0.3,1.3,0.6,2.3,0.6
			c0.9,0,1.7-0.2,2.3-0.5c0.6-0.4,1.1-0.9,1.5-1.6l0.9,0.5c-0.3,0.5-0.6,1-1.1,1.5c-0.5,0.4-0.9,0.7-1.6,0.9
			C128.9,176.2,128.3,176.4,127.6,176.4z"/>
		<path class="st0" d="M140.3,164.5c0.7,0,1.5,0.1,2.1,0.4c0.6,0.2,1.1,0.6,1.6,1c0.4,0.4,0.7,1,0.9,1.7l-1,0.5
			c-0.2-0.8-0.6-1.5-1.2-1.9c-0.6-0.4-1.3-0.6-2.3-0.6c-0.8,0-1.6,0.2-2.2,0.6s-1.1,0.9-1.5,1.7c-0.3,0.7-0.5,1.7-0.5,2.7
			c0,1,0.2,1.9,0.5,2.7c0.3,0.7,0.8,1.3,1.5,1.7c0.6,0.4,1.3,0.6,2.2,0.6c0.6,0,1.2-0.1,1.8-0.3c0.5-0.2,0.9-0.5,1.3-0.9
			c0.4-0.4,0.5-0.9,0.6-1.5l1,0.4c-0.2,0.7-0.5,1.3-0.9,1.8c-0.4,0.4-1,0.9-1.7,1.1c-0.6,0.3-1.3,0.4-2.2,0.4c-1,0-2-0.2-2.8-0.7
			c-0.8-0.5-1.5-1.1-1.9-2.1c-0.4-0.9-0.7-2-0.7-3.2s0.2-2.3,0.7-3.2c0.5-0.9,1.1-1.6,1.9-2.1C138.3,164.7,139.2,164.5,140.3,164.5z
			"/>
		<path class="st0" d="M148,176.1v-16.7h1.1v7.6c0.3-0.8,0.8-1.5,1.7-1.9c0.7-0.4,1.6-0.6,2.6-0.6c0.8,0,1.6,0.2,2.3,0.5
			c0.6,0.3,1.1,0.8,1.6,1.5c0.4,0.6,0.5,1.5,0.5,2.4v7.4h-1.1v-7.2c0-1.2-0.3-2.2-0.9-2.7c-0.6-0.6-1.5-0.8-2.4-0.8
			c-0.7,0-1.3,0.2-2,0.5c-0.6,0.3-1.1,0.8-1.6,1.5c-0.4,0.6-0.6,1.3-0.6,2.3v6.4H148V176.1z"/>
		<path class="st0" d="M166.4,164.5c1,0,2,0.2,2.8,0.7s1.5,1.1,1.9,2.1c0.4,0.9,0.7,2,0.7,3.2c0,1.2-0.2,2.3-0.7,3.2
			c-0.4,0.9-1.1,1.6-1.9,2.1c-0.8,0.5-1.8,0.7-2.8,0.7c-1,0-2-0.2-2.8-0.7c-0.8-0.5-1.5-1.1-1.9-2.1c-0.4-0.9-0.7-2-0.7-3.2
			c0-1.2,0.2-2.3,0.7-3.2s1.1-1.6,1.9-2.1S165.3,164.5,166.4,164.5z M166.4,165.5c-0.8,0-1.7,0.2-2.3,0.6c-0.6,0.4-1.1,0.9-1.5,1.7
			c-0.3,0.7-0.5,1.7-0.5,2.7c0,1,0.2,1.9,0.5,2.7c0.3,0.7,0.8,1.3,1.5,1.8s1.3,0.6,2.3,0.6c0.8,0,1.7-0.2,2.3-0.6s1.1-0.9,1.5-1.8
			c0.3-0.7,0.5-1.7,0.5-2.7c0-1-0.2-2-0.5-2.7c-0.3-0.7-0.8-1.3-1.5-1.7C167.9,165.7,167.2,165.5,166.4,165.5z"/>
		<path class="st0" d="M189.1,168.7c0-1-0.3-1.8-0.8-2.3c-0.5-0.5-1.2-0.8-2.3-0.8c-0.8,0-1.7,0.2-2.3,0.5c-0.6,0.4-1,1-1.3,1.9
			l-0.9-0.6c0.3-0.9,0.9-1.6,1.7-2.1s1.8-0.7,2.9-0.7c0.8,0,1.6,0.1,2.2,0.4c0.6,0.3,1.1,0.7,1.5,1.3c0.3,0.6,0.5,1.3,0.5,2.2v5.7
			c0,0.8,0.4,1.2,1.1,1.2c0.3,0,0.6-0.1,0.8-0.2l-0.1,0.9c-0.2,0.1-0.6,0.2-1,0.2c-0.3,0-0.7-0.1-0.9-0.2c-0.3-0.1-0.5-0.4-0.7-0.7
			c-0.2-0.3-0.3-0.7-0.3-1.3v-0.6h0.3c-0.1,0.6-0.4,1.2-0.9,1.7c-0.5,0.4-1,0.7-1.7,0.9c-0.6,0.2-1.2,0.3-1.9,0.3
			c-0.7,0-1.3-0.1-1.9-0.3c-0.5-0.2-1-0.5-1.3-1c-0.3-0.5-0.5-0.9-0.5-1.7c0-0.8,0.3-1.6,0.8-2.1s1.3-0.9,2.4-1l4.8-0.9v0.9
			l-4.1,0.8c-0.9,0.2-1.6,0.4-2,0.8c-0.4,0.3-0.6,0.8-0.6,1.5c0,0.6,0.2,1.1,0.7,1.5c0.5,0.3,1.1,0.5,2,0.5c0.4,0,0.9-0.1,1.3-0.2
			c0.4-0.1,0.8-0.3,1.2-0.6c0.4-0.3,0.7-0.6,0.9-1c0.2-0.4,0.3-0.9,0.3-1.5v-3.3H189.1z"/>
		<path class="st0" d="M205.2,176.4c-0.8,0-1.5-0.1-2.1-0.4c-0.6-0.3-1.1-0.7-1.5-1.3c-0.3-0.6-0.5-1.3-0.5-2.3v-7.6h1.1v7.3
			c0,1.1,0.3,2.1,0.8,2.6c0.6,0.5,1.3,0.8,2.4,0.8c0.6,0,1.1-0.1,1.7-0.3c0.5-0.2,0.9-0.5,1.2-0.9c0.3-0.4,0.6-0.8,0.8-1.3
			c0.2-0.5,0.3-1,0.3-1.6v-6.5h1.1v11.4h-1v-2.4c-0.3,0.8-0.9,1.5-1.7,1.9C207.2,176.1,206.2,176.4,205.2,176.4z"/>
		<path class="st0" d="M214.6,176.1v-11.4h1l0.1,2.9l-0.2-0.2c0.2-0.6,0.5-1.1,0.9-1.6s0.9-0.7,1.6-1c0.6-0.2,1.2-0.3,1.9-0.3
			c0.8,0,1.6,0.2,2.3,0.5c0.6,0.3,1.1,0.8,1.6,1.5c0.4,0.6,0.5,1.5,0.5,2.4v7.4h-1.1v-7.2c0-1.2-0.3-2.2-0.9-2.7
			c-0.6-0.6-1.5-0.8-2.4-0.8c-0.7,0-1.3,0.2-2,0.5c-0.6,0.3-1.1,0.8-1.6,1.5c-0.4,0.6-0.6,1.3-0.6,2.3v6.4h-1V176.1z"/>
		<path class="st0" d="M235.1,176.1v-11.4h2.8l0.2,3.4l-0.4-0.4c0.2-0.7,0.5-1.3,0.8-1.9c0.4-0.5,0.8-0.8,1.5-1
			c0.5-0.2,1.2-0.4,1.9-0.4c0.8,0,1.5,0.1,2.1,0.4s1.1,0.7,1.5,1.3c0.3,0.6,0.5,1.3,0.5,2.3v7.5h-3.1v-6.6c0-0.9-0.2-1.7-0.5-2
			c-0.4-0.4-0.8-0.5-1.5-0.5c-0.4,0-0.8,0.1-1.2,0.3c-0.4,0.2-0.7,0.5-0.9,1c-0.2,0.4-0.4,1-0.4,1.9v6h-3.1V176.1z"/>
		<path class="st0" d="M250.7,163.1c-0.6,0-1.1-0.1-1.5-0.4c-0.3-0.3-0.5-0.7-0.5-1.2c0-0.5,0.2-0.9,0.5-1.2
			c0.3-0.3,0.8-0.4,1.5-0.4c0.6,0,1.1,0.1,1.5,0.4c0.3,0.3,0.5,0.7,0.5,1.2c0,0.5-0.2,0.9-0.5,1.2
			C251.9,163,251.5,163.1,250.7,163.1z M252.3,164.7v11.4h-3.1v-11.4H252.3z"/>
		<path class="st0" d="M263.1,164.7h3.2l-4.4,11.4h-3.6l-4.4-11.4h3.3l2.8,9L263.1,164.7z"/>
		<path class="st0" d="M273.2,176.4c-1.2,0-2.3-0.2-3.1-0.7c-0.8-0.5-1.6-1.1-2.1-2.1s-0.7-2-0.7-3.2c0-1.2,0.2-2.3,0.7-3.2
			c0.5-0.9,1.1-1.6,2.1-2.1c0.8-0.5,1.9-0.7,3-0.7c1.1,0,2.2,0.2,2.9,0.7c0.8,0.4,1.5,1.1,1.9,1.9c0.4,0.7,0.6,1.7,0.6,2.7
			c0,0.3,0,0.6,0,0.8c0,0.3,0,0.5-0.1,0.7h-9.1V169h7.8l-1.6,0.5c0-0.9-0.2-1.7-0.6-2.2s-1-0.7-1.9-0.7c-0.6,0-1,0.1-1.5,0.4
			c-0.4,0.3-0.7,0.7-0.9,1.2c-0.2,0.5-0.3,1.2-0.3,2.1c0,0.8,0.1,1.5,0.3,2c0.2,0.5,0.6,0.9,1,1.1c0.4,0.2,0.9,0.4,1.6,0.4
			c0.6,0,1.2-0.1,1.7-0.4c0.4-0.3,0.7-0.6,0.9-1l2.5,0.9c-0.2,0.6-0.6,1.1-1.1,1.6s-1,0.7-1.8,0.9
			C274.7,176.2,274,176.4,273.2,176.4z"/>
		<path class="st0" d="M284.2,159.8v12.9c0,0.5,0.1,0.9,0.3,1.1c0.2,0.2,0.5,0.3,0.9,0.3c0.2,0,0.5,0,0.6-0.1c0.2,0,0.4-0.1,0.6-0.2
			l-0.3,2.1c-0.2,0.1-0.6,0.3-0.9,0.3c-0.4,0.1-0.7,0.1-1.1,0.1c-1.1,0-2-0.3-2.4-0.8c-0.5-0.5-0.7-1.5-0.7-2.6v-13.1H284.2z"/>
		<path class="st0" d="M93.2,203.7c-0.9,0-1.8-0.2-2.5-0.7c-0.7-0.5-1.3-1.1-1.8-2.1c-0.4-0.9-0.6-2-0.6-3.2c0-1.2,0.2-2.4,0.6-3.2
			c0.4-0.9,1-1.6,1.8-2.1c0.7-0.5,1.6-0.7,2.6-0.7s1.9,0.3,2.5,0.8c0.6,0.6,1,1.3,1.2,2.3l-0.3,0.4V187h3.1v16.4H97l-0.2-3.4
			l0.4,0.2c-0.1,0.7-0.3,1.3-0.7,1.9c-0.4,0.5-0.8,0.9-1.5,1.2C94.5,203.6,93.8,203.7,93.2,203.7z M94,201.4c0.5,0,1-0.1,1.5-0.4
			c0.4-0.3,0.7-0.7,0.9-1.2c0.2-0.5,0.3-1.2,0.3-2s-0.1-1.3-0.3-1.9c-0.2-0.5-0.5-0.9-0.9-1.1c-0.4-0.3-0.8-0.4-1.3-0.4
			c-0.8,0-1.6,0.3-2,0.9c-0.5,0.6-0.7,1.5-0.7,2.6s0.2,2.1,0.7,2.6C92.5,201,93.2,201.4,94,201.4z"/>
		<path class="st0" d="M108.4,203.7c-1.2,0-2.3-0.2-3.1-0.7c-0.8-0.5-1.6-1.1-2.1-2.1c-0.5-0.9-0.7-2-0.7-3.2s0.2-2.3,0.7-3.2
			c0.5-0.9,1.1-1.6,2.1-2.1c0.8-0.5,1.9-0.7,3-0.7s2.2,0.2,2.9,0.7c0.8,0.4,1.5,1.1,1.9,1.9s0.6,1.7,0.6,2.7c0,0.3,0,0.6,0,0.8
			c0,0.3,0,0.5-0.1,0.7h-9.1v-2.2h7.8l-1.6,0.5c0-0.9-0.2-1.7-0.6-2.2c-0.4-0.5-1-0.7-1.9-0.7c-0.6,0-1,0.1-1.5,0.4
			c-0.4,0.3-0.7,0.7-0.9,1.2c-0.2,0.5-0.3,1.2-0.3,2.1s0.1,1.5,0.3,2s0.6,0.9,1,1.1c0.4,0.2,0.9,0.4,1.6,0.4c0.6,0,1.2-0.1,1.7-0.4
			c0.4-0.3,0.7-0.6,0.9-1l2.5,0.9c-0.2,0.6-0.6,1.1-1.1,1.6c-0.5,0.4-1,0.7-1.8,0.9C110,203.6,109.2,203.7,108.4,203.7z"/>
		<path class="st0" d="M130.3,192.1h3.2l-4.4,11.4h-3.6l-4.4-11.4h3.3l2.8,9L130.3,192.1z"/>
		<path class="st0" d="M136.8,190.5c-0.6,0-1.1-0.1-1.5-0.4c-0.3-0.3-0.5-0.7-0.5-1.2s0.2-0.9,0.5-1.2c0.3-0.3,0.8-0.4,1.5-0.4
			c0.6,0,1.1,0.1,1.5,0.4s0.5,0.7,0.5,1.2s-0.2,0.9-0.5,1.2S137.5,190.5,136.8,190.5z M138.4,192.1v11.4h-3.1v-11.4H138.4z"/>
		<path class="st0" d="M146,203.7c-0.9,0-1.8-0.2-2.5-0.7c-0.7-0.5-1.3-1.1-1.8-2.1c-0.4-0.9-0.6-2-0.6-3.2c0-1.2,0.2-2.4,0.6-3.2
			c0.4-0.9,1-1.6,1.8-2.1c0.7-0.5,1.6-0.7,2.6-0.7c1,0,1.9,0.3,2.5,0.8c0.6,0.6,1,1.3,1.2,2.3l-0.3,0.4V187h3.1v16.4h-2.8l-0.2-3.4
			l0.4,0.2c-0.1,0.7-0.3,1.3-0.7,1.9s-0.8,0.9-1.5,1.2C147.3,203.6,146.7,203.7,146,203.7z M146.9,201.4c0.5,0,1-0.1,1.5-0.4
			c0.4-0.3,0.7-0.7,0.9-1.2c0.2-0.5,0.3-1.2,0.3-2s-0.1-1.3-0.3-1.9s-0.5-0.9-0.9-1.1c-0.4-0.3-0.8-0.4-1.3-0.4
			c-0.8,0-1.6,0.3-2,0.9c-0.5,0.6-0.7,1.5-0.7,2.6s0.2,2.1,0.7,2.6C145.4,201,146.1,201.4,146.9,201.4z"/>
		<path class="st0" d="M162.5,196.3c0-0.6-0.2-1.1-0.5-1.6c-0.3-0.4-0.8-0.5-1.5-0.5c-0.5,0-1,0.1-1.5,0.4s-0.7,0.7-0.9,1.5
			l-2.7-0.8c0.2-1,0.8-1.8,1.7-2.4s2.1-0.9,3.5-0.9c1,0,1.9,0.2,2.6,0.5c0.7,0.3,1.3,0.8,1.8,1.5c0.4,0.6,0.6,1.5,0.6,2.4v4.7
			c0,0.6,0.3,0.8,0.8,0.8c0.2,0,0.5,0,0.7-0.1l-0.2,2c-0.4,0.2-0.9,0.3-1.5,0.3c-0.5,0-1-0.1-1.5-0.3c-0.4-0.2-0.7-0.4-1-0.8
			c-0.2-0.4-0.4-0.8-0.4-1.5v-0.1l0.5-0.1c-0.1,0.6-0.3,1-0.7,1.5c-0.4,0.4-0.9,0.7-1.5,0.9c-0.6,0.2-1.1,0.3-1.8,0.3
			c-0.7,0-1.5-0.1-2-0.3c-0.5-0.2-1-0.6-1.3-1c-0.3-0.4-0.4-1-0.4-1.7c0-0.8,0.3-1.6,0.8-2.1c0.5-0.5,1.3-0.9,2.4-1.1l4.3-0.8v2
			l-2.7,0.5c-0.5,0.1-0.9,0.2-1.1,0.4c-0.3,0.2-0.4,0.4-0.4,0.8c0,0.4,0.1,0.6,0.4,0.8c0.3,0.2,0.6,0.3,1,0.3c0.3,0,0.6,0,0.9-0.1
			c0.3-0.1,0.6-0.2,0.8-0.4s0.4-0.4,0.5-0.7c0.1-0.3,0.2-0.6,0.2-1v-3.1H162.5z"/>
		<path class="st0" d="M182.8,196.3c0-0.6-0.2-1.1-0.5-1.6c-0.3-0.4-0.8-0.5-1.5-0.5c-0.5,0-1,0.1-1.5,0.4c-0.4,0.3-0.7,0.7-0.9,1.5
			l-2.7-0.8c0.2-1,0.8-1.8,1.7-2.4c0.8-0.6,2.1-0.9,3.5-0.9c1,0,1.9,0.2,2.6,0.5c0.7,0.3,1.3,0.8,1.8,1.5c0.4,0.6,0.6,1.5,0.6,2.4
			v4.7c0,0.6,0.3,0.8,0.8,0.8c0.2,0,0.5,0,0.7-0.1l-0.2,2c-0.4,0.2-0.9,0.3-1.5,0.3c-0.5,0-1-0.1-1.5-0.3c-0.4-0.2-0.7-0.4-1-0.8
			c-0.2-0.4-0.4-0.8-0.4-1.5v-0.1l0.5-0.1c-0.1,0.6-0.3,1-0.7,1.5s-0.9,0.7-1.5,0.9c-0.6,0.2-1.1,0.3-1.8,0.3c-0.7,0-1.5-0.1-2-0.3
			c-0.5-0.2-1-0.6-1.3-1c-0.3-0.4-0.4-1-0.4-1.7c0-0.8,0.3-1.6,0.8-2.1c0.5-0.5,1.3-0.9,2.4-1.1l4.3-0.8v2l-2.7,0.5
			c-0.5,0.1-0.9,0.2-1.1,0.4c-0.3,0.2-0.4,0.4-0.4,0.8c0,0.4,0.1,0.6,0.4,0.8c0.3,0.2,0.6,0.3,1,0.3c0.3,0,0.6,0,0.9-0.1
			c0.3-0.1,0.6-0.2,0.8-0.4c0.2-0.2,0.4-0.4,0.5-0.7c0.1-0.3,0.2-0.6,0.2-1v-3.1H182.8z"/>
		<path class="st0" d="M193.6,203.7c-0.9,0-1.8-0.2-2.5-0.7c-0.7-0.5-1.3-1.1-1.8-2.1c-0.4-0.9-0.6-2-0.6-3.2c0-1.2,0.2-2.4,0.6-3.2
			c0.4-0.9,1-1.6,1.8-2.1c0.7-0.5,1.6-0.7,2.6-0.7s1.9,0.3,2.5,0.8c0.6,0.6,1,1.3,1.2,2.3l-0.3,0.4V187h3.1v16.4h-2.8l-0.2-3.4
			l0.4,0.2c-0.1,0.7-0.3,1.3-0.7,1.9c-0.4,0.5-0.8,0.9-1.5,1.2C194.9,203.6,194.3,203.7,193.6,203.7z M194.5,201.4
			c0.5,0,1-0.1,1.5-0.4c0.4-0.3,0.7-0.7,0.9-1.2c0.2-0.5,0.3-1.2,0.3-2s-0.1-1.3-0.3-1.9c-0.2-0.5-0.5-0.9-0.9-1.1
			c-0.4-0.3-0.8-0.4-1.3-0.4c-0.8,0-1.6,0.3-2,0.9c-0.5,0.6-0.7,1.5-0.7,2.6s0.2,2.1,0.7,2.6C193.1,201,193.7,201.4,194.5,201.4z"/>
		<path class="st0" d="M208.9,203.7c-1.2,0-2.3-0.2-3.1-0.7c-0.8-0.5-1.6-1.1-2.1-2.1c-0.5-0.9-0.7-2-0.7-3.2s0.2-2.3,0.7-3.2
			c0.5-0.9,1.1-1.6,2.1-2.1c0.8-0.5,1.9-0.7,3-0.7c1.1,0,2.2,0.2,2.9,0.7c0.8,0.4,1.5,1.1,1.9,1.9c0.4,0.7,0.6,1.7,0.6,2.7
			c0,0.3,0,0.6,0,0.8c0,0.3,0,0.5-0.1,0.7H205v-2.2h7.8l-1.6,0.5c0-0.9-0.2-1.7-0.6-2.2c-0.4-0.5-1-0.7-1.9-0.7
			c-0.6,0-1,0.1-1.5,0.4c-0.4,0.3-0.7,0.7-0.9,1.2c-0.2,0.5-0.3,1.2-0.3,2.1s0.1,1.5,0.3,2c0.2,0.5,0.6,0.9,1,1.1
			c0.4,0.2,0.9,0.4,1.6,0.4s1.2-0.1,1.7-0.4c0.4-0.3,0.7-0.6,0.9-1l2.5,0.9c-0.2,0.6-0.6,1.1-1.1,1.6c-0.5,0.4-1,0.7-1.8,0.9
			C210.4,203.6,209.7,203.7,208.9,203.7z"/>
		<path class="st0" d="M222,191.9c1,0,1.9,0.1,2.6,0.4s1.2,0.7,1.7,1.2c0.4,0.5,0.7,1,0.9,1.7l-2.9,1c-0.1-0.7-0.4-1.2-0.7-1.6
			c-0.4-0.3-0.8-0.5-1.5-0.5c-0.6,0-1,0.1-1.5,0.4c-0.4,0.3-0.7,0.6-0.9,1.2c-0.2,0.5-0.3,1.2-0.3,2c0,0.8,0.1,1.5,0.3,2
			c0.2,0.5,0.5,0.9,0.9,1.1c0.4,0.2,0.9,0.4,1.5,0.4c0.4,0,0.8-0.1,1.1-0.2c0.3-0.2,0.6-0.4,0.8-0.7c0.2-0.3,0.3-0.6,0.4-1.1
			l2.8,0.9c-0.2,0.7-0.5,1.2-0.9,1.8s-1,0.9-1.8,1.2c-0.7,0.3-1.6,0.4-2.5,0.4c-1.1,0-2.2-0.2-3.1-0.7c-0.9-0.5-1.6-1.1-2.1-2.1
			c-0.5-0.9-0.7-2-0.7-3.2s0.2-2.3,0.7-3.2c0.5-0.9,1.1-1.6,2.1-2.1C219.8,192.1,220.9,191.9,222,191.9z"/>
		<path class="st0" d="M233.6,203.7c-0.7,0-1.5-0.1-2.1-0.4c-0.6-0.3-1.1-0.7-1.5-1.3c-0.3-0.6-0.5-1.3-0.5-2.4V192h3.1v6.8
			c0,0.9,0.2,1.5,0.5,1.9c0.3,0.4,0.9,0.5,1.6,0.5c0.3,0,0.6-0.1,0.9-0.2c0.3-0.1,0.6-0.3,0.8-0.5c0.2-0.2,0.4-0.5,0.5-0.9
			c0.1-0.4,0.2-0.8,0.2-1.3v-6.1h3.1v11.4h-2.8l-0.1-2c-0.4,0.7-0.9,1.3-1.6,1.7C235.4,203.5,234.5,203.7,233.6,203.7z"/>
		<path class="st0" d="M250.3,196.3c0-0.6-0.2-1.1-0.5-1.6c-0.3-0.4-0.8-0.5-1.5-0.5c-0.5,0-1,0.1-1.5,0.4c-0.4,0.3-0.7,0.7-0.9,1.5
			l-2.7-0.8c0.2-1,0.8-1.8,1.7-2.4s2.1-0.9,3.5-0.9c1,0,1.9,0.2,2.6,0.5c0.7,0.3,1.3,0.8,1.8,1.5c0.4,0.6,0.6,1.5,0.6,2.4v4.7
			c0,0.6,0.3,0.8,0.8,0.8c0.2,0,0.5,0,0.7-0.1l-0.2,2c-0.4,0.2-0.9,0.3-1.5,0.3s-1-0.1-1.5-0.3c-0.4-0.2-0.7-0.4-1-0.8
			c-0.2-0.4-0.4-0.8-0.4-1.5v-0.1l0.5-0.1c-0.1,0.6-0.3,1-0.7,1.5c-0.4,0.4-0.9,0.7-1.5,0.9c-0.6,0.2-1.1,0.3-1.8,0.3
			c-0.7,0-1.5-0.1-2-0.3c-0.5-0.2-1-0.6-1.3-1c-0.3-0.4-0.4-1-0.4-1.7c0-0.8,0.3-1.6,0.8-2.1c0.5-0.5,1.3-0.9,2.4-1.1l4.3-0.8v2
			l-2.7,0.5c-0.5,0.1-0.9,0.2-1.1,0.4c-0.3,0.2-0.4,0.4-0.4,0.8c0,0.4,0.1,0.6,0.4,0.8c0.3,0.2,0.6,0.3,1,0.3c0.3,0,0.6,0,0.9-0.1
			c0.3-0.1,0.6-0.2,0.8-0.4c0.2-0.2,0.4-0.4,0.5-0.7c0.1-0.3,0.2-0.6,0.2-1v-3.1H250.3z"/>
		<path class="st0" d="M261.1,203.7c-0.9,0-1.8-0.2-2.5-0.7c-0.7-0.5-1.3-1.1-1.8-2.1c-0.4-0.9-0.6-2-0.6-3.2c0-1.2,0.2-2.4,0.6-3.2
			c0.4-0.9,1-1.6,1.8-2.1c0.7-0.5,1.6-0.7,2.6-0.7c1,0,1.9,0.3,2.5,0.8c0.6,0.6,1,1.3,1.2,2.3l-0.3,0.4V187h3.1v16.4h-2.8l-0.2-3.4
			l0.4,0.2c-0.1,0.7-0.3,1.3-0.7,1.9c-0.4,0.5-0.8,0.9-1.5,1.2C262.5,203.6,261.8,203.7,261.1,203.7z M262,201.4
			c0.5,0,1-0.1,1.5-0.4c0.4-0.3,0.7-0.7,0.9-1.2c0.2-0.5,0.3-1.2,0.3-2s-0.1-1.3-0.3-1.9s-0.5-0.9-0.9-1.1c-0.4-0.3-0.8-0.4-1.3-0.4
			c-0.8,0-1.6,0.3-2,0.9c-0.5,0.6-0.7,1.5-0.7,2.6s0.2,2.1,0.7,2.6C260.6,201,261.2,201.4,262,201.4z"/>
		<path class="st0" d="M276.4,191.9c1.1,0,2.2,0.2,3,0.7c0.8,0.5,1.6,1.1,2.1,2.1c0.5,0.9,0.7,2,0.7,3.2c0,1.2-0.2,2.3-0.7,3.2
			s-1.1,1.6-2.1,2.1c-0.8,0.5-1.9,0.7-3,0.7s-2.2-0.2-3-0.7c-0.8-0.5-1.6-1.1-2.1-2.1c-0.5-0.9-0.7-2-0.7-3.2c0-1.2,0.2-2.3,0.7-3.2
			c0.5-0.9,1.1-1.6,2.1-2.1C274.2,192.1,275.2,191.9,276.4,191.9z M276.4,194.2c-0.6,0-1,0.1-1.5,0.4s-0.7,0.6-0.9,1.2
			c-0.2,0.5-0.3,1.2-0.3,2s0.1,1.5,0.3,2c0.2,0.5,0.5,0.9,0.9,1.2c0.4,0.3,0.9,0.4,1.5,0.4s1-0.1,1.5-0.4s0.7-0.6,0.9-1.2
			c0.2-0.5,0.3-1.2,0.3-2s-0.1-1.5-0.3-2c-0.2-0.5-0.5-0.9-0.9-1.2S276.9,194.2,276.4,194.2z"/>
	</g>
</g>
</svg>
