<?xml version="1.0" encoding="utf-8"?>
<!-- Generator: Adobe Illustrator 24.2.3, SVG Export Plug-In . SVG Version: 6.00 Build 0)  -->
<svg version="1.1" id="Layer_1" xmlns="http://www.w3.org/2000/svg" xmlns:xlink="http://www.w3.org/1999/xlink" x="0px" y="0px"
	 viewBox="0 0 895 556.4" style="enable-background:new 0 0 895 556.4;" xml:space="preserve">
<style type="text/css">
	.st0{fill:#FFFFFF;}
</style>
<g>
	<g>
		<path class="st0" d="M441.1,1.6c2.4,0,4.3,0.6,5.6,1.9c1.3,1.2,2,3.1,2,5.5c0,2.5-0.6,4.4-2,5.7c-1.3,1.3-3.1,2-5.6,2h-4.8v-15
			H441.1z M441.2,15.6c2,0,3.5-0.5,4.7-1.7c1-1.1,1.7-2.8,1.7-4.9s-0.5-3.6-1.7-4.7c-1-1.1-2.6-1.7-4.7-1.7h-3.7v12.9H441.2z"/>
		<path class="st0" d="M456.6,16.9c-1,0-2-0.2-2.8-0.7c-0.8-0.5-1.5-1.1-2-2.1c-0.5-0.9-0.7-2-0.7-3.2s0.2-2.3,0.7-3.2
			c0.5-0.9,1.1-1.6,1.9-2.1c0.8-0.5,1.7-0.7,2.7-0.7s1.9,0.2,2.7,0.7c0.8,0.5,1.2,1.1,1.7,1.9c0.4,0.8,0.6,1.8,0.6,2.8
			c0,0.1,0,0.3,0,0.4s0,0.2,0,0.3H452v-1h8.9l-0.5,0.2c0-1.3-0.3-2.4-1-3.1s-1.7-1.1-2.8-1.1c-0.8,0-1.6,0.2-2.2,0.6
			c-0.6,0.4-1.1,0.9-1.5,1.7c-0.3,0.7-0.5,1.7-0.5,2.7s0.2,1.9,0.5,2.7c0.3,0.7,0.8,1.3,1.6,1.7c0.6,0.4,1.3,0.6,2.3,0.6
			c0.9,0,1.7-0.2,2.3-0.5c0.6-0.3,1.1-0.9,1.5-1.6l0.9,0.5c-0.3,0.5-0.6,1-1.1,1.5c-0.4,0.4-0.9,0.7-1.6,0.9
			C458,16.8,457.4,16.9,456.6,16.9z"/>
		<path class="st0" d="M464.7,16.7V5.3h0.9l0.1,2.4c0.3-0.8,0.7-1.5,1.3-1.9c0.6-0.5,1.5-0.7,2.3-0.7c0.3,0,0.6,0,0.8,0.1
			s0.4,0.2,0.6,0.3l-0.3,1c-0.2-0.1-0.3-0.2-0.5-0.2c-0.2-0.1-0.5-0.1-0.9-0.1c-0.6,0-1.1,0.2-1.7,0.5c-0.5,0.3-0.9,0.8-1.2,1.5
			c-0.3,0.6-0.5,1.3-0.5,2.2v6.4h-0.9V16.7z"/>
		<path class="st0" d="M477.5,16.9c-1,0-2-0.2-2.8-0.7c-0.8-0.5-1.5-1.1-2-2.1c-0.5-0.9-0.7-2-0.7-3.2s0.2-2.3,0.7-3.2
			s1.1-1.6,1.9-2.1c0.8-0.5,1.7-0.7,2.7-0.7c1,0,1.9,0.2,2.7,0.7c0.8,0.5,1.2,1.1,1.7,1.9c0.4,0.8,0.6,1.8,0.6,2.8
			c0,0.1,0,0.3,0,0.4s0,0.2,0,0.3h-9.4v-1h8.9l-0.5,0.2c0-1.3-0.3-2.4-1-3.1s-1.7-1.1-2.8-1.1c-0.8,0-1.6,0.2-2.2,0.6
			c-0.6,0.4-1.1,1-1.6,1.8c-0.3,0.7-0.5,1.7-0.5,2.7s0.2,1.9,0.5,2.7c0.3,0.7,0.8,1.3,1.6,1.7c0.6,0.4,1.3,0.6,2.3,0.6
			c0.9,0,1.7-0.2,2.3-0.5c0.6-0.3,1.1-0.9,1.5-1.6l0.9,0.5c-0.3,0.5-0.6,1-1.1,1.5c-0.4,0.4-0.9,0.7-1.6,0.9
			C478.8,16.8,478.2,16.9,477.5,16.9z"/>
		<path class="st0" d="M490.2,5c0.7,0,1.5,0.1,2.1,0.4c0.6,0.2,1.1,0.6,1.6,1c0.4,0.4,0.7,1,0.9,1.7l-1,0.5
			c-0.2-0.8-0.6-1.5-1.2-1.9c-0.6-0.4-1.3-0.6-2.3-0.6c-0.8,0-1.6,0.2-2.2,0.6c-0.6,0.4-1.1,0.9-1.5,1.7c-0.3,0.7-0.5,1.7-0.5,2.7
			s0.2,1.9,0.5,2.7c0.3,0.7,0.8,1.3,1.5,1.7c0.6,0.4,1.3,0.6,2.2,0.6c0.6,0,1.2-0.1,1.8-0.3c0.5-0.2,0.9-0.5,1.3-0.9
			c0.4-0.4,0.5-0.9,0.6-1.5l1,0.4c-0.2,0.7-0.5,1.3-0.9,1.8c-0.4,0.4-1,0.9-1.7,1.1c-0.6,0.2-1.3,0.4-2.2,0.4c-1,0-2-0.2-2.8-0.7
			c-0.8-0.5-1.5-1.1-1.9-2.1c-0.4-0.9-0.7-2-0.7-3.2s0.2-2.3,0.7-3.2s1.1-1.6,1.9-2.1C488.2,5.3,489.1,5,490.2,5z"/>
		<path class="st0" d="M497.9,16.7V0h1.1v7.6c0.3-0.8,0.8-1.5,1.7-1.9c0.8-0.4,1.6-0.6,2.6-0.6c0.8,0,1.6,0.2,2.3,0.5
			c0.6,0.3,1.1,0.8,1.6,1.5s0.5,1.5,0.5,2.4v7.4h-1.1V9.6c0-1.2-0.3-2.2-0.9-2.7C505,6.4,504.2,6,503.1,6c-0.7,0-1.3,0.2-2,0.5
			c-0.6,0.3-1.1,0.8-1.6,1.5s-0.6,1.3-0.6,2.3v6.4H497.9z"/>
		<path class="st0" d="M516.2,5c1,0,2,0.2,2.8,0.7s1.5,1.1,1.9,2.1s0.7,2,0.7,3.2s-0.2,2.3-0.7,3.2c-0.5,0.9-1.1,1.6-1.9,2.1
			c-0.8,0.5-1.8,0.7-2.8,0.7c-1,0-2-0.2-2.8-0.7c-0.8-0.5-1.5-1.1-1.9-2.1c-0.4-0.9-0.7-2-0.7-3.2s0.2-2.3,0.7-3.2s1.1-1.6,1.9-2.1
			C514.2,5.3,515.2,5,516.2,5z M516.2,6c-0.8,0-1.7,0.2-2.3,0.6s-1.1,0.9-1.5,1.7c-0.3,0.7-0.5,1.7-0.5,2.7s0.2,1.9,0.5,2.7
			c0.3,0.7,0.8,1.3,1.5,1.8c0.6,0.4,1.3,0.6,2.3,0.6c0.8,0,1.7-0.2,2.3-0.6c0.6-0.4,1.1-0.9,1.5-1.8c0.3-0.7,0.5-1.7,0.5-2.7
			s-0.2-2-0.5-2.7c-0.3-0.7-0.8-1.3-1.5-1.7C517.9,6.2,517.1,6,516.2,6z"/>
		<path class="st0" d="M539,9.1c0-1-0.3-1.8-0.8-2.3S536.9,6,535.9,6c-0.8,0-1.7,0.2-2.3,0.5c-0.6,0.4-1,1-1.3,1.9l-0.9-0.6
			c0.3-0.9,0.9-1.6,1.7-2.1c0.8-0.5,1.8-0.7,2.9-0.7c0.8,0,1.6,0.1,2.2,0.4c0.6,0.3,1.1,0.7,1.5,1.3c0.3,0.6,0.5,1.3,0.5,2.2v5.7
			c0,0.8,0.4,1.2,1.1,1.2c0.3,0,0.6-0.1,0.8-0.2l-0.1,0.9c-0.2,0.1-0.6,0.2-1,0.2c-0.3,0-0.7-0.1-0.9-0.2c-0.3-0.1-0.5-0.4-0.7-0.7
			c-0.2-0.3-0.3-0.7-0.3-1.3v-0.6h0.3c-0.1,0.6-0.4,1.2-0.9,1.7c-0.5,0.4-1,0.7-1.7,0.9c-0.6,0.2-1.2,0.3-1.9,0.3
			c-0.7,0-1.3-0.1-1.9-0.3s-1-0.5-1.3-1c-0.3-0.4-0.5-0.9-0.5-1.7c0-0.8,0.3-1.6,0.8-2.1s1.3-0.9,2.4-1l4.8-0.9v0.9l-4.1,0.8
			c-0.9,0.2-1.6,0.4-2,0.8c-0.4,0.3-0.6,0.8-0.6,1.5c0,0.6,0.2,1.1,0.7,1.5c0.5,0.3,1.1,0.5,2,0.5c0.4,0,0.9-0.1,1.3-0.2
			c0.4-0.1,0.8-0.3,1.2-0.6c0.4-0.3,0.7-0.6,0.9-1c0.2-0.4,0.3-0.9,0.3-1.5V9.1H539z"/>
		<path class="st0" d="M552.1,0v14c0,0.7,0.1,1.2,0.4,1.5c0.2,0.3,0.6,0.4,1.1,0.4c0.3,0,0.6,0,0.7-0.1c0.2,0,0.4-0.1,0.6-0.2
			l-0.2,1c-0.2,0.1-0.4,0.2-0.6,0.2c-0.2,0.1-0.5,0.1-0.8,0.1c-0.8,0-1.5-0.2-1.8-0.7c-0.4-0.4-0.6-1.1-0.6-2.2V0H552.1z"/>
		<path class="st0" d="M564.2,9.1c0-1-0.3-1.8-0.8-2.3S562.1,6,561.1,6c-0.8,0-1.7,0.2-2.3,0.5c-0.6,0.4-1,1-1.3,1.9l-0.9-0.6
			c0.3-0.9,0.9-1.6,1.7-2.1C559,5.2,560,5,561.1,5c0.8,0,1.6,0.1,2.2,0.4c0.6,0.3,1.1,0.7,1.5,1.3c0.3,0.6,0.5,1.3,0.5,2.2v5.7
			c0,0.8,0.4,1.2,1.1,1.2c0.3,0,0.6-0.1,0.8-0.2l-0.1,0.9c-0.2,0.1-0.6,0.2-1,0.2c-0.3,0-0.7-0.1-0.9-0.2c-0.3-0.1-0.5-0.4-0.7-0.7
			c-0.2-0.3-0.3-0.7-0.3-1.3v-0.6h0.3c-0.1,0.6-0.4,1.2-0.9,1.7c-0.5,0.4-1,0.7-1.7,0.9c-0.6,0.2-1.2,0.3-1.9,0.3
			c-0.7,0-1.3-0.1-1.9-0.3s-1-0.5-1.3-1c-0.3-0.4-0.5-0.9-0.5-1.7c0-0.8,0.3-1.6,0.8-2.1s1.3-0.9,2.4-1l4.8-0.9v0.9l-4.1,0.8
			c-0.9,0.2-1.6,0.4-2,0.8c-0.4,0.3-0.6,0.8-0.6,1.5c0,0.6,0.2,1.1,0.7,1.5c0.5,0.3,1.1,0.5,2,0.5c0.4,0,0.9-0.1,1.3-0.2
			c0.4-0.1,0.8-0.3,1.2-0.6c0.4-0.3,0.7-0.6,0.9-1c0.2-0.4,0.3-0.9,0.3-1.5V9.1H564.2z"/>
		<path class="st0" d="M439.3,36.7c0-0.6-0.2-1.1-0.5-1.6c-0.3-0.4-0.8-0.5-1.5-0.5c-0.5,0-1,0.1-1.5,0.4c-0.4,0.3-0.7,0.7-0.9,1.5
			l-2.7-0.8c0.2-1,0.8-1.8,1.7-2.4c0.8-0.6,2.1-0.9,3.5-0.9c1,0,1.9,0.2,2.6,0.5c0.7,0.3,1.3,0.8,1.8,1.5c0.4,0.6,0.6,1.5,0.6,2.4
			v4.7c0,0.6,0.3,0.8,0.8,0.8c0.2,0,0.5,0,0.7-0.1l-0.2,2c-0.4,0.2-0.9,0.3-1.5,0.3c-0.5,0-1-0.1-1.5-0.3c-0.4-0.2-0.7-0.4-1-0.8
			c-0.2-0.4-0.4-0.8-0.4-1.5v-0.1l0.5-0.1c-0.1,0.6-0.3,1-0.7,1.5c-0.4,0.4-0.9,0.7-1.5,0.9c-0.6,0.2-1.1,0.3-1.8,0.3
			c-0.7,0-1.5-0.1-2-0.3c-0.5-0.2-1-0.6-1.3-1c-0.3-0.4-0.4-1-0.4-1.7c0-0.8,0.3-1.6,0.8-2.1c0.5-0.5,1.3-0.9,2.4-1.1l4.3-0.8v2
			l-2.7,0.5c-0.5,0.1-0.9,0.2-1.1,0.4c-0.3,0.2-0.4,0.4-0.4,0.8c0,0.4,0.1,0.6,0.4,0.8s0.6,0.3,1,0.3c0.3,0,0.6,0,0.9-0.1
			s0.6-0.2,0.8-0.4c0.2-0.2,0.4-0.4,0.5-0.7c0.1-0.3,0.2-0.6,0.2-1v-3.1H439.3z"/>
		<path class="st0" d="M449.1,27.6v12.9c0,0.5,0.1,0.9,0.3,1.1c0.2,0.2,0.5,0.3,0.9,0.3c0.2,0,0.5,0,0.6-0.1c0.2,0,0.4-0.1,0.6-0.2
			l-0.3,2.1c-0.2,0.1-0.6,0.3-0.9,0.3c-0.4,0.1-0.7,0.1-1.1,0.1c-1.1,0-2-0.3-2.4-0.8c-0.5-0.5-0.7-1.5-0.7-2.6V27.6H449.1z"/>
		<path class="st0" d="M454.8,31c-0.6,0-1.1-0.1-1.5-0.4c-0.3-0.3-0.5-0.7-0.5-1.2s0.2-0.9,0.5-1.2c0.3-0.3,0.8-0.4,1.5-0.4
			c0.6,0,1.1,0.1,1.5,0.4c0.3,0.3,0.5,0.7,0.5,1.2s-0.2,0.9-0.5,1.2C455.9,30.8,455.5,31,454.8,31z M456.3,32.7v11.4h-3.1V32.7
			H456.3z"/>
		<path class="st0" d="M459.7,44.1V32.7h2.8l0.1,2.1c0.4-0.7,0.9-1.3,1.6-1.7c0.6-0.4,1.3-0.6,2.2-0.6c0.8,0,1.6,0.2,2.2,0.6
			c0.6,0.4,1.1,0.9,1.5,1.7c0.2-0.5,0.5-0.9,0.9-1.2c0.4-0.3,0.8-0.6,1.3-0.7c0.5-0.2,1-0.2,1.6-0.2c0.7,0,1.5,0.1,2.1,0.4
			c0.6,0.3,1.1,0.7,1.5,1.3c0.4,0.6,0.5,1.3,0.5,2.3v7.5h-3.1v-6.8c0-0.8-0.2-1.5-0.5-1.8c-0.4-0.3-0.8-0.5-1.5-0.5
			c-0.4,0-0.8,0.1-1.2,0.3c-0.4,0.2-0.7,0.5-0.9,1c-0.2,0.4-0.3,1-0.3,1.7v6.1h-3.1v-6.8c0-0.8-0.2-1.5-0.5-1.8
			c-0.3-0.3-0.8-0.5-1.5-0.5c-0.4,0-0.8,0.1-1.1,0.3c-0.4,0.2-0.7,0.5-0.9,1c-0.2,0.5-0.4,1-0.4,1.8v6H459.7z"/>
		<path class="st0" d="M486.5,44.3c-1.2,0-2.3-0.2-3.1-0.7c-0.9-0.5-1.6-1.1-2.1-2.1s-0.7-2-0.7-3.2c0-1.2,0.2-2.3,0.7-3.2
			c0.5-0.9,1.1-1.6,2.1-2.1c0.8-0.5,1.9-0.7,3-0.7s2.2,0.2,2.9,0.7s1.5,1.1,1.9,1.9c0.4,0.8,0.6,1.7,0.6,2.7c0,0.3,0,0.6,0,0.8
			c0,0.3,0,0.5-0.1,0.7h-9.1v-2.2h7.8l-1.6,0.5c0-0.9-0.2-1.7-0.6-2.2c-0.4-0.5-1-0.7-1.9-0.7c-0.6,0-1,0.1-1.5,0.4
			c-0.4,0.3-0.7,0.7-0.9,1.2s-0.3,1.2-0.3,2.1c0,0.8,0.1,1.5,0.3,2c0.2,0.5,0.5,0.9,1,1.1c0.5,0.2,0.9,0.4,1.6,0.4
			c0.6,0,1.2-0.1,1.7-0.4c0.4-0.2,0.7-0.6,0.9-1l2.5,0.9c-0.2,0.6-0.6,1.1-1.1,1.6c-0.5,0.4-1,0.7-1.8,0.9S487.4,44.3,486.5,44.3z"
			/>
		<path class="st0" d="M494.5,44.1V32.7h2.8l0.2,3.4l-0.4-0.4c0.2-0.7,0.5-1.3,0.8-1.9c0.4-0.5,0.8-0.8,1.5-1
			c0.5-0.2,1.2-0.4,1.9-0.4c0.8,0,1.5,0.1,2.1,0.4c0.6,0.3,1.1,0.7,1.5,1.3c0.3,0.6,0.5,1.3,0.5,2.3v7.5h-3.1v-6.6
			c0-0.9-0.2-1.7-0.5-2c-0.4-0.4-0.8-0.5-1.5-0.5c-0.4,0-0.8,0.1-1.2,0.3s-0.7,0.5-0.9,1s-0.4,1-0.4,1.9v6h-3.1V44.1z"/>
		<path class="st0" d="M516.2,32.7V35h-8.9v-2.3H516.2z M512.6,29.1v11.2c0,0.5,0.1,0.9,0.4,1.2c0.3,0.2,0.6,0.4,1.1,0.4
			c0.4,0,0.7-0.1,1-0.2c0.3-0.1,0.5-0.3,0.7-0.5l0.5,2.1c-0.4,0.3-0.8,0.5-1.3,0.7s-1.1,0.2-1.8,0.2c-0.7,0-1.5-0.1-2-0.3
			c-0.6-0.2-1-0.6-1.3-1.1c-0.3-0.5-0.5-1.1-0.5-2V30L512.6,29.1z"/>
		<path class="st0" d="M524.9,36.7c0-0.6-0.2-1.1-0.5-1.6c-0.3-0.4-0.8-0.5-1.5-0.5c-0.5,0-1,0.1-1.5,0.4c-0.4,0.3-0.7,0.7-0.9,1.5
			l-2.7-0.8c0.2-1,0.8-1.8,1.7-2.4s2.1-0.9,3.5-0.9c1,0,1.9,0.2,2.6,0.5c0.7,0.3,1.3,0.8,1.8,1.5c0.4,0.6,0.6,1.5,0.6,2.4v4.7
			c0,0.6,0.3,0.8,0.8,0.8c0.2,0,0.5,0,0.7-0.1l-0.2,2c-0.4,0.2-0.9,0.3-1.5,0.3s-1-0.1-1.5-0.3c-0.4-0.2-0.7-0.4-1-0.8
			c-0.2-0.4-0.4-0.8-0.4-1.5v-0.1l0.5-0.1c-0.1,0.6-0.3,1-0.7,1.5s-0.9,0.7-1.5,0.9c-0.6,0.2-1.1,0.3-1.8,0.3c-0.7,0-1.5-0.1-2-0.3
			c-0.5-0.2-1-0.6-1.3-1c-0.3-0.4-0.4-1-0.4-1.7c0-0.8,0.3-1.6,0.8-2.1s1.3-0.9,2.4-1.1l4.3-0.8v2l-2.7,0.5
			c-0.5,0.1-0.9,0.2-1.1,0.4c-0.3,0.2-0.4,0.4-0.4,0.8c0,0.4,0.1,0.6,0.4,0.8s0.6,0.3,1,0.3c0.3,0,0.6,0,0.9-0.1
			c0.3-0.1,0.6-0.2,0.8-0.4c0.2-0.2,0.4-0.4,0.5-0.7c0.1-0.3,0.2-0.6,0.2-1v-3.1H524.9z"/>
		<path class="st0" d="M536.6,32.4c1,0,1.9,0.1,2.6,0.4c0.7,0.3,1.2,0.7,1.8,1.2c0.4,0.5,0.7,1,0.9,1.7l-2.9,1
			c-0.1-0.7-0.4-1.2-0.7-1.6c-0.4-0.3-0.8-0.5-1.5-0.5c-0.6,0-1,0.1-1.5,0.4c-0.4,0.3-0.7,0.6-0.9,1.2c-0.2,0.6-0.3,1.2-0.3,2
			c0,0.8,0.1,1.5,0.3,2c0.2,0.5,0.5,0.9,0.9,1.1c0.4,0.2,0.9,0.4,1.5,0.4c0.4,0,0.8-0.1,1.1-0.2c0.3-0.2,0.6-0.4,0.8-0.7
			c0.2-0.3,0.3-0.6,0.4-1.1l2.8,0.9c-0.2,0.7-0.5,1.2-0.9,1.8s-1,0.9-1.8,1.2c-0.7,0.3-1.6,0.4-2.5,0.4c-1.1,0-2.2-0.2-3.1-0.7
			s-1.6-1.1-2.1-2.1c-0.5-0.9-0.7-2-0.7-3.2c0-1.2,0.2-2.3,0.7-3.2s1.1-1.6,2.1-2.1C534.6,32.7,535.5,32.4,536.6,32.4z"/>
		<path class="st0" d="M546,31c-0.6,0-1.1-0.1-1.5-0.4c-0.3-0.3-0.5-0.7-0.5-1.2s0.2-0.9,0.5-1.2c0.3-0.3,0.8-0.4,1.5-0.4
			c0.6,0,1.1,0.1,1.5,0.4c0.3,0.3,0.5,0.7,0.5,1.2s-0.2,0.9-0.5,1.2C547.1,30.8,546.6,31,546,31z M547.5,32.7v11.4h-3.1V32.7H547.5z
			"/>
		<path class="st0" d="M556,32.4c1.1,0,2.2,0.2,3,0.7c0.8,0.5,1.6,1.1,2.1,2.1c0.5,0.9,0.7,2,0.7,3.2c0,1.2-0.2,2.3-0.7,3.2
			c-0.5,0.9-1.1,1.6-2.1,2.1s-1.9,0.7-3,0.7s-2.2-0.2-3-0.7c-0.8-0.5-1.6-1.1-2.1-2.1c-0.5-0.9-0.7-2-0.7-3.2c0-1.2,0.2-2.3,0.7-3.2
			s1.1-1.6,2.1-2.1C553.8,32.7,554.9,32.4,556,32.4z M556,34.8c-0.6,0-1,0.1-1.5,0.4s-0.7,0.6-0.9,1.2c-0.2,0.5-0.3,1.2-0.3,2
			s0.1,1.5,0.3,2c0.2,0.5,0.5,0.9,0.9,1.2c0.4,0.3,0.9,0.4,1.5,0.4s1-0.1,1.5-0.4c0.4-0.3,0.7-0.6,0.9-1.2c0.2-0.5,0.3-1.2,0.3-2
			s-0.1-1.5-0.3-2c-0.2-0.5-0.5-0.9-0.9-1.2C557.1,34.9,556.5,34.8,556,34.8z M556,27.1h3l-2.3,3.8h-2.3L556,27.1z"/>
		<path class="st0" d="M564.4,44.1V32.7h2.8l0.2,3.4l-0.4-0.4c0.2-0.7,0.5-1.3,0.8-1.9c0.4-0.5,0.8-0.8,1.5-1
			c0.5-0.2,1.2-0.4,1.9-0.4c0.8,0,1.5,0.1,2.1,0.4s1.1,0.7,1.5,1.3c0.3,0.6,0.5,1.3,0.5,2.3v7.5h-3.1v-6.6c0-0.9-0.2-1.7-0.5-2
			c-0.4-0.4-0.8-0.5-1.5-0.5c-0.4,0-0.8,0.1-1.2,0.3s-0.7,0.5-0.9,1c-0.2,0.4-0.4,1-0.4,1.9v6h-3.1V44.1z"/>
	</g>
</g>
</svg>
