<?xml version="1.0" encoding="utf-8"?>
<!-- Generator: Adobe Illustrator 24.2.3, SVG Export Plug-In . SVG Version: 6.00 Build 0)  -->
<svg version="1.1" id="Layer_1" xmlns="http://www.w3.org/2000/svg" xmlns:xlink="http://www.w3.org/1999/xlink" x="0px" y="0px"
	 viewBox="0 0 895 556.4" style="enable-background:new 0 0 895 556.4;" xml:space="preserve">
<style type="text/css">
	.st0{fill:#FFFFFF;}
</style>
<g>
	<g>
		<path class="st0" d="M722,156.6c2.4,0,4.3,0.6,5.6,1.9c1.3,1.2,2,3.1,2,5.5c0,2.5-0.6,4.4-2,5.7c-1.3,1.3-3.1,2-5.6,2h-4.8v-15
			H722z M722.1,170.6c2,0,3.5-0.5,4.7-1.7c1-1.1,1.7-2.8,1.7-4.9s-0.5-3.6-1.7-4.7c-1-1.1-2.6-1.7-4.7-1.7h-3.7v13h3.7V170.6z"/>
		<path class="st0" d="M737.6,172c-1,0-2-0.2-2.8-0.7c-0.8-0.5-1.5-1.1-2-2.1c-0.5-0.9-0.7-2-0.7-3.2s0.2-2.3,0.7-3.2
			c0.5-0.9,1.1-1.6,1.9-2.1c0.8-0.5,1.7-0.7,2.7-0.7c1,0,1.9,0.2,2.7,0.7c0.7,0.4,1.2,1.1,1.7,1.9c0.4,0.8,0.6,1.8,0.6,2.8
			c0,0.1,0,0.3,0,0.4c0,0.1,0,0.2,0,0.3h-9.4v-1h8.9l-0.6,0.2c0-1.3-0.3-2.4-1-3.1c-0.7-0.7-1.7-1.1-2.8-1.1c-0.8,0-1.6,0.2-2.2,0.6
			s-1.1,0.9-1.5,1.7c-0.3,0.7-0.5,1.7-0.5,2.7c0,1,0.2,1.9,0.5,2.7c0.3,0.7,0.8,1.3,1.6,1.7c0.6,0.4,1.3,0.6,2.3,0.6
			s1.7-0.2,2.3-0.5c0.6-0.4,1.1-0.9,1.5-1.6l0.9,0.5c-0.3,0.5-0.6,1-1.1,1.5c-0.5,0.4-0.9,0.7-1.6,0.9
			C738.9,171.9,738.3,172,737.6,172z"/>
		<path class="st0" d="M745.7,171.7v-11.4h0.9l0.1,2.4c0.3-0.8,0.7-1.5,1.3-1.9c0.6-0.5,1.5-0.7,2.3-0.7c0.3,0,0.6,0,0.8,0.1
			c0.2,0.1,0.4,0.2,0.6,0.3l-0.3,1c-0.2-0.1-0.3-0.2-0.5-0.2c-0.2-0.1-0.5-0.1-0.9-0.1c-0.6,0-1.1,0.2-1.7,0.5s-0.9,0.8-1.2,1.5
			c-0.3,0.6-0.5,1.3-0.5,2.2v6.4h-0.9V171.7z"/>
		<path class="st0" d="M758.4,172c-1,0-2-0.2-2.8-0.7c-0.8-0.5-1.5-1.1-2-2.1c-0.5-0.9-0.7-2-0.7-3.2s0.2-2.3,0.7-3.2
			c0.5-0.9,1.1-1.6,1.9-2.1c0.8-0.5,1.7-0.7,2.7-0.7s1.9,0.2,2.7,0.7c0.8,0.5,1.2,1.1,1.7,1.9c0.4,0.8,0.6,1.8,0.6,2.8
			c0,0.1,0,0.3,0,0.4c0,0.1,0,0.2,0,0.3h-9.4v-1h8.9l-0.5,0.2c0-1.3-0.3-2.4-1-3.1c-0.7-0.7-1.7-1.1-2.8-1.1c-0.8,0-1.6,0.2-2.2,0.6
			s-1.1,0.9-1.5,1.7c-0.3,0.7-0.5,1.7-0.5,2.7c0,1,0.2,1.9,0.5,2.7c0.3,0.7,0.8,1.3,1.6,1.7c0.7,0.3,1.3,0.6,2.3,0.6
			s1.7-0.2,2.3-0.5c0.6-0.4,1.1-0.9,1.5-1.6l0.9,0.5c-0.3,0.5-0.6,1-1.1,1.5c-0.4,0.4-0.9,0.7-1.6,0.9
			C759.8,171.9,759.1,172,758.4,172z"/>
		<path class="st0" d="M771.1,160.1c0.7,0,1.5,0.1,2.1,0.4c0.6,0.2,1.1,0.6,1.6,1c0.4,0.4,0.7,1,0.9,1.7l-1,0.5
			c-0.2-0.8-0.6-1.5-1.2-1.9c-0.6-0.4-1.3-0.6-2.3-0.6c-0.8,0-1.6,0.2-2.2,0.6c-0.6,0.4-1.1,0.9-1.5,1.7c-0.3,0.7-0.5,1.7-0.5,2.7
			c0,1,0.2,1.9,0.5,2.7c0.3,0.7,0.8,1.3,1.5,1.7c0.6,0.4,1.3,0.6,2.2,0.6c0.6,0,1.2-0.1,1.8-0.3s0.9-0.5,1.3-0.9
			c0.4-0.4,0.5-0.9,0.6-1.5l1,0.4c-0.2,0.7-0.5,1.3-0.9,1.8c-0.4,0.5-1,0.9-1.7,1.1c-0.6,0.2-1.3,0.4-2.2,0.4c-1,0-2-0.2-2.8-0.7
			c-0.8-0.5-1.5-1.1-1.9-2.1s-0.7-2-0.7-3.2c0-1.2,0.2-2.3,0.7-3.2c0.5-0.9,1.1-1.6,1.9-2.1C769.1,160.4,770,160.1,771.1,160.1z"/>
		<path class="st0" d="M778.9,171.7V155h1.1v7.6c0.3-0.8,0.8-1.5,1.7-1.9c0.7-0.4,1.6-0.6,2.6-0.6c0.8,0,1.6,0.2,2.3,0.5
			c0.6,0.3,1.1,0.8,1.6,1.5c0.4,0.6,0.5,1.5,0.5,2.4v7.4h-1.2v-7.1c0-1.2-0.3-2.2-0.9-2.7c-0.6-0.6-1.5-0.8-2.4-0.8
			c-0.7,0-1.3,0.2-2,0.5c-0.6,0.3-1.1,0.8-1.6,1.5c-0.4,0.6-0.6,1.3-0.6,2.3v6.4h-1V171.7z"/>
		<path class="st0" d="M797.1,160.1c1,0,2,0.2,2.8,0.7c0.8,0.5,1.5,1.1,1.9,2.1c0.4,0.9,0.7,2,0.7,3.2s-0.2,2.3-0.7,3.2
			c-0.4,0.9-1.1,1.6-1.9,2.1c-0.7,0.5-1.8,0.7-2.8,0.7s-2-0.2-2.8-0.7s-1.5-1.1-1.9-2.1c-0.4-0.9-0.7-2-0.7-3.2s0.2-2.3,0.7-3.2
			c0.5-0.9,1.1-1.6,1.9-2.1C795.1,160.4,796.1,160.1,797.1,160.1z M797.1,161.1c-0.8,0-1.7,0.2-2.3,0.6c-0.6,0.4-1.1,0.9-1.5,1.7
			c-0.3,0.7-0.5,1.7-0.5,2.7c0,1,0.2,1.9,0.5,2.7c0.3,0.7,0.8,1.3,1.5,1.8c0.6,0.4,1.3,0.6,2.3,0.6c0.8,0,1.7-0.2,2.3-0.6
			c0.6-0.4,1.1-0.9,1.5-1.8c0.3-0.7,0.5-1.7,0.5-2.7c0-1-0.2-2-0.5-2.7c-0.3-0.7-0.8-1.3-1.5-1.7C798.8,161.3,798,161.1,797.1,161.1
			z"/>
		<path class="st0" d="M729.6,191.6c0-1-0.3-1.8-0.8-2.3c-0.5-0.5-1.2-0.8-2.3-0.8c-0.8,0-1.7,0.2-2.3,0.5c-0.6,0.3-1,1-1.3,1.9
			l-0.9-0.6c0.3-0.9,0.9-1.6,1.7-2.1c0.7-0.5,1.8-0.7,2.9-0.7c0.8,0,1.6,0.1,2.2,0.4c0.6,0.3,1.1,0.7,1.5,1.3
			c0.3,0.6,0.5,1.3,0.5,2.2v5.7c0,0.8,0.4,1.2,1.1,1.2c0.3,0,0.6-0.1,0.8-0.2l-0.1,0.9c-0.2,0.1-0.6,0.2-1,0.2
			c-0.3,0-0.7-0.1-0.9-0.2c-0.2-0.1-0.5-0.4-0.7-0.7c-0.2-0.3-0.3-0.7-0.3-1.3v-0.6h0.3c-0.1,0.6-0.4,1.2-0.9,1.7
			c-0.5,0.4-1,0.7-1.7,0.9c-0.6,0.2-1.2,0.3-1.9,0.3c-0.7,0-1.3-0.1-1.9-0.3c-0.5-0.2-1-0.5-1.3-1c-0.3-0.4-0.5-0.9-0.5-1.7
			c0-0.8,0.3-1.6,0.8-2.1c0.6-0.5,1.3-0.9,2.4-1l4.8-0.9v0.9l-4.1,0.8c-0.9,0.2-1.6,0.4-2,0.8c-0.4,0.3-0.6,0.8-0.6,1.5
			c0,0.6,0.2,1.1,0.7,1.5c0.5,0.3,1.1,0.5,2,0.5c0.4,0,0.9-0.1,1.3-0.2c0.4-0.1,0.8-0.3,1.2-0.6c0.4-0.3,0.7-0.6,0.9-1
			c0.2-0.4,0.3-0.9,0.3-1.5v-3.3H729.6z"/>
		<path class="st0" d="M736,182.5v14c0,0.7,0.1,1.2,0.4,1.5c0.2,0.3,0.6,0.4,1.1,0.4c0.3,0,0.6,0,0.7-0.1c0.1-0.1,0.4-0.1,0.6-0.2
			l-0.2,1c-0.2,0.1-0.4,0.2-0.6,0.2c-0.2,0.1-0.5,0.1-0.8,0.1c-0.8,0-1.5-0.2-1.8-0.7c-0.4-0.4-0.6-1.1-0.6-2.2v-14L736,182.5
			L736,182.5z"/>
		<path class="st0" d="M753.7,191.8c0-0.6-0.2-1.1-0.5-1.6s-0.8-0.5-1.5-0.5c-0.5,0-1,0.1-1.5,0.4c-0.4,0.3-0.7,0.7-0.9,1.5
			l-2.7-0.8c0.2-1,0.8-1.8,1.7-2.4c0.8-0.6,2.1-0.9,3.5-0.9c1,0,1.9,0.2,2.6,0.5c0.7,0.3,1.3,0.8,1.8,1.5c0.4,0.6,0.6,1.5,0.6,2.4
			v4.7c0,0.6,0.3,0.8,0.8,0.8c0.2,0,0.5,0,0.7-0.1l-0.2,2c-0.4,0.2-0.9,0.3-1.5,0.3s-1-0.1-1.5-0.3s-0.7-0.4-1-0.8
			c-0.2-0.4-0.4-0.8-0.4-1.5v-0.1l0.5-0.1c-0.1,0.6-0.3,1-0.7,1.5c-0.4,0.4-0.9,0.7-1.5,0.9c-0.6,0.2-1.1,0.3-1.8,0.3
			c-0.7,0-1.5-0.1-2-0.3s-1-0.6-1.3-1c-0.3-0.4-0.4-1-0.4-1.7c0-0.8,0.3-1.6,0.8-2.1s1.3-0.9,2.4-1.1l4.3-0.8v2l-2.7,0.5
			c-0.5,0.1-0.9,0.2-1.1,0.4c-0.3,0.2-0.4,0.4-0.4,0.8s0.1,0.6,0.4,0.8c0.3,0.2,0.6,0.3,1,0.3c0.3,0,0.6,0,0.9-0.1
			c0.3-0.1,0.6-0.2,0.8-0.4c0.2-0.2,0.4-0.4,0.5-0.7c0.1-0.3,0.2-0.6,0.2-1v-3.1H753.7z"/>
		<path class="st0" d="M767.1,197c1.2,0,2.2,0.3,2.9,0.8c0.7,0.5,1,1.2,1,2.3c0,0.8-0.2,1.6-0.7,2.2c-0.5,0.6-1.2,1-2.1,1.3
			c-0.9,0.3-2,0.4-3.1,0.4c-2,0-3.4-0.3-4.3-0.8c-0.9-0.5-1.3-1.2-1.3-2.2c0-0.6,0.2-1.1,0.7-1.6c0.5-0.4,1.2-0.6,2.4-0.7l-0.1,0.4
			c-0.8-0.1-1.3-0.4-1.9-0.8c-0.4-0.4-0.6-0.9-0.6-1.7c0-0.7,0.3-1.2,0.8-1.8c0.5-0.4,1.2-0.7,2.2-0.8l1.3,0.6h-0.3
			c-0.6,0-1.1,0.2-1.3,0.4c-0.3,0.2-0.4,0.5-0.4,0.7c0,0.3,0.1,0.5,0.4,0.7c0.2,0.2,0.6,0.2,1,0.2h3.3V197z M765.1,187.5
			c1,0,2,0.2,2.8,0.5c0.8,0.3,1.3,0.7,1.8,1.3c0.4,0.6,0.6,1.2,0.6,2.1s-0.2,1.5-0.6,2.1c-0.4,0.6-1,1-1.8,1.3
			c-0.8,0.3-1.7,0.5-2.8,0.5c-1.7,0-3-0.3-3.8-1c-0.9-0.7-1.3-1.7-1.3-2.8c0-0.8,0.2-1.5,0.6-2.1c0.4-0.6,1-1,1.8-1.3
			C763.1,187.7,764,187.5,765.1,187.5z M765.1,201.9c0.8,0,1.5-0.1,2-0.2s0.9-0.3,1.1-0.5c0.2-0.2,0.4-0.4,0.4-0.7
			c0-0.3-0.1-0.5-0.3-0.7c-0.2-0.2-0.6-0.3-1.2-0.3h-3.8c-0.4,0-0.6,0.1-0.9,0.3c-0.2,0.2-0.3,0.4-0.3,0.7c0,0.4,0.3,0.7,0.8,1
			C763.3,201.8,764,201.9,765.1,201.9z M765.1,189.4c-0.6,0-1.1,0.2-1.6,0.5c-0.4,0.3-0.6,0.8-0.6,1.3c0,0.6,0.2,1,0.6,1.5
			c0.4,0.3,0.9,0.5,1.6,0.5s1.1-0.2,1.5-0.5c0.3-0.3,0.6-0.8,0.6-1.5s-0.2-1-0.6-1.3C766.2,189.6,765.7,189.4,765.1,189.4z
			 M770.9,185l0.4,2.3c-0.1,0-0.1,0-0.2,0s-0.1,0-0.2,0c-0.7,0-1.2,0.2-1.6,0.5c-0.3,0.3-0.5,0.7-0.5,1.2l-1.2-0.5
			c0-0.6,0.1-1.1,0.4-1.7s0.6-0.9,1-1.2c0.5-0.3,1-0.5,1.8-0.5h0.1C770.9,185,770.9,185,770.9,185z"/>
		<path class="st0" d="M776.9,199.4c-0.7,0-1.5-0.1-2.1-0.4s-1.1-0.7-1.5-1.3c-0.3-0.6-0.5-1.3-0.5-2.4v-7.6h3.1v6.8
			c0,0.9,0.2,1.5,0.5,1.9c0.4,0.3,0.9,0.5,1.6,0.5c0.3,0,0.6-0.1,0.9-0.2c0.3-0.1,0.6-0.3,0.8-0.5c0.2-0.2,0.4-0.5,0.5-0.9
			c0.1-0.4,0.2-0.8,0.2-1.3v-6.1h3.1v11.4h-2.8l-0.1-2c-0.4,0.7-0.9,1.3-1.6,1.7C778.6,199.2,777.8,199.4,776.9,199.4z"/>
		<path class="st0" d="M793.5,191.8c0-0.6-0.2-1.1-0.5-1.6c-0.3-0.4-0.8-0.5-1.5-0.5c-0.5,0-1,0.1-1.5,0.4c-0.4,0.3-0.7,0.7-0.9,1.5
			l-2.7-0.8c0.2-1,0.8-1.8,1.7-2.4c0.8-0.6,2.1-0.9,3.5-0.9c1,0,1.9,0.2,2.6,0.5c0.7,0.3,1.3,0.8,1.8,1.5c0.4,0.6,0.6,1.5,0.6,2.4
			v4.7c0,0.6,0.3,0.8,0.8,0.8c0.2,0,0.5,0,0.7-0.1l-0.2,2c-0.4,0.2-0.9,0.3-1.5,0.3s-1-0.1-1.5-0.3c-0.4-0.2-0.7-0.4-1-0.8
			c-0.2-0.4-0.4-0.8-0.4-1.5v-0.1l0.5-0.1c-0.1,0.6-0.3,1-0.7,1.5c-0.4,0.4-0.9,0.7-1.5,0.9c-0.6,0.2-1.1,0.3-1.8,0.3
			c-0.7,0-1.5-0.1-2-0.3c-0.5-0.2-1-0.6-1.3-1c-0.3-0.4-0.4-1-0.4-1.7c0-0.8,0.3-1.6,0.8-2.1s1.3-0.9,2.4-1.1l4.3-0.8v2l-2.7,0.5
			c-0.5,0.1-0.9,0.2-1.1,0.4c-0.2,0.2-0.4,0.4-0.4,0.8s0.1,0.6,0.4,0.8s0.6,0.3,1,0.3c0.3,0,0.6,0,0.9-0.1s0.6-0.2,0.8-0.4
			c0.2-0.2,0.4-0.4,0.6-0.7c0.1-0.3,0.2-0.6,0.2-1v-3.1H793.5z"/>
	</g>
</g>
</svg>
