<?xml version="1.0" encoding="utf-8"?>
<!-- Generator: Adobe Illustrator 24.2.3, SVG Export Plug-In . SVG Version: 6.00 Build 0)  -->
<svg version="1.1" id="Layer_1" xmlns="http://www.w3.org/2000/svg" xmlns:xlink="http://www.w3.org/1999/xlink" x="0px" y="0px"
	 viewBox="0 0 895 556.4" style="enable-background:new 0 0 895 556.4;" xml:space="preserve">
<style type="text/css">
	.st0{fill:#FFFFFF;}
</style>
<g>
	<g>
		<path class="st0" d="M124.1,486.7c2.4,0,4.3,0.6,5.6,1.9c1.3,1.2,2,3.1,2,5.5c0,2.5-0.6,4.4-2,5.7c-1.3,1.3-3.1,2-5.6,2h-4.8v-15
			L124.1,486.7L124.1,486.7z M124.1,500.8c2,0,3.5-0.5,4.7-1.8c1-1.1,1.7-2.8,1.7-4.9c0-2.1-0.5-3.6-1.7-4.7c-1-1.1-2.6-1.7-4.7-1.7
			h-3.7v13L124.1,500.8L124.1,500.8z"/>
		<path class="st0" d="M139.6,502.1c-1,0-2-0.2-2.8-0.7s-1.5-1.1-2-2.1c-0.5-0.9-0.7-2-0.7-3.2c0-1.2,0.2-2.3,0.7-3.2
			c0.5-0.9,1.1-1.6,1.9-2.1s1.7-0.7,2.7-0.7c1,0,1.9,0.2,2.7,0.7c0.7,0.4,1.2,1.1,1.7,1.9c0.4,0.8,0.6,1.8,0.6,2.8
			c0,0.1,0,0.3,0,0.4c0,0.1,0,0.2,0,0.3h-9.5v-1h8.9l-0.6,0.2c0-1.3-0.3-2.4-1-3.1s-1.7-1.1-2.8-1.1c-0.8,0-1.6,0.2-2.2,0.6
			c-0.6,0.4-1.1,0.9-1.5,1.7c-0.3,0.7-0.5,1.7-0.5,2.7c0,1,0.2,1.9,0.5,2.7c0.3,0.7,0.8,1.3,1.6,1.7c0.7,0.3,1.3,0.6,2.3,0.6
			s1.7-0.2,2.3-0.5c0.6-0.4,1.1-0.9,1.5-1.6l0.9,0.5c-0.3,0.5-0.6,1-1.1,1.5c-0.4,0.4-0.9,0.7-1.6,0.9
			C141,502,140.4,502.1,139.6,502.1z"/>
		<path class="st0" d="M147.7,501.9v-11.4h0.9l0.1,2.4c0.3-0.8,0.7-1.5,1.3-1.9c0.6-0.5,1.5-0.7,2.3-0.7c0.3,0,0.6,0,0.8,0.1
			c0.2,0.1,0.4,0.2,0.6,0.3l-0.3,1c-0.2-0.1-0.3-0.2-0.5-0.2c-0.2,0-0.5-0.1-0.9-0.1c-0.6,0-1.1,0.2-1.7,0.5
			c-0.5,0.3-0.9,0.8-1.2,1.5c-0.3,0.6-0.5,1.3-0.5,2.2v6.4h-0.9V501.9z"/>
		<path class="st0" d="M160.5,502.1c-1,0-2-0.2-2.8-0.7s-1.5-1.1-2-2.1c-0.5-0.9-0.7-2-0.7-3.2c0-1.2,0.2-2.3,0.7-3.2
			c0.5-0.9,1.1-1.6,1.9-2.1s1.7-0.7,2.7-0.7c1,0,1.9,0.2,2.7,0.7c0.7,0.4,1.2,1.1,1.7,1.9c0.4,0.8,0.6,1.8,0.6,2.8
			c0,0.1,0,0.3,0,0.4c0,0.1,0,0.2,0,0.3h-9.4v-1h8.9l-0.6,0.2c0-1.3-0.3-2.4-1-3.1s-1.7-1.1-2.8-1.1c-0.8,0-1.6,0.2-2.2,0.6
			c-0.6,0.4-1.1,0.9-1.5,1.7c-0.3,0.7-0.5,1.7-0.5,2.7c0,1,0.2,1.9,0.5,2.7c0.3,0.7,0.8,1.3,1.6,1.7c0.7,0.3,1.3,0.6,2.3,0.6
			s1.7-0.2,2.3-0.5c0.6-0.4,1.1-0.9,1.5-1.6l0.9,0.5c-0.3,0.5-0.6,1-1.1,1.5c-0.4,0.4-0.9,0.7-1.6,0.9
			C161.8,502,161.2,502.1,160.5,502.1z"/>
		<path class="st0" d="M173.1,490.1c0.7,0,1.5,0.1,2.1,0.4c0.6,0.3,1.1,0.6,1.6,1c0.4,0.4,0.7,1,0.9,1.7l-1,0.5
			c-0.2-0.8-0.6-1.5-1.2-1.9c-0.6-0.4-1.3-0.6-2.3-0.6c-0.8,0-1.6,0.2-2.2,0.6c-0.6,0.4-1.1,0.9-1.5,1.7c-0.3,0.7-0.5,1.7-0.5,2.7
			c0,1,0.2,1.9,0.5,2.7c0.3,0.8,0.8,1.3,1.5,1.7c0.6,0.4,1.3,0.6,2.2,0.6c0.6,0,1.2-0.1,1.8-0.3s0.9-0.5,1.3-0.9
			c0.3-0.4,0.5-0.9,0.6-1.5l1,0.4c-0.2,0.7-0.5,1.3-0.9,1.8c-0.4,0.4-1,0.9-1.7,1.1c-0.6,0.3-1.3,0.4-2.2,0.4c-1,0-2-0.2-2.8-0.7
			c-0.8-0.5-1.5-1.1-1.9-2.1c-0.4-0.9-0.7-2-0.7-3.2s0.2-2.3,0.7-3.2c0.5-0.9,1.1-1.6,1.9-2.1S172.1,490.1,173.1,490.1z"/>
		<path class="st0" d="M180.9,501.9v-16.7h1.1v7.6c0.3-0.8,0.8-1.5,1.7-1.9c0.7-0.4,1.6-0.6,2.6-0.6c0.8,0,1.6,0.2,2.3,0.5
			c0.6,0.3,1.1,0.8,1.6,1.5c0.4,0.6,0.5,1.5,0.5,2.4v7.4h-1.1v-7.1c0-1.2-0.3-2.2-0.9-2.7c-0.6-0.6-1.5-0.8-2.4-0.8
			c-0.7,0-1.3,0.2-2,0.5c-0.6,0.3-1.1,0.8-1.6,1.5c-0.4,0.6-0.6,1.3-0.6,2.3v6.4h-1.1V501.9z"/>
		<path class="st0" d="M199.2,490.1c1,0,2,0.2,2.8,0.7s1.5,1.1,1.9,2.1c0.4,0.9,0.7,2,0.7,3.2s-0.2,2.3-0.7,3.2
			c-0.4,0.9-1.1,1.6-1.9,2.1c-0.8,0.5-1.8,0.7-2.8,0.7c-1,0-2-0.2-2.8-0.7c-0.8-0.5-1.5-1.1-1.9-2.1c-0.4-0.9-0.7-2-0.7-3.2
			s0.2-2.3,0.7-3.2c0.5-0.9,1.1-1.6,1.9-2.1S198.1,490.1,199.2,490.1z M199.2,491.2c-0.8,0-1.7,0.2-2.3,0.6
			c-0.6,0.4-1.1,0.9-1.5,1.7s-0.5,1.7-0.5,2.7s0.2,1.9,0.5,2.7c0.3,0.7,0.8,1.3,1.5,1.8c0.6,0.4,1.3,0.6,2.3,0.6
			c0.8,0,1.7-0.2,2.3-0.6c0.6-0.4,1.1-0.9,1.5-1.8c0.3-0.8,0.5-1.7,0.5-2.7s-0.2-2-0.5-2.7c-0.3-0.7-0.8-1.3-1.5-1.7
			S200.1,491.2,199.2,491.2z"/>
		<path class="st0" d="M222,494.3c0-1-0.3-1.8-0.8-2.3c-0.5-0.5-1.2-0.8-2.3-0.8c-0.8,0-1.7,0.2-2.3,0.5c-0.6,0.4-1,1-1.3,1.9
			l-0.9-0.6c0.3-0.9,0.9-1.6,1.7-2.1s1.8-0.7,2.9-0.7c0.8,0,1.6,0.1,2.2,0.4c0.6,0.3,1.1,0.7,1.5,1.3c0.3,0.6,0.5,1.3,0.5,2.2v5.7
			c0,0.8,0.4,1.2,1.1,1.2c0.3,0,0.6-0.1,0.8-0.2l-0.1,0.9c-0.2,0.1-0.6,0.2-1,0.2c-0.3,0-0.7-0.1-0.9-0.2c-0.3-0.1-0.5-0.4-0.7-0.7
			s-0.3-0.7-0.3-1.3v-0.6h0.3c-0.1,0.6-0.4,1.2-0.9,1.7c-0.5,0.4-1,0.7-1.7,0.9c-0.6,0.2-1.2,0.3-1.9,0.3c-0.7,0-1.3-0.1-1.9-0.3
			c-0.5-0.2-1-0.5-1.3-1s-0.5-0.9-0.5-1.7c0-0.8,0.3-1.6,0.8-2.1c0.5-0.5,1.3-0.9,2.4-1l4.8-0.9v0.9l-4.1,0.8
			c-0.9,0.2-1.6,0.4-2,0.8c-0.4,0.3-0.6,0.8-0.6,1.5c0,0.6,0.2,1.1,0.7,1.5s1.1,0.5,2,0.5c0.4,0,0.9-0.1,1.3-0.2
			c0.4-0.1,0.8-0.3,1.2-0.6c0.4-0.3,0.7-0.6,0.9-1c0.2-0.4,0.3-0.9,0.3-1.5v-3.3H222z"/>
		<path class="st0" d="M228.4,485.2v14c0,0.7,0.1,1.2,0.4,1.5c0.2,0.3,0.6,0.4,1.1,0.4c0.3,0,0.6,0,0.7-0.1c0.2,0,0.4-0.1,0.6-0.2
			l-0.2,1c-0.2,0.1-0.4,0.2-0.6,0.2c-0.2,0.1-0.5,0.1-0.8,0.1c-0.8,0-1.5-0.2-1.8-0.7c-0.4-0.4-0.6-1.1-0.6-2.2v-14L228.4,485.2
			L228.4,485.2z"/>
		<path class="st0" d="M247.4,490.5v2.3h-8.9v-2.3H247.4z M243.8,486.9v11.2c0,0.5,0.1,0.9,0.4,1.2c0.3,0.2,0.6,0.4,1.1,0.4
			c0.4,0,0.7-0.1,1-0.2c0.3-0.1,0.5-0.3,0.7-0.5l0.5,2.1c-0.4,0.3-0.8,0.5-1.3,0.7s-1.1,0.2-1.8,0.2c-0.7,0-1.5-0.1-2-0.3
			c-0.6-0.2-1-0.6-1.3-1.1c-0.3-0.5-0.5-1.1-0.5-2v-10.8L243.8,486.9z"/>
		<path class="st0" d="M249.5,501.9v-11.4h2.7l0.2,2.3c0.3-0.8,0.7-1.3,1.3-1.9c0.6-0.4,1.3-0.6,2.2-0.6c0.2,0,0.5,0,0.7,0.1
			c0.2,0,0.4,0.1,0.5,0.2l-0.4,2.6c-0.1-0.1-0.3-0.1-0.5-0.1s-0.5,0-0.8,0c-0.4,0-0.9,0.1-1.3,0.3c-0.4,0.2-0.7,0.5-1,1
			c-0.3,0.4-0.4,1-0.4,1.7v5.9h-3.1V501.9z"/>
		<path class="st0" d="M265.5,494.5c0-0.6-0.2-1.1-0.5-1.6c-0.4-0.4-0.8-0.5-1.5-0.5c-0.5,0-1,0.1-1.5,0.4c-0.4,0.3-0.7,0.7-0.9,1.5
			l-2.7-0.8c0.2-1,0.8-1.8,1.7-2.4c0.8-0.6,2.1-0.9,3.5-0.9c1,0,1.9,0.2,2.6,0.5c0.7,0.3,1.3,0.8,1.8,1.5c0.4,0.6,0.6,1.5,0.6,2.4
			v4.7c0,0.6,0.3,0.8,0.8,0.8c0.2,0,0.5,0,0.7-0.1l-0.2,2c-0.4,0.2-0.9,0.3-1.5,0.3s-1-0.1-1.5-0.3c-0.4-0.2-0.7-0.4-1-0.8
			c-0.2-0.4-0.4-0.8-0.4-1.5v-0.1l0.5-0.1c-0.1,0.6-0.3,1-0.7,1.5c-0.4,0.4-0.9,0.7-1.5,0.9c-0.6,0.2-1.1,0.3-1.8,0.3
			c-0.7,0-1.5-0.1-2-0.3c-0.5-0.2-1-0.6-1.3-1c-0.3-0.4-0.4-1-0.4-1.7c0-0.8,0.3-1.6,0.8-2.1s1.3-0.9,2.4-1.1l4.3-0.8v2l-2.7,0.5
			c-0.5,0.1-0.9,0.2-1.1,0.4c-0.3,0.2-0.4,0.4-0.4,0.8c0,0.4,0.1,0.6,0.4,0.8c0.3,0.2,0.6,0.3,1,0.3c0.3,0,0.6,0,0.9-0.1
			c0.3-0.1,0.6-0.2,0.8-0.4c0.2-0.2,0.4-0.4,0.5-0.7c0.1-0.3,0.2-0.6,0.2-1v-3.1H265.5z"/>
		<path class="st0" d="M278.7,502.1c-0.7,0-1.3-0.1-1.9-0.4c-0.5-0.3-1-0.7-1.5-1.2s-0.6-1.1-0.7-1.8l0.3-0.4l-0.2,3.6H272v-16.4
			h3.1v8.2l-0.3-0.5c0.2-0.8,0.7-1.6,1.3-2.1c0.7-0.5,1.6-0.8,2.6-0.8c0.9,0,1.8,0.2,2.5,0.7c0.7,0.5,1.2,1.1,1.7,2.1
			c0.4,0.9,0.6,2,0.6,3.2s-0.2,2.3-0.6,3.2c-0.4,0.9-1,1.6-1.8,2.1C280.5,501.9,279.7,502.1,278.7,502.1z M277.8,499.7
			c0.8,0,1.5-0.3,2-0.9c0.5-0.6,0.7-1.5,0.7-2.6s-0.2-2.1-0.7-2.6c-0.5-0.6-1.1-0.9-2-0.9c-0.5,0-1,0.1-1.5,0.4s-0.7,0.7-0.9,1.2
			c-0.2,0.5-0.3,1.1-0.3,1.9s0.1,1.3,0.3,1.9c0.2,0.5,0.5,0.9,0.9,1.2C276.9,499.5,277.3,499.7,277.8,499.7z"/>
		<path class="st0" d="M292.7,494.5c0-0.6-0.2-1.1-0.5-1.6c-0.4-0.4-0.8-0.5-1.5-0.5c-0.5,0-1,0.1-1.5,0.4s-0.7,0.7-0.9,1.5
			l-2.7-0.8c0.2-1,0.8-1.8,1.7-2.4c0.8-0.6,2.1-0.9,3.5-0.9c1,0,1.9,0.2,2.6,0.5c0.7,0.3,1.3,0.8,1.8,1.5c0.4,0.6,0.6,1.5,0.6,2.4
			v4.7c0,0.6,0.3,0.8,0.8,0.8c0.2,0,0.5,0,0.7-0.1l-0.2,2c-0.4,0.2-0.9,0.3-1.5,0.3c-0.5,0-1-0.1-1.5-0.3c-0.4-0.2-0.7-0.4-1-0.8
			c-0.2-0.4-0.4-0.8-0.4-1.5v-0.1l0.5-0.1c-0.1,0.6-0.3,1-0.7,1.5c-0.4,0.4-0.9,0.7-1.5,0.9c-0.6,0.2-1.1,0.3-1.8,0.3
			c-0.7,0-1.5-0.1-2-0.3c-0.5-0.2-1-0.6-1.3-1c-0.3-0.4-0.4-1-0.4-1.7c0-0.8,0.3-1.6,0.8-2.1s1.3-0.9,2.4-1.1l4.3-0.8v2l-2.7,0.5
			c-0.5,0.1-0.9,0.2-1.1,0.4c-0.3,0.2-0.4,0.4-0.4,0.8c0,0.4,0.1,0.6,0.4,0.8c0.3,0.2,0.6,0.3,1,0.3c0.3,0,0.6,0,0.9-0.1
			c0.3-0.1,0.6-0.2,0.8-0.4c0.2-0.2,0.4-0.4,0.5-0.7c0.1-0.3,0.2-0.6,0.2-1v-3.1H292.7z"/>
		<path class="st0" d="M302.5,490.5v12.2c0,1-0.2,1.8-0.5,2.4c-0.3,0.6-0.8,1-1.5,1.2c-0.6,0.3-1.3,0.4-2.1,0.4
			c-0.5,0-1-0.1-1.6-0.2c-0.4-0.1-0.8-0.3-1.2-0.5l0.5-2.3c0.2,0.1,0.4,0.3,0.7,0.4c0.3,0.1,0.6,0.1,0.9,0.1c0.5,0,0.8-0.1,1.1-0.4
			c0.3-0.3,0.4-0.8,0.4-1.5v-11.9L302.5,490.5L302.5,490.5z M300.9,488.8c-0.6,0-1.1-0.1-1.5-0.4s-0.5-0.7-0.5-1.2s0.2-0.9,0.5-1.2
			s0.8-0.4,1.5-0.4c0.6,0,1.1,0.1,1.5,0.4c0.3,0.3,0.5,0.7,0.5,1.2s-0.2,0.9-0.5,1.2C302.1,488.6,301.6,488.8,300.9,488.8z"/>
		<path class="st0" d="M311,490.1c1.1,0,2.2,0.2,3,0.7c0.8,0.5,1.6,1.1,2.1,2.1c0.5,0.9,0.7,2,0.7,3.2s-0.2,2.3-0.7,3.2
			s-1.1,1.6-2.1,2.1c-0.8,0.5-1.9,0.7-3,0.7s-2.2-0.2-3-0.7c-0.9-0.5-1.6-1.1-2.1-2.1s-0.7-2-0.7-3.2s0.2-2.3,0.7-3.2
			c0.5-0.8,1.1-1.6,2.1-2.1C308.9,490.3,309.9,490.1,311,490.1z M311,492.5c-0.6,0-1,0.1-1.5,0.4c-0.4,0.3-0.7,0.6-0.9,1.2
			c-0.2,0.5-0.3,1.2-0.3,2s0.1,1.5,0.3,2c0.2,0.5,0.5,0.9,0.9,1.2c0.4,0.3,0.9,0.4,1.5,0.4s1-0.1,1.5-0.4s0.7-0.6,0.9-1.2
			c0.2-0.5,0.3-1.2,0.3-2s-0.1-1.5-0.3-2c-0.2-0.5-0.5-0.9-0.9-1.2S311.6,492.5,311,492.5z"/>
	</g>
</g>
</svg>
