<?xml version="1.0" encoding="utf-8"?>
<!-- Generator: Adobe Illustrator 24.2.3, SVG Export Plug-In . SVG Version: 6.00 Build 0)  -->
<svg version="1.1" id="Layer_1" xmlns="http://www.w3.org/2000/svg" xmlns:xlink="http://www.w3.org/1999/xlink" x="0px" y="0px"
	 viewBox="0 0 895 556.4" style="enable-background:new 0 0 895 556.4;" xml:space="preserve">
<style type="text/css">
	.st0{fill:#FFFFFF;}
</style>
<g>
	<g>
		<path class="st0" d="M776.4,321.5c2.4,0,4.3,0.6,5.6,1.9c1.3,1.2,2,3.1,2,5.5c0,2.5-0.6,4.4-2,5.7c-1.3,1.3-3.1,2-5.6,2h-4.8v-15
			L776.4,321.5L776.4,321.5z M776.5,335.6c2,0,3.5-0.5,4.7-1.8c1-1.1,1.7-2.8,1.7-4.9c0-2.1-0.5-3.6-1.7-4.7c-1-1.1-2.6-1.7-4.7-1.7
			h-3.7v13L776.5,335.6L776.5,335.6z"/>
		<path class="st0" d="M791.9,336.8c-1,0-2-0.2-2.8-0.7c-0.8-0.5-1.5-1.1-2-2.1c-0.5-0.9-0.7-2-0.7-3.2s0.2-2.3,0.7-3.2
			c0.5-0.9,1.1-1.6,1.9-2.1c0.8-0.5,1.7-0.7,2.7-0.7s1.9,0.2,2.7,0.7c0.7,0.4,1.2,1.1,1.7,1.9c0.4,0.8,0.6,1.8,0.6,2.8
			c0,0.1,0,0.3,0,0.4c0,0.1,0,0.2,0,0.3h-9.4v-1h8.9l-0.6,0.2c0-1.3-0.3-2.4-1-3.1c-0.7-0.7-1.7-1.1-2.8-1.1c-0.8,0-1.6,0.2-2.2,0.6
			c-0.6,0.4-1.1,0.9-1.5,1.7c-0.3,0.7-0.5,1.7-0.5,2.7s0.2,1.9,0.5,2.7c0.3,0.8,0.8,1.3,1.6,1.7c0.6,0.4,1.3,0.6,2.3,0.6
			s1.7-0.2,2.3-0.5c0.6-0.4,1.1-0.9,1.5-1.6l0.9,0.5c-0.3,0.5-0.6,1-1.1,1.5c-0.4,0.4-0.9,0.7-1.6,0.9
			C793.3,336.8,792.6,336.8,791.9,336.8z"/>
		<path class="st0" d="M800,336.6v-11.4h0.9l0.1,2.4c0.3-0.8,0.7-1.5,1.3-1.9c0.6-0.5,1.5-0.7,2.3-0.7c0.3,0,0.6,0,0.8,0.1
			c0.2,0.1,0.4,0.2,0.6,0.3l-0.3,1c-0.2-0.1-0.3-0.2-0.5-0.2c-0.2,0-0.5-0.1-0.9-0.1c-0.6,0-1.1,0.2-1.7,0.5s-0.9,0.8-1.2,1.5
			c-0.3,0.6-0.5,1.3-0.5,2.2v6.4H800V336.6z"/>
		<path class="st0" d="M812.8,336.8c-1,0-2-0.2-2.8-0.7c-0.8-0.5-1.5-1.1-2-2.1c-0.5-0.9-0.7-2-0.7-3.2s0.2-2.3,0.7-3.2
			s1.1-1.6,1.9-2.1c0.8-0.5,1.7-0.7,2.7-0.7c1,0,1.9,0.2,2.7,0.7c0.7,0.4,1.2,1.1,1.7,1.9c0.4,0.8,0.6,1.8,0.6,2.8
			c0,0.1,0,0.3,0,0.4c0,0.1,0,0.2,0,0.3h-9.4v-1h8.9l-0.6,0.2c0-1.3-0.3-2.4-1-3.1c-0.7-0.7-1.7-1.1-2.8-1.1c-0.8,0-1.6,0.2-2.2,0.6
			c-0.6,0.4-1.1,0.9-1.5,1.7c-0.3,0.7-0.5,1.7-0.5,2.7s0.2,1.9,0.5,2.7c0.3,0.8,0.8,1.3,1.6,1.7c0.6,0.4,1.3,0.6,2.3,0.6
			s1.7-0.2,2.3-0.5c0.6-0.4,1.1-0.9,1.5-1.6l0.9,0.5c-0.3,0.5-0.6,1-1.1,1.5c-0.4,0.4-0.9,0.7-1.6,0.9S813.5,336.8,812.8,336.8z"/>
		<path class="st0" d="M825.4,324.9c0.7,0,1.5,0.1,2.1,0.4c0.6,0.2,1.1,0.6,1.6,1c0.4,0.4,0.7,1,0.9,1.7l-1,0.5
			c-0.2-0.8-0.6-1.5-1.2-1.9c-0.6-0.4-1.3-0.6-2.3-0.6c-0.8,0-1.6,0.2-2.2,0.6c-0.6,0.4-1.1,0.9-1.5,1.7s-0.5,1.7-0.5,2.7
			s0.2,1.9,0.5,2.7c0.3,0.7,0.8,1.3,1.5,1.7c0.6,0.3,1.3,0.6,2.2,0.6c0.6,0,1.2-0.1,1.8-0.3c0.5-0.2,0.9-0.5,1.3-0.9
			c0.3-0.4,0.5-0.9,0.6-1.5l1,0.4c-0.2,0.7-0.5,1.3-0.9,1.8c-0.4,0.4-1,0.9-1.7,1.1c-0.6,0.3-1.3,0.4-2.2,0.4c-1,0-2-0.2-2.8-0.7
			c-0.8-0.5-1.5-1.1-1.9-2.1c-0.4-0.9-0.7-2-0.7-3.2s0.2-2.3,0.7-3.2s1.1-1.6,1.9-2.1C823.5,325.2,824.4,324.9,825.4,324.9z"/>
		<path class="st0" d="M833.2,336.6v-16.7h1.1v7.6c0.3-0.8,0.8-1.5,1.7-1.9c0.8-0.4,1.6-0.6,2.6-0.6c0.8,0,1.6,0.2,2.3,0.5
			c0.6,0.3,1.1,0.8,1.6,1.5c0.4,0.6,0.5,1.5,0.5,2.4v7.4h-1.1v-7.1c0-1.2-0.3-2.2-0.9-2.7c-0.6-0.5-1.5-0.8-2.4-0.8
			c-0.7,0-1.3,0.2-2,0.5c-0.6,0.3-1.1,0.8-1.6,1.5c-0.4,0.6-0.6,1.3-0.6,2.3v6.4h-1.1V336.6z"/>
		<path class="st0" d="M851.5,324.9c1,0,2,0.2,2.8,0.7s1.5,1.1,1.9,2.1c0.4,0.9,0.7,2,0.7,3.2s-0.2,2.3-0.7,3.2
			c-0.4,0.9-1.1,1.6-1.9,2.1c-0.8,0.5-1.8,0.7-2.8,0.7s-2-0.2-2.8-0.7c-0.8-0.5-1.5-1.1-1.9-2.1s-0.7-2-0.7-3.2s0.2-2.3,0.7-3.2
			c0.5-0.9,1.1-1.6,1.9-2.1C849.5,325.2,850.4,324.9,851.5,324.9z M851.5,325.9c-0.8,0-1.7,0.2-2.3,0.6c-0.6,0.4-1.1,0.9-1.5,1.7
			c-0.3,0.7-0.5,1.7-0.5,2.7c0,1,0.2,1.9,0.5,2.7c0.3,0.8,0.8,1.3,1.5,1.8c0.6,0.4,1.3,0.6,2.3,0.6s1.7-0.2,2.3-0.6
			c0.6-0.4,1.1-0.9,1.5-1.8c0.3-0.8,0.5-1.7,0.5-2.7c0-1-0.2-2-0.5-2.7s-0.8-1.3-1.5-1.7C853.1,326.3,852.4,325.9,851.5,325.9z"/>
		<path class="st0" d="M874.3,329.1c0-1-0.3-1.8-0.8-2.3c-0.5-0.5-1.2-0.8-2.3-0.8c-0.8,0-1.7,0.2-2.3,0.5c-0.6,0.3-1,1-1.3,1.9
			l-0.9-0.6c0.3-0.9,0.9-1.6,1.7-2.1c0.8-0.5,1.8-0.7,2.9-0.7c0.8,0,1.6,0.1,2.2,0.4c0.6,0.3,1.1,0.7,1.5,1.3
			c0.3,0.6,0.5,1.3,0.5,2.2v5.7c0,0.8,0.4,1.2,1.1,1.2c0.3,0,0.6-0.1,0.8-0.2l-0.1,0.9c-0.2,0.1-0.6,0.2-1,0.2
			c-0.3,0-0.7-0.1-0.9-0.2c-0.3-0.1-0.5-0.4-0.7-0.7c-0.2-0.3-0.3-0.7-0.3-1.3v-0.6h0.3c-0.1,0.6-0.4,1.2-0.9,1.7
			c-0.5,0.4-1,0.7-1.7,0.9c-0.6,0.2-1.2,0.3-1.9,0.3c-0.7,0-1.3-0.1-1.9-0.3c-0.5-0.2-1-0.5-1.3-1c-0.3-0.4-0.5-0.9-0.5-1.7
			c0-0.8,0.3-1.6,0.8-2.1c0.5-0.5,1.3-0.9,2.4-1l4.8-0.9v0.9l-4.1,0.8c-0.9,0.2-1.6,0.4-2,0.8c-0.4,0.3-0.6,0.8-0.6,1.5
			s0.2,1.1,0.7,1.5s1.1,0.5,2,0.5c0.4,0,0.9-0.1,1.3-0.2c0.4-0.1,0.8-0.3,1.2-0.6s0.7-0.6,0.9-1c0.2-0.4,0.3-0.9,0.3-1.5v-3.3H874.3
			z"/>
		<path class="st0" d="M759.9,347.3v14c0,0.7,0.1,1.2,0.4,1.5c0.2,0.3,0.6,0.4,1.1,0.4c0.3,0,0.6,0,0.7-0.1c0.2,0,0.4-0.1,0.6-0.2
			l-0.2,1c-0.2,0.1-0.4,0.2-0.6,0.2c-0.2,0.1-0.5,0.1-0.8,0.1c-0.8,0-1.5-0.2-1.8-0.7c-0.4-0.4-0.6-1.1-0.6-2.2v-14L759.9,347.3
			L759.9,347.3z"/>
		<path class="st0" d="M772.1,356.4c0-1-0.3-1.8-0.8-2.3s-1.2-0.8-2.3-0.8c-0.8,0-1.7,0.2-2.3,0.5c-0.6,0.4-1,1-1.3,1.9l-0.9-0.6
			c0.3-0.9,0.9-1.6,1.7-2.1c0.8-0.5,1.8-0.7,2.9-0.7c0.8,0,1.6,0.1,2.2,0.4c0.6,0.3,1.1,0.7,1.5,1.3c0.3,0.6,0.5,1.3,0.5,2.2v5.7
			c0,0.8,0.4,1.2,1.1,1.2c0.3,0,0.6-0.1,0.8-0.2l-0.1,0.9c-0.2,0.1-0.6,0.2-1,0.2c-0.3,0-0.7-0.1-0.9-0.2c-0.3-0.1-0.5-0.4-0.7-0.7
			c-0.2-0.3-0.3-0.7-0.3-1.3v-0.6h0.3c-0.1,0.6-0.4,1.2-0.9,1.7c-0.5,0.4-1,0.7-1.7,0.9c-0.6,0.2-1.2,0.3-1.9,0.3
			c-0.7,0-1.3-0.1-1.9-0.3s-1-0.5-1.3-1c-0.3-0.4-0.5-0.9-0.5-1.7c0-0.8,0.3-1.6,0.8-2.1s1.3-0.9,2.4-1l4.8-0.9v0.9l-4.1,0.8
			c-0.9,0.2-1.6,0.4-2,0.8c-0.4,0.3-0.6,0.8-0.6,1.5c0,0.6,0.2,1.1,0.7,1.5s1.1,0.5,2,0.5c0.4,0,0.9-0.1,1.3-0.2
			c0.4-0.1,0.8-0.3,1.2-0.6c0.4-0.3,0.7-0.6,0.9-1c0.2-0.4,0.3-0.9,0.3-1.5v-3.3H772.1z"/>
		<path class="st0" d="M788.9,364.2c-1.2,0-2.3-0.2-3.1-0.7c-0.9-0.5-1.6-1.1-2.1-2.1c-0.5-0.9-0.7-2-0.7-3.2c0-1.2,0.2-2.3,0.7-3.2
			c0.5-0.9,1.1-1.6,2.1-2.1c0.8-0.5,1.9-0.7,3-0.7c1.1,0,2.2,0.2,2.9,0.7c0.8,0.4,1.5,1.1,1.9,1.9c0.4,0.8,0.6,1.7,0.6,2.7
			c0,0.3,0,0.6,0,0.8c0,0.3,0,0.5-0.1,0.7H785v-2.2h7.8l-1.6,0.5c0-0.9-0.2-1.7-0.6-2.2c-0.4-0.5-1-0.7-1.9-0.7
			c-0.6,0-1,0.1-1.5,0.4s-0.7,0.7-0.9,1.2c-0.2,0.5-0.3,1.2-0.3,2.1c0,0.8,0.1,1.5,0.3,2c0.2,0.5,0.6,0.9,1,1.1s0.9,0.4,1.6,0.4
			s1.2-0.1,1.7-0.4c0.4-0.2,0.7-0.6,0.9-1l2.5,0.9c-0.2,0.6-0.6,1.1-1.1,1.6s-1,0.7-1.8,0.9C790.5,364.1,789.7,364.2,788.9,364.2z"
			/>
		<path class="st0" d="M801.2,364.2c-0.9,0-1.8-0.2-2.5-0.7c-0.7-0.5-1.3-1.1-1.8-2.1c-0.4-0.9-0.6-2-0.6-3.2c0-1.2,0.2-2.4,0.6-3.2
			c0.4-0.9,1-1.6,1.8-2.1c0.7-0.4,1.6-0.7,2.6-0.7c1,0,1.9,0.3,2.5,0.8c0.6,0.5,1,1.3,1.2,2.3l-0.3,0.4v-8.2h3.1v16.4H805l-0.2-3.4
			l0.4,0.2c-0.1,0.7-0.3,1.3-0.7,1.9s-0.8,0.9-1.5,1.2C802.4,364.1,801.9,364.2,801.2,364.2z M802.1,361.8c0.5,0,1-0.1,1.5-0.4
			c0.4-0.3,0.7-0.7,0.9-1.2c0.2-0.5,0.3-1.2,0.3-2c0-0.7-0.1-1.3-0.3-1.9s-0.5-0.9-0.9-1.1c-0.4-0.3-0.8-0.4-1.3-0.4
			c-0.8,0-1.6,0.3-2,0.9c-0.5,0.6-0.7,1.5-0.7,2.6s0.2,2.1,0.7,2.6C800.6,361.5,801.3,361.8,802.1,361.8z"/>
		<path class="st0" d="M815.2,364.2c-0.7,0-1.5-0.1-2.1-0.4c-0.6-0.3-1.1-0.7-1.5-1.3c-0.3-0.6-0.5-1.3-0.5-2.4v-7.6h3.1v6.8
			c0,0.9,0.2,1.5,0.5,1.9c0.4,0.3,0.9,0.5,1.6,0.5c0.3,0,0.6-0.1,0.9-0.2c0.3-0.1,0.6-0.3,0.8-0.5c0.2-0.2,0.4-0.5,0.5-0.9
			s0.2-0.8,0.2-1.3v-6.1h3.1V364h-2.8l-0.1-2c-0.4,0.7-0.9,1.3-1.6,1.7C816.9,364,816.1,364.2,815.2,364.2z"/>
		<path class="st0" d="M830.5,352.3c1,0,1.9,0.1,2.6,0.4c0.7,0.3,1.2,0.7,1.7,1.2c0.4,0.5,0.7,1,0.9,1.7l-2.9,1
			c-0.1-0.7-0.4-1.2-0.7-1.6c-0.4-0.3-0.8-0.5-1.5-0.5s-1,0.1-1.5,0.4c-0.4,0.3-0.7,0.6-0.9,1.2c-0.2,0.5-0.3,1.2-0.3,2
			c0,0.8,0.1,1.5,0.3,2c0.2,0.5,0.5,0.9,0.9,1.1c0.4,0.2,0.9,0.4,1.5,0.4c0.4,0,0.8-0.1,1.1-0.2c0.3-0.2,0.6-0.4,0.8-0.7
			c0.2-0.3,0.3-0.6,0.4-1.1l2.8,0.9c-0.2,0.7-0.5,1.2-0.9,1.8c-0.4,0.5-1,0.9-1.8,1.2c-0.7,0.3-1.6,0.4-2.5,0.4
			c-1.1,0-2.2-0.2-3.1-0.7s-1.6-1.1-2.1-2.1s-0.7-2-0.7-3.2c0-1.2,0.2-2.3,0.7-3.2c0.5-0.9,1.1-1.6,2.1-2.1
			C828.3,352.6,829.4,352.3,830.5,352.3z"/>
		<path class="st0" d="M844.6,356.7c0-0.6-0.2-1.1-0.5-1.6c-0.3-0.4-0.8-0.5-1.5-0.5c-0.5,0-1,0.1-1.5,0.4c-0.4,0.3-0.7,0.7-0.9,1.5
			l-2.7-0.8c0.2-1,0.8-1.8,1.7-2.4s2.1-0.9,3.5-0.9c1,0,1.9,0.2,2.6,0.5c0.7,0.3,1.3,0.8,1.8,1.5c0.4,0.6,0.6,1.5,0.6,2.4v4.7
			c0,0.6,0.3,0.8,0.8,0.8c0.2,0,0.5,0,0.7-0.1l-0.2,2c-0.4,0.2-0.9,0.3-1.5,0.3s-1-0.1-1.5-0.3c-0.4-0.2-0.7-0.4-1-0.8
			c-0.3-0.4-0.4-0.8-0.4-1.5v-0.1l0.5-0.1c-0.1,0.6-0.3,1-0.7,1.5c-0.4,0.4-0.9,0.7-1.5,0.9c-0.6,0.2-1.1,0.3-1.8,0.3
			c-0.7,0-1.5-0.1-2-0.3c-0.5-0.2-1-0.6-1.3-1c-0.3-0.4-0.4-1-0.4-1.7c0-0.8,0.3-1.6,0.8-2.1s1.3-0.9,2.4-1.1l4.3-0.8v2l-2.7,0.5
			c-0.5,0.1-0.9,0.2-1.1,0.4c-0.3,0.2-0.4,0.4-0.4,0.8s0.1,0.6,0.4,0.8c0.3,0.2,0.6,0.3,1,0.3c0.3,0,0.6,0,0.9-0.1
			c0.3-0.1,0.6-0.2,0.8-0.4c0.2-0.2,0.4-0.4,0.5-0.7c0.1-0.3,0.2-0.6,0.2-1v-3.1H844.6z"/>
		<path class="st0" d="M856.4,352.3c1,0,1.9,0.1,2.6,0.4c0.7,0.3,1.2,0.7,1.8,1.2c0.4,0.5,0.7,1,0.9,1.7l-2.9,1
			c-0.1-0.7-0.4-1.2-0.7-1.6c-0.4-0.3-0.8-0.5-1.5-0.5c-0.6,0-1,0.1-1.5,0.4c-0.4,0.3-0.7,0.6-0.9,1.2c-0.2,0.6-0.3,1.2-0.3,2
			c0,0.8,0.1,1.5,0.3,2c0.2,0.5,0.5,0.9,0.9,1.1s0.9,0.4,1.5,0.4c0.4,0,0.8-0.1,1.1-0.2c0.3-0.2,0.6-0.4,0.8-0.7s0.3-0.6,0.4-1.1
			l2.8,0.9c-0.2,0.7-0.5,1.2-0.9,1.8c-0.4,0.5-1,0.9-1.8,1.2c-0.7,0.3-1.6,0.4-2.5,0.4c-1.1,0-2.2-0.2-3.1-0.7
			c-0.9-0.5-1.6-1.1-2.1-2.1s-0.7-2-0.7-3.2c0-1.2,0.2-2.3,0.7-3.2c0.5-0.9,1.1-1.6,2.1-2.1C854.3,352.6,855.3,352.3,856.4,352.3z"
			/>
		<path class="st0" d="M865.7,350.9c-0.6,0-1.1-0.1-1.5-0.4c-0.3-0.3-0.5-0.7-0.5-1.2s0.2-1,0.5-1.2c0.3-0.3,0.8-0.4,1.5-0.4
			c0.6,0,1.1,0.1,1.5,0.4c0.3,0.3,0.5,0.7,0.5,1.2s-0.2,0.9-0.5,1.2C866.8,350.7,866.3,350.9,865.7,350.9z M867.2,352.6V364h-3.1
			v-11.4H867.2z"/>
		<path class="st0" d="M875.7,352.3c1.1,0,2.2,0.2,3,0.7s1.6,1.1,2.1,2.1c0.5,0.9,0.7,2,0.7,3.2s-0.2,2.3-0.7,3.2
			c-0.5,0.9-1.1,1.6-2.1,2.1c-0.8,0.5-1.9,0.7-3,0.7c-1.1,0-2.2-0.2-3-0.7c-0.8-0.5-1.6-1.1-2.1-2.1s-0.7-2-0.7-3.2s0.2-2.3,0.7-3.2
			s1.1-1.6,2.1-2.1C873.6,352.6,874.6,352.3,875.7,352.3z M875.7,354.7c-0.6,0-1,0.1-1.5,0.4c-0.4,0.3-0.7,0.6-0.9,1.2
			c-0.2,0.5-0.3,1.2-0.3,2s0.1,1.5,0.3,2c0.2,0.5,0.5,0.9,0.9,1.2s0.9,0.4,1.5,0.4s1-0.1,1.5-0.4s0.7-0.6,0.9-1.2
			c0.2-0.5,0.3-1.2,0.3-2s-0.1-1.5-0.3-2s-0.5-0.9-0.9-1.2S876.3,354.7,875.7,354.7z M875.8,347h3l-2.3,3.8h-2.3L875.8,347z"/>
		<path class="st0" d="M884.2,364v-11.4h2.8l0.2,3.4l-0.4-0.4c0.2-0.7,0.5-1.3,0.8-1.9c0.4-0.5,0.8-0.8,1.5-1
			c0.5-0.2,1.2-0.4,1.9-0.4c0.8,0,1.5,0.1,2.1,0.4c0.6,0.3,1.1,0.7,1.5,1.3c0.3,0.6,0.5,1.3,0.5,2.3v7.5h-3.1v-6.6
			c0-0.9-0.2-1.7-0.5-2c-0.4-0.4-0.8-0.5-1.5-0.5c-0.4,0-0.8,0.1-1.2,0.3c-0.4,0.2-0.7,0.5-0.9,1c-0.2,0.5-0.4,1-0.4,1.9v6h-3.1V364
			z"/>
	</g>
</g>
</svg>
